<?xml version="1.0" standalone="no"?>
<!DOCTYPE svg PUBLIC "-//W3C//DTD SVG 1.1//EN" "http://www.w3.org/Graphics/SVG/1.1/DTD/svg11.dtd" >
<svg>
<metadata>
Created by FontForge 20090914 at Sun Sep 22 22:30:46 2019
 By www-data
Copyright (c) 2018 by www.fontiran.com All rights reserved.
</metadata>
<defs>
<font id="Anjoman-ExtraBold" horiz-adv-x="0" >
  <font-face 
    font-family="ExtraBold"
    font-weight="800"
    font-stretch="normal"
    units-per-em="1000"
    panose-1="0 0 9 0 0 0 0 0 0 0"
    ascent="800"
    descent="-200"
    x-height="548"
    cap-height="719"
    bbox="-182 -924.002 1638 1543"
    underline-thickness="50"
    underline-position="-50"
    unicode-range="U+0020-U+FEFC"
  />
<missing-glyph horiz-adv-x="681" 
d="M558 -293h-431v1362h431v-1362zM229 978v-45h88v-51h-90v-45h227v45h-90v51h90v45h-225zM227 802v-142h227v47h-90v95h-137zM317 707h-45v49h45v-49zM227 624v-45h90v-51h-90v-45h137v96h90v45h-227zM409 542v-90h-182v-46h227v136h-45zM317 376v-77h47v32h45v-64h-137
v109h-45v-154h227v154h-137zM227 140v-154h227v154h-227zM409 31h-137v64h137v-64zM227 -45v-45h96l-96 -64v-45h227v45h-139l95 64h44v45h-227z" />
    <glyph glyph-name="uniFDF2" unicode="&#x627;&#xfedf;&#xfee0;&#xfeea;" horiz-adv-x="1542" arabic-form="isolated" 
d="M693 796l-3 202l84 12l1 -207zM1455 778v-778l-115 -17l-24 769zM585 527c-21.333 20.667 -32.002 47 -32.002 79c0 7.33301 1.33301 22.666 4 45.999l11 93l72 -14l-11 -89c-2 -12.667 1.5 -21.167 10.5 -25.5s21.833 -6.5 38.5 -6.5c11.333 0 20.333 1 27 3l-2 101
l78 3l2 -105c4.66699 -1.33301 12.334 -2 23.001 -2c16.667 0 29 0.5 37 1.5s15.333 3.16699 22 6.5c-1.33301 18 -4 38.833 -8 62.5s-8.33301 43.834 -13 60.501l81 33c13.333 -55.333 20 -112 20 -170c0 -34 -12.167 -60.5 -36.5 -79.5s-58.5 -28.5 -102.5 -28.5
c-26.667 0 -48 6 -64 18c-29.333 -12 -55.333 -18 -78 -18c-31.333 0 -57.666 10.333 -78.999 31zM1184 574c1.33301 -18 5.33496 -68.668 12.002 -152.001s11.334 -160.666 14.001 -231.999c1.33301 -26.667 -3.33398 -52.334 -14.001 -77.001
s-28.334 -45.334 -53.001 -62.001c-22.667 -16 -51.834 -28.5 -87.501 -37.5s-74.5 -13.5 -116.5 -13.5c-37.333 0 -72 4.33301 -104 13s-57.667 22 -77 40c-24 -21.333 -49.667 -35.5 -77 -42.5s-68.333 -10.5 -123 -10.5c-56 0 -100 8.33301 -132 25
s-50.667 47.334 -56 92.001c-10 -17.333 -17.833 -29.166 -23.5 -35.499s-11.5 -10.166 -17.5 -11.499c-14 -2 -30 -3 -48 -3c-16.667 0 -39 1 -67 3c-85.333 7.33301 -128 47 -128 119l1 17c4.66699 50 14.334 90.5 29.001 121.5s38.167 57.667 70.5 80
s78.5 45.166 138.5 68.499l-1 77l133 27l5 -297c0.666992 -35.333 2.66699 -59 6 -71s10.666 -19.667 21.999 -23s34 -5 68 -5c57.333 0 106 3 146 9l-14 199l135 27l1 -165c0 -22 5 -38.833 15 -50.5s27.333 -18.167 52 -19.5h46c60 0 109.667 5.66699 149 17l-50 460
l136 34c4 -56 7.33301 -96.333 10 -121zM260 232.999c24 0 52 3.66699 84 11l-6 97c-44 -14.667 -76.167 -30.5 -96.5 -47.5s-33.5 -34.833 -39.5 -53.5c20 -3.33301 32.667 -5.33301 38 -6c4 -0.666992 10.667 -1 20 -1z" />
    <glyph glyph-name="uniFEF5" unicode="&#xfedf;&#xfe82;" horiz-adv-x="557" arabic-form="isolated" 
d="M191 672c-42 0 -84.668 3.33301 -128.001 10c-18.667 2.66699 -30 4 -34 4c-8.66699 0 -15.5 -3.16699 -20.5 -9.5s-10.167 -19.5 -15.5 -39.5l-100 25c10.667 44 21.834 78.167 33.501 102.5s25.5 41.333 41.5 51s36 14.5 60 14.5c7.33301 0 25.666 -2 54.999 -6
c48.667 -7.33301 92.334 -11 131.001 -11h66l-33 -141h-56zM161.499 169c45.667 6.66699 85 14.165 118 22.498s55.167 15.833 66.5 22.5l-27 538l139 26l13 -563c0 -83.333 -43.333 -143.166 -130 -179.499s-186 -56.833 -298 -61.5l-22 184
c48 0.666992 94.833 4.33398 140.5 11.001zM216.499 440.498c8.33301 -55 12.501 -112.5 12.501 -172.5v-55l-111 -13c-0.666992 46 -1.83398 83.333 -3.50098 112s-7 62.5 -16 101.5s-23.167 76.833 -42.5 113.5l109 77c26 -54 43.167 -108.5 51.5 -163.5z" />
    <glyph glyph-name="uniFEF6" unicode="&#xfee0;&#xfe82;" horiz-adv-x="609" arabic-form="final" 
d="M182 672c-42 0 -84.667 3.33301 -128 10c-18.667 2.66699 -29.667 4 -33 4c-9.33301 0 -16.5 -3 -21.5 -9s-10.167 -19.333 -15.5 -40l-99 25c10 44 21 78 33 102s26 41 42 51s36 15 60 15c7.33301 0 25.666 -2 54.999 -6c48.667 -7.33301 92.334 -11 131.001 -11h65
l-32 -141h-57zM616 171c2 -8.66699 3 -19.002 3 -31.002v-96c0 -12 -1 -22.333 -3 -31s-4.33301 -13 -7 -13h-86c-28.667 0 -52.834 6 -72.501 18s-35.167 31 -46.5 57c-40 -33.333 -92.667 -57.666 -158 -72.999s-132.666 -24.666 -201.999 -27.999l-22 184
c48 0.666992 94.833 4.33398 140.5 11.001s85 14.167 118 22.5s55.167 15.833 66.5 22.5l-27 538l139 26l12 -516c1.33301 -30.667 5.33301 -51.334 12 -62.001s19.667 -16 39 -16h87c2.66699 0 5 -4.33301 7 -13zM166 603.998c26 -54 43.167 -108.499 51.5 -163.499
s12.5 -112.5 12.5 -172.5v-55l-110 -13c-0.666992 44 -1.83398 80.667 -3.50098 110s-7.16699 63.666 -16.5 102.999s-23.666 77.333 -42.999 114z" />
    <glyph glyph-name="uniFEF7" unicode="&#xfedf;&#xfe84;" horiz-adv-x="558" arabic-form="isolated" 
d="M-104 713l90.999 27.998c-15.333 38 -23 71.333 -23 100c0 8 0.333008 14 1 18c2.66699 34.667 16.334 61.834 41.001 81.501s56.667 29.5 96 29.5c9.33301 0 16.333 -0.333008 21 -1c16 -0.666992 33.333 -3.66699 52 -9l-23 -106
c-20.667 4.66699 -36.667 7.33398 -48 8.00098c-4.66699 0.666992 -11.667 1 -21 1c-13.333 0 -24.333 -1 -33 -3c0 -30.667 9.66699 -61.667 29 -93l161 42l15 -106l-344 -96zM161.999 168.998c46 6.66699 85.5 14.165 118.5 22.498s55.167 15.833 66.5 22.5l-27 538
l139 26l13 -563c0 -83.333 -43.5 -143.166 -130.5 -179.499s-186.5 -56.833 -298.5 -61.5l-21 184c47.333 0.666992 94 4.33398 140 11.001zM217.499 440.496c8.33301 -55 12.501 -112.499 12.501 -172.499v-55l-111 -13c-0.666992 44 -1.83398 80.667 -3.50098 110
s-7 63.666 -16 102.999s-23.167 77.333 -42.5 114l109 77c26 -54 43.167 -108.5 51.5 -163.5z" />
    <glyph glyph-name="uniFEF8" unicode="&#xfee0;&#xfe84;" horiz-adv-x="609" arabic-form="final" 
d="M256 703l-344.001 -96.002l-15 106l91 28c-15.333 38 -23 71.333 -23 100c0 8 0.333008 14 1 18c2.66699 34.667 16.334 61.834 41.001 81.501s56.667 29.5 96 29.5c9.33301 0 16.333 -0.333008 21 -1c16.667 -0.666992 34 -3.66699 52 -9l-23 -106
c-20.667 4.66699 -36.667 7.33398 -48 8.00098c-4.66699 0.666992 -11.667 1 -21 1c-12.667 0 -23.667 -1 -33 -3c0 -30.667 9.66699 -61.667 29 -93l161 42zM615.999 170.998c2 -8.66699 3 -19.002 3 -31.002v-96c0 -12 -1 -22.333 -3 -31s-4.33301 -13 -7 -13h-85
c-28.667 0 -53 6 -73 18s-35.333 31 -46 57c-40 -33.333 -92.667 -57.666 -158 -72.999s-133 -24.666 -203 -27.999l-21 184c47.333 0.666992 94 4.33398 140 11.001s85.5 14.167 118.5 22.5s55.167 15.833 66.5 22.5l-27 538l139 26l12 -516
c1.33301 -30.667 5.33301 -51.334 12 -62.001s19.667 -16 39 -16h86c2.66699 0 5 -4.33301 7 -13zM116.499 309.996c-1.66699 29.333 -6.99902 63.667 -15.999 103s-23.167 77.333 -42.5 114l109 77c26 -54 43.167 -108.5 51.5 -163.5s12.5 -112.5 12.5 -172.5v-55l-111 -13
c-0.666992 44 -1.83398 80.667 -3.50098 110z" />
    <glyph glyph-name="uniFEF9" unicode="&#xfedf;&#xfe88;" horiz-adv-x="581" arabic-form="isolated" 
d="M226.5 176c64.333 10.667 111.5 23.332 141.5 37.999l-27 538l140 26l13 -563c0 -83.333 -43.5 -143.166 -130.5 -179.499s-186.5 -56.833 -298.5 -61.5l-22 184c58 1.33301 119.167 7.33301 183.5 18zM226 501.998c17.333 -75.333 26 -154.665 26 -237.998v-51l-112 -13
c-0.666992 54.667 -2.66699 101.667 -6 141s-13.666 83.666 -30.999 132.999s-44.333 95.666 -81 138.999l95 107c55.333 -70 91.666 -142.667 108.999 -218zM75 -349.001l91.999 28c-15.333 38 -23 71.333 -23 100c0 8 0.333008 14 1 18
c2.66699 34.667 16.334 61.834 41.001 81.501s56.667 29.5 96 29.5c9.33301 0 16.333 -0.333008 21 -1c16.667 -0.666992 34 -3.66699 52 -9l-23 -105c-25.333 4 -41.333 6.33301 -48 7c-4.66699 0.666992 -11.667 1 -21 1c-12.667 0 -23.667 -1 -33 -3
c0 -30.667 9.66699 -61.334 29 -92.001l161 41l15 -106l-344 -96z" />
    <glyph glyph-name="uniFEFA" unicode="&#xfee0;&#xfe88;" horiz-adv-x="629" arabic-form="final" 
d="M636 171c2 -8.66699 2.99902 -19.001 2.99902 -31.001v-96c0 -12 -1 -22.333 -3 -31s-4.33301 -13 -7 -13h-85c-58 0 -97.667 24.667 -119 74c-40 -32.667 -92.5 -56.667 -157.5 -72s-132.5 -24.666 -202.5 -27.999l-22 184c58 1.33301 119.167 7.33301 183.5 18
s111.5 23.334 141.5 38.001l-27 538l140 26l12 -516c1.33301 -30.667 5.33301 -51.334 12 -62.001s19.334 -16 38.001 -16h86c2.66699 0 5 -4.33301 7 -13zM139.999 199.999c-0.666992 54.667 -2.66699 101.668 -6 141.001s-13.666 83.666 -30.999 132.999
s-44.333 95.666 -81 138.999l95 107c55.333 -70 91.666 -142.667 108.999 -218s26 -154.666 26 -237.999v-51zM419.999 -253l14.999 -106l-344 -96l-16 106l92 28c-15.333 38 -23 71.333 -23 100c0 8 0.333008 14 1 18c2.66699 34.667 16.334 61.834 41.001 81.501
s56.667 29.5 96 29.5c9.33301 0 16.333 -0.333008 21 -1c16.667 -0.666992 34 -3.66699 52 -9l-23 -105c-25.333 4 -41.333 6.33301 -48 7c-4.66699 0.666992 -11.667 1 -21 1c-12.667 0 -23.667 -1 -33 -3c0 -30.667 9.66699 -61.334 29 -92.001z" />
    <glyph glyph-name="uniFEFB" unicode="&#xfedf;&#xfe8e;" horiz-adv-x="580" arabic-form="isolated" 
d="M226.5 176c64.333 10.667 111.5 23.332 141.5 37.999l-27 538l140 26l13 -563c0 -83.333 -43.5 -143.166 -130.5 -179.499s-186.5 -56.833 -298.5 -61.5l-22 184c58 1.33301 119.167 7.33301 183.5 18zM226 501.998c17.333 -75.333 26 -154.665 26 -237.998v-51l-112 -13
c-0.666992 54.667 -2.66699 101.667 -6 141s-13.666 83.666 -30.999 132.999s-44.333 95.666 -81 138.999l95 107c55.333 -70 91.666 -142.667 108.999 -218z" />
    <glyph glyph-name="uniFEFC" unicode="&#xfee0;&#xfe8e;" horiz-adv-x="629" arabic-form="final" 
d="M636 171c2 -8.66699 2.99902 -19.001 2.99902 -31.001v-96c0 -12 -1 -22.333 -3 -31s-4.33301 -13 -7 -13h-85c-58 0 -97.667 24.667 -119 74c-40 -32.667 -92.5 -56.667 -157.5 -72s-132.5 -24.666 -202.5 -27.999l-22 184c58 1.33301 119.167 7.33301 183.5 18
s111.5 23.334 141.5 38.001l-27 538l140 26l12 -516c1.33301 -30.667 5.33301 -51.334 12 -62.001s19.334 -16 38.001 -16h86c2.66699 0 5 -4.33301 7 -13zM139.999 199.999c-0.666992 54.667 -2.66699 101.668 -6 141.001s-13.666 83.666 -30.999 132.999
s-44.333 95.666 -81 138.999l95 107c55.333 -70 91.666 -142.667 108.999 -218s26 -154.666 26 -237.999v-51z" />
    <glyph glyph-name="uni06440671" unicode="&#xfedf;&#xfb51;" horiz-adv-x="609" 
d="M-1 646.5c-22.667 9.66699 -33.999 25.835 -33.999 48.502v34c-22 -24 -39.333 -50 -52 -78l-71 38c2.66699 14.667 13 34.667 31 60s40.333 47.166 67 65.499s54 26.5 82 24.5v-80c4.66699 -2.66699 8.66699 -4 12 -4c25.333 33.333 51.333 61.666 78 84.999
s53.667 35 81 35c70 0 105 -42.333 105 -127c0 -25.333 -5 -45 -15 -59c-16.667 -18 -41 -32 -73 -42s-67.667 -15 -107 -15c-46.667 0 -81.334 4.83301 -104.001 14.5zM223.001 748.001c-0.666992 12 -3.16602 20.333 -7.49902 25s-11.833 7 -22.5 7
c-12.667 0 -26.834 -4 -42.501 -12s-31.167 -19.667 -46.5 -35c42 0.666992 81.667 5.66699 119 15zM213.002 169.001c46 6.66699 85.5 14.165 118.5 22.498s55.167 15.833 66.5 22.5l-27 538l139 26l13 -563c0 -83.333 -43.5 -143.166 -130.5 -179.499
s-186.5 -56.833 -298.5 -61.5l-21 184c47.333 0.666992 94 4.33398 140 11.001zM268.502 440.499c8.33301 -55 12.501 -112.499 12.501 -172.499v-55l-111 -13c-0.666992 44 -1.83398 80.667 -3.50098 110s-7 63.666 -16 102.999s-23.167 77.333 -42.5 114l109 77
c26 -54 43.167 -108.5 51.5 -163.5z" />
    <glyph glyph-name="uni06440671.fina" unicode="&#xfee0;&#xfb51;" horiz-adv-x="611" 
d="M185.5 658.5c-32.333 -10.333 -68.167 -15.499 -107.5 -15.499c-46 0 -80.5 5 -103.5 15s-34.5 26 -34.5 48v34c-23.333 -28 -40.333 -53.667 -51 -77l-71 37c2.66699 14.667 13 34.667 31 60s40.167 47.166 66.5 65.499s53.833 26.5 82.5 24.5v-80
c4.66699 -2.66699 8.66699 -4 12 -4c25.333 33.333 51.333 61.666 78 84.999s53.667 35 81 35c70 0 105 -42.333 105 -127c0 -26 -5.33301 -45.667 -16 -59c-16 -17.333 -40.167 -31.166 -72.5 -41.499zM125.499 780.001c-15.667 -8 -31.167 -20.001 -46.5 -36.001
c41.333 0.666992 81.333 5.66699 120 15c-0.666992 12.667 -3.16699 21.334 -7.5 26.001s-12.166 7 -23.499 7c-12.667 0 -26.834 -4 -42.501 -12zM617.999 171c2 -8.66699 2.99902 -19.002 2.99902 -31.002v-96c0 -12 -1 -22.333 -3 -31s-4.33301 -13 -7 -13h-86
c-58 0 -97.333 25 -118 75c-40 -33.333 -92.667 -57.666 -158 -72.999s-133 -24.666 -203 -27.999l-21 184c47.333 0.666992 94 4.33398 140 11.001s85.5 14.167 118.5 22.5s55.167 15.833 66.5 22.5l-27 538l139 26l12 -516c1.33301 -30.667 5.33301 -51.334 12 -62.001
s19.334 -16 38.001 -16h87c2.66699 0 5 -4.33301 7 -13zM118.498 309.998c-1.66699 29.333 -6.99902 63.667 -15.999 103s-23.167 77.333 -42.5 114l109 77c26.667 -55.333 44 -110.833 52 -166.5s12 -115.167 12 -178.5v-46l-111 -13
c-0.666992 44 -1.83398 80.667 -3.50098 110z" />
    <glyph glyph-name="uni066E.init" unicode="&#x66e;" horiz-adv-x="381" 
d="M292 320c2 -34.667 3.00098 -79.333 3.00098 -134c0 -59.333 -23 -104.333 -69 -135c-48 -34 -123.333 -51 -226 -51c-2.66699 -0 -5.16699 4.33301 -7.5 13s-3.5 19 -3.5 31v96c0 12 1 22.333 3 31s4.66699 13 8 13c46.667 0 82.667 1.66699 108 5
s45.666 8.33301 60.999 15l-27 215l140 25c4.66699 -48 8 -89.333 10 -124z" />
    <glyph glyph-name="uni066E.medi" unicode="&#x66e;" horiz-adv-x="434" 
d="M441 171c2 -8.66699 3.00098 -19.002 3.00098 -31.002v-96c0 -12 -1 -22.333 -3 -31s-4.33301 -13 -7 -13c-67.333 0 -116.333 5.33301 -147 16s-51.334 29.334 -62.001 56.001c-10 -18.667 -23.333 -33.167 -40 -43.5s-39.5 -17.666 -68.5 -21.999
s-67.833 -6.5 -116.5 -6.5c-2.66699 -0 -5.16699 4.33301 -7.5 13s-3.5 19 -3.5 31v96c0 12 1 22.333 3 31s4.66699 13 8 13c44 0 78.167 1.16699 102.5 3.5s44.5 7.83301 60.5 16.5l-24 180l140 15l10 -204c10.667 -4.66699 26 -7.66699 46 -9s53 -2 99 -2
c2.66699 0 5 -4.33301 7 -13z" />
    <glyph glyph-name="uni066E.fina" unicode="&#x66e;" horiz-adv-x="938" 
d="M945 171c2 -8.66699 3.00195 -19 3.00195 -31v-96c0 -12 -1 -22.333 -3 -31s-4.33301 -13 -7 -13c-46.667 0 -86 6.16699 -118 18.5s-52 29.833 -60 52.5c-6 -11.333 -14.5 -20.5 -25.5 -27.5s-27.167 -13.5 -48.5 -19.5c-28 -8 -63.833 -14.667 -107.5 -20
s-88.834 -8 -135.501 -8c-76.667 0 -140.834 5.83301 -192.501 17.5s-92 33.334 -121 65.001s-43.5 76.167 -43.5 133.5c0 17.333 2.33301 40 7 68l26 155l111 -22l-23 -139c-2.66699 -10 -4 -18.333 -4 -25c0 -19.333 6.83301 -33.833 20.5 -43.5
s37.167 -16.334 70.5 -20.001s83 -5.5 149 -5.5c109.333 0 201.333 8.33301 276 25l-18 145l136 15l8 -169c26 -8 57 -12 93 -12c2.66699 0 5 -4.33301 7 -13z" />
    <glyph glyph-name="uni066F.fina" unicode="&#x66f;" horiz-adv-x="884" 
d="M891 171c2 -8.66699 3.00195 -18.999 3.00195 -30.999v-96c0 -12 -1 -22.333 -3 -31s-4.33301 -13 -7 -13h-127c-1.33301 -44.667 -5.16602 -77.334 -11.499 -98.001s-17.833 -39.667 -34.5 -57c-36 -34.667 -85.333 -59.5 -148 -74.5s-132 -22.5 -208 -22.5
c-99.333 0 -169 18.333 -209 55s-60 91 -60 163c0 40.667 17.333 153.334 52 338.001l112 -22c-10.667 -56 -19.834 -111.333 -27.501 -166s-11.834 -95 -12.501 -121c0 -24.667 15.167 -41.5 45.5 -50.5s63.833 -13.5 100.5 -13.5c75.333 0 136 2.33301 182 7
s81.667 11.667 107 21c0 11.333 0.666992 27.666 2 48.999c-36 -9.33301 -72.667 -14 -110 -14c-32.667 0 -62 4 -88 12c-10 3.33301 -18.5 8.5 -25.5 15.5s-15.5 18.833 -25.5 35.5c-12 20 -19.667 34.167 -23 42.5s-5 18.833 -5 31.5
c3.33301 84 21.166 153.333 53.499 208s80.5 82 144.5 82c54 0 96.667 -21.5 128 -64.5s51 -100.5 59 -172.5h129c2.66699 0 5 -4.33301 7 -13zM638.002 150.001c0 37.333 -7.5 65.833 -22.5 85.5s-34.5 29.5 -58.5 29.5c-20 0 -36.167 -9.66699 -48.5 -29
s-19.833 -48.333 -22.5 -87c21.333 -2 48.333 -3 81 -3c31.333 0 55 1.33301 71 4z" />
    <glyph glyph-name="uni06A1.init" unicode="&#x6a1;" horiz-adv-x="518" 
d="M426 191.5c-4.66699 -40.333 -13.332 -73.167 -25.999 -98.5s-31.334 -44.666 -56.001 -57.999c-22 -12.667 -50.333 -21.667 -85 -27s-78 -8 -130 -8h-129c-2.66699 0 -5.16699 4.33301 -7.5 13s-3.5 19 -3.5 31v96c0 12 1 22.333 3 31s4.66699 13 8 13
c108.667 0 183.167 0.333008 223.5 1s67.5 2.33398 81.5 5.00098l4 53c-30.667 -8 -64 -12 -100 -12c-33.333 0 -62 4 -86 12c-10.667 3.33301 -19.667 8.66602 -27 15.999s-16 19.333 -26 36c-11.333 17.333 -18.666 30.666 -21.999 39.999s-5 20.333 -5 33
c2.66699 84 20.167 153.167 52.5 207.5s80.5 81.5 144.5 81.5c38.667 0 72.667 -13.333 102 -40s51.666 -63 66.999 -109s23 -97.333 23 -154c0.666992 -68 -1.33301 -122.167 -6 -162.5zM239.002 382.999c29.333 0 53.333 1 72 3c0 38 -7.5 66.833 -22.5 86.5
s-34.5 29.5 -58.5 29.5c-20.667 0 -37.167 -9.66699 -49.5 -29s-19.833 -48.333 -22.5 -87c20.667 -2 47.667 -3 81 -3z" />
    <glyph glyph-name="uni06A1.medi" unicode="&#x6a1;" horiz-adv-x="497" 
d="M504 171c2 -8.66699 3.00195 -18.999 3.00195 -30.999v-96c0 -12 -1 -22.333 -3 -31s-4.33301 -13 -7 -13h-90c-35.333 0 -66.833 3.83301 -94.5 11.5s-51.5 22.167 -71.5 43.5c-22 -20.667 -47.333 -35 -76 -43s-63.334 -12 -104.001 -12h-61
c-2.66699 0 -5.16699 4.33301 -7.5 13s-3.5 19 -3.5 31v96c0 12 1 22.333 3 31s4.66699 13 8 13h16c32.667 0 53 -0.666992 61 -2c-6.66699 5.33301 -11.834 12.166 -15.501 20.499s-5.5 16.5 -5.5 24.5c0 34 11 72 33 114s49 77.833 81 107.5s61.333 44.5 88 44.5
c31.333 0 61 -12.333 89 -37s50.333 -57.5 67 -98.5s25 -84.5 25 -130.5c0 -22 -4.66699 -37.333 -14 -46c10 2 20 3 30 3h42c2.66699 0 5 -4.33301 7 -13zM317.002 231.001c-4 28 -11.666 51.833 -22.999 71.5s-23.333 29.5 -36 29.5c-8 0 -18.833 -5.66699 -32.5 -17
s-25.834 -24.166 -36.501 -38.499s-16 -25.5 -16 -33.5c0 -5.33301 4.5 -12.333 13.5 -21s23.167 -21.334 42.5 -38.001z" />
    <glyph glyph-name="uni06A1.fina" unicode="&#x6a1;" horiz-adv-x="1042" 
d="M1049 171c2 -8.66699 3 -19.002 3 -31.002v-96c0 -12 -1 -22.333 -3 -31s-4.33301 -13 -7 -13h-89c-36.667 0 -69.167 4 -97.5 12s-52.5 23.333 -72.5 46c-14 -12 -29 -22 -45 -30c-24.667 -13.333 -52 -22.166 -82 -26.499s-68.667 -6.5 -116 -6.5l-97 1
c-76.667 0 -140.834 5.83301 -192.501 17.5s-92 33.334 -121 65.001s-43.5 76.167 -43.5 133.5c0 17.333 2.33301 40 7 68l26 155l111 -22l-23 -139c-2.66699 -10 -4 -18.333 -4 -25c0 -19.333 6.83301 -33.833 20.5 -43.5s37.167 -16.334 70.5 -20.001s83 -5.5 149 -5.5
c55.333 0 91.333 0.333008 108 1h35c14 0 27 -0.666992 39 -2c-6.66699 6 -12.167 13.333 -16.5 22s-6.5 17.334 -6.5 26.001c0 34 11 72.167 33 114.5s48.833 78.166 80.5 107.499s61.167 44 88.5 44c31.333 0 60.833 -12.333 88.5 -37s49.834 -57.5 66.501 -98.5
s25 -84.5 25 -130.5c0 -21.333 -4.33301 -36.666 -13 -45.999c9.33301 2 19 3 29 3h42c2.66699 0 5 -4.33301 7 -13zM862 230.998c-4 28 -11.668 51.8301 -23.001 71.4971s-23.333 29.5 -36 29.5c-8 0 -18.833 -5.66699 -32.5 -17s-26 -24.166 -37 -38.499
s-16.5 -25.5 -16.5 -33.5c0 -5.33301 4.33301 -12.166 13 -20.499s23.334 -21.166 44.001 -38.499z" />
    <glyph glyph-name="uniFB51" unicode="&#x671;" horiz-adv-x="329" arabic-form="final" 
d="M231.5 754c-32.333 -10 -68.502 -15.002 -108.502 -15.002c-46.667 0 -81.5 4.83301 -104.5 14.5s-34.5 25.834 -34.5 48.501v35c-21.333 -23.333 -38.666 -49.333 -51.999 -78l-71 37c2.66699 14.667 13 34.834 31 60.501s40.333 47.667 67 66s54.334 26.5 83.001 24.5
v-80c4.66699 -2.66699 8.66699 -4 12 -4c26.667 34 53.167 62.5 79.5 85.5s53.5 34.5 81.5 34.5c70.667 0 106 -42.667 106 -128c0 -26 -5.33301 -45.667 -16 -59c-16.667 -18 -41.167 -32 -73.5 -42zM170.998 875.998c-16 -8 -31.668 -20 -47.001 -36
c44 0.666992 84.333 6 121 16c-0.666992 12 -3.16699 20.333 -7.5 25s-12.166 7 -23.499 7c-12.667 0 -27 -4 -43 -12zM335.997 170.998c2 -8.66699 3 -19 3 -31v-96c0 -12 -1 -22.333 -3 -31s-4.33301 -13 -7 -13h-32c-51.333 0 -93 7.5 -125 22.5s-56.5 41.667 -73.5 80
s-25.833 91.5 -26.5 159.5l-6 372l139 26l1 -397c0 -52.667 22.333 -79 67 -79h56c2.66699 0 5 -4.33301 7 -13z" />
    <glyph glyph-name="uniFB57" unicode="&#x67e;" horiz-adv-x="938" arabic-form="final" 
d="M945 171c2 -8.66699 3.00195 -19 3.00195 -31v-96c0 -12 -1 -22.333 -3 -31s-4.33301 -13 -7 -13c-46.667 0 -86 6.16699 -118 18.5s-52 29.833 -60 52.5c-6 -11.333 -14.5 -20.5 -25.5 -27.5s-27.167 -13.5 -48.5 -19.5c-28 -8 -63.833 -14.667 -107.5 -20
s-88.834 -8 -135.501 -8c-76.667 0 -140.834 5.83301 -192.501 17.5s-92 33.334 -121 65.001s-43.5 76.167 -43.5 133.5c0 17.333 2.33301 40 7 68l26 155l111 -22l-23 -139c-2.66699 -10 -4 -18.333 -4 -25c0 -19.333 6.83301 -33.833 20.5 -43.5
s37.167 -16.334 70.5 -20.001s83 -5.5 149 -5.5c109.333 0 201.333 8.33301 276 25l-18 145l136 15l8 -169c26 -8 57 -12 93 -12c2.66699 0 5 -4.33301 7 -13zM562.002 -113l108 -91l-92 -109l-108 92zM388.002 -318l-108 90l91 109l108 -90zM470.002 -288l109 -92l-91 -108
l-108 92z" />
    <glyph glyph-name="uniFB58" unicode="&#x67e;" horiz-adv-x="381" arabic-form="initial" 
d="M-7.5 13c-2.33301 8.66699 -3.49902 19.001 -3.49902 31.001v96c0 12 1 22.333 3 31s4.66699 13 8 13c46.667 0 82.667 1.66699 108 5s45.666 8.33301 60.999 15l-27 215l140 25c4.66699 -48 8 -89.333 10 -124s3 -79.334 3 -134.001c0 -59.333 -23 -104.333 -69 -135
c-48 -34 -123.333 -51 -226 -51c-2.66699 -0 -5.16699 4.33301 -7.5 13zM197.001 -112.999l108 -90l-92 -109l-108 91zM23.001 -317.999l-108 91l91 109l108 -91zM105.001 -287.999l109 -91l-91 -108l-108 91z" />
    <glyph glyph-name="uniFB59" unicode="&#x67e;" horiz-adv-x="434" arabic-form="medial" 
d="M441 171c2 -8.66699 3.00098 -19.002 3.00098 -31.002v-96c0 -12 -1 -22.333 -3 -31s-4.33301 -13 -7 -13c-67.333 0 -116.333 5.33301 -147 16s-51.334 29.334 -62.001 56.001c-10 -18.667 -23.333 -33.167 -40 -43.5s-39.5 -17.666 -68.5 -21.999
s-67.833 -6.5 -116.5 -6.5c-2.66699 -0 -5.16699 4.33301 -7.5 13s-3.5 19 -3.5 31v96c0 12 1 22.333 3 31s4.66699 13 8 13c44 0 78.167 1.16699 102.5 3.5s44.5 7.83301 60.5 16.5l-24 180l140 15l10 -204c10.667 -4.66699 26 -7.66699 46 -9s53 -2 99 -2
c2.66699 0 5 -4.33301 7 -13zM239.001 -113.002l108 -91l-91 -109l-108 92zM65.001 -318.002l-108 90l92 109l108 -90zM147.001 -288.002l109 -92l-90 -108l-108 92z" />
    <glyph glyph-name="uniFB7B" unicode="&#x686;" horiz-adv-x="807" arabic-form="final" 
d="M814 171c2 -8.66699 3.00293 -18.998 3.00293 -30.998v-96c0 -12 -1 -22.333 -3 -31s-4.33301 -13 -7 -13h-94c-54.667 0 -96.667 6 -126 18s-51.833 30 -67.5 54s-32.167 60.333 -49.5 109l3 3c-52 -30 -100.333 -63.5 -145 -100.5s-77.334 -70.833 -98.001 -101.5
c-2 -20 -3 -39 -3 -57c0 -61.333 16.5 -106 49.5 -134s85.167 -42 156.5 -42h239l-37 -188h-212c-107.333 0 -190.333 30.167 -249 90.5s-88 143.833 -88 250.5c0 83.333 26.667 160.166 80 230.499s129.333 132.166 228 185.499c26 14.667 44.333 23.667 55 27
c-22.667 8 -43.334 14.333 -62.001 19c-64 17.333 -104.667 26 -122 26c-20.667 0 -34.5 -5.5 -41.5 -16.5s-12.167 -25.833 -15.5 -44.5l-109 17c20 129.333 71.667 194 155 194c24 0 49.667 -3.33301 77 -10s60 -16.667 98 -30c66 -22.667 121.833 -39.667 167.5 -51
s95.167 -17 148.5 -17l-37 -163c-42 -3.33301 -86.667 -15 -134 -35c11.333 -19.333 22.666 -32.5 33.999 -39.5s31 -10.5 59 -10.5h140c2.66699 0 5 -4.33301 7 -13zM466.003 -104.998l-62 53l52 62l62 -52zM408.003 -44.998l-52 -63l-62 52l52 63zM414.003 -205.998
l-63 53l52 62l63 -52z" />
    <glyph glyph-name="uniFB7C" unicode="&#x686;" horiz-adv-x="759" arabic-form="initial" 
d="M573.5 395.5c43 -11 88.167 -16.501 135.5 -16.501l-37 -173c-42 -4.66699 -79.333 -13.834 -112 -27.501s-71.667 -33.5 -117 -59.5c-5.33301 -3.33301 -17.333 -10.166 -36 -20.499s-37 -19.5 -55 -27.5c-46 -22 -96 -39.333 -150 -52s-117.333 -19 -190 -19h-12
c-2.66699 0 -5.16699 4.33301 -7.5 13s-3.5 19 -3.5 31v96c0 12 1 22.333 3 31s4.66699 13 8 13h12c80 0 162.667 10.333 248 31c31.333 6.66699 71.666 20.334 120.999 41.001c31.333 12 50.333 19 57 21l19 4c-14.667 3.33301 -43 13 -85 29
c-69.333 25.333 -116.333 38 -141 38c-20.667 0 -34.667 -5.66699 -42 -17s-12.666 -26 -15.999 -44l-107 17c18.667 129.333 70 194 154 194c27.333 0 55 -4.16699 83 -12.5s69 -22.5 123 -42.5c55.333 -20.667 104.5 -36.5 147.5 -47.5zM422 -113.001l108 -91l-91 -109
l-108 92zM248 -318.001l-108 90l91 109l108 -90zM330 -288.001l109 -92l-90 -108l-108 92z" />
    <glyph glyph-name="uniFB7D" unicode="&#x686;" horiz-adv-x="779" arabic-form="medial" 
d="M786 171c2 -8.66699 2.99707 -19.002 2.99707 -31.002v-96c0 -12 -1 -22.333 -3 -31s-4.33301 -13 -7 -13h-184c-127.333 0 -201.333 29 -222 87c-49.333 -27.333 -102.166 -48.666 -158.499 -63.999s-123.833 -23 -202.5 -23h-12c-2.66699 0 -5.16699 4.33301 -7.5 13
s-3.5 19 -3.5 31v96c0 12 1 22.333 3 31s4.66699 13 8 13h12c85.333 0 168 10.333 248 31c20 4.66699 39.333 10.834 58 18.501s39.334 17.167 62.001 28.5c26.667 12.667 46 20.667 58 24c-2 -0.666992 5 1 21 5h-1c-7.33301 1.33301 -25.666 6.66602 -54.999 15.999
l-51 15c-61.333 17.333 -101.666 26 -120.999 26c-20.667 0 -34.667 -5.66699 -42 -17s-12.666 -26 -15.999 -44l-107 17c18.667 129.333 70 194 154 194c24 0 49.667 -3.33301 77 -10s59.666 -16.667 96.999 -30c66 -22.667 121.667 -39.667 167 -51
s94.666 -17 147.999 -17l-37 -163c-32 -3.33301 -61.5 -10.666 -88.5 -21.999s-55.833 -26.333 -86.5 -45c74 16 149.333 24 226 24h56c2.66699 0 5 -4.33301 7 -13zM421.997 -113.002l108 -91l-91 -109l-108 92zM247.997 -318.002l-108 90l91 109l108 -90z
M329.997 -288.002l109 -92l-90 -108l-108 92z" />
    <glyph glyph-name="uniFB8B" unicode="&#x698;" horiz-adv-x="446" arabic-form="final" 
d="M189 632l-108 91l91 108l109 -91zM274 660l109 -91l-91 -108l-109 91zM101 454l-109 91l92 110l108 -91zM453 171c2 -8.66699 3 -18.999 3 -30.999v-96c0 -12 -1 -22.333 -3 -31s-4.33301 -13 -7 -13h-17c-38.667 0 -69 14.333 -91 43
c-4.66699 -74.667 -30.834 -140.834 -78.501 -198.501s-126.834 -114.167 -237.501 -169.5l-97 141c92 43.333 158.333 81.333 199 114s70.334 67.334 89.001 104.001l-40 312l142 30l15 -122c2.66699 -22.667 7.83398 -38.834 15.501 -48.501s18.167 -15.667 31.5 -18
s34 -3.5 62 -3.5h7c2.66699 0 5 -4.33301 7 -13z" />
    <glyph glyph-name="uniFB8F" unicode="&#x6a9;" horiz-adv-x="960" arabic-form="final" 
d="M967 171c2 -8.66699 2.99902 -19 2.99902 -31v-96c0 -12 -1 -22.333 -3 -31s-4.33301 -13 -7 -13h-85c-19.333 0 -37.333 4 -54 12s-31 19 -43 33c-30.667 -16.667 -73.5 -29 -128.5 -37s-123.833 -12 -206.5 -12c-76.667 0 -140.667 5.83301 -192 17.5
s-91.666 33.334 -120.999 65.001s-44 76.167 -44 133.5c0 17.333 2.33301 40 7 68l26 155l111 -22l-23 -139c-2.66699 -10 -4 -18.333 -4 -25c0 -19.333 6.83301 -33.833 20.5 -43.5s37.167 -16.334 70.5 -20.001s83 -5.5 149 -5.5c118.667 0 213 6.66699 283 20
c-7.33301 53.333 -33.333 105.333 -78 156s-106.667 103.334 -186 158.001l3 136c65.333 36 127 66.833 185 92.5s116.667 48.167 176 67.5l20 -149l-115 -47l-115 -47c12.667 -6 25 -14 37 -24c112 -93.333 175 -204 189 -332c2.66699 -12.667 6.5 -20.334 11.5 -23.001
s16.833 -4 35.5 -4h71c2.66699 0 5 -4.33301 7 -13z" />
    <glyph glyph-name="uniFB90" unicode="&#x6a9;" horiz-adv-x="487" arabic-form="initial" 
d="M352 367c32 -64 48 -134.667 48 -212c0 -38.667 -13.667 -69.334 -41 -92.001s-70 -39 -128 -49s-135 -14.667 -231 -14c-2.66699 0 -5.16699 4.33301 -7.5 13s-3.5 19 -3.5 31v96c0 12 1 22.333 3 31s4.66699 13 8 13c118.667 -1.33301 211 4 277 16
c-7.33301 53.333 -33 105.333 -77 156s-105 103.334 -183 158.001l4 136c64 36 125 66.833 183 92.5s117 48.167 177 67.5l20 -149l-105 -43l-125 -51c12.667 -6.66699 24.667 -14.667 36 -24c64.667 -53.333 113 -112 145 -176z" />
    <glyph glyph-name="uniFB91" unicode="&#x6a9;" horiz-adv-x="514" arabic-form="medial" 
d="M521 171c2 -8.66699 2.99902 -19.001 2.99902 -31.001v-96c0 -12 -1 -22.333 -3 -31s-4.33301 -13 -7 -13h-71c-47.333 0 -81 17 -101 51c-29.333 -18 -72 -31.167 -128 -39.5s-127.333 -12.166 -214 -11.499c-2.66699 -0 -5.16699 4.33301 -7.5 13s-3.5 19 -3.5 31v96
c0 12 1 22.333 3 31s4.66699 13 8 13c118.667 -1.33301 211 4 277 16c-7.33301 53.333 -33 105.333 -77 156s-105 103.334 -183 158.001l4 136c64 36 125 66.833 183 92.5s117 48.167 177 67.5l20 -149l-105 -43l-125 -51c12.667 -6.66699 24.667 -14.667 36 -24
c109.333 -90 172.333 -196.667 189 -320c1.33301 -13.333 3 -22.333 5 -27s5.83301 -7.83398 11.5 -9.50098s15.834 -2.5 30.501 -2.5h71c2.66699 0 5 -4.33301 7 -13z" />
    <glyph glyph-name="uniFB93" unicode="&#x6af;" horiz-adv-x="960" arabic-form="final" 
d="M675 785c-31.333 -14 -66 -30.667 -104 -50l-105 -51l3 109l198 90zM967 171c2 -8.66699 2.99902 -19 2.99902 -31v-96c0 -12 -1 -22.333 -3 -31s-4.33301 -13 -7 -13h-85c-19.333 0 -37.333 4 -54 12s-31 19 -43 33c-30.667 -16.667 -73.5 -29 -128.5 -37
s-123.833 -12 -206.5 -12c-76.667 0 -140.667 5.83301 -192 17.5s-91.666 33.334 -120.999 65.001s-44 76.167 -44 133.5c0 17.333 2.33301 40 7 68l26 155l111 -22l-23 -139c-2.66699 -10 -4 -18.333 -4 -25c0 -19.333 6.83301 -33.833 20.5 -43.5
s37.167 -16.334 70.5 -20.001s83 -5.5 149 -5.5c118.667 0 213 6.66699 283 20c-7.33301 53.333 -33.333 105.333 -78 156s-106.667 103.334 -186 158.001l3 136c65.333 36 127 66.833 185 92.5s116.667 48.167 176 67.5l20 -149l-115 -47l-115 -47c12.667 -6 25 -14 37 -24
c112 -93.333 175 -204 189 -332c2.66699 -12.667 6.5 -20.334 11.5 -23.001s16.833 -4 35.5 -4h71c2.66699 0 5 -4.33301 7 -13z" />
    <glyph glyph-name="uniFB94" unicode="&#x6af;" horiz-adv-x="487" arabic-form="initial" 
d="M230 785c-12 -5.33301 -46.667 -22 -104 -50l-104 -51l2 109l199 90zM352 367c32 -64 48 -134.667 48 -212c0 -38.667 -13.667 -69.334 -41 -92.001s-70 -39 -128 -49s-135 -14.667 -231 -14c-2.66699 0 -5.16699 4.33301 -7.5 13s-3.5 19 -3.5 31v96c0 12 1 22.333 3 31
s4.66699 13 8 13c118.667 -1.33301 211 4 277 16c-7.33301 53.333 -33 105.333 -77 156s-105 103.334 -183 158.001l4 136c64 36 125 66.833 183 92.5s117 48.167 177 67.5l20 -149l-105 -43l-125 -51c12.667 -6.66699 24.667 -14.667 36 -24
c64.667 -53.333 113 -112 145 -176z" />
    <glyph glyph-name="uniFB95" unicode="&#x6af;" horiz-adv-x="515" arabic-form="medial" 
d="M230 785c-12 -5.33301 -46.667 -22 -104 -50l-104 -51l2 109l199 90zM521 171c2 -8.66699 2.99902 -19.001 2.99902 -31.001v-96c0 -12 -1 -22.333 -3 -31s-4.33301 -13 -7 -13h-71c-47.333 0 -81 17 -101 51c-29.333 -18 -72 -31.167 -128 -39.5
s-127.333 -12.166 -214 -11.499c-2.66699 -0 -5.16699 4.33301 -7.5 13s-3.5 19 -3.5 31v96c0 12 1 22.333 3 31s4.66699 13 8 13c118.667 -1.33301 211 4 277 16c-7.33301 53.333 -33 105.333 -77 156s-105 103.334 -183 158.001l4 136c64 36 125 66.833 183 92.5
s117 48.167 177 67.5l20 -149l-105 -43l-125 -51c12.667 -6.66699 24.667 -14.667 36 -24c109.333 -90 172.333 -196.667 189 -320c1.33301 -13.333 3 -22.333 5 -27s5.83301 -7.83398 11.5 -9.50098s15.834 -2.5 30.501 -2.5h71c2.66699 0 5 -4.33301 7 -13z" />
    <glyph glyph-name="uniFB9F" unicode="&#x6ba;" horiz-adv-x="822" arabic-form="final" 
d="M829 171c2 -8.66699 3.00098 -19.002 3.00098 -31.002v-96c0 -12 -1 -22.333 -3 -31s-4.33301 -13 -7 -13h-12c-30.667 0 -57.167 5 -79.5 15s-39.5 27.667 -51.5 53c3.33301 -52 5 -94 5 -126c0 -42 -18.667 -76.667 -56 -104s-81.666 -47.166 -132.999 -59.499
s-98 -18.5 -140 -18.5c-95.333 0 -164 18.833 -206 56.5s-63 92.167 -63 163.5c0 37.333 17.333 150 52 338l112 -24c-10 -55.333 -19 -110.333 -27 -165s-12.333 -94.667 -13 -120c0 -24.667 15.333 -41.667 46 -51s64 -14 100 -14c85.333 0 152.666 11 201.999 33l-44 370
l138 32l13 -118c2.66699 -25.333 8.66699 -43.166 18 -53.499s22.666 -16.833 39.999 -19.5s46.333 -4 87 -4h12c2.66699 0 5 -4.33301 7 -13z" />
    <glyph glyph-name="uniFBA5" unicode="&#x6c0;" horiz-adv-x="572" arabic-form="final" 
d="M368 645c-38.667 -26 -92.3359 -38.998 -161.003 -38.998l11 102c66 0 112.667 9.66699 140 29c0 2.66699 -0.5 4.5 -1.5 5.5s-4.16699 1.83301 -9.5 2.5c-29.333 3.33301 -51.666 6.83301 -66.999 10.5s-27.166 9.66699 -35.499 18s-12.5 20.166 -12.5 35.499
c0 25.333 5.83301 53.166 17.5 83.499s26.834 56 45.501 77s38 31.5 58 31.5c16.667 0 32 -5.5 46 -16.5s29 -30.167 45 -57.5l-44 -45c-16.667 17.333 -32 26 -46 26c-22 0 -38.667 -20.667 -50 -62c29.333 -3.33301 52 -7.33301 68 -12s29 -13.5 39 -26.5
s15 -32.5 15 -58.5c0 -43.333 -19.333 -78 -58 -104zM578.998 171.002c2 -8.66699 2.99902 -18.999 2.99902 -30.999v-96c0 -12 -1 -22.333 -3 -31s-4.33301 -13 -7 -13h-71c-29.333 0 -55.166 8.66699 -77.499 26s-37.833 39.666 -46.5 66.999l-7 -16
c-5.33301 -10.667 -11.5 -19 -18.5 -25s-15.833 -10 -26.5 -12c-26.667 -5.33301 -60 -8 -100 -8c-92 0 -138 42 -138 126c0 50 6 91 18 123s33 60.5 63 85.5s74 51.5 132 79.5l-8 78l131 39l29 -283c2.66699 -25.333 5.5 -44 8.5 -56s9.33301 -21.667 19 -29
s24.5 -11 44.5 -11h48c2.66699 0 5 -4.33301 7 -13zM338.997 217.003l-13.001 97c-43.333 -18.667 -74.166 -37.167 -92.499 -55.5s-29.833 -37.5 -34.5 -57.5c20 -2 32.333 -3 37 -3c30.667 0 65 6.33301 103 19z" />
    <glyph glyph-name="uniFBFD" unicode="&#x6cc;" horiz-adv-x="768" arabic-form="final" 
d="M775 171c2 -8.66699 3.00098 -19.002 3.00098 -31.002v-96c0 -12 -1 -22.333 -3 -31s-4.33301 -13 -7 -13h-39c0.666992 -3.33301 1 -8.66602 1 -15.999c0 -51.333 -15.167 -96.333 -45.5 -135s-73.666 -68.667 -129.999 -90s-122.833 -32 -199.5 -32
c-100 0 -169.833 18.333 -209.5 55s-59.5 91.334 -59.5 164.001c0 38.667 17.333 151.334 52 338.001l112 -24c-10 -54.667 -19 -109.334 -27 -164.001s-12.333 -95 -13 -121c0 -25.333 16.167 -42.333 48.5 -51s71.833 -13 118.5 -13c53.333 0 98.666 4 135.999 12
s68.666 21 93.999 39c0 16.667 -12 27.167 -36 31.5s-63.333 6.5 -118 6.5l30 184h285c2.66699 0 5 -4.33301 7 -13z" />
    <glyph glyph-name="uniFBFE" unicode="&#x6cc;" horiz-adv-x="381" arabic-form="initial" 
d="M-7.5 13c-2.33301 8.66699 -3.49902 19.001 -3.49902 31.001v96c0 12 1 22.333 3 31s4.66699 13 8 13c46.667 0 82.667 1.66699 108 5s45.666 8.33301 60.999 15l-27 215l140 25c4.66699 -48 8 -89.333 10 -124s3 -79.334 3 -134.001c0 -59.333 -23 -104.333 -69 -135
c-48 -34 -123.333 -51 -226 -51c-2.66699 -0 -5.16699 4.33301 -7.5 13zM334.001 -207.999l-97 -113l-112 95l95 113zM134.001 -213.999l-96 -115l-113 95l95 115z" />
    <glyph glyph-name="uniFBFF" unicode="&#x6cc;" horiz-adv-x="434" arabic-form="medial" 
d="M441 171c2 -8.66699 3.00098 -19.002 3.00098 -31.002v-96c0 -12 -1 -22.333 -3 -31s-4.33301 -13 -7 -13c-67.333 0 -116.333 5.33301 -147 16s-51.334 29.334 -62.001 56.001c-10 -18.667 -23.333 -33.167 -40 -43.5s-39.5 -17.666 -68.5 -21.999
s-67.833 -6.5 -116.5 -6.5c-2.66699 -0 -5.16699 4.33301 -7.5 13s-3.5 19 -3.5 31v96c0 12 1 22.333 3 31s4.66699 13 8 13c44 0 78.167 1.16699 102.5 3.5s44.5 7.83301 60.5 16.5l-24 180l140 15l10 -204c10.667 -4.66699 26 -7.66699 46 -9s53 -2 99 -2
c2.66699 0 5 -4.33301 7 -13zM260.001 -113.002l114 -95l-96 -113l-113 95zM174.001 -214.002l-95 -115l-114 95l95 115z" />
    <glyph glyph-name="uniFDFC" unicode="&#xfdfc;" horiz-adv-x="1724" arabic-form="isolated" 
d="M658 778l26 -835.001c0 -42.667 -18.833 -77.667 -56.5 -105s-82 -47.166 -133 -59.499s-97.5 -18.5 -139.5 -18.5c-100 0 -169.833 18.5 -209.5 55.5s-59.5 91.833 -59.5 164.5c0 37.333 17.333 150 52 338l112 -24c-10 -55.333 -19 -110.333 -27 -165
s-12.333 -94.667 -13 -120c0 -24.667 15.167 -41.667 45.5 -51s63.5 -14 99.5 -14c68.667 0 139 10.333 211 31l-48 777zM890 22.499c-38.667 15 -66.667 41.001 -84 78.001s-27.333 90.833 -30 161.5l-16 490l139 26l1 -515c0 -52.667 22.333 -79 67 -79h89
c73.333 0 130 5.33301 170 16l-27 241l137 26c10.667 -98.667 16 -192.334 16 -281.001c0 -58.667 -22.667 -103.667 -68 -135c-50.667 -34 -126.667 -51 -228 -51c-72 0 -127.333 7.5 -166 22.5zM1614 346c8.66699 -72 14.835 -127.667 18.502 -167
s5.5 -74.666 5.5 -105.999c0 -52.667 -7.5 -98.167 -22.5 -136.5s-39.5 -75.5 -73.5 -111.5s-82.667 -77.333 -146 -124l-118 125c66.667 45.333 117.167 83.166 151.5 113.499s62.166 61.833 83.499 94.5l-45 312l142 30c1.33301 -13.333 2.66602 -23.333 3.99902 -30z
M1098 -113l114 -95l-96 -113l-113 95zM1012 -214l-95 -114l-114 95l95 115z" />
    <glyph glyph-name="uniFE82" unicode="&#x622;" horiz-adv-x="349" arabic-form="final" 
d="M246 743c-42 0 -84.668 3.33301 -128.001 10c-18.667 2.66699 -30 4 -34 4c-8.66699 0 -15.5 -3 -20.5 -9s-10.167 -19 -15.5 -39l-100 25c10.667 44 21.834 78 33.501 102s25.5 40.833 41.5 50.5s36 14.5 60 14.5c14.667 0 33 -2 55 -6c4 -0.666992 18.333 -2.5 43 -5.5
s54 -4.5 88 -4.5h65l-32 -142h-56zM356.999 171c2 -8.66699 3 -19 3 -31v-96c0 -12 -1 -22.333 -3 -31s-4.33301 -13 -7 -13h-31c-51.333 0 -93 7.5 -125 22.5s-56.667 41.667 -74 80s-26.333 91.5 -27 159.5l-6 372l139 26l1 -397c0 -52.667 22.333 -79 67 -79h56
c2.66699 0 5 -4.33301 7 -13z" />
    <glyph glyph-name="uniFE84" unicode="&#x623;" horiz-adv-x="329" arabic-form="final" 
d="M262 814l-343.999 -96.001l-16 105l92 29c-15.333 36.667 -23 69.667 -23 99c0 8.66699 0.333008 15 1 19c2.66699 34.667 16.334 61.834 41.001 81.501s56.667 29.5 96 29.5c9.33301 0 16.333 -0.333008 21 -1c16.667 -0.666992 34 -3.66699 52 -9l-23 -106
c-20.667 4.66699 -36.667 7.33398 -48 8.00098c-4.66699 0.666992 -11.334 1 -20.001 1c-14.667 0 -26.334 -1.33301 -35.001 -4c0 -28.667 10 -59.334 30 -92.001l161 42zM336.001 170.999c2 -8.66699 3 -19 3 -31v-96c0 -12 -1 -22.333 -3 -31s-4.33301 -13 -7 -13h-32
c-51.333 0 -93 7.5 -125 22.5s-56.5 41.667 -73.5 80s-25.833 91.5 -26.5 159.5l-6 372l139 26l1 -397c0 -52.667 22.333 -79 67 -79h56c2.66699 0 5 -4.33301 7 -13z" />
    <glyph glyph-name="uniFE86" unicode="&#x624;" horiz-adv-x="513" arabic-form="final" 
d="M21 579l91.002 28.999c-15.333 36.667 -23 69.667 -23 99c0 8.66699 0.333008 15 1 19c2.66699 34 16.167 60.833 40.5 80.5s55.833 29.5 94.5 29.5c10 0 17.667 -0.333008 23 -1c15.333 0 32.666 -2.66699 51.999 -8l-23 -106
c-20.667 4.66699 -36.667 7.33398 -48 8.00098c-4.66699 0.666992 -11.334 1 -20.001 1c-14.667 0 -26 -1.33301 -34 -4c0 -30 9.66699 -60.667 29 -92l161 42l15 -107l-344 -95zM520.002 170.999c2 -8.66699 3.00195 -18.998 3.00195 -30.998v-96c0 -12 -1 -22.333 -3 -31
s-4.33301 -13 -7 -13h-78c-36.667 -131.333 -139.667 -233 -309 -305l-93 142c60.667 21.333 114.667 47.166 162 77.499s83.666 61.166 108.999 92.499c-23.333 -5.33301 -48 -8 -74 -8c-35.333 0 -64.666 4 -87.999 12c-9.33301 2.66699 -17.5 7.5 -24.5 14.5
s-16.5 19.833 -28.5 38.5c-10.667 16 -17.834 29.167 -21.501 39.5s-5.5 20.833 -5.5 31.5c3.33301 84 21.166 153.333 53.499 208s80.5 82 144.5 82c50.667 0 92.667 -22.333 126 -67s54 -102.667 62 -174h65c2.66699 0 5 -4.33301 7 -13zM260.004 150.001
c30.667 0 54.333 1.33301 71 4c0 37.333 -7.5 66 -22.5 86s-34.5 30 -58.5 30c-20.667 0 -37 -9.66699 -49 -29s-19.333 -48.333 -22 -87c18.667 -2.66699 45.667 -4 81 -4z" />
    <glyph glyph-name="uniFE88" unicode="&#x625;" horiz-adv-x="332" arabic-form="final" 
d="M339 171c2 -8.66699 3 -19 3 -31v-96c0 -12 -1 -22.333 -3 -31s-4.33301 -13 -7 -13h-33c-51.333 0 -93 7.5 -125 22.5s-56.5 41.667 -73.5 80s-26.167 91.5 -27.5 159.5l-5 490l140 26v-515c0 -52.667 22.333 -79 67 -79h57c2.66699 0 5 -4.33301 7 -13zM299 -249
l15 -106.999l-344 -96l-15 106l91 28c-15.333 38 -23 71.333 -23 100c0 8.66699 0.333008 15 1 19c2.66699 34 16.167 60.833 40.5 80.5s55.833 29.5 94.5 29.5c10 0 17.667 -0.333008 23 -1c16 -0.666992 33.333 -3.66699 52 -9l-23 -105c-25.333 4 -41.333 6.33301 -48 7
c-4.66699 0.666992 -11.667 1 -21 1c-12.667 0 -23.667 -1 -33 -3c0 -30.667 9.66699 -61.334 29 -92.001z" />
    <glyph glyph-name="uniFE8A" unicode="&#x626;" horiz-adv-x="768" arabic-form="final" 
d="M384 487l-342.997 -95.001l-16 105l91 29c-15.333 36.667 -23 69.667 -23 99c0 8.66699 0.333008 15 1 19c2.66699 34 16.167 60.833 40.5 80.5s56.166 29.5 95.499 29.5c10 0 17.667 -0.333008 23 -1c15.333 0 32.666 -2.66699 51.999 -8l-24 -106
c-20.667 4.66699 -36.667 7.33398 -48 8.00098c-4.66699 0.666992 -11.334 1 -20.001 1c-14.667 0 -26 -1.33301 -34 -4c0 -28 9.66699 -58.667 29 -92l162 42zM775.003 170.999c2 -8.66699 3.00098 -19.002 3.00098 -31.002v-96c0 -12 -1 -22.333 -3 -31
s-4.33301 -13 -7 -13h-39c0.666992 -3.33301 1 -8.66602 1 -15.999c0 -51.333 -15.167 -96.333 -45.5 -135s-73.666 -68.667 -129.999 -90s-122.833 -32 -199.5 -32c-100 0 -169.833 18.333 -209.5 55s-59.5 91.334 -59.5 164.001c0 38.667 17.333 151.334 52 338.001
l112 -24c-10 -54.667 -19 -109.334 -27 -164.001s-12.333 -95 -13 -121c0 -25.333 16.167 -42.333 48.5 -51s71.833 -13 118.5 -13c53.333 0 98.666 4 135.999 12s68.666 21 93.999 39c0 16.667 -12 27.167 -36 31.5s-63.333 6.5 -118 6.5l30 184h285
c2.66699 0 5 -4.33301 7 -13z" />
    <glyph glyph-name="uniFE8B" unicode="&#x626;" horiz-adv-x="381" arabic-form="initial" 
d="M316 569l-344 -96.002l-16 105l92 29c-15.333 38 -23 71.333 -23 100c0 8 0.333008 14 1 18c2.66699 34.667 16.334 61.834 41.001 81.501s56.667 29.5 96 29.5c9.33301 0 16.333 -0.333008 21 -1c16.667 -0.666992 34 -3.66699 52 -9l-23 -106
c-20.667 4.66699 -36.667 7.33398 -48 8.00098c-4.66699 0.666992 -11.334 1 -20.001 1c-14.667 0 -26 -1.33301 -34 -4c0 -30 9.66699 -60.667 29 -92l161 42zM282 443.998c4.66699 -48 8.00098 -89.332 10.001 -123.999s3 -79.334 3 -134.001
c0 -59.333 -23 -104.333 -69 -135c-48 -34 -123.333 -51 -226 -51c-2.66699 0 -5.16699 4.33301 -7.5 13s-3.5 19 -3.5 31v96c0 12 1 22.333 3 31s4.66699 13 8 13c46.667 0 82.667 1.66699 108 5s45.666 8.33301 60.999 15l-27 215z" />
    <glyph glyph-name="uniFE8C" unicode="&#x626;" horiz-adv-x="434" arabic-form="medial" 
d="M14 596l91.002 28.999c-15.333 38 -23 72.333 -23 103c0 38 12.333 68.333 37 91s57.667 34 99 34c10.667 0 18.667 -0.333008 24 -1c15.333 0 32.666 -2.66699 51.999 -8l-24 -106c-19.333 4.66699 -35.333 7.33398 -48 8.00098c-4.66699 0.666992 -11.334 1 -20.001 1
c-14 0 -25.333 -1.33301 -34 -4c0 -28 9.66699 -58.667 29 -92l162 42l15 -107l-344 -95zM441.002 170.999c2 -8.66699 3.00098 -19.002 3.00098 -31.002v-96c0 -12 -1 -22.333 -3 -31s-4.33301 -13 -7 -13c-67.333 0 -116.333 5.33301 -147 16
s-51.334 29.334 -62.001 56.001c-10 -18.667 -23.333 -33.167 -40 -43.5s-39.5 -17.666 -68.5 -21.999s-67.833 -6.5 -116.5 -6.5c-2.66699 0 -5.16699 4.33301 -7.5 13s-3.5 19 -3.5 31v96c0 12 1 22.333 3 31s4.66699 13 8 13c44 0 78.167 1.16699 102.5 3.5
s44.5 7.83301 60.5 16.5l-24 180l140 15l10 -204c10.667 -4.66699 26 -7.66699 46 -9s53 -2 99 -2c2.66699 0 5 -4.33301 7 -13z" />
    <glyph glyph-name="uniFE8E" unicode="&#x627;" horiz-adv-x="332" arabic-form="final" 
d="M339 171c2 -8.66699 3 -19 3 -31v-96c0 -12 -1 -22.333 -3 -31s-4.33301 -13 -7 -13h-33c-51.333 0 -93 7.5 -125 22.5s-56.5 41.667 -73.5 80s-26.167 91.5 -27.5 159.5l-5 490l140 26v-515c0 -52.667 22.333 -79 67 -79h57c2.66699 0 5 -4.33301 7 -13z" />
    <glyph glyph-name="uniFE90" unicode="&#x628;" horiz-adv-x="938" arabic-form="final" 
d="M945 171c2 -8.66699 3.00195 -19 3.00195 -31v-96c0 -12 -1 -22.333 -3 -31s-4.33301 -13 -7 -13c-46.667 0 -86 6.16699 -118 18.5s-52 29.833 -60 52.5c-6 -11.333 -14.5 -20.5 -25.5 -27.5s-27.167 -13.5 -48.5 -19.5c-28 -8 -63.833 -14.667 -107.5 -20
s-88.834 -8 -135.501 -8c-76.667 0 -140.834 5.83301 -192.501 17.5s-92 33.334 -121 65.001s-43.5 76.167 -43.5 133.5c0 17.333 2.33301 40 7 68l26 155l111 -22l-23 -139c-2.66699 -10 -4 -18.333 -4 -25c0 -19.333 6.83301 -33.833 20.5 -43.5
s37.167 -16.334 70.5 -20.001s83 -5.5 149 -5.5c109.333 0 201.333 8.33301 276 25l-18 145l136 15l8 -169c26 -8 57 -12 93 -12c2.66699 0 5 -4.33301 7 -13zM434.002 -119l126 -105l-105 -125l-125 105z" />
    <glyph glyph-name="uniFE91" unicode="&#x628;" horiz-adv-x="381" arabic-form="initial" 
d="M292 320c2 -34.667 3.00098 -79.333 3.00098 -134c0 -59.333 -23 -104.333 -69 -135c-48 -34 -123.333 -51 -226 -51c-2.66699 -0 -5.16699 4.33301 -7.5 13s-3.5 19 -3.5 31v96c0 12 1 22.333 3 31s4.66699 13 8 13c46.667 0 82.667 1.66699 108 5
s45.666 8.33301 60.999 15l-27 215l140 25c4.66699 -48 8 -89.333 10 -124zM77.001 -118.999l126 -105l-105 -125l-125 105z" />
    <glyph glyph-name="uniFE92" unicode="&#x628;" horiz-adv-x="434" arabic-form="medial" 
d="M441 171c2 -8.66699 3.00098 -19.002 3.00098 -31.002v-96c0 -12 -1 -22.333 -3 -31s-4.33301 -13 -7 -13c-67.333 0 -116.333 5.33301 -147 16s-51.334 29.334 -62.001 56.001c-10 -18.667 -23.333 -33.167 -40 -43.5s-39.5 -17.666 -68.5 -21.999
s-67.833 -6.5 -116.5 -6.5c-2.66699 -0 -5.16699 4.33301 -7.5 13s-3.5 19 -3.5 31v96c0 12 1 22.333 3 31s4.66699 13 8 13c44 0 78.167 1.16699 102.5 3.5s44.5 7.83301 60.5 16.5l-24 180l140 15l10 -204c10.667 -4.66699 26 -7.66699 46 -9s53 -2 99 -2
c2.66699 0 5 -4.33301 7 -13zM169.001 -119.002l126 -105l-105 -125l-125 105z" />
    <glyph glyph-name="uniFE94" unicode="&#x629;" horiz-adv-x="573" arabic-form="final" 
d="M340 744l95 113l114 -95l-95 -113zM254 642l-114 95l95 113l114 -95zM580 171c2 -8.66699 2.99902 -18.999 2.99902 -30.999v-96c0 -12 -1 -22.333 -3 -31s-4.33301 -13 -7 -13h-71c-29.333 0 -55.166 8.66699 -77.499 26s-37.833 39.666 -46.5 66.999l-7 -16
c-5.33301 -10.667 -11.5 -19 -18.5 -25s-15.833 -10 -26.5 -12c-26.667 -5.33301 -60 -8 -100 -8c-92.667 0 -139 42 -139 126c0 50 6.16699 91 18.5 123s33.5 60.5 63.5 85.5s74 51.5 132 79.5l-8 78l131 39l29 -283c2.66699 -25.333 5.5 -44 8.5 -56
s9.33301 -21.667 19 -29s24.5 -11 44.5 -11h48c2.66699 0 5 -4.33301 7 -13zM339.999 217.001l-13.001 97c-43.333 -18.667 -74.166 -37.167 -92.499 -55.5s-29.833 -37.5 -34.5 -57.5c20 -2 32.333 -3 37 -3c30.667 0 65 6.33301 103 19z" />
    <glyph glyph-name="uniFE96" unicode="&#x62a;" horiz-adv-x="938" arabic-form="final" 
d="M490 546l95 113l114 -95l-96 -113zM403 443l-113 95l95 114l114 -95zM945 171c2 -8.66699 3.00195 -19 3.00195 -31v-96c0 -12 -1 -22.333 -3 -31s-4.33301 -13 -7 -13c-46.667 0 -86 6.16699 -118 18.5s-52 29.833 -60 52.5c-6 -11.333 -14.5 -20.5 -25.5 -27.5
s-27.167 -13.5 -48.5 -19.5c-28 -8 -63.833 -14.667 -107.5 -20s-88.834 -8 -135.501 -8c-76.667 0 -140.834 5.83301 -192.501 17.5s-92 33.334 -121 65.001s-43.5 76.167 -43.5 133.5c0 17.333 2.33301 40 7 68l26 155l111 -22l-23 -139c-2.66699 -10 -4 -18.333 -4 -25
c0 -19.333 6.83301 -33.833 20.5 -43.5s37.167 -16.334 70.5 -20.001s83 -5.5 149 -5.5c109.333 0 201.333 8.33301 276 25l-18 145l136 15l8 -169c26 -8 57 -12 93 -12c2.66699 0 5 -4.33301 7 -13z" />
    <glyph glyph-name="uniFE97" unicode="&#x62a;" horiz-adv-x="383" arabic-form="initial" 
d="M162 663l95 113l114 -96l-95 -112zM76 560l-114 95l95 114l114 -95zM282 444c4.66699 -48 8.00098 -89.332 10.001 -123.999s3 -79.334 3 -134.001c0 -59.333 -23 -104.333 -69 -135c-48 -34 -123.333 -51 -226 -51c-2.66699 -0 -5.16699 4.33301 -7.5 13
s-3.5 19 -3.5 31v96c0 12 1 22.333 3 31s4.66699 13 8 13c46.667 0 82.667 1.66699 108 5s45.666 8.33301 60.999 15l-27 215z" />
    <glyph glyph-name="uniFE98" unicode="&#x62a;" horiz-adv-x="434" arabic-form="medial" 
d="M189 598l96 113l113 -95l-95 -113zM103 495l-114 96l96 113l113 -95zM441 171c2 -8.66699 3.00098 -19.002 3.00098 -31.002v-96c0 -12 -1 -22.333 -3 -31s-4.33301 -13 -7 -13c-67.333 0 -116.333 5.33301 -147 16s-51.334 29.334 -62.001 56.001
c-10 -18.667 -23.333 -33.167 -40 -43.5s-39.5 -17.666 -68.5 -21.999s-67.833 -6.5 -116.5 -6.5c-2.66699 -0 -5.16699 4.33301 -7.5 13s-3.5 19 -3.5 31v96c0 12 1 22.333 3 31s4.66699 13 8 13c44 0 78.167 1.16699 102.5 3.5s44.5 7.83301 60.5 16.5l-24 180l140 15
l10 -204c10.667 -4.66699 26 -7.66699 46 -9s53 -2 99 -2c2.66699 0 5 -4.33301 7 -13z" />
    <glyph glyph-name="uniFE9A" unicode="&#x62b;" horiz-adv-x="938" arabic-form="final" 
d="M493 624l-108 90l91 109l108 -91zM578 651l109 -90l-92 -108l-109 90zM405 445l-109 92l91 110l108 -92zM945 171c2 -8.66699 3.00195 -19 3.00195 -31v-96c0 -12 -1 -22.333 -3 -31s-4.33301 -13 -7 -13c-46.667 0 -86 6.16699 -118 18.5s-52 29.833 -60 52.5
c-6 -11.333 -14.5 -20.5 -25.5 -27.5s-27.167 -13.5 -48.5 -19.5c-28 -8 -63.833 -14.667 -107.5 -20s-88.834 -8 -135.501 -8c-76.667 0 -140.834 5.83301 -192.501 17.5s-92 33.334 -121 65.001s-43.5 76.167 -43.5 133.5c0 17.333 2.33301 40 7 68l26 155l111 -22
l-23 -139c-2.66699 -10 -4 -18.333 -4 -25c0 -19.333 6.83301 -33.833 20.5 -43.5s37.167 -16.334 70.5 -20.001s83 -5.5 149 -5.5c109.333 0 201.333 8.33301 276 25l-18 145l136 15l8 -169c26 -8 57 -12 93 -12c2.66699 0 5 -4.33301 7 -13z" />
    <glyph glyph-name="uniFE9B" unicode="&#x62b;" horiz-adv-x="383" arabic-form="initial" 
d="M175 751l-108 91l91 108l108 -91zM259 779l109 -91l-91 -108l-109 90zM87 573l-109 91l91 110l108 -92zM282 444c4.66699 -48 8.00098 -89.332 10.001 -123.999s3 -79.334 3 -134.001c0 -59.333 -23 -104.333 -69 -135c-48 -34 -123.333 -51 -226 -51
c-2.66699 -0 -5.16699 4.33301 -7.5 13s-3.5 19 -3.5 31v96c0 12 1 22.333 3 31s4.66699 13 8 13c46.667 0 82.667 1.66699 108 5s45.666 8.33301 60.999 15l-27 215z" />
    <glyph glyph-name="uniFE9C" unicode="&#x62b;" horiz-adv-x="434" arabic-form="medial" 
d="M194 677l-108 90l91 108l108 -90zM279 704l109 -90l-92 -108l-109 90zM106 498l-109 92l91 110l108 -92zM441 171c2 -8.66699 3.00098 -19.002 3.00098 -31.002v-96c0 -12 -1 -22.333 -3 -31s-4.33301 -13 -7 -13c-67.333 0 -116.333 5.33301 -147 16
s-51.334 29.334 -62.001 56.001c-10 -18.667 -23.333 -33.167 -40 -43.5s-39.5 -17.666 -68.5 -21.999s-67.833 -6.5 -116.5 -6.5c-2.66699 -0 -5.16699 4.33301 -7.5 13s-3.5 19 -3.5 31v96c0 12 1 22.333 3 31s4.66699 13 8 13c44 0 78.167 1.16699 102.5 3.5
s44.5 7.83301 60.5 16.5l-24 180l140 15l10 -204c10.667 -4.66699 26 -7.66699 46 -9s53 -2 99 -2c2.66699 0 5 -4.33301 7 -13z" />
    <glyph glyph-name="uniFE9E" unicode="&#x62c;" horiz-adv-x="807" arabic-form="final" 
d="M814 171c2 -8.66699 3.00293 -18.998 3.00293 -30.998v-96c0 -12 -1 -22.333 -3 -31s-4.33301 -13 -7 -13h-94c-54.667 0 -96.667 6 -126 18s-51.833 30 -67.5 54s-32.167 60.333 -49.5 109l3 3c-52 -30 -100.333 -63.5 -145 -100.5s-77.334 -70.833 -98.001 -101.5
c-2 -20 -3 -39 -3 -57c0 -61.333 16.5 -106 49.5 -134s85.167 -42 156.5 -42h239l-37 -188h-212c-107.333 0 -190.333 30.167 -249 90.5s-88 143.833 -88 250.5c0 83.333 26.667 160.166 80 230.499s129.333 132.166 228 185.499c26 14.667 44.333 23.667 55 27
c-22.667 8 -43.334 14.333 -62.001 19c-64 17.333 -104.667 26 -122 26c-20.667 0 -34.5 -5.5 -41.5 -16.5s-12.167 -25.833 -15.5 -44.5l-109 17c20 129.333 71.667 194 155 194c24 0 49.667 -3.33301 77 -10s60 -16.667 98 -30c66 -22.667 121.833 -39.667 167.5 -51
s95.167 -17 148.5 -17l-37 -163c-42 -3.33301 -86.667 -15 -134 -35c11.333 -19.333 22.666 -32.5 33.999 -39.5s31 -10.5 59 -10.5h140c2.66699 0 5 -4.33301 7 -13zM430.003 14.002l113 -95l-95 -112l-112 94z" />
    <glyph glyph-name="uniFE9F" unicode="&#x62c;" horiz-adv-x="759" arabic-form="initial" 
d="M573.5 395.5c43 -11 88.165 -16.5 135.498 -16.5l-37 -173c-42.667 -4.66699 -80.667 -14 -114 -28s-72.666 -34 -117.999 -60c-37.333 -21.333 -66.666 -37 -87.999 -47c-46 -22 -96 -39.333 -150 -52s-117.333 -19 -190 -19h-12c-2.66699 -0 -5.16699 4.33301 -7.5 13
s-3.5 19 -3.5 31v96c0 12 1 22.333 3 31s4.66699 13 8 13h12c85.333 0 168 10.333 248 31c34 8 75.333 22 124 42c24.667 10 42.667 16.667 54 20l19 4c-14.667 3.33301 -43 13 -85 29c-73.333 25.333 -120.333 38 -141 38s-34.667 -5.66699 -42 -17
s-12.666 -26 -15.999 -44l-107 17c18.667 129.333 70 194 154 194c24 0 48.667 -3.5 74 -10.5s59.666 -18.167 102.999 -33.5l15.5 -6c5 -2 9.5 -3.66699 13.5 -5c55.333 -20.667 104.5 -36.5 147.5 -47.5zM317.998 -92l125 -105l-105 -125l-124 105z" />
    <glyph glyph-name="uniFEA0" unicode="&#x62c;" horiz-adv-x="779" arabic-form="medial" 
d="M786 171c2 -8.66699 2.99707 -19.002 2.99707 -31.002v-96c0 -12 -1 -22.333 -3 -31s-4.33301 -13 -7 -13h-184c-127.333 0 -201.333 29 -222 87c-49.333 -27.333 -102.166 -48.666 -158.499 -63.999s-123.833 -23 -202.5 -23h-12c-2.66699 0 -5.16699 4.33301 -7.5 13
s-3.5 19 -3.5 31v96c0 12 1 22.333 3 31s4.66699 13 8 13h12c85.333 0 168 10.333 248 31c20 4.66699 39.333 10.834 58 18.501s39.334 17.167 62.001 28.5c26.667 12.667 46 20.667 58 24c-2 -0.666992 5 1 21 5h-1c-7.33301 1.33301 -25.666 6.66602 -54.999 15.999
l-51 15c-61.333 17.333 -101.666 26 -120.999 26c-20.667 0 -34.667 -5.66699 -42 -17s-12.666 -26 -15.999 -44l-107 17c18.667 129.333 70 194 154 194c24 0 49.667 -3.33301 77 -10s59.666 -16.667 96.999 -30c66 -22.667 121.667 -39.667 167 -51
s94.666 -17 147.999 -17l-37 -163c-32 -3.33301 -61.5 -10.666 -88.5 -21.999s-55.833 -26.333 -86.5 -45c74 16 149.333 24 226 24h56c2.66699 0 5 -4.33301 7 -13zM317.997 -94.002l125 -105l-105 -125l-124 105z" />
    <glyph glyph-name="uniFEA2" unicode="&#x62d;" horiz-adv-x="807" arabic-form="final" 
d="M814 171c2 -8.66699 3.00293 -18.998 3.00293 -30.998v-96c0 -12 -1 -22.333 -3 -31s-4.33301 -13 -7 -13h-94c-54.667 0 -96.667 6 -126 18s-51.833 30 -67.5 54s-32.167 60.333 -49.5 109l3 3c-52 -30 -100.333 -63.5 -145 -100.5s-77.334 -70.833 -98.001 -101.5
c-2 -20 -3 -39 -3 -57c0 -61.333 16.5 -106 49.5 -134s85.167 -42 156.5 -42h239l-37 -188h-212c-107.333 0 -190.333 30.167 -249 90.5s-88 143.833 -88 250.5c0 83.333 26.667 160.166 80 230.499s129.333 132.166 228 185.499c26 14.667 44.333 23.667 55 27
c-22.667 8 -43.334 14.333 -62.001 19c-64 17.333 -104.667 26 -122 26c-20.667 0 -34.5 -5.5 -41.5 -16.5s-12.167 -25.833 -15.5 -44.5l-109 17c20 129.333 71.667 194 155 194c24 0 49.667 -3.33301 77 -10s60 -16.667 98 -30c66 -22.667 121.833 -39.667 167.5 -51
s95.167 -17 148.5 -17l-37 -163c-42 -3.33301 -86.667 -15 -134 -35c11.333 -19.333 22.666 -32.5 33.999 -39.5s31 -10.5 59 -10.5h140c2.66699 0 5 -4.33301 7 -13z" />
    <glyph glyph-name="uniFEA3" unicode="&#x62d;" horiz-adv-x="759" arabic-form="initial" 
d="M573.5 395.5c43 -11 88.165 -16.5 135.498 -16.5l-37 -173c-42.667 -4.66699 -80.667 -14 -114 -28s-72.666 -34 -117.999 -60c-37.333 -21.333 -66.666 -37 -87.999 -47c-46 -22 -96 -39.333 -150 -52s-117.333 -19 -190 -19h-12c-2.66699 -0 -5.16699 4.33301 -7.5 13
s-3.5 19 -3.5 31v96c0 12 1 22.333 3 31s4.66699 13 8 13h12c85.333 0 168 10.333 248 31c34 8 75.333 22 124 42c24.667 10 42.667 16.667 54 20l19 4c-14.667 3.33301 -43 13 -85 29c-73.333 25.333 -120.333 38 -141 38s-34.667 -5.66699 -42 -17
s-12.666 -26 -15.999 -44l-107 17c18.667 129.333 70 194 154 194c24 0 48.667 -3.5 74 -10.5s59.666 -18.167 102.999 -33.5l15.5 -6c5 -2 9.5 -3.66699 13.5 -5c55.333 -20.667 104.5 -36.5 147.5 -47.5z" />
    <glyph glyph-name="uniFEA4" unicode="&#x62d;" horiz-adv-x="779" arabic-form="medial" 
d="M786 171c2 -8.66699 2.99707 -19.002 2.99707 -31.002v-96c0 -12 -1 -22.333 -3 -31s-4.33301 -13 -7 -13h-184c-127.333 0 -201.333 29 -222 87c-49.333 -27.333 -102.166 -48.666 -158.499 -63.999s-123.833 -23 -202.5 -23h-12c-2.66699 0 -5.16699 4.33301 -7.5 13
s-3.5 19 -3.5 31v96c0 12 1 22.333 3 31s4.66699 13 8 13h12c85.333 0 168 10.333 248 31c20 4.66699 39.333 10.834 58 18.501s39.334 17.167 62.001 28.5c26.667 12.667 46 20.667 58 24c-2 -0.666992 5 1 21 5h-1c-7.33301 1.33301 -25.666 6.66602 -54.999 15.999
l-51 15c-61.333 17.333 -101.666 26 -120.999 26c-20.667 0 -34.667 -5.66699 -42 -17s-12.666 -26 -15.999 -44l-107 17c18.667 129.333 70 194 154 194c24 0 49.667 -3.33301 77 -10s59.666 -16.667 96.999 -30c66 -22.667 121.667 -39.667 167 -51
s94.666 -17 147.999 -17l-37 -163c-32 -3.33301 -61.5 -10.666 -88.5 -21.999s-55.833 -26.333 -86.5 -45c74 16 149.333 24 226 24h56c2.66699 0 5 -4.33301 7 -13z" />
    <glyph glyph-name="uniFEA6" unicode="&#x62e;" horiz-adv-x="807" arabic-form="final" 
d="M473 615l-126 105l105 125l125 -105zM814 171c2 -8.66699 3.00293 -18.998 3.00293 -30.998v-96c0 -12 -1 -22.333 -3 -31s-4.33301 -13 -7 -13h-94c-54.667 0 -96.667 6 -126 18s-51.833 30 -67.5 54s-32.167 60.333 -49.5 109l3 3c-52 -30 -100.333 -63.5 -145 -100.5
s-77.334 -70.833 -98.001 -101.5c-2 -20 -3 -39 -3 -57c0 -61.333 16.5 -106 49.5 -134s85.167 -42 156.5 -42h239l-37 -188h-212c-107.333 0 -190.333 30.167 -249 90.5s-88 143.833 -88 250.5c0 83.333 26.667 160.166 80 230.499s129.333 132.166 228 185.499
c26 14.667 44.333 23.667 55 27c-22.667 8 -43.334 14.333 -62.001 19c-64 17.333 -104.667 26 -122 26c-20.667 0 -34.5 -5.5 -41.5 -16.5s-12.167 -25.833 -15.5 -44.5l-109 17c20 129.333 71.667 194 155 194c24 0 49.667 -3.33301 77 -10s60 -16.667 98 -30
c66 -22.667 121.833 -39.667 167.5 -51s95.167 -17 148.5 -17l-37 -163c-42 -3.33301 -86.667 -15 -134 -35c11.333 -19.333 22.666 -32.5 33.999 -39.5s31 -10.5 59 -10.5h140c2.66699 0 5 -4.33301 7 -13z" />
    <glyph glyph-name="uniFEA7" unicode="&#x62e;" horiz-adv-x="759" arabic-form="initial" 
d="M338 584l-125 105l105 125l124 -105zM573.5 395.5c43 -11 88.165 -16.5 135.498 -16.5l-37 -173c-42.667 -4.66699 -80.667 -14 -114 -28s-72.666 -34 -117.999 -60c-37.333 -21.333 -66.666 -37 -87.999 -47c-46 -22 -96 -39.333 -150 -52s-117.333 -19 -190 -19h-12
c-2.66699 -0 -5.16699 4.33301 -7.5 13s-3.5 19 -3.5 31v96c0 12 1 22.333 3 31s4.66699 13 8 13h12c85.333 0 168 10.333 248 31c34 8 75.333 22 124 42c24.667 10 42.667 16.667 54 20l19 4c-14.667 3.33301 -43 13 -85 29c-73.333 25.333 -120.333 38 -141 38
s-34.667 -5.66699 -42 -17s-12.666 -26 -15.999 -44l-107 17c18.667 129.333 70 194 154 194c24 0 48.667 -3.5 74 -10.5s59.666 -18.167 102.999 -33.5l15.5 -6c5 -2 9.5 -3.66699 13.5 -5c55.333 -20.667 104.5 -36.5 147.5 -47.5z" />
    <glyph glyph-name="uniFEA8" unicode="&#x62e;" horiz-adv-x="779" arabic-form="medial" 
d="M338 584l-125 105l105 125l124 -105zM786 171c2 -8.66699 2.99707 -19.002 2.99707 -31.002v-96c0 -12 -1 -22.333 -3 -31s-4.33301 -13 -7 -13h-184c-127.333 0 -201.333 29 -222 87c-49.333 -27.333 -102.166 -48.666 -158.499 -63.999s-123.833 -23 -202.5 -23h-12
c-2.66699 0 -5.16699 4.33301 -7.5 13s-3.5 19 -3.5 31v96c0 12 1 22.333 3 31s4.66699 13 8 13h12c85.333 0 168 10.333 248 31c20 4.66699 39.333 10.834 58 18.501s39.334 17.167 62.001 28.5c26.667 12.667 46 20.667 58 24c-2 -0.666992 5 1 21 5h-1
c-7.33301 1.33301 -25.666 6.66602 -54.999 15.999l-51 15c-61.333 17.333 -101.666 26 -120.999 26c-20.667 0 -34.667 -5.66699 -42 -17s-12.666 -26 -15.999 -44l-107 17c18.667 129.333 70 194 154 194c24 0 49.667 -3.33301 77 -10s59.666 -16.667 96.999 -30
c66 -22.667 121.667 -39.667 167 -51s94.666 -17 147.999 -17l-37 -163c-32 -3.33301 -61.5 -10.666 -88.5 -21.999s-55.833 -26.333 -86.5 -45c74 16 149.333 24 226 24h56c2.66699 0 5 -4.33301 7 -13z" />
    <glyph glyph-name="uniFEAA" unicode="&#x62f;" horiz-adv-x="642" arabic-form="final" 
d="M649 171c2 -8.66699 3 -19.002 3 -31.002v-96c0 -12 -1 -22.333 -3 -31s-4.33301 -13 -7 -13h-24c-74 0 -118.333 28.333 -133 85l-6 -19c-7.33301 -21.333 -17.333 -34.666 -30 -39.999c-22 -10.667 -50.833 -19.834 -86.5 -27.501s-67.5 -11.5 -95.5 -11.5
c-62.667 0 -108.5 12.5 -137.5 37.5s-43.5 69.5 -43.5 133.5c0 24.667 1.66699 47.334 5 68.001l111 -10v-22c0 -7.33301 2.5 -12.666 7.5 -15.999s13.167 -5.33301 24.5 -6s31.333 -1 60 -1c44.667 0 86.667 6.33301 126 19l-77 299l135 70l63 -301
c5.33301 -27.333 10 -45.333 14 -54s11.5 -14.167 22.5 -16.5s32.5 -3.5 64.5 -3.5c2.66699 0 5 -4.33301 7 -13z" />
    <glyph glyph-name="uniFEAC" unicode="&#x630;" horiz-adv-x="642" arabic-form="final" 
d="M379 658l-125 105l104 125l125 -105zM649 171c2 -8.66699 3 -19.002 3 -31.002v-96c0 -12 -1 -22.333 -3 -31s-4.33301 -13 -7 -13h-24c-74 0 -118.333 28.333 -133 85l-6 -19c-7.33301 -21.333 -17.333 -34.666 -30 -39.999c-22 -10.667 -50.833 -19.834 -86.5 -27.501
s-67.5 -11.5 -95.5 -11.5c-62.667 0 -108.5 12.5 -137.5 37.5s-43.5 69.5 -43.5 133.5c0 24.667 1.66699 47.334 5 68.001l111 -10v-22c0 -7.33301 2.5 -12.666 7.5 -15.999s13.167 -5.33301 24.5 -6s31.333 -1 60 -1c44.667 0 86.667 6.33301 126 19l-77 299l135 70
l63 -301c5.33301 -27.333 10 -45.333 14 -54s11.5 -14.167 22.5 -16.5s32.5 -3.5 64.5 -3.5c2.66699 0 5 -4.33301 7 -13z" />
    <glyph glyph-name="uniFEAE" unicode="&#x631;" horiz-adv-x="446" arabic-form="final" 
d="M453 171c2 -8.66699 3 -18.999 3 -30.999v-96c0 -12 -1 -22.333 -3 -31s-4.33301 -13 -7 -13h-17c-38.667 0 -69 14.333 -91 43c-4.66699 -74.667 -30.834 -140.834 -78.501 -198.501s-126.834 -114.167 -237.501 -169.5l-97 141c92 43.333 158.333 81.333 199 114
s70.334 67.334 89.001 104.001l-40 312l142 30l15 -122c2.66699 -22.667 7.83398 -38.834 15.501 -48.501s18.167 -15.667 31.5 -18s34 -3.5 62 -3.5h7c2.66699 0 5 -4.33301 7 -13z" />
    <glyph glyph-name="uniFEB0" unicode="&#x632;" horiz-adv-x="446" arabic-form="final" 
d="M219 467l-126 105l105 125l125 -105zM453 171c2 -8.66699 3 -18.999 3 -30.999v-96c0 -12 -1 -22.333 -3 -31s-4.33301 -13 -7 -13h-17c-38.667 0 -69 14.333 -91 43c-4.66699 -74.667 -30.834 -140.834 -78.501 -198.501s-126.834 -114.167 -237.501 -169.5l-97 141
c92 43.333 158.333 81.333 199 114s70.334 67.334 89.001 104.001l-40 312l142 30l15 -122c2.66699 -22.667 7.83398 -38.834 15.501 -48.501s18.167 -15.667 31.5 -18s34 -3.5 62 -3.5h7c2.66699 0 5 -4.33301 7 -13z" />
    <glyph glyph-name="uniFEB2" unicode="&#x633;" horiz-adv-x="1306" arabic-form="final" 
d="M1313 171c2 -8.66699 2.99805 -19.002 2.99805 -31.002v-96c0 -12 -1 -22.333 -3 -31s-4.33301 -13 -7 -13h-12c-28 0 -54.833 5.66699 -80.5 17s-44.167 27.333 -55.5 48c-16.667 -21.333 -37.334 -37.5 -62.001 -48.5s-51 -16.5 -79 -16.5c-64 0 -106 22.333 -126 67
c-12.667 -24.667 -29.834 -42 -51.501 -52s-42.167 -15 -61.5 -15c-22.667 0 -42 2.83301 -58 8.5s-29 14.5 -39 26.5c2 -34 3 -65 3 -93c0 -42 -18.667 -76.667 -56 -104s-81.666 -47.166 -132.999 -59.499s-98 -18.5 -140 -18.5c-95.333 0 -164 18.833 -206 56.5
s-63 92.167 -63 163.5c0 37.333 17.333 150 52 338l112 -24c-10 -55.333 -19 -110.333 -27 -165s-12.333 -94.667 -13 -120c0 -24.667 15.333 -41.667 46 -51s64 -14 100 -14c85.333 0 152.666 11 201.999 33l-44 370l138 32l16 -140c2 -20.667 8 -35 18 -43
s28.333 -12 55 -12c22.667 0 46.334 4.33301 71.001 13l-3 174l125 6l5 -188c11.333 -3.33301 26 -5 44 -5c32.667 0 60.334 5 83.001 15l-26 220l137 26l18 -201c1.33301 -15.333 4.33301 -27.166 9 -35.499s13.834 -14.5 27.501 -18.5s33.834 -6 60.501 -6h14
c2.66699 0 5 -4.33301 7 -13z" />
    <glyph glyph-name="uniFEB3" unicode="&#x633;" horiz-adv-x="839" arabic-form="initial" 
d="M741 401c8 -85.333 11.998 -157.334 11.998 -216.001c0 -60.667 -17 -106.667 -51 -138s-76 -47 -126 -47c-36 0 -66.333 5 -91 15s-42.667 28 -54 54c-14 -25.333 -34.167 -43.166 -60.5 -53.499s-53.166 -15.5 -80.499 -15.5c-54 0 -92.333 21.667 -115 65
c-17.333 -24.667 -40.5 -41.667 -69.5 -51s-64.167 -14 -105.5 -14c-2.66699 -0 -5.16699 4.33301 -7.5 13s-3.5 19 -3.5 31v96c0 12 1 22.333 3 31s4.66699 13 8 13c45.333 0 86 6 122 18v134h127v-102c0 -15.333 1.83301 -26.5 5.5 -33.5s8.83398 -11.5 15.501 -13.5
s17 -3 31 -3c22 0 46 4.33301 72 13l-4 174l126 6l4 -188c8.66699 -3.33301 23.334 -5 44.001 -5c32.667 0 60.667 5 84 15l-26 220l136 26c1.33301 -20 2.66602 -34.667 3.99902 -44z" />
    <glyph glyph-name="uniFEB4" unicode="&#x633;" horiz-adv-x="866" arabic-form="medial" 
d="M873 171c2 -8.66699 2.99512 -18.999 2.99512 -30.999v-96c0 -12 -1 -22.333 -3 -31s-4.33301 -13 -7 -13h-12c-26.667 0 -52.5 6.16699 -77.5 18.5s-43.833 29.166 -56.5 50.499c-16 -22.667 -36.667 -39.834 -62 -51.501s-52.666 -17.5 -81.999 -17.5
c-36 0 -66.333 5 -91 15s-42.667 28 -54 54c-14 -25.333 -34.167 -43.166 -60.5 -53.499s-53.166 -15.5 -80.499 -15.5c-54 0 -92.333 21.667 -115 65c-17.333 -24.667 -40.5 -41.667 -69.5 -51s-64.167 -14 -105.5 -14c-2.66699 -0 -5.16699 4.33301 -7.5 13
s-3.5 19 -3.5 31v96c0 12 1 22.333 3 31s4.66699 13 8 13c45.333 0 86 6 122 18v134h127v-102c0 -15.333 1.83301 -26.5 5.5 -33.5s8.83398 -11.5 15.501 -13.5s17 -3 31 -3c22 0 46 4.33301 72 13l-4 174l126 6l4 -188c8.66699 -3.33301 23.334 -5 44.001 -5
c32.667 0 60.667 5 84 15l-26 220l136 26l18 -201c1.33301 -15.333 4.33301 -27 9 -35s13.834 -14.167 27.501 -18.5s34.167 -6.5 61.5 -6.5h13c2.66699 0 5 -4.33301 7 -13z" />
    <glyph glyph-name="uniFEB6" unicode="&#x634;" horiz-adv-x="1306" arabic-form="final" 
d="M862 656l-108 90l92 108l108 -90zM947 683l109 -90l-91 -108l-109 90zM774 477l-109 91l92 110l108 -91zM1313 171c2 -8.66699 2.99805 -19.002 2.99805 -31.002v-96c0 -12 -1 -22.333 -3 -31s-4.33301 -13 -7 -13h-12c-28 0 -54.833 5.66699 -80.5 17
s-44.167 27.333 -55.5 48c-16.667 -21.333 -37.334 -37.5 -62.001 -48.5s-51 -16.5 -79 -16.5c-64 0 -106 22.333 -126 67c-12.667 -24.667 -29.834 -42 -51.501 -52s-42.167 -15 -61.5 -15c-22.667 0 -42 2.83301 -58 8.5s-29 14.5 -39 26.5c2 -34 3 -65 3 -93
c0 -42 -18.667 -76.667 -56 -104s-81.666 -47.166 -132.999 -59.499s-98 -18.5 -140 -18.5c-95.333 0 -164 18.833 -206 56.5s-63 92.167 -63 163.5c0 37.333 17.333 150 52 338l112 -24c-10 -55.333 -19 -110.333 -27 -165s-12.333 -94.667 -13 -120
c0 -24.667 15.333 -41.667 46 -51s64 -14 100 -14c85.333 0 152.666 11 201.999 33l-44 370l138 32l16 -140c2 -20.667 8 -35 18 -43s28.333 -12 55 -12c22.667 0 46.334 4.33301 71.001 13l-3 174l125 6l5 -188c11.333 -3.33301 26 -5 44 -5c32.667 0 60.334 5 83.001 15
l-26 220l137 26l18 -201c1.33301 -15.333 4.33301 -27.166 9 -35.499s13.834 -14.5 27.501 -18.5s33.834 -6 60.501 -6h14c2.66699 0 5 -4.33301 7 -13z" />
    <glyph glyph-name="uniFEB7" unicode="&#x634;" horiz-adv-x="839" arabic-form="initial" 
d="M419 645l-108 91l91 108l108 -91zM504 673l109 -91l-92 -108l-109 91zM331 467l-109 91l91 110l108 -91zM741 401c8 -85.333 11.998 -157.334 11.998 -216.001c0 -60.667 -17 -106.667 -51 -138s-76 -47 -126 -47c-36 0 -66.333 5 -91 15s-42.667 28 -54 54
c-14 -25.333 -34.167 -43.166 -60.5 -53.499s-53.166 -15.5 -80.499 -15.5c-54 0 -92.333 21.667 -115 65c-17.333 -24.667 -40.5 -41.667 -69.5 -51s-64.167 -14 -105.5 -14c-2.66699 -0 -5.16699 4.33301 -7.5 13s-3.5 19 -3.5 31v96c0 12 1 22.333 3 31s4.66699 13 8 13
c45.333 0 86 6 122 18v134h127v-102c0 -15.333 1.83301 -26.5 5.5 -33.5s8.83398 -11.5 15.501 -13.5s17 -3 31 -3c22 0 46 4.33301 72 13l-4 174l126 6l4 -188c8.66699 -3.33301 23.334 -5 44.001 -5c32.667 0 60.667 5 84 15l-26 220l136 26
c1.33301 -20 2.66602 -34.667 3.99902 -44z" />
    <glyph glyph-name="uniFEB8" unicode="&#x634;" horiz-adv-x="866" arabic-form="medial" 
d="M470 645l-108 91l92 108l108 -91zM555 673l109 -91l-91 -108l-109 91zM382 467l-109 91l92 110l108 -91zM873 171c2 -8.66699 2.99512 -18.999 2.99512 -30.999v-96c0 -12 -1 -22.333 -3 -31s-4.33301 -13 -7 -13h-12c-26.667 0 -52.5 6.16699 -77.5 18.5
s-43.833 29.166 -56.5 50.499c-16 -22.667 -36.667 -39.834 -62 -51.501s-52.666 -17.5 -81.999 -17.5c-36 0 -66.333 5 -91 15s-42.667 28 -54 54c-14 -25.333 -34.167 -43.166 -60.5 -53.499s-53.166 -15.5 -80.499 -15.5c-54 0 -92.333 21.667 -115 65
c-17.333 -24.667 -40.5 -41.667 -69.5 -51s-64.167 -14 -105.5 -14c-2.66699 -0 -5.16699 4.33301 -7.5 13s-3.5 19 -3.5 31v96c0 12 1 22.333 3 31s4.66699 13 8 13c45.333 0 86 6 122 18v134h127v-102c0 -15.333 1.83301 -26.5 5.5 -33.5s8.83398 -11.5 15.501 -13.5
s17 -3 31 -3c22 0 46 4.33301 72 13l-4 174l126 6l4 -188c8.66699 -3.33301 23.334 -5 44.001 -5c32.667 0 60.667 5 84 15l-26 220l136 26l18 -201c1.33301 -15.333 4.33301 -27 9 -35s13.834 -14.167 27.501 -18.5s34.167 -6.5 61.5 -6.5h13c2.66699 0 5 -4.33301 7 -13z
" />
    <glyph glyph-name="uniFEBA" unicode="&#x635;" horiz-adv-x="1376" arabic-form="final" 
d="M1383 171c2 -8.66699 3.00488 -19.001 3.00488 -31.001v-96c0 -12 -1 -22.333 -3 -31s-4.33301 -13 -7 -13c-47.333 0 -84.333 5.16699 -111 15.5s-48.334 28.166 -65.001 53.499c-34 -25.333 -77 -44.666 -129 -57.999s-111.333 -20 -178 -20c-90 0 -160.333 11 -211 33
c1.33301 -40 2 -67.333 2 -82c0 -42 -18.667 -76.667 -56 -104s-81.666 -47.166 -132.999 -59.499s-98 -18.5 -140 -18.5c-95.333 0 -164 18.833 -206 56.5s-63 92.167 -63 163.5c0 37.333 17.333 150 52 338l112 -24c-10 -55.333 -19 -110.333 -27 -165
s-12.333 -94.667 -13 -120c0 -24.667 15.333 -41.667 46 -51s64 -14 100 -14c85.333 0 152.666 11 201.999 33l-44 370l138 32c6.66699 -66 12.334 -126 17.001 -180c6 -2.66699 12.667 -4.66699 20 -6s12.666 -2.33301 15.999 -3c43.333 72 97.666 140.333 162.999 205
s133.666 97 204.999 97c65.333 0 115.666 -23.5 150.999 -70.5s53 -114.833 53 -203.5c0 -7.33301 -0.333008 -13 -1 -17c13.333 -11.333 46.666 -17 99.999 -17c2.66699 0 5 -4.33301 7 -13zM1130.5 302.999c-18.333 21.333 -41.167 32 -68.5 32
c-32 0 -68.667 -14.333 -110 -43s-82.333 -67.667 -123 -117h48c91.333 0 184 11 278 33c2 42 -6.16699 73.667 -24.5 95z" />
    <glyph glyph-name="uniFEBB" unicode="&#x635;" horiz-adv-x="950" arabic-form="initial" 
d="M810 426c35.333 -46.667 53.0049 -114 53.0049 -202c0 -43.333 -12.667 -80.666 -38 -111.999c-28.667 -36.667 -72.834 -65 -132.501 -85s-130.834 -30 -213.501 -30c-64.667 0 -119.334 5.5 -164.001 16.5s-81.334 29.5 -110.001 55.5c-21.333 -24 -51 -41.5 -89 -52.5
s-76.667 -16.5 -116 -16.5c-2.66699 0 -5.16699 4.33301 -7.5 13s-3.5 19 -3.5 31v96c0 12 1 22.333 3 31s4.66699 13 8 13c56.667 0 99.667 6 129 18l-5 168l126 5v-167c10 -6 23.667 -10 41 -12c43.333 71.333 97.666 139.166 162.999 203.499s133.333 96.5 204 96.5
c66 0 116.667 -23.333 152 -70zM716.005 308.5c-18 21 -40.667 31.499 -68 31.499c-32 0 -68.667 -14.167 -110 -42.5s-82.333 -67.166 -123 -116.499h47c94 0 187 10.333 279 31c1.33301 43.333 -7 75.5 -25 96.5z" />
    <glyph glyph-name="uniFEBC" unicode="&#x635;" horiz-adv-x="962" arabic-form="medial" 
d="M969 171c2 -8.66699 3.00293 -18.999 3.00293 -30.999v-96c0 -12 -1 -22.333 -3 -31s-4.33301 -13 -7 -13c-48.667 0 -86.334 5.5 -113.001 16.5s-48.334 29.833 -65.001 56.5c-33.333 -24.667 -76 -43.5 -128 -56.5s-111 -19.5 -177 -19.5
c-64.667 0 -119.334 5.5 -164.001 16.5s-81.334 29.5 -110.001 55.5c-21.333 -24 -51 -41.5 -89 -52.5s-76.667 -16.5 -116 -16.5c-2.66699 0 -5.16699 4.33301 -7.5 13s-3.5 19 -3.5 31v96c0 12 1 22.333 3 31s4.66699 13 8 13c56.667 0 99.667 6 129 18l-5 168l126 5v-167
c10 -6 23.667 -10 41 -12c43.333 71.333 97.666 139.166 162.999 203.499s133.333 96.5 204 96.5c66 0 116.667 -23.333 152 -70s53 -114 53 -202c0 -10 -0.333008 -17.667 -1 -23c6.66699 -5.33301 17.334 -9.5 32.001 -12.5s37.334 -4.5 68.001 -4.5
c2.66699 0 5 -4.33301 7 -13zM716.003 308.501c-18 21 -40.667 31.499 -68 31.499c-32 0 -68.667 -14.167 -110 -42.5s-82.333 -67.166 -123 -116.499h47c94 0 187 10.333 279 31c1.33301 43.333 -7 75.5 -25 96.5z" />
    <glyph glyph-name="uniFEBE" unicode="&#x636;" horiz-adv-x="1376" arabic-form="final" 
d="M859 548l-126 105l105 124l125 -105zM1383 171c2 -8.66699 3.00488 -19.001 3.00488 -31.001v-96c0 -12 -1 -22.333 -3 -31s-4.33301 -13 -7 -13c-47.333 0 -84.333 5.16699 -111 15.5s-48.334 28.166 -65.001 53.499c-34 -25.333 -77 -44.666 -129 -57.999
s-111.333 -20 -178 -20c-90 0 -160.333 11 -211 33c1.33301 -40 2 -67.333 2 -82c0 -42 -18.667 -76.667 -56 -104s-81.666 -47.166 -132.999 -59.499s-98 -18.5 -140 -18.5c-95.333 0 -164 18.833 -206 56.5s-63 92.167 -63 163.5c0 37.333 17.333 150 52 338l112 -24
c-10 -55.333 -19 -110.333 -27 -165s-12.333 -94.667 -13 -120c0 -24.667 15.333 -41.667 46 -51s64 -14 100 -14c85.333 0 152.666 11 201.999 33l-44 370l138 32c6.66699 -66 12.334 -126 17.001 -180c6 -2.66699 12.667 -4.66699 20 -6s12.666 -2.33301 15.999 -3
c43.333 72 97.666 140.333 162.999 205s133.666 97 204.999 97c65.333 0 115.666 -23.5 150.999 -70.5s53 -114.833 53 -203.5c0 -7.33301 -0.333008 -13 -1 -17c13.333 -11.333 46.666 -17 99.999 -17c2.66699 0 5 -4.33301 7 -13zM1130.5 302.999
c-18.333 21.333 -41.167 32 -68.5 32c-32 0 -68.667 -14.333 -110 -43s-82.333 -67.667 -123 -117h48c91.333 0 184 11 278 33c2 42 -6.16699 73.667 -24.5 95z" />
    <glyph glyph-name="uniFEBF" unicode="&#x636;" horiz-adv-x="950" arabic-form="initial" 
d="M457 548l-125 105l104 124l125 -105zM810 426c35.333 -46.667 53.0049 -114 53.0049 -202c0 -43.333 -12.667 -80.666 -38 -111.999c-28.667 -36.667 -72.834 -65 -132.501 -85s-130.834 -30 -213.501 -30c-64.667 0 -119.334 5.5 -164.001 16.5
s-81.334 29.5 -110.001 55.5c-21.333 -24 -51 -41.5 -89 -52.5s-76.667 -16.5 -116 -16.5c-2.66699 0 -5.16699 4.33301 -7.5 13s-3.5 19 -3.5 31v96c0 12 1 22.333 3 31s4.66699 13 8 13c56.667 0 99.667 6 129 18l-5 168l126 5v-167c10 -6 23.667 -10 41 -12
c43.333 71.333 97.666 139.166 162.999 203.499s133.333 96.5 204 96.5c66 0 116.667 -23.333 152 -70zM716.005 308.5c-18 21 -40.667 31.499 -68 31.499c-32 0 -68.667 -14.167 -110 -42.5s-82.333 -67.166 -123 -116.499h47c94 0 187 10.333 279 31
c1.33301 43.333 -7 75.5 -25 96.5z" />
    <glyph glyph-name="uniFEC0" unicode="&#x636;" horiz-adv-x="962" arabic-form="medial" 
d="M457 548l-125 105l104 124l125 -105zM969 171c2 -8.66699 3.00293 -18.999 3.00293 -30.999v-96c0 -12 -1 -22.333 -3 -31s-4.33301 -13 -7 -13c-48.667 0 -86.334 5.5 -113.001 16.5s-48.334 29.833 -65.001 56.5c-33.333 -24.667 -76 -43.5 -128 -56.5
s-111 -19.5 -177 -19.5c-64.667 0 -119.334 5.5 -164.001 16.5s-81.334 29.5 -110.001 55.5c-21.333 -24 -51 -41.5 -89 -52.5s-76.667 -16.5 -116 -16.5c-2.66699 0 -5.16699 4.33301 -7.5 13s-3.5 19 -3.5 31v96c0 12 1 22.333 3 31s4.66699 13 8 13
c56.667 0 99.667 6 129 18l-5 168l126 5v-167c10 -6 23.667 -10 41 -12c43.333 71.333 97.666 139.166 162.999 203.499s133.333 96.5 204 96.5c66 0 116.667 -23.333 152 -70s53 -114 53 -202c0 -10 -0.333008 -17.667 -1 -23c6.66699 -5.33301 17.334 -9.5 32.001 -12.5
s37.334 -4.5 68.001 -4.5c2.66699 0 5 -4.33301 7 -13zM716.003 308.501c-18 21 -40.667 31.499 -68 31.499c-32 0 -68.667 -14.167 -110 -42.5s-82.333 -67.166 -123 -116.499h47c94 0 187 10.333 279 31c1.33301 43.333 -7 75.5 -25 96.5z" />
    <glyph glyph-name="uniFEC2" unicode="&#x637;" horiz-adv-x="858" arabic-form="final" 
d="M865 171c2 -8.66699 3 -18.999 3 -30.999v-96c0 -12 -1 -22.333 -3 -31s-4.33301 -13 -7 -13c-48.667 0 -86.334 5.5 -113.001 16.5s-48.334 29.833 -65.001 56.5c-33.333 -24 -76.166 -42.167 -128.499 -54.5s-112.166 -18.5 -179.499 -18.5h-252l-34 184h95
c2 4 12.333 20.667 31 50c3.33301 5.33301 5.66602 13 6.99902 23s2 26.667 2 50c0 39.333 -3 143.333 -9 312l-5 133l140 26l1 -312c0 -30 -1 -54 -3 -72c32.667 31.333 66.834 56.166 102.501 74.499s71.167 27.5 106.5 27.5c65.333 0 115.666 -23.333 150.999 -70
s53 -114 53 -202c0 -10 -0.333008 -17.333 -1 -22c6.66699 -6 17.334 -10.5 32.001 -13.5s37.667 -4.5 69 -4.5c2.66699 0 5 -4.33301 7 -13zM612 308.001c-18 21.333 -40.666 32.001 -67.999 32.001c-32 0 -68.833 -14.333 -110.5 -43s-82.834 -67.334 -123.501 -116.001
h48c94 0 186.667 10.333 278 31c2 42.667 -6 74.667 -24 96z" />
    <glyph glyph-name="uniFEC3" unicode="&#x637;" horiz-adv-x="758" arabic-form="initial" 
d="M619 426c35.333 -46.667 53.001 -114 53.001 -202c0 -43.333 -12 -80.666 -36 -111.999c-29.333 -36.667 -74 -64.5 -134 -83.5s-132 -28.5 -216 -28.5h-286c-2.66699 0 -5.16699 4.33301 -7.5 13s-3.5 19 -3.5 31v96c0 12 1 22.333 3 31s4.66699 13 8 13h95
c2 4 12.333 20.667 31 50c3.33301 5.33301 5.66602 13 6.99902 23s2 26.667 2 50c0 39.333 -3 143.333 -9 312l-5 133l140 26l1 -312c0 -30 -1 -54 -3 -72c32.667 31.333 66.834 56.166 102.501 74.499s71.167 27.5 106.5 27.5c65.333 0 115.666 -23.333 150.999 -70z
M526.001 308c-18 21.333 -40.666 32.001 -67.999 32.001c-32 0 -68.833 -14.333 -110.5 -43s-82.834 -67.334 -123.501 -116.001h48c94 0 186.667 10.333 278 31c2 42.667 -6 74.667 -24 96z" />
    <glyph glyph-name="uniFEC4" unicode="&#x637;" horiz-adv-x="771" arabic-form="medial" 
d="M778 171c2 -8.66699 2.99902 -18.999 2.99902 -30.999v-96c0 -12 -1 -22.333 -3 -31s-4.33301 -13 -7 -13c-48 0 -85.5 5.5 -112.5 16.5s-48.833 29.5 -65.5 55.5c-68.667 -48 -171 -72 -307 -72h-286c-2.66699 0 -5.16699 4.33301 -7.5 13s-3.5 19 -3.5 31v96
c0 12 1 22.333 3 31s4.66699 13 8 13h95c2 4 12.333 20.667 31 50c3.33301 5.33301 5.66602 13 6.99902 23s2 26.667 2 50c0 39.333 -3 143.333 -9 312l-5 133l140 26l1 -312c0 -30 -1 -54 -3 -72c32.667 31.333 66.834 56.166 102.501 74.499s71.167 27.5 106.5 27.5
c65.333 0 115.666 -23.333 150.999 -70s53 -114 53 -202c0 -10 -0.333008 -17.667 -1 -23c6.66699 -5.33301 17.334 -9.5 32.001 -12.5s37.334 -4.5 68.001 -4.5c2.66699 0 5 -4.33301 7 -13zM525.999 308.001c-18 21.333 -40.666 32.001 -67.999 32.001
c-32 0 -68.833 -14.333 -110.5 -43s-82.834 -67.334 -123.501 -116.001h48c94 0 186.667 10.333 278 31c2 42.667 -6 74.667 -24 96z" />
    <glyph glyph-name="uniFEC6" unicode="&#x638;" horiz-adv-x="858" arabic-form="final" 
d="M586 601l-126 105l105 124l125 -105zM865 171c2 -8.66699 3 -18.999 3 -30.999v-96c0 -12 -1 -22.333 -3 -31s-4.33301 -13 -7 -13c-48.667 0 -86.334 5.5 -113.001 16.5s-48.334 29.833 -65.001 56.5c-33.333 -24 -76.166 -42.167 -128.499 -54.5
s-112.166 -18.5 -179.499 -18.5h-252l-34 184h95c2 4 12.333 20.667 31 50c3.33301 5.33301 5.66602 13 6.99902 23s2 26.667 2 50c0 39.333 -3 143.333 -9 312l-5 133l140 26l1 -312c0 -30 -1 -54 -3 -72c32.667 31.333 66.834 56.166 102.501 74.499
s71.167 27.5 106.5 27.5c65.333 0 115.666 -23.333 150.999 -70s53 -114 53 -202c0 -10 -0.333008 -17.333 -1 -22c6.66699 -6 17.334 -10.5 32.001 -13.5s37.667 -4.5 69 -4.5c2.66699 0 5 -4.33301 7 -13zM612 308.001c-18 21.333 -40.666 32.001 -67.999 32.001
c-32 0 -68.833 -14.333 -110.5 -43s-82.834 -67.334 -123.501 -116.001h48c94 0 186.667 10.333 278 31c2 42.667 -6 74.667 -24 96z" />
    <glyph glyph-name="uniFEC7" unicode="&#x638;" horiz-adv-x="758" arabic-form="initial" 
d="M497 601l-126 105l105 124l125 -105zM619 426c35.333 -46.667 53.001 -114 53.001 -202c0 -43.333 -12 -80.666 -36 -111.999c-29.333 -36.667 -74 -64.5 -134 -83.5s-132 -28.5 -216 -28.5h-286c-2.66699 0 -5.16699 4.33301 -7.5 13s-3.5 19 -3.5 31v96
c0 12 1 22.333 3 31s4.66699 13 8 13h95c2 4 12.333 20.667 31 50c3.33301 5.33301 5.66602 13 6.99902 23s2 26.667 2 50c0 39.333 -3 143.333 -9 312l-5 133l140 26l1 -312c0 -30 -1 -54 -3 -72c32.667 31.333 66.834 56.166 102.501 74.499s71.167 27.5 106.5 27.5
c65.333 0 115.666 -23.333 150.999 -70zM526.001 308c-18 21.333 -40.666 32.001 -67.999 32.001c-32 0 -68.833 -14.333 -110.5 -43s-82.834 -67.334 -123.501 -116.001h48c94 0 186.667 10.333 278 31c2 42.667 -6 74.667 -24 96z" />
    <glyph glyph-name="uniFEC8" unicode="&#x638;" horiz-adv-x="771" arabic-form="medial" 
d="M497 601l-126 105l105 124l125 -105zM778 171c2 -8.66699 2.99902 -18.999 2.99902 -30.999v-96c0 -12 -1 -22.333 -3 -31s-4.33301 -13 -7 -13c-48 0 -85.5 5.5 -112.5 16.5s-48.833 29.5 -65.5 55.5c-68.667 -48 -171 -72 -307 -72h-286
c-2.66699 0 -5.16699 4.33301 -7.5 13s-3.5 19 -3.5 31v96c0 12 1 22.333 3 31s4.66699 13 8 13h95c2 4 12.333 20.667 31 50c3.33301 5.33301 5.66602 13 6.99902 23s2 26.667 2 50c0 39.333 -3 143.333 -9 312l-5 133l140 26l1 -312c0 -30 -1 -54 -3 -72
c32.667 31.333 66.834 56.166 102.501 74.499s71.167 27.5 106.5 27.5c65.333 0 115.666 -23.333 150.999 -70s53 -114 53 -202c0 -10 -0.333008 -17.667 -1 -23c6.66699 -5.33301 17.334 -9.5 32.001 -12.5s37.334 -4.5 68.001 -4.5c2.66699 0 5 -4.33301 7 -13z
M525.999 308.001c-18 21.333 -40.666 32.001 -67.999 32.001c-32 0 -68.833 -14.333 -110.5 -43s-82.834 -67.334 -123.501 -116.001h48c94 0 186.667 10.333 278 31c2 42.667 -6 74.667 -24 96z" />
    <glyph glyph-name="uniFECA" unicode="&#x639;" horiz-adv-x="691" arabic-form="final" 
d="M698 171c2 -8.66699 3.00098 -18.999 3.00098 -30.999v-96c0 -12 -1 -22.333 -3 -31s-4.33301 -13 -7 -13h-113c-60 0 -105.167 7.33301 -135.5 22s-54.833 39.334 -73.5 74.001c-35.333 -17.333 -64.666 -35.333 -87.999 -54s-43.666 -39.334 -60.999 -62.001
c-3.33301 -24.667 -5 -45.334 -5 -62.001c0 -62 15.5 -106.333 46.5 -133s81.833 -40 152.5 -40h247l-37 -184h-211c-70.667 0 -131.334 14.333 -182.001 43s-89.167 68.667 -115.5 120s-39.5 110.666 -39.5 177.999c0 58 13.667 113 41 165s67.333 99 120 141l-54 104
c-13.333 25.333 -21.833 40.333 -25.5 45s-7.83398 7 -12.501 7h-26l4 146c134 12.667 228.333 19 283 19c47.333 0 84.666 -3.66699 111.999 -11s47 -19.166 59 -35.499s18 -38.5 18 -66.5v-43c0 -10 -4.5 -26 -13.5 -48s-21.833 -45.333 -38.5 -70
s-35.667 -46.667 -57 -66c13.333 -3.33301 28.333 -5 45 -5h160c2.66699 0 5 -4.33301 7 -13zM426.001 294.501c22 28.333 36.001 52.832 42.001 73.499c-12 4.66699 -39.667 7 -83 7c-38.667 0 -74.667 -1.66699 -108 -5c4 -2.66699 8.5 -7.66699 13.5 -15
s9.66699 -14.666 14 -21.999s7.5 -13 9.5 -17c7.33301 -14.667 23.666 -43 48.999 -85c20 14 41 35.167 63 63.5z" />
    <glyph glyph-name="uniFECB" unicode="&#x639;" horiz-adv-x="597" arabic-form="initial" 
d="M511 67c-80 -21.333 -141.5 -36.501 -184.5 -45.501s-81.833 -14.833 -116.5 -17.5s-82 -4 -142 -4h-68c-2.66699 0 -5.16699 4.33301 -7.5 13s-3.5 19 -3.5 31v96c0 12 1 22.333 3 31s4.66699 13 8 13h118c-12 30 -18 65.667 -18 107c0 65.333 19.333 114.333 58 147
s90 49 154 49c36.667 0 74.334 -5 113.001 -15l-36 -145c-26.667 6.66699 -58.667 10 -96 10c-22 0 -43 -1.66699 -63 -5c0 -25.333 2.16699 -50.666 6.5 -75.999s10.166 -47 17.499 -65c26.667 5.33301 46.667 9 60 11l188 37z" />
    <glyph glyph-name="uniFECC" unicode="&#x639;" horiz-adv-x="587" arabic-form="medial" 
d="M594 171c2 -8.66699 3.00098 -19.002 3.00098 -31.002v-96c0 -12 -1 -22.333 -3 -31s-4.33301 -13 -7 -13h-178c-24.667 0 -45.834 3.33301 -63.501 10s-33.5 19 -47.5 37c-16 -17.333 -34.667 -29.5 -56 -36.5s-46.333 -10.5 -75 -10.5h-167
c-2.66699 0 -5.16699 4.33301 -7.5 13s-3.5 19 -3.5 31v96c0 12 1 22.333 3 31s4.66699 13 8 13h130c9.33301 0 18 -1 26 -3l-43.5 84c-11 20.667 -18.167 32.834 -21.5 36.501s-7 5.16699 -11 4.5h-26l5 146c132.667 12.667 226.667 19 282 19
c47.333 0 84.833 -3.66699 112.5 -11s47.5 -19.166 59.5 -35.499s18 -38.5 18 -66.5v-42c0 -13.333 -6.33301 -34 -19 -62s-27 -52 -43 -72c6.66699 1.33301 18 2 34 2h84c2.66699 0 5 -4.33301 7 -13zM361.001 237.498c22 28.333 36.001 52.499 42.001 72.499
c-12.667 5.33301 -41.667 8 -87 8c-37.333 0 -72 -1.66699 -104 -5c4 -2.66699 8.5 -7.66699 13.5 -15s9.66699 -14.666 14 -21.999s7.5 -13 9.5 -17c7.33301 -14.667 23.666 -43 48.999 -85c20 14 41 35.167 63 63.5z" />
    <glyph glyph-name="uniFECE" unicode="&#x63a;" horiz-adv-x="691" arabic-form="final" 
d="M356 574l-125 105l104 125l125 -105zM698 171c2 -8.66699 3.00098 -18.999 3.00098 -30.999v-96c0 -12 -1 -22.333 -3 -31s-4.33301 -13 -7 -13h-113c-60 0 -105.167 7.33301 -135.5 22s-54.833 39.334 -73.5 74.001c-35.333 -17.333 -64.666 -35.333 -87.999 -54
s-43.666 -39.334 -60.999 -62.001c-3.33301 -24.667 -5 -45.334 -5 -62.001c0 -62 15.5 -106.333 46.5 -133s81.833 -40 152.5 -40h247l-37 -184h-211c-70.667 0 -131.334 14.333 -182.001 43s-89.167 68.667 -115.5 120s-39.5 110.666 -39.5 177.999
c0 58 13.667 113 41 165s67.333 99 120 141l-54 104c-13.333 25.333 -21.833 40.333 -25.5 45s-7.83398 7 -12.501 7h-26l4 146c134 12.667 228.333 19 283 19c47.333 0 84.666 -3.66699 111.999 -11s47 -19.166 59 -35.499s18 -38.5 18 -66.5v-43c0 -10 -4.5 -26 -13.5 -48
s-21.833 -45.333 -38.5 -70s-35.667 -46.667 -57 -66c13.333 -3.33301 28.333 -5 45 -5h160c2.66699 0 5 -4.33301 7 -13zM426.001 294.501c22 28.333 36.001 52.832 42.001 73.499c-12 4.66699 -39.667 7 -83 7c-38.667 0 -74.667 -1.66699 -108 -5
c4 -2.66699 8.5 -7.66699 13.5 -15s9.66699 -14.666 14 -21.999s7.5 -13 9.5 -17c7.33301 -14.667 23.666 -43 48.999 -85c20 14 41 35.167 63 63.5z" />
    <glyph glyph-name="uniFECF" unicode="&#x63a;" horiz-adv-x="597" arabic-form="initial" 
d="M249 582l-126 105l105 125l125 -105zM511 67c-80 -21.333 -141.5 -36.501 -184.5 -45.501s-81.833 -14.833 -116.5 -17.5s-82 -4 -142 -4h-68c-2.66699 0 -5.16699 4.33301 -7.5 13s-3.5 19 -3.5 31v96c0 12 1 22.333 3 31s4.66699 13 8 13h118
c-12 30 -18 65.667 -18 107c0 65.333 19.333 114.333 58 147s90 49 154 49c36.667 0 74.334 -5 113.001 -15l-36 -145c-26.667 6.66699 -58.667 10 -96 10c-22 0 -43 -1.66699 -63 -5c0 -25.333 2.16699 -50.666 6.5 -75.999s10.166 -47 17.499 -65
c26.667 5.33301 46.667 9 60 11l188 37z" />
    <glyph glyph-name="uniFED0" unicode="&#x63a;" horiz-adv-x="587" arabic-form="medial" 
d="M292 568l-125 105l105 125l124 -105zM594 171c2 -8.66699 3.00098 -19.002 3.00098 -31.002v-96c0 -12 -1 -22.333 -3 -31s-4.33301 -13 -7 -13h-178c-24.667 0 -45.834 3.33301 -63.501 10s-33.5 19 -47.5 37c-16 -17.333 -34.667 -29.5 -56 -36.5
s-46.333 -10.5 -75 -10.5h-167c-2.66699 0 -5.16699 4.33301 -7.5 13s-3.5 19 -3.5 31v96c0 12 1 22.333 3 31s4.66699 13 8 13h130c9.33301 0 18 -1 26 -3l-43.5 84c-11 20.667 -18.167 32.834 -21.5 36.501s-7 5.16699 -11 4.5h-26l5 146
c132.667 12.667 226.667 19 282 19c47.333 0 84.833 -3.66699 112.5 -11s47.5 -19.166 59.5 -35.499s18 -38.5 18 -66.5v-42c0 -13.333 -6.33301 -34 -19 -62s-27 -52 -43 -72c6.66699 1.33301 18 2 34 2h84c2.66699 0 5 -4.33301 7 -13zM361.001 237.498
c22 28.333 36.001 52.499 42.001 72.499c-12.667 5.33301 -41.667 8 -87 8c-37.333 0 -72 -1.66699 -104 -5c4 -2.66699 8.5 -7.66699 13.5 -15s9.66699 -14.666 14 -21.999s7.5 -13 9.5 -17c7.33301 -14.667 23.666 -43 48.999 -85c20 14 41 35.167 63 63.5z" />
    <glyph glyph-name="uniFED2" unicode="&#x641;" horiz-adv-x="1042" arabic-form="final" 
d="M807 601l-125 105l105 125l124 -105zM1049 171c2 -8.66699 3 -19.002 3 -31.002v-96c0 -12 -1 -22.333 -3 -31s-4.33301 -13 -7 -13h-89c-36.667 0 -69.167 4 -97.5 12s-52.5 23.333 -72.5 46c-14 -12 -29 -22 -45 -30c-24.667 -13.333 -52 -22.166 -82 -26.499
s-68.667 -6.5 -116 -6.5l-97 1c-76.667 0 -140.834 5.83301 -192.501 17.5s-92 33.334 -121 65.001s-43.5 76.167 -43.5 133.5c0 17.333 2.33301 40 7 68l26 155l111 -22l-23 -139c-2.66699 -10 -4 -18.333 -4 -25c0 -19.333 6.83301 -33.833 20.5 -43.5
s37.167 -16.334 70.5 -20.001s83 -5.5 149 -5.5c55.333 0 91.333 0.333008 108 1h35c14 0 27 -0.666992 39 -2c-6.66699 6 -12.167 13.333 -16.5 22s-6.5 17.334 -6.5 26.001c0 34 11 72.167 33 114.5s48.833 78.166 80.5 107.499s61.167 44 88.5 44
c31.333 0 60.833 -12.333 88.5 -37s49.834 -57.5 66.501 -98.5s25 -84.5 25 -130.5c0 -21.333 -4.33301 -36.666 -13 -45.999c9.33301 2 19 3 29 3h42c2.66699 0 5 -4.33301 7 -13zM862 230.998c-4 28 -11.668 51.8301 -23.001 71.4971s-23.333 29.5 -36 29.5
c-8 0 -18.833 -5.66699 -32.5 -17s-26 -24.166 -37 -38.499s-16.5 -25.5 -16.5 -33.5c0 -5.33301 4.33301 -12.166 13 -20.499s23.334 -21.166 44.001 -38.499z" />
    <glyph glyph-name="uniFED3" unicode="&#x641;" horiz-adv-x="500" arabic-form="initial" 
d="M225 755l-126 105l105 125l125 -105zM426 191.5c-4.66699 -40.333 -13.332 -73.167 -25.999 -98.5s-31.334 -44.666 -56.001 -57.999c-22 -12.667 -50.333 -21.667 -85 -27s-78 -8 -130 -8h-129c-2.66699 0 -5.16699 4.33301 -7.5 13s-3.5 19 -3.5 31v96
c0 12 1 22.333 3 31s4.66699 13 8 13c108.667 0 183.167 0.333008 223.5 1s67.5 2.33398 81.5 5.00098l4 53c-30.667 -8 -64 -12 -100 -12c-33.333 0 -62 4 -86 12c-10.667 3.33301 -19.667 8.66602 -27 15.999s-16 19.333 -26 36
c-11.333 17.333 -18.666 30.666 -21.999 39.999s-5 20.333 -5 33c2.66699 84 20.167 153.167 52.5 207.5s80.5 81.5 144.5 81.5c38.667 0 72.667 -13.333 102 -40s51.666 -63 66.999 -109s23 -97.333 23 -154c0.666992 -68 -1.33301 -122.167 -6 -162.5zM239.002 382.999
c29.333 0 53.333 1 72 3c0 38 -7.5 66.833 -22.5 86.5s-34.5 29.5 -58.5 29.5c-20.667 0 -37.167 -9.66699 -49.5 -29s-19.833 -48.333 -22.5 -87c20.667 -2 47.667 -3 81 -3z" />
    <glyph glyph-name="uniFED4" unicode="&#x641;" horiz-adv-x="497" arabic-form="medial" 
d="M295 601l-125 105l105 125l124 -105zM504 171c2 -8.66699 3.00195 -18.999 3.00195 -30.999v-96c0 -12 -1 -22.333 -3 -31s-4.33301 -13 -7 -13h-90c-35.333 0 -66.833 3.83301 -94.5 11.5s-51.5 22.167 -71.5 43.5c-22 -20.667 -47.333 -35 -76 -43
s-63.334 -12 -104.001 -12h-61c-2.66699 0 -5.16699 4.33301 -7.5 13s-3.5 19 -3.5 31v96c0 12 1 22.333 3 31s4.66699 13 8 13h16c32.667 0 53 -0.666992 61 -2c-6.66699 5.33301 -11.834 12.166 -15.501 20.499s-5.5 16.5 -5.5 24.5c0 34 11 72 33 114s49 77.833 81 107.5
s61.333 44.5 88 44.5c31.333 0 61 -12.333 89 -37s50.333 -57.5 67 -98.5s25 -84.5 25 -130.5c0 -22 -4.66699 -37.333 -14 -46c10 2 20 3 30 3h42c2.66699 0 5 -4.33301 7 -13zM317.002 231.001c-4 28 -11.666 51.833 -22.999 71.5s-23.333 29.5 -36 29.5
c-8 0 -18.833 -5.66699 -32.5 -17s-25.834 -24.166 -36.501 -38.499s-16 -25.5 -16 -33.5c0 -5.33301 4.5 -12.333 13.5 -21s23.167 -21.334 42.5 -38.001z" />
    <glyph glyph-name="uniFED6" unicode="&#x642;" horiz-adv-x="884" arabic-form="final" 
d="M561 623l95 113l114 -95l-95 -113zM475 521l-114 95l95 113l114 -95zM891 171c2 -8.66699 3.00195 -18.999 3.00195 -30.999v-96c0 -12 -1 -22.333 -3 -31s-4.33301 -13 -7 -13h-127c-1.33301 -44.667 -5.16602 -77.334 -11.499 -98.001s-17.833 -39.667 -34.5 -57
c-36 -34.667 -85.333 -59.5 -148 -74.5s-132 -22.5 -208 -22.5c-99.333 0 -169 18.333 -209 55s-60 91 -60 163c0 40.667 17.333 153.334 52 338.001l112 -22c-10.667 -56 -19.834 -111.333 -27.501 -166s-11.834 -95 -12.501 -121c0 -24.667 15.167 -41.5 45.5 -50.5
s63.833 -13.5 100.5 -13.5c75.333 0 136 2.33301 182 7s81.667 11.667 107 21c0 11.333 0.666992 27.666 2 48.999c-36 -9.33301 -72.667 -14 -110 -14c-32.667 0 -62 4 -88 12c-10 3.33301 -18.5 8.5 -25.5 15.5s-15.5 18.833 -25.5 35.5c-12 20 -19.667 34.167 -23 42.5
s-5 18.833 -5 31.5c3.33301 84 21.166 153.333 53.499 208s80.5 82 144.5 82c54 0 96.667 -21.5 128 -64.5s51 -100.5 59 -172.5h129c2.66699 0 5 -4.33301 7 -13zM638.002 150.001c0 37.333 -7.5 65.833 -22.5 85.5s-34.5 29.5 -58.5 29.5
c-20 0 -36.167 -9.66699 -48.5 -29s-19.833 -48.333 -22.5 -87c21.333 -2 48.333 -3 81 -3c31.333 0 55 1.33301 71 4z" />
    <glyph glyph-name="uniFED7" unicode="&#x642;" horiz-adv-x="500" arabic-form="initial" 
d="M209 851l95 112l114 -95l-95 -112zM123 748l-114 95l95 114l114 -95zM426 191.5c-4.66699 -40.333 -13.332 -73.167 -25.999 -98.5s-31.334 -44.666 -56.001 -57.999c-22 -12.667 -50.333 -21.667 -85 -27s-78 -8 -130 -8h-129c-2.66699 0 -5.16699 4.33301 -7.5 13
s-3.5 19 -3.5 31v96c0 12 1 22.333 3 31s4.66699 13 8 13c108.667 0 183.167 0.333008 223.5 1s67.5 2.33398 81.5 5.00098l4 53c-30.667 -8 -64 -12 -100 -12c-33.333 0 -62 4 -86 12c-10.667 3.33301 -19.667 8.66602 -27 15.999s-16 19.333 -26 36
c-11.333 17.333 -18.666 30.666 -21.999 39.999s-5 20.333 -5 33c2.66699 84 20.167 153.167 52.5 207.5s80.5 81.5 144.5 81.5c38.667 0 72.667 -13.333 102 -40s51.666 -63 66.999 -109s23 -97.333 23 -154c0.666992 -68 -1.33301 -122.167 -6 -162.5zM239.002 382.999
c29.333 0 53.333 1 72 3c0 38 -7.5 66.833 -22.5 86.5s-34.5 29.5 -58.5 29.5c-20.667 0 -37.167 -9.66699 -49.5 -29s-19.833 -48.333 -22.5 -87c20.667 -2 47.667 -3 81 -3z" />
    <glyph glyph-name="uniFED8" unicode="&#x642;" horiz-adv-x="497" arabic-form="medial" 
d="M267 692l95 112l114 -95l-95 -113zM181 589l-114 95l95 114l114 -95zM504 171c2 -8.66699 3.00195 -18.999 3.00195 -30.999v-96c0 -12 -1 -22.333 -3 -31s-4.33301 -13 -7 -13h-90c-35.333 0 -66.833 3.83301 -94.5 11.5s-51.5 22.167 -71.5 43.5
c-22 -20.667 -47.333 -35 -76 -43s-63.334 -12 -104.001 -12h-61c-2.66699 0 -5.16699 4.33301 -7.5 13s-3.5 19 -3.5 31v96c0 12 1 22.333 3 31s4.66699 13 8 13h16c32.667 0 53 -0.666992 61 -2c-6.66699 5.33301 -11.834 12.166 -15.501 20.499s-5.5 16.5 -5.5 24.5
c0 34 11 72 33 114s49 77.833 81 107.5s61.333 44.5 88 44.5c31.333 0 61 -12.333 89 -37s50.333 -57.5 67 -98.5s25 -84.5 25 -130.5c0 -22 -4.66699 -37.333 -14 -46c10 2 20 3 30 3h42c2.66699 0 5 -4.33301 7 -13zM317.002 231.001c-4 28 -11.666 51.833 -22.999 71.5
s-23.333 29.5 -36 29.5c-8 0 -18.833 -5.66699 -32.5 -17s-25.834 -24.166 -36.501 -38.499s-16 -25.5 -16 -33.5c0 -5.33301 4.5 -12.333 13.5 -21s23.167 -21.334 42.5 -38.001z" />
    <glyph glyph-name="uniFEDA" unicode="&#x643;" horiz-adv-x="952" arabic-form="final" 
d="M959 171c2 -8.66699 3 -19 3 -31v-96c0 -12 -1 -22.333 -3 -31s-4.33301 -13 -7 -13c-104 0 -178.333 20.667 -223 62c-43.333 -39.333 -139 -61.333 -287 -66c-76.667 0 -140.667 5.83301 -192 17.5s-91.5 33.334 -120.5 65.001s-43.5 76.167 -43.5 133.5
c0 17.333 2.33301 40 7 68l26 155l111 -22l-23 -139c-2.66699 -10 -4 -18.333 -4 -25c0 -19.333 6.83301 -33.833 20.5 -43.5s37.167 -16.334 70.5 -20.001s83 -5.5 149 -5.5c110.667 0 188 7 232 21l-19 551l139 26l1 -516c0 -49.333 22.667 -75.333 68 -78h88
c2.66699 0 5 -4.33301 7 -13zM483 363.5c-38.667 -25.667 -92.335 -38.502 -161.002 -38.502l12 102c34.667 0 63 2.16699 85 6.5s39.667 11.5 53 21.5c0 2.66699 -0.5 4.33398 -1.5 5.00098s-3.83301 1.33398 -8.5 2.00098c-30 4 -52.5 7.83301 -67.5 11.5
s-26.667 9.66699 -35 18s-12.5 20.5 -12.5 36.5c0 25.333 5.83301 53 17.5 83s26.834 55.333 45.501 76s38 31 58 31c16.667 0 31.834 -5.33301 45.501 -16s29.167 -29.667 46.5 -57l-45 -45c-16.667 17.333 -32 26 -46 26c-22 0 -38.667 -20.333 -50 -61
c30 -4.66699 52.833 -9.16699 68.5 -13.5s28.5 -13 38.5 -26s15 -32.5 15 -58.5c0 -43.333 -19.333 -77.833 -58 -103.5z" />
    <glyph glyph-name="uniFEDB" unicode="&#x643;" horiz-adv-x="487" arabic-form="initial" 
d="M352 367c32 -64 48 -134.667 48 -212c0 -38.667 -13.667 -69.334 -41 -92.001s-70 -39 -128 -49s-135 -14.667 -231 -14c-2.66699 0 -5.16699 4.33301 -7.5 13s-3.5 19 -3.5 31v96c0 12 1 22.333 3 31s4.66699 13 8 13c118.667 -1.33301 211 4 277 16
c-7.33301 53.333 -33 105.333 -77 156s-105 103.334 -183 158.001l4 136c64 36 125 66.833 183 92.5s117 48.167 177 67.5l20 -149l-105 -43l-125 -51c12.667 -6.66699 24.667 -14.667 36 -24c64.667 -53.333 113 -112 145 -176z" />
    <glyph glyph-name="uniFEDC" unicode="&#x643;" horiz-adv-x="514" arabic-form="medial" 
d="M521 171c2 -8.66699 2.99902 -19.001 2.99902 -31.001v-96c0 -12 -1 -22.333 -3 -31s-4.33301 -13 -7 -13h-71c-47.333 0 -81 17 -101 51c-29.333 -18 -72 -31.167 -128 -39.5s-127.333 -12.166 -214 -11.499c-2.66699 -0 -5.16699 4.33301 -7.5 13s-3.5 19 -3.5 31v96
c0 12 1 22.333 3 31s4.66699 13 8 13c118.667 -1.33301 211 4 277 16c-7.33301 53.333 -33 105.333 -77 156s-105 103.334 -183 158.001l4 136c64 36 125 66.833 183 92.5s117 48.167 177 67.5l20 -149l-105 -43l-125 -51c12.667 -6.66699 24.667 -14.667 36 -24
c109.333 -90 172.333 -196.667 189 -320c1.33301 -13.333 3 -22.333 5 -27s5.83301 -7.83398 11.5 -9.50098s15.834 -2.5 30.501 -2.5h71c2.66699 0 5 -4.33301 7 -13z" />
    <glyph glyph-name="uniFEDE" unicode="&#x644;" horiz-adv-x="826" arabic-form="final" 
d="M833 171c2 -8.66699 3 -19.001 3 -31.001v-96c0 -12 -1 -22.333 -3 -31s-4.33301 -13 -7 -13h-36c-48 0 -84.333 14.667 -109 44l3 -102c0 -42 -18.833 -76.667 -56.5 -104s-82 -47.166 -133 -59.499s-97.5 -18.5 -139.5 -18.5c-100 0 -169.833 18.5 -209.5 55.5
s-59.5 91.833 -59.5 164.5c0 37.333 17.333 150 52 338l112 -24c-10 -55.333 -19 -110.333 -27 -165s-12.333 -94.667 -13 -120c0 -24.667 15.167 -41.667 45.5 -51s63.5 -14 99.5 -14c68.667 0 139 10.333 211 31l-48 777l140 26l17 -557c2 -16 9.5 -26.167 22.5 -30.5
s32.5 -6.5 58.5 -6.5h70c2.66699 0 5 -4.33301 7 -13z" />
    <glyph glyph-name="uniFEDF" unicode="&#x644;" horiz-adv-x="382" arabic-form="initial" 
d="M287 611c5.33301 -188.667 8.33301 -330.333 9 -425c0 -59.333 -22.667 -104.333 -68 -135c-49.333 -34 -125.333 -51 -228 -51c-2.66699 -0 -5.16699 4.33301 -7.5 13s-3.5 19 -3.5 31v96c0 12 1 22.333 3 31s4.66699 13 8 13c69.333 0 126.666 5.33301 171.999 16
l-29 552l139 26c0.666992 -34 2.33398 -89.667 5.00098 -167z" />
    <glyph glyph-name="uniFEE0" unicode="&#x644;" horiz-adv-x="476" arabic-form="medial" 
d="M483 171c2 -8.66699 3 -18.998 3 -30.998v-96c0 -12 -1 -22.333 -3 -31s-4.33301 -13 -7 -13c-62 0 -111.167 5.66699 -147.5 17s-62.166 29.666 -77.499 54.999c-18.667 -26.667 -48.5 -45.334 -89.5 -56.001s-94.833 -16 -161.5 -16
c-2.66699 -0 -5.16699 4.33301 -7.5 13s-3.5 19 -3.5 31v96c0 12 1 22.333 3 31s4.66699 13 8 13c97.333 0 163.666 6 198.999 18l-20 550l140 26l1 -515c0 -50 22.333 -76.333 67 -79h89c2.66699 0 5 -4.33301 7 -13z" />
    <glyph glyph-name="uniFEE2" unicode="&#x645;" horiz-adv-x="656" arabic-form="final" 
d="M663 171c2 -8.66699 3.00293 -19.001 3.00293 -31.001v-96c0 -12 -1 -22.333 -3 -31s-4.33301 -13 -7 -13c-31.333 0 -61.666 5.83301 -90.999 17.5s-52 30.5 -68 56.5l-4 -27c-2 -12 -6 -22.5 -12 -31.5s-17.333 -19.833 -34 -32.5c-25.333 -20 -45.333 -30 -60 -30
c-4.66699 0 -12.334 2 -23.001 6l-167 74c0.666992 -41.333 3.66699 -85.666 9 -132.999s13 -106 23 -176l-136 -42c-18 142 -27 247.667 -27 317s8 122.333 24 159c34.667 78.667 73.167 141 115.5 187s87.166 69 134.499 69c36.667 0 69.167 -13.333 97.5 -40
s48.5 -57.667 60.5 -93c8.66699 -23.333 17.667 -41.5 27 -54.5s24.166 -23.333 44.499 -31s49.166 -11.5 86.499 -11.5c2.66699 0 5 -4.33301 7 -13zM401.003 162.999c0 29.333 -6.33301 53.334 -19 72.001s-32 28 -58 28c-30 0 -62.667 -28.333 -98 -85l166 -79
c6 21.333 9 42.666 9 63.999z" />
    <glyph glyph-name="uniFEE3" unicode="&#x645;" horiz-adv-x="589" arabic-form="initial" 
d="M413 379.5c28.667 -23 50.666 -53.999 65.999 -92.999s23 -82.167 23 -129.5c0 -36.667 -5 -74.667 -15 -114c-2.66699 -10.667 -7.5 -20.167 -14.5 -28.5s-19.833 -19.833 -38.5 -34.5c-24 -18.667 -43 -28 -57 -28c-4.66699 0 -12.334 2 -23.001 6l-191 82
c-14.667 -14 -33.667 -24.167 -57 -30.5s-54.666 -9.5 -93.999 -9.5h-12c-2.66699 0 -5.16699 4.33301 -7.5 13s-3.5 19 -3.5 31v96c0 12 1 22.333 3 31s4.66699 13 8 13h35c23.333 0 40.5 1.5 51.5 4.5s19.333 8.16699 25 15.5s12.5 19.666 20.5 36.999
c25.333 60 52.333 103.833 81 131.5s62.334 41.5 101.001 41.5c37.333 0 70.333 -11.5 99 -34.5zM387.999 152.001c0 30.667 -7.16699 56.5 -21.5 77.5s-35.5 31.5 -63.5 31.5s-53 -29.333 -75 -88l154 -68c4 15.333 6 31 6 47z" />
    <glyph glyph-name="uniFEE4" unicode="&#x645;" horiz-adv-x="640" arabic-form="medial" 
d="M647 171c2 -8.66699 3.00098 -18.999 3.00098 -30.999v-96c0 -12 -1 -22.333 -3 -31s-4.33301 -13 -7 -13c-31.333 0 -61.833 5.83301 -91.5 17.5s-52.5 30.5 -68.5 56.5l-3 -27c-1.33301 -12 -5.66602 -23.167 -12.999 -33.5s-20.666 -22.5 -39.999 -36.5
c-21.333 -16 -39.333 -24 -54 -24c-6.66699 0 -14 1.66699 -22 5l-184 82c-14 -14 -31.333 -24.167 -52 -30.5s-47.334 -9.5 -80.001 -9.5h-32c-2.66699 0 -5.16699 4.33301 -7.5 13s-3.5 19 -3.5 31v96c0 12 1 22.333 3 31s4.66699 13 8 13h35c23.333 0 40.5 1.5 51.5 4.5
s19.333 8.16699 25 15.5s12.5 19.666 20.5 36.999c25.333 60 52.333 103.833 81 131.5s62.334 41.5 101.001 41.5c40 0 74.667 -13 104 -39s50.666 -56.667 63.999 -92c8.66699 -24 17.667 -42.667 27 -56s24.166 -23.833 44.499 -31.5s49.166 -11.5 86.499 -11.5
c2.66699 0 5 -4.33301 7 -13zM388.001 152.001c0 30.667 -7.16699 56.5 -21.5 77.5s-35.5 31.5 -63.5 31.5s-53 -29.333 -75 -88l154 -68c4 15.333 6 31 6 47z" />
    <glyph glyph-name="uniFEE6" unicode="&#x646;" horiz-adv-x="822" arabic-form="final" 
d="M387 388l-126 105l105 124l125 -105zM829 171c2 -8.66699 3.00098 -19.002 3.00098 -31.002v-96c0 -12 -1 -22.333 -3 -31s-4.33301 -13 -7 -13h-12c-30.667 0 -57.167 5 -79.5 15s-39.5 27.667 -51.5 53c3.33301 -52 5 -94 5 -126c0 -42 -18.667 -76.667 -56 -104
s-81.666 -47.166 -132.999 -59.499s-98 -18.5 -140 -18.5c-95.333 0 -164 18.833 -206 56.5s-63 92.167 -63 163.5c0 37.333 17.333 150 52 338l112 -24c-10 -55.333 -19 -110.333 -27 -165s-12.333 -94.667 -13 -120c0 -24.667 15.333 -41.667 46 -51s64 -14 100 -14
c85.333 0 152.666 11 201.999 33l-44 370l138 32l13 -118c2.66699 -25.333 8.66699 -43.166 18 -53.499s22.666 -16.833 39.999 -19.5s46.333 -4 87 -4h12c2.66699 0 5 -4.33301 7 -13z" />
    <glyph glyph-name="uniFEE7" unicode="&#x646;" horiz-adv-x="381" arabic-form="initial" 
d="M182 566l-126 105l105 125l125 -105zM292 320c2 -34.667 3.00098 -79.333 3.00098 -134c0 -59.333 -23 -104.333 -69 -135c-48 -34 -123.333 -51 -226 -51c-2.66699 -0 -5.16699 4.33301 -7.5 13s-3.5 19 -3.5 31v96c0 12 1 22.333 3 31s4.66699 13 8 13
c46.667 0 82.667 1.66699 108 5s45.666 8.33301 60.999 15l-27 215l140 25c4.66699 -48 8 -89.333 10 -124z" />
    <glyph glyph-name="uniFEE8" unicode="&#x646;" horiz-adv-x="434" arabic-form="medial" 
d="M195 494l-125 105l105 125l124 -105zM441 171c2 -8.66699 3.00098 -19.002 3.00098 -31.002v-96c0 -12 -1 -22.333 -3 -31s-4.33301 -13 -7 -13c-67.333 0 -116.333 5.33301 -147 16s-51.334 29.334 -62.001 56.001c-10 -18.667 -23.333 -33.167 -40 -43.5
s-39.5 -17.666 -68.5 -21.999s-67.833 -6.5 -116.5 -6.5c-2.66699 -0 -5.16699 4.33301 -7.5 13s-3.5 19 -3.5 31v96c0 12 1 22.333 3 31s4.66699 13 8 13c44 0 78.167 1.16699 102.5 3.5s44.5 7.83301 60.5 16.5l-24 180l140 15l10 -204c10.667 -4.66699 26 -7.66699 46 -9
s53 -2 99 -2c2.66699 0 5 -4.33301 7 -13z" />
    <glyph glyph-name="uniFEEA" unicode="&#x647;" horiz-adv-x="573" arabic-form="final" 
d="M580 171c2 -8.66699 2.99902 -18.999 2.99902 -30.999v-96c0 -12 -1 -22.333 -3 -31s-4.33301 -13 -7 -13h-71c-29.333 0 -55.166 8.66699 -77.499 26s-37.833 39.666 -46.5 66.999l-7 -16c-5.33301 -10.667 -11.5 -19 -18.5 -25s-15.833 -10 -26.5 -12
c-26.667 -5.33301 -60 -8 -100 -8c-92.667 0 -139 42 -139 126c0 50 6.16699 91 18.5 123s33.5 60.5 63.5 85.5s74 51.5 132 79.5l-8 78l131 39l29 -283c2.66699 -25.333 5.5 -44 8.5 -56s9.33301 -21.667 19 -29s24.5 -11 44.5 -11h48c2.66699 0 5 -4.33301 7 -13z
M339.999 217.001l-13.001 97c-43.333 -18.667 -74.166 -37.167 -92.499 -55.5s-29.833 -37.5 -34.5 -57.5c20 -2 32.333 -3 37 -3c30.667 0 65 6.33301 103 19z" />
    <glyph glyph-name="uniFEEB" unicode="&#x647;" horiz-adv-x="703" arabic-form="initial" 
d="M617 212c0 -38 -9 -83 -27 -135c-4 -10 -10.333 -19.833 -19 -29.5s-20.667 -20.5 -36 -32.5c-20 -16 -37.333 -24 -52 -24c-6.66699 0 -14 1.66699 -22 5l-147 56c-14 -16.667 -47.167 -29.5 -99.5 -38.5s-123.833 -13.5 -214.5 -13.5
c-2.66699 -0 -5.16699 4.33301 -7.5 13s-3.5 19 -3.5 31v96c0 12 1 22.333 3 31s4.66699 13 8 13h47c36 0 61.333 -0.666992 76 -2c-13.333 8.66699 -24 20.667 -32 36s-12 31.333 -12 48c0 38 19.667 83 59 135l-40 20l64 141l308 -139c98 -44.667 147 -115 147 -211z
M325 317l-80 37c-20 -20 -33.333 -35.333 -40 -46s-10 -20.334 -10 -29.001c0 -12 9.66699 -23.667 29 -35s41 -17.666 65 -18.999zM500 171c2.66699 9.33301 3.99902 17.332 3.99902 23.999c0 16.667 -7.5 32.334 -22.5 47.001s-36.833 27.334 -65.5 38.001l-38 -92
l111 -42c4.66699 7.33301 8.33398 15.666 11.001 24.999z" />
    <glyph glyph-name="uniFEEC" unicode="&#x647;" horiz-adv-x="541" arabic-form="medial" 
d="M548 171c2 -8.66699 2.99902 -19 2.99902 -31v-96c0 -12 -1 -22.333 -3 -31s-4.33301 -13 -7 -13c-66 -0 -109.333 1.33301 -130 4c12 -19.333 18 -39 18 -59v-69c0 -12 -3 -23.167 -9 -33.5s-16.667 -21.833 -32 -34.5c-20 -16 -35.667 -27.333 -47 -34
s-22.333 -9.66699 -33 -9c-73.333 4 -130.5 25.5 -171.5 64.5s-66.167 95.833 -75.5 170.5h-61c-2.66699 -0 -5.16699 4.33301 -7.5 13s-3.5 19 -3.5 31v96c0 12 1 22.333 3 31s4.66699 13 8 13h70c10.667 48 27.167 92.5 49.5 133.5s48.333 74 78 99
s60.834 37.5 93.501 37.5h93l7 -270h150c2.66699 0 5 -4.33301 7 -13zM209.499 260.5c-16.333 -31.667 -28.166 -65.833 -35.499 -102.5h46c19.333 0 36.666 -1.66699 51.999 -5l-4 175c-22.667 -13.333 -42.167 -35.833 -58.5 -67.5zM309.999 -57.999
c0 30 -7.00195 51.332 -21.002 63.999s-38 19 -72 19h-52c6.66699 -40.667 22.334 -70.667 47.001 -90s57.334 -27.666 98.001 -24.999v32z" />
    <glyph glyph-name="uniFEEE" unicode="&#x648;" horiz-adv-x="513" arabic-form="final" 
d="M520 171c2 -8.66699 3.00195 -18.998 3.00195 -30.998v-96c0 -12 -1 -22.333 -3 -31s-4.33301 -13 -7 -13h-78c-36.667 -131.333 -139.667 -233 -309 -305l-93 142c60.667 21.333 114.667 47.166 162 77.499s83.666 61.166 108.999 92.499
c-23.333 -5.33301 -48 -8 -74 -8c-35.333 0 -64.666 4 -87.999 12c-9.33301 2.66699 -17.5 7.5 -24.5 14.5s-16.5 19.833 -28.5 38.5c-10.667 16 -17.834 29.167 -21.501 39.5s-5.5 20.833 -5.5 31.5c3.33301 84 21.166 153.333 53.499 208s80.5 82 144.5 82
c50.667 0 92.667 -22.333 126 -67s54 -102.667 62 -174h65c2.66699 0 5 -4.33301 7 -13zM260.002 150.002c30.667 0 54.333 1.33301 71 4c0 37.333 -7.5 66 -22.5 86s-34.5 30 -58.5 30c-20.667 0 -37 -9.66699 -49 -29s-19.333 -48.333 -22 -87
c18.667 -2.66699 45.667 -4 81 -4z" />
    <glyph glyph-name="uniFEF0" unicode="&#x649;" horiz-adv-x="768" arabic-form="final" 
d="M775 171c2 -8.66699 3.00098 -19.002 3.00098 -31.002v-96c0 -12 -1 -22.333 -3 -31s-4.33301 -13 -7 -13h-39c0.666992 -3.33301 1 -8.66602 1 -15.999c0 -51.333 -15.167 -96.333 -45.5 -135s-73.666 -68.667 -129.999 -90s-122.833 -32 -199.5 -32
c-100 0 -169.833 18.333 -209.5 55s-59.5 91.334 -59.5 164.001c0 38.667 17.333 151.334 52 338.001l112 -24c-10 -54.667 -19 -109.334 -27 -164.001s-12.333 -95 -13 -121c0 -25.333 16.167 -42.333 48.5 -51s71.833 -13 118.5 -13c53.333 0 98.666 4 135.999 12
s68.666 21 93.999 39c0 16.667 -12 27.167 -36 31.5s-63.333 6.5 -118 6.5l30 184h285c2.66699 0 5 -4.33301 7 -13z" />
    <glyph glyph-name="uniFEF2" unicode="&#x64a;" horiz-adv-x="768" arabic-form="final" 
d="M775 171c2 -8.66699 3.00098 -19.002 3.00098 -31.002v-96c0 -12 -1 -22.333 -3 -31s-4.33301 -13 -7 -13h-39c0.666992 -3.33301 1 -8.66602 1 -15.999c0 -51.333 -15.167 -96.333 -45.5 -135s-73.666 -68.667 -129.999 -90s-122.833 -32 -199.5 -32
c-100 0 -169.833 18.333 -209.5 55s-59.5 91.334 -59.5 164.001c0 38.667 17.333 151.334 52 338.001l112 -24c-10 -54.667 -19 -109.334 -27 -164.001s-12.333 -95 -13 -121c0 -25.333 16.167 -42.333 48.5 -51s71.833 -13 118.5 -13c53.333 0 98.666 4 135.999 12
s68.666 21 93.999 39c0 16.667 -12 27.167 -36 31.5s-63.333 6.5 -118 6.5l30 184h285c2.66699 0 5 -4.33301 7 -13zM478.001 -349.002l114 -95l-96 -113l-113 95zM392.001 -450.002l-95 -115l-114 95l95 115z" />
    <glyph glyph-name="uniFEF3" unicode="&#x64a;" horiz-adv-x="381" arabic-form="initial" 
d="M-7.5 13c-2.33301 8.66699 -3.49902 19.001 -3.49902 31.001v96c0 12 1 22.333 3 31s4.66699 13 8 13c46.667 0 82.667 1.66699 108 5s45.666 8.33301 60.999 15l-27 215l140 25c4.66699 -48 8 -89.333 10 -124s3 -79.334 3 -134.001c0 -59.333 -23 -104.333 -69 -135
c-48 -34 -123.333 -51 -226 -51c-2.66699 -0 -5.16699 4.33301 -7.5 13zM179.001 -112.999l114 -95l-96 -113l-113 95zM93.001 -213.999l-95 -114l-114 95l95 115z" />
    <glyph glyph-name="uniFEF4" unicode="&#x64a;" horiz-adv-x="434" arabic-form="medial" 
d="M185 28.5c-16.667 -10.333 -39.499 -17.668 -68.499 -22.001s-67.833 -6.5 -116.5 -6.5c-2.66699 0 -5.16699 4.33301 -7.5 13s-3.5 19 -3.5 31v96c0 12 1 22.333 3 31s4.66699 13 8 13c44 0 78.167 1.16699 102.5 3.5s44.5 7.83301 60.5 16.5l-24 180l140 15l10 -204
c10.667 -4.66699 26 -7.66699 46 -9s53 -2 99 -2c2.66699 0 5 -4.33301 7 -13s3 -19 3 -31v-96c0 -12 -1 -22.333 -3 -31s-4.33301 -13 -7 -13c-67.333 0 -116.333 5.33301 -147 16s-51.334 29.334 -62.001 56.001c-10 -18.667 -23.333 -33.167 -40 -43.5zM446.001 -208.002
l-96 -113l-112 95l95 113zM246.001 -214.002l-95 -115l-113 95l95 115z" />
    <glyph glyph-name=".notdef" horiz-adv-x="681" 
d="M558 -293h-431v1362h431v-1362zM229 978v-45h88v-51h-90v-45h227v45h-90v51h90v45h-225zM227 802v-142h227v47h-90v95h-137zM317 707h-45v49h45v-49zM227 624v-45h90v-51h-90v-45h137v96h90v45h-227zM409 542v-90h-182v-46h227v136h-45zM317 376v-77h47v32h45v-64h-137
v109h-45v-154h227v154h-137zM227 140v-154h227v154h-227zM409 31h-137v64h137v-64zM227 -45v-45h96l-96 -64v-45h227v45h-139l95 64h44v45h-227z" />
    <glyph glyph-name="space" unicode=" " horiz-adv-x="151" 
 />
    <glyph glyph-name="exclam" unicode="!" horiz-adv-x="360" 
d="M242 287l-123 -19l-22 485l146 25zM104.5 13.5c-21 20.333 -31.5 45.5 -31.5 75.5c0 29.333 10.333 54.166 31 74.499s46 30.5 76 30.5s54.833 -10.167 74.5 -30.5s29.5 -45.166 29.5 -74.499c0 -30 -10.167 -55.167 -30.5 -75.5s-44.833 -30.5 -73.5 -30.5
c-29.333 0 -54.5 10.167 -75.5 30.5z" />
    <glyph glyph-name="quotedbl" unicode="&#x22;" horiz-adv-x="574" 
d="M119 385l-32 214l-5 142h158l-5 -142l-32 -214h-84zM371 385l-31 214l-5 142h157l-5 -142l-31 -214h-85z" />
    <glyph glyph-name="numbersign" unicode="#" horiz-adv-x="570" 
d="M118 206h-82v105h94l15 120h-87v106h101l22 181h95l-22 -181h114l22 181h95l-21 -181h86v-106h-100l-14 -120h92v-105h-105l-25 -206h-96l25 206h-112l-26 -206h-96zM339 311l15 120h-113l-15 -120h113z" />
    <glyph glyph-name="dollar" unicode="$" horiz-adv-x="580" 
d="M236 -117v110.001c-34.667 4 -69.5 13.333 -104.5 28s-65.167 33.334 -90.5 56.001l72 112c29.333 -22 56.5 -38.167 81.5 -48.5s50.167 -15.5 75.5 -15.5c30.667 0 53 6 67 18s21 31 21 57c0 17.333 -6.33301 32.666 -19 45.999s-31 26.333 -55 39
c-30.667 16 -54.334 28 -71.001 36c-57.333 28.667 -98.333 63 -123 103c-14.667 22.667 -22 50.667 -22 84c0 54 14.833 99 44.5 135s70.834 59.333 123.501 70v115h109v-112c33.333 -5.33301 63.333 -15.666 90 -30.999s51.667 -35.333 75 -60l-84 -95
c-20.667 19.333 -40 33.333 -58 42s-38.333 13 -61 13c-27.333 0 -47.666 -5.5 -60.999 -16.5s-20 -28.5 -20 -52.5c0 -15.333 6.5 -29 19.5 -41s31.833 -24.333 56.5 -37c45.333 -22.667 73.666 -37.334 84.999 -44.001c42.667 -22 75 -47.833 97 -77.5
s33 -64.834 33 -105.501c0 -54 -14.667 -99.833 -44 -137.5s-72 -62.5 -128 -74.5v-116h-109z" />
    <glyph glyph-name="percent" unicode="%" horiz-adv-x="918" 
d="M73 368.5c-30.667 41.667 -46 94.8311 -46 159.498s15.333 117.334 46 158.001s73 61 127 61c54.667 0 97.334 -20.667 128.001 -62s46 -93.666 46 -156.999c0 -64 -15.333 -117 -46 -159s-73.334 -63 -128.001 -63c-54 0 -96.333 20.833 -127 62.5zM218 -13.0029
l388 746h104l-389 -746h-103zM249 432.997c9.33301 25.333 14.001 57 14.001 95c0 87.333 -21 131 -63 131c-22 0 -38 -12.333 -48 -37s-15 -56 -15 -94c0 -39.333 5 -71.333 15 -96s26 -37 48 -37c23.333 0 39.666 12.667 48.999 38zM590.501 49.4971
c-30.333 41.667 -45.5 94.834 -45.5 159.501s15.333 117.167 46 157.5s72.667 60.5 126 60.5c55.333 0 98.333 -20.5 129 -61.5s46 -93.167 46 -156.5c0 -64.667 -15.333 -117.834 -46 -159.501s-73.667 -62.5 -129 -62.5c-54 0 -96.167 20.833 -126.5 62.5z
M766.501 113.997c9.66699 25.333 14.5 57 14.5 95c0 87.333 -21.333 131 -64 131c-22 0 -38 -12.333 -48 -37s-15 -56 -15 -94c0 -39.333 5 -71.333 15 -96s26 -37 48 -37c23.333 0 39.833 12.667 49.5 38z" />
    <glyph glyph-name="ampersand" unicode="&#x26;" horiz-adv-x="738" 
d="M142.5 12.5c-36.333 17 -64.832 41.168 -85.499 72.501s-31 67.333 -31 108c0 43.333 11.167 81.333 33.5 114s55.166 62.334 98.499 89.001c-30 54.667 -45 104 -45 148c0 36 8.5 68.5 25.5 97.5s40.5 51.667 70.5 68s63.667 24.5 101 24.5
c55.333 0 98.833 -14.833 130.5 -44.5s47.5 -69.834 47.5 -120.501c0 -41.333 -12.333 -76.833 -37 -106.5s-62 -62.167 -112 -97.5c38.667 -44 86 -86.667 142 -128c37.333 47.333 65 104 83 170h151c-26.667 -89.333 -66.667 -169.666 -120 -240.999
c48 -24.667 89.333 -39.334 124 -44.001l-40 -135c-57.333 11.333 -119 35.666 -185 72.999c-67.333 -48.667 -143 -73 -227 -73c-46.667 0 -88.167 8.5 -124.5 25.5zM273.001 460.001c29.333 18 51.5 35.333 66.5 52s22.5 35.667 22.5 57c0 36.667 -16 55 -48 55
c-18.667 0 -34.167 -7.16699 -46.5 -21.5s-18.5 -33.5 -18.5 -57.5c0 -26 8 -54.333 24 -85zM376.001 141.001c-52.667 42 -101.333 90.667 -146 146c-15.333 -13.333 -27 -26.666 -35 -39.999s-12 -28 -12 -44c0 -26.667 9.5 -48.334 28.5 -65.001s44.5 -25 76.5 -25
c28.667 0 58 9.33301 88 28z" />
    <glyph glyph-name="quotesingle" unicode="'" horiz-adv-x="322" 
d="M119 385l-32 214l-5 142h158l-5 -142l-32 -214h-84z" />
    <glyph glyph-name="parenleft" unicode="(" horiz-adv-x="395" 
d="M229 -185c-50 77.333 -87.5 156.669 -112.5 238.002s-37.5 167.666 -37.5 258.999s12.5 177.833 37.5 259.5s62.5 161.167 112.5 238.5l109 -57c-40.667 -67.333 -71 -138.333 -91 -213s-30 -150.667 -30 -228s10 -153.333 30 -228s50.333 -145.334 91 -212.001z" />
    <glyph glyph-name="parenright" unicode=")" horiz-adv-x="395" 
d="M57 -128c40.667 66 71 136.331 91 210.998s30 151 30 229c0 161.333 -40.333 308.333 -121 441l109 57c50 -77.333 87.5 -156.833 112.5 -238.5s37.5 -168.167 37.5 -259.5s-12.5 -177.666 -37.5 -258.999s-62.5 -160.666 -112.5 -237.999z" />
    <glyph glyph-name="asterisk" unicode="*" horiz-adv-x="511" 
d="M146 382l-37 63l23 102l-86 62l49 55l102 9l41 100l68 -29l41 -96l105 1l-8 -73l-77 -68l29 -105l-71 -15l-89 55z" />
    <glyph glyph-name="plus" unicode="+" horiz-adv-x="581" 
d="M231 100v202h-195v118h195v202h120v-202h195v-118h-195v-202h-120z" />
    <glyph glyph-name="comma" unicode="," horiz-adv-x="330" 
d="M49 -119c41.333 14 72.834 32.666 94.501 55.999s32.167 49.333 31.5 78h-9c-28 0 -51.667 8.33301 -71 25s-29 39.334 -29 68.001c0 28 9.83301 50.833 29.5 68.5s44.167 26.5 73.5 26.5c37.333 0 65.666 -13.5 84.999 -40.5s29 -65.5 29 -115.5
c0 -62.667 -17.167 -116 -51.5 -160s-83.833 -75.667 -148.5 -95z" />
    <glyph glyph-name="hyphen" unicode="-" horiz-adv-x="364" 
d="M46 213v117h272v-117h-272z" />
    <glyph glyph-name="period" unicode="." horiz-adv-x="395" 
d="M122.5 13.5c-21.667 21 -32.498 47.167 -32.498 78.5s10.667 57.666 32 78.999s47.666 32 78.999 32s57.333 -10.667 78 -32s31 -47.666 31 -78.999s-10.667 -57.5 -32 -78.5s-47 -31.5 -77 -31.5c-30.667 0 -56.834 10.5 -78.501 31.5z" />
    <glyph glyph-name="slash" unicode="/" horiz-adv-x="371" 
d="M14 -170l218 961h109l-219 -961h-108z" />
    <glyph glyph-name="zero" unicode="0" horiz-adv-x="590" 
d="M153.5 34.5c-38.333 31.667 -67 75.167 -86 130.5s-28.5 118.333 -28.5 189c0 108.667 21.5 196 64.5 262s106.833 99 191.5 99s148.5 -33 191.5 -99s64.5 -153.333 64.5 -262c0 -110 -21.667 -198.667 -65 -266s-107 -101 -191 -101c-56 0 -103.167 15.833 -141.5 47.5z
M366 179.5c13.333 43 20 101.167 20 174.5c0 74.667 -6.5 132.167 -19.5 172.5s-36.833 60.5 -71.5 60.5s-58.5 -20.667 -71.5 -62s-19.5 -98.333 -19.5 -171s6.66699 -130.667 20 -174s37 -65 71 -65s57.667 21.5 71 64.5z" />
    <glyph glyph-name="one" unicode="1" horiz-adv-x="588" 
d="M75 134h152v400h-132v102c37.333 6.66699 69.5 15.167 96.5 25.5s53.833 23.5 80.5 39.5h128v-567h131v-134h-456v134z" />
    <glyph glyph-name="two" unicode="2" horiz-adv-x="589" 
d="M39 94c53.333 49.333 97.001 91.167 131.001 125.5s63.333 65.833 88 94.5c27.333 32 48.166 61.667 62.499 89s21.5 53.333 21.5 78c0 34 -8.16699 59.833 -24.5 77.5s-39.5 26.5 -69.5 26.5c-22.667 0 -43.334 -6.16699 -62.001 -18.5s-39 -30.833 -61 -55.5l-93 92
c36 38.667 72.5 66.834 109.5 84.501s80.167 26.5 129.5 26.5c47.333 0 88.833 -9.33301 124.5 -28s63.334 -44.834 83.001 -78.501s29.5 -72.5 29.5 -116.5c0 -54 -23 -114.333 -69 -181c-36.667 -52 -88 -111.667 -154 -179c43.333 6 81.333 9 114 9h143v-140h-503v94z
" />
    <glyph glyph-name="three" unicode="3" horiz-adv-x="592" 
d="M102 195c50.667 -49.333 101.668 -74 153.001 -74c34 0 60.667 7 80 21s29 34.333 29 61c0 38.667 -15.167 64.667 -45.5 78s-77.5 20 -141.5 20v116c52.667 0 93.167 6.83301 121.5 20.5s42.5 37.834 42.5 72.501c0 24.667 -6.83301 43.5 -20.5 56.5
s-33.834 19.5 -60.501 19.5c-22.667 0 -43.834 -5.16699 -63.501 -15.5s-42.167 -26.833 -67.5 -49.5l-86 104c34.667 29.333 70.334 51.666 107.001 66.999s76 23 118 23c75.333 0 135.333 -16.833 180 -50.5s67 -81.167 67 -142.5c0 -36 -10 -66.667 -30 -92
s-50 -46.333 -90 -63v-5c44 -12.667 78.667 -33.5 104 -62.5s38 -64.833 38 -107.5c0 -42 -12 -78.5 -36 -109.5s-56.333 -54.667 -97 -71s-85 -24.5 -133 -24.5c-108 0 -190.333 33.333 -247 100z" />
    <glyph glyph-name="four" unicode="4" horiz-adv-x="591" 
d="M566 292v-126h-81v-166h-161v166h-303v113l254 422h210v-409h81zM324 402c0 20.667 0.333008 40.668 1 60.001s1.33398 36.666 2.00098 51.999c1.33301 16 2 28.333 2 37c-10.667 -24 -28.334 -60.667 -53.001 -110l-90 -149h138v110z" />
    <glyph glyph-name="five" unicode="5" horiz-adv-x="589" 
d="M25 86l76.002 107.999c26 -23.333 50.833 -41.333 74.5 -54s49.167 -19 76.5 -19c35.333 0 63 9.16699 83 27.5s30 44.833 30 79.5c0 34 -9.5 60.167 -28.5 78.5s-44.5 27.5 -76.5 27.5c-19.333 0 -36 -2.66699 -50 -8s-31.667 -14.666 -53 -27.999l-78 50l19 354h408
v-140h-257l-11 -127c22 10 46 15 72 15c69.333 0 124.666 -19.333 165.999 -58s62 -91.667 62 -159c0 -48 -11.5 -90.667 -34.5 -128s-54.5 -66.333 -94.5 -87s-84.333 -31 -133 -31c-102.667 0 -186.334 33 -251.001 99z" />
    <glyph glyph-name="six" unicode="6" horiz-adv-x="590" 
d="M77 530.5c22.667 57.667 55.834 102.833 99.501 135.5s95.5 49 155.5 49c44.667 0 84.5 -7.83301 119.5 -23.5s64.833 -35.834 89.5 -60.501l-90 -103c-13.333 16 -29.666 28.833 -48.999 38.5s-39 14.5 -59 14.5c-45.333 0 -79 -18.667 -101 -56
s-34.667 -88.333 -38 -153c16 19.333 36.667 35.333 62 48s49.666 19 72.999 19c67.333 0 119.666 -18.833 156.999 -56.5s56 -90.834 56 -159.501c0 -46 -10.333 -86.833 -31 -122.5s-49.167 -63.5 -85.5 -83.5s-77.166 -30 -122.499 -30
c-56.667 0 -105.334 14.833 -146.001 44.5s-71.5 70.834 -92.5 123.501s-31.5 112.667 -31.5 180c0 72.667 11.333 137.834 34 195.501zM240.5 149.499c17 -26.333 40.166 -39.5 69.499 -39.5c24.667 0 44.834 9.5 60.501 28.5s23.5 46.833 23.5 83.5
c0 67.333 -29 101 -87 101c-18.667 0 -36.667 -5.5 -54 -16.5s-33 -28.167 -47 -51.5c6 -44 17.5 -79.167 34.5 -105.5z" />
    <glyph glyph-name="seven" unicode="7" horiz-adv-x="589" 
d="M224.5 302.5c28.333 85.667 73.833 172.167 136.5 259.5h-314v139h498v-100c-52.667 -62.667 -92.5 -122.167 -119.5 -178.5s-45.833 -116 -56.5 -179s-17.667 -144.167 -21 -243.5h-175c6 116 23.167 216.833 51.5 302.5z" />
    <glyph glyph-name="eight" unicode="8" horiz-adv-x="592" 
d="M167 11c-38 16 -67.832 38.666 -89.499 67.999s-32.5 63 -32.5 101c0 38.667 10.5 71.667 31.5 99s50.833 51.333 89.5 72v5c-32 23.333 -56 48 -72 74s-24 56.333 -24 91c0 39.333 9.83301 73.666 29.5 102.999s46.834 51.833 81.501 67.5s74 23.5 118 23.5
c43.333 0 81.5 -8 114.5 -24s58.5 -38.5 76.5 -67.5s27 -62.5 27 -100.5c0 -31.333 -8.5 -60.166 -25.5 -86.499s-39.833 -48.5 -68.5 -66.5v-5c39.333 -21.333 69.833 -46.5 91.5 -75.5s32.5 -64.833 32.5 -107.5c0 -39.333 -11.333 -73.666 -34 -102.999
s-53.334 -52 -92.001 -68s-81.334 -24 -128.001 -24c-46 0 -88 8 -126 24zM375.001 510.999c0 27.333 -7.16699 49.167 -21.5 65.5s-33.5 24.5 -57.5 24.5c-21.333 0 -38.833 -7 -52.5 -21s-20.5 -33.667 -20.5 -59c0 -26 9.16699 -47 27.5 -63s46.5 -31.333 84.5 -46
c26.667 32 40 65 40 99zM361.001 124c16 14.667 24.001 36 24.001 64c0 19.333 -5.5 35.5 -16.5 48.5s-25.333 24 -43 33s-44.834 21.167 -81.501 36.5c-15.333 -15.333 -27.5 -32.166 -36.5 -50.499s-13.5 -37.5 -13.5 -57.5c0 -28.667 9.83301 -51.834 29.5 -69.501
s44.167 -26.5 73.5 -26.5c26.667 0 48 7.33301 64 22z" />
    <glyph glyph-name="nine" unicode="9" horiz-adv-x="590" 
d="M67 600.5c20.667 35.667 49.166 63.666 85.499 83.999s77.166 30.5 122.499 30.5c56.667 0 105.334 -14.833 146.001 -44.5s71.5 -70.667 92.5 -123s31.5 -112.5 31.5 -180.5c0 -73.333 -11.333 -138.666 -34 -195.999s-55.667 -102.333 -99 -135s-95 -49 -155 -49
c-44 0 -83.833 8 -119.5 24s-65.834 36.333 -90.501 61l91 102c12.667 -15.333 29 -28 49 -38s39.667 -15 59 -15c45.333 0 79 18.5 101 55.5s34.333 87.833 37 152.5c-16 -18.667 -36.667 -34.334 -62 -47.001s-49.666 -19 -72.999 -19
c-67.333 0 -119.666 19.333 -156.999 58s-56 91.334 -56 158.001c0 45.333 10.333 85.833 31 121.5zM217.999 403.499c15.333 -16.333 36.668 -24.5 64.001 -24.5c18 0 35.667 5.66699 53 17s32.666 28.333 45.999 51c-6 49.333 -18.333 85.666 -37 108.999s-41 35 -67 35
c-24 0 -43.667 -9.66699 -59 -29s-23 -46.666 -23 -81.999c0 -34.667 7.66699 -60.167 23 -76.5z" />
    <glyph glyph-name="colon" unicode=":" horiz-adv-x="400" 
d="M120 318.5c-21.333 20.333 -32 45.832 -32 76.499s10.5 56.334 31.5 77.001s46.833 31 77.5 31c30 0 55.333 -10.5 76 -31.5s31 -46.5 31 -76.5s-10.333 -55.333 -31 -76s-46 -31 -76 -31s-55.667 10.167 -77 30.5zM120 13.999c-21.333 20.667 -32 46.334 -32 77.001
c0 30 10.5 55.333 31.5 76s46.833 31 77.5 31c30 0 55.333 -10.333 76 -31s31 -46 31 -76c0 -30.667 -10.333 -56.334 -31 -77.001s-46 -31 -76 -31s-55.667 10.333 -77 31z" />
    <glyph glyph-name="semicolon" unicode=";" horiz-adv-x="358" 
d="M94.5 375.5c-21.667 21 -32.498 47.167 -32.498 78.5s10.667 57.5 32 78.5s47.666 31.5 78.999 31.5s57.333 -10.667 78 -32s31 -47.333 31 -78s-10.667 -56.667 -32 -78s-47 -32 -77 -32c-30.667 0 -56.834 10.5 -78.501 31.5zM49.002 -120
c41.333 14.667 72.833 33.667 94.5 57s32.167 49 31.5 77h-9c-27.333 0 -50.833 8.5 -70.5 25.5s-29.5 39.833 -29.5 68.5c0 28 10 50.833 30 68.5s44.667 26.5 74 26.5c37.333 0 65.5 -13.5 84.5 -40.5s28.5 -65.5 28.5 -115.5c0 -62.667 -17.167 -116 -51.5 -160
s-83.833 -75.667 -148.5 -95z" />
    <glyph glyph-name="less" unicode="&#x3c;" horiz-adv-x="581" 
d="M546 109l-510 196v115l510 196v-136l-193 -64l-149 -51v-5l149 -51l193 -63v-137z" />
    <glyph glyph-name="equal" unicode="=" horiz-adv-x="581" 
d="M36 419v117h510v-117h-510zM36 173v116h510v-116h-510z" />
    <glyph glyph-name="greater" unicode="&#x3e;" horiz-adv-x="581" 
d="M36 109v137l193 63l149 51v5l-149 51l-193 64v136l510 -196v-115z" />
    <glyph glyph-name="question" unicode="?" horiz-adv-x="510" 
d="M168 257c-1.33301 12 -2 20.667 -2 26c0 26 5.83301 51.667 17.5 77s27.167 49 46.5 71l16 18c22 24.667 37.5 44.167 46.5 58.5s13.5 29.166 13.5 44.499c0 21.333 -6.5 38 -19.5 50s-30.5 18 -52.5 18c-18.667 0 -35.667 -4.33301 -51 -13s-31.333 -21.334 -48 -38.001
l-92 84c27.333 32 58.833 56.833 94.5 74.5s74.5 26.5 116.5 26.5c66 0 117.833 -16.167 155.5 -48.5s56.5 -79.5 56.5 -141.5c0 -29.333 -6.5 -55.166 -19.5 -77.499s-33.5 -47.833 -61.5 -76.5c-24 -25.333 -42 -48.666 -54 -69.999s-18 -44 -18 -68
c0 -6.66699 0.333008 -11.667 1 -15h-146zM169 16.5c-18.667 19.667 -28 44.167 -28 73.5c0 30 9.33301 55 28 75s42.334 30 71.001 30s52.5 -10 71.5 -30s28.5 -45 28.5 -75c0 -29.333 -9.5 -53.833 -28.5 -73.5s-42.833 -29.5 -71.5 -29.5s-52.334 9.83301 -71.001 29.5z
" />
    <glyph glyph-name="at" unicode="@" horiz-adv-x="996" 
d="M312 -158c-50 17.333 -94.332 43.332 -132.999 77.999c-40 36 -71.167 80.167 -93.5 132.5s-33.5 112.833 -33.5 181.5c0 75.333 13.167 144.666 39.5 207.999s62.833 118.333 109.5 165c45.333 45.333 98.166 80.166 158.499 104.499s124.5 36.5 192.5 36.5
c59.333 0 113.166 -9.5 161.499 -28.5s89.833 -46.167 124.5 -81.5c34 -36 60.167 -78.167 78.5 -126.5s27.5 -101.166 27.5 -158.499c0 -94.667 -27.667 -170.667 -83 -228c-23.333 -24.667 -50 -43.5 -80 -56.5s-60 -19.5 -90 -19.5c-32 0 -59.667 7.33301 -83 22
s-38.333 35.334 -45 62.001h-2c-14.667 -21.333 -34.667 -38.833 -60 -52.5s-49.333 -20.5 -72 -20.5c-44.667 0 -80.167 15 -106.5 45s-39.5 70.333 -39.5 121c0 34 5.5 67.333 16.5 100s26.5 61.667 46.5 87c20.667 26 44.834 46.5 72.501 61.5s56.834 22.5 87.501 22.5
c38 0 66 -18.333 84 -55h2l16 47h102l-51 -245c-3.33301 -12.667 -5 -25.667 -5 -39c0 -36 18.333 -54 55 -54c16 0 32 4.66699 48 14s30.333 22.666 43 39.999c26.667 36 40 84 40 144c0 40.667 -5.66699 78.834 -17 114.501s-28.666 67.167 -51.999 94.5
c-52.667 59.333 -130.334 89 -233.001 89c-46.667 0 -92.5 -9.66699 -137.5 -29s-85.167 -46.666 -120.5 -81.999c-36 -37.333 -64.333 -81.333 -85 -132s-31 -105.667 -31 -165c0 -104.667 32.333 -185.667 97 -243c29.333 -26 63.166 -45.833 101.499 -59.5
s79.5 -20.5 123.5 -20.5c26.667 0 55 4 85 12s57.333 18.333 82 31l36 -90c-66.667 -35.333 -139 -53 -217 -53c-56.667 0 -110 8.66699 -160 26zM498.501 174.499c11 7.66699 23.167 20.5 36.5 38.5l27 148c-11.333 20.667 -28 31 -50 31c-30.667 0 -56 -18 -76 -54
c-9.33301 -14.667 -16.5 -31.167 -21.5 -49.5s-7.5 -35.833 -7.5 -52.5c0 -48.667 19 -73 57 -73c12 0 23.5 3.83301 34.5 11.5z" />
    <glyph glyph-name="A" unicode="A" horiz-adv-x="665" 
d="M218 719h207l224 -719h-183l-43 169h-209l-44 -169h-176zM391 299l-16 64l-18 67l-10 40l-12 48c-9.33301 38 -14.333 58.667 -15 62h-5l-24 -110l-29 -107l-17 -64h146z" />
    <glyph glyph-name="B" unicode="B" horiz-adv-x="672" 
d="M82 719l251.001 -0.000976562c86 0 152.5 -13.833 199.5 -41.5s70.5 -73.167 70.5 -136.5c0 -34 -9 -66.167 -27 -96.5s-40.333 -50.166 -67 -59.499v-5c41.333 -10.667 73.166 -30.667 95.499 -60s33.5 -65.333 33.5 -108c0 -69.333 -26 -122 -78 -158
s-120.333 -54 -205 -54h-273v719zM326.001 431.999c36 0 62.833 7.33203 80.5 21.999s26.5 35.334 26.5 62.001c0 27.333 -8.5 46.833 -25.5 58.5s-43.833 17.5 -80.5 17.5h-72v-160h71zM341.001 127.998c42.667 0 74.5 7.83203 95.5 23.499s31.5 39.5 31.5 71.5
c0 30.667 -10.167 52.834 -30.5 66.501s-52.5 20.5 -96.5 20.5h-86v-182h86z" />
    <glyph glyph-name="C" unicode="C" horiz-adv-x="648" 
d="M210 33.5c-51.333 31 -91 74.501 -119 130.501s-42 120 -42 192s14.5 136.667 43.5 194s69.833 102.166 122.5 134.499s112.334 48.5 179.001 48.5c44.667 0 85.667 -8.83301 123 -26.5s69.666 -40.167 96.999 -67.5l-90 -108c-22 20 -42.667 35 -62 45
s-40.666 15 -63.999 15c-34.667 0 -65 -10.333 -91 -31s-45.833 -48.5 -59.5 -83.5s-20.5 -73.5 -20.5 -115.5c0 -72 15.167 -128.5 45.5 -169.5s71.166 -61.5 122.499 -61.5c27.333 0 52.333 6 75 18s44.334 29.333 65.001 52l90 -107
c-62.667 -70.667 -141.334 -106 -236.001 -106c-68 0 -127.667 15.5 -179 46.5z" />
    <glyph glyph-name="D" unicode="D" horiz-adv-x="705" 
d="M82 0l0.000976562 719.001h208c119.333 0 210.166 -30.333 272.499 -91s93.5 -149 93.5 -265c0 -116.667 -31 -206.334 -93 -269.001s-150 -94 -264 -94h-217zM255.001 134.001h24.999c68.667 0 118.834 19.333 150.501 58s47.5 95.667 47.5 171
c0 76.667 -16 133 -48 169s-82 54 -150 54h-25v-452z" />
    <glyph glyph-name="E" unicode="E" horiz-adv-x="609" 
d="M82 719h460v-139h-287v-140h244v-139h-244v-161h298v-140h-471v719z" />
    <glyph glyph-name="F" unicode="F" horiz-adv-x="584" 
d="M82 719h463v-139h-290v-163h248v-139h-248v-278h-173v719z" />
    <glyph glyph-name="G" unicode="G" horiz-adv-x="709" 
d="M94 551c30 57.333 71.9971 101.999 125.997 133.999s115.667 48 185 48c49.333 0 93.333 -8.83301 132 -26.5s71.334 -40.167 98.001 -67.5l-89 -108c-23.333 20.667 -44.833 35.834 -64.5 45.501s-43.167 14.5 -70.5 14.5c-56.667 0 -101.5 -21.5 -134.5 -64.5
s-49.5 -98.167 -49.5 -165.5c0 -74.667 16.5 -131.834 49.5 -171.501s81.833 -59.5 146.5 -59.5c30.667 0 54.334 6.66699 71.001 20v123h-118v134h272v-331c-25.333 -25.333 -59.666 -46.5 -102.999 -63.5s-89.666 -25.5 -138.999 -25.5
c-72.667 0 -135.834 15.333 -189.501 46s-95 73.834 -124 129.501s-43.5 120.167 -43.5 193.5c0 72.667 15 137.667 45 195z" />
    <glyph glyph-name="H" unicode="H" horiz-adv-x="747" 
d="M82 719h173v-275h237v275h174v-719h-174v299h-237v-299h-173v719z" />
    <glyph glyph-name="I" unicode="I" horiz-adv-x="336" 
d="M82 0v719h173v-719h-173z" />
    <glyph glyph-name="J" unicode="J" horiz-adv-x="566" 
d="M112.5 19c-38.333 21.333 -70.5039 53.999 -96.5039 97.999l118 87c13.333 -24.667 28.333 -43.167 45 -55.5s34.334 -18.5 53.001 -18.5c28.667 0 49.834 9.5 63.501 28.5s20.5 51.167 20.5 96.5v465h174v-479c0 -73.333 -19 -133 -57 -179
c-19.333 -23.333 -44.166 -41.666 -74.499 -54.999s-65.5 -20 -105.5 -20c-55.333 0 -102.166 10.667 -140.499 32z" />
    <glyph glyph-name="K" unicode="K" horiz-adv-x="684" 
d="M692 0h-188l-171 295l-78 -103v-192h-173v719h173v-287l208 287h189l-217 -287z" />
    <glyph glyph-name="L" unicode="L" horiz-adv-x="577" 
d="M82 0v719h173v-579h284v-140h-457z" />
    <glyph glyph-name="M" unicode="M" horiz-adv-x="845" 
d="M764 719l0.000976562 -719.001h-159v257c0 24.667 2.5 62.834 7.5 114.501s9.83301 95.834 14.5 132.501h-2l-154 -441h-99l-153 441h-2c5.33301 -44 10.166 -90.333 14.499 -139s6.5 -84.667 6.5 -108v-257h-156v719h188l115 -316
c3.33301 -8.66699 8.33301 -23.667 15 -45l6 -20l19 -64c8.66699 27.333 15 48.666 19 63.999c7.33301 27.333 14 49 20 65l113 316h187z" />
    <glyph glyph-name="N" unicode="N" horiz-adv-x="737" 
d="M656 719v-718.999h-178l-182 351l-68 149c9.33301 -76 14.833 -126.167 16.5 -150.5s2.5 -57.833 2.5 -100.5v-249h-165v719h177l184 -351l67 -152c-8.66699 72.667 -14 123.167 -16 151.5s-3 63.166 -3 104.499v247h165z" />
    <glyph glyph-name="O" unicode="O" horiz-adv-x="761" 
d="M202.5 34.5c-49.667 31.667 -87.667 75.832 -114 132.499s-39.5 122 -39.5 196c0 74.667 13.167 139.834 39.5 195.501s64.333 98.667 114 129s108.834 45.5 177.501 45.5s128 -15.5 178 -46.5s88.167 -74.333 114.5 -130s39.5 -120.167 39.5 -193.5
c0 -74 -13.333 -139.5 -40 -196.5s-65 -101.167 -115 -132.5s-109 -47 -177 -47c-68.667 0 -127.834 15.833 -177.501 47.5zM492.5 192.998c27.667 42 41.498 98.6689 41.498 170.002s-13.667 127.166 -41 167.499s-65 60.5 -113 60.5
c-47.333 0 -84.666 -20.333 -111.999 -61s-41 -96.334 -41 -167.001c0 -71.333 13.833 -128 41.5 -170s64.834 -63 111.501 -63c47.333 0 84.833 21 112.5 63z" />
    <glyph glyph-name="P" unicode="P" horiz-adv-x="664" 
d="M82 719h253c92.667 0 164.167 -19 214.5 -57s75.5 -96.333 75.5 -175c0 -52 -12.167 -96.333 -36.5 -133s-58 -64.5 -101 -83.5s-92.5 -28.5 -148.5 -28.5h-84v-242h-173v719zM330 374c83.333 0 125 37.667 125 113c0 36 -10.667 61.833 -32 77.5s-54 23.5 -98 23.5h-70
v-214h75z" />
    <glyph glyph-name="Q" unicode="Q" horiz-adv-x="762" 
d="M88.5 565.5c26.333 55.667 64.3281 98.668 113.995 129.001s108.834 45.5 177.501 45.5s128 -15.333 178 -46s88.167 -73.834 114.5 -129.501s39.5 -120.167 39.5 -193.5c0 -94.667 -20 -173.334 -60 -236.001s-96.333 -104.667 -169 -126c31.333 -47.333 83 -71 155 -71
c30.667 0 58.334 5 83.001 15l30 -122c-14 -7.33301 -32.667 -13.333 -56 -18s-48.666 -7 -75.999 -7c-72 0 -136.167 17.833 -192.5 53.5s-98.166 83.834 -125.499 144.501c-81.333 18 -143.666 59.833 -186.999 125.5s-65 146.167 -65 241.5
c0 74 13.167 138.833 39.5 194.5zM292.995 209.501c19.333 -26.333 43.335 -39.5 72.002 -39.5c13.333 0 27.333 3 42 9c32.667 12 58.167 34 76.5 66s27.5 71 27.5 117c0 19.333 -1.33301 37.333 -4 54c-6.66699 46 -19.834 81.5 -39.501 106.5s-44.167 37.5 -73.5 37.5
c-12.667 0 -26.334 -2.66699 -41.001 -8c-32.667 -12.667 -58 -34.667 -76 -66s-27 -69 -27 -113c0 -18 1.33301 -35 4 -51c6.66699 -48.667 19.667 -86.167 39 -112.5z" />
    <glyph glyph-name="R" unicode="R" horiz-adv-x="683" 
d="M82 719h264.999c90.667 0 160.334 -18.333 209.001 -55s73 -93 73 -169c0 -99.333 -42.667 -168.333 -128 -207l163 -288h-193l-136 258h-80v-258h-173v719zM332.999 389c41.333 0 72.666 8.83398 93.999 26.501s32 44.167 32 79.5c0 33.333 -10.167 57.166 -30.5 71.499
s-52.166 21.5 -95.499 21.5h-78v-199h78z" />
    <glyph glyph-name="S" unicode="S" horiz-adv-x="619" 
d="M162 14.5c-47.333 18.333 -89.001 44.167 -125.001 77.5l97 115c28 -24 57.5 -42.833 88.5 -56.5s60.5 -20.5 88.5 -20.5c63.333 0 95 22.333 95 67c0 18 -5.16699 31.833 -15.5 41.5s-28.833 19.834 -55.5 30.501l-125 53c-44.667 17.333 -80 43.166 -106 77.499
s-39 73.833 -39 118.5c0 41.333 11.667 78.333 35 111s55 58.167 95 76.5s83.667 27.5 131 27.5c44 0 86.667 -8.33301 128 -25s77 -40 107 -70l-85 -106c-27.333 20 -52.5 34.833 -75.5 44.5s-47.833 14.5 -74.5 14.5c-27.333 0 -48.333 -5.5 -63 -16.5
s-22 -26.833 -22 -47.5c0 -15.333 5.66699 -28 17 -38s30.333 -20.667 57 -32c6.66699 -2 47.667 -19 123 -51c48 -18.667 84.333 -43.667 109 -75s37 -71.333 37 -120c0 -44.667 -12.333 -84 -37 -118s-58 -60.167 -100 -78.5s-88.667 -27.5 -140 -27.5
c-49.333 0 -97.666 9.16699 -144.999 27.5z" />
    <glyph glyph-name="T" unicode="T" horiz-adv-x="620" 
d="M223 0v580h-196v139h567v-139h-196v-580h-175z" />
    <glyph glyph-name="U" unicode="U" horiz-adv-x="737" 
d="M151.5 72.5c-49 57 -73.499 144.833 -73.499 263.5v384h174v-402c0 -66.667 9.83301 -114.667 29.5 -144s49.5 -44 89.5 -44c40.667 0 71 14.667 91 44s30 77.333 30 144v402h167v-384c0 -119.333 -23.833 -207.333 -71.5 -264s-119.834 -85 -216.501 -85
c-97.333 0 -170.5 28.5 -219.5 85.5z" />
    <glyph glyph-name="V" unicode="V" horiz-adv-x="624" 
d="M632 719l-216 -719h-207l-217 719h184l84 -332l24 -98c18 -68.667 28.667 -111 32 -127l56 225l84 332h176z" />
    <glyph glyph-name="W" unicode="W" horiz-adv-x="906" 
d="M893 719l-126.999 -719.001h-217l-68 322c-10 47.333 -19.333 99.666 -28 156.999c-8 -57.333 -17 -109.666 -27 -156.999l-66 -322h-213l-132 719h177l49 -333c13.333 -98 22.333 -170.667 27 -218c11.333 56.667 24.666 129.334 39.999 218.001l77 333h148l77 -333
c7.33301 -36.667 13.333 -69 18 -97l23 -119c4 34.667 8.66699 73 14 115l13 101l49 333h166z" />
    <glyph glyph-name="X" unicode="X" horiz-adv-x="635" 
d="M623 0l-192.001 -0.000976562l-69 145c-19.333 40.667 -36.666 78.667 -51.999 114c-7.33301 -20 -15.5 -40.5 -24.5 -61.5s-16.833 -38.5 -23.5 -52.5l-65 -145h-185l199 370l-187 349h192l61 -133c16 -33.333 32.667 -70.666 50 -111.999
c4 10.667 7.33301 18.667 10 24c14.667 37.333 26 65.333 34 84l56 137h185l-187 -357z" />
    <glyph glyph-name="Y" unicode="Y" horiz-adv-x="591" 
d="M599 719l-217 -463v-256h-174v256l-217 463h186l63 -163l27 -77.5c10.667 -29.667 20.334 -55.167 29.001 -76.5c9.33301 22 19.666 48 30.999 78l28 76l63 163h181z" />
    <glyph glyph-name="Z" unicode="Z" horiz-adv-x="603" 
d="M38 99l316 481h-286v139h497v-98l-316 -481h320v-140h-531v99z" />
    <glyph glyph-name="bracketleft" unicode="[" horiz-adv-x="377" 
d="M92 -162v951h235v-89h-111v-774h111v-88h-235z" />
    <glyph glyph-name="backslash" unicode="\" horiz-adv-x="379" 
d="M17 767h108l278 -940h-108z" />
    <glyph glyph-name="bracketright" unicode="]" horiz-adv-x="377" 
d="M50 -162v88h111v774h-111v89h235v-951h-235z" />
    <glyph glyph-name="asciicircum" unicode="^" horiz-adv-x="580" 
d="M53 291l171 438h133l171 -438h-136l-50 139l-49 149h-5l-50 -149l-49 -139h-136z" />
    <glyph glyph-name="underscore" unicode="_" horiz-adv-x="550" 
d="M13 -149v92h525v-92h-525z" />
    <glyph glyph-name="a" unicode="a" horiz-adv-x="587" 
d="M525 314v-312.997h-142l-12 55c-50.667 -46 -103.667 -69 -159 -69c-32.667 0 -61.834 7.16699 -87.501 21.5s-45.5 34.166 -59.5 59.499s-21 53.666 -21 84.999c0 57.333 24.667 102.166 74 134.499s127.333 54.166 234 65.499c-2 26 -9.33301 45.333 -22 58
s-32.667 19 -60 19c-22 0 -44.333 -4.16699 -67 -12.5s-49 -21.166 -79 -38.499l-60 110c78.667 48.667 158.334 73 239.001 73c148 0 222 -82.667 222 -248zM352 254.003c-43.333 -6 -77.668 -15.832 -103.001 -29.499s-38 -33.167 -38 -58.5
c0 -16.667 5 -29.334 15 -38.001s24 -13 42 -13c16 0 30.333 3.33301 43 10s26.334 17.667 41.001 33v96z" />
    <glyph glyph-name="b" unicode="b" horiz-adv-x="659" 
d="M539 485.5c38.667 -51 58.001 -117.832 58.001 -200.499c0 -54 -9.83301 -103.833 -29.5 -149.5s-47.334 -81.834 -83.001 -108.501s-76.5 -40 -122.5 -40c-24.667 0 -49.5 6 -74.5 18s-47.833 29.333 -68.5 52l-13 -56h-138v773h174v-189l-4 -78
c44 36.667 90.333 55 139 55c69.333 0 123.333 -25.5 162 -76.5zM392.501 163.001c17.667 26.667 26.498 66 26.498 118c0 97.333 -29.667 146 -89 146c-15.333 0 -30.166 -3.66699 -44.499 -11s-28.833 -19.333 -43.5 -36v-225c24 -21.333 51 -32 81 -32
c28.667 0 51.834 13.333 69.501 40z" />
    <glyph glyph-name="c" unicode="c" horiz-adv-x="521" 
d="M169.5 23.5c-41.667 24.333 -73.998 58.333 -96.998 102s-34.5 93.5 -34.5 149.5s12.5 105.667 37.5 149s59.667 77.166 104 101.499s94.166 36.5 149.499 36.5c62 0 116 -19.667 162 -59l-79 -109c-14.667 12 -27.834 20.667 -39.501 26s-23.167 8 -34.5 8
c-38 0 -67.833 -13.667 -89.5 -41s-32.5 -64.666 -32.5 -111.999c0 -46 11 -83.167 33 -111.5s50 -42.5 84 -42.5c29.333 0 62 14 98 42l67 -110c-25.333 -22 -54 -38.5 -86 -49.5s-65 -16.5 -99 -16.5c-54 0 -101.833 12.167 -143.5 36.5z" />
    <glyph glyph-name="d" unicode="d" horiz-adv-x="638" 
d="M570 774v-773h-143l-12 52c-20 -20 -42.833 -36 -68.5 -48s-51.5 -18 -77.5 -18c-47.333 0 -88.166 12.167 -122.499 36.5s-60.5 58.333 -78.5 102s-27 93.5 -27 149.5c0 52 10 99.833 30 143.5s47.667 78.5 83 104.5s75 39 119 39
c27.333 0 50.666 -4.16699 69.999 -12.5s39 -21.5 59 -39.5l-6 79v185h174zM396 394c-24.667 22 -53 33 -85 33c-26 0 -47.833 -13 -65.5 -39s-26.5 -63 -26.5 -111c0 -52 8 -90.667 24 -116s39 -38 69 -38c17.333 0 32.5 3.5 45.5 10.5s25.833 19.167 38.5 36.5v224z" />
    <glyph glyph-name="e" unicode="e" horiz-adv-x="578" 
d="M172 23c-42.667 24 -75.666 57.8311 -98.999 101.498s-35 93.834 -35 150.501c0 52.667 11.5 101 34.5 145s54.667 78.667 95 104s85.166 38 134.499 38c75.333 0 133.666 -24 174.999 -72s62 -111.667 62 -191c0 -32 -2.33301 -56.333 -7 -73h-326
c6.66699 -38 21.834 -66.333 45.501 -85s54.167 -28 91.5 -28s77.333 13 120 39l55 -102c-28 -19.333 -59.5 -34.666 -94.5 -45.999s-69.5 -17 -103.5 -17c-56 0 -105.333 12 -148 36zM390.001 334.998c0 68 -28.333 101.999 -85 101.999c-26 0 -47.833 -8.66699 -65.5 -26
s-29.167 -42.666 -34.5 -75.999h185z" />
    <glyph glyph-name="f" unicode="f" horiz-adv-x="387" 
d="M98 419h-72v122l72 6v28c0 68 17.833 120.333 53.5 157s87.5 55 155.5 55c36.667 0 74.334 -7 113.001 -21l-30 -123c-22.667 9.33301 -42.334 14 -59.001 14c-39.333 0 -59 -26 -59 -78v-31h98v-129h-98v-419h-174v419z" />
    <glyph glyph-name="g" unicode="g" horiz-adv-x="600" 
d="M102 -189c-44 23.333 -65.998 57.999 -65.998 103.999c0 42 26.667 78.667 80 110v5c-17.333 10.667 -30.333 23.334 -39 38.001s-13 32.667 -13 54c0 19.333 5.66699 38 17 56s26.666 33.667 45.999 47v5c-22.667 15.333 -41 35.333 -55 60s-21 52 -21 82
c0 40 10 75 30 105s47.667 53 83 69s75 24 119 24c32.667 0 61.334 -4.33301 86.001 -13h204v-121h-87c11.333 -19.333 17 -42.666 17 -69.999c0 -58.667 -20.167 -103.834 -60.5 -135.501s-93.5 -47.5 -159.5 -47.5c-20.667 0 -42 3 -64 9c-6 -6 -10.333 -11.833 -13 -17.5
s-4 -13.167 -4 -22.5c0 -16 6.66699 -26.667 20 -32s32.666 -8 57.999 -8h88c70.667 0 124 -11.167 160 -33.5s54 -57.5 54 -105.5c0 -42 -14.5 -77.833 -43.5 -107.5s-67.333 -52 -115 -67s-98.834 -22.5 -153.501 -22.5c-68 0 -124 11.667 -168 35zM333.002 304.999
c12.667 15.333 18.998 37.6689 18.998 67.002c0 27.333 -6.33301 48.666 -19 63.999s-29.334 23 -50.001 23c-21.333 0 -38.166 -7.5 -50.499 -22.5s-18.5 -36.5 -18.5 -64.5c0 -28.667 6.33301 -50.834 19 -66.501s29.334 -23.5 50.001 -23.5s37.334 7.66699 50.001 23z
M383 -102.498c22 12.333 33 28.167 33 47.5c0 16 -6 26.833 -18 32.5s-32.333 8.5 -61 8.5h-55c-28.667 0 -53.667 2.33301 -75 7c-18 -16 -27 -33.333 -27 -52c0 -20 10.167 -35.333 30.5 -46s48.833 -16 85.5 -16c36 0 65 6.16699 87 18.5z" />
    <glyph glyph-name="h" unicode="h" horiz-adv-x="636" 
d="M68 773h173.999v-188l-8 -93c26 21.333 51.833 38.333 77.5 51s54.834 19 87.501 19c58.667 0 102.334 -19 131.001 -57s43 -92.667 43 -164v-341h-173v319c0 38 -4.66699 64.5 -14 79.5s-25.333 22.5 -48 22.5c-18 0 -33.333 -3.66699 -46 -11
s-29.334 -20.333 -50.001 -39v-371h-174v773z" />
    <glyph glyph-name="i" unicode="i" horiz-adv-x="309" 
d="M84 650.5c-18.667 16.333 -28 38.166 -28 65.499c0 26.667 9.33301 48.167 28 64.5s42.334 24.5 71.001 24.5c30 0 54.167 -8.16699 72.5 -24.5s27.5 -37.833 27.5 -64.5c0 -27.333 -9.16699 -49.166 -27.5 -65.499s-42.5 -24.5 -72.5 -24.5
c-28.667 0 -52.334 8.16699 -71.001 24.5zM69 548h174v-548h-174v548z" />
    <glyph glyph-name="j" unicode="j" horiz-adv-x="316" 
d="M90 658.5c-18.667 16.333 -28 38.166 -28 65.499c0 26 9.33301 47.333 28 64s42.334 25 71.001 25c29.333 0 53.333 -8.16699 72 -24.5s28 -37.833 28 -64.5c0 -27.333 -9.33301 -49.166 -28 -65.499s-42.667 -24.5 -72 -24.5c-28.667 0 -52.334 8.16699 -71.001 24.5z
M-55 -191l30 121.001c20 -5.33301 35.333 -8 46 -8c19.333 0 33 6.66699 41 20s12 36 12 68v546h174v-542c0 -72.667 -16.833 -127.834 -50.5 -165.501s-84.167 -56.5 -151.5 -56.5c-39.333 0 -73 5.66699 -101 17z" />
    <glyph glyph-name="k" unicode="k" horiz-adv-x="613" 
d="M606 0h-185l-120 207l-63 -71v-136h-170v773h170v-435l168 210h186l-192 -226z" />
    <glyph glyph-name="l" unicode="l" horiz-adv-x="323" 
d="M105.5 34c-25 31.333 -37.502 77.666 -37.502 138.999v601h174v-607c0 -16 2.5 -27.667 7.5 -35s11.5 -11 19.5 -11c4.66699 0 8.83398 0.333008 12.501 1s6.83398 1.33398 9.50098 2.00098l20 -122c-18.667 -10 -47.667 -15 -87 -15c-54 0 -93.5 15.667 -118.5 47z" />
    <glyph glyph-name="m" unicode="m" horiz-adv-x="951" 
d="M844 504.5c29.333 -38.333 43.998 -92.833 43.998 -163.5v-341h-174v319c0 38 -4.66699 64.5 -14 79.5s-25.333 22.5 -48 22.5c-24 0 -53.333 -16.667 -88 -50v-371h-173v319c0 38 -4.83301 64.5 -14.5 79.5s-25.5 22.5 -47.5 22.5
c-25.333 0 -54.666 -16.667 -87.999 -50v-371h-173v548h143l11 -68c25.333 25.333 51 45.333 77 60s55.667 22 89 22c72.667 0 123.667 -29.333 153 -88c28 28.667 55.333 50.5 82 65.5s56.334 22.5 89.001 22.5c58.667 0 102.667 -19.167 132 -57.5z" />
    <glyph glyph-name="n" unicode="n" horiz-adv-x="637" 
d="M68 548h144l10 -64h4c26.667 24 53.667 43 81 57s58 21 92 21c58.667 0 102.334 -19 131.001 -57s43 -92.667 43 -164v-341h-173v319c0 38 -4.66699 64.5 -14 79.5s-25.333 22.5 -48 22.5c-18 0 -33.333 -3.66699 -46 -11s-29.334 -20.333 -50.001 -39v-371h-174v548z
" />
    <glyph glyph-name="o" unicode="o" horiz-adv-x="618" 
d="M170 24.5c-41.333 25 -73.666 59.332 -96.999 102.999s-35 92.834 -35 147.501s11.667 103.834 35 147.501s55.666 77.834 96.999 102.501s88 37 140 37s98.667 -12.333 140 -37s73.5 -58.834 96.5 -102.501s34.5 -92.834 34.5 -147.501s-11.667 -104 -35 -148
s-55.5 -78.333 -96.5 -103s-87.5 -37 -139.5 -37s-98.667 12.5 -140 37.5zM379.5 161.999c16.333 27.333 24.5 65 24.5 113s-8.16699 85.5 -24.5 112.5s-39.5 40.5 -69.5 40.5c-30.667 0 -54 -13.5 -70 -40.5s-24 -64.5 -24 -112.5c0 -48.667 8 -86.5 24 -113.5
s39.333 -40.5 70 -40.5c30 0 53.167 13.667 69.5 41z" />
    <glyph glyph-name="p" unicode="p" horiz-adv-x="638" 
d="M539.5 491.5c38.333 -51.667 57.502 -118.834 57.502 -201.501c0 -54 -9.83301 -103.667 -29.5 -149s-47.5 -81.166 -83.5 -107.499s-76.667 -39.5 -122 -39.5c-44.667 0 -86.334 17.333 -125.001 52l5 -82v-159h-174v751h144l11 -52c22 19.333 46.5 35 73.5 47
s54.167 18 81.5 18c69.333 0 123.166 -25.833 161.499 -77.5zM392.502 169.5c17.667 27 26.499 66.501 26.499 118.501c0 97.333 -29.667 146 -89 146c-15.333 0 -30 -3.83301 -44 -11.5s-28.667 -19.834 -44 -36.501v-224c24.667 -22 51.667 -33 81 -33
c28.667 0 51.834 13.5 69.501 40.5z" />
    <glyph glyph-name="q" unicode="q" horiz-adv-x="638" 
d="M570 556l-0.000976562 -750.999h-174v166l6 78c-18 -16.667 -38.833 -30 -62.5 -40s-47.167 -15 -70.5 -15c-47.333 0 -88.166 12.167 -122.499 36.5s-60.5 58.166 -78.5 101.499s-27 93 -27 149c0 52 10 100 30 144s47.667 79 83 105s75 39 119 39
c30 0 56.333 -5.16699 79 -15.5s45 -26.833 67 -49.5l13 52h138zM395.999 400.001c-25.333 22.667 -53.667 33.999 -85 33.999c-26 0 -47.833 -13.167 -65.5 -39.5s-26.5 -63.166 -26.5 -110.499c0 -103.333 31 -155 93 -155c17.333 0 32.5 3.5 45.5 10.5
s25.833 19.167 38.5 36.5v224z" />
    <glyph glyph-name="r" unicode="r" horiz-adv-x="448" 
d="M449 549l-27.999 -142.001c-10.667 2.66699 -21.167 4.83398 -31.5 6.50098s-20.833 2.5 -31.5 2.5c-22.667 0 -44.334 -8 -65.001 -24s-37.667 -41 -51 -75v-317h-174v548h144l10 -91c19.333 34 42.833 60 70.5 78s56.5 27 86.5 27c30.667 0 54 -4.33301 70 -13z" />
    <glyph glyph-name="s" unicode="s" horiz-adv-x="495" 
d="M123.5 8.5c-39 14.333 -72.5049 32.833 -100.505 55.5l75 106c26.667 -20.667 51.334 -35.834 74.001 -45.501s45.334 -14.5 68.001 -14.5c42.667 0 64 15 64 45c0 12.667 -5.5 23 -16.5 31s-27.5 16.667 -49.5 26c-38.667 14.667 -69 27.667 -91 39
c-30.667 15.333 -54.667 35 -72 59s-26 50.667 -26 80c0 52.667 20.167 94.5 60.5 125.5s91.833 46.5 154.5 46.5c68 0 133.667 -23.333 197 -70l-76 -101c-42.667 32.667 -81.667 49 -117 49c-18 0 -31.833 -3.66699 -41.5 -11s-14.5 -17.666 -14.5 -30.999
c0 -9.33301 3.5 -17.333 10.5 -24s17.5 -13.334 31.5 -20.001c6.66699 -3.33301 22.334 -9.66602 47.001 -18.999c26.667 -10.667 47.834 -19.5 63.501 -26.5s29.834 -15.833 42.501 -26.5c39.333 -28.667 59 -67.667 59 -117c0 -55.333 -21.5 -98.833 -64.5 -130.5
s-98.167 -47.5 -165.5 -47.5c-36 0 -73.5 7.16699 -112.5 21.5z" />
    <glyph glyph-name="t" unicode="t" horiz-adv-x="432" 
d="M142 42.5c-32.667 37 -49.001 89.834 -49.001 158.501v218h-75v123l84 7l19 145h146v-145h130v-130h-130v-215c0 -58 22 -87 66 -87c12 0 30 4 54 12l26 -121c-24 -6.66699 -44.667 -11.834 -62 -15.501s-38.666 -5.5 -63.999 -5.5c-64 0 -112.333 18.5 -145 55.5z" />
    <glyph glyph-name="u" unicode="u" horiz-adv-x="632" 
d="M564 549l-0.00390625 -547.999h-142l-12 73c-24.667 -28.667 -50.667 -50.334 -78 -65.001s-58.666 -22 -93.999 -22c-116 0 -174 74 -174 222v340h173v-319c0 -38 4.83301 -64.5 14.5 -79.5s25.834 -22.5 48.501 -22.5c18.667 0 34.834 4.33301 48.501 13
s27.834 23.667 42.501 45v363h173z" />
    <glyph glyph-name="v" unicode="v" horiz-adv-x="586" 
d="M574 548l-178 -548h-199l-184 548h174l69 -256l41 -163l40 163l71 256h166z" />
    <glyph glyph-name="w" unicode="w" horiz-adv-x="865" 
d="M840 548l-130.003 -547.999h-202l-49 216c-12.667 72 -21.667 122 -27 150c-3.33301 -16.667 -6.16602 -31.834 -8.49902 -45.501s-4.16602 -25.5 -5.49902 -35.5c-5.33301 -33.333 -9.33301 -56.333 -12 -69l-47 -216h-197l-136 548h172l51 -251l10 -68l13 -84l6 34
c13.333 66.667 21.333 106 24 118l59 251h151l61 -251c2 -8 10 -47 24 -117l8 -38c4.66699 30 8 53 10 69c1.33301 7.33301 3.33301 21 6 41s5.33398 35 8.00098 45l50 251h161z" />
    <glyph glyph-name="x" unicode="x" horiz-adv-x="576" 
d="M562 0l-184.999 0.000976562l-51 89c-6.66699 10 -18.667 31.667 -36 65l-15 28c-0.666992 -2.66699 -7.33398 -18 -20.001 -46l-20 -47l-42 -89h-178l168 286l-158 262h184l48 -87l44 -91c12 25.333 24 55.666 36 90.999l36 87h179l-158 -282z" />
    <glyph glyph-name="y" unicode="y" horiz-adv-x="585" 
d="M572 556l-189.001 -552c-19.333 -48.667 -39.166 -88 -59.499 -118s-45.333 -52.833 -75 -68.5s-66.5 -23.5 -110.5 -23.5c-30.667 0 -58 4 -82 12l29 127c16 -5.33301 30.333 -8 43 -8c23.333 0 42 5.83301 56 17.5s24.667 29.167 32 52.5l8 28l-211 533h174l76 -232
c15.333 -45.333 29.333 -95 42 -149l36 149l65 232h166z" />
    <glyph glyph-name="z" unicode="z" horiz-adv-x="516" 
d="M41 88l228 331h-203v129h416v-87l-228 -332h236v-129h-449v88z" />
    <glyph glyph-name="braceleft" unicode="{" horiz-adv-x="379" 
d="M259 -162c-50 0 -86.167 11.9971 -108.5 35.9971s-33.5 64.667 -33.5 122c0 24.667 2 58.334 6 101.001c0.666992 7.33301 1.66699 20 3 38s2 34.333 2 49c0 24.667 -8.16699 44.167 -24.5 58.5s-39.833 21.833 -70.5 22.5v97c30 0.666992 53.333 8.33398 70 23.001
s25 34 25 58c0 16.667 -0.666992 34.167 -2 52.5s-2.33301 30.833 -3 37.5c-4 40 -6 72.667 -6 98c0 58 11.167 98.833 33.5 122.5s58.5 35.5 108.5 35.5h71v-89h-22c-22 0 -37 -5.16699 -45 -15.5s-12 -30.5 -12 -60.5l2 -82l2 -97c0 -41.333 -6.5 -71.666 -19.5 -90.999
s-34.167 -32.333 -63.5 -39v-4c29.333 -6.66699 50.5 -19.667 63.5 -39s19.5 -49.333 19.5 -90l-2 -95l-2 -84c0 -30 4 -50.333 12 -61s23 -16 45 -16h22v-88h-71z" />
    <glyph glyph-name="bar" unicode="|" horiz-adv-x="290" 
d="M91 -266v1105h109v-1105h-109z" />
    <glyph glyph-name="braceright" unicode="}" horiz-adv-x="379" 
d="M48 -74l21.998 0.00390625c22 0 37 5.16699 45 15.5s12 30.5 12 60.5l-2 85l-2 95c0 40.667 6.33301 70.5 19 89.5s34 32.167 64 39.5v4c-30 6.66699 -51.333 19.667 -64 39s-19 49.666 -19 90.999l2 100l2 79c0 30 -4 50.167 -12 60.5s-23 15.5 -45 15.5h-22v89h71
c50 0 86.167 -11.833 108.5 -35.5s33.5 -64.834 33.5 -123.501c0 -25.333 -2 -58 -6 -98c-0.666992 -6.66699 -1.66699 -18.834 -3 -36.501s-2 -34.834 -2 -51.501c0 -24.667 8.33301 -44.334 25 -59.001s40.334 -22.334 71.001 -23.001v-97
c-31.333 -1.33301 -55.166 -9.16602 -71.499 -23.499s-24.5 -33.833 -24.5 -58.5c0 -13.333 0.666992 -29 2 -47s2.33301 -31 3 -39c4 -42.667 6 -76.667 6 -102c0 -57.333 -11 -97.666 -33 -120.999s-58.333 -35 -109 -35h-71v87z" />
    <glyph glyph-name="asciitilde" unicode="~" horiz-adv-x="582" 
d="M330.5 266c-16.333 7.33301 -33.501 17.332 -51.501 29.999c-3.33301 2.66699 -10.833 8.16699 -22.5 16.5s-22.5 14.666 -32.5 18.999s-19.667 6.5 -29 6.5c-28.667 0 -55 -21 -79 -63l-86 65c49.333 76.667 105 115 167 115c20.667 0 39.167 -3.66699 55.5 -11
s33.5 -17.333 51.5 -30c3.33301 -2.66699 10.833 -8.16699 22.5 -16.5s22.334 -14.666 32.001 -18.999s19.167 -6.5 28.5 -6.5c14.667 0 28.5 5.33301 41.5 16s25.833 26.334 38.5 47.001l85 -66c-50 -76 -105.667 -114 -167 -114c-20 0 -38.167 3.66699 -54.5 11z" />
    <glyph glyph-name="exclamdown" unicode="&#xa1;" horiz-adv-x="375" 
d="M281 592c20.667 -20 31 -45 31 -75c0 -29.333 -10.167 -54.333 -30.5 -75s-45.5 -31 -75.5 -31c-29.333 0 -54 10.333 -74 31s-30 45.667 -30 75c0 30 10.167 55 30.5 75s44.833 30 73.5 30c29.333 0 54.333 -10 75 -30zM144 319l123 18l22 -485l-146 -25z" />
    <glyph glyph-name="cent" unicode="&#xa2;" horiz-adv-x="580" 
d="M302 -44l-0.000976562 104.001c-74.667 10.667 -131.667 39.667 -171 87c-21.333 24 -37.833 52.333 -49.5 85s-17.5 69 -17.5 109c0 76.667 22.667 139.667 68 189c42 47.333 98.667 77 170 89v106h90v-102c56.667 -4.66699 102.334 -25.334 137.001 -62.001l-75 -101
c-21.333 17.333 -42 27 -62 29v-296c26 4 52.333 16.333 79 37l66 -104c-40.667 -35.333 -89 -57.333 -145 -66v-104h-90zM244.499 257.001c13 -23.333 32.167 -40.334 57.5 -51.001v270c-25.333 -11.333 -44.5 -28.666 -57.5 -51.999s-19.5 -51 -19.5 -83
c0 -32.667 6.5 -60.667 19.5 -84z" />
    <glyph glyph-name="sterling" unicode="&#xa3;" horiz-adv-x="581" 
d="M51 0l-0.000976562 102c34.667 16 62.834 38.667 84.501 68s32.5 63 32.5 101c0 6.66699 -0.666992 16 -2 28h-111v97l76 5h6c-11.333 32.667 -17 61 -17 85c0 34.667 5.83301 66 17.5 94s28.5 52.333 50.5 73c21.333 20 46.333 35.333 75 46s60 16 94 16
c40 0 75.5 -7.66699 106.5 -23s59.833 -38 86.5 -68l-91 -89c-24 30 -52.667 45 -86 45c-29.333 0 -52.333 -8.5 -69 -25.5s-25 -42.5 -25 -76.5c0 -27.333 3.66699 -53 11 -77h163v-102h-142c2 -8.66699 3 -18.667 3 -30c0 -25.333 -3.83301 -47.5 -11.5 -66.5
s-20.167 -38.5 -37.5 -58.5v-4h285v-140h-499z" />
    <glyph glyph-name="currency" unicode="&#xa4;" horiz-adv-x="583" 
d="M21 171l67.001 68.001c-24.667 33.333 -37 74 -37 122c0 47.333 12 87.333 36 120l-66 69l82 83l77 -78c33.333 18 70.666 27 111.999 27c40.667 0 78 -9 112 -27l76 78l83 -83l-68 -69c24.667 -31.333 37 -71.333 37 -120c0 -44.667 -12.333 -85.334 -37 -122.001
l68 -68l-83 -83l-77 78c-34.667 -17.333 -71.667 -26 -111 -26s-76.333 8.66699 -111 26l-78 -78zM358.501 284.501c17.667 19.667 26.5 45.167 26.5 76.5c0 32 -8.83301 57.833 -26.5 77.5s-39.834 29.5 -66.501 29.5s-49 -9.83301 -67 -29.5s-27 -45.5 -27 -77.5
c0 -31.333 9 -56.833 27 -76.5s40.333 -29.5 67 -29.5s48.834 9.83301 66.501 29.5z" />
    <glyph glyph-name="yen" unicode="&#xa5;" horiz-adv-x="584" 
d="M209 0l-0.000976562 162.001h-169v78h169v61h-169v78h134l-162 322h171l54 -145c4.66699 -10.667 8.33398 -20 11.001 -28s5 -14.667 7 -20l9 -24c10.667 -29.333 20 -53.333 28 -72h4c6.66699 15.333 16 39.666 28 72.999l27 71l54 145h167l-161 -322h133v-78h-169v-61
h169v-78h-169v-162h-166z" />
    <glyph glyph-name="brokenbar" unicode="&#xa6;" horiz-adv-x="290" 
d="M91 356v483h109v-483h-109zM91 -266v501h109v-501h-109z" />
    <glyph glyph-name="section" unicode="&#xa7;" horiz-adv-x="581" 
d="M142.5 -66.5c-38.333 15.667 -69.501 39.167 -93.501 70.5l95 84c35.333 -37.333 75.333 -56 120 -56c21.333 0 37.5 4 48.5 12s16.5 19 16.5 33c0 14.667 -9.16699 27.834 -27.5 39.501s-47.166 26.5 -86.499 44.5l-46 22c-40.667 19.333 -72.5 44 -95.5 74
s-34.5 65.333 -34.5 106c0 27.333 7.83301 53.333 23.5 78s37.167 45.667 64.5 63c-21.333 25.333 -32 56 -32 92c0 51.333 17.5 92.5 52.5 123.5s83.5 46.5 145.5 46.5c71.333 0 138.333 -24 201 -72l-76 -103c-18 15.333 -37.167 27.833 -57.5 37.5
s-39.833 14.5 -58.5 14.5c-19.333 0 -33.833 -3.33301 -43.5 -10s-14.5 -17.334 -14.5 -32.001c0 -12 10.333 -24.5 31 -37.5s52 -29.833 94 -50.5c20 -9.33301 34.333 -16.333 43 -21c44.667 -22 77.667 -46 99 -72s32 -60 32 -102c0 -60.667 -30 -110 -90 -148
c16.667 -24 25 -52.333 25 -85c0 -55.333 -19.833 -98.333 -59.5 -129s-91.167 -46 -154.5 -46c-42.667 0 -83.167 7.83301 -121.5 23.5zM402.999 304c0 29.333 -20.333 55.002 -61 77.002c-10 5.33301 -30.667 14.666 -62 27.999c-30.667 13.333 -52 23 -64 29
c-24.667 -16.667 -37 -37.667 -37 -63c0 -16 5.16699 -29.833 15.5 -41.5s25.833 -23.167 46.5 -34.5c6.66699 -4 27.667 -14 63 -30l63 -29c24 15.333 36 36.666 36 63.999z" />
    <glyph glyph-name="copyright" unicode="&#xa9;" horiz-adv-x="825" 
d="M273 16c-44 17.333 -82.333 41.665 -115 72.998c-34.667 32.667 -61.667 72 -81 118s-29 97 -29 153s9.66699 106.5 29 151.5s46.333 83.5 81 115.5c32 31.333 70.167 55.333 114.5 72s90.833 25 139.5 25c49.333 0 96.166 -8.33301 140.499 -25
s82.833 -40.667 115.5 -72c34 -32 60.5 -70.667 79.5 -116s28.5 -95.666 28.5 -150.999c0 -56 -9.5 -106.833 -28.5 -152.5s-45.5 -85.167 -79.5 -118.5c-33.333 -31.333 -72.166 -55.666 -116.499 -72.999s-90.833 -26 -139.5 -26s-95 8.66699 -139 26zM526 79.999
c35.333 14 66 34.332 92 60.999c26.667 27.333 47.167 59.333 61.5 96s21.5 77.667 21.5 123c0 44 -7.16699 84.333 -21.5 121s-34.833 68.334 -61.5 95.001c-26 26 -56.667 46 -92 60s-73.333 21 -114 21c-40 0 -77.5 -7 -112.5 -21s-65.5 -34 -91.5 -60
c-26.667 -26.667 -47.334 -58.5 -62.001 -95.5s-22 -77.167 -22 -120.5c0 -44.667 7.33301 -85.5 22 -122.5s35.334 -69.167 62.001 -96.5c26 -26.667 56.5 -47 91.5 -61s72.5 -21 112.5 -21c40.667 0 78.667 7 114 21zM273 199.998c-40 40 -60.001 92.667 -60.001 158
c0 32 5.5 61.167 16.5 87.5s26.833 48.833 47.5 67.5c19.333 18.667 42 32.834 68 42.501s53 14.5 81 14.5c31.333 0 58.5 -5.66699 81.5 -17s44.833 -27 65.5 -47l-63 -69c-12 12.667 -23.667 22 -35 28s-24.333 9 -39 9c-34 0 -60 -10.667 -78 -32s-27 -49.333 -27 -84
c0 -37.333 8.83301 -66.833 26.5 -88.5s41.834 -32.5 72.501 -32.5c17.333 0 32.5 3.16699 45.5 9.5s27.167 15.833 42.5 28.5l54 -77c-24 -18.667 -47.667 -32.834 -71 -42.501s-48.333 -14.5 -75 -14.5c-61.333 0 -112.333 19.667 -153 59z" />
    <glyph glyph-name="guillemotleft" unicode="&#xab;" horiz-adv-x="618" 
d="M101 34c-10 54 -15 110.002 -15 168.002c0 119.333 22 231.666 66 336.999l113 -56c-16.667 -43.333 -29.334 -89.333 -38.001 -138s-13 -96.334 -13 -143.001s4.33301 -94 13 -142s21.334 -93.333 38.001 -136l-115 -55c-22.667 56 -39 111 -49 165zM346.5 32.502
c-9.66699 53.667 -14.5 110.167 -14.5 169.5s5 116.5 15 171.5s26.667 110.167 50 165.5l113 -56c-17.333 -43.333 -30.333 -89.5 -39 -138.5s-13 -96.5 -13 -142.5s4.33301 -93 13 -141s21.334 -93.667 38.001 -137l-114 -55c-22.667 55.333 -38.834 109.833 -48.501 163.5
z" />
    <glyph glyph-name="logicalnot" unicode="&#xac;" horiz-adv-x="581" 
d="M425 100v202h-389v118h510v-320h-121z" />
    <glyph glyph-name="registered" unicode="&#xae;" horiz-adv-x="509" 
d="M142 360.5c-33.333 19.667 -59.5 46.5 -78.5 80.5s-28.5 71.667 -28.5 113c0 42 9.66699 80 29 114s45.833 60.667 79.5 80s70.5 29 110.5 29c41.333 0 78.833 -9.83301 112.5 -29.5s60 -46.5 79 -80.5s28.5 -71.667 28.5 -113c0 -42 -9.66699 -80 -29 -114
s-45.833 -60.667 -79.5 -80s-70.834 -29 -111.501 -29c-41.333 0 -78.666 9.83301 -111.999 29.5zM368.5 432c29.667 30.667 44.5 71.332 44.5 121.999s-14.833 91.334 -44.5 122.001s-67.834 46 -114.501 46c-47.333 0 -85.5 -15.5 -114.5 -46.5s-43.5 -71.5 -43.5 -121.5
s14.667 -90.5 44 -121.5s67.333 -46.5 114 -46.5s84.834 15.333 114.501 46zM165 663.998h99.001c27.333 0 49.166 -6.16699 65.499 -18.5s24.5 -30.5 24.5 -54.5c0 -26.667 -13 -46.667 -39 -60l45 -84h-67l-33 66h-31v-66h-64v217zM251.001 556.998
c10.667 0 18.834 2.83301 24.501 8.5s8.5 13.167 8.5 22.5c0 8.66699 -2.83301 15.5 -8.5 20.5s-13.834 7.5 -24.501 7.5h-22v-59h22z" />
    <glyph glyph-name="degree" unicode="&#xb0;" horiz-adv-x="401" 
d="M139.5 434c-19.667 8 -36.833 19.334 -51.5 34.001c-31.333 30 -47 68 -47 114c0 22.667 4.16699 44 12.5 64s19.833 37 34.5 51c30 30 68 45 114 45c22 0 42.833 -3.83301 62.5 -11.5s36.834 -18.834 51.501 -33.501c14.667 -14 26 -31 34 -51s12 -41.333 12 -64
c0 -46.667 -15.333 -84.667 -46 -114c-14.667 -14.667 -31.834 -26 -51.501 -34s-40.5 -12 -62.5 -12s-42.833 4 -62.5 12zM255.001 523.501c13.333 15 20 34.5 20 58.5s-6.66699 43.333 -20 58s-31 22 -53 22c-21.333 0 -39 -7.33301 -53 -22s-21 -34 -21 -58
s7 -43.5 21 -58.5s31.667 -22.5 53 -22.5c22 0 39.667 7.5 53 22.5z" />
    <glyph glyph-name="plusminus" unicode="&#xb1;" horiz-adv-x="581" 
d="M231 176v149h-195v116h195v184h120v-184h195v-116h-195v-149h-120zM36 0v117h510v-117h-510z" />
    <glyph glyph-name="paragraph" unicode="&#xb6;" horiz-adv-x="701" 
d="M327 220c-84.667 0 -151.667 21.333 -201 64c-56.667 47.333 -85 111.333 -85 192c0 86 28 150.667 84 194c46 35.333 112 53 198 53h49v-503h-45zM433 -85v808h166v-808h-166z" />
    <glyph glyph-name="periodcentered" unicode="&#xb7;" horiz-adv-x="373" 
d="M119.5 268c-21.667 21.333 -32.498 47.666 -32.498 78.999s10.667 57.5 32 78.5s47.666 31.5 78.999 31.5c30.667 0 56.5 -10.667 77.5 -32s31.5 -47.333 31.5 -78c0 -31.333 -10.667 -57.666 -32 -78.999s-47 -32 -77 -32c-30.667 0 -56.834 10.667 -78.501 32z" />
    <glyph glyph-name="guillemotright" unicode="&#xbb;" horiz-adv-x="618" 
d="M108 -76c16.667 43.333 29.334 88.999 38.001 136.999s13 95 13 141s-4.33301 93.5 -13 142.5s-21.334 95.167 -38.001 138.5l112 56c24 -55.333 41 -110.666 51 -165.999s15 -112.333 15 -171s-4.83301 -115 -14.5 -169s-26.167 -108.667 -49.5 -164zM353 -76.001
c16.667 42.667 29.333 87.999 38 135.999s13 95.333 13 142s-4.33301 94.5 -13 143.5s-21.667 94.833 -39 137.5l114 56c44 -105.333 66 -217.666 66 -336.999c0 -58 -5 -114 -15 -168s-26.333 -109 -49 -165z" />
    <glyph glyph-name="questiondown" unicode="&#xbf;" horiz-adv-x="511" 
d="M341 511c18.667 -20 28 -44.667 28 -74c0 -30 -9.33301 -54.833 -28 -74.5s-42.334 -29.5 -71.001 -29.5s-52.5 9.83301 -71.5 29.5s-28.5 44.5 -28.5 74.5c0 29.333 9.5 54 28.5 74s42.833 30 71.5 30s52.334 -10 71.001 -30zM342 271c1.33301 -12 2 -20.6689 2 -26.002
c0 -26.667 -5.83301 -52.667 -17.5 -78s-27.167 -48.666 -46.5 -69.999l-18 -20c-22 -26.667 -37.167 -46.5 -45.5 -59.5s-12.5 -26.833 -12.5 -41.5c0 -22 6.5 -38.833 19.5 -50.5s30.5 -17.5 52.5 -17.5c18.667 0 35.667 4.33301 51 13s31.333 21.334 48 38.001l91 -84
c-26.667 -32 -57.667 -56.833 -93 -74.5s-74.333 -26.5 -117 -26.5c-66 0 -117.667 16.167 -155 48.5s-56 79.5 -56 141.5c0 28.667 6.33301 54.167 19 76.5s33 48.5 61 78.5c24.667 24.667 43 47.667 55 69s18 44 18 68c0 6.66699 -0.333008 11.667 -1 15h145z" />
    <glyph glyph-name="multiply" unicode="&#xd7;" horiz-adv-x="580" 
d="M134 119l-83 83l156 157l-156 158l83 84l157 -159l157 159l82 -84l-156 -158l156 -157l-82 -83l-157 157z" />
    <glyph glyph-name="divide" unicode="&#xf7;" horiz-adv-x="581" 
d="M225.5 499c-17 16 -25.5 36.667 -25.5 62s8.5 46 25.5 62s38.833 24 65.5 24s48.5 -8 65.5 -24s25.5 -36.667 25.5 -62s-8.5 -46 -25.5 -62s-38.833 -24 -65.5 -24s-48.5 8 -65.5 24zM36 303v118h510v-118h-510zM225.5 101c-17 16 -25.5 36.667 -25.5 62s8.5 46 25.5 62
s38.833 24 65.5 24s48.5 -8 65.5 -24s25.5 -36.667 25.5 -62s-8.5 -46 -25.5 -62s-38.833 -24 -65.5 -24s-48.5 8 -65.5 24z" />
    <glyph glyph-name="uni060C" unicode="&#x60c;" horiz-adv-x="352" 
d="M247 157c20 -20 30 -44.001 30 -72.001c0 -27.333 -10 -50.833 -30 -70.5s-43.667 -29.5 -71 -29.5c-35.333 0 -62 10.833 -80 32.5s-27 50.834 -27 87.501c0 38.667 9 80.5 27 125.5s42.333 85.833 73 122.5l71 -73c-32 -34 -53.667 -65 -65 -93h1
c27.333 0 51 -10 71 -30z" />
    <glyph glyph-name="uni061B" unicode="&#x61b;" horiz-adv-x="352" 
d="M96 315.5c-18 21.667 -27 50.833 -27 87.5c0 38.667 9 80.5 27 125.5s42.333 85.833 73 122.5l71 -73c-32 -34 -53.667 -65 -65 -93h1c27.333 0 51 -10 71 -30s30 -44 30 -72c0 -27.333 -10 -50.833 -30 -70.5s-43.667 -29.5 -71 -29.5c-35.333 0 -62 10.833 -80 32.5z
M258 170.999c20.667 -21.333 31.002 -47.333 31.002 -78c0 -31.333 -10.667 -57.5 -32 -78.5s-47 -31.5 -77 -31.5c-30.667 0 -56.834 10.5 -78.501 31.5s-32.5 47.167 -32.5 78.5s10.667 57.5 32 78.5s47.666 31.5 78.999 31.5s57.333 -10.667 78 -32z" />
    <glyph glyph-name="uni061F" unicode="&#x61f;" horiz-adv-x="578" 
d="M389 599c0 26 -8.49902 47 -25.499 63s-40.5 24 -70.5 24s-53 -7.66699 -69 -23s-24 -35.666 -24 -60.999c0 -16.667 4.5 -32.5 13.5 -47.5s19.833 -28.667 32.5 -41s33 -30.833 61 -55.5c25.333 -22.667 43.666 -42.667 54.999 -60s18.5 -34.666 21.5 -51.999
s4.5 -40.666 4.5 -69.999l-116 -17c-0.666992 22.667 -2 39.834 -4 51.501s-6.83301 23 -14.5 34s-20.5 25.5 -38.5 43.5c-7.33301 7.33301 -19 17.666 -35 30.999c-22 19.333 -40 36.666 -54 51.999s-25.833 35.666 -35.5 60.999s-14.5 55.666 -14.5 90.999
c0 37.333 9.5 72 28.5 104s45.167 57.5 78.5 76.5s70 28.5 110 28.5c65.333 0 116.833 -18.167 154.5 -54.5s56.5 -85.5 56.5 -147.5c0 -14.667 -1.66699 -32.667 -5 -54l-113 -3c2 9.33301 3 18 3 26zM249.501 14.5c-21.667 21 -32.498 47.167 -32.498 78.5
s10.667 57.5 32 78.5s47.666 31.5 78.999 31.5s57.333 -10.667 78 -32s31 -47.333 31 -78c0 -31.333 -10.667 -57.5 -32 -78.5s-47 -31.5 -77 -31.5c-30.667 0 -56.834 10.5 -78.501 31.5z" />
    <glyph glyph-name="uni0621" unicode="&#x621;" horiz-adv-x="603" 
d="M65 116l121.001 37.001c-20.667 47.333 -31 91 -31 131c0 10.667 0.333008 18.667 1 24c4 48.667 24.667 85.667 62 111s86 36.666 146 33.999c18 -1.33301 41 -5 69 -11l-31 -139c-22.667 4.66699 -43.667 8 -63 10c-4.66699 0.666992 -11.667 1 -21 1
c-18.667 0 -35.334 -1.66699 -50.001 -5c0 -40 12.667 -80.333 38 -121l212 55l20 -140l-453 -126z" />
    <glyph glyph-name="uni0622" unicode="&#x622;" horiz-adv-x="301" 
d="M225 743c-42.667 0 -85.668 3.33398 -129.001 10.001c-18.667 2.66699 -29.667 4 -33 4c-9.33301 0 -16.333 -2.83301 -21 -8.5s-10 -18.834 -16 -39.501l-100 25c10.667 44 22 78 34 102s25.833 40.833 41.5 50.5s35.834 14.5 60.501 14.5c14.667 0 32.667 -2 54 -6
c4 -0.666992 18.333 -2.5 43 -5.5s54 -4.5 88 -4.5h65l-31 -142h-56zM201.999 0.000976562l-125 -17l-12 651l136 25z" />
    <glyph glyph-name="uni0623" unicode="&#x623;" horiz-adv-x="288" 
d="M-83 815l90.998 28c-15.333 38 -23 71.333 -23 100c0 8.66699 0.333008 15 1 19c2.66699 34 16.334 60.833 41.001 80.5s56.334 29.5 95.001 29.5c10 0 17.667 -0.333008 23 -1c16 -0.666992 33.333 -3.66699 52 -9l-24 -105c-20.667 4.66699 -36.667 7 -48 7
c-4.66699 0.666992 -11.667 1 -21 1c-12 0 -23 -1 -33 -3c0 -29.333 9.66699 -60 29 -92l162 42l15 -107l-344 -96zM200.998 0l-125 -17l-11 651l136 25v-659z" />
    <glyph glyph-name="uni0624" unicode="&#x624;" horiz-adv-x="559" 
d="M62 579l91.002 28.999c-15.333 36.667 -23 69.667 -23 99c0 8.66699 0.333008 15 1 19c2.66699 34 16.167 60.833 40.5 80.5s55.833 29.5 94.5 29.5c10 0 17.667 -0.333008 23 -1c15.333 0 32.666 -2.66699 51.999 -8l-23 -106
c-20.667 4.66699 -36.667 7.33398 -48 8.00098c-4.66699 0.666992 -11.334 1 -20.001 1c-14.667 0 -26 -1.33301 -34 -4c0 -30 9.66699 -60.667 29 -92l161 42l15 -107l-344 -95zM382.502 384.999c29 -26.667 51.1689 -63.166 66.502 -109.499s23 -97.833 23 -154.5
c0 -89.333 -25 -170.166 -75 -242.499s-133.333 -133.5 -250 -183.5l-93 142c60.667 21.333 114.667 47.166 162 77.499s83.666 61.166 108.999 92.499c-23.333 -5.33301 -48 -8 -74 -8c-35.333 0 -64.666 4 -87.999 12c-9.33301 2.66699 -17.5 7.5 -24.5 14.5
s-16.5 19.833 -28.5 38.5c-10.667 16 -17.834 29.167 -21.501 39.5s-5.5 20.833 -5.5 31.5c3.33301 84 21.166 153.333 53.499 208s80.5 82 144.5 82c38.667 0 72.5 -13.333 101.5 -40zM281.004 150c30.667 0 54.333 1.33301 71 4c0 37.333 -7.5 66 -22.5 86
s-34.5 30 -58.5 30c-20.667 0 -37 -9.66699 -49 -29s-19.333 -48.333 -22 -87c18.667 -2.66699 45.667 -4 81 -4z" />
    <glyph glyph-name="uni0625" unicode="&#x625;" horiz-adv-x="291" 
d="M204 778v-778l-125 -17l-14 769zM-36 -346l91 28.001c-15.333 38 -23 71.333 -23 100c0 8.66699 0.333008 15 1 19c2.66699 34 16.167 60.833 40.5 80.5s55.833 29.5 94.5 29.5c10 0 17.667 -0.333008 23 -1c16 -0.666992 33.333 -3.66699 52 -9l-23 -105
c-25.333 4 -41.333 6.33301 -48 7c-4.66699 0.666992 -11.667 1 -21 1c-12.667 0 -23.667 -1 -33 -3c0 -30.667 9.66699 -61.334 29 -92.001l161 42l15 -107l-344 -96z" />
    <glyph glyph-name="uni0626" unicode="&#x626;" horiz-adv-x="848" 
d="M25 527l91.0029 28.999c-15.333 36.667 -23 69.667 -23 99c0 8.66699 0.333008 15 1 19c2.66699 34 16.167 60.833 40.5 80.5s56.166 29.5 95.499 29.5c10 0 17.667 -0.333008 23 -1c15.333 0 32.666 -2.66699 51.999 -8l-24 -106
c-20.667 4.66699 -36.667 7.33398 -48 8.00098c-4.66699 0.666992 -11.334 1 -20.001 1c-14.667 0 -26 -1.33301 -34 -4c0 -28 9.66699 -58.667 29 -92l162 42l14 -107l-343 -95zM146.003 -206.501c-40 37 -59.998 91.8291 -59.998 164.496
c0 38.667 17.333 151.334 52 338.001l112 -24c-10 -55.333 -19 -110.333 -27 -165s-12.333 -94.667 -13 -120c0 -43.333 55.667 -65 167 -65c53.333 0 98.666 4 135.999 12s68.666 21 93.999 39c0 12 -1 20.833 -3 26.5s-6.66699 9.16699 -14 10.5
c-53.333 6 -93.666 12.333 -120.999 19s-48.5 17.334 -63.5 32.001s-22.5 36 -22.5 64c0 54 11.333 110 34 168s52.167 106.167 88.5 144.5s72.833 57.5 109.5 57.5c30 0 57.333 -9.5 82 -28.5s51.667 -52.833 81 -101.5l-78 -82c-30.667 30.667 -59 46 -85 46
c-24.667 0 -46 -12.667 -64 -38s-31.333 -58.666 -40 -99.999c53.333 -6.66699 94.166 -14.5 122.499 -23.5s51.5 -26.667 69.5 -53s27 -65.833 27 -118.5c0 -51.333 -14.333 -95.666 -43 -132.999c-30.667 -39.333 -74.5 -70 -131.5 -92s-123.833 -33 -200.5 -33
c-99.333 0 -169 18.5 -209 55.5z" />
    <glyph glyph-name="uni0627" unicode="&#x627;" horiz-adv-x="291" 
d="M204 778v-778l-125 -17l-14 769z" />
    <glyph glyph-name="uni0628" unicode="&#x628;" horiz-adv-x="936" 
d="M843.5 310c2.33301 -36 3.50098 -76.3301 3.50098 -120.997c0 -34.667 -6.33301 -63.834 -19 -87.501s-32.667 -42.834 -60 -57.501c-31.333 -16.667 -73.333 -28.834 -126 -36.501s-119 -11.5 -199 -11.5c-76.667 0 -140.667 5.83301 -192 17.5
s-91.666 33.334 -120.999 65.001s-44 76.167 -44 133.5c0 17.333 2.33301 40 7 68l26 155l111 -22l-23 -139c-2.66699 -10 -4 -18.333 -4 -25c0 -19.333 6.83301 -33.833 20.5 -43.5s37.167 -16.334 70.5 -20.001s83 -5.5 149 -5.5s120.667 1.5 164 4.5
s81.666 8.5 114.999 16.5l-26 218l136 26c5.33301 -54 9.16602 -99 11.499 -135zM451.001 -115.997l126 -105l-105 -125l-124 105z" />
    <glyph glyph-name="uni0629" unicode="&#x629;" horiz-adv-x="568" 
d="M459 710l-95 -113l-114 95l95 113zM259 703l-95 -114l-114 95l95 114zM133.5 32c-31.667 29.333 -47.502 68.332 -47.502 116.999c0 36.667 6.83301 70 20.5 100s38.834 68 75.501 114l-44 32l88 128c84 -54 146.5 -111.333 187.5 -172s63.833 -134.667 68.5 -222
c0.666992 -11.333 -1.16602 -22.166 -5.49902 -32.499s-13.833 -24.5 -28.5 -42.5c-13.333 -16.667 -23.166 -28.167 -29.499 -34.5s-12.5 -10.833 -18.5 -13.5c-42 -12 -87.667 -18 -137 -18c-54.667 0 -97.834 14.667 -129.501 44zM361.998 174.999
c-15.333 55.333 -44.333 96.668 -87 124.001c-15.333 -14.667 -29.333 -31.834 -42 -51.501s-19 -35.5 -19 -47.5s4.16699 -19.833 12.5 -23.5s23.5 -5.5 45.5 -5.5c42 0 72 1.33301 90 4z" />
    <glyph glyph-name="uni062A" unicode="&#x62a;" horiz-adv-x="936" 
d="M480 546l95 113l114 -95l-95 -113zM394 443l-114 95l95 114l114 -95zM843.5 310c2.33301 -36 3.50098 -76.3301 3.50098 -120.997c0 -34.667 -6.33301 -63.834 -19 -87.501s-32.667 -42.834 -60 -57.501c-31.333 -16.667 -73.333 -28.834 -126 -36.501
s-119 -11.5 -199 -11.5c-76.667 0 -140.667 5.83301 -192 17.5s-91.666 33.334 -120.999 65.001s-44 76.167 -44 133.5c0 17.333 2.33301 40 7 68l26 155l111 -22l-23 -139c-2.66699 -10 -4 -18.333 -4 -25c0 -19.333 6.83301 -33.833 20.5 -43.5
s37.167 -16.334 70.5 -20.001s83 -5.5 149 -5.5s120.667 1.5 164 4.5s81.666 8.5 114.999 16.5l-26 218l136 26c5.33301 -54 9.16602 -99 11.499 -135z" />
    <glyph glyph-name="uni062B" unicode="&#x62b;" horiz-adv-x="936" 
d="M464 625l-108 90l92 108l108 -90zM549 652l109 -90l-91 -108l-109 90zM376 446l-109 92l92 110l108 -92zM843.5 310c2.33301 -36 3.50098 -76.3301 3.50098 -120.997c0 -34.667 -6.33301 -63.834 -19 -87.501s-32.667 -42.834 -60 -57.501
c-31.333 -16.667 -73.333 -28.834 -126 -36.501s-119 -11.5 -199 -11.5c-76.667 0 -140.667 5.83301 -192 17.5s-91.666 33.334 -120.999 65.001s-44 76.167 -44 133.5c0 17.333 2.33301 40 7 68l26 155l111 -22l-23 -139c-2.66699 -10 -4 -18.333 -4 -25
c0 -19.333 6.83301 -33.833 20.5 -43.5s37.167 -16.334 70.5 -20.001s83 -5.5 149 -5.5s120.667 1.5 164 4.5s81.666 8.5 114.999 16.5l-26 218l136 26c5.33301 -54 9.16602 -99 11.499 -135z" />
    <glyph glyph-name="uni062C" unicode="&#x62c;" horiz-adv-x="828" 
d="M708 269c-50 -3.33301 -107.499 -20.665 -172.499 -51.998s-125.833 -69 -182.5 -113s-97.667 -84.667 -123 -122c-2 -20 -3 -39 -3 -57c0 -61.333 16.5 -106 49.5 -134s85.167 -42 156.5 -42h239l-37 -188h-212c-107.333 0 -190.333 30.167 -249 90.5
s-88 143.833 -88 250.5c0 83.333 26.667 160.166 80 230.499s129.333 132.166 228 185.499c26 14.667 44.333 23.667 55 27c-22.667 8 -43.334 14.333 -62.001 19c-64 17.333 -104.667 26 -122 26c-20.667 0 -34.5 -5.5 -41.5 -16.5s-12.167 -25.833 -15.5 -44.5l-109 17
c20 129.333 71.667 194 155 194c24 0 49.667 -3.33301 77 -10s60 -16.667 98 -30c66 -22.667 121.833 -39.667 167.5 -51s95.167 -17 148.5 -17zM375.001 -55.999l94 113l113 -95l-94 -112z" />
    <glyph glyph-name="uni062D" unicode="&#x62d;" horiz-adv-x="828" 
d="M535.5 217c-65 -31.333 -125.832 -68.999 -182.499 -112.999s-97.667 -84.667 -123 -122c-2 -20 -3 -39 -3 -57c0 -61.333 16.5 -106 49.5 -134s85.167 -42 156.5 -42h239l-37 -188h-212c-107.333 0 -190.333 30.167 -249 90.5s-88 143.833 -88 250.5
c0 83.333 26.667 160.166 80 230.499s129.333 132.166 228 185.499c26 14.667 44.333 23.667 55 27c-22.667 8 -43.334 14.333 -62.001 19c-64 17.333 -104.667 26 -122 26c-20.667 0 -34.5 -5.5 -41.5 -16.5s-12.167 -25.833 -15.5 -44.5l-109 17
c20 129.333 71.667 194 155 194c24 0 49.667 -3.33301 77 -10s60 -16.667 98 -30c66 -22.667 121.833 -39.667 167.5 -51s95.167 -17 148.5 -17l-37 -163c-50 -3.33301 -107.5 -20.666 -172.5 -51.999z" />
    <glyph glyph-name="uni062E" unicode="&#x62e;" horiz-adv-x="828" 
d="M473 615l-126 105l105 125l125 -105zM535.5 217c-65 -31.333 -125.832 -68.999 -182.499 -112.999s-97.667 -84.667 -123 -122c-2 -20 -3 -39 -3 -57c0 -61.333 16.5 -106 49.5 -134s85.167 -42 156.5 -42h239l-37 -188h-212c-107.333 0 -190.333 30.167 -249 90.5
s-88 143.833 -88 250.5c0 83.333 26.667 160.166 80 230.499s129.333 132.166 228 185.499c26 14.667 44.333 23.667 55 27c-22.667 8 -43.334 14.333 -62.001 19c-64 17.333 -104.667 26 -122 26c-20.667 0 -34.5 -5.5 -41.5 -16.5s-12.167 -25.833 -15.5 -44.5l-109 17
c20 129.333 71.667 194 155 194c24 0 49.667 -3.33301 77 -10s60 -16.667 98 -30c66 -22.667 121.833 -39.667 167.5 -51s95.167 -17 148.5 -17l-37 -163c-50 -3.33301 -107.5 -20.666 -172.5 -51.999z" />
    <glyph glyph-name="uni062F" unicode="&#x62f;" horiz-adv-x="653" 
d="M512 359c36 -66.667 53.9961 -131.332 53.9961 -193.999c0 -48 -14 -86 -42 -114c-43.333 -45.333 -121.333 -68 -234 -68c-48.667 0 -87.667 5.33301 -117 16s-51.166 28.667 -65.499 54s-21.5 60.333 -21.5 105c0 23.333 1.66699 44.666 5 63.999l113 -9l-2 -17
c0 -9.33301 2.5 -16 7.5 -20s13.333 -6.5 25 -7.5s31.834 -1.5 60.501 -1.5c16.667 0 39.834 1.33301 69.501 4s54.834 6 75.501 10c-6.66699 34 -24.5 71.5 -53.5 112.5s-69.5 86.167 -121.5 135.5l93 125c66.667 -63.333 118 -128.333 154 -195z" />
    <glyph glyph-name="uni0630" unicode="&#x630;" horiz-adv-x="653" 
d="M317 646l-126 105l105 125l125 -105zM512 359c36 -66.667 53.9961 -131.332 53.9961 -193.999c0 -48 -14 -86 -42 -114c-43.333 -45.333 -121.333 -68 -234 -68c-48.667 0 -87.667 5.33301 -117 16s-51.166 28.667 -65.499 54s-21.5 60.333 -21.5 105
c0 23.333 1.66699 44.666 5 63.999l113 -9l-2 -17c0 -9.33301 2.5 -16 7.5 -20s13.333 -6.5 25 -7.5s31.834 -1.5 60.501 -1.5c16.667 0 39.834 1.33301 69.501 4s54.834 6 75.501 10c-6.66699 34 -24.5 71.5 -53.5 112.5s-69.5 86.167 -121.5 135.5l93 125
c66.667 -63.333 118 -128.333 154 -195z" />
    <glyph glyph-name="uni0631" unicode="&#x631;" horiz-adv-x="426" 
d="M-75 -184c92 43.333 158.331 81.332 198.998 113.999s70.334 67.334 89.001 104.001l-40 312l142 30c16 -132 24 -233 24 -303c0 -54.667 -9.66699 -104.167 -29 -148.5s-52.166 -87 -98.499 -128s-109.5 -81.5 -189.5 -121.5z" />
    <glyph glyph-name="uni0632" unicode="&#x632;" horiz-adv-x="426" 
d="M323 592l-104 -125l-126 105l105 125zM-75 -184c92 43.333 158.331 81.332 198.998 113.999s70.334 67.334 89.001 104.001l-40 312l142 30c16 -132 24 -233 24 -303c0 -54.667 -9.66699 -104.167 -29 -148.5s-52.166 -87 -98.499 -128s-109.5 -81.5 -189.5 -121.5z" />
    <glyph glyph-name="uni0633" unicode="&#x633;" horiz-adv-x="1279" 
d="M1181 401c8 -85.333 12 -157.334 12 -216.001c0 -40.667 -8.16699 -75 -24.5 -103s-37.833 -48.667 -64.5 -62s-55.667 -20 -87 -20c-64 0 -106 22.333 -126 67c-12.667 -24.667 -29.834 -42 -51.501 -52s-42.167 -15 -61.5 -15c-22.667 0 -42 2.83301 -58 8.5
s-29 14.5 -39 26.5c2 -34 3 -65 3 -93c0 -42 -18.667 -76.667 -56 -104s-81.666 -47.166 -132.999 -59.499s-98 -18.5 -140 -18.5c-95.333 0 -164 18.833 -206 56.5s-63 92.167 -63 163.5c0 37.333 17.333 150 52 338l112 -24c-10 -55.333 -19 -110.333 -27 -165
s-12.333 -94.667 -13 -120c0 -24.667 15.333 -41.667 46 -51s64 -14 100 -14c85.333 0 152.666 11 201.999 33l-44 370l138 32l16 -140c2 -20.667 8 -35 18 -43s28.333 -12 55 -12c22.667 0 46.334 4.33301 71.001 13l-3 174l125 6l5 -188c11.333 -3.33301 26 -5 44 -5
c32.667 0 60.334 5 83.001 15l-26 220l137 26c1.33301 -20 2.66602 -34.667 3.99902 -44z" />
    <glyph glyph-name="uni0634" unicode="&#x634;" horiz-adv-x="1279" 
d="M862 656l-108 90l92 108l108 -90zM947 683l109 -90l-91 -108l-109 90zM774 477l-109 91l92 110l108 -91zM1181 401c8 -85.333 12 -157.334 12 -216.001c0 -40.667 -8.16699 -75 -24.5 -103s-37.833 -48.667 -64.5 -62s-55.667 -20 -87 -20c-64 0 -106 22.333 -126 67
c-12.667 -24.667 -29.834 -42 -51.501 -52s-42.167 -15 -61.5 -15c-22.667 0 -42 2.83301 -58 8.5s-29 14.5 -39 26.5c2 -34 3 -65 3 -93c0 -42 -18.667 -76.667 -56 -104s-81.666 -47.166 -132.999 -59.499s-98 -18.5 -140 -18.5c-95.333 0 -164 18.833 -206 56.5
s-63 92.167 -63 163.5c0 37.333 17.333 150 52 338l112 -24c-10 -55.333 -19 -110.333 -27 -165s-12.333 -94.667 -13 -120c0 -24.667 15.333 -41.667 46 -51s64 -14 100 -14c85.333 0 152.666 11 201.999 33l-44 370l138 32l16 -140c2 -20.667 8 -35 18 -43
s28.333 -12 55 -12c22.667 0 46.334 4.33301 71.001 13l-3 174l125 6l5 -188c11.333 -3.33301 26 -5 44 -5c32.667 0 60.334 5 83.001 15l-26 220l137 26c1.33301 -20 2.66602 -34.667 3.99902 -44z" />
    <glyph glyph-name="uni0635" unicode="&#x635;" horiz-adv-x="1363" 
d="M1224 421.5c35.333 -47 53.0039 -114.834 53.0039 -203.501c0 -42 -12.333 -79 -37 -111c-29.333 -37.333 -73.833 -66 -133.5 -86s-130.834 -30 -213.501 -30c-90 0 -160.333 11 -211 33c1.33301 -40 2 -67.333 2 -82c0 -42 -18.667 -76.667 -56 -104
s-81.666 -47.166 -132.999 -59.499s-98 -18.5 -140 -18.5c-95.333 0 -164 18.833 -206 56.5s-63 92.167 -63 163.5c0 37.333 17.333 150 52 338l112 -24c-10 -55.333 -19 -110.333 -27 -165s-12.333 -94.667 -13 -120c0 -24.667 15.333 -41.667 46 -51s64 -14 100 -14
c85.333 0 152.666 11 201.999 33l-44 370l138 32c6.66699 -66 12.334 -126 17.001 -180c6 -2.66699 12.667 -4.66699 20 -6s12.666 -2.33301 15.999 -3c43.333 72 97.666 140.333 162.999 205s133.666 97 204.999 97c65.333 0 115.666 -23.5 150.999 -70.5zM1130.5 302.999
c-18.333 21.333 -41.167 32 -68.5 32c-32 0 -68.667 -14.333 -110 -43s-82.333 -67.667 -123 -117h48c91.333 0 184 11 278 33c2 42 -6.16699 73.667 -24.5 95z" />
    <glyph glyph-name="uni0636" unicode="&#x636;" horiz-adv-x="1363" 
d="M859 548l-126 105l105 124l125 -105zM1224 421.5c35.333 -47 53.0039 -114.834 53.0039 -203.501c0 -42 -12.333 -79 -37 -111c-29.333 -37.333 -73.833 -66 -133.5 -86s-130.834 -30 -213.501 -30c-90 0 -160.333 11 -211 33c1.33301 -40 2 -67.333 2 -82
c0 -42 -18.667 -76.667 -56 -104s-81.666 -47.166 -132.999 -59.499s-98 -18.5 -140 -18.5c-95.333 0 -164 18.833 -206 56.5s-63 92.167 -63 163.5c0 37.333 17.333 150 52 338l112 -24c-10 -55.333 -19 -110.333 -27 -165s-12.333 -94.667 -13 -120
c0 -24.667 15.333 -41.667 46 -51s64 -14 100 -14c85.333 0 152.666 11 201.999 33l-44 370l138 32c6.66699 -66 12.334 -126 17.001 -180c6 -2.66699 12.667 -4.66699 20 -6s12.666 -2.33301 15.999 -3c43.333 72 97.666 140.333 162.999 205s133.666 97 204.999 97
c65.333 0 115.666 -23.5 150.999 -70.5zM1130.5 302.999c-18.333 21.333 -41.167 32 -68.5 32c-32 0 -68.667 -14.333 -110 -43s-82.333 -67.667 -123 -117h48c91.333 0 184 11 278 33c2 42 -6.16699 73.667 -24.5 95z" />
    <glyph glyph-name="uni0637" unicode="&#x637;" horiz-adv-x="845" 
d="M705 426c35.333 -46.667 53.001 -114 53.001 -202c0 -43.333 -12 -80.666 -36 -111.999c-29.333 -36.667 -74 -64.5 -134 -83.5s-132 -28.5 -216 -28.5h-252l-34 184h95c2 4 12.333 20.667 31 50c3.33301 5.33301 5.66602 13 6.99902 23s2 26.667 2 50
c0 39.333 -3 143.333 -9 312l-5 133l140 26l1 -312c0 -30 -1 -54 -3 -72c32.667 31.333 66.834 56.166 102.501 74.499s71.167 27.5 106.5 27.5c65.333 0 115.666 -23.333 150.999 -70zM612.001 308c-18 21.333 -40.666 32.001 -67.999 32.001
c-32 0 -68.833 -14.333 -110.5 -43s-82.834 -67.334 -123.501 -116.001h48c94 0 186.667 10.333 278 31c2 42.667 -6 74.667 -24 96z" />
    <glyph glyph-name="uni0638" unicode="&#x638;" horiz-adv-x="845" 
d="M586 601l-126 105l105 124l125 -105zM705 426c35.333 -46.667 53.001 -114 53.001 -202c0 -43.333 -12 -80.666 -36 -111.999c-29.333 -36.667 -74 -64.5 -134 -83.5s-132 -28.5 -216 -28.5h-252l-34 184h95c2 4 12.333 20.667 31 50
c3.33301 5.33301 5.66602 13 6.99902 23s2 26.667 2 50c0 39.333 -3 143.333 -9 312l-5 133l140 26l1 -312c0 -30 -1 -54 -3 -72c32.667 31.333 66.834 56.166 102.501 74.499s71.167 27.5 106.5 27.5c65.333 0 115.666 -23.333 150.999 -70zM612.001 308
c-18 21.333 -40.666 32.001 -67.999 32.001c-32 0 -68.833 -14.333 -110.5 -43s-82.834 -67.334 -123.501 -116.001h48c94 0 186.667 10.333 278 31c2 42.667 -6 74.667 -24 96z" />
    <glyph glyph-name="uni0639" unicode="&#x639;" horiz-adv-x="686" 
d="M241 -284c-50.667 28.667 -89.165 68.5 -115.498 119.5s-39.5 110.167 -39.5 177.5c0 54.667 12 106.167 36 154.5s58.667 92.5 104 132.5c-34.667 60.667 -52 120.667 -52 180c0 125.333 79.667 188 239 188c26 0 53.667 -2 83 -6l-26 -137c-12 2 -29.333 3 -52 3
c-24 0 -47 -1.16699 -69 -3.5s-37.667 -5.83301 -47 -10.5c0 -25.333 4.16699 -51.666 12.5 -78.999s18.833 -50.333 31.5 -69l238 83l29 -162c-76.667 -20.667 -139.334 -40.834 -188.001 -60.501s-88 -40 -118 -61s-55.667 -45.5 -77 -73.5c-2.66699 -32 -4 -53 -4 -63
c0 -62 15.5 -106.167 46.5 -132.5s81.833 -39.5 152.5 -39.5h247l-37 -184h-212c-70.667 0 -131.334 14.333 -182.001 43z" />
    <glyph glyph-name="uni063A" unicode="&#x63a;" horiz-adv-x="686" 
d="M449 889l-104 -124l-126 104l105 125zM241 -284c-50.667 28.667 -89.165 68.5 -115.498 119.5s-39.5 110.167 -39.5 177.5c0 54.667 12 106.167 36 154.5s58.667 92.5 104 132.5c-34.667 60.667 -52 120.667 -52 180c0 125.333 79.667 188 239 188c26 0 53.667 -2 83 -6
l-26 -137c-12 2 -29.333 3 -52 3c-24 0 -47 -1.16699 -69 -3.5s-37.667 -5.83301 -47 -10.5c0 -25.333 4.16699 -51.666 12.5 -78.999s18.833 -50.333 31.5 -69l238 83l29 -162c-76.667 -20.667 -139.334 -40.834 -188.001 -60.501s-88 -40 -118 -61
s-55.667 -45.5 -77 -73.5c-2.66699 -32 -4 -53 -4 -63c0 -62 15.5 -106.167 46.5 -132.5s81.833 -39.5 152.5 -39.5h247l-37 -184h-212c-70.667 0 -131.334 14.333 -182.001 43z" />
    <glyph glyph-name="uni0640" unicode="&#x640;" horiz-adv-x="216" 
d="M223 171c2 -8.66699 3 -19 3 -31v-96c0 -12 -1 -22.333 -3 -31s-4.33301 -13 -7 -13h-216c-2.66699 -0 -5.16699 4.33301 -7.5 13s-3.5 19 -3.5 31v96c0 12 1 22.333 3 31s4.66699 13 8 13h216c2.66699 0 5 -4.33301 7 -13z" />
    <glyph glyph-name="uni0641" unicode="&#x641;" horiz-adv-x="1047" 
d="M761 756l-126 105l105 124l125 -104zM951 188c-4.66699 -40.667 -13.166 -73.6699 -25.499 -99.0029s-30.5 -44.666 -54.5 -57.999c-20 -11.333 -42 -19.166 -66 -23.499s-55.833 -7.16602 -95.5 -8.49902s-109.834 -2.33301 -210.501 -3h-56
c-76.667 0 -140.667 5.83301 -192 17.5s-91.666 33.334 -120.999 65.001s-44 76.167 -44 133.5c0 17.333 2.33301 40 7 68l26 155l111 -22l-23 -139c-2.66699 -10 -4 -18.333 -4 -25c0 -19.333 6.83301 -33.833 20.5 -43.5s37.167 -16.334 70.5 -20.001s83 -5.5 149 -5.5
c156 0 255.333 0.333008 298 1s72.667 3 90 7l3 51c-32 -7.33301 -64.667 -11 -98 -11c-36.667 0 -66 4 -88 12c-10 2.66699 -18.667 7.66699 -26 15s-16 19.333 -26 36c-12 20 -19.667 34.167 -23 42.5s-5 18.833 -5 31.5c3.33301 84 21.166 153.333 53.499 208
s80.5 82 144.5 82c62 0 109.333 -28.333 142 -85s49 -129.667 49 -219c0.666992 -68 -1.33301 -122.333 -6 -163zM765.001 379.997c31.333 0 55.001 1.33301 71.001 4c0 37.333 -7.5 65.833 -22.5 85.5s-34.167 29.5 -57.5 29.5c-20 0 -36.333 -9.66699 -49 -29
s-20.334 -48 -23.001 -86c18.667 -2.66699 45.667 -4 81 -4z" />
    <glyph glyph-name="uni0642" unicode="&#x642;" horiz-adv-x="845" 
d="M561 665l95 113l114 -95l-95 -113zM475 563l-114 95l95 113l114 -95zM709.5 371c32.333 -56.667 48.5 -129.332 48.5 -217.999c0 -70.667 -0.833008 -120.834 -2.5 -150.501s-5.66699 -53.5 -12 -71.5s-17.166 -35 -32.499 -51c-36 -34.667 -85.333 -59.5 -148 -74.5
s-132 -22.5 -208 -22.5c-100 0 -169.833 18.333 -209.5 55s-59.5 91.334 -59.5 164.001c0 38.667 17.333 151.334 52 338.001l112 -23c-10 -56 -19 -111.333 -27 -166s-12.333 -94.667 -13 -120c0 -24.667 15.167 -41.5 45.5 -50.5s63.833 -13.5 100.5 -13.5
c142.667 0 239 9 289 27c0 10.667 0.666992 27.334 2 50.001c-31.333 -9.33301 -68 -14 -110 -14c-34.667 0 -64 3.66699 -88 11c-10 3.33301 -18.5 8.66602 -25.5 15.999s-15.5 19.333 -25.5 36c-12 19.333 -19.667 33.166 -23 41.499s-5 19.166 -5 32.499
c3.33301 83.333 21.166 152.333 53.499 207s80.5 82 144.5 82c62 0 109.167 -28.333 141.5 -85zM638 185.002c0 37.333 -7.5 65.833 -22.5 85.5s-34.5 29.5 -58.5 29.5c-20 0 -36.167 -9.66699 -48.5 -29s-19.833 -48 -22.5 -86c21.333 -2 48.333 -3 81 -3
c29.333 0 53 1 71 3z" />
    <glyph glyph-name="uni0643" unicode="&#x643;" horiz-adv-x="886" 
d="M591.5 185.5c33.667 3.66699 61.5 8.83301 83.5 15.5l-29 551l140 26c0.666992 -38 2.33398 -95.667 5.00098 -173c6 -168 9 -307.667 9 -419c0 -59.333 -23.333 -104.333 -70 -135c-22 -15.333 -61.333 -28.333 -118 -39s-113.334 -16 -170.001 -16
c-76.667 0 -140.667 5.83301 -192 17.5s-91.5 33.334 -120.5 65.001s-43.5 76.167 -43.5 133.5c0 16.667 2.33301 39.667 7 69l26 155l111 -23l-23 -139c-2.66699 -10 -4 -18.333 -4 -25c0 -19.333 6.83301 -33.833 20.5 -43.5s37.167 -16.334 70.5 -20.001
s83 -5.5 149 -5.5c65.333 0 114.833 1.83301 148.5 5.5zM419 433.499c22 4.33301 39.666 11.498 52.999 21.498c0 2.66699 -0.5 4.33398 -1.5 5.00098s-3.83301 1.33398 -8.5 2.00098c-30 4 -52.5 7.83301 -67.5 11.5s-26.667 9.66699 -35 18s-12.5 20.5 -12.5 36.5
c0 25.333 5.83301 53 17.5 83s26.834 55.333 45.501 76s38 31 58 31c16.667 0 31.834 -5.33301 45.501 -16s29.167 -29.667 46.5 -57l-45 -45c-16.667 17.333 -32 26 -46 26c-22 0 -38.667 -20.333 -50 -61c30 -4.66699 52.833 -9.16699 68.5 -13.5s28.5 -13 38.5 -26
s15 -32.5 15 -58.5c0 -43.333 -19.333 -77.833 -58 -103.5s-92.334 -38.5 -161.001 -38.5l12 102c34.667 0 63 2.16699 85 6.5z" />
    <glyph glyph-name="uni0644" unicode="&#x644;" horiz-adv-x="770" 
d="M518 752l140 25.999l26 -836c0 -42 -18.833 -76.667 -56.5 -104s-82 -47.166 -133 -59.499s-97.5 -18.5 -139.5 -18.5c-100 0 -169.833 18.5 -209.5 55.5s-59.5 91.833 -59.5 164.5c0 37.333 17.333 150 52 338l112 -24c-10 -55.333 -19 -110.333 -27 -165
s-12.333 -94.667 -13 -120c0 -24.667 15.167 -41.667 45.5 -51s63.5 -14 99.5 -14c68.667 0 139 10.333 211 31z" />
    <glyph glyph-name="uni0645" unicode="&#x645;" horiz-adv-x="626" 
d="M87 32c0 70 7.66699 122.665 23 157.998c34.667 78.667 73.334 141 116.001 187s87.667 69 135 69c34.667 0 65.5 -11 92.5 -33s47.833 -51.667 62.5 -89s22 -78.666 22 -123.999c0 -42 -6.33301 -83.333 -19 -124c-4 -11.333 -9.33301 -21.166 -16 -29.499
s-19.334 -19.5 -38.001 -33.5c-25.333 -18 -45 -27 -59 -27c-6 0 -13 1.66699 -21 5l-176 80c9.33301 -88.667 23 -193.667 41 -315l-137 -42c-17.333 137.333 -26 243.333 -26 318zM422 193.998c0 30 -6.33301 54.333 -19 73s-32 28 -58 28c-30.667 0 -63.667 -28 -99 -84
l167 -80c6 25.333 9 46.333 9 63z" />
    <glyph glyph-name="uni0646" unicode="&#x646;" horiz-adv-x="770" 
d="M491 512l-104 -124l-126 105l105 124zM138 318l112 -24.001c-10 -55.333 -19 -110.333 -27 -165s-12.333 -94.667 -13 -120c0 -24.667 15.333 -41.667 46 -51s64 -14 100 -14c85.333 0 152.666 11 201.999 33l-44 370l138 32c21.333 -204 32 -349.667 32 -437
c0 -42 -18.667 -76.667 -56 -104s-81.666 -47.166 -132.999 -59.499s-98 -18.5 -140 -18.5c-95.333 0 -164 18.833 -206 56.5s-63 92.167 -63 163.5c0 37.333 17.333 150 52 338z" />
    <glyph glyph-name="uni0647" unicode="&#x647;" horiz-adv-x="568" 
d="M133.5 32c-31.667 29.333 -47.502 68.332 -47.502 116.999c0 36.667 6.83301 70 20.5 100s38.834 68 75.501 114l-44 32l88 128c84 -54 146.5 -111.333 187.5 -172s63.833 -134.667 68.5 -222c0.666992 -11.333 -1.16602 -22.166 -5.49902 -32.499
s-13.833 -24.5 -28.5 -42.5c-13.333 -16.667 -23.166 -28.167 -29.499 -34.5s-12.5 -10.833 -18.5 -13.5c-42 -12 -87.667 -18 -137 -18c-54.667 0 -97.834 14.667 -129.501 44zM361.998 174.999c-15.333 55.333 -44.333 96.668 -87 124.001
c-15.333 -14.667 -29.333 -31.834 -42 -51.501s-19 -35.5 -19 -47.5s4.16699 -19.833 12.5 -23.5s23.5 -5.5 45.5 -5.5c42 0 72 1.33301 90 4z" />
    <glyph glyph-name="uni0648" unicode="&#x648;" horiz-adv-x="559" 
d="M382.5 385c29 -26.667 51.1689 -63.166 66.502 -109.499s23 -97.833 23 -154.5c0 -89.333 -25 -170.166 -75 -242.499s-133.333 -133.5 -250 -183.5l-93 142c60.667 21.333 114.667 47.166 162 77.499s83.666 61.166 108.999 92.499c-23.333 -5.33301 -48 -8 -74 -8
c-35.333 0 -64.666 4 -87.999 12c-9.33301 2.66699 -17.5 7.5 -24.5 14.5s-16.5 19.833 -28.5 38.5c-10.667 16 -17.834 29.167 -21.501 39.5s-5.5 20.833 -5.5 31.5c3.33301 84 21.166 153.333 53.499 208s80.5 82 144.5 82c38.667 0 72.5 -13.333 101.5 -40z
M281.002 150.001c30.667 0 54.333 1.33301 71 4c0 37.333 -7.5 66 -22.5 86s-34.5 30 -58.5 30c-20.667 0 -37 -9.66699 -49 -29s-19.333 -48.333 -22 -87c18.667 -2.66699 45.667 -4 81 -4z" />
    <glyph glyph-name="uni0649" unicode="&#x649;" horiz-adv-x="848" 
d="M146 -206.5c-40 37 -59.998 91.8291 -59.998 164.496c0 38.667 17.333 151.334 52 338.001l112 -24c-10 -55.333 -19 -110.333 -27 -165s-12.333 -94.667 -13 -120c0 -43.333 55.667 -65 167 -65c53.333 0 98.666 4 135.999 12s68.666 21 93.999 39
c0 12 -1 20.833 -3 26.5s-6.66699 9.16699 -14 10.5c-53.333 6 -93.666 12.333 -120.999 19s-48.5 17.334 -63.5 32.001s-22.5 36 -22.5 64c0 54 11.333 110 34 168s52.167 106.167 88.5 144.5s72.833 57.5 109.5 57.5c30 0 57.333 -9.5 82 -28.5s51.667 -52.833 81 -101.5
l-78 -82c-30.667 30.667 -59 46 -85 46c-24.667 0 -46 -12.667 -64 -38s-31.333 -58.666 -40 -99.999c53.333 -6.66699 94.166 -14.5 122.499 -23.5s51.5 -26.667 69.5 -53s27 -65.833 27 -118.5c0 -51.333 -14.333 -95.666 -43 -132.999
c-30.667 -39.333 -74.5 -70 -131.5 -92s-123.833 -33 -200.5 -33c-99.333 0 -169 18.5 -209 55.5z" />
    <glyph glyph-name="uni064A" unicode="&#x64a;" horiz-adv-x="848" 
d="M146 -206.5c-40 37 -59.998 91.8291 -59.998 164.496c0 38.667 17.333 151.334 52 338.001l112 -24c-10 -55.333 -19 -110.333 -27 -165s-12.333 -94.667 -13 -120c0 -43.333 55.667 -65 167 -65c53.333 0 98.666 4 135.999 12s68.666 21 93.999 39
c0 12 -1 20.833 -3 26.5s-6.66699 9.16699 -14 10.5c-53.333 6 -93.666 12.333 -120.999 19s-48.5 17.334 -63.5 32.001s-22.5 36 -22.5 64c0 54 11.333 110 34 168s52.167 106.167 88.5 144.5s72.833 57.5 109.5 57.5c30 0 57.333 -9.5 82 -28.5s51.667 -52.833 81 -101.5
l-78 -82c-30.667 30.667 -59 46 -85 46c-24.667 0 -46 -12.667 -64 -38s-31.333 -58.666 -40 -99.999c53.333 -6.66699 94.166 -14.5 122.499 -23.5s51.5 -26.667 69.5 -53s27 -65.833 27 -118.5c0 -51.333 -14.333 -95.666 -43 -132.999
c-30.667 -39.333 -74.5 -70 -131.5 -92s-123.833 -33 -200.5 -33c-99.333 0 -169 18.5 -209 55.5zM593.002 -444.004l-96 -113l-113 95l95 113zM393.002 -450.004l-95 -115l-114 95l95 115z" />
    <glyph glyph-name="uni064B" unicode="&#x64b;" 
d="M0 1030l346 96l14 -107l-344 -95zM0 821l346 97l14 -108l-344 -94z" />
    <glyph glyph-name="uni064C" unicode="&#x64c;" 
d="M317 1094.5c20 -28.333 29.999 -66.8301 29.999 -115.497c0 -11.333 -0.333008 -20 -1 -26c-3.33301 -35.333 -11 -61.5 -23 -78.5s-35.667 -32.667 -71 -47s-96.666 -33.5 -183.999 -57.5l-29 -8l-30 -8l-19 -5c-15.333 55.333 -25.5 94.5 -30.5 117.5
s-7.5 44.833 -7.5 65.5c0 15.333 1.5 34.666 4.5 57.999s7.16699 50 12.5 80l85 -16l-5 -20c-5.33301 -22 -9.83301 -41.833 -13.5 -59.5s-5.5 -32.834 -5.5 -45.501c0 -14.667 2.66699 -33.667 8 -57l94 25l-9 3c-5.33301 1.33301 -10 4.66602 -14 9.99902
s-9 14.666 -15 27.999c-6.66699 14 -10 24.333 -10 31c0 4 0.333008 7 1 9c13.333 52 33 92.833 59 122.5s55.667 43.5 89 41.5c36 -3.33301 64 -19.166 84 -47.499zM270.999 987.003c0 16.667 -4.33203 30.001 -12.999 40.001s-20 15 -34 15
c-22.667 0 -40.334 -18.333 -53.001 -55c37.333 -10.667 70 -18 98 -22c1.33301 5.33301 2 12.666 2 21.999z" />
    <glyph glyph-name="uni064D" unicode="&#x64d;" 
d="M-1 -161l346 97l15 -107l-345 -95zM-1 -369l346 97l15 -108l-345 -95z" />
    <glyph glyph-name="uni064E" unicode="&#x64e;" 
d="M0 810l346 96l14 -107l-344 -95z" />
    <glyph glyph-name="uni064F" unicode="&#x64f;" 
d="M317 1094.5c20 -28.333 29.9971 -66.832 29.9971 -115.499c0 -11.333 -0.333008 -20 -1 -26c-3.33301 -37.333 -12.166 -64.833 -26.499 -82.5s-42.166 -34 -83.499 -49s-117 -37.5 -227 -67.5l-17 106l140 36c-1.33301 0.666992 -4.66602 2 -9.99902 4
c-5.33301 1.33301 -10 4.66602 -14 9.99902s-8.66699 14.666 -14 27.999c-6.66699 14 -10 24.333 -10 31c0 4 0.333008 7 1 9c13.333 52 33 92.833 59 122.5s55.667 43.5 89 41.5c36 -3.33301 64 -19.166 84 -47.499zM270.997 987.001c0 16.667 -4.33301 30.001 -13 40.001
s-20 15 -34 15c-22 0 -40 -18.333 -54 -55c39.333 -10.667 72.333 -18 99 -22c1.33301 5.33301 2 12.666 2 21.999z" />
    <glyph glyph-name="uni0650" unicode="&#x650;" 
d="M0 -187l346 97l14 -107l-344 -95z" />
    <glyph glyph-name="uni0651" unicode="&#x651;" 
d="M32.5 762.5c-21.667 21 -32.5 47.168 -32.5 78.501c-0 8 1.33301 24 4 48c1.33301 10 5 40.333 11 91l72 -14l-11 -89c-2 -12.667 1.5 -21 10.5 -25s21.833 -6 38.5 -6c8.66699 0 17.667 0.666992 27 2l-2 102l78 2l2 -105c4.66699 -0.666992 12.334 -1 23.001 -1
c16.667 0 29 0.5 37 1.5s15.333 2.83301 22 5.5c-1.33301 18 -4 39 -8 63s-8.33301 44.333 -13 61l81 32c13.333 -54.667 20 -111.334 20 -170.001c0 -34 -12.167 -60.5 -36.5 -79.5s-58.5 -28.5 -102.5 -28.5c-27.333 0 -48.333 6 -63 18c-30.667 -12 -57 -18 -79 -18
c-30.667 0 -56.834 10.5 -78.501 31.5z" />
    <glyph glyph-name="uni0652" unicode="&#x652;" 
d="M10 859c0 26 7.49805 49.166 22.498 69.499s35.167 33.833 60.5 40.5c10 2.66699 20.667 4 32 4c26 0 49.167 -8.16699 69.5 -24.5s34.5 -38.5 42.5 -66.5c3.33301 -13.333 5 -25 5 -35c0 -26.667 -7.66699 -50.167 -23 -70.5s-36.333 -34.166 -63 -41.499l-42 -10
c-12.667 -4 -24 -6 -34 -6c-17.333 0 -31.166 6 -41.499 18s-18.833 30 -25.5 54l119 32c15.333 5.33301 23 14 23 26c0 9.33301 -2.66699 16.5 -8 21.5s-12 7.5 -20 7.5c-3.33301 0 -6 -0.333008 -8 -1c-7.33301 -2 -12.666 -6 -15.999 -12s-4 -12 -2 -18l-86 -24
c-3.33301 10 -5 22 -5 36z" />
    <glyph glyph-name="uni0653" unicode="&#x653;" 
d="M298 791c-42.667 0 -85.668 3.33301 -129.001 10c-18.667 2.66699 -29.667 4 -33 4c-8.66699 0 -15.5 -3.16699 -20.5 -9.5s-10.167 -19.5 -15.5 -39.5l-100 24c10.667 44 21.834 78.167 33.501 102.5s25.5 41.333 41.5 51s36 14.5 60 14.5
c7.33301 0 25.666 -2 54.999 -6c48.667 -7.33301 92.334 -11 131.001 -11h65l-32 -140h-56z" />
    <glyph glyph-name="uni0654" unicode="&#x654;" 
d="M-6 810l91 27.999c-15.333 38.667 -23 73 -23 103c0 38.667 12.5 69.334 37.5 92.001s58.5 34 100.5 34c10 0 17.333 -0.333008 22 -1c16.667 -0.666992 34 -3.66699 52 -9l-24 -105c-25.333 4 -41.333 6.33301 -48 7c-4.66699 0.666992 -11.667 1 -21 1
c-12 0 -23 -1 -33 -3c0 -29.333 9.66699 -60 29 -92l162 41l15 -106l-344 -96z" />
    <glyph glyph-name="uni0655" unicode="&#x655;" 
d="M-6 -331l91.001 28.998c-15.333 38 -23 72.333 -23 103c0 38.667 12.5 69.334 37.5 92.001s58.5 34 100.5 34c10 0 17.333 -0.333008 22 -1c16.667 -0.666992 34 -3.66699 52 -9l-24 -106c-20.667 4.66699 -36.667 7.33398 -48 8.00098
c-4.66699 0.666992 -11.334 1 -20.001 1c-14 0 -25.333 -1.33301 -34 -4c0 -28 9.66699 -58.667 29 -92l162 42l15 -106l-344 -96z" />
    <glyph glyph-name="uni0656" unicode="&#x656;" 
d="M0 23l83 12l1 -208l-81 -7z" />
    <glyph glyph-name="uni0660" unicode="&#x660;" horiz-adv-x="614" 
d="M195 81c-33.333 20 -59.834 46.833 -79.501 80.5s-29.5 70.834 -29.5 111.501s9.83301 77.834 29.5 111.501s46.334 60.167 80.001 79.5s70.5 29 110.5 29s76.833 -9.66699 110.5 -29s60.5 -45.833 80.5 -79.5s30 -70.834 30 -111.501s-10 -77.834 -30 -111.501
s-46.833 -60.5 -80.5 -80.5s-70.5 -30 -110.5 -30c-40.667 0 -77.667 10 -111 30zM371.499 209c17.667 17.333 26.5 38.666 26.5 63.999s-8.83301 46.833 -26.5 64.5s-39.5 26.5 -65.5 26.5c-25.333 0 -46.833 -8.83301 -64.5 -26.5s-26.5 -39.167 -26.5 -64.5
s8.83301 -46.666 26.5 -63.999s39.167 -26 64.5 -26c26 0 47.833 8.66699 65.5 26z" />
    <glyph glyph-name="uni0661" unicode="&#x661;" horiz-adv-x="373" 
d="M226 778c19.333 -114 34.333 -220 45 -318s16 -193.667 16 -287c0 -61.333 -2.33301 -119 -7 -173l-115 -17c2 40 3 80.333 3 121c0 209.333 -27.333 425.333 -82 648z" />
    <glyph glyph-name="uni0662" unicode="&#x662;" horiz-adv-x="651" 
d="M86 752l140 25.999l11 -61l16 -92c3.33301 -20.667 10.333 -34.667 21 -42s31.667 -11 63 -11c44 0 78.667 5 104 15l-23 178l136 25c8.66699 -78 13 -150.333 13 -217c0 -62 -18.5 -108.333 -55.5 -139s-87.5 -46 -151.5 -46c-28.667 0 -54.667 6.33301 -78 19
c14 -119.333 21 -229.666 21 -330.999c0 -34 -0.333008 -59.333 -1 -76l-115 -17c2 232 -31.667 488.333 -101 769z" />
    <glyph glyph-name="uni0663" unicode="&#x663;" horiz-adv-x="861" 
d="M765 751c2.66699 -28 5.00098 -57.5 7.00098 -88.5s3 -64.167 3 -99.5c0 -61.333 -17.333 -107.5 -52 -138.5s-79.334 -46.5 -134.001 -46.5c-66.667 0 -110.667 13.667 -132 41c-15.333 -14 -34 -24.333 -56 -31s-44 -10 -66 -10c-17.333 0 -34.333 5 -51 15
c12.667 -110.667 19 -215.334 19 -314.001c0 -35.333 -0.333008 -61.666 -1 -78.999l-115 -17c2 232 -31.667 488.333 -101 769l140 26l28 -163c3.33301 -20.667 8.33301 -35 15 -43s18.667 -12 36 -12c28.667 0 55.667 5.33301 81 16l-4 173l126 6l4 -188
c12 -3.33301 30 -5 54 -5c32 0 59.667 5 83 15l-24 188l137 26z" />
    <glyph glyph-name="uni0664" unicode="&#x664;" horiz-adv-x="589" 
d="M106.5 327c13.667 34.667 32.5029 64.335 56.5029 89.002c-43.333 41.333 -65 101.666 -65 180.999c0 58.667 20.5 103.334 61.5 134.001s99.833 46 176.5 46c40.667 0 81.667 -3.66699 123 -11l-13 -161c-46 6 -86 9 -120 9c-41.333 0 -74.333 -4.33301 -99 -13
c2.66699 -31.333 10.667 -55.833 24 -73.5s35 -30.334 65 -38.001s71.333 -10.834 124 -9.50098l-1 -143c-66.667 0.666992 -117.834 -6.5 -153.501 -21.5s-60.834 -40.167 -75.501 -75.5c1.33301 -22 11.5 -38 30.5 -48s50.833 -15 95.5 -15
c33.333 0 62.166 1.16699 86.499 3.5s53.166 6.5 86.499 12.5l4 -182c-36.667 -7.33301 -68 -12.333 -94 -15s-57 -4 -93 -4c-75.333 0 -134.166 20.167 -176.499 60.5s-63.5 95.166 -63.5 164.499c0 38.667 6.83301 75.334 20.5 110.001z" />
    <glyph glyph-name="uni0665" unicode="&#x665;" horiz-adv-x="743" 
d="M86 154c0 66 14.333 138.833 43 218.5s64 147.167 106 202.5s81.333 83 118 83c48 0 95.667 -26.5 143 -79.5s86 -120.167 116 -201.5s45 -162 45 -242c0 -62.667 -24.333 -108.167 -73 -136.5s-125.667 -42.5 -231 -42.5c-178 0 -267 66 -267 198zM520 158
c-5.33301 42 -17.834 88.834 -37.501 140.501s-41.5 95.5 -65.5 131.5s-43.667 54 -59 54c-10 0 -25.167 -19.667 -45.5 -59s-38.666 -83.5 -54.999 -132.5s-24.5 -86.833 -24.5 -113.5c0 -12.667 9.83301 -22.334 29.5 -29.001s51.5 -10 95.5 -10
c75.333 0 129.333 6 162 18z" />
    <glyph glyph-name="uni0666" unicode="&#x666;" horiz-adv-x="607" 
d="M365 215.5c-3.33301 74.333 -4.99805 174.502 -4.99805 300.502v43c-18 -2 -38.333 -3 -61 -3c-70.667 0 -149.334 8.33301 -236.001 25l-8 179c68 -8.66699 122.333 -14.834 163 -18.501s82.667 -5.5 126 -5.5c45.333 0 93.666 1.33301 144.999 4
c0 -167.333 0.666992 -293 2 -377s4.33301 -150.667 9 -200s11.667 -96 21 -140l-132 -44c-12.667 83.333 -20.667 162.166 -24 236.499z" />
    <glyph glyph-name="uni0667" unicode="&#x667;" horiz-adv-x="755" 
d="M680 668c-46 -62 -88.335 -134.003 -127.002 -216.003s-69.167 -162.333 -91.5 -241s-33.5 -143.667 -33.5 -195v-16l-115 -17v16c0 92 -19.167 198.833 -57.5 320.5s-98.166 240.834 -179.499 357.501l114 109c32 -47.333 66.667 -116 104 -206s64.333 -175.333 81 -256
l5 -30c0.666992 7.33301 2 17.333 4 30c11.333 80.667 35.833 165.834 73.5 255.501s75.834 159.834 114.501 210.501z" />
    <glyph glyph-name="uni0668" unicode="&#x668;" horiz-adv-x="755" 
d="M499.5 452.5c38.333 -121.667 98.168 -240.833 179.501 -357.5l-114 -109c-32 47.333 -66.667 115.833 -104 205.5s-64.333 174.834 -81 255.501l-5 32c-0.666992 -9.33301 -2 -20 -4 -32c-11.333 -80 -36 -164.833 -74 -254.5s-76 -159.834 -114 -210.501l-108 122
c46 62 88.167 134 126.5 216s68.666 162.333 90.999 241s33.5 143.667 33.5 195v16l116 17v-16c0 -92 19.167 -198.833 57.5 -320.5z" />
    <glyph glyph-name="uni0669" unicode="&#x669;" horiz-adv-x="632" 
d="M515.5 219c5.66699 -70 15.832 -139.333 30.499 -208l-128 -43c-10 66.667 -17.5 122.167 -22.5 166.5s-7.5 86.833 -7.5 127.5c0 14.667 0.333008 25.667 1 33c-30.667 -7.33301 -67 -11 -109 -11c-51.333 0 -93 4.33301 -125 13
c-10.667 2.66699 -19.667 7.33398 -27 14.001s-15.666 17.667 -24.999 33c-11.333 17.333 -18.833 31.166 -22.5 41.499s-5.16699 20.833 -4.5 31.5c0 66.667 7.33301 128 22 184s38.167 101.333 70.5 136s73.5 52 123.5 52c69.333 0 122.5 -29 159.5 -87
s55.5 -134.667 55.5 -230c0 -98.667 2.83301 -183 8.5 -253zM386.998 473c0 36 -4.49902 66.5 -13.499 91.5s-20.667 43.667 -35 56s-29.833 18.5 -46.5 18.5c-26.667 0 -49.5 -14.167 -68.5 -42.5s-29.833 -69.5 -32.5 -123.5c10 -4.66699 41 -7 93 -7
c55.333 0 89.666 2.33301 102.999 7z" />
    <glyph glyph-name="uni066A" unicode="&#x66a;" horiz-adv-x="983" 
d="M204 11l456 799l137 -60l-453 -800zM353 757.5c26.667 -15.667 47.834 -37 63.501 -64s23.5 -56.833 23.5 -89.5s-7.83301 -62.5 -23.5 -89.5s-36.834 -48.167 -63.501 -63.5s-56.334 -23 -89.001 -23c-32 0 -61.5 7.66699 -88.5 23s-48.5 36.5 -64.5 63.5
s-24 56.833 -24 89.5s8 62.5 24 89.5s37.5 48.333 64.5 64s56.5 23.5 88.5 23.5c32.667 0 62.334 -7.83301 89.001 -23.5zM212 655c-14 -14 -21 -31 -21 -51c0 -20.667 7 -38 21 -52s31.333 -21 52 -21s38 7 52 21s21 31.333 21 52c0 20 -7 37 -21 51s-31.333 21 -52 21
s-38 -7 -52 -21zM639 -21c-26.667 16 -47.834 37.333 -63.501 64s-23.5 56.334 -23.5 89.001s7.83301 62.5 23.5 89.5s36.834 48.333 63.501 64s56.334 23.5 89.001 23.5c32 0 61.5 -7.83301 88.5 -23.5s48.5 -37 64.5 -64s24 -56.833 24 -89.5s-8 -62.334 -24 -89.001
s-37.5 -48 -64.5 -64s-56.5 -24 -88.5 -24c-32.667 0 -62.334 8 -89.001 24zM780 81c14 14 21 31 21 51c0 20.667 -7 38 -21 52s-31.333 21 -52 21s-38 -7 -52 -21s-21 -31.333 -21 -52c0 -20 7 -37 21 -51s31.333 -21 52 -21s38 7 52 21z" />
    <glyph glyph-name="uni066B" unicode="&#x66b;" horiz-adv-x="353" 
d="M277 808.5c18 -21.667 27 -50.833 27 -87.5c0 -38.667 -9 -80.5 -27 -125.5s-42.333 -85.833 -73 -122.5l-71 73c32 34 53.667 65 65 93h-1c-27.333 0 -51 10 -71 30s-30 44 -30 72c0 27.333 10 50.833 30 70.5s43.667 29.5 71 29.5c35.333 0 62 -10.833 80 -32.5z" />
    <glyph glyph-name="uni066C" unicode="&#x66c;" horiz-adv-x="375" 
d="M-31 -245l286 494l120 -72l-283 -494z" />
    <glyph glyph-name="uni066D" unicode="&#x66d;" horiz-adv-x="594" 
d="M418 249l56 -71l-125 -92l-52 78l-52 -78l-126 92l56 71l-89 27l49 147l87 -31l-4 93h158l-4 -93l87 31l49 -147z" />
    <glyph glyph-name="uni066E" unicode="&#x66e;" horiz-adv-x="936" 
d="M843.5 310c2.33301 -36 3.50098 -76.3301 3.50098 -120.997c0 -34.667 -6.33301 -63.834 -19 -87.501s-32.667 -42.834 -60 -57.501c-31.333 -16.667 -73.333 -28.834 -126 -36.501s-119 -11.5 -199 -11.5c-76.667 0 -140.667 5.83301 -192 17.5
s-91.666 33.334 -120.999 65.001s-44 76.167 -44 133.5c0 17.333 2.33301 40 7 68l26 155l111 -22l-23 -139c-2.66699 -10 -4 -18.333 -4 -25c0 -19.333 6.83301 -33.833 20.5 -43.5s37.167 -16.334 70.5 -20.001s83 -5.5 149 -5.5s120.667 1.5 164 4.5
s81.666 8.5 114.999 16.5l-26 218l136 26c5.33301 -54 9.16602 -99 11.499 -135z" />
    <glyph glyph-name="uni066F" unicode="&#x66f;" horiz-adv-x="845" 
d="M709.5 371c32.333 -56.667 48.5 -129.332 48.5 -217.999c0 -70.667 -0.833008 -120.834 -2.5 -150.501s-5.66699 -53.5 -12 -71.5s-17.166 -35 -32.499 -51c-36 -34.667 -85.333 -59.5 -148 -74.5s-132 -22.5 -208 -22.5c-100 0 -169.833 18.333 -209.5 55
s-59.5 91.334 -59.5 164.001c0 38.667 17.333 151.334 52 338.001l112 -23c-10 -56 -19 -111.333 -27 -166s-12.333 -94.667 -13 -120c0 -24.667 15.167 -41.5 45.5 -50.5s63.833 -13.5 100.5 -13.5c142.667 0 239 9 289 27c0 10.667 0.666992 27.334 2 50.001
c-31.333 -9.33301 -68 -14 -110 -14c-34.667 0 -64 3.66699 -88 11c-10 3.33301 -18.5 8.66602 -25.5 15.999s-15.5 19.333 -25.5 36c-12 19.333 -19.667 33.166 -23 41.499s-5 19.166 -5 32.499c3.33301 83.333 21.166 152.333 53.499 207s80.5 82 144.5 82
c62 0 109.167 -28.333 141.5 -85zM638 185.002c0 37.333 -7.5 65.833 -22.5 85.5s-34.5 29.5 -58.5 29.5c-20 0 -36.167 -9.66699 -48.5 -29s-19.833 -48 -22.5 -86c21.333 -2 48.333 -3 81 -3c29.333 0 53 1 71 3z" />
    <glyph glyph-name="uni0670" unicode="&#x670;" 
d="M0 1076l83 12l1 -208l-81 -7z" />
    <glyph glyph-name="uni0671" unicode="&#x671;" horiz-adv-x="288" 
d="M33.5 745c-23 10 -34.5 25.998 -34.5 47.998v35c-22 -24 -39.333 -50 -52 -78l-71 37c2 14.667 12.167 34.834 30.5 60.501s40.833 47.834 67.5 66.501s54.334 27 83.001 25v-81c4.66699 -2.66699 8.66699 -4 12 -4c25.333 33.333 51.5 61.833 78.5 85.5
s54.167 35.5 81.5 35.5c70.667 0 106 -42.667 106 -128c0 -26 -5 -45.667 -15 -59c-16.667 -18 -41.334 -32.167 -74.001 -42.5s-68.667 -15.5 -108 -15.5c-46.667 0 -81.5 5 -104.5 15zM260 846.998c-0.666992 12.667 -3.16797 21.333 -7.50098 26s-12.166 7 -23.499 7
c-12.667 0 -27 -4 -43 -12s-31.667 -20 -47 -36c42 0.666992 82.333 5.66699 121 15zM200.999 -0.00292969l-125 -17l-11 651l136 25v-659z" />
    <glyph glyph-name="uni067E" unicode="&#x67e;" horiz-adv-x="936" 
d="M843.5 310c2.33301 -36 3.50098 -76.3301 3.50098 -120.997c0 -34.667 -6.33301 -63.834 -19 -87.501s-32.667 -42.834 -60 -57.501c-31.333 -16.667 -73.333 -28.834 -126 -36.501s-119 -11.5 -199 -11.5c-76.667 0 -140.667 5.83301 -192 17.5
s-91.666 33.334 -120.999 65.001s-44 76.167 -44 133.5c0 17.333 2.33301 40 7 68l26 155l111 -22l-23 -139c-2.66699 -10 -4 -18.333 -4 -25c0 -19.333 6.83301 -33.833 20.5 -43.5s37.167 -16.334 70.5 -20.001s83 -5.5 149 -5.5s120.667 1.5 164 4.5
s81.666 8.5 114.999 16.5l-26 218l136 26c5.33301 -54 9.16602 -99 11.499 -135zM543.001 -113.997l108 -91l-91 -109l-108 92zM370.001 -318.997l-108 90l91 109l108 -90zM451.001 -288.997l109 -92l-90 -108l-108 92z" />
    <glyph glyph-name="uni0686" unicode="&#x686;" horiz-adv-x="828" 
d="M708 269c-50 -3.33301 -107.499 -20.665 -172.499 -51.998s-125.833 -69 -182.5 -113s-97.667 -84.667 -123 -122c-2 -20 -3 -39 -3 -57c0 -61.333 16.5 -106 49.5 -134s85.167 -42 156.5 -42h239l-37 -188h-212c-107.333 0 -190.333 30.167 -249 90.5
s-88 143.833 -88 250.5c0 83.333 26.667 160.166 80 230.499s129.333 132.166 228 185.499c26 14.667 44.333 23.667 55 27c-22.667 8 -43.334 14.333 -62.001 19c-64 17.333 -104.667 26 -122 26c-20.667 0 -34.5 -5.5 -41.5 -16.5s-12.167 -25.833 -15.5 -44.5l-109 17
c20 129.333 71.667 194 155 194c24 0 49.667 -3.33301 77 -10s60 -16.667 98 -30c66 -22.667 121.833 -39.667 167.5 -51s95.167 -17 148.5 -17zM559.001 -78.999l-76 65l64 76l77 -64zM489.001 -5.99902l-65 -77l-77 64l65 77zM495.001 -202.999l-76 64l63 77l77 -65z" />
    <glyph glyph-name="uni0698" unicode="&#x698;" horiz-adv-x="426" 
d="M281 740l-92 -108l-108 91l91 108zM383 569l-91 -108l-109 91l91 108zM192 564l-91 -110l-109 91l92 110zM-75 -184c92 43.333 158.331 81.332 198.998 113.999s70.334 67.334 89.001 104.001l-40 312l142 30c16 -132 24 -233 24 -303
c0 -54.667 -9.66699 -104.167 -29 -148.5s-52.166 -87 -98.499 -128s-109.5 -81.5 -189.5 -121.5z" />
    <glyph glyph-name="uni06A1" unicode="&#x6a1;" horiz-adv-x="1047" 
d="M951 188c-4.66699 -40.667 -13.166 -73.6699 -25.499 -99.0029s-30.5 -44.666 -54.5 -57.999c-20 -11.333 -42 -19.166 -66 -23.499s-55.833 -7.16602 -95.5 -8.49902s-109.834 -2.33301 -210.501 -3h-56c-76.667 0 -140.667 5.83301 -192 17.5
s-91.666 33.334 -120.999 65.001s-44 76.167 -44 133.5c0 17.333 2.33301 40 7 68l26 155l111 -22l-23 -139c-2.66699 -10 -4 -18.333 -4 -25c0 -19.333 6.83301 -33.833 20.5 -43.5s37.167 -16.334 70.5 -20.001s83 -5.5 149 -5.5c156 0 255.333 0.333008 298 1
s72.667 3 90 7l3 51c-32 -7.33301 -64.667 -11 -98 -11c-36.667 0 -66 4 -88 12c-10 2.66699 -18.667 7.66699 -26 15s-16 19.333 -26 36c-12 20 -19.667 34.167 -23 42.5s-5 18.833 -5 31.5c3.33301 84 21.166 153.333 53.499 208s80.5 82 144.5 82
c62 0 109.333 -28.333 142 -85s49 -129.667 49 -219c0.666992 -68 -1.33301 -122.333 -6 -163zM765.001 379.997c31.333 0 55.001 1.33301 71.001 4c0 37.333 -7.5 65.833 -22.5 85.5s-34.167 29.5 -57.5 29.5c-20 0 -36.333 -9.66699 -49 -29s-20.334 -48 -23.001 -86
c18.667 -2.66699 45.667 -4 81 -4z" />
    <glyph glyph-name="uni06A9" unicode="&#x6a9;" horiz-adv-x="932" 
d="M797.5 367c31.667 -64 47.498 -134.668 47.498 -212.001c0 -38.667 -13.667 -69.5 -41 -92.5s-70.333 -39.833 -129 -50.5s-136 -16 -232 -16c-76.667 0 -140.667 5.83301 -192 17.5s-91.666 33.334 -120.999 65.001s-44 76.167 -44 133.5c0 17.333 2.33301 40 7 68
l26 155l111 -22l-23 -139c-2.66699 -10 -4 -18.333 -4 -25c0 -19.333 6.83301 -33.833 20.5 -43.5s37.167 -16.334 70.5 -20.001s83 -5.5 149 -5.5c118.667 0 213 6.66699 283 20c-7.33301 53.333 -33.333 105.333 -78 156s-106.667 103.334 -186 158.001l3 136
c65.333 36 127 66.833 185 92.5s116.667 48.167 176 67.5l20 -149l-115 -47l-115 -47c12.667 -6 25 -14 37 -24c64.667 -53.333 112.834 -112 144.501 -176z" />
    <glyph glyph-name="uni06AF" unicode="&#x6af;" horiz-adv-x="932" 
d="M675 785c-31.333 -14 -66 -30.667 -104 -50l-105 -51l3 109l198 90zM797.5 367c31.667 -64 47.498 -134.668 47.498 -212.001c0 -38.667 -13.667 -69.5 -41 -92.5s-70.333 -39.833 -129 -50.5s-136 -16 -232 -16c-76.667 0 -140.667 5.83301 -192 17.5
s-91.666 33.334 -120.999 65.001s-44 76.167 -44 133.5c0 17.333 2.33301 40 7 68l26 155l111 -22l-23 -139c-2.66699 -10 -4 -18.333 -4 -25c0 -19.333 6.83301 -33.833 20.5 -43.5s37.167 -16.334 70.5 -20.001s83 -5.5 149 -5.5c118.667 0 213 6.66699 283 20
c-7.33301 53.333 -33.333 105.333 -78 156s-106.667 103.334 -186 158.001l3 136c65.333 36 127 66.833 185 92.5s116.667 48.167 176 67.5l20 -149l-115 -47l-115 -47c12.667 -6 25 -14 37 -24c64.667 -53.333 112.834 -112 144.501 -176z" />
    <glyph glyph-name="uni06BA" unicode="&#x6ba;" horiz-adv-x="770" 
d="M138 318l112 -24.001c-10 -55.333 -19 -110.333 -27 -165s-12.333 -94.667 -13 -120c0 -24.667 15.333 -41.667 46 -51s64 -14 100 -14c85.333 0 152.666 11 201.999 33l-44 370l138 32c21.333 -204 32 -349.667 32 -437c0 -42 -18.667 -76.667 -56 -104
s-81.666 -47.166 -132.999 -59.499s-98 -18.5 -140 -18.5c-95.333 0 -164 18.833 -206 56.5s-63 92.167 -63 163.5c0 37.333 17.333 150 52 338z" />
    <glyph glyph-name="uni06C0" unicode="&#x6c0;" horiz-adv-x="564" 
d="M306 726c0 3.33301 -0.501953 5.33301 -1.50195 6s-3.83301 1.33398 -8.5 2.00098c-30 3.33301 -52.667 7 -68 11s-27.166 10 -35.499 18s-12.5 20 -12.5 36c0 25.333 5.83301 53.166 17.5 83.499s26.834 55.833 45.501 76.5s38 31 58 31c16.667 0 32 -5.5 46 -16.5
s29 -30.167 45 -57.5l-44 -45c-16.667 17.333 -32 26 -46 26c-22 0 -38.667 -20.333 -50 -61c29.333 -4 52 -8.33301 68 -13s29.167 -13.5 39.5 -26.5s15.5 -32.5 15.5 -58.5c0 -43.333 -19.5 -78 -58.5 -104s-92.833 -39 -161.5 -39l11 103c67.333 0 114 9.33301 140 28z
M133.498 32c-31.667 29.333 -47.502 68.332 -47.502 116.999c0 36.667 6.83301 70 20.5 100s38.834 68 75.501 114l-44 32l88 128c84 -54 146.5 -111.333 187.5 -172s63.833 -134.667 68.5 -222c0.666992 -11.333 -1.16602 -22.166 -5.49902 -32.499
s-13.833 -24.5 -28.5 -42.5c-13.333 -16.667 -23.166 -28.167 -29.499 -34.5s-12.5 -10.833 -18.5 -13.5c-42 -12 -87.667 -18 -137 -18c-54.667 0 -97.834 14.667 -129.501 44zM361.996 174.999c-15.333 55.333 -44.333 96.668 -87 124.001
c-15.333 -14.667 -29.333 -31.834 -42 -51.501s-19 -35.5 -19 -47.5s4.16699 -19.833 12.5 -23.5s23.5 -5.5 45.5 -5.5c42 0 72 1.33301 90 4z" />
    </font>
</defs>
</svg>
