<?xml version="1.0" standalone="no"?>
<!DOCTYPE svg PUBLIC "-//W3C//DTD SVG 1.1//EN" "http://www.w3.org/Graphics/SVG/1.1/DTD/svg11.dtd" >
<svg>
<metadata>
Created by FontForge 20090914 at Sun Sep 22 22:31:45 2019
 By www-data
Copyright (c) 2018 by www.fontiran.com All rights reserved.
</metadata>
<defs>
<font id="Anjoman-UltraBold" horiz-adv-x="0" >
  <font-face 
    font-family="UltraBold"
    font-weight="800"
    font-stretch="normal"
    units-per-em="1000"
    panose-1="0 0 9 0 0 0 0 0 0 0"
    ascent="800"
    descent="-200"
    x-height="560"
    cap-height="733"
    bbox="-205 -924.003 1689 1547"
    underline-thickness="50"
    underline-position="-50"
    unicode-range="U+0020-U+FEFC"
  />
<missing-glyph horiz-adv-x="681" 
d="M558 -293h-431v1362h431v-1362zM229 978v-45h88v-51h-90v-45h227v45h-90v51h90v45h-225zM227 802v-142h227v47h-90v95h-137zM317 707h-45v49h45v-49zM227 624v-45h90v-51h-90v-45h137v96h90v45h-227zM409 542v-90h-182v-46h227v136h-45zM317 376v-77h47v32h45v-64h-137
v109h-45v-154h227v154h-137zM227 140v-154h227v154h-227zM409 31h-137v64h137v-64zM227 -45v-45h96l-96 -64v-45h227v45h-139l95 64h44v45h-227z" />
    <glyph glyph-name="uniFDF2" unicode="&#x627;&#xfedf;&#xfee0;&#xfeea;" horiz-adv-x="1586" arabic-form="isolated" 
d="M709 843l-3 207l91 12l1 -212zM626 545c-17.333 9.33301 -31.335 22.666 -42.002 39.999s-16 37.666 -16 60.999c0 10.667 2 35.334 6 74.001l8 69l80 -14l-10 -87c-2 -12.667 1.33301 -21 10 -25s20.667 -6 36 -6c9.33301 0 18 1 26 3l-2 98l81 3l1 -103h23
c12.667 0 23.5 0.333008 32.5 1s16.5 2 22.5 4c-1.33301 18 -4 38.5 -8 61.5s-8.33301 42.5 -13 58.5l90 33c13.333 -54.667 20 -109.667 20 -165c0 -37.333 -11.667 -66.666 -35 -87.999s-57.666 -32.333 -102.999 -33c-31.333 0 -55 8 -71 24
c-24.667 -15.333 -51.667 -23 -81 -23c-19.333 0 -37.666 4.66699 -54.999 14zM1501 784l-2 -784l-129 -19l-25 776zM1218 573c12 -167.333 19.6631 -291.67 22.9961 -373.003c1.33301 -28.667 -3.33398 -56 -14.001 -82s-29 -48 -55 -66
c-22 -15.333 -51.167 -27.833 -87.5 -37.5s-78.5 -14.5 -126.5 -14.5c-85.333 0 -146.666 18.667 -183.999 56c-22 -22 -47.167 -36.833 -75.5 -44.5s-69.166 -11.5 -122.499 -11.5c-59.333 0 -106 9 -140 27s-54.667 49.667 -62 95c-9.33301 -16.667 -17 -28 -23 -34
s-12.333 -9.66699 -19 -11c-17.333 -1.33301 -32.666 -2 -45.999 -2c-20 0 -44.667 1 -74 3c-41.333 3.33301 -72.833 15.5 -94.5 36.5s-32.5 49.833 -32.5 86.5l1 17c4.66699 54.667 13.834 97.334 27.501 128.001s36.167 57.5 67.5 80.5s79.333 48.167 144 75.5l-1 76
l148 31l5 -311c1.33301 -32 3.83301 -53.667 7.5 -65s11.667 -18.666 24 -21.999s34.833 -5 67.5 -5c58.667 0 104.334 2.66699 137.001 8l-12 210l150 31l-2 -179c0 -22.667 4.66699 -39.667 14 -51s26.333 -17.666 51 -18.999h44c59.333 0 107.333 5 144 15l-48 464
l153 34c2 -30 5.66699 -78.667 11 -146zM272.994 253.996c22.667 0 47.667 3.00098 75 9.00098l-6 90c-42.667 -14 -73.5 -28.5 -92.5 -43.5s-31.5 -31.167 -37.5 -48.5c11.333 -2.66699 22.333 -4.33398 33 -5.00098c12 -1.33301 21.333 -2 28 -2z" />
    <glyph glyph-name="uniFEF5" unicode="&#xfedf;&#xfe82;" horiz-adv-x="574" arabic-form="isolated" 
d="M194 672c-30 -0.666992 -54.166 0 -72.499 2s-38.833 4.66699 -61.5 8c-16 2.66699 -25.667 4 -29 4c-7.33301 0 -13.333 -3 -18 -9s-9.66699 -19.333 -15 -40l-112 27c11.333 48 23.333 85.167 36 111.5s27.5 44.833 44.5 55.5s38.167 16 63.5 16c7.33301 0 25 -2 53 -6
c25.333 -4 47.666 -7 66.999 -9s42.333 -2.66699 69 -2h69l-36 -158h-58zM215.501 198.5c63 10.333 107.499 20.499 133.499 30.499l-28 528l154 27l15 -558c0 -61.333 -23.333 -110.166 -70 -146.499s-103.167 -62 -169.5 -77s-134.166 -23.167 -203.499 -24.5l-25 207
c66 -1.33301 130.5 3.16699 193.5 13.5zM224 450.499c8.66699 -55.667 12.998 -113.832 12.998 -174.499v-44l-123 -11c-0.666992 59.333 -4.66699 113.166 -12 161.499s-24.666 97.833 -51.999 148.5l121 86c26.667 -55.333 44.334 -110.833 53.001 -166.5z" />
    <glyph glyph-name="uniFEF6" unicode="&#xfee0;&#xfe82;" horiz-adv-x="615" arabic-form="final" 
d="M114.5 674c-18.333 2 -38.832 4.66699 -61.499 8c-16 2.66699 -25.667 4 -29 4c-7.33301 0 -13.333 -3 -18 -9s-9.66699 -19.333 -15 -40l-112 27c11.333 48 23.333 85.167 36 111.5s27.5 44.833 44.5 55.5s38.167 16 63.5 16c7.33301 0 25 -2 53 -6
c25.333 -4 47.666 -7 66.999 -9s42.333 -2.66699 69 -2h69l-36 -158h-58c-30 -0.666992 -54.167 0 -72.5 2zM623.001 192c2 -9.33301 3.00098 -20.333 3.00098 -33v-112c0 -12.667 -1.16699 -23.667 -3.5 -33s-4.83301 -14 -7.5 -14h-87c-28 0 -51.5 5.66699 -70.5 17
s-34.167 30 -45.5 56c-42 -32 -96.167 -55.333 -162.5 -70s-133.833 -23 -202.5 -25l-25 207c66 -1.33301 130.5 3.16699 193.5 13.5s107.5 20.5 133.5 30.5l-28 528l154 27l14 -523c1.33301 -22 5.16602 -36.667 11.499 -44s17.833 -11 34.5 -11h80
c3.33301 0 6 -4.66699 8 -14zM171.002 617c26.667 -55.333 44.332 -110.831 52.999 -166.498s13 -113.834 13 -174.501v-44l-123 -11c-0.666992 59.333 -4.66699 113.166 -12 161.499s-24.666 97.833 -51.999 148.5z" />
    <glyph glyph-name="uniFEF7" unicode="&#xfedf;&#xfe84;" horiz-adv-x="574" arabic-form="isolated" 
d="M-106 731l95 24.9971c-13.333 32.667 -20 63.334 -20 92.001c0 10 0.333008 17.333 1 22c3.33301 34.667 17.333 62.167 42 82.5s57 30.5 97 30.5c10.667 0 19 -0.333008 25 -1c18 -2 35.333 -5.33301 52 -10l-27 -116c-18 4.66699 -33 7.33398 -45 8.00098
c-12 1.33301 -20.667 2 -26 2c-6 0 -13.667 -0.666992 -23 -2c0 -25.333 7.66699 -52.666 23 -81.999l158 39l16 -119l-351 -89zM215.5 198.497c63 10.333 107.499 20.499 133.499 30.499l-28 528l154 27l15 -558c0 -61.333 -23.333 -110.166 -70 -146.499
s-103.167 -62 -169.5 -77s-134.166 -23.167 -203.499 -24.5l-25 207c66 -1.33301 130.5 3.16699 193.5 13.5zM223.999 450.496c8.66699 -55.667 12.998 -113.832 12.998 -174.499v-44l-123 -11c-0.666992 59.333 -4.66699 113.166 -12 161.499s-24.666 97.833 -51.999 148.5
l121 86c26.667 -55.333 44.334 -110.833 53.001 -166.5z" />
    <glyph glyph-name="uniFEF8" unicode="&#xfee0;&#xfe84;" horiz-adv-x="615" arabic-form="final" 
d="M262 702l-351 -89.0029l-17 118l95 25c-13.333 32.667 -20 63.334 -20 92.001c0 10 0.333008 17.333 1 22c3.33301 34.667 17.333 62.167 42 82.5s57 30.5 97 30.5c10.667 0 19 -0.333008 25 -1c18 -2 35.333 -5.33301 52 -10l-27 -116
c-18 4.66699 -33 7.33398 -45 8.00098c-12 1.33301 -20.667 2 -26 2c-6 0 -13.667 -0.666992 -23 -2c0 -25.333 7.66699 -52.666 23 -81.999l158 39zM623 191.997c2 -9.33301 3.00098 -20.333 3.00098 -33v-112c0 -12.667 -1.16699 -23.667 -3.5 -33s-4.83301 -14 -7.5 -14
h-87c-28 0 -51.5 5.66699 -70.5 17s-34.167 30 -45.5 56c-42 -32 -96.167 -55.333 -162.5 -70s-133.833 -23 -202.5 -25l-25 207c66 -1.33301 130.5 3.16699 193.5 13.5s107.5 20.5 133.5 30.5l-28 528l154 27l14 -523c1.33301 -22 5.16602 -36.667 11.499 -44
s17.833 -11 34.5 -11h80c3.33301 0 6 -4.66699 8 -14zM102.001 382.497c-7.33301 48.333 -24.668 97.835 -52.001 148.502l121 86c26.667 -55.333 44.334 -110.833 53.001 -166.5s13 -113.834 13 -174.501v-44l-123 -11c-0.666992 59.333 -4.66699 113.166 -12 161.499z" />
    <glyph glyph-name="uniFEF9" unicode="&#xfedf;&#xfe88;" horiz-adv-x="600" arabic-form="isolated" 
d="M228.5 196c64.333 8.66699 112.5 19.665 144.5 32.998l-28 528l156 27l14 -558c0 -61.333 -23.333 -110.166 -70 -146.499s-103.167 -62 -169.5 -77s-134.166 -23.167 -203.499 -24.5l-26 207c57.333 -1.33301 118.166 2.33398 182.499 11.001zM236.5 511.998
c17.667 -74 26.5 -150.333 26.5 -229l-1 -51l-123 -11c-0.666992 47.333 -3 90 -7 128s-14.5 80.5 -31.5 127.5s-43.167 92.167 -78.5 135.5l108 114c53.333 -68.667 88.833 -140 106.5 -214zM66 -340.002l95.001 24.9971c-13.333 32.667 -20 63.334 -20 92.001
c0 10 0.333008 17.333 1 22c3.33301 34.667 17.333 62.167 42 82.5s57 30.5 97 30.5c10.667 0 19 -0.333008 25 -1c14 -0.666992 31.667 -4 53 -10l-27 -116c-20 4.66699 -35.333 7.33398 -46 8.00098c-6 0.666992 -14.667 1 -26 1c-10.667 0 -18.334 -0.333008 -23.001 -1
c0 -25.333 7.66699 -52.666 23 -81.999l158 40l16 -119l-351 -90z" />
    <glyph glyph-name="uniFEFA" unicode="&#xfee0;&#xfe88;" horiz-adv-x="633" arabic-form="final" 
d="M641 192.5c2 -9 3.00293 -20.1699 3.00293 -33.5029v-112c0 -12.667 -1 -23.667 -3 -33s-4.66699 -14 -8 -14h-80c-56.667 0 -97 23 -121 69c-42.667 -30.667 -96.334 -53 -161.001 -67s-131 -22 -199 -24l-26 207c57.333 -1.33301 118.166 2.33398 182.499 11.001
s112.5 19.667 144.5 33l-28 528l156 27l13 -502c0.666992 -21.333 2.16699 -37.166 4.5 -47.499s6.66602 -17.666 12.999 -21.999s15.833 -6.5 28.5 -6.5h73c3.33301 0 6 -4.5 8 -13.5zM139.003 220.997c-0.666992 47.333 -3 90 -7 128s-14.5 80.5 -31.5 127.5
s-43.167 92.167 -78.5 135.5l108 114c53.333 -68.667 88.833 -140 106.5 -214s26.5 -150.333 26.5 -229l-1 -51zM418.003 -249.003l16.001 -119.003l-351 -90l-17 118l95 25c-13.333 32.667 -20 63.334 -20 92.001c0 10 0.333008 17.333 1 22
c3.33301 34.667 17.333 62.167 42 82.5s57 30.5 97 30.5c10.667 0 19 -0.333008 25 -1c14 -0.666992 31.667 -4 53 -10l-27 -116c-20 4.66699 -35.333 7.33398 -46 8.00098c-6 0.666992 -14.667 1 -26 1c-10.667 0 -18.334 -0.333008 -23.001 -1
c0 -25.333 7.66699 -52.666 23 -81.999z" />
    <glyph glyph-name="uniFEFB" unicode="&#xfedf;&#xfe8e;" horiz-adv-x="600" arabic-form="isolated" 
d="M228.5 196c64.333 8.66699 112.5 19.665 144.5 32.998l-28 528l156 27l14 -558c0 -61.333 -23.333 -110.166 -70 -146.499s-103.167 -62 -169.5 -77s-134.166 -23.167 -203.499 -24.5l-26 207c57.333 -1.33301 118.166 2.33398 182.499 11.001zM236.5 511.998
c17.667 -74 26.5 -150.333 26.5 -229l-1 -51l-123 -11c-0.666992 47.333 -3 90 -7 128s-14.5 80.5 -31.5 127.5s-43.167 92.167 -78.5 135.5l108 114c53.333 -68.667 88.833 -140 106.5 -214z" />
    <glyph glyph-name="uniFEFC" unicode="&#xfee0;&#xfe8e;" horiz-adv-x="633" arabic-form="final" 
d="M641 192.5c2 -9 3.00293 -20.1699 3.00293 -33.5029v-112c0 -12.667 -1 -23.667 -3 -33s-4.66699 -14 -8 -14h-80c-56.667 0 -97 23 -121 69c-42.667 -30.667 -96.334 -53 -161.001 -67s-131 -22 -199 -24l-26 207c57.333 -1.33301 118.166 2.33398 182.499 11.001
s112.5 19.667 144.5 33l-28 528l156 27l13 -502c0.666992 -21.333 2.16699 -37.166 4.5 -47.499s6.66602 -17.666 12.999 -21.999s15.833 -6.5 28.5 -6.5h73c3.33301 0 6 -4.5 8 -13.5zM139.003 220.997c-0.666992 47.333 -3 90 -7 128s-14.5 80.5 -31.5 127.5
s-43.167 92.167 -78.5 135.5l108 114c53.333 -68.667 88.833 -140 106.5 -214s26.5 -150.333 26.5 -229l-1 -51z" />
    <glyph glyph-name="uni06440671" unicode="&#xfedf;&#xfb51;" horiz-adv-x="614" 
d="M-20 657c-24 10.667 -36.001 27.668 -36.001 51.001v33c-2 -3.33301 -8.16699 -12.333 -18.5 -27s-19.833 -32.334 -28.5 -53.001l-82 42c3.33301 17.333 14.5 39.5 33.5 66.5s42.833 50.167 71.5 69.5s58.334 28 89.001 26v-86c3.33301 -2 7 -3 11 -3
c61.333 83.333 116 125 164 125c74.667 0 112 -45.333 112 -136c0 -28 -6 -49 -18 -63c-17.333 -19.333 -42.333 -34.333 -75 -45s-69.667 -16 -111 -16c-50.667 0 -88 5.33301 -112 16zM212.999 768.001c-0.666992 12 -3.16797 20.165 -7.50098 24.498
s-11.833 6.5 -22.5 6.5c-12.667 0 -26.667 -3.66699 -42 -11s-30.666 -18.666 -45.999 -33.999c38.667 0.666992 78 5.33398 118 14.001zM255.498 198.499c63 10.333 107.499 20.499 133.499 30.499l-28 528l155 27l14 -558c0 -61.333 -23.333 -110.166 -70 -146.499
s-103.167 -62 -169.5 -77s-134.166 -23.167 -203.499 -24.5l-25 207c66 -1.33301 130.5 3.16699 193.5 13.5zM263.997 450.498c8.66699 -55.667 12.998 -113.832 12.998 -174.499v-44l-123 -11c-0.666992 59.333 -4.66699 113.166 -12 161.499s-24.666 97.833 -51.999 148.5
l121 86c26.667 -55.333 44.334 -110.833 53.001 -166.5z" />
    <glyph glyph-name="uni06440671.fina" unicode="&#xfee0;&#xfb51;" horiz-adv-x="615" 
d="M183.5 667c-33 -10.667 -70.168 -16.0029 -111.501 -16.0029c-51.333 0 -88.833 5.33301 -112.5 16s-35.5 27.334 -35.5 50.001v33l-18.5 -25.5c-10.333 -14.333 -20.166 -32.166 -29.499 -53.499l-81 42c3.33301 17.333 14.5 39.333 33.5 66s42.667 49.834 71 69.501
s58.166 28.167 89.499 25.5v-86c4 -2 7.33301 -3 10 -3c62.667 83.333 117.334 125 164.001 125c74.667 0 112 -45 112 -135c0 -27.333 -5.66699 -48.666 -17 -63.999c-16.667 -18.667 -41.5 -33.334 -74.5 -44.001zM120.499 796.997
c-15.667 -7.33301 -30.832 -18.667 -45.499 -34c42 0.666992 81 5.66699 117 15c-0.666992 12 -3.16699 20 -7.5 24s-11.5 6 -21.5 6c-12.667 0 -26.834 -3.66699 -42.501 -11zM623.001 191.996c2 -9.33301 3.00098 -20.333 3.00098 -33v-112
c0 -12.667 -1.16699 -23.667 -3.5 -33s-4.83301 -14 -7.5 -14h-87c-28 0 -51.5 5.66699 -70.5 17s-34.167 30 -45.5 56c-42 -32 -96.167 -55.333 -162.5 -70s-133.833 -23 -202.5 -25l-25 207c66 -1.33301 130.5 3.16699 193.5 13.5s107.5 20.5 133.5 30.5l-28 528l154 27
l14 -523c1.33301 -22 5.16602 -36.667 11.499 -44s17.833 -11 34.5 -11h80c3.33301 0 6 -4.66699 8 -14zM102.002 382.496c-7.33301 48.333 -24.668 97.835 -52.001 148.502l121 86c26.667 -55.333 44.334 -110.833 53.001 -166.5s13 -113.834 13 -174.501v-44l-123 -11
c-0.666992 59.333 -4.66699 113.166 -12 161.499z" />
    <glyph glyph-name="uni066E.init" unicode="&#x66e;" horiz-adv-x="393" 
d="M305 325c2 -35.333 3.00098 -78.334 3.00098 -129.001c0 -62.667 -23.333 -110.667 -70 -144c-49.333 -34.667 -128.666 -52 -237.999 -52c-2.66699 0 -5.33398 4.83301 -8.00098 14.5s-4 20.5 -4 32.5v112c0 12.667 1.16699 23.667 3.5 33s5.16602 14 8.49902 14
c45.333 0 80.333 1.5 105 4.5s44.667 7.5 60 13.5l-26 210l156 27c4.66699 -55.333 8 -100.666 10 -135.999z" />
    <glyph glyph-name="uni066E.medi" unicode="&#x66e;" horiz-adv-x="432" 
d="M439 192.5c2 -9 3.00391 -20.166 3.00391 -33.499v-112c0 -12.667 -1 -23.667 -3 -33s-4.33301 -14 -7 -14c-66 0 -114.333 5.16699 -145 15.5s-51.667 29.166 -63 56.499c-9.33301 -19.333 -22.333 -34.166 -39 -44.499s-39.167 -17.5 -67.5 -21.5s-67.5 -6 -117.5 -6
c-2.66699 0 -5.33398 4.83301 -8.00098 14.5s-4 20.5 -4 32.5v112c0 12.667 1.16699 23.667 3.5 33s5.16602 14 8.49902 14c43.333 0 76.666 1.16699 99.999 3.5s42.666 7.16602 57.999 14.499l-23 175l155 17l7 -200c11.333 -4 26.333 -6.66699 45 -8s48.667 -2 90 -2
c2.66699 0 5 -4.5 7 -13.5z" />
    <glyph glyph-name="uni066E.fina" unicode="&#x66e;" horiz-adv-x="942" 
d="M949 192.5c2 -9 3.00293 -20.1689 3.00293 -33.502v-112c0 -12.667 -1 -23.667 -3 -33s-4.33301 -14 -7 -14c-44 0 -81.833 6.16699 -113.5 18.5s-53.167 30.833 -64.5 55.5c-6 -11.333 -14.5 -21 -25.5 -29s-26.5 -15 -46.5 -21
c-26.667 -8 -61.334 -14.667 -104.001 -20s-87.334 -8 -134.001 -8c-79.333 0 -145.5 6 -198.5 18s-94.667 34.333 -125 67s-45.5 79 -45.5 139c0 14 2.33301 38 7 72l26 156l124 -25l-22 -136c-2.66699 -11.333 -4 -20.333 -4 -27c0 -15.333 7.83301 -27.166 23.5 -35.499
s40.667 -14.166 75 -17.499s81.166 -5 140.499 -5c100 0 187.667 7.33301 263 22l-19 143l152 17l8 -169c22 -6 49.667 -9 83 -9c2.66699 0 5 -4.5 7 -13.5z" />
    <glyph glyph-name="uni066F.fina" unicode="&#x66f;" horiz-adv-x="893" 
d="M901 192c2 -9.33301 3 -20.335 3 -33.002v-112c0 -12.667 -1.16699 -23.667 -3.5 -33s-4.83301 -14 -7.5 -14h-119c-1.33301 -40 -5.66602 -71.333 -12.999 -94s-19.333 -43 -36 -61c-64 -65.333 -184 -98.666 -360 -99.999c-101.333 0 -173.333 18.5 -216 55.5
s-64 91.833 -64 164.5c0 49.333 17.333 167.333 52 354l126 -25c-26 -144 -39.333 -238.333 -40 -283c0 -24 13.5 -40 40.5 -48s60.167 -12 99.5 -12c132.667 0 227.667 7.66699 285 23l2 46c-30.667 -7.33301 -65.667 -11 -105 -11c-37.333 0 -68.666 4.33301 -93.999 13
c-10 3.33301 -18.333 8.83301 -25 16.5s-15.334 20.834 -26.001 39.501c-12 19.333 -19.667 33.5 -23 42.5s-5 19.833 -5 32.5c4 88 23 159.333 57 214s83.667 82 149 82c53.333 0 97.166 -21.5 131.499 -64.5s55.5 -102.5 63.5 -178.5h120c3.33301 0 6 -4.66699 8 -14z
M643 176.998c0 34 -7 60.167 -21 78.5s-32 27.5 -54 27.5c-18 0 -32.833 -8.83301 -44.5 -26.5s-18.834 -44.167 -21.501 -79.5c26.667 -1.33301 52 -2 76 -2c20.667 0 42.334 0.666992 65.001 2z" />
    <glyph glyph-name="uni06A1.init" unicode="&#x6a1;" horiz-adv-x="532" 
d="M441.5 208c-5 -44 -14.167 -80.168 -27.5 -108.501s-33 -49.833 -59 -64.5c-22.667 -13.333 -50.334 -22.5 -83.001 -27.5s-75 -7.5 -127 -7.5h-145c-2.66699 0 -5.33398 4.83301 -8.00098 14.5s-4 20.5 -4 32.5v112c0 12.667 1.16699 23.667 3.5 33
s5.16602 14 8.49902 14c82 0 149.333 0.333008 202 1s88.334 2.33398 107.001 5.00098l3 47c-28 -6.66699 -60 -10 -96 -10s-67.333 4.66699 -94 14c-10 3.33301 -18.333 8.83301 -25 16.5s-15.667 20.834 -27 39.501c-11.333 19.333 -18.666 33.666 -21.999 42.999
s-4.66602 20 -3.99902 32c3.33301 88 22 159.333 56 214s83.667 82 149 82c38 0 72 -12.667 102 -38s53.667 -61.5 71 -108.5s26 -101.5 26 -163.5c0.666992 -70.667 -1.5 -128 -6.5 -172zM249 414.999c26.667 0 48.335 1 65.002 3c0 34 -7 60.167 -21 78.5
s-31.667 27.5 -53 27.5c-18.667 0 -33.834 -8.83301 -45.501 -26.5s-18.834 -44.167 -21.501 -79.5c20 -2 45.333 -3 76 -3z" />
    <glyph glyph-name="uni06A1.medi" unicode="&#x6a1;" horiz-adv-x="512" 
d="M520 192.5c2 -9 3.00195 -20.165 3.00195 -33.498v-112c0 -12.667 -1 -23.667 -3 -33s-4.66699 -14 -8 -14h-99c-35.333 0 -66.333 3.83301 -93 11.5s-50 22.167 -70 43.5c-22.667 -21.333 -48 -35.833 -76 -43.5s-61.667 -11.5 -101 -11.5h-73
c-2.66699 0 -5.33398 4.83301 -8.00098 14.5s-4 20.5 -4 32.5v112c0 12.667 1.16699 23.667 3.5 33s5.16602 14 8.49902 14h13h32c14 0 24.667 -1 32 -3c-6.66699 5.33301 -11.667 12.166 -15 20.499s-5 16.166 -5 23.499c0 36.667 11.5 76.667 34.5 120
s51.167 79.833 84.5 109.5s63.666 44.5 90.999 44.5c32.667 0 63.334 -12.667 92.001 -38s51.667 -59 69 -101s26 -86.667 26 -134c0 -10 -1 -18.667 -3 -26s-6 -14 -12 -20c11.333 2.66699 24.333 4 39 4h34c3.33301 0 6 -4.5 8 -13.5zM322.002 251.002
c-4 26 -11.667 48.167 -23 66.5s-23 27.5 -35 27.5c-7.33301 0 -17.5 -5.5 -30.5 -16.5s-24.5 -23.333 -34.5 -37s-15 -24.167 -15 -31.5c0 -8.66699 17.667 -27.667 53 -57z" />
    <glyph glyph-name="uni06A1.fina" unicode="&#x6a1;" horiz-adv-x="1048" 
d="M1056 192.5c2 -9 2.99902 -20.168 2.99902 -33.501v-112c0 -12.667 -1 -23.667 -3 -33s-4.66699 -14 -8 -14h-96c-36 0 -67.667 4.16699 -95 12.5s-51 23.5 -71 45.5c-14.667 -12.667 -28.667 -22.334 -42 -29.001c-24 -13.333 -50.333 -22.166 -79 -26.499
s-65 -6.5 -109 -6.5l-102 1c-79.333 0 -145.5 5.83301 -198.5 17.5s-94.667 33.834 -125 66.501s-45.5 79 -45.5 139c0 14.667 2.33301 39 7 73l26 156l124 -26l-22 -136c-2.66699 -11.333 -4 -20.333 -4 -27c0 -15.333 7.83301 -27 23.5 -35s40.5 -13.667 74.5 -17
s81 -5 141 -5l118 1c20 0 35 -1 45 -3c-12.667 12.667 -19 27 -19 43c0 36.667 11.333 76.334 34 119.001s50.334 78.667 83.001 108s62.667 44 90 44c32 0 62.167 -12.5 90.5 -37.5s51 -58.333 68 -100s25.5 -85.834 25.5 -132.501c0 -10 -1 -18.5 -3 -25.5
s-5.66699 -13.167 -11 -18.5c12 3.33301 24.667 5 38 5h34c3.33301 0 6 -4.5 8 -13.5zM859.999 246.999c-4.66699 26 -12.333 47.999 -23 65.999s-21.667 27 -33 27c-7.33301 0 -17.333 -5.33301 -30 -16s-24.167 -22.667 -34.5 -36s-15.5 -23.666 -15.5 -30.999
c0 -4.66699 4 -11 12 -19s21.333 -19.667 40 -35z" />
    <glyph glyph-name="uniFB51" unicode="&#x671;" horiz-adv-x="335" arabic-form="final" 
d="M244.5 769c-33 -10.667 -69.8311 -16 -110.498 -16c-51.333 0 -89 5.33301 -113 16s-36 27.667 -36 51v32c-1.33301 -2 -7 -10 -17 -24s-20 -32.333 -30 -55l-81 42c3.33301 17.333 14.5 39.5 33.5 66.5s42.667 50.167 71 69.5s58.166 28 89.499 26v-86
c3.33301 -2.66699 6.66602 -4 9.99902 -4c62 84 116.667 126 164 126c74.667 0 112 -45.333 112 -136c0 -27.333 -5.66699 -48.666 -17 -63.999c-17.333 -18.667 -42.5 -33.334 -75.5 -44.001zM182.502 899.5c-15.667 -7.66699 -30.833 -19.167 -45.5 -34.5
c40.667 0.666992 79.667 5.66699 117 15c-0.666992 12 -3.16699 20.167 -7.5 24.5s-11.833 6.5 -22.5 6.5c-12 0 -25.833 -3.83301 -41.5 -11.5zM343.003 192c2 -9.33301 3 -20.334 3 -33.001v-112c0 -12.667 -1.16699 -23.667 -3.5 -33s-4.83301 -14 -7.5 -14h-29
c-54 0 -97.667 7.83301 -131 23.5s-58.833 43.334 -76.5 83.001s-26.834 95.5 -27.501 167.5l-6 374l156 27l-1 -392c-1.33301 -51.333 20.334 -77 65.001 -77h50c3.33301 0 6 -4.66699 8 -14z" />
    <glyph glyph-name="uniFB57" unicode="&#x67e;" horiz-adv-x="942" arabic-form="final" 
d="M949 192.5c2 -9 3.00293 -20.1689 3.00293 -33.502v-112c0 -12.667 -1 -23.667 -3 -33s-4.33301 -14 -7 -14c-44 0 -81.833 6.16699 -113.5 18.5s-53.167 30.833 -64.5 55.5c-6 -11.333 -14.5 -21 -25.5 -29s-26.5 -15 -46.5 -21
c-26.667 -8 -61.334 -14.667 -104.001 -20s-87.334 -8 -134.001 -8c-79.333 0 -145.5 6 -198.5 18s-94.667 34.333 -125 67s-45.5 79 -45.5 139c0 14 2.33301 38 7 72l26 156l124 -25l-22 -136c-2.66699 -11.333 -4 -20.333 -4 -27c0 -15.333 7.83301 -27.166 23.5 -35.499
s40.667 -14.166 75 -17.499s81.166 -5 140.499 -5c100 0 187.667 7.33301 263 22l-19 143l152 17l8 -169c22 -6 49.667 -9 83 -9c2.66699 0 5 -4.5 7 -13.5zM565.003 -113.002l112 -94l-95 -113l-109 93l-83 -100l-113 94l95 113l110 -91zM474.003 -289.002l113 -95
l-94 -112l-113 95z" />
    <glyph glyph-name="uniFB58" unicode="&#x67e;" horiz-adv-x="393" arabic-form="initial" 
d="M-8 14.5c-2.66699 9.66699 -3.99902 20.499 -3.99902 32.499v112c0 12.667 1.16699 23.667 3.5 33s5.16602 14 8.49902 14c45.333 0 80.333 1.5 105 4.5s44.667 7.5 60 13.5l-26 210l156 27c4.66699 -55.333 8 -100.666 10 -135.999s3 -78.333 3 -129
c0 -62.667 -23.333 -110.667 -70 -144c-49.333 -34.667 -128.666 -52 -237.999 -52c-2.66699 -0 -5.33398 4.83301 -8.00098 14.5zM28.001 -322.001l-113 94l95 113l110 -91l83 99l112 -95l-95 -113l-109 93zM112.001 -284.001l113 -95l-94 -112l-112 95z" />
    <glyph glyph-name="uniFB59" unicode="&#x67e;" horiz-adv-x="432" arabic-form="medial" 
d="M439 192.5c2 -9 3.00391 -20.166 3.00391 -33.499v-112c0 -12.667 -1 -23.667 -3 -33s-4.33301 -14 -7 -14c-66 0 -114.333 5.16699 -145 15.5s-51.667 29.166 -63 56.499c-9.33301 -19.333 -22.333 -34.166 -39 -44.499s-39.167 -17.5 -67.5 -21.5s-67.5 -6 -117.5 -6
c-2.66699 0 -5.33398 4.83301 -8.00098 14.5s-4 20.5 -4 32.5v112c0 12.667 1.16699 23.667 3.5 33s5.16602 14 8.49902 14c43.333 0 76.666 1.16699 99.999 3.5s42.666 7.16602 57.999 14.499l-23 175l155 17l7 -200c11.333 -4 26.333 -6.66699 45 -8s48.667 -2 90 -2
c2.66699 0 5 -4.5 7 -13.5zM234.004 -106.999l112 -95l-95 -113l-110 93l-82 -100l-113 94l95 113l110 -91zM143.004 -283.999l113 -95l-94 -112l-113 95z" />
    <glyph glyph-name="uniFB7B" unicode="&#x686;" horiz-adv-x="813" arabic-form="final" 
d="M821 192c2 -9.33301 2.99609 -20.334 2.99609 -33.001v-112c0 -12.667 -1.16699 -23.667 -3.5 -33s-4.83301 -14 -7.5 -14h-105c-49.333 0 -89.166 6 -119.499 18s-54.666 30.5 -72.999 55.5s-34.833 59.5 -49.5 103.5c-50 -29.333 -95.333 -61.166 -136 -95.499
s-70.334 -65.833 -89.001 -94.5c-1.33301 -24 -2 -40.333 -2 -49c0 -42 7.16699 -75.167 21.5 -99.5s37.333 -41.666 69 -51.999s74.834 -15.5 129.501 -15.5h224l-42 -209h-199c-116 0 -205.667 29.667 -269 89s-95 146 -95 260c0 84 27.167 161.667 81.5 233
s129.833 132.666 226.5 183.999c19.333 10 36 18 50 24l-53 16c-58 16.667 -96.333 25 -115 25c-19.333 0 -32.666 -5 -39.999 -15s-13 -24.333 -17 -43l-121 21c10 63.333 28.333 113 55 149s64 54 112 54c24 0 49 -3.33301 75 -10s59.333 -17 100 -31l26 -9
c58.667 -20 109.834 -35.167 153.501 -45.5s90.167 -15.5 139.5 -15.5l-42 -180c-42 -4.66699 -89.333 -18 -142 -40c12.667 -9.33301 27 -15.333 43 -18s40 -4 72 -4h131c3.33301 0 6 -4.66699 8 -14zM518.996 -31.001l-52 -61l-60 50l-45 -54l-61 51l52 62l60 -50l45 53z
M407.996 -76.001l62 -51l-51 -62l-62 52z" />
    <glyph glyph-name="uniFB7C" unicode="&#x686;" horiz-adv-x="761" arabic-form="initial" 
d="M578.5 416.5c43 -11 88.168 -16.498 135.501 -16.498l-42 -197c-36.667 -4 -69.167 -12.167 -97.5 -24.5s-64.833 -30.833 -109.5 -55.5c-41.333 -23.333 -71.333 -39.666 -90 -48.999c-50 -24.667 -102.167 -43.167 -156.5 -55.5s-119.166 -18.5 -194.499 -18.5h-24
c-2.66699 0 -5.33398 4.83301 -8.00098 14.5s-4 20.5 -4 32.5v112c0 12.667 1.16699 23.667 3.5 33s5.16602 14 8.49902 14h24c82.667 0 165.334 8.66699 248.001 26c28 6 65.667 17.667 113 35c25.333 9.33301 43.666 15.666 54.999 18.999l14 3v0
c-15.333 3.33301 -43 12.666 -83 27.999c-65.333 24 -109.333 36 -132 36c-18.667 0 -31.667 -5.16699 -39 -15.5s-13 -24.833 -17 -43.5l-120 22c20 135.333 75 203 165 203c29.333 0 58.333 -4.33301 87 -13s70 -23.334 124 -44.001c50 -19.333 96.5 -34.5 139.5 -45.5z
M434.001 -98.998l113 -95l-95 -113l-110 93l-83 -100l-112 94l95 113l110 -91zM343.001 -275.998l113 -95l-94 -112l-112 95z" />
    <glyph glyph-name="uniFB7D" unicode="&#x686;" horiz-adv-x="778" arabic-form="medial" 
d="M786 192.5c2 -9 3.00391 -20.1689 3.00391 -33.502v-112c0 -12.667 -1 -23.667 -3 -33s-4.66699 -14 -8 -14h-170c-46.667 0 -91.834 5.5 -135.501 16.5s-73.167 33.833 -88.5 68.5c-50.667 -27.333 -103.667 -48.333 -159 -63s-122.333 -22 -201 -22h-24
c-2.66699 0 -5.33398 4.83301 -8.00098 14.5s-4 20.5 -4 32.5v112c0 12.667 1.16699 23.667 3.5 33s5.16602 14 8.49902 14h24c82.667 0 165.334 8.66699 248.001 26c18 4 35.167 9.16699 51.5 15.5s36.166 14.5 59.499 24.5c26.667 12 45.667 19.333 57 22l16 4h-2
c-4 0.666992 -24 6.33398 -60 17.001l-40 12c-58.667 17.333 -97 26 -115 26c-18.667 0 -31.667 -5.16699 -39 -15.5s-13 -24.833 -17 -43.5l-120 22c20 135.333 75 203 165 203c26.667 0 53.667 -3.66699 81 -11s62 -18.666 104 -33.999
c60.667 -21.333 113.167 -37.5 157.5 -48.5s92.166 -16.5 143.499 -16.5l-39 -173c-38.667 -4.66699 -81 -21 -127 -49c55.333 12.667 115 19 179 19h51c3.33301 0 6 -4.5 8 -13.5zM433.004 -100.002l113 -94l-95 -114l-110 93l-82 -100l-113 94l95 114l110 -92z
M342.004 -277.002l113 -95l-93 -112l-113 95z" />
    <glyph glyph-name="uniFB8B" unicode="&#x698;" horiz-adv-x="446" arabic-form="final" 
d="M198 648l-113 94l95 112l113 -93zM109 467l-113 95l95 115l110 -93l82 98l113 -93l-94 -113l-111 92zM454 192c2 -9.33301 2.99707 -20.334 2.99707 -33.001v-112c0 -12.667 -1.16699 -23.667 -3.5 -33s-4.83301 -14 -7.5 -14h-17c-34.667 0 -63 14 -85 42
c-4 -50.667 -16.167 -96.5 -36.5 -137.5s-53 -80.833 -98 -119.5s-105.833 -78 -182.5 -118l-108 159c64.667 31.333 116 59 154 83s66.667 46.167 86 66.5s35 42.166 47 65.499l-43 313l158 34c2.66699 -18 4.33398 -32 5.00098 -42l9 -73
c2.66699 -21.333 7.33398 -36.666 14.001 -45.999s16.334 -15.166 29.001 -17.499s33 -3.5 61 -3.5h7c3.33301 0 6 -4.66699 8 -14z" />
    <glyph glyph-name="uniFB8F" unicode="&#x6a9;" horiz-adv-x="960" arabic-form="final" 
d="M968 192c2 -9.33301 3.00391 -20.332 3.00391 -32.999v-112c0 -12.667 -1.16699 -23.667 -3.5 -33s-4.83301 -14 -7.5 -14h-78c-39.333 0 -71.333 15 -96 45c-30.667 -17.333 -71.834 -29.833 -123.501 -37.5s-115.834 -11.5 -192.501 -11.5
c-84 0 -153.333 5.66699 -208 17s-97.834 33.333 -129.501 66s-47.5 79.667 -47.5 141c0 14 2.33301 38 7 72l26 156l124 -25l-22 -136c-2.66699 -11.333 -4 -20.333 -4 -27c0 -15.333 7.83301 -27.166 23.5 -35.499s40.667 -14.166 75 -17.499s81.166 -5 140.499 -5
c109.333 0 197.666 6.33301 264.999 19c-7.33301 48.667 -33.666 98.167 -78.999 148.5s-105.333 99.166 -180 146.499l1 154c129.333 69.333 254 124.666 374 165.999l21 -168l-223 -90c14 -6.66699 27 -15.334 39 -26.001c53.333 -44.667 95.833 -95.167 127.5 -151.5
s50.5 -117.5 56.5 -183.5c3.33301 -4.66699 8 -7.66699 14 -9s16.333 -2 31 -2h58c3.33301 0 6 -4.66699 8 -14z" />
    <glyph glyph-name="uniFB90" unicode="&#x6a9;" horiz-adv-x="494" arabic-form="initial" 
d="M363.5 381c32.333 -64 48.502 -134.001 48.502 -210.001c0 -43.333 -14.167 -77.5 -42.5 -102.5s-72.333 -42.833 -132 -53.5s-138.834 -15.667 -237.501 -15c-2.66699 0 -5.33398 4.83301 -8.00098 14.5s-4 20.5 -4 32.5v112c0 12.667 1.16699 23.667 3.5 33
s5.16602 14 8.49902 14c113.333 -0.666992 203.333 4 270 14c-8 50 -34.333 100.167 -79 150.5s-104 98.833 -178 145.5l2 154c126.667 68.667 251.334 124 374.001 166l21 -168l-37 -15l-79.5 -32l-106.5 -44c13.333 -5.33301 26 -13.666 38 -24.999
c60 -50 106.167 -107 138.5 -171z" />
    <glyph glyph-name="uniFB91" unicode="&#x6a9;" horiz-adv-x="515" arabic-form="medial" 
d="M523 192.5c2 -9 2.99902 -20.168 2.99902 -33.501v-112c0 -12.667 -1 -23.667 -3 -33s-4.66699 -14 -8 -14h-66c-45.333 0 -79 17.333 -101 52c-31.333 -19.333 -75.166 -33 -131.499 -41s-128.5 -11.667 -216.5 -11c-2.66699 0 -5.33398 4.83301 -8.00098 14.5
s-4 20.5 -4 32.5v112c0 12.667 1.16699 23.667 3.5 33s5.16602 14 8.49902 14c113.333 -0.666992 203.333 4 270 14c-8 50 -34.333 100.167 -79 150.5s-104 98.833 -178 145.5l2 154c126.667 68.667 251.334 124 374.001 166l21 -168l-37 -15l-79.5 -32l-106.5 -44
c13.333 -5.33301 26 -13.666 38 -24.999c110 -91.333 171.333 -201 184 -329c4 -8 8.83301 -12.833 14.5 -14.5s16.834 -2.5 33.501 -2.5h58c3.33301 0 6 -4.5 8 -13.5z" />
    <glyph glyph-name="uniFB93" unicode="&#x6af;" horiz-adv-x="960" arabic-form="final" 
d="M686 801l-112.001 -52c-49.333 -24 -86.666 -41.667 -111.999 -53l1 109l51 23l164 72zM967.999 192c2 -9.33301 3.00391 -20.332 3.00391 -32.999v-112c0 -12.667 -1.16699 -23.667 -3.5 -33s-4.83301 -14 -7.5 -14h-78c-39.333 0 -71.333 15 -96 45
c-30.667 -17.333 -71.834 -29.833 -123.501 -37.5s-115.834 -11.5 -192.501 -11.5c-84 0 -153.333 5.66699 -208 17s-97.834 33.333 -129.501 66s-47.5 79.667 -47.5 141c0 14 2.33301 38 7 72l26 156l124 -25l-22 -136c-2.66699 -11.333 -4 -20.333 -4 -27
c0 -15.333 7.83301 -27.166 23.5 -35.499s40.667 -14.166 75 -17.499s81.166 -5 140.499 -5c109.333 0 197.666 6.33301 264.999 19c-7.33301 48.667 -33.666 98.167 -78.999 148.5s-105.333 99.166 -180 146.499l1 154c129.333 69.333 254 124.666 374 165.999l21 -168
l-223 -90c14 -6.66699 27 -15.334 39 -26.001c53.333 -44.667 95.833 -95.167 127.5 -151.5s50.5 -117.5 56.5 -183.5c3.33301 -4.66699 8 -7.66699 14 -9s16.333 -2 31 -2h58c3.33301 0 6 -4.66699 8 -14z" />
    <glyph glyph-name="uniFB94" unicode="&#x6af;" horiz-adv-x="494" arabic-form="initial" 
d="M239 801l-120 -56c-12 -6 -46.333 -22.333 -103 -49l1 109l51 23l164 72zM363.5 381c32.333 -64 48.502 -134.001 48.502 -210.001c0 -43.333 -14.167 -77.5 -42.5 -102.5s-72.333 -42.833 -132 -53.5s-138.834 -15.667 -237.501 -15
c-2.66699 0 -5.33398 4.83301 -8.00098 14.5s-4 20.5 -4 32.5v112c0 12.667 1.16699 23.667 3.5 33s5.16602 14 8.49902 14c113.333 -0.666992 203.333 4 270 14c-8 50 -34.333 100.167 -79 150.5s-104 98.833 -178 145.5l2 154c126.667 68.667 251.334 124 374.001 166
l21 -168l-37 -15l-79.5 -32l-106.5 -44c13.333 -5.33301 26 -13.666 38 -24.999c60 -50 106.167 -107 138.5 -171z" />
    <glyph glyph-name="uniFB95" unicode="&#x6af;" horiz-adv-x="515" arabic-form="medial" 
d="M239 801l-120 -56c-12 -6 -46.333 -22.333 -103 -49l1 109l51 23l164 72zM523 192.5c2 -9 2.99902 -20.168 2.99902 -33.501v-112c0 -12.667 -1 -23.667 -3 -33s-4.66699 -14 -8 -14h-66c-45.333 0 -79 17.333 -101 52c-31.333 -19.333 -75.166 -33 -131.499 -41
s-128.5 -11.667 -216.5 -11c-2.66699 0 -5.33398 4.83301 -8.00098 14.5s-4 20.5 -4 32.5v112c0 12.667 1.16699 23.667 3.5 33s5.16602 14 8.49902 14c113.333 -0.666992 203.333 4 270 14c-8 50 -34.333 100.167 -79 150.5s-104 98.833 -178 145.5l2 154
c126.667 68.667 251.334 124 374.001 166l21 -168l-37 -15l-79.5 -32l-106.5 -44c13.333 -5.33301 26 -13.666 38 -24.999c110 -91.333 171.333 -201 184 -329c4 -8 8.83301 -12.833 14.5 -14.5s16.834 -2.5 33.501 -2.5h58c3.33301 0 6 -4.5 8 -13.5z" />
    <glyph glyph-name="uniFB9F" unicode="&#x6ba;" horiz-adv-x="816" arabic-form="final" 
d="M824 192.5c2 -9 2.99902 -20.166 2.99902 -33.499v-112c0 -12.667 -1 -23.667 -3 -33s-4.66699 -14 -8 -14h-10c-53.333 0 -91.333 17.667 -114 53c2.66699 -34.667 4 -70 4 -106c0 -45.333 -18.833 -82 -56.5 -110s-82 -48.167 -133 -60.5s-98.167 -18.5 -141.5 -18.5
c-98 0 -169.167 19 -213.5 57s-66.5 92.667 -66.5 164c0 31.333 4.83301 77.166 14.5 137.499s22.167 132.5 37.5 216.5l126 -26c-26 -142.667 -39.333 -236.667 -40 -282c0 -40.667 46.667 -61 140 -61c40.667 0 76.334 2.16699 107.001 6.5s58.667 11.5 84 21.5l-47 367
l154 34l16 -155c6.66699 -14.667 18.667 -23.667 36 -27s48.333 -5 93 -5h10c3.33301 0 6 -4.5 8 -13.5z" />
    <glyph glyph-name="uniFBA5" unicode="&#x6c0;" horiz-adv-x="579" arabic-form="final" 
d="M375.5 671.5c-38.333 -27.667 -91.835 -41.499 -160.502 -41.499l13 112c61.333 -0.666992 108 6.33301 140 21l0.5 1c0.333008 0.666992 0 1.16699 -1 1.5s-2.5 0.5 -4.5 0.5c-30.667 4 -54.167 8 -70.5 12s-29.166 10.5 -38.499 19.5s-14 21.833 -14 38.5
c0 27.333 6 55.833 18 85.5s27.333 54.5 46 74.5s37 30 55 30c16.667 0 32.167 -5.33301 46.5 -16s29.833 -30 46.5 -58l-47 -48c-16 16 -30.333 24 -43 24c-19.333 0 -34 -18.333 -44 -55c26.667 -2.66699 47.834 -6.5 63.501 -11.5s28.167 -13.833 37.5 -26.5
s14 -31.334 14 -56.001c0 -44 -19.167 -79.833 -57.5 -107.5zM581.998 192.501c2 -9 3 -20.167 3 -33.5v-112c0 -12.667 -1 -23.667 -3 -33s-4.66699 -14 -8 -14h-58c-36.667 0 -66.834 8.66699 -90.501 26s-40.167 41.666 -49.5 72.999l-5 -12
c-10 -20 -24.667 -32.333 -44 -37c-28 -5.33301 -64 -8 -108 -8c-44.667 0 -79 11 -103 33s-36 54.333 -36 97c0 54.667 5.5 97.834 16.5 129.501s31.167 60.167 60.5 85.5s75 54.333 137 87l-8 77l146 44l31 -299c2.66699 -24.667 5.33398 -42.5 8.00098 -53.5
s8.5 -19.833 17.5 -26.5s23.167 -10 42.5 -10h43c3.33301 0 6 -4.5 8 -13.5zM337.998 238.001l-13 91c-42 -18 -71.667 -35.167 -89 -51.5s-28.333 -33.833 -33 -52.5c13.333 -1.33301 26.333 -2 39 -2c28.667 0 60.667 5 96 15z" />
    <glyph glyph-name="uniFBFD" unicode="&#x6cc;" horiz-adv-x="778" arabic-form="final" 
d="M786 192c2 -9.33301 3 -20.333 3 -33v-112c0 -12.667 -1.16699 -23.667 -3.5 -33s-4.83301 -14 -7.5 -14l-32 1v-14c0 -51.333 -15.667 -97 -47 -137s-75.833 -71.333 -133.5 -94s-124.5 -34 -200.5 -34c-101.333 0 -173.333 18.667 -216 56s-64 92 -64 164
c0 49.333 17.333 167.333 52 354l126 -26c-26 -142.667 -39.333 -236.667 -40 -282c0 -24 14.167 -40 42.5 -48s66.833 -12 115.5 -12c50.667 0 96.334 3.83301 137.001 11.5s73 19.167 97 34.5c-4 11.333 -15.833 19 -35.5 23s-48.834 6.66699 -87.501 8h-28l32 201h282
c3.33301 0 6 -4.66699 8 -14z" />
    <glyph glyph-name="uniFBFE" unicode="&#x6cc;" horiz-adv-x="391" arabic-form="initial" 
d="M-8 14.5c-2.66699 9.66699 -3.99902 20.499 -3.99902 32.499v112c0 12.667 1.16699 23.667 3.5 33s5.16602 14 8.49902 14c45.333 0 80.333 1.5 105 4.5s44.667 7.5 60 13.5l-26 210l156 27c4.66699 -55.333 8 -100.666 10 -135.999s3 -78.333 3 -129
c0 -62.667 -23.333 -110.667 -70 -144c-49.333 -34.667 -128.666 -52 -237.999 -52c-2.66699 -0 -5.33398 4.83301 -8.00098 14.5zM241.001 -330.001l-116 97l-87 -106l-119 99l99 121l117 -98l87 105l119 -100z" />
    <glyph glyph-name="uniFBFF" unicode="&#x6cc;" horiz-adv-x="432" arabic-form="medial" 
d="M439 192.5c2 -9 3.00391 -20.166 3.00391 -33.499v-112c0 -12.667 -1 -23.667 -3 -33s-4.33301 -14 -7 -14c-66 0 -114.333 5.16699 -145 15.5s-51.667 29.166 -63 56.499c-9.33301 -19.333 -22.333 -34.166 -39 -44.499s-39.167 -17.5 -67.5 -21.5s-67.5 -6 -117.5 -6
c-2.66699 0 -5.33398 4.83301 -8.00098 14.5s-4 20.5 -4 32.5v112c0 12.667 1.16699 23.667 3.5 33s5.16602 14 8.49902 14c43.333 0 76.666 1.16699 99.999 3.5s42.666 7.16602 57.999 14.499l-23 175l155 17l7 -200c11.333 -4 26.333 -6.66699 45 -8s48.667 -2 90 -2
c2.66699 0 5 -4.5 7 -13.5zM261.004 -111.999l119 -100l-100 -118l-116 97l-88 -106l-119 99l100 121l116 -98z" />
    <glyph glyph-name="uniFDFC" unicode="&#xfdfc;" horiz-adv-x="1774" arabic-form="isolated" 
d="M693 -53c0 -44.667 -18.5 -81.001 -55.5 -109.001s-81.167 -48.167 -132.5 -60.5s-100 -18.833 -146 -19.5c-98.667 0 -169 18.667 -211 56s-63 92.333 -63 165c0 44.667 17.333 160.334 52 347.001l126 -25c-26 -144 -39.333 -238 -40 -282
c0 -21.333 13.833 -35.833 41.5 -43.5s58.5 -11.5 92.5 -11.5c42 0.666992 78.833 3.16699 110.5 7.5s63.167 10.833 94.5 19.5l-53 766l155 27zM904 22.999c-40 15.333 -68.832 42.8311 -86.499 82.498s-27.834 97.834 -30.501 174.501l-16 477l155 27l-3 -499
c-0.666992 -23.333 3.5 -42.333 12.5 -57s24.5 -22 46.5 -22h95c63.333 0 118.333 4.66699 165 14l-27 231l151 28c6 -50.667 10.667 -97.667 14 -141s5 -90.666 5 -141.999c0 -62.667 -23.667 -110.667 -71 -144c-50 -34.667 -129 -52 -237 -52
c-75.333 0 -133 7.66699 -173 23zM1682.5 208.997c4.33301 -46 6.50098 -88.333 6.50098 -127c0 -56 -6.83301 -103.167 -20.5 -141.5s-37 -75.5 -70 -111.5s-82.167 -79.667 -147.5 -131l-138 137c68 46 118.5 83.5 151.5 112.5s60.833 60.167 83.5 93.5l-44 313l158 34
c9.33301 -73.333 16.166 -133 20.499 -179zM1123 -115.003l119 -99l-100 -119l-116 97l-88 -106l-119 100l100 120l116 -97z" />
    <glyph glyph-name="uniFE82" unicode="&#x622;" horiz-adv-x="351" arabic-form="final" 
d="M115 765c-16 2.66699 -26.001 4.00098 -30.001 4.00098c-7.33301 0 -13.333 -2.83301 -18 -8.5s-9.66699 -18.834 -15 -39.501l-112 27c11.333 48 23.333 85 36 111s27.5 44.333 44.5 55s38.167 16 63.5 16c12.667 0 30.667 -1.66699 54 -5
c48.667 -7.33301 93.667 -11 135 -11h84l-36 -159h-73c-45.333 0 -89.666 3.33301 -132.999 10zM358.999 192.501c2 -9 2.99902 -20.168 2.99902 -33.501v-112c0 -12.667 -1 -23.667 -3 -33s-4.66699 -14 -8 -14h-29c-53.333 -0 -96.666 7.83301 -129.999 23.5
s-58.833 43.334 -76.5 83.001s-27.167 95.5 -28.5 167.5l-5 374l155 27l-1 -392c0 -24 5 -42.833 15 -56.5s27 -20.5 51 -20.5h49c3.33301 0 6 -4.5 8 -13.5z" />
    <glyph glyph-name="uniFE84" unicode="&#x623;" horiz-adv-x="335" arabic-form="final" 
d="M279 820l-350.998 -89.001l-18 118l95 25c-13.333 34 -20 65 -20 93c0 40.667 12.667 73.167 38 97.5s59.666 36.5 102.999 36.5c10.667 0 19 -0.333008 25 -1c13.333 -0.666992 30.666 -4 51.999 -10l-27 -116c-18 4.66699 -33 7.33398 -45 8.00098
c-12 1.33301 -20.667 2 -26 2c-6 0 -13.667 -0.666992 -23 -2c0 -26 7.33301 -53.333 22 -82l159 40zM343.002 191.999c2 -9.33301 3 -20.334 3 -33.001v-112c0 -12.667 -1.16699 -23.667 -3.5 -33s-4.83301 -14 -7.5 -14h-29c-54 0 -97.667 7.83301 -131 23.5
s-58.833 43.334 -76.5 83.001s-26.834 95.5 -27.501 167.5l-6 374l156 27l-1 -392c-1.33301 -51.333 20.334 -77 65.001 -77h50c3.33301 0 6 -4.66699 8 -14z" />
    <glyph glyph-name="uniFE86" unicode="&#x624;" horiz-adv-x="521" arabic-form="final" 
d="M30 617l95.002 23.998c-13.333 32.667 -20 63.667 -20 93c0 10 0.333008 17.333 1 22c3.33301 34 17.166 61.333 41.499 82s56.166 31 95.499 31c6 0 15 -0.666992 27 -2c14 -0.666992 31.667 -4 53 -10l-27 -115c-20 4.66699 -35.333 7.33398 -46 8.00098
c-5.33301 0.666992 -13 1 -23 1c-12 0 -20.333 -0.666992 -25 -2c0 -25.333 7.33301 -52.666 22 -81.999l158 40l16 -119l-351 -89zM528.002 192.498c2 -9 3.00391 -20.1689 3.00391 -33.502v-112c0 -12.667 -1 -23.667 -3 -33s-4.33301 -14 -7 -14h-74
c-36.667 -134.667 -142 -240 -316 -316l-104 159c60 20.667 114.667 46 164 76s87 59.667 113 89c-22.667 -5.33301 -46.334 -8 -71.001 -8c-38.667 0 -70 4.66699 -94 14c-10 2.66699 -18.333 7.83398 -25 15.501s-16 21.5 -28 41.5
c-10.667 18 -17.834 32.167 -21.501 42.5s-5.16699 20.5 -4.5 30.5c4 88.667 23 160.334 57 215.001s83.333 82 148 82c49.333 0 91.666 -21 126.999 -63s57.666 -99.333 66.999 -172h62c2.66699 0 5 -4.5 7 -13.5zM266.006 164.996c27.333 0 48.667 1.33301 64 4
c0 34 -6.83301 60.167 -20.5 78.5s-31.5 27.5 -53.5 27.5c-18.667 0 -33.667 -9 -45 -27s-18.333 -44.333 -21 -79c18 -2.66699 43.333 -4 76 -4z" />
    <glyph glyph-name="uniFE88" unicode="&#x625;" horiz-adv-x="337" arabic-form="final" 
d="M345 192.5c2 -9 2.99902 -20.168 2.99902 -33.501v-112c0 -12.667 -1 -23.667 -3 -33s-4.66699 -14 -8 -14h-30c-53.333 0 -96.666 7.83301 -129.999 23.5s-59 43.334 -77 83.001s-27.333 95.5 -28 167.5l-5 483l156 27l-1 -501c0 -24 4.83301 -42.833 14.5 -56.5
s26.5 -20.5 50.5 -20.5h50c3.33301 0 6 -4.5 8 -13.5zM304.999 -255.001l16.001 -119.001l-351 -89l-17 118l94 24c-13.333 34 -20 65.333 -20 94c0 40.667 12.5 73.167 37.5 97.5s58.833 36.5 101.5 36.5c6 0 15 -0.666992 27 -2c13.333 -0.666992 30.666 -4 51.999 -10
l-27 -115c-4.66699 0.666992 -11.667 2 -21 4s-17.333 3.33301 -24 4c-5.33301 0.666992 -13.333 1 -24 1c-12 0 -20.333 -0.666992 -25 -2c0 -25.333 7.33301 -52.666 22 -81.999z" />
    <glyph glyph-name="uniFE8A" unicode="&#x626;" horiz-adv-x="778" arabic-form="final" 
d="M399 486l-350.998 -90.002l-17 118l95 25c-13.333 32.667 -20 63.334 -20 92.001c0 10 0.333008 17.667 1 23c3.33301 34 17.166 61.333 41.499 82s56.166 31 95.499 31c6 0 15 -0.666992 27 -2c14 -0.666992 31.667 -4 53 -10l-27 -116
c-19.333 4.66699 -34.666 7.66699 -45.999 9c-4.66699 0.666992 -11.334 1 -20.001 1c-7.33301 0 -17 -0.666992 -29 -2c0 -25.333 7.66699 -52.666 23 -81.999l158 40zM786.002 191.998c2 -9.33301 3 -20.333 3 -33v-112c0 -12.667 -1.16699 -23.667 -3.5 -33
s-4.83301 -14 -7.5 -14l-32 1v-14c0 -51.333 -15.667 -97 -47 -137s-75.833 -71.333 -133.5 -94s-124.5 -34 -200.5 -34c-101.333 0 -173.333 18.667 -216 56s-64 92 -64 164c0 49.333 17.333 167.333 52 354l126 -26c-26 -142.667 -39.333 -236.667 -40 -282
c0 -24 14.167 -40 42.5 -48s66.833 -12 115.5 -12c50.667 0 96.334 3.83301 137.001 11.5s73 19.167 97 34.5c-4 11.333 -15.833 19 -35.5 23s-48.834 6.66699 -87.501 8h-28l32 201h282c3.33301 0 6 -4.66699 8 -14z" />
    <glyph glyph-name="uniFE8B" unicode="&#x626;" horiz-adv-x="393" arabic-form="initial" 
d="M328 576l-350.997 -90.001l-17 119l94 24c-13.333 34 -20 65.333 -20 94c0 40.667 12.5 73.167 37.5 97.5s58.833 36.5 101.5 36.5c6 0 15 -0.666992 27 -2c13.333 -0.666992 30.666 -4 51.999 -10l-27 -116c-17.333 4 -32.333 7 -45 9
c-4.66699 0.666992 -11.334 1 -20.001 1s-18.334 -0.666992 -29.001 -2c0 -25.333 7.33301 -52.666 22 -81.999l159 40zM295.003 460.999c4.66699 -55.333 8.00098 -100.667 10.001 -136s3 -78.333 3 -129c0 -62.667 -23.333 -110.667 -70 -144
c-49.333 -34.667 -128.666 -52 -237.999 -52c-2.66699 0 -5.33398 4.83301 -8.00098 14.5s-4 20.5 -4 32.5v112c0 12.667 1.16699 23.667 3.5 33s5.16602 14 8.49902 14c45.333 0 80.333 1.5 105 4.5s44.667 7.5 60 13.5l-26 210z" />
    <glyph glyph-name="uniFE8C" unicode="&#x626;" horiz-adv-x="432" arabic-form="medial" 
d="M14 622l95.0029 23.999c-14 33.333 -21 65 -21 95c0 40 12.5 72.167 37.5 96.5s58.833 36.5 101.5 36.5c6 0 15 -0.666992 27 -2c13.333 -0.666992 30.666 -4 51.999 -10l-27 -115c-4.66699 0.666992 -11.667 2 -21 4s-17.333 3.33301 -24 4
c-4.66699 0.666992 -11.334 1 -20.001 1s-18.334 -0.666992 -29.001 -2c0 -23.333 7.33301 -50.666 22 -81.999l159 40l16 -119l-351 -90zM439.003 192.499c2 -9 3.00391 -20.166 3.00391 -33.499v-112c0 -12.667 -1 -23.667 -3 -33s-4.33301 -14 -7 -14
c-66 0 -114.333 5.16699 -145 15.5s-51.667 29.166 -63 56.499c-9.33301 -19.333 -22.333 -34.166 -39 -44.499s-39.167 -17.5 -67.5 -21.5s-67.5 -6 -117.5 -6c-2.66699 -0 -5.33398 4.83301 -8.00098 14.5s-4 20.5 -4 32.5v112c0 12.667 1.16699 23.667 3.5 33
s5.16602 14 8.49902 14c43.333 0 76.666 1.16699 99.999 3.5s42.666 7.16602 57.999 14.499l-23 175l155 17l7 -200c11.333 -4 26.333 -6.66699 45 -8s48.667 -2 90 -2c2.66699 0 5 -4.5 7 -13.5z" />
    <glyph glyph-name="uniFE8E" unicode="&#x627;" horiz-adv-x="337" arabic-form="final" 
d="M345 192.5c2 -9 2.99902 -20.168 2.99902 -33.501v-112c0 -12.667 -1 -23.667 -3 -33s-4.66699 -14 -8 -14h-30c-53.333 0 -96.666 7.83301 -129.999 23.5s-59 43.334 -77 83.001s-27.333 95.5 -28 167.5l-5 483l156 27l-1 -501c0 -24 4.83301 -42.833 14.5 -56.5
s26.5 -20.5 50.5 -20.5h50c3.33301 0 6 -4.5 8 -13.5z" />
    <glyph glyph-name="uniFE90" unicode="&#x628;" horiz-adv-x="942" arabic-form="final" 
d="M949 192.5c2 -9 3.00293 -20.1689 3.00293 -33.502v-112c0 -12.667 -1 -23.667 -3 -33s-4.33301 -14 -7 -14c-44 0 -81.833 6.16699 -113.5 18.5s-53.167 30.833 -64.5 55.5c-6 -11.333 -14.5 -21 -25.5 -29s-26.5 -15 -46.5 -21
c-26.667 -8 -61.334 -14.667 -104.001 -20s-87.334 -8 -134.001 -8c-79.333 0 -145.5 6 -198.5 18s-94.667 34.333 -125 67s-45.5 79 -45.5 139c0 14 2.33301 38 7 72l26 156l124 -25l-22 -136c-2.66699 -11.333 -4 -20.333 -4 -27c0 -15.333 7.83301 -27.166 23.5 -35.499
s40.667 -14.166 75 -17.499s81.166 -5 140.499 -5c100 0 187.667 7.33301 263 22l-19 143l152 17l8 -169c22 -6 49.667 -9 83 -9c2.66699 0 5 -4.5 7 -13.5zM443.003 -117.002l132 -110l-110 -131l-131 110z" />
    <glyph glyph-name="uniFE91" unicode="&#x628;" horiz-adv-x="393" arabic-form="initial" 
d="M305 325c2 -35.333 3.00098 -78.334 3.00098 -129.001c0 -62.667 -23.333 -110.667 -70 -144c-49.333 -34.667 -128.666 -52 -237.999 -52c-2.66699 0 -5.33398 4.83301 -8.00098 14.5s-4 20.5 -4 32.5v112c0 12.667 1.16699 23.667 3.5 33s5.16602 14 8.49902 14
c45.333 0 80.333 1.5 105 4.5s44.667 7.5 60 13.5l-26 210l156 27c4.66699 -55.333 8 -100.666 10 -135.999zM76.001 -117.001l131 -110l-110 -131l-130 110z" />
    <glyph glyph-name="uniFE92" unicode="&#x628;" horiz-adv-x="432" arabic-form="medial" 
d="M439 192.5c2 -9 3.00391 -20.166 3.00391 -33.499v-112c0 -12.667 -1 -23.667 -3 -33s-4.33301 -14 -7 -14c-66 0 -114.333 5.16699 -145 15.5s-51.667 29.166 -63 56.499c-9.33301 -19.333 -22.333 -34.166 -39 -44.499s-39.167 -17.5 -67.5 -21.5s-67.5 -6 -117.5 -6
c-2.66699 0 -5.33398 4.83301 -8.00098 14.5s-4 20.5 -4 32.5v112c0 12.667 1.16699 23.667 3.5 33s5.16602 14 8.49902 14c43.333 0 76.666 1.16699 99.999 3.5s42.666 7.16602 57.999 14.499l-23 175l155 17l7 -200c11.333 -4 26.333 -6.66699 45 -8s48.667 -2 90 -2
c2.66699 0 5 -4.5 7 -13.5zM156.004 -116.999l132 -110l-110 -131l-131 110z" />
    <glyph glyph-name="uniFE94" unicode="&#x629;" horiz-adv-x="575" arabic-form="final" 
d="M257 659l-119 100l99 119l116 -98l89 106l118 -100l-99 -118l-116 97zM583 192.5c2 -9 2.99707 -20.168 2.99707 -33.501v-112c0 -12.667 -1 -23.667 -3 -33s-4.66699 -14 -8 -14h-58c-37.333 0 -67.666 8.83301 -90.999 26.5s-39.666 42.167 -48.999 73.5l-6 -13
c-8.66699 -20 -23 -32.333 -43 -37c-28 -5.33301 -64.333 -8 -109 -8c-44 0 -78 11 -102 33s-36 54.333 -36 97c0 54.667 5.5 97.834 16.5 129.501s31.167 60.167 60.5 85.5s75 54.333 137 87l-8 77l146 44l31 -299c2.66699 -24.667 5.33398 -42.5 8.00098 -53.5
s8.5 -19.833 17.5 -26.5s23.167 -10 42.5 -10h43c3.33301 0 6 -4.5 8 -13.5zM337.997 237.999l-12 91c-42 -18 -71.667 -35.167 -89 -51.5s-28.333 -33.833 -33 -52.5c13.333 -1.33301 26.333 -2 39 -2c29.333 0 61 5 95 15z" />
    <glyph glyph-name="uniFE96" unicode="&#x62a;" horiz-adv-x="942" arabic-form="final" 
d="M405 449l-119 100l100 119l115 -97l89 105l119 -100l-100 -118l-115 97zM949 192.5c2 -9 3.00293 -20.1689 3.00293 -33.502v-112c0 -12.667 -1 -23.667 -3 -33s-4.33301 -14 -7 -14c-44 0 -81.833 6.16699 -113.5 18.5s-53.167 30.833 -64.5 55.5
c-6 -11.333 -14.5 -21 -25.5 -29s-26.5 -15 -46.5 -21c-26.667 -8 -61.334 -14.667 -104.001 -20s-87.334 -8 -134.001 -8c-79.333 0 -145.5 6 -198.5 18s-94.667 34.333 -125 67s-45.5 79 -45.5 139c0 14 2.33301 38 7 72l26 156l124 -25l-22 -136
c-2.66699 -11.333 -4 -20.333 -4 -27c0 -15.333 7.83301 -27.166 23.5 -35.499s40.667 -14.166 75 -17.499s81.166 -5 140.499 -5c100 0 187.667 7.33301 263 22l-19 143l152 17l8 -169c22 -6 49.667 -9 83 -9c2.66699 0 5 -4.5 7 -13.5z" />
    <glyph glyph-name="uniFE97" unicode="&#x62a;" horiz-adv-x="393" arabic-form="initial" 
d="M81 565l-119 99l99 119l116 -97l89 105l118 -100l-99 -118l-116 98zM295 461c4.66699 -55.333 8.00098 -100.667 10.001 -136s3 -78.333 3 -129c0 -62.667 -23.333 -110.667 -70 -144c-49.333 -34.667 -128.666 -52 -237.999 -52
c-2.66699 -0 -5.33398 4.83301 -8.00098 14.5s-4 20.5 -4 32.5v112c0 12.667 1.16699 23.667 3.5 33s5.16602 14 8.49902 14c45.333 0 80.333 1.5 105 4.5s44.667 7.5 60 13.5l-26 210z" />
    <glyph glyph-name="uniFE98" unicode="&#x62a;" horiz-adv-x="432" arabic-form="medial" 
d="M107 501l-119 100l100 119l116 -97l88 105l119 -100l-100 -118l-116 96zM439 192.5c2 -9 3.00391 -20.166 3.00391 -33.499v-112c0 -12.667 -1 -23.667 -3 -33s-4.33301 -14 -7 -14c-66 0 -114.333 5.16699 -145 15.5s-51.667 29.166 -63 56.499
c-9.33301 -19.333 -22.333 -34.166 -39 -44.499s-39.167 -17.5 -67.5 -21.5s-67.5 -6 -117.5 -6c-2.66699 0 -5.33398 4.83301 -8.00098 14.5s-4 20.5 -4 32.5v112c0 12.667 1.16699 23.667 3.5 33s5.16602 14 8.49902 14c43.333 0 76.666 1.16699 99.999 3.5
s42.666 7.16602 57.999 14.499l-23 175l155 17l7 -200c11.333 -4 26.333 -6.66699 45 -8s48.667 -2 90 -2c2.66699 0 5 -4.5 7 -13.5z" />
    <glyph glyph-name="uniFE9A" unicode="&#x62b;" horiz-adv-x="942" arabic-form="final" 
d="M495 636l-113 94l96 112l112 -94zM406 455l-113 95l95 114l109 -93l84 99l113 -94l-95 -112l-110 92zM949 192.5c2 -9 3.00293 -20.1689 3.00293 -33.502v-112c0 -12.667 -1 -23.667 -3 -33s-4.33301 -14 -7 -14c-44 0 -81.833 6.16699 -113.5 18.5
s-53.167 30.833 -64.5 55.5c-6 -11.333 -14.5 -21 -25.5 -29s-26.5 -15 -46.5 -21c-26.667 -8 -61.334 -14.667 -104.001 -20s-87.334 -8 -134.001 -8c-79.333 0 -145.5 6 -198.5 18s-94.667 34.333 -125 67s-45.5 79 -45.5 139c0 14 2.33301 38 7 72l26 156l124 -25
l-22 -136c-2.66699 -11.333 -4 -20.333 -4 -27c0 -15.333 7.83301 -27.166 23.5 -35.499s40.667 -14.166 75 -17.499s81.166 -5 140.499 -5c100 0 187.667 7.33301 263 22l-19 143l152 17l8 -169c22 -6 49.667 -9 83 -9c2.66699 0 5 -4.5 7 -13.5z" />
    <glyph glyph-name="uniFE9B" unicode="&#x62b;" horiz-adv-x="393" arabic-form="initial" 
d="M178 756l-112 94l95 112l112 -94zM90 575l-114 95l95 114l110 -92l83 98l113 -94l-95 -112l-110 91zM295 461c4.66699 -55.333 8.00098 -100.667 10.001 -136s3 -78.333 3 -129c0 -62.667 -23.333 -110.667 -70 -144c-49.333 -34.667 -128.666 -52 -237.999 -52
c-2.66699 -0 -5.33398 4.83301 -8.00098 14.5s-4 20.5 -4 32.5v112c0 12.667 1.16699 23.667 3.5 33s5.16602 14 8.49902 14c45.333 0 80.333 1.5 105 4.5s44.667 7.5 60 13.5l-26 210z" />
    <glyph glyph-name="uniFE9C" unicode="&#x62b;" horiz-adv-x="432" arabic-form="medial" 
d="M198 687l-113 94l96 112l112 -94zM109 506l-113 95l95 114l110 -92l83 98l113 -94l-95 -112l-111 92zM439 192.5c2 -9 3.00391 -20.166 3.00391 -33.499v-112c0 -12.667 -1 -23.667 -3 -33s-4.33301 -14 -7 -14c-66 0 -114.333 5.16699 -145 15.5
s-51.667 29.166 -63 56.499c-9.33301 -19.333 -22.333 -34.166 -39 -44.499s-39.167 -17.5 -67.5 -21.5s-67.5 -6 -117.5 -6c-2.66699 0 -5.33398 4.83301 -8.00098 14.5s-4 20.5 -4 32.5v112c0 12.667 1.16699 23.667 3.5 33s5.16602 14 8.49902 14
c43.333 0 76.666 1.16699 99.999 3.5s42.666 7.16602 57.999 14.499l-23 175l155 17l7 -200c11.333 -4 26.333 -6.66699 45 -8s48.667 -2 90 -2c2.66699 0 5 -4.5 7 -13.5z" />
    <glyph glyph-name="uniFE9E" unicode="&#x62c;" horiz-adv-x="813" arabic-form="final" 
d="M821 192c2 -9.33301 2.99609 -20.334 2.99609 -33.001v-112c0 -12.667 -1.16699 -23.667 -3.5 -33s-4.83301 -14 -7.5 -14h-105c-49.333 0 -89.166 6 -119.499 18s-54.666 30.5 -72.999 55.5s-34.833 59.5 -49.5 103.5c-50 -29.333 -95.333 -61.166 -136 -95.499
s-70.334 -65.833 -89.001 -94.5c-1.33301 -24 -2 -40.333 -2 -49c0 -42 7.16699 -75.167 21.5 -99.5s37.333 -41.666 69 -51.999s74.834 -15.5 129.501 -15.5h224l-42 -209h-199c-116 0 -205.667 29.667 -269 89s-95 146 -95 260c0 84 27.167 161.667 81.5 233
s129.833 132.666 226.5 183.999c19.333 10 36 18 50 24l-53 16c-58 16.667 -96.333 25 -115 25c-19.333 0 -32.666 -5 -39.999 -15s-13 -24.333 -17 -43l-121 21c10 63.333 28.333 113 55 149s64 54 112 54c24 0 49 -3.33301 75 -10s59.333 -17 100 -31l26 -9
c58.667 -20 109.834 -35.167 153.501 -45.5s90.167 -15.5 139.5 -15.5l-42 -180c-42 -4.66699 -89.333 -18 -142 -40c12.667 -9.33301 27 -15.333 43 -18s40 -4 72 -4h131c3.33301 0 6 -4.66699 8 -14zM427.996 26.999l112 -93l-93 -112l-112 94z" />
    <glyph glyph-name="uniFE9F" unicode="&#x62c;" horiz-adv-x="761" arabic-form="initial" 
d="M578.5 416.5c43 -11 88.167 -16.498 135.5 -16.498l-42 -197c-37.333 -4 -70.833 -12.333 -100.5 -25s-65.834 -31.334 -108.501 -56.001c-37.333 -21.333 -66.666 -37.333 -87.999 -48c-50 -24.667 -102.167 -43.167 -156.5 -55.5s-119.166 -18.5 -194.499 -18.5h-24
c-2.66699 0 -5.33398 4.83301 -8.00098 14.5s-4 20.5 -4 32.5v112c0 12.667 1.16699 23.667 3.5 33s5.16602 14 8.49902 14h24c82.667 0 165.334 8.66699 248.001 26c32.667 6.66699 71.667 19 117 37c25.333 8.66699 42.333 14.334 51 17.001l14 3v0
c-15.333 3.33301 -43 12.666 -83 27.999c-33.333 11.333 -60.5 20.166 -81.5 26.499s-37.833 9.5 -50.5 9.5c-18.667 0 -31.667 -5.16699 -39 -15.5s-13 -24.833 -17 -43.5l-120 22c20 135.333 75 203 165 203c26.667 0 53.5 -3.83301 80.5 -11.5s61.167 -19.5 102.5 -35.5
l28 -10c50 -19.333 96.5 -34.5 139.5 -45.5zM317 -89.998l131 -110l-110 -130l-131 110z" />
    <glyph glyph-name="uniFEA0" unicode="&#x62c;" horiz-adv-x="778" arabic-form="medial" 
d="M786 192.5c2 -9 3.00391 -20.1689 3.00391 -33.502v-112c0 -12.667 -1 -23.667 -3 -33s-4.66699 -14 -8 -14h-170c-46.667 0 -91.834 5.5 -135.501 16.5s-73.167 33.833 -88.5 68.5c-50.667 -27.333 -103.667 -48.333 -159 -63s-122.333 -22 -201 -22h-24
c-2.66699 0 -5.33398 4.83301 -8.00098 14.5s-4 20.5 -4 32.5v112c0 12.667 1.16699 23.667 3.5 33s5.16602 14 8.49902 14h24c82.667 0 165.334 8.66699 248.001 26c18 4 35.167 9.16699 51.5 15.5s36.166 14.5 59.499 24.5c26.667 12 45.667 19.333 57 22l16 4h-2
c-4 0.666992 -24 6.33398 -60 17.001l-40 12c-58.667 17.333 -97 26 -115 26c-18.667 0 -31.667 -5.16699 -39 -15.5s-13 -24.833 -17 -43.5l-120 22c20 135.333 75 203 165 203c26.667 0 53.667 -3.66699 81 -11s62 -18.666 104 -33.999
c60.667 -21.333 113.167 -37.5 157.5 -48.5s92.166 -16.5 143.499 -16.5l-39 -173c-38.667 -4.66699 -81 -21 -127 -49c55.333 12.667 115 19 179 19h51c3.33301 0 6 -4.5 8 -13.5zM317.004 -92.002l131 -110l-110 -131l-131 110z" />
    <glyph glyph-name="uniFEA2" unicode="&#x62d;" horiz-adv-x="813" arabic-form="final" 
d="M821 192c2 -9.33301 2.99609 -20.334 2.99609 -33.001v-112c0 -12.667 -1.16699 -23.667 -3.5 -33s-4.83301 -14 -7.5 -14h-105c-49.333 0 -89.166 6 -119.499 18s-54.666 30.5 -72.999 55.5s-34.833 59.5 -49.5 103.5c-50 -29.333 -95.333 -61.166 -136 -95.499
s-70.334 -65.833 -89.001 -94.5c-1.33301 -24 -2 -40.333 -2 -49c0 -42 7.16699 -75.167 21.5 -99.5s37.333 -41.666 69 -51.999s74.834 -15.5 129.501 -15.5h224l-42 -209h-199c-116 0 -205.667 29.667 -269 89s-95 146 -95 260c0 84 27.167 161.667 81.5 233
s129.833 132.666 226.5 183.999c19.333 10 36 18 50 24l-53 16c-58 16.667 -96.333 25 -115 25c-19.333 0 -32.666 -5 -39.999 -15s-13 -24.333 -17 -43l-121 21c10 63.333 28.333 113 55 149s64 54 112 54c24 0 49 -3.33301 75 -10s59.333 -17 100 -31l26 -9
c58.667 -20 109.834 -35.167 153.501 -45.5s90.167 -15.5 139.5 -15.5l-42 -180c-42 -4.66699 -89.333 -18 -142 -40c12.667 -9.33301 27 -15.333 43 -18s40 -4 72 -4h131c3.33301 0 6 -4.66699 8 -14z" />
    <glyph glyph-name="uniFEA3" unicode="&#x62d;" horiz-adv-x="761" arabic-form="initial" 
d="M578.5 416.5c43 -11 88.167 -16.498 135.5 -16.498l-42 -197c-37.333 -4 -70.833 -12.333 -100.5 -25s-65.834 -31.334 -108.501 -56.001c-37.333 -21.333 -66.666 -37.333 -87.999 -48c-50 -24.667 -102.167 -43.167 -156.5 -55.5s-119.166 -18.5 -194.499 -18.5h-24
c-2.66699 0 -5.33398 4.83301 -8.00098 14.5s-4 20.5 -4 32.5v112c0 12.667 1.16699 23.667 3.5 33s5.16602 14 8.49902 14h24c82.667 0 165.334 8.66699 248.001 26c32.667 6.66699 71.667 19 117 37c25.333 8.66699 42.333 14.334 51 17.001l14 3v0
c-15.333 3.33301 -43 12.666 -83 27.999c-33.333 11.333 -60.5 20.166 -81.5 26.499s-37.833 9.5 -50.5 9.5c-18.667 0 -31.667 -5.16699 -39 -15.5s-13 -24.833 -17 -43.5l-120 22c20 135.333 75 203 165 203c26.667 0 53.5 -3.83301 80.5 -11.5s61.167 -19.5 102.5 -35.5
l28 -10c50 -19.333 96.5 -34.5 139.5 -45.5z" />
    <glyph glyph-name="uniFEA4" unicode="&#x62d;" horiz-adv-x="778" arabic-form="medial" 
d="M786 192.5c2 -9 3.00391 -20.1689 3.00391 -33.502v-112c0 -12.667 -1 -23.667 -3 -33s-4.66699 -14 -8 -14h-170c-46.667 0 -91.834 5.5 -135.501 16.5s-73.167 33.833 -88.5 68.5c-50.667 -27.333 -103.667 -48.333 -159 -63s-122.333 -22 -201 -22h-24
c-2.66699 0 -5.33398 4.83301 -8.00098 14.5s-4 20.5 -4 32.5v112c0 12.667 1.16699 23.667 3.5 33s5.16602 14 8.49902 14h24c82.667 0 165.334 8.66699 248.001 26c18 4 35.167 9.16699 51.5 15.5s36.166 14.5 59.499 24.5c26.667 12 45.667 19.333 57 22l16 4h-2
c-4 0.666992 -24 6.33398 -60 17.001l-40 12c-58.667 17.333 -97 26 -115 26c-18.667 0 -31.667 -5.16699 -39 -15.5s-13 -24.833 -17 -43.5l-120 22c20 135.333 75 203 165 203c26.667 0 53.667 -3.66699 81 -11s62 -18.666 104 -33.999
c60.667 -21.333 113.167 -37.5 157.5 -48.5s92.166 -16.5 143.499 -16.5l-39 -173c-38.667 -4.66699 -81 -21 -127 -49c55.333 12.667 115 19 179 19h51c3.33301 0 6 -4.5 8 -13.5z" />
    <glyph glyph-name="uniFEA6" unicode="&#x62e;" horiz-adv-x="813" arabic-form="final" 
d="M479 625l-132 110l110 131l131 -110zM821 192c2 -9.33301 2.99609 -20.334 2.99609 -33.001v-112c0 -12.667 -1.16699 -23.667 -3.5 -33s-4.83301 -14 -7.5 -14h-105c-49.333 0 -89.166 6 -119.499 18s-54.666 30.5 -72.999 55.5s-34.833 59.5 -49.5 103.5
c-50 -29.333 -95.333 -61.166 -136 -95.499s-70.334 -65.833 -89.001 -94.5c-1.33301 -24 -2 -40.333 -2 -49c0 -42 7.16699 -75.167 21.5 -99.5s37.333 -41.666 69 -51.999s74.834 -15.5 129.501 -15.5h224l-42 -209h-199c-116 0 -205.667 29.667 -269 89s-95 146 -95 260
c0 84 27.167 161.667 81.5 233s129.833 132.666 226.5 183.999c19.333 10 36 18 50 24l-53 16c-58 16.667 -96.333 25 -115 25c-19.333 0 -32.666 -5 -39.999 -15s-13 -24.333 -17 -43l-121 21c10 63.333 28.333 113 55 149s64 54 112 54c24 0 49 -3.33301 75 -10
s59.333 -17 100 -31l26 -9c58.667 -20 109.834 -35.167 153.501 -45.5s90.167 -15.5 139.5 -15.5l-42 -180c-42 -4.66699 -89.333 -18 -142 -40c12.667 -9.33301 27 -15.333 43 -18s40 -4 72 -4h131c3.33301 0 6 -4.66699 8 -14z" />
    <glyph glyph-name="uniFEA7" unicode="&#x62e;" horiz-adv-x="761" arabic-form="initial" 
d="M347 593l-131 109l109 131l131 -110zM578.5 416.5c43 -11 88.167 -16.498 135.5 -16.498l-42 -197c-37.333 -4 -70.833 -12.333 -100.5 -25s-65.834 -31.334 -108.501 -56.001c-37.333 -21.333 -66.666 -37.333 -87.999 -48c-50 -24.667 -102.167 -43.167 -156.5 -55.5
s-119.166 -18.5 -194.499 -18.5h-24c-2.66699 0 -5.33398 4.83301 -8.00098 14.5s-4 20.5 -4 32.5v112c0 12.667 1.16699 23.667 3.5 33s5.16602 14 8.49902 14h24c82.667 0 165.334 8.66699 248.001 26c32.667 6.66699 71.667 19 117 37
c25.333 8.66699 42.333 14.334 51 17.001l14 3v0c-15.333 3.33301 -43 12.666 -83 27.999c-33.333 11.333 -60.5 20.166 -81.5 26.499s-37.833 9.5 -50.5 9.5c-18.667 0 -31.667 -5.16699 -39 -15.5s-13 -24.833 -17 -43.5l-120 22c20 135.333 75 203 165 203
c26.667 0 53.5 -3.83301 80.5 -11.5s61.167 -19.5 102.5 -35.5l28 -10c50 -19.333 96.5 -34.5 139.5 -45.5z" />
    <glyph glyph-name="uniFEA8" unicode="&#x62e;" horiz-adv-x="778" arabic-form="medial" 
d="M347 593l-131 109l109 131l131 -110zM786 192.5c2 -9 3.00391 -20.1689 3.00391 -33.502v-112c0 -12.667 -1 -23.667 -3 -33s-4.66699 -14 -8 -14h-170c-46.667 0 -91.834 5.5 -135.501 16.5s-73.167 33.833 -88.5 68.5c-50.667 -27.333 -103.667 -48.333 -159 -63
s-122.333 -22 -201 -22h-24c-2.66699 0 -5.33398 4.83301 -8.00098 14.5s-4 20.5 -4 32.5v112c0 12.667 1.16699 23.667 3.5 33s5.16602 14 8.49902 14h24c82.667 0 165.334 8.66699 248.001 26c18 4 35.167 9.16699 51.5 15.5s36.166 14.5 59.499 24.5
c26.667 12 45.667 19.333 57 22l16 4h-2c-4 0.666992 -24 6.33398 -60 17.001l-40 12c-58.667 17.333 -97 26 -115 26c-18.667 0 -31.667 -5.16699 -39 -15.5s-13 -24.833 -17 -43.5l-120 22c20 135.333 75 203 165 203c26.667 0 53.667 -3.66699 81 -11
s62 -18.666 104 -33.999c60.667 -21.333 113.167 -37.5 157.5 -48.5s92.166 -16.5 143.499 -16.5l-39 -173c-38.667 -4.66699 -81 -21 -127 -49c55.333 12.667 115 19 179 19h51c3.33301 0 6 -4.5 8 -13.5z" />
    <glyph glyph-name="uniFEAA" unicode="&#x62f;" horiz-adv-x="641" arabic-form="final" 
d="M649 192.5c2 -9 3 -20.165 3 -33.498v-112c0 -12.667 -1 -23.667 -3 -33s-4.66699 -14 -8 -14h-23c-72 0 -116 26.667 -132 80l-6 -19c-7.33301 -21.333 -17.333 -34.333 -30 -39c-22 -9.33301 -49.833 -17.5 -83.5 -24.5s-63.834 -10.5 -90.501 -10.5
c-65.333 0 -113.833 13.333 -145.5 40s-47.5 73 -47.5 139c0 28 1.66699 54.333 5 79l125 -8v-25c0 -6.66699 2.16699 -11.334 6.5 -14.001s13.333 -4.33398 27 -5.00098s30.834 -1 51.501 -1c40 0 77.667 5 113 15l-77 292l150 78l64 -307
c4 -22.667 8.33301 -38.167 13 -46.5s12 -13.333 22 -15s29.333 -2.5 58 -2.5c3.33301 0 6 -4.5 8 -13.5z" />
    <glyph glyph-name="uniFEAC" unicode="&#x630;" horiz-adv-x="641" arabic-form="final" 
d="M376 666l-132 110l110 131l131 -110zM649 192.5c2 -9 3 -20.165 3 -33.498v-112c0 -12.667 -1 -23.667 -3 -33s-4.66699 -14 -8 -14h-23c-72 0 -116 26.667 -132 80l-6 -19c-7.33301 -21.333 -17.333 -34.333 -30 -39c-22 -9.33301 -49.833 -17.5 -83.5 -24.5
s-63.834 -10.5 -90.501 -10.5c-65.333 0 -113.833 13.333 -145.5 40s-47.5 73 -47.5 139c0 28 1.66699 54.333 5 79l125 -8v-25c0 -6.66699 2.16699 -11.334 6.5 -14.001s13.333 -4.33398 27 -5.00098s30.834 -1 51.501 -1c40 0 77.667 5 113 15l-77 292l150 78l64 -307
c4 -22.667 8.33301 -38.167 13 -46.5s12 -13.333 22 -15s29.333 -2.5 58 -2.5c3.33301 0 6 -4.5 8 -13.5z" />
    <glyph glyph-name="uniFEAE" unicode="&#x631;" horiz-adv-x="446" arabic-form="final" 
d="M454 192c2 -9.33301 2.99707 -20.334 2.99707 -33.001v-112c0 -12.667 -1.16699 -23.667 -3.5 -33s-4.83301 -14 -7.5 -14h-17c-34.667 0 -63 14 -85 42c-4 -50.667 -16.167 -96.5 -36.5 -137.5s-53 -80.833 -98 -119.5s-105.833 -78 -182.5 -118l-108 159
c64.667 31.333 116 59 154 83s66.667 46.167 86 66.5s35 42.166 47 65.499l-43 313l158 34c2.66699 -18 4.33398 -32 5.00098 -42l9 -73c2.66699 -21.333 7.33398 -36.666 14.001 -45.999s16.334 -15.166 29.001 -17.499s33 -3.5 61 -3.5h7c3.33301 0 6 -4.66699 8 -14z" />
    <glyph glyph-name="uniFEB0" unicode="&#x632;" horiz-adv-x="446" arabic-form="final" 
d="M214 474l-131 110l110 131l130 -110zM454 192c2 -9.33301 2.99707 -20.334 2.99707 -33.001v-112c0 -12.667 -1.16699 -23.667 -3.5 -33s-4.83301 -14 -7.5 -14h-17c-34.667 0 -63 14 -85 42c-4 -50.667 -16.167 -96.5 -36.5 -137.5s-53 -80.833 -98 -119.5
s-105.833 -78 -182.5 -118l-108 159c64.667 31.333 116 59 154 83s66.667 46.167 86 66.5s35 42.166 47 65.499l-43 313l158 34c2.66699 -18 4.33398 -32 5.00098 -42l9 -73c2.66699 -21.333 7.33398 -36.666 14.001 -45.999s16.334 -15.166 29.001 -17.499s33 -3.5 61 -3.5
h7c3.33301 0 6 -4.66699 8 -14z" />
    <glyph glyph-name="uniFEB2" unicode="&#x633;" horiz-adv-x="1319" arabic-form="final" 
d="M1327 192c2 -9.33301 3.00098 -20.333 3.00098 -33v-112c0 -12.667 -1.16699 -23.667 -3.5 -33s-4.83301 -14 -7.5 -14h-12c-28.667 0 -55.834 5.5 -81.501 16.5s-44.167 26.833 -55.5 47.5c-16.667 -21.333 -37.5 -37.333 -62.5 -48s-52.5 -16 -82.5 -16
c-27.333 0 -52 5.16699 -74 15.5s-38.667 27.833 -50 52.5c-12.667 -24 -30 -41.333 -52 -52s-43.333 -16 -64 -16c-41.333 0 -72 10 -92 30c2 -30 3 -57.667 3 -83c0 -45.333 -18.833 -82 -56.5 -110s-82 -48.167 -133 -60.5s-98.167 -18.5 -141.5 -18.5
c-98 0 -169.167 19 -213.5 57s-66.5 92.667 -66.5 164c0 31.333 4.83301 77.166 14.5 137.499s22.167 132.5 37.5 216.5l126 -26c-26 -142.667 -39.333 -236.667 -40 -282c0 -40.667 46.667 -61 140 -61c40.667 0 76.334 2.16699 107.001 6.5s58.667 11.5 84 21.5l-47 367
l154 34l15 -134c2 -20 8 -33.833 18 -41.5s26.667 -11.5 50 -11.5c20.667 0 42 3.66699 64 11l-3 170l139 7l5 -183c10 -3.33301 23.667 -5 41 -5c29.333 0 55.666 4.66699 78.999 14l-27 214l153 28l18 -202c1.33301 -14.667 4.16602 -25.667 8.49902 -33
s12.833 -12.666 25.5 -15.999s32.334 -5 59.001 -5h13c3.33301 0 6 -4.66699 8 -14z" />
    <glyph glyph-name="uniFEB3" unicode="&#x633;" horiz-adv-x="858" arabic-form="initial" 
d="M763 405c2.66699 -33.333 5.00293 -67.333 7.00293 -102s3 -69 3 -103c0 -65.333 -17.167 -115 -51.5 -149s-78.833 -51 -133.5 -51c-37.333 0 -69 5.16699 -95 15.5s-45 28.5 -57 54.5c-14 -26 -34.333 -44.167 -61 -54.5s-54.334 -15.5 -83.001 -15.5
c-57.333 0 -98 21.667 -122 65c-16 -24 -38.167 -40.833 -66.5 -50.5s-62.833 -14.5 -103.5 -14.5c-2.66699 -0 -5.33398 4.83301 -8.00098 14.5s-4 20.5 -4 32.5v112c0 12.667 1.16699 23.667 3.5 33s5.16602 14 8.49902 14c47.333 0 86 5.33301 116 16l-1 132h141l1 -101
c0 -20 3.5 -32.833 10.5 -38.5s19.5 -8.5 37.5 -8.5c22 0 44 3.66699 66 11l-4 170l140 7l4 -183c10 -3.33301 24.333 -5 43 -5c28.667 0 54.667 4.66699 78 14l-27 214l153 28z" />
    <glyph glyph-name="uniFEB4" unicode="&#x633;" horiz-adv-x="882" arabic-form="medial" 
d="M890 192.5c2 -9 3.00391 -20.167 3.00391 -33.5v-112c0 -12.667 -1 -23.667 -3 -33s-4.66699 -14 -8 -14h-12c-27.333 0 -53.5 6.16699 -78.5 18.5s-43.167 29.5 -54.5 51.5c-16.667 -23.333 -37.834 -40.833 -63.501 -52.5s-54.167 -17.5 -85.5 -17.5
c-37.333 0 -69 5.16699 -95 15.5s-45 28.5 -57 54.5c-14 -26 -34.333 -44.167 -61 -54.5s-54.334 -15.5 -83.001 -15.5c-57.333 0 -98 21.667 -122 65c-16 -24 -38.167 -40.833 -66.5 -50.5s-62.833 -14.5 -103.5 -14.5c-2.66699 -0 -5.33398 4.83301 -8.00098 14.5
s-4 20.5 -4 32.5v112c0 12.667 1.16699 23.667 3.5 33s5.16602 14 8.49902 14c47.333 0 86 5.33301 116 16l-1 132h141l1 -101c0 -20 3.5 -32.833 10.5 -38.5s19.5 -8.5 37.5 -8.5c22 0 44 3.66699 66 11l-4 170l140 7l4 -183c10 -3.33301 24.333 -5 43 -5
c28.667 0 54.667 4.66699 78 14l-27 214l153 28l18 -202c1.33301 -14 4.33301 -24.667 9 -32s13.5 -12.833 26.5 -16.5s32.5 -5.5 58.5 -5.5h12c3.33301 0 6 -4.5 8 -13.5z" />
    <glyph glyph-name="uniFEB6" unicode="&#x634;" horiz-adv-x="1319" arabic-form="final" 
d="M855 669l-113 94l96 112l112 -93zM766 488l-113 95l95 115l110 -93l83 98l113 -93l-95 -113l-111 92zM1327 192c2 -9.33301 3.00098 -20.333 3.00098 -33v-112c0 -12.667 -1.16699 -23.667 -3.5 -33s-4.83301 -14 -7.5 -14h-12c-28.667 0 -55.834 5.5 -81.501 16.5
s-44.167 26.833 -55.5 47.5c-16.667 -21.333 -37.5 -37.333 -62.5 -48s-52.5 -16 -82.5 -16c-27.333 0 -52 5.16699 -74 15.5s-38.667 27.833 -50 52.5c-12.667 -24 -30 -41.333 -52 -52s-43.333 -16 -64 -16c-41.333 0 -72 10 -92 30c2 -30 3 -57.667 3 -83
c0 -45.333 -18.833 -82 -56.5 -110s-82 -48.167 -133 -60.5s-98.167 -18.5 -141.5 -18.5c-98 0 -169.167 19 -213.5 57s-66.5 92.667 -66.5 164c0 31.333 4.83301 77.166 14.5 137.499s22.167 132.5 37.5 216.5l126 -26c-26 -142.667 -39.333 -236.667 -40 -282
c0 -40.667 46.667 -61 140 -61c40.667 0 76.334 2.16699 107.001 6.5s58.667 11.5 84 21.5l-47 367l154 34l15 -134c2 -20 8 -33.833 18 -41.5s26.667 -11.5 50 -11.5c20.667 0 42 3.66699 64 11l-3 170l139 7l5 -183c10 -3.33301 23.667 -5 41 -5
c29.333 0 55.666 4.66699 78.999 14l-27 214l153 28l18 -202c1.33301 -14.667 4.16602 -25.667 8.49902 -33s12.833 -12.666 25.5 -15.999s32.334 -5 59.001 -5h13c3.33301 0 6 -4.66699 8 -14z" />
    <glyph glyph-name="uniFEB7" unicode="&#x634;" horiz-adv-x="858" arabic-form="initial" 
d="M421 657l-112 93l95 113l112 -94zM332 476l-113 95l95 114l109 -93l84 99l113 -94l-95 -112l-110 92zM763 405c2.66699 -33.333 5.00293 -67.333 7.00293 -102s3 -69 3 -103c0 -65.333 -17.167 -115 -51.5 -149s-78.833 -51 -133.5 -51c-37.333 0 -69 5.16699 -95 15.5
s-45 28.5 -57 54.5c-14 -26 -34.333 -44.167 -61 -54.5s-54.334 -15.5 -83.001 -15.5c-57.333 0 -98 21.667 -122 65c-16 -24 -38.167 -40.833 -66.5 -50.5s-62.833 -14.5 -103.5 -14.5c-2.66699 -0 -5.33398 4.83301 -8.00098 14.5s-4 20.5 -4 32.5v112
c0 12.667 1.16699 23.667 3.5 33s5.16602 14 8.49902 14c47.333 0 86 5.33301 116 16l-1 132h141l1 -101c0 -20 3.5 -32.833 10.5 -38.5s19.5 -8.5 37.5 -8.5c22 0 44 3.66699 66 11l-4 170l140 7l4 -183c10 -3.33301 24.333 -5 43 -5c28.667 0 54.667 4.66699 78 14
l-27 214l153 28z" />
    <glyph glyph-name="uniFEB8" unicode="&#x634;" horiz-adv-x="882" arabic-form="medial" 
d="M464 657l-113 93l96 113l112 -94zM375 476l-113 95l95 114l109 -93l84 99l113 -94l-95 -112l-110 92zM890 192.5c2 -9 3.00391 -20.167 3.00391 -33.5v-112c0 -12.667 -1 -23.667 -3 -33s-4.66699 -14 -8 -14h-12c-27.333 0 -53.5 6.16699 -78.5 18.5
s-43.167 29.5 -54.5 51.5c-16.667 -23.333 -37.834 -40.833 -63.501 -52.5s-54.167 -17.5 -85.5 -17.5c-37.333 0 -69 5.16699 -95 15.5s-45 28.5 -57 54.5c-14 -26 -34.333 -44.167 -61 -54.5s-54.334 -15.5 -83.001 -15.5c-57.333 0 -98 21.667 -122 65
c-16 -24 -38.167 -40.833 -66.5 -50.5s-62.833 -14.5 -103.5 -14.5c-2.66699 -0 -5.33398 4.83301 -8.00098 14.5s-4 20.5 -4 32.5v112c0 12.667 1.16699 23.667 3.5 33s5.16602 14 8.49902 14c47.333 0 86 5.33301 116 16l-1 132h141l1 -101c0 -20 3.5 -32.833 10.5 -38.5
s19.5 -8.5 37.5 -8.5c22 0 44 3.66699 66 11l-4 170l140 7l4 -183c10 -3.33301 24.333 -5 43 -5c28.667 0 54.667 4.66699 78 14l-27 214l153 28l18 -202c1.33301 -14 4.33301 -24.667 9 -32s13.5 -12.833 26.5 -16.5s32.5 -5.5 58.5 -5.5h12c3.33301 0 6 -4.5 8 -13.5z" />
    <glyph glyph-name="uniFEBA" unicode="&#x635;" horiz-adv-x="1383" arabic-form="final" 
d="M1391 192.5c2 -9 3 -20.168 3 -33.501v-112c0 -12.667 -1 -23.667 -3 -33s-4.66699 -14 -8 -14c-48.667 0 -86.667 5.16699 -114 15.5s-49.333 27.833 -66 52.5c-34 -25.333 -76.667 -44.666 -128 -57.999s-110 -20 -176 -20c-88.667 0 -157 10.333 -205 31
c1.33301 -36 2 -60.667 2 -74c0 -45.333 -18.833 -82 -56.5 -110s-82 -48.167 -133 -60.5s-98.167 -18.5 -141.5 -18.5c-98 0 -169.167 19 -213.5 57s-66.5 92.667 -66.5 164c0 31.333 4.83301 77.166 14.5 137.499s22.167 132.5 37.5 216.5l126 -26
c-26 -142.667 -39.333 -236.667 -40 -282c0 -40.667 46.667 -61 140 -61c40.667 0 76.334 2.16699 107.001 6.5s58.667 11.5 84 21.5l-47 367l154 34l18 -175c5.33301 -1.33301 15.666 -3.66602 30.999 -6.99902c24 42 54.333 85.5 91 130.5s79 84.167 127 117.5
s97.333 50 148 50c66.667 0 118.334 -24.5 155.001 -73.5s55 -118.833 55 -209.5v-4c13.333 -10.667 45.666 -16 96.999 -16c3.33301 0 6 -4.5 8 -13.5zM1125.5 310.499c-17 19 -37.499 28.5 -61.499 28.5c-30 0 -64.333 -13 -103 -39s-76.334 -61 -113.001 -105h45
c82.667 0 168 9.66699 256 29c1.33301 38.667 -6.5 67.5 -23.5 86.5z" />
    <glyph glyph-name="uniFEBB" unicode="&#x635;" horiz-adv-x="957" arabic-form="initial" 
d="M819 442c36.667 -48.667 55.0029 -118.332 55.0029 -208.999c0 -43.333 -13.333 -82.333 -40 -117c-30 -38.667 -74.667 -68.167 -134 -88.5s-130 -30.5 -212 -30.5c-67.333 0 -123.333 5.5 -168 16.5s-81.334 29.5 -110.001 55.5
c-22 -24.667 -52.333 -42.334 -91 -53.001s-78.334 -16 -119.001 -16c-2.66699 -0 -5.33398 4.83301 -8.00098 14.5s-4 20.5 -4 32.5v112c0 12.667 1.16699 23.667 3.5 33s5.16602 14 8.49902 14c58.667 0 101 5.33301 127 16l-6 167l141 8v-169
c8.66699 -4.66699 21 -8 37 -10c24 42 54.333 85.5 91 130.5s79 84 127 117s97 49.5 147 49.5c66.667 0 118.334 -24.333 155.001 -73zM714.003 317.502c-16.667 19 -37.3311 28.5 -61.998 28.5c-30 0 -64.333 -13 -103 -39s-76.334 -61 -113.001 -105h45
c88 0 173.333 9.66699 256 29c1.33301 38.667 -6.33398 67.5 -23.001 86.5z" />
    <glyph glyph-name="uniFEBC" unicode="&#x635;" horiz-adv-x="972" arabic-form="medial" 
d="M980 192.5c2 -9 3.00293 -20.165 3.00293 -33.498v-112c0 -12.667 -1 -23.667 -3 -33s-4.66699 -14 -8 -14c-50 0 -88.833 5.5 -116.5 16.5s-49.834 29.833 -66.501 56.5c-33.333 -24.667 -75.666 -43.5 -126.999 -56.5s-109.333 -19.5 -174 -19.5
c-67.333 0 -123.333 5.5 -168 16.5s-81.334 29.5 -110.001 55.5c-22 -24.667 -52.333 -42.334 -91 -53.001s-78.334 -16 -119.001 -16c-2.66699 0 -5.33398 4.83301 -8.00098 14.5s-4 20.5 -4 32.5v112c0 12.667 1.16699 23.667 3.5 33s5.16602 14 8.49902 14
c58.667 0 101 5.33301 127 16l-6 167l141 8v-169c8.66699 -4.66699 21 -8 37 -10c24 42 54.333 85.5 91 130.5s79 84 127 117s97 49.5 147 49.5c66.667 0 118.334 -24.333 155.001 -73s55 -118.334 55 -209.001v-11c13.333 -10.667 46 -16 98 -16c3.33301 0 6 -4.5 8 -13.5z
M714.003 317.502c-16.667 19 -37.3311 28.5 -61.998 28.5c-30 0 -64.333 -13 -103 -39s-76.334 -61 -113.001 -105h45c88 0 173.333 9.66699 256 29c1.33301 38.667 -6.33398 67.5 -23.001 86.5z" />
    <glyph glyph-name="uniFEBE" unicode="&#x636;" horiz-adv-x="1383" arabic-form="final" 
d="M847 551l-131 110l109 131l131 -110zM1391 192.5c2 -9 3 -20.168 3 -33.501v-112c0 -12.667 -1 -23.667 -3 -33s-4.66699 -14 -8 -14c-48.667 0 -86.667 5.16699 -114 15.5s-49.333 27.833 -66 52.5c-34 -25.333 -76.667 -44.666 -128 -57.999s-110 -20 -176 -20
c-88.667 0 -157 10.333 -205 31c1.33301 -36 2 -60.667 2 -74c0 -45.333 -18.833 -82 -56.5 -110s-82 -48.167 -133 -60.5s-98.167 -18.5 -141.5 -18.5c-98 0 -169.167 19 -213.5 57s-66.5 92.667 -66.5 164c0 31.333 4.83301 77.166 14.5 137.499s22.167 132.5 37.5 216.5
l126 -26c-26 -142.667 -39.333 -236.667 -40 -282c0 -40.667 46.667 -61 140 -61c40.667 0 76.334 2.16699 107.001 6.5s58.667 11.5 84 21.5l-47 367l154 34l18 -175c5.33301 -1.33301 15.666 -3.66602 30.999 -6.99902c24 42 54.333 85.5 91 130.5s79 84.167 127 117.5
s97.333 50 148 50c66.667 0 118.334 -24.5 155.001 -73.5s55 -118.833 55 -209.5v-4c13.333 -10.667 45.666 -16 96.999 -16c3.33301 0 6 -4.5 8 -13.5zM1125.5 310.499c-17 19 -37.499 28.5 -61.499 28.5c-30 0 -64.333 -13 -103 -39s-76.334 -61 -113.001 -105h45
c82.667 0 168 9.66699 256 29c1.33301 38.667 -6.5 67.5 -23.5 86.5z" />
    <glyph glyph-name="uniFEBF" unicode="&#x636;" horiz-adv-x="957" arabic-form="initial" 
d="M455 551l-132 110l110 131l131 -110zM819 442c36.667 -48.667 55.0029 -118.332 55.0029 -208.999c0 -43.333 -13.333 -82.333 -40 -117c-30 -38.667 -74.667 -68.167 -134 -88.5s-130 -30.5 -212 -30.5c-67.333 0 -123.333 5.5 -168 16.5s-81.334 29.5 -110.001 55.5
c-22 -24.667 -52.333 -42.334 -91 -53.001s-78.334 -16 -119.001 -16c-2.66699 -0 -5.33398 4.83301 -8.00098 14.5s-4 20.5 -4 32.5v112c0 12.667 1.16699 23.667 3.5 33s5.16602 14 8.49902 14c58.667 0 101 5.33301 127 16l-6 167l141 8v-169
c8.66699 -4.66699 21 -8 37 -10c24 42 54.333 85.5 91 130.5s79 84 127 117s97 49.5 147 49.5c66.667 0 118.334 -24.333 155.001 -73zM714.003 317.502c-16.667 19 -37.3311 28.5 -61.998 28.5c-30 0 -64.333 -13 -103 -39s-76.334 -61 -113.001 -105h45
c88 0 173.333 9.66699 256 29c1.33301 38.667 -6.33398 67.5 -23.001 86.5z" />
    <glyph glyph-name="uniFEC0" unicode="&#x636;" horiz-adv-x="972" arabic-form="medial" 
d="M455 551l-132 110l110 131l131 -110zM980 192.5c2 -9 3.00293 -20.165 3.00293 -33.498v-112c0 -12.667 -1 -23.667 -3 -33s-4.66699 -14 -8 -14c-50 0 -88.833 5.5 -116.5 16.5s-49.834 29.833 -66.501 56.5c-33.333 -24.667 -75.666 -43.5 -126.999 -56.5
s-109.333 -19.5 -174 -19.5c-67.333 0 -123.333 5.5 -168 16.5s-81.334 29.5 -110.001 55.5c-22 -24.667 -52.333 -42.334 -91 -53.001s-78.334 -16 -119.001 -16c-2.66699 0 -5.33398 4.83301 -8.00098 14.5s-4 20.5 -4 32.5v112c0 12.667 1.16699 23.667 3.5 33
s5.16602 14 8.49902 14c58.667 0 101 5.33301 127 16l-6 167l141 8v-169c8.66699 -4.66699 21 -8 37 -10c24 42 54.333 85.5 91 130.5s79 84 127 117s97 49.5 147 49.5c66.667 0 118.334 -24.333 155.001 -73s55 -118.334 55 -209.001v-11c13.333 -10.667 46 -16 98 -16
c3.33301 0 6 -4.5 8 -13.5zM714.003 317.502c-16.667 19 -37.3311 28.5 -61.998 28.5c-30 0 -64.333 -13 -103 -39s-76.334 -61 -113.001 -105h45c88 0 173.333 9.66699 256 29c1.33301 38.667 -6.33398 67.5 -23.001 86.5z" />
    <glyph glyph-name="uniFEC2" unicode="&#x637;" horiz-adv-x="856" arabic-form="final" 
d="M864 192.5c2 -9 2.99902 -20.166 2.99902 -33.499v-112c0 -12.667 -1 -23.667 -3 -33s-4.66699 -14 -8 -14c-50 0 -89 5.33301 -117 16s-50.333 29 -67 55c-69.333 -47.333 -168.666 -71 -297.999 -71h-253l-36 206h94c9.33301 16.667 18.666 31.667 27.999 45
c2.66699 4.66699 4.5 11 5.5 19s1.5 21.333 1.5 40c0 40 -3.33301 144.333 -10 313l-5 134l155 27v-292c0 -24.667 -1 -48.667 -3 -72c68.667 63.333 135 95 199 95c66.667 0 118.334 -24.333 155.001 -73s55 -118.334 55 -209.001v-14c13.333 -8.66699 45.333 -13 96 -13
c3.33301 0 6 -4.5 8 -13.5zM599.999 317.501c-16.667 19 -37.3311 28.501 -61.998 28.501c-28.667 0 -62.334 -12.833 -101.001 -38.5s-77 -60.834 -115 -105.501h45c88 0 173.333 9.66699 256 29c1.33301 38.667 -6.33398 67.5 -23.001 86.5z" />
    <glyph glyph-name="uniFEC3" unicode="&#x637;" horiz-adv-x="760" arabic-form="initial" 
d="M620.5 442c36.333 -48.667 54.5049 -118.333 54.5049 -209c0 -42.667 -13 -81.667 -39 -117c-30.667 -38 -75.834 -66.833 -135.501 -86.5s-129.834 -29.5 -210.501 -29.5h-290c-2.66699 -0 -5.33398 4.83301 -8.00098 14.5s-4 20.5 -4 32.5v112
c0 12.667 1.16699 23.667 3.5 33s5.16602 14 8.49902 14h95l27 45c2.66699 4.66699 4.5 11 5.5 19s1.5 21.333 1.5 40c0 40 -3.33301 144.333 -10 313l-5 134l155 27v-292c0 -32.667 -0.666992 -56.667 -2 -72c68 63.333 134 95 198 95
c67.333 0 119.166 -24.333 155.499 -73zM515.505 317.501c-17 19 -37.832 28.501 -62.499 28.501c-28.667 0 -62.334 -12.833 -101.001 -38.5s-77 -60.834 -115 -105.501h45c88.667 0 174 9.66699 256 29c2 38.667 -5.5 67.5 -22.5 86.5z" />
    <glyph glyph-name="uniFEC4" unicode="&#x637;" horiz-adv-x="771" arabic-form="medial" 
d="M779 192c2 -9.33301 3.00391 -20.332 3.00391 -32.999v-112c0 -12.667 -1.16699 -23.667 -3.5 -33s-4.83301 -14 -7.5 -14c-50 0 -89 5.33301 -117 16s-50.333 29 -67 55c-34 -23.333 -76.333 -41 -127 -53s-107.334 -18 -170.001 -18h-290
c-2.66699 0 -5.33398 4.83301 -8.00098 14.5s-4 20.5 -4 32.5v112c0 12.667 1.16699 23.667 3.5 33s5.16602 14 8.49902 14h95l27 45c2.66699 4.66699 4.5 11 5.5 19s1.5 21.333 1.5 40c0 40 -3.33301 144.333 -10 313l-5 134l155 27v-292
c0 -32.667 -0.666992 -56.667 -2 -72c68 63.333 134 95 198 95c67.333 0 119.166 -24.333 155.499 -73s54.5 -118.334 54.5 -209.001v-14c13.333 -8.66699 45.333 -13 96 -13c3.33301 0 6 -4.66699 8 -14zM515.504 317.501c-17 19 -37.832 28.501 -62.499 28.501
c-28.667 0 -62.334 -12.833 -101.001 -38.5s-77 -60.834 -115 -105.501h45c88.667 0 174 9.66699 256 29c2 38.667 -5.5 67.5 -22.5 86.5z" />
    <glyph glyph-name="uniFEC6" unicode="&#x638;" horiz-adv-x="856" arabic-form="final" 
d="M589 609l-131 110l109 130l131 -109zM864 192.5c2 -9 2.99902 -20.166 2.99902 -33.499v-112c0 -12.667 -1 -23.667 -3 -33s-4.66699 -14 -8 -14c-50 0 -89 5.33301 -117 16s-50.333 29 -67 55c-69.333 -47.333 -168.666 -71 -297.999 -71h-253l-36 206h94
c9.33301 16.667 18.666 31.667 27.999 45c2.66699 4.66699 4.5 11 5.5 19s1.5 21.333 1.5 40c0 40 -3.33301 144.333 -10 313l-5 134l155 27v-292c0 -24.667 -1 -48.667 -3 -72c68.667 63.333 135 95 199 95c66.667 0 118.334 -24.333 155.001 -73s55 -118.334 55 -209.001
v-14c13.333 -8.66699 45.333 -13 96 -13c3.33301 0 6 -4.5 8 -13.5zM599.999 317.501c-16.667 19 -37.3311 28.501 -61.998 28.501c-28.667 0 -62.334 -12.833 -101.001 -38.5s-77 -60.834 -115 -105.501h45c88 0 173.333 9.66699 256 29
c1.33301 38.667 -6.33398 67.5 -23.001 86.5z" />
    <glyph glyph-name="uniFEC7" unicode="&#x638;" horiz-adv-x="760" arabic-form="initial" 
d="M500 609l-131 109l110 131l130 -110zM620.5 442c36.333 -48.667 54.5049 -118.333 54.5049 -209c0 -42.667 -13 -81.667 -39 -117c-30.667 -38 -75.834 -66.833 -135.501 -86.5s-129.834 -29.5 -210.501 -29.5h-290c-2.66699 -0 -5.33398 4.83301 -8.00098 14.5
s-4 20.5 -4 32.5v112c0 12.667 1.16699 23.667 3.5 33s5.16602 14 8.49902 14h95l27 45c2.66699 4.66699 4.5 11 5.5 19s1.5 21.333 1.5 40c0 40 -3.33301 144.333 -10 313l-5 134l155 27v-292c0 -32.667 -0.666992 -56.667 -2 -72c68 63.333 134 95 198 95
c67.333 0 119.166 -24.333 155.499 -73zM515.505 317.501c-17 19 -37.832 28.501 -62.499 28.501c-28.667 0 -62.334 -12.833 -101.001 -38.5s-77 -60.834 -115 -105.501h45c88.667 0 174 9.66699 256 29c2 38.667 -5.5 67.5 -22.5 86.5z" />
    <glyph glyph-name="uniFEC8" unicode="&#x638;" horiz-adv-x="771" arabic-form="medial" 
d="M500 609l-131 109l110 131l130 -110zM779 192c2 -9.33301 3.00391 -20.332 3.00391 -32.999v-112c0 -12.667 -1.16699 -23.667 -3.5 -33s-4.83301 -14 -7.5 -14c-50 0 -89 5.33301 -117 16s-50.333 29 -67 55c-34 -23.333 -76.333 -41 -127 -53
s-107.334 -18 -170.001 -18h-290c-2.66699 0 -5.33398 4.83301 -8.00098 14.5s-4 20.5 -4 32.5v112c0 12.667 1.16699 23.667 3.5 33s5.16602 14 8.49902 14h95l27 45c2.66699 4.66699 4.5 11 5.5 19s1.5 21.333 1.5 40c0 40 -3.33301 144.333 -10 313l-5 134l155 27v-292
c0 -32.667 -0.666992 -56.667 -2 -72c68 63.333 134 95 198 95c67.333 0 119.166 -24.333 155.499 -73s54.5 -118.334 54.5 -209.001v-14c13.333 -8.66699 45.333 -13 96 -13c3.33301 0 6 -4.66699 8 -14zM515.504 317.501c-17 19 -37.832 28.501 -62.499 28.501
c-28.667 0 -62.334 -12.833 -101.001 -38.5s-77 -60.834 -115 -105.501h45c88.667 0 174 9.66699 256 29c2 38.667 -5.5 67.5 -22.5 86.5z" />
    <glyph glyph-name="uniFECA" unicode="&#x639;" horiz-adv-x="712" arabic-form="final" 
d="M720 192.5c2 -9 2.99707 -20.1689 2.99707 -33.502v-112c0 -12.667 -1 -23.667 -3 -33s-4.66699 -14 -8 -14h-114c-62 0 -109.167 6.5 -141.5 19.5s-58.5 35.833 -78.5 68.5c-35.333 -19.333 -64.166 -38 -86.499 -56s-41.166 -37.333 -56.499 -58
c-2 -18 -3 -34.667 -3 -50c0 -41.333 6.16699 -73.666 18.5 -96.999s31.666 -40 57.999 -50s62.166 -15 107.499 -15h254l-42 -206h-211c-68.667 0 -128.5 13.833 -179.5 41.5s-90.5 67.5 -118.5 119.5s-42 114.333 -42 187c0 55.333 13 109.833 39 163.5
s64.667 101.834 116 144.501l-48.5 98c-12.333 24 -20.166 38.167 -23.499 42.5s-6.66602 6.5 -9.99902 6.5l-30 1l6 163c134.667 12.667 231.334 19 290.001 19c51.333 0 91 -4 119 -12s47.667 -20.833 59 -38.5s17 -42.167 17 -73.5v-45
c0 -8.66699 -3.66699 -22.5 -11 -41.5s-18 -39.5 -32 -61.5s-30 -42 -48 -60c10 -2.66699 24.333 -4 43 -4h149c3.33301 0 6 -4.5 8 -13.5zM430.497 296.498c21 27 34.5 50.498 40.5 70.498c-14 4 -40.667 6 -80 6c-36 0 -69.667 -1.66699 -101 -5
c4 -3.33301 8.5 -9.16602 13.5 -17.499l17.5 -30.5c16 -29.333 32.333 -57.666 49 -84.999c19.333 14 39.5 34.5 60.5 61.5z" />
    <glyph glyph-name="uniFECB" unicode="&#x639;" horiz-adv-x="597" arabic-form="initial" 
d="M513 68c-82 -22 -144.833 -37.501 -188.5 -46.501s-82.667 -14.833 -117 -17.5s-81.166 -4 -140.499 -4h-67c-2.66699 0 -5.33398 4.83301 -8.00098 14.5s-4 20.5 -4 32.5v112c0 12.667 1.16699 23.667 3.5 33s5.16602 14 8.49902 14h105c-10 26.667 -15 59.667 -15 99
c0 68 20 119.333 60 154s93.333 52 160 52c36 0 74 -5 114 -15l-40 -160c-30 6.66699 -65 10 -105 10c-11.333 0 -25.666 -0.666992 -42.999 -2c0 -23.333 1.66699 -46.666 5 -69.999s8 -43 14 -59l248 46z" />
    <glyph glyph-name="uniFECC" unicode="&#x639;" horiz-adv-x="607" arabic-form="medial" 
d="M615 192.5c2 -9 3.00195 -20.165 3.00195 -33.498v-112c0 -12.667 -1 -23.667 -3 -33s-4.66699 -14 -8 -14h-190c-24 0 -45 3.33301 -63 10s-34 19.667 -48 39c-16 -18 -34.667 -30.667 -56 -38s-46 -11 -74 -11h-176c-2.66699 0 -5.33398 4.83301 -8.00098 14.5
s-4 20.5 -4 32.5v112c0 12.667 1.16699 23.667 3.5 33s5.16602 14 8.49902 14h132c4.66699 0 11.667 -0.666992 21 -2l-37 74.5c-9.33301 18.333 -15.5 29.166 -18.5 32.499s-6.16699 5 -9.5 5l-30 1l6 163c134.667 12.667 231.334 19 290.001 19
c50.667 0 90.167 -4.16699 118.5 -12.5s48.333 -21.333 60 -39s17.5 -41.834 17.5 -72.501v-45c0 -12 -5.66699 -31 -17 -57s-24.333 -49.333 -39 -70c11.333 2 24.666 3 39.999 3h73c3.33301 0 6 -4.5 8 -13.5zM368.502 253.002c21 27.333 34.5 50.666 40.5 69.999
c-13.333 4.66699 -41.333 7 -84 7c-34.667 0 -67 -1.66699 -97 -5c4 -3.33301 8.5 -9.16602 13.5 -17.499l17.5 -30.5c16 -29.333 32.333 -57.666 49 -84.999c19.333 13.333 39.5 33.666 60.5 60.999z" />
    <glyph glyph-name="uniFECE" unicode="&#x63a;" horiz-adv-x="712" arabic-form="final" 
d="M363 590l-131 110l109 130l131 -109zM720 192.5c2 -9 2.99707 -20.1689 2.99707 -33.502v-112c0 -12.667 -1 -23.667 -3 -33s-4.66699 -14 -8 -14h-114c-62 0 -109.167 6.5 -141.5 19.5s-58.5 35.833 -78.5 68.5c-35.333 -19.333 -64.166 -38 -86.499 -56
s-41.166 -37.333 -56.499 -58c-2 -18 -3 -34.667 -3 -50c0 -41.333 6.16699 -73.666 18.5 -96.999s31.666 -40 57.999 -50s62.166 -15 107.499 -15h254l-42 -206h-211c-68.667 0 -128.5 13.833 -179.5 41.5s-90.5 67.5 -118.5 119.5s-42 114.333 -42 187
c0 55.333 13 109.833 39 163.5s64.667 101.834 116 144.501l-48.5 98c-12.333 24 -20.166 38.167 -23.499 42.5s-6.66602 6.5 -9.99902 6.5l-30 1l6 163c134.667 12.667 231.334 19 290.001 19c51.333 0 91 -4 119 -12s47.667 -20.833 59 -38.5s17 -42.167 17 -73.5v-45
c0 -8.66699 -3.66699 -22.5 -11 -41.5s-18 -39.5 -32 -61.5s-30 -42 -48 -60c10 -2.66699 24.333 -4 43 -4h149c3.33301 0 6 -4.5 8 -13.5zM430.497 296.498c21 27 34.5 50.498 40.5 70.498c-14 4 -40.667 6 -80 6c-36 0 -69.667 -1.66699 -101 -5
c4 -3.33301 8.5 -9.16602 13.5 -17.499l17.5 -30.5c16 -29.333 32.333 -57.666 49 -84.999c19.333 14 39.5 34.5 60.5 61.5z" />
    <glyph glyph-name="uniFECF" unicode="&#x63a;" horiz-adv-x="597" arabic-form="initial" 
d="M245 600l-132 110l110 130l131 -110zM513 68c-82 -22 -144.833 -37.501 -188.5 -46.501s-82.667 -14.833 -117 -17.5s-81.166 -4 -140.499 -4h-67c-2.66699 0 -5.33398 4.83301 -8.00098 14.5s-4 20.5 -4 32.5v112c0 12.667 1.16699 23.667 3.5 33s5.16602 14 8.49902 14
h105c-10 26.667 -15 59.667 -15 99c0 68 20 119.333 60 154s93.333 52 160 52c36 0 74 -5 114 -15l-40 -160c-30 6.66699 -65 10 -105 10c-11.333 0 -25.666 -0.666992 -42.999 -2c0 -23.333 1.66699 -46.666 5 -69.999s8 -43 14 -59l248 46z" />
    <glyph glyph-name="uniFED0" unicode="&#x63a;" horiz-adv-x="607" arabic-form="medial" 
d="M293 590l-131 110l110 130l130 -109zM615 192.5c2 -9 3.00195 -20.165 3.00195 -33.498v-112c0 -12.667 -1 -23.667 -3 -33s-4.66699 -14 -8 -14h-190c-24 0 -45 3.33301 -63 10s-34 19.667 -48 39c-16 -18 -34.667 -30.667 -56 -38s-46 -11 -74 -11h-176
c-2.66699 0 -5.33398 4.83301 -8.00098 14.5s-4 20.5 -4 32.5v112c0 12.667 1.16699 23.667 3.5 33s5.16602 14 8.49902 14h132c4.66699 0 11.667 -0.666992 21 -2l-37 74.5c-9.33301 18.333 -15.5 29.166 -18.5 32.499s-6.16699 5 -9.5 5l-30 1l6 163
c134.667 12.667 231.334 19 290.001 19c50.667 0 90.167 -4.16699 118.5 -12.5s48.333 -21.333 60 -39s17.5 -41.834 17.5 -72.501v-45c0 -12 -5.66699 -31 -17 -57s-24.333 -49.333 -39 -70c11.333 2 24.666 3 39.999 3h73c3.33301 0 6 -4.5 8 -13.5zM368.502 253.002
c21 27.333 34.5 50.666 40.5 69.999c-13.333 4.66699 -41.333 7 -84 7c-34.667 0 -67 -1.66699 -97 -5c4 -3.33301 8.5 -9.16602 13.5 -17.499l17.5 -30.5c16 -29.333 32.333 -57.666 49 -84.999c19.333 13.333 39.5 33.666 60.5 60.999z" />
    <glyph glyph-name="uniFED2" unicode="&#x641;" horiz-adv-x="1048" arabic-form="final" 
d="M813 613l-132 110l110 130l131 -109zM1056 192.5c2 -9 2.99902 -20.168 2.99902 -33.501v-112c0 -12.667 -1 -23.667 -3 -33s-4.66699 -14 -8 -14h-96c-36 0 -67.667 4.16699 -95 12.5s-51 23.5 -71 45.5c-14.667 -12.667 -28.667 -22.334 -42 -29.001
c-24 -13.333 -50.333 -22.166 -79 -26.499s-65 -6.5 -109 -6.5l-102 1c-79.333 0 -145.5 5.83301 -198.5 17.5s-94.667 33.834 -125 66.501s-45.5 79 -45.5 139c0 14.667 2.33301 39 7 73l26 156l124 -26l-22 -136c-2.66699 -11.333 -4 -20.333 -4 -27
c0 -15.333 7.83301 -27 23.5 -35s40.5 -13.667 74.5 -17s81 -5 141 -5l118 1c20 0 35 -1 45 -3c-12.667 12.667 -19 27 -19 43c0 36.667 11.333 76.334 34 119.001s50.334 78.667 83.001 108s62.667 44 90 44c32 0 62.167 -12.5 90.5 -37.5s51 -58.333 68 -100
s25.5 -85.834 25.5 -132.501c0 -10 -1 -18.5 -3 -25.5s-5.66699 -13.167 -11 -18.5c12 3.33301 24.667 5 38 5h34c3.33301 0 6 -4.5 8 -13.5zM859.999 246.999c-4.66699 26 -12.333 47.999 -23 65.999s-21.667 27 -33 27c-7.33301 0 -17.333 -5.33301 -30 -16
s-24.167 -22.667 -34.5 -36s-15.5 -23.666 -15.5 -30.999c0 -4.66699 4 -11 12 -19s21.333 -19.667 40 -35z" />
    <glyph glyph-name="uniFED3" unicode="&#x641;" horiz-adv-x="518" arabic-form="initial" 
d="M234 785l-131 109l109 131l131 -110zM441.5 208c-5 -44 -14.167 -80.168 -27.5 -108.501s-33 -49.833 -59 -64.5c-22.667 -13.333 -50.334 -22.5 -83.001 -27.5s-75 -7.5 -127 -7.5h-145c-2.66699 0 -5.33398 4.83301 -8.00098 14.5s-4 20.5 -4 32.5v112
c0 12.667 1.16699 23.667 3.5 33s5.16602 14 8.49902 14c82 0 149.333 0.333008 202 1s88.334 2.33398 107.001 5.00098l3 47c-28 -6.66699 -60 -10 -96 -10s-67.333 4.66699 -94 14c-10 3.33301 -18.333 8.83301 -25 16.5s-15.667 20.834 -27 39.501
c-11.333 19.333 -18.666 33.666 -21.999 42.999s-4.66602 20 -3.99902 32c3.33301 88 22 159.333 56 214s83.667 82 149 82c38 0 72 -12.667 102 -38s53.667 -61.5 71 -108.5s26 -101.5 26 -163.5c0.666992 -70.667 -1.5 -128 -6.5 -172zM249 414.999
c26.667 0 48.335 1 65.002 3c0 34 -7 60.167 -21 78.5s-31.667 27.5 -53 27.5c-18.667 0 -33.834 -8.83301 -45.501 -26.5s-18.834 -44.167 -21.501 -79.5c20 -2 45.333 -3 76 -3z" />
    <glyph glyph-name="uniFED4" unicode="&#x641;" horiz-adv-x="512" arabic-form="medial" 
d="M298 615l-131 110l110 131l130 -110zM520 192.5c2 -9 3.00195 -20.165 3.00195 -33.498v-112c0 -12.667 -1 -23.667 -3 -33s-4.66699 -14 -8 -14h-99c-35.333 0 -66.333 3.83301 -93 11.5s-50 22.167 -70 43.5c-22.667 -21.333 -48 -35.833 -76 -43.5
s-61.667 -11.5 -101 -11.5h-73c-2.66699 0 -5.33398 4.83301 -8.00098 14.5s-4 20.5 -4 32.5v112c0 12.667 1.16699 23.667 3.5 33s5.16602 14 8.49902 14h13h32c14 0 24.667 -1 32 -3c-6.66699 5.33301 -11.667 12.166 -15 20.499s-5 16.166 -5 23.499
c0 36.667 11.5 76.667 34.5 120s51.167 79.833 84.5 109.5s63.666 44.5 90.999 44.5c32.667 0 63.334 -12.667 92.001 -38s51.667 -59 69 -101s26 -86.667 26 -134c0 -10 -1 -18.667 -3 -26s-6 -14 -12 -20c11.333 2.66699 24.333 4 39 4h34c3.33301 0 6 -4.5 8 -13.5z
M322.002 251.002c-4 26 -11.667 48.167 -23 66.5s-23 27.5 -35 27.5c-7.33301 0 -17.5 -5.5 -30.5 -16.5s-24.5 -23.333 -34.5 -37s-15 -24.167 -15 -31.5c0 -8.66699 17.667 -27.667 53 -57z" />
    <glyph glyph-name="uniFED6" unicode="&#x642;" horiz-adv-x="893" arabic-form="final" 
d="M473 540l-119 100l100 118l116 -96l88 104l119 -99l-100 -118l-116 96zM901 192c2 -9.33301 3 -20.335 3 -33.002v-112c0 -12.667 -1.16699 -23.667 -3.5 -33s-4.83301 -14 -7.5 -14h-119c-1.33301 -40 -5.66602 -71.333 -12.999 -94s-19.333 -43 -36 -61
c-64 -65.333 -184 -98.666 -360 -99.999c-101.333 0 -173.333 18.5 -216 55.5s-64 91.833 -64 164.5c0 49.333 17.333 167.333 52 354l126 -25c-26 -144 -39.333 -238.333 -40 -283c0 -24 13.5 -40 40.5 -48s60.167 -12 99.5 -12c132.667 0 227.667 7.66699 285 23l2 46
c-30.667 -7.33301 -65.667 -11 -105 -11c-37.333 0 -68.666 4.33301 -93.999 13c-10 3.33301 -18.333 8.83301 -25 16.5s-15.334 20.834 -26.001 39.501c-12 19.333 -19.667 33.5 -23 42.5s-5 19.833 -5 32.5c4 88 23 159.333 57 214s83.667 82 149 82
c53.333 0 97.166 -21.5 131.499 -64.5s55.5 -102.5 63.5 -178.5h120c3.33301 0 6 -4.66699 8 -14zM643 176.998c0 34 -7 60.167 -21 78.5s-32 27.5 -54 27.5c-18 0 -32.833 -8.83301 -44.5 -26.5s-18.834 -44.167 -21.501 -79.5c26.667 -1.33301 52 -2 76 -2
c20.667 0 42.334 0.666992 65.001 2z" />
    <glyph glyph-name="uniFED7" unicode="&#x642;" horiz-adv-x="508" arabic-form="initial" 
d="M132 779l-118 99l99 119l116 -97l89 105l118 -100l-99 -118l-116 98zM441.5 208c-5 -44 -14.167 -80.168 -27.5 -108.501s-33 -49.833 -59 -64.5c-22.667 -13.333 -50.334 -22.5 -83.001 -27.5s-75 -7.5 -127 -7.5h-145c-2.66699 0 -5.33398 4.83301 -8.00098 14.5
s-4 20.5 -4 32.5v112c0 12.667 1.16699 23.667 3.5 33s5.16602 14 8.49902 14c82 0 149.333 0.333008 202 1s88.334 2.33398 107.001 5.00098l3 47c-28 -6.66699 -60 -10 -96 -10s-67.333 4.66699 -94 14c-10 3.33301 -18.333 8.83301 -25 16.5s-15.667 20.834 -27 39.501
c-11.333 19.333 -18.666 33.666 -21.999 42.999s-4.66602 20 -3.99902 32c3.33301 88 22 159.333 56 214s83.667 82 149 82c38 0 72 -12.667 102 -38s53.667 -61.5 71 -108.5s26 -101.5 26 -163.5c0.666992 -70.667 -1.5 -128 -6.5 -172zM249 414.999
c26.667 0 48.335 1 65.002 3c0 34 -7 60.167 -21 78.5s-31.667 27.5 -53 27.5c-18.667 0 -33.834 -8.83301 -45.501 -26.5s-18.834 -44.167 -21.501 -79.5c20 -2 45.333 -3 76 -3z" />
    <glyph glyph-name="uniFED8" unicode="&#x642;" horiz-adv-x="512" arabic-form="medial" 
d="M187 603l-119 99l100 119l115 -97l89 105l119 -100l-100 -118l-115 97zM520 192.5c2 -9 3.00195 -20.165 3.00195 -33.498v-112c0 -12.667 -1 -23.667 -3 -33s-4.66699 -14 -8 -14h-99c-35.333 0 -66.333 3.83301 -93 11.5s-50 22.167 -70 43.5
c-22.667 -21.333 -48 -35.833 -76 -43.5s-61.667 -11.5 -101 -11.5h-73c-2.66699 0 -5.33398 4.83301 -8.00098 14.5s-4 20.5 -4 32.5v112c0 12.667 1.16699 23.667 3.5 33s5.16602 14 8.49902 14h13h32c14 0 24.667 -1 32 -3c-6.66699 5.33301 -11.667 12.166 -15 20.499
s-5 16.166 -5 23.499c0 36.667 11.5 76.667 34.5 120s51.167 79.833 84.5 109.5s63.666 44.5 90.999 44.5c32.667 0 63.334 -12.667 92.001 -38s51.667 -59 69 -101s26 -86.667 26 -134c0 -10 -1 -18.667 -3 -26s-6 -14 -12 -20c11.333 2.66699 24.333 4 39 4h34
c3.33301 0 6 -4.5 8 -13.5zM322.002 251.002c-4 26 -11.667 48.167 -23 66.5s-23 27.5 -35 27.5c-7.33301 0 -17.5 -5.5 -30.5 -16.5s-24.5 -23.333 -34.5 -37s-15 -24.167 -15 -31.5c0 -8.66699 17.667 -27.667 53 -57z" />
    <glyph glyph-name="uniFEDA" unicode="&#x643;" horiz-adv-x="961" arabic-form="final" 
d="M969 192.5c2 -9 2.99902 -20.1689 2.99902 -33.502v-112c0 -12.667 -1 -23.667 -3 -33s-4.66699 -14 -8 -14c-102 0 -175.667 20.667 -221 62c-22.667 -20.667 -57.667 -36 -105 -46s-107.666 -16.667 -180.999 -20c-79.333 0 -145.5 5.83301 -198.5 17.5
s-94.667 34 -125 67s-45.5 79.5 -45.5 139.5c0 14 2.33301 38 7 72l26 156l124 -25l-22 -136c-2.66699 -11.333 -4 -20.333 -4 -27c0 -15.333 7.83301 -27.166 23.5 -35.499s40.667 -14.166 75 -17.499s81.166 -5 140.499 -5c112.667 0 188.334 6.33301 227.001 19l-18 536
l155 27l1 -499c0 -23.333 4.5 -42 13.5 -56s25.833 -21.667 50.5 -23h77c3.33301 0 6 -4.5 8 -13.5zM495.999 368.998c-38 -27.333 -91.6689 -41 -161.002 -41l14 112c62.667 -0.666992 109 6.33301 139 21c0.666992 1.33301 0.5 2 -0.5 2h-4.5
c-30 4.66699 -53.167 9.16699 -69.5 13.5s-29.166 11 -38.499 20s-14 21.5 -14 37.5c0 27.333 5.83301 55.833 17.5 85.5s26.667 54.334 45 74.001s36.833 29.5 55.5 29.5c16.667 0 32 -5.16699 46 -15.5s30 -29.5 48 -57.5l-48 -48c-16 16 -30.333 24 -43 24
c-19.333 0 -34 -18.333 -44 -55c26.667 -2.66699 47.834 -6.5 63.501 -11.5s28.167 -13.833 37.5 -26.5s14 -31.334 14 -56.001c0 -44.667 -19 -80.667 -57 -108z" />
    <glyph glyph-name="uniFEDB" unicode="&#x643;" horiz-adv-x="494" arabic-form="initial" 
d="M363.5 381c32.333 -64 48.502 -134.001 48.502 -210.001c0 -43.333 -14.167 -77.5 -42.5 -102.5s-72.333 -42.833 -132 -53.5s-138.834 -15.667 -237.501 -15c-2.66699 0 -5.33398 4.83301 -8.00098 14.5s-4 20.5 -4 32.5v112c0 12.667 1.16699 23.667 3.5 33
s5.16602 14 8.49902 14c113.333 -0.666992 203.333 4 270 14c-8 50 -34.333 100.167 -79 150.5s-104 98.833 -178 145.5l2 154c126.667 68.667 251.334 124 374.001 166l21 -168l-37 -15l-79.5 -32l-106.5 -44c13.333 -5.33301 26 -13.666 38 -24.999
c60 -50 106.167 -107 138.5 -171z" />
    <glyph glyph-name="uniFEDC" unicode="&#x643;" horiz-adv-x="515" arabic-form="medial" 
d="M523 192.5c2 -9 2.99902 -20.168 2.99902 -33.501v-112c0 -12.667 -1 -23.667 -3 -33s-4.66699 -14 -8 -14h-66c-45.333 0 -79 17.333 -101 52c-31.333 -19.333 -75.166 -33 -131.499 -41s-128.5 -11.667 -216.5 -11c-2.66699 0 -5.33398 4.83301 -8.00098 14.5
s-4 20.5 -4 32.5v112c0 12.667 1.16699 23.667 3.5 33s5.16602 14 8.49902 14c113.333 -0.666992 203.333 4 270 14c-8 50 -34.333 100.167 -79 150.5s-104 98.833 -178 145.5l2 154c126.667 68.667 251.334 124 374.001 166l21 -168l-37 -15l-79.5 -32l-106.5 -44
c13.333 -5.33301 26 -13.666 38 -24.999c110 -91.333 171.333 -201 184 -329c4 -8 8.83301 -12.833 14.5 -14.5s16.834 -2.5 33.501 -2.5h58c3.33301 0 6 -4.5 8 -13.5z" />
    <glyph glyph-name="uniFEDE" unicode="&#x644;" horiz-adv-x="822" arabic-form="final" 
d="M830 192c2 -9.33301 2.99805 -20.333 2.99805 -33v-112c0 -12.667 -1.16699 -23.667 -3.5 -33s-4.83301 -14 -7.5 -14h-28c-45.333 0 -79.333 14 -102 42l4 -95c0.666992 -45.333 -17.833 -82 -55.5 -110s-82.167 -48.167 -133.5 -60.5s-98.666 -18.5 -141.999 -18.5
c-101.333 0 -173.333 18.667 -216 56s-64 92.333 -64 165c0 31.333 4.83301 77.166 14.5 137.499s22.167 132.5 37.5 216.5l126 -26c-26 -142.667 -39.333 -236.667 -40 -282c0 -40.667 46.667 -61 140 -61c38.667 0 73 2.33301 103 7s61.667 11.334 95 20.001l-53 764
l156 29l21 -547c2.66699 -13.333 9.83398 -21.833 21.501 -25.5s29.167 -5.5 52.5 -5.5h63c3.33301 0 6 -4.66699 8 -14z" />
    <glyph glyph-name="uniFEDF" unicode="&#x644;" horiz-adv-x="385" arabic-form="initial" 
d="M290 616c6.66699 -186.667 10.668 -326.667 12.001 -420c0 -63.333 -23.667 -111.333 -71 -144c-49.333 -34.667 -126.333 -52 -231 -52c-2.66699 -0 -5.33398 4.83301 -8.00098 14.5s-4 20.5 -4 32.5v112c0 12.667 1.16699 23.667 3.5 33s5.16602 14 8.49902 14
c66 0 119.667 5 161 15l-32 536l156 27c2.66699 -74.667 4.33398 -130.667 5.00098 -168z" />
    <glyph glyph-name="uniFEE0" unicode="&#x644;" horiz-adv-x="459" arabic-form="medial" 
d="M467 192c2 -9.33301 3.00098 -20.335 3.00098 -33.002v-112c0 -12.667 -1.16699 -23.667 -3.5 -33s-4.83301 -14 -7.5 -14c-59.333 0 -106.666 5.33301 -141.999 16s-61 29 -77 55c-18 -26.667 -47 -45.167 -87 -55.5s-91 -15.5 -153 -15.5
c-2.66699 0 -5.33398 4.83301 -8.00098 14.5s-4 20.5 -4 32.5v112c0 12.667 1.16699 23.667 3.5 33s5.16602 14 8.49902 14c41.333 0 76.666 0.833008 105.999 2.5s54 5.5 74 11.5l-20 537l157 27l-2 -501c0 -23.333 4.83301 -41.666 14.5 -54.999
s26.834 -20.666 51.501 -21.999h78c3.33301 0 6 -4.66699 8 -14z" />
    <glyph glyph-name="uniFEE2" unicode="&#x645;" horiz-adv-x="669" arabic-form="final" 
d="M677 192.5c2 -9 3.00098 -20.167 3.00098 -33.5v-112c0 -12.667 -1 -23.667 -3 -33s-4.66699 -14 -8 -14c-28.667 0 -57 6 -85 18s-50 30.667 -66 56l-2 -24c-1.33301 -12 -5.5 -22.333 -12.5 -31s-20.167 -20.334 -39.5 -35.001c-26.667 -20.667 -48 -31 -64 -31
c-6.66699 0 -14 1.66699 -22 5l-165 73c3.33301 -42 8.16602 -86 14.499 -132s15.5 -105 27.5 -177l-158 -49c-19.333 148.667 -29 261.334 -29 338.001c0 69.333 8 122.333 24 159c38 86.667 78.5 152 121.5 196s89.5 66 139.5 66c34.667 0 66.667 -12.5 96 -37.5
s51 -55.167 65 -90.5c10 -24 19.667 -42.5 29 -55.5s23.833 -23.333 43.5 -31s47.167 -11.5 82.5 -11.5c3.33301 0 6 -4.5 8 -13.5zM408.001 172c0 28 -5.83203 50.833 -17.499 68.5s-29.834 26.5 -54.501 26.5c-29.333 0 -59.333 -25.667 -90 -77l155 -74
c4.66699 18 7 36.667 7 56z" />
    <glyph glyph-name="uniFEE3" unicode="&#x645;" horiz-adv-x="593" arabic-form="initial" 
d="M415.5 397.5c29.667 -23.667 52.8359 -55.999 69.5029 -96.999s25 -86.167 25 -135.5c0 -39.333 -5.33301 -79 -16 -119c-2.66699 -10 -7.83398 -19.333 -15.501 -28s-21.5 -20.667 -41.5 -36c-14 -10.667 -25.667 -18.334 -35 -23.001s-18 -7 -26 -7s-16 2 -24 6
l-190 80c-15.333 -14 -34.333 -23.833 -57 -29.5s-52.667 -8.5 -90 -8.5h-15c-2.66699 -0 -5.33398 4.83301 -8.00098 14.5s-4 20.5 -4 32.5v112c0 12.667 1.16699 23.667 3.5 33s5.16602 14 8.49902 14h34c20.667 0 36.167 1.33301 46.5 4s18.166 7.16699 23.499 13.5
s11.333 16.833 18 31.5c26.667 64 55.167 109.667 85.5 137s65.5 41 105.5 41c38.667 0 72.834 -11.833 102.501 -35.5zM381.002 165.001c0 28 -6.5 51.667 -19.5 71s-32.167 29 -57.5 29c-27.333 0 -51.333 -26.667 -72 -80l143 -63c4 14 6 28.333 6 43z" />
    <glyph glyph-name="uniFEE4" unicode="&#x645;" horiz-adv-x="637" arabic-form="medial" 
d="M645 192c2 -9.33301 3.00293 -20.335 3.00293 -33.002v-112c0 -12.667 -1.16699 -23.667 -3.5 -33s-4.83301 -14 -7.5 -14c-28.667 0 -56.667 5.83301 -84 17.5s-49 29.5 -65 53.5l-3 -21c-1.33301 -11.333 -5.83301 -22.166 -13.5 -32.499
s-22.167 -23.166 -43.5 -38.499c-24 -18 -43 -27 -57 -27c-8 0 -16 2 -24 6l-184 80c-14.667 -14 -32.334 -23.833 -53.001 -29.5s-46.667 -8.5 -78 -8.5h-32c-2.66699 -0 -5.33398 4.83301 -8.00098 14.5s-4 20.5 -4 32.5v112c0 12.667 1.16699 23.667 3.5 33
s5.16602 14 8.49902 14h34c20.667 0 36.167 1.33301 46.5 4s18.166 7.16699 23.499 13.5s11.333 16.833 18 31.5c26.667 64 55.167 109.667 85.5 137s65.5 41 105.5 41c40.667 0 76.334 -12.833 107.001 -38.5s53 -57.167 67 -94.5c8.66699 -24 17.667 -42.167 27 -54.5
s23.5 -22 42.5 -29s45.833 -10.5 80.5 -10.5c3.33301 0 6 -4.66699 8 -14zM381.003 162.998c0 28 -6.66699 51.999 -20 71.999s-32.333 30 -57 30c-27.333 0 -51.333 -26.667 -72 -80l144 -63c3.33301 14.667 5 28.334 5 41.001z" />
    <glyph glyph-name="uniFEE6" unicode="&#x646;" horiz-adv-x="816" arabic-form="final" 
d="M387 384l-131 109l110 131l130 -110zM824 192.5c2 -9 2.99902 -20.166 2.99902 -33.499v-112c0 -12.667 -1 -23.667 -3 -33s-4.66699 -14 -8 -14h-10c-53.333 0 -91.333 17.667 -114 53c2.66699 -34.667 4 -70 4 -106c0 -45.333 -18.833 -82 -56.5 -110
s-82 -48.167 -133 -60.5s-98.167 -18.5 -141.5 -18.5c-98 0 -169.167 19 -213.5 57s-66.5 92.667 -66.5 164c0 31.333 4.83301 77.166 14.5 137.499s22.167 132.5 37.5 216.5l126 -26c-26 -142.667 -39.333 -236.667 -40 -282c0 -40.667 46.667 -61 140 -61
c40.667 0 76.334 2.16699 107.001 6.5s58.667 11.5 84 21.5l-47 367l154 34l16 -155c6.66699 -14.667 18.667 -23.667 36 -27s48.333 -5 93 -5h10c3.33301 0 6 -4.5 8 -13.5z" />
    <glyph glyph-name="uniFEE7" unicode="&#x646;" horiz-adv-x="393" arabic-form="initial" 
d="M185 578l-132 110l110 131l131 -110zM305 325c2 -35.333 3.00098 -78.334 3.00098 -129.001c0 -62.667 -23.333 -110.667 -70 -144c-49.333 -34.667 -128.666 -52 -237.999 -52c-2.66699 0 -5.33398 4.83301 -8.00098 14.5s-4 20.5 -4 32.5v112
c0 12.667 1.16699 23.667 3.5 33s5.16602 14 8.49902 14c45.333 0 80.333 1.5 105 4.5s44.667 7.5 60 13.5l-26 210l156 27c4.66699 -55.333 8 -100.666 10 -135.999z" />
    <glyph glyph-name="uniFEE8" unicode="&#x646;" horiz-adv-x="432" arabic-form="medial" 
d="M203 503l-132 110l110 131l131 -110zM439 192.5c2 -9 3.00391 -20.166 3.00391 -33.499v-112c0 -12.667 -1 -23.667 -3 -33s-4.33301 -14 -7 -14c-66 0 -114.333 5.16699 -145 15.5s-51.667 29.166 -63 56.499c-9.33301 -19.333 -22.333 -34.166 -39 -44.499
s-39.167 -17.5 -67.5 -21.5s-67.5 -6 -117.5 -6c-2.66699 0 -5.33398 4.83301 -8.00098 14.5s-4 20.5 -4 32.5v112c0 12.667 1.16699 23.667 3.5 33s5.16602 14 8.49902 14c43.333 0 76.666 1.16699 99.999 3.5s42.666 7.16602 57.999 14.499l-23 175l155 17l7 -200
c11.333 -4 26.333 -6.66699 45 -8s48.667 -2 90 -2c2.66699 0 5 -4.5 7 -13.5z" />
    <glyph glyph-name="uniFEEA" unicode="&#x647;" horiz-adv-x="575" arabic-form="final" 
d="M583 192.5c2 -9 2.99707 -20.168 2.99707 -33.501v-112c0 -12.667 -1 -23.667 -3 -33s-4.66699 -14 -8 -14h-58c-37.333 0 -67.666 8.83301 -90.999 26.5s-39.666 42.167 -48.999 73.5l-6 -13c-8.66699 -20 -23 -32.333 -43 -37c-28 -5.33301 -64.333 -8 -109 -8
c-44 0 -78 11 -102 33s-36 54.333 -36 97c0 54.667 5.5 97.834 16.5 129.501s31.167 60.167 60.5 85.5s75 54.333 137 87l-8 77l146 44l31 -299c2.66699 -24.667 5.33398 -42.5 8.00098 -53.5s8.5 -19.833 17.5 -26.5s23.167 -10 42.5 -10h43c3.33301 0 6 -4.5 8 -13.5z
M337.997 237.999l-12 91c-42 -18 -71.667 -35.167 -89 -51.5s-28.333 -33.833 -33 -52.5c13.333 -1.33301 26.333 -2 39 -2c29.333 0 61 5 95 15z" />
    <glyph glyph-name="uniFEEB" unicode="&#x647;" horiz-adv-x="717" arabic-form="initial" 
d="M596.5 356c25.667 -37.333 38.5029 -81.333 38.5029 -132c0 -37.333 -10.333 -85.666 -31 -144.999c-4 -10 -10.5 -19.833 -19.5 -29.5s-21.833 -20.834 -38.5 -33.501c-21.333 -16.667 -40 -25 -56 -25c-4 0 -10.667 1.33301 -20 4l-149 57
c-38 -34.667 -145 -52 -321 -52c-2.66699 -0 -5.33398 4.83301 -8.00098 14.5s-4 20.5 -4 32.5v112c0 12.667 1.16699 23.667 3.5 33s5.16602 14 8.49902 14h39c38 0 64 -1 78 -3c-11.333 8.66699 -20.333 20.167 -27 34.5s-10.334 29.166 -11.001 44.499
c0 36.667 18.667 80.334 56 131.001l-38 19l72 156l314 -142c50 -22.667 87.833 -52.667 113.5 -90zM330.003 330l-77 36c-18 -20 -30.167 -35 -36.5 -45s-9.5 -19 -9.5 -27c0 -12 8.83301 -23.333 26.5 -34s38.5 -16.667 62.5 -18zM506.003 187
c2.66699 8.66699 3.99902 15.999 3.99902 21.999c0 16.667 -7.33301 32 -22 46s-35.667 26.333 -63 37l-36 -88l106 -40c4.66699 6.66699 8.33398 14.334 11.001 23.001z" />
    <glyph glyph-name="uniFEEC" unicode="&#x647;" horiz-adv-x="544" arabic-form="medial" 
d="M551 192.5c2 -9 3.00195 -20.1699 3.00195 -33.5029v-112c0 -12.667 -1 -23.667 -3 -33s-4.33301 -14 -7 -14c-55.333 0 -94.666 1.33301 -117.999 4c9.33301 -15.333 14 -34 14 -56v-69c0 -11.333 -2.83301 -22.166 -8.5 -32.499s-16.5 -22.5 -32.5 -36.5
c-18.667 -16 -33.834 -27.167 -45.501 -33.5s-23.167 -9.16602 -34.5 -8.49902c-75.333 3.33301 -135.333 23.333 -180 60s-72.667 94 -84 172h-55c-2.66699 0 -5.33398 4.83301 -8.00098 14.5s-4 20.5 -4 32.5v112c0 12.667 1.16699 23.667 3.5 33s5.16602 14 8.49902 14
h63c11.333 49.333 28.833 94.833 52.5 136.5s51.167 74.834 82.5 99.501s64.333 37 99 37h99l7 -273h141c2.66699 0 5 -4.5 7 -13.5zM214.502 275.497c-15 -29 -26.167 -61.167 -33.5 -96.5h42c18 0 34.667 -1.66699 50 -5l-4 167c-21.333 -14.667 -39.5 -36.5 -54.5 -65.5z
M310.002 -45.0029c0 28 -6.66699 48 -20 60s-36.333 18 -69 18h-48c6 -38 20.833 -65.833 44.5 -83.5s54.5 -25.5 92.5 -23.5v29z" />
    <glyph glyph-name="uniFEEE" unicode="&#x648;" horiz-adv-x="521" arabic-form="final" 
d="M528 192.5c2 -9 3.00391 -20.1689 3.00391 -33.502v-112c0 -12.667 -1 -23.667 -3 -33s-4.33301 -14 -7 -14h-74c-36.667 -134.667 -142 -240 -316 -316l-104 159c60 20.667 114.667 46 164 76s87 59.667 113 89c-22.667 -5.33301 -46.334 -8 -71.001 -8
c-38.667 0 -70 4.66699 -94 14c-10 2.66699 -18.333 7.83398 -25 15.501s-16 21.5 -28 41.5c-10.667 18 -17.834 32.167 -21.501 42.5s-5.16699 20.5 -4.5 30.5c4 88.667 23 160.334 57 215.001s83.333 82 148 82c49.333 0 91.666 -21 126.999 -63
s57.666 -99.333 66.999 -172h62c2.66699 0 5 -4.5 7 -13.5zM266.004 164.998c27.333 0 48.667 1.33301 64 4c0 34 -6.83301 60.167 -20.5 78.5s-31.5 27.5 -53.5 27.5c-18.667 0 -33.667 -9 -45 -27s-18.333 -44.333 -21 -79c18 -2.66699 43.333 -4 76 -4z" />
    <glyph glyph-name="uniFEF0" unicode="&#x649;" horiz-adv-x="778" arabic-form="final" 
d="M786 192c2 -9.33301 3 -20.333 3 -33v-112c0 -12.667 -1.16699 -23.667 -3.5 -33s-4.83301 -14 -7.5 -14l-32 1v-14c0 -51.333 -15.667 -97 -47 -137s-75.833 -71.333 -133.5 -94s-124.5 -34 -200.5 -34c-101.333 0 -173.333 18.667 -216 56s-64 92 -64 164
c0 49.333 17.333 167.333 52 354l126 -26c-26 -142.667 -39.333 -236.667 -40 -282c0 -24 14.167 -40 42.5 -48s66.833 -12 115.5 -12c50.667 0 96.334 3.83301 137.001 11.5s73 19.167 97 34.5c-4 11.333 -15.833 19 -35.5 23s-48.834 6.66699 -87.501 8h-28l32 201h282
c3.33301 0 6 -4.66699 8 -14z" />
    <glyph glyph-name="uniFEF2" unicode="&#x64a;" horiz-adv-x="778" arabic-form="final" 
d="M786 192c2 -9.33301 3 -20.333 3 -33v-112c0 -12.667 -1.16699 -23.667 -3.5 -33s-4.83301 -14 -7.5 -14l-32 1v-14c0 -51.333 -15.667 -97 -47 -137s-75.833 -71.333 -133.5 -94s-124.5 -34 -200.5 -34c-101.333 0 -173.333 18.667 -216 56s-64 92 -64 164
c0 49.333 17.333 167.333 52 354l126 -26c-26 -142.667 -39.333 -236.667 -40 -282c0 -24 14.167 -40 42.5 -48s66.833 -12 115.5 -12c50.667 0 96.334 3.83301 137.001 11.5s73 19.167 97 34.5c-4 11.333 -15.833 19 -35.5 23s-48.834 6.66699 -87.501 8h-28l32 201h282
c3.33301 0 6 -4.66699 8 -14zM487 -345l119 -99l-101 -119l-115 97l-88 -106l-119 100l100 120l116 -97z" />
    <glyph glyph-name="uniFEF3" unicode="&#x64a;" horiz-adv-x="393" arabic-form="initial" 
d="M-8 14.5c-2.66699 9.66699 -3.99902 20.499 -3.99902 32.499v112c0 12.667 1.16699 23.667 3.5 33s5.16602 14 8.49902 14c45.333 0 80.333 1.5 105 4.5s44.667 7.5 60 13.5l-26 210l156 27c4.66699 -55.333 8 -100.666 10 -135.999s3 -78.333 3 -129
c0 -62.667 -23.333 -110.667 -70 -144c-49.333 -34.667 -128.666 -52 -237.999 -52c-2.66699 -0 -5.33398 4.83301 -8.00098 14.5zM210.001 -333.001l-116 97l-87 -106l-119 100l99 120l116 -97l88 104l119 -99z" />
    <glyph glyph-name="uniFEF4" unicode="&#x64a;" horiz-adv-x="432" arabic-form="medial" 
d="M185 27.5c-16.667 -10.333 -39.1631 -17.499 -67.4961 -21.499s-67.5 -6 -117.5 -6c-2.66699 0 -5.33398 4.83301 -8.00098 14.5s-4 20.5 -4 32.5v112c0 12.667 1.16699 23.667 3.5 33s5.16602 14 8.49902 14c43.333 0 76.666 1.16699 99.999 3.5
s42.666 7.16602 57.999 14.499l-23 175l155 17l7 -200c11.333 -4 26.333 -6.66699 45 -8s48.667 -2 90 -2c2.66699 0 5 -4.5 7 -13.5s3 -20.167 3 -33.5v-112c0 -12.667 -1 -23.667 -3 -33s-4.33301 -14 -7 -14c-66 0 -114.333 5.16699 -145 15.5s-51.667 29.166 -63 56.499
c-9.33301 -19.333 -22.333 -34.166 -39 -44.499zM349.004 -329.999l-115 97l-88 -106l-119 99l100 121l116 -98l88 105l119 -100z" />
    <glyph glyph-name=".notdef" horiz-adv-x="681" 
d="M558 -293h-431v1362h431v-1362zM229 978v-45h88v-51h-90v-45h227v45h-90v51h90v45h-225zM227 802v-142h227v47h-90v95h-137zM317 707h-45v49h45v-49zM227 624v-45h90v-51h-90v-45h137v96h90v45h-227zM409 542v-90h-182v-46h227v136h-45zM317 376v-77h47v32h45v-64h-137
v109h-45v-154h227v154h-137zM227 140v-154h227v154h-227zM409 31h-137v64h137v-64zM227 -45v-45h96l-96 -64v-45h227v45h-139l95 64h44v45h-227z" />
    <glyph glyph-name="space" unicode=" " horiz-adv-x="153" 
 />
    <glyph glyph-name="exclam" unicode="!" horiz-adv-x="371" 
d="M250 300l-131 -20l-22 475l156 26zM106.5 12.5c-21.667 20.333 -32.5 46.5 -32.5 78.5c0 31.333 10.333 57.5 31 78.5s47 31.5 79 31.5c31.333 0 57.333 -10.667 78 -32s31 -47.333 31 -78c0 -31.333 -10.5 -57.333 -31.5 -78s-46.833 -31 -77.5 -31
c-30 0 -55.833 10.167 -77.5 30.5z" />
    <glyph glyph-name="quotedbl" unicode="&#x22;" horiz-adv-x="579" 
d="M120 370l-34 223l-6 151h170l-5 -151l-34 -223h-91zM376 370l-34 223l-6 151h170l-5 -151l-34 -223h-91z" />
    <glyph glyph-name="numbersign" unicode="#" horiz-adv-x="572" 
d="M118 207h-82v112h95l15 118h-88v112h102l23 183h100l-21 -183h112l22 183h101l-21 -183h88v-112h-103l-14 -118h94v-112h-107l-25 -207h-102l24 207h-110l-26 -207h-102zM344 319l15 118h-112l-14 -118h111z" />
    <glyph glyph-name="dollar" unicode="$" horiz-adv-x="592" 
d="M238 -116l0.00488281 113.003c-35.333 4 -70.833 13.333 -106.5 28s-66.5 33.667 -92.5 57l77 120c29.333 -22.667 56.666 -39 81.999 -49s50.666 -15 75.999 -15c30 0 51.833 5.66699 65.5 17s20.5 29.333 20.5 54c0 16.667 -6.33301 31.5 -19 44.5
s-31.334 25.833 -56.001 38.5l-71 37c-58.667 28.667 -100.667 63.667 -126 105c-14.667 24 -22 52.333 -22 85c0 56 15.167 102.333 45.5 139s72.5 60.667 126.5 72v117h116v-114c62.667 -9.33301 119 -40.333 169 -93l-89 -102c-20.667 19.333 -40.334 33.5 -59.001 42.5
s-39 13.5 -61 13.5c-26.667 0 -46.5 -5.16699 -59.5 -15.5s-19.5 -27.5 -19.5 -51.5c0 -14.667 6.5 -27.834 19.5 -39.501s32.167 -23.834 57.5 -36.501l38 -18.5c21.333 -10.333 41.666 -21.5 60.999 -33.5c38.667 -21.333 68 -46.333 88 -75s30 -62.667 30 -102
c0 -56 -14.833 -103.333 -44.5 -142s-73.167 -64.334 -130.5 -77.001v-119h-116z" />
    <glyph glyph-name="percent" unicode="%" horiz-adv-x="921" 
d="M216 -13l395 761h114l-395 -761h-114zM71.5 364c-30.333 41.333 -45.5 93.668 -45.5 157.001s15.333 115.166 46 155.499s72.667 60.5 126 60.5c54 0 96.333 -20.333 127 -61s46 -92.334 46 -155.001c0 -63.333 -15.333 -115.666 -46 -156.999s-73 -62 -127 -62
s-96.167 20.667 -126.5 62zM244 430.002c8.66699 24.667 13 55 13 91c0 83.333 -19.667 125 -59 125s-59 -41.667 -59 -125c0 -38 4.66699 -68.833 14 -92.5s24.333 -35.5 45 -35.5c22 0 37.333 12.333 46 37zM597 49.002c-30.667 41.333 -46.001 93.668 -46.001 157.001
s15.333 115.166 46 155.499s72.667 60.5 126 60.5c54.667 0 97.334 -20.333 128.001 -61s46 -92.334 46 -155.001c0 -63.333 -15.5 -115.666 -46.5 -156.999s-73.5 -62 -127.5 -62c-53.333 0 -95.333 20.667 -126 62zM769.999 115.004c8.66699 24.667 12.999 55 12.999 91
c0 84 -20 126 -60 126c-21.333 0 -36.5 -12 -45.5 -36s-13.5 -54 -13.5 -90c0 -37.333 4.66699 -68 14 -92s24.333 -36 45 -36c22.667 0 38.334 12.333 47.001 37z" />
    <glyph glyph-name="ampersand" unicode="&#x26;" horiz-adv-x="758" 
d="M144 13c-37.333 17.333 -66.5 41.998 -87.5 73.998s-31.5 69 -31.5 111c0 44.667 11.167 83.5 33.5 116.5s55.5 62.833 99.5 89.5c-30.667 54 -46 103.667 -46 149c0 37.333 9 70.833 27 100.5s42.5 52.834 73.5 69.501s65.833 25 104.5 25
c57.333 0 102.5 -15.167 135.5 -45.5s49.5 -71.833 49.5 -124.5c0 -42 -12.5 -78.333 -37.5 -109s-62.5 -63 -112.5 -97c37.333 -42 84 -83.333 140 -124c38.667 50 66 106.667 82 170h161c-26.667 -90.667 -67 -172 -121 -244c49.333 -25.333 91 -39.666 125 -42.999
l-42 -144c-61.333 12.667 -125 37 -191 73c-69.333 -48.667 -147.333 -73 -234 -73c-48 0 -90.667 8.66699 -128 26zM281 471.998c28 16.667 49.5 33.168 64.5 49.501s22.5 35.166 22.5 56.499c0 35.333 -15.667 53 -47 53c-18 0 -33 -6.83301 -45 -20.5
s-18 -32.5 -18 -56.5s7.66699 -51.333 23 -82zM379 145.999c-53.333 43.333 -101.333 91.001 -144 143.001c-28.667 -26.667 -43 -53.334 -43 -80.001c0 -26 9.33301 -47 28 -63s43.667 -24 75 -24c28 0 56 8 84 24z" />
    <glyph glyph-name="quotesingle" unicode="'" horiz-adv-x="330" 
d="M120 370l-34 223l-6 151h170l-5 -151l-34 -223h-91z" />
    <glyph glyph-name="parenleft" unicode="(" horiz-adv-x="419" 
d="M235 -179c-51.333 78.667 -90.167 159.333 -116.5 242s-39.5 169 -39.5 259c0 176.667 52 343.667 156 501l121 -72c-42 -65.333 -73.5 -134.333 -94.5 -207s-31.5 -146.667 -31.5 -222s10.5 -149.333 31.5 -222s52.5 -141.667 94.5 -207z" />
    <glyph glyph-name="parenright" unicode=")" horiz-adv-x="419" 
d="M63 -107c42 64.667 73.333 133.501 94 206.501s31 147.167 31 222.5c0 76 -10.333 150.167 -31 222.5s-52 141.166 -94 206.499l120 72c104.667 -156.667 157 -323.667 157 -501c0 -90.667 -13.167 -177.167 -39.5 -259.5s-65.5 -162.833 -117.5 -241.5z" />
    <glyph glyph-name="asterisk" unicode="*" horiz-adv-x="530" 
d="M135 380l-13 78l-13 94l-60 71l71 37l83 39l64 78l58 -54l63 -69l90 -21l-36 -72l-45 -82v-99l-78 11l-91 20z" />
    <glyph glyph-name="plus" unicode="+" horiz-adv-x="594" 
d="M233 97v205h-197v125h197v205h129v-205h197v-125h-197v-205h-129z" />
    <glyph glyph-name="comma" unicode="," horiz-adv-x="340" 
d="M48 -114c42.667 14.667 75.335 34.001 98.002 58.001s33.667 50.333 33 79h-8c-29.333 0 -54.333 9 -75 27s-31 42 -31 72c0 29.333 10.5 53.166 31.5 71.499s46.833 27.5 77.5 27.5c39.333 0 69.166 -14.167 89.499 -42.5s30.5 -68.833 30.5 -121.5
c0 -65.333 -17.833 -120.833 -53.5 -166.5s-87.834 -78.5 -156.501 -98.5z" />
    <glyph glyph-name="hyphen" unicode="-" horiz-adv-x="370" 
d="M45 208v124h280v-124h-280z" />
    <glyph glyph-name="period" unicode="." horiz-adv-x="408" 
d="M122 13.5c-23.333 22.333 -35.001 50.833 -35.001 85.5c0 34 11.333 62.5 34 85.5s51.334 34.5 86.001 34.5s63.167 -11.5 85.5 -34.5s33.5 -51.5 33.5 -85.5c0 -34.667 -11.333 -63.167 -34 -85.5s-50.667 -33.5 -84 -33.5c-34 0 -62.667 11.167 -86 33.5z" />
    <glyph glyph-name="slash" unicode="/" horiz-adv-x="375" 
d="M14 -168l215 980h114l-214 -980h-115z" />
    <glyph glyph-name="zero" unicode="0" horiz-adv-x="610" 
d="M158 35c-40 32 -69.9971 76 -89.9971 132s-30 120.667 -30 194c0 112 22.667 201.333 68 268s111.666 100 198.999 100s153.666 -33.333 198.999 -100s68 -156 68 -268c0 -113.333 -22.833 -204 -68.5 -272s-111.834 -102 -198.501 -102c-58 0 -107 16 -147 48z
M371.003 187.5c12.667 42.333 19 100.167 19 173.5c0 74.667 -6.33301 131.834 -19 171.501s-34.667 59.5 -66 59.5c-32 0 -54.167 -20.333 -66.5 -61s-18.5 -97.334 -18.5 -170.001c0 -158 28.333 -237 85 -237c31.333 0 53.333 21.167 66 63.5z" />
    <glyph glyph-name="one" unicode="1" horiz-adv-x="606" 
d="M72 143l154.999 0.000976562v395h-135v108c39.333 7.33301 72.833 16.166 100.5 26.499s55.834 24.5 84.501 42.5h142v-572h131v-143h-478v143z" />
    <glyph glyph-name="two" unicode="2" horiz-adv-x="608" 
d="M37 99l131.998 125.504c34.667 34.333 64.334 66.166 89.001 95.499c56.667 64 85 119.667 85 167c0 33.333 -7.66699 58.833 -23 76.5s-37 26.5 -65 26.5c-21.333 0 -41.166 -6.33301 -59.499 -19s-39.5 -32 -63.5 -58l-102 101c37.333 39.333 75.5 68.166 114.5 86.499
s83.833 27.5 134.5 27.5c49.333 0 92.666 -9.66699 129.999 -29s66.333 -46.333 87 -81s31 -74.667 31 -120c0 -52.667 -23 -113.334 -69 -182.001c-31.333 -44.667 -81.666 -103.334 -150.999 -176.001c42 6 79.667 9 113 9h142v-149h-525v99z" />
    <glyph glyph-name="three" unicode="3" horiz-adv-x="613" 
d="M108 207c52 -50.667 103.33 -75.999 153.997 -75.999c32.667 0 58.167 6.33301 76.5 19s27.5 32 27.5 58s-6.83301 46 -20.5 60s-33.834 23.5 -60.501 28.5s-62 7.16699 -106 6.5v125c54 -0.666992 94.667 5.66602 122 18.999s41 36.666 41 69.999
c0 49.333 -24.667 74 -74 74c-22.667 0 -43.667 -5 -63 -15s-42.666 -27.333 -69.999 -52l-93 113c72.667 61.333 150.334 92 233.001 92c79.333 0 142.5 -17.333 189.5 -52s70.5 -83.334 70.5 -146.001c0 -36 -10.167 -66.833 -30.5 -92.5s-51.166 -47.167 -92.499 -64.5
v-5c45.333 -13.333 80.833 -34.666 106.5 -63.999s38.5 -65.666 38.5 -108.999c0 -42 -12.333 -78.833 -37 -110.5s-58.167 -56 -100.5 -73s-89.166 -25.5 -140.499 -25.5c-57.333 0 -107.5 9 -150.5 27s-78.5 43 -106.5 75z" />
    <glyph glyph-name="four" unicode="4" horiz-adv-x="612" 
d="M588 301v-135h-81v-166h-179v166h-307v121l254 428h232v-414h81zM328 403c0 33.333 1.66699 79 5 137l-47 -98l-83 -141h125v102z" />
    <glyph glyph-name="five" unicode="5" horiz-adv-x="608" 
d="M134.5 14.5c-43 18.333 -79.833 42.834 -110.5 73.501l82 119c27.333 -25.333 53 -44.333 77 -57s49.333 -19 76 -19c34 0 60.333 8.5 79 25.5s28 42.5 28 76.5c0 33.333 -8.83301 58.833 -26.5 76.5s-41.834 26.5 -72.501 26.5c-19.333 0 -35.666 -2.66699 -48.999 -8
s-31.333 -15 -54 -29l-86 55l19 361h428v-148h-260l-10 -119c22 8 44 12 66 12c72 0 129.333 -19.833 172 -59.5s64 -93.834 64 -162.501c0 -48.667 -12 -92.167 -36 -130.5s-56.667 -68 -98 -89s-87.333 -31.5 -138 -31.5c-57.333 0 -107.5 9.16699 -150.5 27.5z" />
    <glyph glyph-name="six" unicode="6" horiz-adv-x="610" 
d="M77.5 542.5c23.667 58.333 58 104.003 103 137.003s98.5 49.5 160.5 49.5c47.333 0 89.333 -8.16699 126 -24.5s68 -37.5 94 -63.5l-99 -112c-14 17.333 -30.667 31.166 -50 41.499s-39 15.5 -59 15.5c-78.667 0 -123 -65.667 -133 -197
c16.667 17.333 37 31.666 61 42.999s47.333 17 70 17c70 0 124.5 -19.333 163.5 -58s58.5 -93 58.5 -163c0 -46.667 -10.667 -88.334 -32 -125.001s-51 -65.167 -89 -85.5s-81 -30.5 -129 -30.5c-58.667 0 -109.167 15 -151.5 45s-74.5 71.833 -96.5 125.5
s-33 115.5 -33 185.5c0 74.667 11.833 141.167 35.5 199.5zM254.5 156.503c16.333 -25.667 38.1689 -38.5 65.502 -38.5c23.333 0 42.166 9.5 56.499 28.5s21.5 46.167 21.5 81.5c0 65.333 -27 98 -81 98c-37.333 0 -69 -22 -95 -66
c5.33301 -43.333 16.166 -77.833 32.499 -103.5z" />
    <glyph glyph-name="seven" unicode="7" horiz-adv-x="608" 
d="M223.5 305c28.333 86 74.5 173 138.5 261h-316v149h519v-106c-53.333 -63.333 -93.666 -123.333 -120.999 -180s-46.333 -117.167 -57 -181.5s-17.667 -146.833 -21 -247.5h-193c5.33301 117.333 22.166 219 50.499 305z" />
    <glyph glyph-name="eight" unicode="8" horiz-adv-x="614" 
d="M171 11.5c-39.333 16.333 -70.334 39.5 -93.001 69.5s-34 64 -34 102c0 38.667 10.5 71.667 31.5 99s51.833 52 92.5 74v5c-34 24.667 -59.167 50.167 -75.5 76.5s-24.5 57.166 -24.5 92.499c0 40 10.333 75 31 105s49.167 53.167 85.5 69.5s77.833 24.5 124.5 24.5
c44.667 0 84.167 -8.16699 118.5 -24.5s61 -39.333 80 -69s28.5 -64.167 28.5 -103.5c0 -30.667 -8.66699 -59.167 -26 -85.5s-41 -48.833 -71 -67.5v-5c42 -22 73.833 -48 95.5 -78s32.5 -66.333 32.5 -109c0 -40 -11.667 -75.167 -35 -105.5
s-55.166 -53.666 -95.499 -69.999s-84.833 -24.5 -133.5 -24.5s-92.667 8.16699 -132 24.5zM377.999 520c0 26.667 -6.5 47.835 -19.5 63.502s-30.833 23.5 -53.5 23.5c-20 0 -36 -6.66699 -48 -20s-18 -32.333 -18 -57s8.33301 -44.834 25 -60.501s43 -30.834 79 -45.501
c23.333 29.333 35 61.333 35 96zM365.999 130.501c14 13.667 20.999 34.5 20.999 62.5c0 18.667 -5.16699 34.5 -15.5 47.5s-23.833 23.833 -40.5 32.5s-42 20 -76 34c-13.333 -14 -24.166 -30 -32.499 -48s-12.5 -36.333 -12.5 -55c0 -28.667 9.16699 -51.5 27.5 -68.5
s41.5 -25.5 69.5 -25.5c25.333 0 45 6.83301 59 20.5z" />
    <glyph glyph-name="nine" unicode="9" horiz-adv-x="610" 
d="M67 612c21.333 36.667 51 65.334 89 86.001s81 31 129 31c58.667 0 109.167 -15 151.5 -45s74.666 -71.833 96.999 -125.5s33.5 -115.5 33.5 -185.5c0 -74.667 -11.833 -141.167 -35.5 -199.5s-58.167 -104 -103.5 -137s-99 -49.5 -161 -49.5
c-46.667 0 -88.667 8.33301 -126 25s-68.666 37.667 -93.999 63l99 112c13.333 -16.667 29.833 -30.167 49.5 -40.5s39.5 -15.5 59.5 -15.5c80 0 124 65.333 132 196c-16 -16.667 -36.167 -30.834 -60.5 -42.501s-47.5 -17.5 -69.5 -17.5c-70 0 -124.5 19.833 -163.5 59.5
s-58.5 93.5 -58.5 161.5c0 46 10.667 87.333 32 124zM292 392c36.667 0 67.333 21.667 92 65c-6 47.333 -17.667 82.333 -35 105s-38 34 -62 34c-22 0 -40.167 -9.33301 -54.5 -28s-21.5 -45 -21.5 -79c0 -64.667 27 -97 81 -97z" />
    <glyph glyph-name="colon" unicode=":" horiz-adv-x="413" 
d="M117 329.5c-22.667 21.667 -34 49.167 -34 82.5c0 32 11 59 33 81s49.667 33 83 33c32.667 0 59.667 -11 81 -33s32 -49 32 -81c0 -33.333 -10.833 -60.833 -32.5 -82.5s-48.5 -32.5 -80.5 -32.5s-59.333 10.833 -82 32.5zM117 13.5c-22.667 21.667 -34 49.167 -34 82.5
c0 32 11 59 33 81s49.667 33 83 33c32.667 0 59.667 -11 81 -33s32 -49 32 -81c0 -33.333 -10.833 -60.833 -32.5 -82.5s-48.5 -32.5 -80.5 -32.5s-59.333 10.833 -82 32.5z" />
    <glyph glyph-name="semicolon" unicode=";" horiz-adv-x="372" 
d="M92 382.5c-23.333 22.333 -35.001 51.168 -35.001 86.501c0 34 11.333 62.333 34 85s51.334 34 86.001 34s63.167 -11.5 85.5 -34.5s33.5 -51.167 33.5 -84.5c0 -34.667 -11.5 -63.334 -34.5 -86.001s-50.833 -34 -83.5 -34c-34 0 -62.667 11.167 -86 33.5z
M47.999 -113.998c42.667 14.667 75.335 34 98.002 58s33.667 50.333 33 79h-9c-28.667 0 -53.334 8.83301 -74.001 26.5s-31 41.5 -31 71.5c0 29.333 10.5 53.333 31.5 72s47.167 28 78.5 28c39.333 0 69 -14.167 89 -42.5s30 -68.833 30 -121.5
c0 -65.333 -17.833 -120.833 -53.5 -166.5s-87.834 -78.5 -156.501 -98.5z" />
    <glyph glyph-name="less" unicode="&#x3c;" horiz-adv-x="594" 
d="M559 105l-523 201v121l523 201v-145l-192 -62l-152 -52v-5l152 -52l192 -62v-145z" />
    <glyph glyph-name="equal" unicode="=" horiz-adv-x="594" 
d="M36 412v124h523v-124h-523zM36 167v124h523v-124h-523z" />
    <glyph glyph-name="greater" unicode="&#x3e;" horiz-adv-x="594" 
d="M36 105v145l191 62l153 52v5l-153 52l-191 62v145l523 -201v-121z" />
    <glyph glyph-name="question" unicode="?" horiz-adv-x="522" 
d="M169 267c-1.33301 12 -1.99902 20.6641 -1.99902 25.9971c0 52 21.667 101.333 65 148l17 19c22 24.667 37.5 44 46.5 58s13.5 28.333 13.5 43c0 21.333 -6.33301 37.5 -19 48.5s-29.667 16.5 -51 16.5c-19.333 0 -36.333 -4.16699 -51 -12.5
s-30.334 -20.833 -47.001 -37.5l-98 89c28 32.667 60.167 58.167 96.5 76.5s75.833 27.5 118.5 27.5c68 0 121.833 -16.667 161.5 -50s59.5 -81.666 59.5 -144.999c0 -29.333 -6.66699 -55.333 -20 -78s-34 -48.667 -62 -78c-24.667 -25.333 -43.167 -48.666 -55.5 -69.999
s-18.5 -43.666 -18.5 -66.999c0 -6 0.333008 -10.667 1 -14h-155zM171.001 18.4971c-20 21 -30.001 46.832 -30.001 77.499c0 32 9.83301 58.5 29.5 79.5s44.834 31.5 75.501 31.5s56 -10.667 76 -32s30 -47.666 30 -78.999c0 -30.667 -10.167 -56.5 -30.5 -77.5
s-45.5 -31.5 -75.5 -31.5s-55 10.5 -75 31.5z" />
    <glyph glyph-name="at" unicode="@" horiz-adv-x="1019" 
d="M318.5 -156.5c-51.667 17.667 -97.166 43.8359 -136.499 78.5029c-41.333 37.333 -73.5 82.833 -96.5 136.5s-34.5 115.834 -34.5 186.501c0 77.333 13.333 148.666 40 213.999s64 121.333 112 168c46.667 46 101.167 81.5 163.5 106.5s128.5 37.5 198.5 37.5
c60.667 0 116 -9.66699 166 -29s92.667 -47.333 128 -84s62.333 -79.834 81 -129.501s28 -103.834 28 -162.501c0 -50 -7.66699 -94.5 -23 -133.5s-36.333 -72.167 -63 -99.5c-24.667 -25.333 -52.5 -44.833 -83.5 -58.5s-61.5 -20.5 -91.5 -20.5
c-33.333 0 -62 7.66699 -86 23s-39.333 36.333 -46 63h-2c-14.667 -21.333 -34.834 -39 -60.501 -53s-50.5 -21 -74.5 -21c-46 0 -82.667 15.5 -110 46.5s-41 72.5 -41 124.5c0 34.667 5.83301 68.667 17.5 102s27.834 63.333 48.501 90s45.167 47.5 73.5 62.5
s58.5 22.5 90.5 22.5c38.667 0 66.667 -18.667 84 -56h2l17 48h108l-52 -252c-3.33301 -11.333 -5 -24 -5 -38c0 -35.333 18.333 -53 55 -53c16 0 32.167 4.66699 48.5 14s30.5 22.666 42.5 39.999c26.667 37.333 40 85.333 40 144c0 88 -23 158.667 -69 212
c-25.333 29.333 -57.833 52 -97.5 68s-86.5 24 -140.5 24c-48 0 -94.833 -9.83301 -140.5 -29.5s-86.167 -47.834 -121.5 -84.501c-37.333 -37.333 -66.333 -81.666 -87 -132.999s-31 -107.333 -31 -168c0 -106 33 -188.333 99 -247c29.333 -26.667 63.5 -46.667 102.5 -60
s80.833 -20 125.5 -20c27.333 0 56.166 4 86.499 12s57.833 18.333 82.5 31l39 -96c-66.667 -35.333 -140.667 -53 -222 -53c-58 0 -112.833 8.83301 -164.5 26.5zM509.001 187.002c10.667 7.33301 22.667 19.666 36 36.999l27 148c-11.333 20.667 -28 31 -50 31
c-29.333 0 -54 -18 -74 -54c-8.66699 -15.333 -15.5 -32.166 -20.5 -50.499s-7.5 -35.5 -7.5 -51.5c0 -47.333 18.667 -71 56 -71c11.333 0 22.333 3.66699 33 11z" />
    <glyph glyph-name="A" unicode="A" horiz-adv-x="684" 
d="M219 733h228l227 -733h-202l-41 167h-202l-41 -167h-196zM398 307l-15 58l-18 72l-8 31l-13 54l-13 50h-4l-23 -104l-28 -103l-15 -58h137z" />
    <glyph glyph-name="B" unicode="B" horiz-adv-x="691" 
d="M79 733l264 0.00195312c186.667 0 280 -60.667 280 -182c0 -34.667 -8.83301 -67.334 -26.5 -98.001s-40.167 -51.334 -67.5 -62.001v-5c41.333 -12 73.333 -32.667 96 -62s34 -65.333 34 -108c0 -70 -27 -123.5 -81 -160.5s-125 -55.5 -213 -55.5h-286v733zM336 442.002
c66 0 99 27.333 99 82c0 26.667 -7.66699 45.5 -23 56.5s-40.333 16.5 -75 16.5h-66v-155h65zM351 136.002c40.667 0 70.667 7.33203 90 21.999s29 38 29 70c0 30.667 -9.5 52.334 -28.5 65.001s-49.167 19 -90.5 19h-80v-176h80z" />
    <glyph glyph-name="C" unicode="C" horiz-adv-x="666" 
d="M214.5 34.5c-53 31.667 -94 75.833 -123 132.5s-43.5 122 -43.5 196c0 73.333 15.167 139.166 45.5 197.499s72.666 104.166 126.999 137.499s115.833 50 184.5 50c46.667 0 89.667 -9.16699 129 -27.5s72.666 -41.5 99.999 -69.5l-98 -118
c-23.333 21.333 -44.666 37 -63.999 47s-40.333 15 -63 15c-32.667 0 -61.5 -10.167 -86.5 -30.5s-44.333 -47.666 -58 -81.999s-20.5 -72.166 -20.5 -113.499c0 -71.333 14.667 -127.333 44 -168s68.666 -61 117.999 -61c26.667 0 51.334 6.16699 74.001 18.5
s44.667 30.5 66 54.5l98 -117c-30.667 -35.333 -66.667 -62.333 -108 -81s-86.666 -28 -135.999 -28c-70.667 0 -132.5 15.833 -185.5 47.5z" />
    <glyph glyph-name="D" unicode="D" horiz-adv-x="724" 
d="M79 0v733.001h218c123.333 0 217.333 -30.833 282 -92.5s97 -151.834 97 -270.501s-32 -210 -96 -274s-155 -96 -273 -96h-228zM271 143.001h16c66.667 0 115.5 18.833 146.5 56.5s46.5 94.5 46.5 170.5c0 76.667 -15.5 132.667 -46.5 168s-79.833 53 -146.5 53h-16v-448
z" />
    <glyph glyph-name="E" unicode="E" horiz-adv-x="626" 
d="M79 733h480v-149h-288v-134h246v-148h-246v-153h300v-149h-492v733z" />
    <glyph glyph-name="F" unicode="F" horiz-adv-x="602" 
d="M79 733h484v-149h-292v-157h250v-149h-250v-278h-192v733z" />
    <glyph glyph-name="G" unicode="G" horiz-adv-x="729" 
d="M94.5 562c31 58.667 74.333 104.333 130 137s119.5 49 191.5 49c51.333 0 97.333 -9.16699 138 -27.5s74.667 -41.5 102 -69.5l-98 -118c-24 21.333 -45.667 37 -65 47s-43 15 -71 15c-54.667 0 -98 -21 -130 -63s-48 -96.333 -48 -163
c0 -74.667 16.167 -131.5 48.5 -170.5s80.166 -58.5 143.499 -58.5c28 0 49 5.66699 63 17v118h-117v144h288v-340c-26 -26 -61.667 -47.833 -107 -65.5s-93.666 -26.5 -144.999 -26.5c-74.667 0 -140 15.5 -196 46.5s-99 74.833 -129 131.5s-45 122.667 -45 198
c0 74 15.5 140.333 46.5 199z" />
    <glyph glyph-name="H" unicode="H" horiz-adv-x="766" 
d="M79 733h192v-278h224v278h193v-733h-193v300h-224v-300h-192v733z" />
    <glyph glyph-name="I" unicode="I" horiz-adv-x="349" 
d="M79 0v733h192v-733h-192z" />
    <glyph glyph-name="J" unicode="J" horiz-adv-x="583" 
d="M114.5 20c-40.333 22 -73.832 55.667 -100.499 101l130 97c13.333 -26 28.166 -45.5 44.499 -58.5s33.166 -19.5 50.499 -19.5c27.333 0 47.333 9.33301 60 28s19 50.334 19 95.001v471h193v-485c0 -74.667 -20 -136.334 -60 -185.001c-20 -23.333 -46.167 -42 -78.5 -56
s-69.166 -21 -110.499 -21c-58 0 -107.167 11 -147.5 33z" />
    <glyph glyph-name="K" unicode="K" horiz-adv-x="706" 
d="M715 0h-206l-167 288l-71 -95v-193h-192v733h192v-275l195 275h207l-220 -294z" />
    <glyph glyph-name="L" unicode="L" horiz-adv-x="595" 
d="M79 0v733h192v-584h286v-149h-478z" />
    <glyph glyph-name="M" unicode="M" horiz-adv-x="868" 
d="M790 733v-733.002h-177v247c0 40 8 125 24 255l-149 -439h-111l-146 434c14.667 -129.333 22 -212.666 22 -249.999v-247h-174v733h207l114 -315c8.66699 -25.333 13.667 -40.666 15 -45.999l6 -19l16 -52l15 52c8 29.333 14.667 51 20 65l112 315h206z" />
    <glyph glyph-name="N" unicode="N" horiz-adv-x="756" 
d="M677 733l0.000976562 -733h-196l-179 350l-57 128c1.33301 -14.667 2.66602 -25.667 3.99902 -33c4.66699 -46 8.16699 -83.667 10.5 -113s3.5 -60 3.5 -92v-240h-184v733h196l179 -349l57 -132c-6.66699 64 -11.167 111.5 -13.5 142.5s-3.5 64.167 -3.5 99.5v239h183z
" />
    <glyph glyph-name="O" unicode="O" horiz-adv-x="782" 
d="M207.5 35c-51.667 32 -91.1621 77.001 -118.495 135.001s-41 125 -41 201s13.667 142.333 41 199s66.666 100.5 117.999 131.5s112.666 46.5 183.999 46.5c70.667 0 132 -15.667 184 -47s91.667 -75.333 119 -132s41 -122.667 41 -198
c0 -76.667 -13.833 -143.834 -41.5 -201.501s-67.334 -102.5 -119.001 -134.5s-112.834 -48 -183.501 -48s-131.834 16 -183.501 48zM498.005 202.501c26.667 41.667 39.9961 97.834 39.9961 168.501c0 69.333 -13.167 124 -39.5 164s-62.166 60 -107.499 60
s-81.166 -20 -107.499 -60s-39.5 -94.667 -39.5 -164c0 -70.667 13.333 -126.834 40 -168.501s62.334 -62.5 107.001 -62.5s80.334 20.833 107.001 62.5z" />
    <glyph glyph-name="P" unicode="P" horiz-adv-x="684" 
d="M79 733h266c96.667 0 171.167 -19.833 223.5 -59.5s78.5 -99.5 78.5 -179.5c0 -52.667 -12.667 -98 -38 -136s-60.5 -66.833 -105.5 -86.5s-96.5 -29.5 -154.5 -29.5h-78v-242h-192v733zM340 382c78.667 0 118.001 37.334 118.001 112.001
c0 35.333 -9.83301 60.666 -29.5 75.999s-50.834 23 -93.501 23h-64v-211h69z" />
    <glyph glyph-name="Q" unicode="Q" horiz-adv-x="784" 
d="M89 584c27.333 56.667 66.6689 100.332 118.002 130.999s112.666 46 183.999 46c70.667 0 132 -15.667 184 -47s91.667 -75.333 119 -132s41 -122.667 41 -198c0 -95.333 -20.167 -174.666 -60.5 -237.999s-97.5 -106.333 -171.5 -129c31.333 -46 82.333 -69 153 -69
c32 0 61.667 5.66699 89 17l31 -131c-13.333 -8 -32.333 -14.667 -57 -20s-52.334 -8 -83.001 -8c-75.333 0 -142.666 18.5 -201.999 55.5s-103 86.833 -131 149.5c-82.667 19.333 -145.834 62.166 -189.501 128.499s-65.5 147.833 -65.5 244.5
c0 76.667 13.667 143.334 41 200.001zM330.003 226.998c14 -14.667 29.666 -22 46.999 -22c20 0 41.333 10.667 64 32c20.667 18 36.167 39.333 46.5 64s15.5 51.667 15.5 81c0 28 -5 57 -15 87c-10 27.333 -22 48 -36 62s-29.667 21 -47 21
c-21.333 0 -42.666 -9.66699 -63.999 -29c-20 -18.667 -35.167 -40.667 -45.5 -66s-15.5 -52 -15.5 -80c0 -27.333 5 -55.666 15 -84.999c9.33301 -28.667 21 -50.334 35 -65.001z" />
    <glyph glyph-name="R" unicode="R" horiz-adv-x="705" 
d="M79 733h277.001c95.333 0 168.166 -19.167 218.499 -57.5s75.5 -96.5 75.5 -174.5c0 -98.667 -42 -168.667 -126 -210l163 -291h-212l-134 257h-70v-257h-192v733zM343.001 397c80 0 119.999 34.667 119.999 104c0 33.333 -9.66699 57 -29 71s-49.666 21 -90.999 21h-72
v-196h72z" />
    <glyph glyph-name="S" unicode="S" horiz-adv-x="638" 
d="M164 15c-49.333 18.667 -92 45.002 -128 79.002l105 125c29.333 -24.667 59.333 -44 90 -58s60 -21 88 -21c30 0 52.167 5.16699 66.5 15.5s21.5 26.166 21.5 47.499c0 18 -5 31.333 -15 40s-30.333 19 -61 31c-74 31.333 -113.667 48 -119 50
c-46.667 18.667 -83.334 45.667 -110.001 81s-40 75.666 -40 120.999c0 42 12.167 80 36.5 114s57.5 60.5 99.5 79.5s87.667 28.5 137 28.5c46 0 90.833 -8.66699 134.5 -26s80.5 -41.333 110.5 -72l-93 -116c-28.667 21.333 -54.5 36.833 -77.5 46.5
s-47.833 14.5 -74.5 14.5c-52 0 -78 -20 -78 -60c0 -15.333 5.83301 -27.833 17.5 -37.5s32.167 -20.5 61.5 -32.5l118 -48c50 -19.333 87.333 -45 112 -77s37 -72.667 37 -122c0 -45.333 -12.667 -85.5 -38 -120.5s-60 -62.167 -104 -81.5s-92.667 -29 -146 -29
c-51.333 0 -101.666 9.33301 -150.999 28z" />
    <glyph glyph-name="T" unicode="T" horiz-adv-x="640" 
d="M224 0v584h-198v149h589v-149h-198v-584h-193z" />
    <glyph glyph-name="U" unicode="U" horiz-adv-x="756" 
d="M151 74.5c-50.667 58.333 -75.999 148.833 -75.999 271.5v388h193v-407c0 -66.667 9.16699 -114.5 27.5 -143.5s46.833 -43.5 85.5 -43.5s67.334 14.5 86.001 43.5s28 76.833 28 143.5v407h186v-388c0 -122.667 -24.833 -213.167 -74.5 -271.5
s-124.834 -87.5 -225.501 -87.5c-102.667 0 -179.334 29.167 -230.001 87.5z" />
    <glyph glyph-name="V" unicode="V" horiz-adv-x="649" 
d="M658 733l-219 -733h-228l-220 733h203l83 -333l52 -213l9 36l43 177l81 333h196z" />
    <glyph glyph-name="W" unicode="W" horiz-adv-x="934" 
d="M922 733l-127 -733h-239l-65 316c-8 34.667 -16 79 -24 133c-5.33301 -36 -13 -80.333 -23 -133l-63 -316h-235l-133 733h197l46 -334c7.33301 -53.333 15.333 -118 24 -194l36 194l75 334h165l75 -334l36 -194l18 149l6 45l46 334h185z" />
    <glyph glyph-name="X" unicode="X" horiz-adv-x="660" 
d="M649 0l-211 0.000976562l-67 142l-49 108l-45 -108l-61 -142h-205l201 377l-189 356h211l58 -131c14 -27.333 30 -63 48 -107c6 17.333 19 50.666 39 99.999l55 138h204l-190 -365z" />
    <glyph glyph-name="Y" unicode="Y" horiz-adv-x="615" 
d="M625 733l-221 -474v-259h-193v259l-220 474h204l61 -162c10 -30 18.667 -55 26 -75l26 -75l56 150l61 162h200z" />
    <glyph glyph-name="Z" unicode="Z" horiz-adv-x="620" 
d="M36 105l316 479h-286v149h518v-105l-316 -479h319v-149h-551v105z" />
    <glyph glyph-name="bracketleft" unicode="[" horiz-adv-x="385" 
d="M90 -159v968h244v-94h-111v-781h111v-93h-244z" />
    <glyph glyph-name="backslash" unicode="\" horiz-adv-x="390" 
d="M21 792h123l264 -962h-124z" />
    <glyph glyph-name="bracketright" unicode="]" horiz-adv-x="385" 
d="M51 -159v93h112v781h-112v94h243v-968h-243z" />
    <glyph glyph-name="asciicircum" unicode="^" horiz-adv-x="592" 
d="M51 286l175 448h141l175 -448h-145l-48 136l-51 152h-4l-50 -152l-48 -136h-145z" />
    <glyph glyph-name="underscore" unicode="_" horiz-adv-x="560" 
d="M13 -149v98h535v-98h-535z" />
    <glyph glyph-name="a" unicode="a" horiz-adv-x="605" 
d="M546 318v-317.001h-159l-12 50c-50.667 -42.667 -103 -64 -157 -64c-34 0 -64.5 7.5 -91.5 22.5s-47.833 35.5 -62.5 61.5s-22 55 -22 87c0 58 25 103.5 75 136.5s129 55.5 237 67.5c-2 24.667 -8.83301 42.834 -20.5 54.501s-30.5 17.5 -56.5 17.5
c-21.333 0 -43.333 -4.16699 -66 -12.5s-50.667 -21.833 -84 -40.5l-64 119c81.333 50 164 75 248 75c156.667 0 235 -85.667 235 -257zM354 254.999c-39.333 -5.33301 -70.334 -14.501 -93.001 -27.501s-34 -31.5 -34 -55.5c0 -15.333 4.66699 -27.166 14 -35.499
s22 -12.5 38 -12.5c14 0 26.833 3 38.5 9s23.834 16 36.501 30v92z" />
    <glyph glyph-name="b" unicode="b" horiz-adv-x="674" 
d="M512 539c34 -24 60.001 -57.333 78.001 -100s27 -92 27 -148s-10.333 -107.167 -31 -153.5s-49.5 -83 -86.5 -110s-78.833 -40.5 -125.5 -40.5c-25.333 0 -50.333 5.83301 -75 17.5s-47.334 28.167 -68.001 49.5l-13 -53h-153v787h193v-189l-4 -74
c43.333 33.333 88.333 50 135 50c48 0 89 -12 123 -36zM395.501 172c16.333 26.667 24.5 65.332 24.5 115.999c0 94.667 -27.333 142 -82 142c-14.667 0 -28.167 -3.33301 -40.5 -10s-25.5 -18 -39.5 -34v-224c12.667 -11.333 24.5 -19.166 35.5 -23.499
s23.833 -6.5 38.5 -6.5c26 0 47.167 13.333 63.5 40z" />
    <glyph glyph-name="c" unicode="c" horiz-adv-x="537" 
d="M173 24c-43.333 24.667 -77 59.3359 -101 104.003s-36 95.667 -36 153s13.167 108.166 39.5 152.499s62.5 79 108.5 104s97.667 37.5 155 37.5c34 0 65.333 -5.5 94 -16.5s53.667 -25.833 75 -44.5l-86 -118c-16.667 13.333 -30.167 22.666 -40.5 27.999
s-20.833 8 -31.5 8c-36.667 0 -65.334 -13.5 -86.001 -40.5s-31 -63.833 -31 -110.5c0 -44.667 10.333 -80.834 31 -108.501s47 -41.5 79 -41.5c16 0 31.833 3.66699 47.5 11s32.834 18.333 51.501 33l73 -121c-25.333 -22 -54.833 -38.667 -88.5 -50
s-68.167 -17 -103.5 -17c-56.667 0 -106.667 12.333 -150 37z" />
    <glyph glyph-name="d" unicode="d" horiz-adv-x="657" 
d="M591 788l-0.000976562 -786.999h-159l-11 47c-20 -18 -42.833 -32.667 -68.5 -44s-51.167 -17 -76.5 -17c-49.333 0 -91.666 12.5 -126.999 37.5s-62.333 59.667 -81 104s-28 95.166 -28 152.499c0 53.333 10.167 102.5 30.5 147.5s48.833 80.667 85.5 107
s77.667 39.5 123 39.5c26 0 48.667 -3.83301 68 -11.5s38.333 -19.5 57 -35.5l-5 73v187h192zM398.999 400.001c-12.667 11.333 -25.168 19.168 -37.501 23.501s-26.166 6.5 -41.499 6.5c-24 0 -44 -12.833 -60 -38.5s-24 -61.834 -24 -108.501
c0 -50.667 7.5 -88.5 22.5 -113.5s36.5 -37.5 64.5 -37.5c16 0 29.667 3.16699 41 9.5s23 17.833 35 34.5v224z" />
    <glyph glyph-name="e" unicode="e" horiz-adv-x="597" 
d="M176.5 24c-44.333 24.667 -78.832 59.167 -103.499 103.5s-37 95.5 -37 153.5c0 54.667 12 104.334 36 149.001s57 80 99 106s88.333 39 139 39c78 0 138.833 -24.5 182.5 -73.5s65.5 -114.5 65.5 -196.5c0 -32.667 -2.33301 -58.334 -7 -77.001h-329
c14 -70.667 58 -106 132 -106c19.333 0 38.666 3.16699 57.999 9.5s40.666 16.5 63.999 30.5l61 -109c-28 -20 -60.667 -36 -98 -48s-73.666 -18 -108.999 -18c-58 0 -109.167 12.333 -153.5 37zM392.001 344c0 64.667 -26 97 -78 97c-24 0 -44 -8.16699 -60 -24.5
s-27 -40.5 -33 -72.5h171z" />
    <glyph glyph-name="f" unicode="f" horiz-adv-x="408" 
d="M99 422h-75v131l75 6v21c0 71.333 18.833 126 56.5 164s92.167 57 163.5 57c39.333 0 80 -7.33301 122 -22l-32 -133c-24 10.667 -45 16 -63 16c-18.667 0 -32.5 -6 -41.5 -18s-13.5 -31.333 -13.5 -58v-26h98v-138h-98v-422h-192v422z" />
    <glyph glyph-name="g" unicode="g" horiz-adv-x="623" 
d="M102 -184c-45.333 24 -68.0049 58.998 -68.0049 104.998c0 22.667 6.83301 43 20.5 61s34.834 34.667 63.501 50v5c-19.333 12 -33.5 25.5 -42.5 40.5s-13.5 33.167 -13.5 54.5c0 19.333 5.83301 38.166 17.5 56.499s27.834 34.833 48.501 49.5v4
c-24 16 -43.167 36.5 -57.5 61.5s-21.5 52.5 -21.5 82.5c0 40.667 10.333 76.5 31 107.5s49.334 54.833 86.001 71.5s78.334 25 125.001 25c34.667 0 65 -4.66699 91 -14h211v-128h-85c9.33301 -20.667 14 -43 14 -67c0 -60 -21 -106.333 -63 -139s-98 -49 -168 -49
c-18 0 -38.667 2.66699 -62 8c-4.66699 -4.66699 -8 -9.66699 -10 -15s-3 -12.666 -3 -21.999c0 -15.333 6 -25.5 18 -30.5s31 -7.5 57 -7.5h87c150 0 225 -48 225 -144c0 -43.333 -15.167 -80.166 -45.5 -110.499s-70.333 -53.166 -120 -68.499s-103.167 -23 -160.5 -23
c-71.333 0 -129.666 12 -174.999 36zM336.995 321.498c11.333 15 17.002 36.499 17.002 64.499c0 26.667 -5.83301 47.5 -17.5 62.5s-26.834 22.5 -45.501 22.5s-33.667 -7.33301 -45 -22s-17 -35.667 -17 -63s5.66699 -48.666 17 -63.999s26.333 -23 45 -23
c19.333 0 34.666 7.5 45.999 22.5zM387.497 -93.0029c20.333 11.333 30.5 26.332 30.5 44.999c0 16.667 -5.16699 27.5 -15.5 32.5s-29.5 7.5 -57.5 7.5h-52c-32.667 0 -57.667 2 -75 6c-16 -15.333 -24 -31.666 -24 -48.999c0 -39.333 37 -59 111 -59
c34.667 0 62.167 5.66699 82.5 17z" />
    <glyph glyph-name="h" unicode="h" horiz-adv-x="655" 
d="M65 787h193v-189l-8 -89c24 19.333 49 35 75 47s55.333 18 88 18c61.333 0 107 -19.333 137 -58s45 -95 45 -169v-347h-193v324c0 37.333 -4.16699 63.333 -12.5 78s-22.833 22 -43.5 22c-16 0 -29.5 -3.16699 -40.5 -9.5s-26.833 -18.833 -47.5 -37.5v-377h-193v787z
" />
    <glyph glyph-name="i" unicode="i" horiz-adv-x="322" 
d="M84 660.5c-20 17.667 -30 41.5 -30 71.5s10 53.833 30 71.5s46 26.5 78 26.5s58.167 -8.83301 78.5 -26.5s30.5 -41.5 30.5 -71.5s-10 -53.833 -30 -71.5s-46.333 -26.5 -79 -26.5c-32 0 -58 8.83301 -78 26.5zM66 560h192v-560h-192v560z" />
    <glyph glyph-name="j" unicode="j" horiz-adv-x="333" 
d="M93.5 675c-20.333 18 -30.5 42 -30.5 72c0 29.333 10.167 52.833 30.5 70.5s46.166 26.5 77.499 26.5c32 0 58.167 -8.83301 78.5 -26.5s30.5 -41.167 30.5 -70.5c0 -30 -10.167 -54 -30.5 -72s-46.5 -27 -78.5 -27c-31.333 0 -57.166 9 -77.499 27zM-55 -185l31 130.001
c3.33301 -0.666992 10 -2.33398 20 -5.00098s19.667 -4 29 -4c18 0 30.833 6.66699 38.5 20s11.5 35.666 11.5 66.999v552h193v-547c0 -75.333 -18 -132.666 -54 -171.999s-89.667 -59 -161 -59c-42.667 0 -78.667 6 -108 18z" />
    <glyph glyph-name="k" unicode="k" horiz-adv-x="635" 
d="M630 0h-204l-116 202l-56 -63v-139h-189v787h189v-425l158 198h204l-197 -231z" />
    <glyph glyph-name="l" unicode="l" horiz-adv-x="338" 
d="M106 37c-27.333 33.333 -41 82.333 -41 147v604h193v-610c0 -31.333 8.33301 -47 25 -47c6.66699 0 15 1 25 3l21 -130c-8 -4.66699 -20.333 -8.66699 -37 -12s-36 -5 -58 -5c-58 0 -100.667 16.667 -128 50z" />
    <glyph glyph-name="m" unicode="m" horiz-adv-x="977" 
d="M869 515.5c30.667 -39 46.001 -95.167 46.001 -168.5v-347h-193v324c0 37.333 -4.16699 63.333 -12.5 78s-22.833 22 -43.5 22c-21.333 0 -48.333 -15.667 -81 -47v-377h-192v324c0 37.333 -4.33301 63.333 -13 78s-23 22 -43 22c-22.667 0 -49.667 -15.667 -81 -47v-377
h-192v560h160l11 -63c24 23.333 49.333 42 76 56s56.667 21 90 21c73.333 0 125.666 -28.333 156.999 -85c28 27.333 55.667 48.333 83 63s57.333 22 90 22c61.333 0 107.333 -19.5 138 -58.5z" />
    <glyph glyph-name="n" unicode="n" horiz-adv-x="656" 
d="M65 560l160 0.000976562l10 -61h3c26 23.333 53 41.666 81 54.999s59.333 20 94 20c61.333 0 107 -19.333 137 -58s45 -95 45 -169v-347h-193v324c0 37.333 -4.16699 63.333 -12.5 78s-22.833 22 -43.5 22c-16 0 -29.5 -3.16699 -40.5 -9.5s-26.833 -18.833 -47.5 -37.5
v-377h-193v560z" />
    <glyph glyph-name="o" unicode="o" horiz-adv-x="637" 
d="M173.5 25c-43 25.333 -76.6689 60.5 -101.002 105.5s-36.5 95.167 -36.5 150.5c0 56 12.167 106.333 36.5 151s58 79.667 101 105s91.5 38 145.5 38c54.667 0 103.5 -12.667 146.5 -38s76.5 -60.333 100.5 -105s36 -95 36 -151s-12.167 -106.333 -36.5 -151
s-58.166 -79.667 -101.499 -105s-91.666 -38 -144.999 -38c-54 0 -102.5 12.667 -145.5 38zM383.498 170.5c15 26.333 22.5 63.167 22.5 110.5s-7.5 84.333 -22.5 111s-36.5 40 -64.5 40s-49.333 -13.167 -64 -39.5s-22 -63.5 -22 -111.5s7.33301 -85 22 -111s36 -39 64 -39
s49.5 13.167 64.5 39.5z" />
    <glyph glyph-name="p" unicode="p" horiz-adv-x="657" 
d="M513 551.5c34 -24.333 59.833 -58 77.5 -101s26.5 -92.5 26.5 -148.5s-10.333 -107 -31 -153s-49.5 -82.333 -86.5 -109s-78.833 -40 -125.5 -40c-21.333 0 -42.5 4 -63.5 12s-40.167 19.667 -57.5 35l5 -77v-160h-193v764h160l11 -48c21.333 18.667 45.333 33.667 72 45
s54 17 82 17c48 0 89 -12.167 123 -36.5zM395.5 185c16.333 26.667 24.5 65.001 24.5 115.001c0 95.333 -27.333 143 -82 143c-14.667 0 -28 -3.33301 -40 -10s-25.333 -18.334 -40 -35.001v-224c12.667 -11.333 24.667 -19 36 -23s24 -6 38 -6c26 0 47.167 13.333 63.5 40z
" />
    <glyph glyph-name="q" unicode="q" horiz-adv-x="657" 
d="M591 574l-0.000976562 -764h-192v166l5 73c-17.333 -14.667 -37.5 -26.5 -60.5 -35.5s-45.5 -13.5 -67.5 -13.5c-49.333 -0 -91.666 12.333 -126.999 37s-62.333 59.167 -81 103.5s-28 95.5 -28 153.5c0 53.333 10.167 102.5 30.5 147.5s48.833 80.667 85.5 107
s77.667 39.5 123 39.5c30 0 56.667 -5 80 -15s45.333 -25.667 66 -47l12 48h154zM398.999 413c-12.667 11.333 -25.168 19.167 -37.501 23.5s-26.166 6.5 -41.499 6.5c-24 0 -44 -13 -60 -39s-24 -62 -24 -108c0 -100.667 29 -151 87 -151c16 0 29.667 3.16699 41 9.5
s23 17.833 35 34.5v224z" />
    <glyph glyph-name="r" unicode="r" horiz-adv-x="468" 
d="M468 560l-28.998 -152c-3.33301 0.666992 -12 2.66699 -26 6s-28 5 -42 5c-22.667 0 -44 -8.16699 -64 -24.5s-36.333 -40.833 -49 -73.5v-321h-193v560h160l10 -84c19.333 31.333 43.166 55.5 71.499 72.5s57.166 25.5 86.499 25.5c36.667 0 61.667 -4.66699 75 -14z
" />
    <glyph glyph-name="s" unicode="s" horiz-adv-x="512" 
d="M124 9.5c-41.333 15 -75.667 34.1689 -103 57.502l82 114c28 -22 53.5 -38 76.5 -48s45.5 -15 67.5 -15c38 0 57 14 57 42c0 12.667 -5 22.834 -15 30.501s-26.667 16.167 -50 25.5c-33.333 11.333 -64.333 24.666 -93 39.999c-31.333 15.333 -55.5 35.166 -72.5 59.499
s-25.5 51.5 -25.5 81.5c0 36 9.66699 67.5 29 94.5s46 47.667 80 62s72.667 21.5 116 21.5c42 0 79.667 -6.83301 113 -20.5s64.666 -31.167 93.999 -52.5l-83 -110c-22.667 18 -43.667 31.167 -63 39.5s-38 12.5 -56 12.5c-15.333 0 -27.5 -3.33301 -36.5 -10
s-13.5 -16.334 -13.5 -29.001c0 -9.33301 3.5 -17.166 10.5 -23.499s18.167 -12.833 33.5 -19.5c4.66699 -2 19 -7.66699 43 -17c24.667 -9.33301 44.334 -17.333 59.001 -24s27.667 -14.667 39 -24c24 -16 41.833 -34.167 53.5 -54.5s17.5 -44.5 17.5 -72.5
c0 -56.667 -22.5 -101.334 -67.5 -134.001s-102.833 -49 -173.5 -49c-38 0 -77.667 7.5 -119 22.5z" />
    <glyph glyph-name="t" unicode="t" horiz-adv-x="452" 
d="M144 44.5c-34.667 38.333 -51.998 93.168 -51.998 164.501v214h-76v131l86 7l21 148h162v-148h131v-138h-131v-211c0 -57.333 21 -86 63 -86c7.33301 0 16.166 1.16699 26.499 3.5s20.5 5.16602 30.5 8.49902l28 -129c-22.667 -6.66699 -43.834 -12 -63.501 -16
s-43.5 -6 -71.5 -6c-68 0 -119.333 19.167 -154 57.5z" />
    <glyph glyph-name="u" unicode="u" horiz-adv-x="651" 
d="M586 561l-0.00292969 -560.001h-160l-11 68c-23.333 -27.333 -49.166 -47.833 -77.499 -61.5s-60.166 -20.5 -95.499 -20.5c-61.333 0 -106.833 19.5 -136.5 58.5s-44.5 95.167 -44.5 168.5v347h192v-324c0 -37.333 4.33301 -63.166 13 -77.499
s23.334 -21.5 44.001 -21.5c17.333 0 32.333 4 45 12s25.667 22 39 42v369h192z" />
    <glyph glyph-name="v" unicode="v" horiz-adv-x="611" 
d="M599 560l-181 -560h-219l-186 560h192l67 -256c8.66699 -32 21 -82 37 -150l37 150l69 256h184z" />
    <glyph glyph-name="w" unicode="w" horiz-adv-x="894" 
d="M869 560l-131.002 -560h-222l-46 212l-24 131l-8 -49c-2 -15.333 -6.33301 -42.666 -13 -81.999l-45 -212h-217l-138 560h191l49 -250c2 -11.333 8.33301 -56 19 -134c2.66699 13.333 4.33398 23.666 5.00098 30.999c10.667 56 17.667 90.333 21 103l58 250h166l60 -250
c5.33301 -21.333 15 -67 29 -137l9 63c4.66699 38 8.33398 62.667 11.001 74l48 250h178z" />
    <glyph glyph-name="x" unicode="x" horiz-adv-x="601" 
d="M587 0l-203 -0.000976562l-50 87l-47 87c-16.667 -36.667 -29 -65.667 -37 -87l-38 -87h-197l170 292l-160 268h202l47 -85l40 -86c12 26.667 22.667 55.334 32 86.001l34 85h197l-161 -289z" />
    <glyph glyph-name="y" unicode="y" horiz-adv-x="609" 
d="M597 575l-191.999 -560c-20 -50.667 -40.5 -91.334 -61.5 -122.001s-47.333 -54.167 -79 -70.5s-70.834 -24.5 -117.501 -24.5c-30 0 -59.667 4.33301 -89 13l32 137c18 -6.66699 34 -10 48 -10c22 0 39.167 5.33301 51.5 16s22.5 27.334 30.5 50.001l7 27l-214 544h192
l74 -230c19.333 -62.667 32 -108 38 -136c14.667 62 25.667 107.333 33 136l62 230h185z" />
    <glyph glyph-name="z" unicode="z" horiz-adv-x="535" 
d="M41 93l227 329h-202v138h436v-92l-227 -330h235v-138h-469v93z" />
    <glyph glyph-name="braceleft" unicode="{" horiz-adv-x="389" 
d="M264 -159c-52.667 0 -90.167 12.166 -112.5 36.499s-33.5 65.833 -33.5 124.5c0 24.667 2 58.334 6 101.001c0.666992 8 1.66699 21.167 3 39.5s2 34.5 2 48.5c0 24 -8.16699 43.333 -24.5 58s-40.5 22.667 -72.5 24v103c31.333 1.33301 55.333 9.5 72 24.5
s25 34.5 25 58.5c0 16.667 -0.666992 33.834 -2 51.501s-2.33301 30.167 -3 37.5c-4 40 -6 73 -6 99c0 60 11.333 102 34 126s60 36 112 36h74v-94h-21c-22 0 -37 -5 -45 -15s-12 -29.667 -12 -59l2 -83c2 -38.667 3 -71.334 3 -98.001c0 -42 -6.83301 -73 -20.5 -93
s-35.5 -33.667 -65.5 -41v-4c30 -6.66699 51.833 -19.834 65.5 -39.501s20.5 -50.5 20.5 -92.5c0 -25.333 -1 -57.666 -3 -96.999l-2 -84c0 -30 4 -50 12 -60s23 -15 45 -15h21v-93h-74z" />
    <glyph glyph-name="bar" unicode="|" horiz-adv-x="293" 
d="M90 -262v1126h114v-1126h-114z" />
    <glyph glyph-name="braceright" unicode="}" horiz-adv-x="389" 
d="M50 -66l20.001 -0.00195312c22 0 37 5 45 15s12 30 12 60l-2 86l-2 95c0 42 6.66699 72.833 20 92.5s35.333 33.167 66 40.5v4c-30.667 6.66699 -52.667 19.834 -66 39.501s-20 50.834 -20 93.501l2 98l2 83c0 29.333 -4 49 -12 59s-23 15 -45 15h-20v94h73
c52 0 89.5 -12 112.5 -36s34.5 -66 34.5 -126c0 -26 -2 -59 -6 -99c-0.666992 -7.33301 -1.66699 -19.833 -3 -37.5s-2 -34.834 -2 -51.501c0 -24 8.33301 -43.5 25 -58.5s40.667 -22.833 72 -23.5v-104c-32 -1.33301 -56.167 -9.16602 -72.5 -23.499
s-24.5 -33.833 -24.5 -58.5c0 -14 0.666992 -30 2 -48s2.33301 -31 3 -39c4 -42.667 6 -76.667 6 -102c0 -58.667 -11.333 -100.167 -34 -124.5s-60.334 -36.5 -113.001 -36.5h-73v93z" />
    <glyph glyph-name="asciitilde" unicode="~" horiz-adv-x="596" 
d="M338.5 260c-15.667 7.33301 -33.499 17.667 -53.499 31c-19.333 14.667 -34.833 25.334 -46.5 32.001s-24.167 10 -37.5 10c-29.333 0 -56.333 -21.333 -81 -64l-91 70c52 79.333 110 119 174 119c20.667 0 39.5 -3.83301 56.5 -11.5s34.167 -17.834 51.5 -30.501
c3.33301 -2 10.833 -7.33301 22.5 -16s22.5 -15.167 32.5 -19.5s19.667 -6.5 29 -6.5c29.333 0 56.333 21.333 81 64l91 -70c-52 -79.333 -110 -119 -174 -119c-20.667 0 -38.834 3.66699 -54.501 11z" />
    <glyph glyph-name="exclamdown" unicode="&#xa1;" horiz-adv-x="377" 
d="M282 584.5c21.333 -20.333 31.998 -46.5 31.998 -78.5c0 -30.667 -10.333 -56.5 -31 -77.5s-47 -31.5 -79 -31.5c-31.333 0 -57.166 10.5 -77.499 31.5s-30.5 46.833 -30.5 77.5c0 31.333 10.333 57.333 31 78s46.334 31 77.001 31s56.667 -10.167 78 -30.5zM137.998 298
l131 19l22 -475l-156 -25z" />
    <glyph glyph-name="cent" unicode="&#xa2;" horiz-adv-x="592" 
d="M307 -44v104.998c-36 4.66699 -69 14.334 -99 29.001s-55.333 34 -76 58c-46 52.667 -69 119.667 -69 201c0 38.667 6 74.334 18 107.001s29 61.334 51 86.001c44 48 102.333 78.667 175 92v107h96v-103c29.333 -2.66699 55.833 -9.33398 79.5 -20.001s43.5 -25 59.5 -43
l-80 -108c-22 16.667 -41.667 26.334 -59 29.001v-294c26.667 5.33301 52 17.666 76 36.999l71 -112c-41.333 -34.667 -90.333 -56.667 -147 -66v-105h-96zM252.5 266.998c12.333 -22.667 30.5 -39.333 54.5 -50v264c-24 -11.333 -42.167 -28.333 -54.5 -51
s-18.5 -49.667 -18.5 -81c0 -32 6.16699 -59.333 18.5 -82z" />
    <glyph glyph-name="sterling" unicode="&#xa3;" horiz-adv-x="594" 
d="M50 0l-0.000976562 109.004c34.667 15.333 63.167 37.666 85.5 66.999s33.5 63.333 33.5 102c0 7.33301 -0.666992 15.666 -2 24.999h-112v103l77 5h4c-10 32 -15 59.333 -15 82c0 35.333 6 67.666 18 96.999s29.333 54.333 52 75c22 20 47.833 35.5 77.5 46.5
s62.167 16.5 97.5 16.5c41.333 0 78 -7.66699 110 -23s61.333 -38.666 88 -69.999l-96 -95c-24 30 -52.333 45 -85 45c-29.333 0 -52.166 -8.33301 -68.499 -25s-24.5 -42.334 -24.5 -77.001c0 -22.667 3.33301 -46.667 10 -72h165v-108h-143
c1.33301 -9.33301 2 -18.333 2 -27c0 -24.667 -3.5 -46.334 -10.5 -65.001s-19.167 -38 -36.5 -58v-4h287v-149h-514z" />
    <glyph glyph-name="currency" unicode="&#xa4;" horiz-adv-x="597" 
d="M20 173l67.998 69c-25.333 35.333 -38 76.666 -38 123.999c0 46.667 12.333 87 37 121l-67 69l87 89l79 -79c34.667 17.333 72.334 26 113.001 26c40 0 77.333 -8.66699 112 -26l79 79l88 -89l-69 -69c25.333 -33.333 38 -73.666 38 -120.999
c0 -44 -12.667 -85.333 -38 -124l69 -69l-88 -88l-80 79c-35.333 -16.667 -72.333 -25 -111 -25c-39.333 0 -76.666 8.33301 -111.999 25l-80 -79zM363.998 290.5c17.333 19 26 44.167 26 75.5c0 30.667 -8.66699 55.667 -26 75s-39 29 -65 29
c-26.667 0 -48.667 -9.5 -66 -28.5s-26 -44.167 -26 -75.5s8.66699 -56.5 26 -75.5s39.333 -28.5 66 -28.5c26 0 47.667 9.5 65 28.5z" />
    <glyph glyph-name="yen" unicode="&#xa5;" horiz-adv-x="599" 
d="M210 0v163.001h-170v83h170v60h-170v83h134l-163 326h181l53 -144c1.33301 -4 3 -8.5 5 -13.5l6 -15.5c6.66699 -20 12 -35 16 -45c4.66699 -13.333 13.667 -37.333 27 -72h5l27 73c8 23.333 17 47.666 27 72.999l52 144h178l-162 -326h133v-83h-171v-60h171v-83h-171
v-163h-178z" />
    <glyph glyph-name="brokenbar" unicode="&#xa6;" horiz-adv-x="293" 
d="M90 374v490h114v-490h-114zM90 -262v509h114v-509h-114z" />
    <glyph glyph-name="section" unicode="&#xa7;" horiz-adv-x="594" 
d="M143 -66.5c-39.333 16.333 -71.335 40.498 -96.002 72.498l101 90c36 -38 76.333 -57 121 -57c20.667 0 36.334 3.83301 47.001 11.5s16 18.167 16 31.5c0 12.667 -8.66699 24.834 -26 36.501s-44.666 26.167 -81.999 43.5c-30 14 -52.333 25 -67 33
c-79.333 42 -119 100.667 -119 176c0 28 7.83301 54.667 23.5 80s37.167 46.666 64.5 63.999c-20.667 24.667 -31 55.667 -31 93c0 54 18.167 97 54.5 129s86.5 48 150.5 48c40.667 0 78.5 -7.16699 113.5 -21.5s66.167 -32.166 93.5 -53.499l-81 -110
c-17.333 16 -36.5 29 -57.5 39s-40.5 15 -58.5 15c-19.333 0 -33.5 -3.16699 -42.5 -9.5s-13.5 -16.5 -13.5 -30.5c0 -10.667 9.83301 -22.167 29.5 -34.5s48.5 -27.833 86.5 -46.5c32 -16 54.333 -27.667 67 -35c40 -21.333 70 -45.166 90 -71.499s30 -59.5 30 -99.5
c0 -62 -30.667 -112.333 -92 -151c16.667 -23.333 25 -52 25 -86c0 -57.333 -20.333 -101.833 -61 -133.5s-94 -47.5 -160 -47.5c-44.667 0 -86.667 8.16699 -126 24.5zM407.998 311.998c0 16 -5.33301 30.165 -16 42.498s-25.667 23.5 -45 33.5
c-12.667 7.33301 -34.667 17.333 -66 30c-28 12 -47.667 21 -59 27c-23.333 -15.333 -35 -35.666 -35 -60.999c0 -16 5.16699 -29.667 15.5 -41s25.5 -22.666 45.5 -33.999c10.667 -5.33301 34 -16 70 -32l57 -26c22 14 33 34.333 33 61z" />
    <glyph glyph-name="copyright" unicode="&#xa9;" horiz-adv-x="839" 
d="M277 17c-45.333 17.333 -84.6689 42.333 -118.002 75c-35.333 33.333 -62.833 73.333 -82.5 120s-29.5 98.334 -29.5 155.001c0 57.333 9.83301 109 29.5 155s47.167 85.333 82.5 118c33.333 32 72.5 56.333 117.5 73s92.5 25 142.5 25c50.667 0 98.5 -8.33301 143.5 -25
s84.167 -41 117.5 -73c35.333 -33.333 62.666 -73 81.999 -119s29 -97.333 29 -154s-9.66699 -108.334 -29 -155.001s-46.666 -86.667 -81.999 -120c-33.333 -32.667 -72.666 -57.667 -117.999 -75s-93 -26 -143 -26c-49.333 0 -96.666 8.66699 -141.999 26zM534.497 84.5
c35.667 14.333 66.5 34.833 92.5 61.5c27.333 28 48.333 60.5 63 97.5s22 78.167 22 123.5c0 44.667 -7.33301 85.5 -22 122.5s-35.667 69.167 -63 96.5c-26 26 -56.833 46 -92.5 60s-74.167 21 -115.5 21c-40.667 0 -78.834 -7 -114.501 -21s-66.5 -34 -92.5 -60
c-27.333 -27.333 -48.333 -59.5 -63 -96.5s-22 -77.833 -22 -122.5c0 -45.333 7.33301 -86.5 22 -123.5s35.667 -69.5 63 -97.5c26 -26.667 56.833 -47.167 92.5 -61.5s73.834 -21.5 114.501 -21.5c41.333 0 79.833 7.16699 115.5 21.5zM276.997 204
c-41.333 40 -61.999 93.6689 -61.999 161.002c0 32.667 5.66699 62.5 17 89.5s27.666 50.167 48.999 69.5c20 18.667 43.167 33 69.5 43s53.833 15 82.5 15c32 0 59.833 -5.83301 83.5 -17.5s46.167 -27.834 67.5 -48.501l-67 -73c-11.333 12.667 -22.833 22 -34.5 28
s-24.5 9 -38.5 9c-34 0 -59.833 -10.667 -77.5 -32s-26.5 -49 -26.5 -83c0 -36.667 8.83301 -65.667 26.5 -87s41.5 -32 71.5 -32c16.667 0 31.334 3 44.001 9s27 15.333 43 28l57 -82c-24.667 -18.667 -48.834 -32.834 -72.501 -42.501s-48.834 -14.5 -75.501 -14.5
c-63.333 0 -115.666 20 -156.999 60z" />
    <glyph glyph-name="guillemotleft" unicode="&#xab;" horiz-adv-x="639" 
d="M100.5 32c-10.333 53.333 -15.5 107.669 -15.5 163.002c0 116 22.667 225.667 68 329l129 -62c-18 -42.667 -31.333 -87.167 -40 -133.5s-13 -90.833 -13 -133.5c0 -42 4.33301 -85.833 13 -131.5s21.667 -89.834 39 -132.501l-129 -62
c-24 55.333 -41.167 109.666 -51.5 162.999zM353.5 32.0029c-10.333 53.333 -15.5 107.668 -15.5 163.001c0 116.667 23 226.334 69 329.001l128 -62c-18 -42.667 -31.333 -87.167 -40 -133.5s-13 -90.833 -13 -133.5c0 -42 4.33301 -85.833 13 -131.5
s21.667 -89.834 39 -132.501l-129 -62c-24 55.333 -41.167 109.666 -51.5 162.999z" />
    <glyph glyph-name="logicalnot" unicode="&#xac;" horiz-adv-x="594" 
d="M430 97v205h-394v125h523v-330h-129z" />
    <glyph glyph-name="registered" unicode="&#xae;" horiz-adv-x="521" 
d="M145.5 355.5c-34.333 20.333 -61.333 47.8311 -81 82.498s-29.5 73.334 -29.5 116.001s10 81.334 30 116.001s47.167 62 81.5 82s72.166 30 113.499 30c42 0 80.167 -10 114.5 -30s61.333 -47.5 81 -82.5s29.5 -73.5 29.5 -115.5c0 -42.667 -10 -81.5 -30 -116.5
s-47.167 -62.5 -81.5 -82.5s-72.166 -30 -113.499 -30c-42 0 -80.167 10.167 -114.5 30.5zM376.5 429.498c29.667 31 44.5 72.499 44.5 124.499c0 51.333 -14.833 92.5 -44.5 123.5s-68.5 46.5 -116.5 46.5s-86.833 -15.667 -116.5 -47s-44.5 -72.333 -44.5 -123
c0 -51.333 15 -92.666 45 -123.999s68.667 -47 116 -47c48 0 86.833 15.5 116.5 46.5zM168 664.997h102c28 0 50.333 -6.33301 67 -19s25 -31 25 -55c0 -28 -13 -48.333 -39 -61l46 -85h-71l-32 66h-31v-66h-67v220zM257 556.997c10.667 0 18.833 2.83203 24.5 8.49902
s8.5 12.834 8.5 21.501c0 8 -3 14.667 -9 20s-14 8 -24 8h-22v-58h22z" />
    <glyph glyph-name="degree" unicode="&#xb0;" horiz-adv-x="411" 
d="M142 425c-20 8 -37.666 19.668 -52.999 35.001c-32.667 31.333 -49 70.666 -49 117.999c0 23.333 4.33301 45.166 13 65.499s20.667 37.833 36 52.5c15.333 15.333 33 27 53 35s41.333 12 64 12c23.333 0 45.166 -4 65.499 -12s38.166 -19.667 53.499 -35
c15.333 -14.667 27.166 -32.167 35.499 -52.5s12.5 -42.166 12.5 -65.499c0 -46.667 -16 -86 -48 -118c-15.333 -15.333 -33.166 -27 -53.499 -35s-42.166 -12 -65.499 -12c-22.667 0 -44 4 -64 12zM260.001 518.501c13.333 15 20 34.832 20 59.499
s-6.66699 44.334 -20 59.001s-31.333 22 -54 22c-22 0 -39.833 -7.5 -53.5 -22.5s-20.5 -34.5 -20.5 -58.5c0 -24.667 7 -44.5 21 -59.5s31.667 -22.5 53 -22.5c22.667 0 40.667 7.5 54 22.5z" />
    <glyph glyph-name="plusminus" unicode="&#xb1;" horiz-adv-x="594" 
d="M233 184v145h-197v125h197v185h129v-185h197v-125h-197v-145h-129zM36 0v124h523v-124h-523z" />
    <glyph glyph-name="paragraph" unicode="&#xb6;" horiz-adv-x="719" 
d="M332 223c-40.667 0 -78.501 5.66699 -113.501 17s-65.5 28 -91.5 50c-28 23.333 -49.5 51.5 -64.5 84.5s-22.5 70.5 -22.5 112.5c0 87.333 28.667 153.333 86 198c48.667 36 116.334 54 203.001 54h50v-516h-47zM441.999 -84v823h177v-823h-177z" />
    <glyph glyph-name="periodcentered" unicode="&#xb7;" horiz-adv-x="385" 
d="M115 260.5c-23.333 22.333 -35 51.168 -35 86.501c0 34 11.333 62.333 34 85s51.667 34 87 34c34.667 0 63 -11.5 85 -34.5s33 -51.167 33 -84.5c0 -34.667 -11.5 -63.334 -34.5 -86.001s-50.833 -34 -83.5 -34c-34 0 -62.667 11.167 -86 33.5z" />
    <glyph glyph-name="guillemotright" unicode="&#xbb;" horiz-adv-x="639" 
d="M105 -69c17.333 42.667 30.333 86.832 39 132.499s13 89.5 13 131.5c0 42.667 -4.33301 87.167 -13 133.5s-22 90.833 -40 133.5l128 62c46 -102.667 69 -212.334 69 -329.001c0 -55.333 -5.16699 -109.666 -15.5 -162.999s-27.5 -107.666 -51.5 -162.999zM358 -69.002
c17.333 42.667 30.333 86.833 39 132.5s13 89.5 13 131.5c0 42.667 -4.33301 87.167 -13 133.5s-22 90.833 -40 133.5l129 62c45.333 -105.333 68 -215 68 -329c0 -111.333 -22.333 -220 -67 -326z" />
    <glyph glyph-name="questiondown" unicode="&#xbf;" horiz-adv-x="522" 
d="M351.5 502c19.667 -20.667 29.5 -46.667 29.5 -78c0 -32 -9.83301 -58.333 -29.5 -79s-44.5 -31 -74.5 -31c-30.667 0 -56 10.5 -76 31.5s-30 47.167 -30 78.5s10 57.333 30 78s45.333 31 76 31c30 0 54.833 -10.333 74.5 -31zM353 254
c1.33301 -6.66699 1.99902 -16 1.99902 -28c0 -26.667 -5.66699 -52.667 -17 -78s-27 -48.333 -47 -69l-15 -17c-22.667 -24.667 -38.667 -44.167 -48 -58.5s-14 -29.166 -14 -44.499c0 -20.667 6.33301 -36.5 19 -47.5s29.667 -16.5 51 -16.5
c18.667 0 35.334 4.16699 50.001 12.5s30.667 20.833 48 37.5l97 -89c-27.333 -32.667 -59 -58.167 -95 -76.5s-75.667 -27.5 -119 -27.5c-68.667 0 -122.667 16.5 -162 49.5s-59 81.5 -59 145.5c0 28.667 6.5 54.5 19.5 77.5s33.5 49.167 61.5 78.5
c24.667 24.667 43.167 47.667 55.5 69s18.5 43.666 18.5 66.999c0 6.66699 -0.333008 11.667 -1 15h155z" />
    <glyph glyph-name="multiply" unicode="&#xd7;" horiz-adv-x="592" 
d="M138 115l-88 89l158 158l-158 160l88 88l158 -159l159 159l87 -88l-157 -160l157 -158l-87 -89l-159 159z" />
    <glyph glyph-name="divide" unicode="&#xf7;" horiz-adv-x="594" 
d="M228 504.5c-18 17 -26.999 38.501 -26.999 64.501c0 26.667 9.16699 48.5 27.5 65.5s41.166 25.5 68.499 25.5c28 0 51.167 -8.5 69.5 -25.5s27.5 -38.833 27.5 -65.5s-9.16699 -48.334 -27.5 -65.001s-41.5 -25 -69.5 -25s-51 8.5 -69 25.5zM36.001 304.001v125h523
v-125h-523zM228.001 98.501c-18 17 -27 38.833 -27 65.5s9 48.5 27 65.5s41 25.5 69 25.5s51.167 -8.5 69.5 -25.5s27.5 -38.833 27.5 -65.5s-9.16699 -48.5 -27.5 -65.5s-41.5 -25.5 -69.5 -25.5s-51 8.5 -69 25.5z" />
    <glyph glyph-name="uni060C" unicode="&#x60c;" horiz-adv-x="377" 
d="M267.5 171.5c21 -21.667 31.501 -47.501 31.501 -77.501c0 -32 -10.833 -58.667 -32.5 -80s-47.834 -32 -78.501 -32c-38 0 -67 11.833 -87 35.5s-30 56.167 -30 97.5c0 38.667 10 81.667 30 129s46 90.333 78 129l81 -75c-32 -35.333 -54.333 -66.666 -67 -93.999
c28.667 0 53.5 -10.833 74.5 -32.5z" />
    <glyph glyph-name="uni061B" unicode="&#x61b;" horiz-adv-x="377" 
d="M101 338.5c-20 23.667 -29.999 56.166 -29.999 97.499c0 38.667 10 81.667 30 129s46 90.333 78 129l81 -75c-32 -35.333 -54.333 -66.666 -67 -93.999c28.667 0 53.5 -10.833 74.5 -32.5s31.5 -47.5 31.5 -77.5c0 -32 -10.833 -58.667 -32.5 -80
s-47.834 -32 -78.501 -32c-38 0 -67 11.833 -87 35.5zM276.001 184.499c22 -23 33 -51.165 33 -84.498c0 -34.667 -11.5 -63.334 -34.5 -86.001s-50.833 -34 -83.5 -34c-34 0 -62.667 11.167 -86 33.5s-35 51.166 -35 86.499c0 34 11.333 62.333 34 85s51.667 34 87 34
c34.667 0 63 -11.5 85 -34.5z" />
    <glyph glyph-name="uni061F" unicode="&#x61f;" horiz-adv-x="589" 
d="M386 611c0 23.333 -7.83203 42.5 -23.499 57.5s-37.167 22.5 -64.5 22.5c-26.667 0 -47.334 -7.33301 -62.001 -22s-22 -33.334 -22 -56.001c0 -22 8.33301 -43.167 25 -63.5s42 -45.166 76 -74.499c26 -23.333 44.833 -43.833 56.5 -61.5s19 -35.334 22 -53.001
s4.5 -42.167 4.5 -73.5l-127 -19c-0.666992 24 -2 42 -4 54s-6.5 23.333 -13.5 34s-19.167 25 -36.5 43c-10 10 -21 20 -33 30c-22.667 19.333 -41 37 -55 53s-26.167 36.833 -36.5 62.5s-15.5 57.167 -15.5 94.5s9.83301 72.333 29.5 105s46.5 58.667 80.5 78s71 29 111 29
c66.667 0 119.167 -18.833 157.5 -56.5s57.5 -88.167 57.5 -151.5c0 -15.333 -1.66699 -33.666 -5 -54.999l-125 -3c2 9.33301 3 18 3 26zM249.501 13c-22.333 21.333 -33.5 48.668 -33.5 82.001c0 32 10.833 58.833 32.5 80.5s49.167 32.5 82.5 32.5
c32.667 0 59.5 -11 80.5 -33s31.5 -48.667 31.5 -80c0 -32.667 -10.833 -59.834 -32.5 -81.501s-48.167 -32.5 -79.5 -32.5c-32 0 -59.167 10.667 -81.5 32z" />
    <glyph glyph-name="uni0621" unicode="&#x621;" horiz-adv-x="612" 
d="M64 136l116.999 33c-17.333 46 -26 87.333 -26 124c0 11.333 0.333008 19.666 1 24.999c4 48 23.5 85 58.5 111s81.167 39 138.5 39c15.333 0 29.5 -0.833008 42.5 -2.5s30.5 -4.83398 52.5 -9.50098l-33 -148c-26 4.66699 -48.333 7.33398 -67 8.00098
c-6 0.666992 -14.333 1 -25 1c-17.333 0 -31.666 -1.33301 -42.999 -4c0 -37.333 11.667 -75.666 35 -114.999l211 59l22 -155l-461 -125z" />
    <glyph glyph-name="uni0622" unicode="&#x622;" horiz-adv-x="314" 
d="M231 755c-52 0 -96.332 3.66797 -132.999 11.001c-12 2 -21.667 3 -29 3c-8 0 -14.333 -2.83301 -19 -8.5s-10 -18.834 -16 -39.501l-111 27c11.333 48 23.333 85 36 111s27.5 44.333 44.5 55s38.5 16 64.5 16c12.667 0 30 -1.66699 52 -5c25.333 -4 47.666 -7 66.999 -9
s42.333 -2.66699 69 -2h84l-35 -159h-74zM217.001 0.000976562l-138 -19l-13 667l153 26z" />
    <glyph glyph-name="uni0623" unicode="&#x623;" horiz-adv-x="304" 
d="M-77 842l95 24.999c-13.333 34 -20 65 -20 93c0 40.667 12.667 73.167 38 97.5s59.666 36.5 102.999 36.5c10.667 0 19 -0.333008 25 -1c18 -2 35.333 -5.33301 52 -10l-27 -116c-20 4.66699 -35 7.33398 -45 8.00098c-12 1.33301 -21 2 -27 2
c-5.33301 0 -12.666 -0.666992 -21.999 -2c0 -26 7.33301 -53.333 22 -82l158 39l17 -119l-351 -89zM216 -0.000976562l-138 -19l-13 667l153 26z" />
    <glyph glyph-name="uni0624" unicode="&#x624;" horiz-adv-x="567" 
d="M64 617l95.0029 23.999c-13.333 32.667 -20 63.667 -20 93c0 10 0.333008 17.333 1 22c3.33301 34 17.166 61.333 41.499 82s56.166 31 95.499 31c6 0 15 -0.666992 27 -2c13.333 -0.666992 30.666 -4 51.999 -10l-27 -115c-18 4.66699 -33 7.33398 -45 8.00098
c-5.33301 0.666992 -13.333 1 -24 1c-12 0 -20.333 -0.666992 -25 -2c0 -24 7.66699 -51.333 23 -82l158 40l16 -119l-351 -89zM385.003 402.999c30 -25.333 53.5 -61.501 70.5 -108.501s25.5 -101.833 25.5 -164.5c0 -91.333 -24.5 -174.833 -73.5 -250.5
s-135.5 -140.834 -259.5 -195.501l-103 159c60 20.667 114.667 46 164 76s87 59.667 113 89c-23.333 -5.33301 -47.333 -8 -72 -8c-38.667 0 -70 4.66699 -94 14c-10 2.66699 -18.333 7.83398 -25 15.501s-16 21.5 -28 41.5c-10 18 -16.833 32.167 -20.5 42.5
s-5.5 20.5 -5.5 30.5c4 88.667 23 160.334 57 215.001s83.667 82 149 82c38 0 72 -12.667 102 -38zM283.003 164.998c28 0 49.667 1.33301 65 4c0 34 -7 60.167 -21 78.5s-32 27.5 -54 27.5c-18.667 0 -33.667 -9 -45 -27s-18.333 -44.333 -21 -79
c18 -2.66699 43.333 -4 76 -4z" />
    <glyph glyph-name="uni0625" unicode="&#x625;" horiz-adv-x="306" 
d="M221 784l-3 -784l-137 -19l-16 776zM-32 -345l95.001 23.999c-13.333 34 -20 65.333 -20 94c0 40.667 12.5 73.167 37.5 97.5s58.833 36.5 101.5 36.5c6 0 15 -0.666992 27 -2c13.333 -0.666992 30.666 -4 51.999 -10l-27 -115c-4.66699 0.666992 -11.667 2 -21 4
s-17.333 3.33301 -24 4c-5.33301 0.666992 -13.333 1 -24 1c-12 0 -20.333 -0.666992 -25 -2c0 -25.333 7.33301 -52.666 22 -81.999l159 40l16 -119l-351 -89z" />
    <glyph glyph-name="uni0626" unicode="&#x626;" horiz-adv-x="865" 
d="M31 547l95.002 23.999c-13.333 32.667 -20 63.667 -20 93c0 10 0.333008 17.333 1 22c3.33301 34 17.166 61.333 41.499 82s56.166 31 95.499 31c6 0 15 -0.666992 27 -2c14 -0.666992 31.667 -4 53 -10l-27 -116c-19.333 4.66699 -34.666 7.66699 -45.999 9
c-4.66699 0.666992 -11.334 1 -20.001 1c-7.33301 0 -17 -0.666992 -29 -2c0 -25.333 7.66699 -52.666 23 -81.999l158 40l16 -119l-351 -90zM149.002 -205.001c-42.667 37.333 -64.001 92.001 -64.001 164.001c0 49.333 17.333 167.333 52 354l126 -26
c-26 -142.667 -39.333 -236.667 -40 -282c0 -24 14.167 -40 42.5 -48s66.833 -12 115.5 -12c52 0 98.333 4 139 12s72.334 20 95.001 36v6c0 10.667 -3.66699 16.667 -11 18c-58.667 7.33301 -101.5 14 -128.5 20s-48.5 16.5 -64.5 31.5s-24 37.5 -24 67.5
c0 56 11.833 113.667 35.5 173s54 108.5 91 147.5s73.833 58.5 110.5 58.5c30.667 0 59 -9.66699 85 -29s55 -56 87 -110l-88 -93c-30 32 -58.333 48 -85 48c-22.667 0 -42 -11.167 -58 -33.5s-28 -52.833 -36 -91.5c50 -6 89.5 -13.833 118.5 -23.5
s52.667 -28.334 71 -56.001s27.5 -68.167 27.5 -121.5c0 -50 -15 -95.333 -45 -136c-31.333 -40.667 -76 -72.5 -134 -95.5s-125.333 -34.5 -202 -34.5c-101.333 0 -173.333 18.667 -216 56z" />
    <glyph glyph-name="uni0627" unicode="&#x627;" horiz-adv-x="306" 
d="M221 784l-3 -784l-137 -19l-16 776z" />
    <glyph glyph-name="uni0628" unicode="&#x628;" horiz-adv-x="948" 
d="M858 325c2 -35.333 3.00195 -74.002 3.00195 -116.002c0 -39.333 -6.5 -72.333 -19.5 -99s-33.833 -48 -62.5 -64c-32 -17.333 -74.167 -30 -126.5 -38s-118.5 -12 -198.5 -12c-79.333 0 -145.5 6 -198.5 18s-94.667 34.333 -125 67s-45.5 79 -45.5 139
c0 14 2.33301 38 7 72l26 156l124 -25l-22 -136c-2.66699 -11.333 -4 -20.333 -4 -27c0 -15.333 7.83301 -27.166 23.5 -35.499s40.667 -14.166 75 -17.499s81.166 -5 140.499 -5c60.667 0 111.667 1.5 153 4.5s78.666 7.83301 111.999 14.5l-26 213l153 28
c5.33301 -56 9 -101.667 11 -137zM455.002 -113.002l131 -110l-110 -131l-130 110z" />
    <glyph glyph-name="uni0629" unicode="&#x629;" horiz-adv-x="588" 
d="M167 596l-119 99l100 119l116 -96l88 104l119 -100l-100 -117l-116 96zM499 105.5c-4.66699 -11 -14.333 -26.167 -29 -45.5c-14.667 -20 -25 -33.167 -31 -39.5s-12.333 -10.833 -19 -13.5c-41.333 -12.667 -90 -19 -146 -19c-60 0 -106.5 15.667 -139.5 47
s-49.5 72.333 -49.5 123c0 37.333 6.66699 71.5 20 102.5s38.333 70.5 75 118.5l-46 32l99 143c88 -55.333 154.333 -115 199 -179s69 -142.667 73 -236c0.666992 -11.333 -1.33301 -22.5 -6 -33.5zM367.001 196c-16 52 -43.668 90.001 -83.001 114.001
c-13.333 -12.667 -25.833 -28.334 -37.5 -47.001s-17.5 -33.334 -17.5 -44.001c0 -11.333 3.83301 -18.666 11.5 -21.999s21.834 -5 42.501 -5c39.333 0 67.333 1.33301 84 4z" />
    <glyph glyph-name="uni062A" unicode="&#x62a;" horiz-adv-x="948" 
d="M393 449l-119 100l99 119l116 -97l89 105l118 -100l-99 -118l-116 97zM858 325c2 -35.333 3.00195 -74.002 3.00195 -116.002c0 -39.333 -6.5 -72.333 -19.5 -99s-33.833 -48 -62.5 -64c-32 -17.333 -74.167 -30 -126.5 -38s-118.5 -12 -198.5 -12
c-79.333 0 -145.5 6 -198.5 18s-94.667 34.333 -125 67s-45.5 79 -45.5 139c0 14 2.33301 38 7 72l26 156l124 -25l-22 -136c-2.66699 -11.333 -4 -20.333 -4 -27c0 -15.333 7.83301 -27.166 23.5 -35.499s40.667 -14.166 75 -17.499s81.166 -5 140.499 -5
c60.667 0 111.667 1.5 153 4.5s78.666 7.83301 111.999 14.5l-26 213l153 28c5.33301 -56 9 -101.667 11 -137z" />
    <glyph glyph-name="uni062B" unicode="&#x62b;" horiz-adv-x="948" 
d="M470 636l-112 94l95 113l112 -94zM381 456l-113 95l95 114l109 -93l84 99l113 -94l-95 -112l-110 92zM858 325c2 -35.333 3.00195 -74.002 3.00195 -116.002c0 -39.333 -6.5 -72.333 -19.5 -99s-33.833 -48 -62.5 -64c-32 -17.333 -74.167 -30 -126.5 -38
s-118.5 -12 -198.5 -12c-79.333 0 -145.5 6 -198.5 18s-94.667 34.333 -125 67s-45.5 79 -45.5 139c0 14 2.33301 38 7 72l26 156l124 -25l-22 -136c-2.66699 -11.333 -4 -20.333 -4 -27c0 -15.333 7.83301 -27.166 23.5 -35.499s40.667 -14.166 75 -17.499
s81.166 -5 140.499 -5c60.667 0 111.667 1.5 153 4.5s78.666 7.83301 111.999 14.5l-26 213l153 28c5.33301 -56 9 -101.667 11 -137z" />
    <glyph glyph-name="uni062C" unicode="&#x62c;" horiz-adv-x="833" 
d="M709 253c-55.333 -4 -115.167 -21 -179.5 -51s-122.833 -65.833 -175.5 -107.5s-90.334 -79.834 -113.001 -114.501c-1.33301 -22.667 -2 -38.667 -2 -48c0 -42 7.33301 -75.167 22 -99.5s38 -41.833 70 -52.5s74.667 -16 128 -16h224l-42 -209h-199
c-116 0 -205.667 29.833 -269 89.5s-95 146.5 -95 260.5c0 83.333 27.167 160.833 81.5 232.5s129.833 132.834 226.5 183.501c19.333 10 36 18 50 24l-53 16c-30 8.66699 -53.833 15.167 -71.5 19.5s-32.167 6.5 -43.5 6.5c-19.333 0 -32.666 -5 -39.999 -15
s-13 -24.333 -17 -43l-121 21c22 135.333 77.667 203 167 203c24 0 48 -3.16699 72 -9.5s58.333 -16.833 103 -31.5l20 -7c62 -21.333 114.833 -37.333 158.5 -48s90.5 -16 140.5 -16zM380.999 -56l96 115l115 -96l-96 -115z" />
    <glyph glyph-name="uni062D" unicode="&#x62d;" horiz-adv-x="833" 
d="M529.5 202c-64.333 -30 -122.834 -65.833 -175.501 -107.5s-90.334 -79.834 -113.001 -114.501c-1.33301 -22.667 -2 -38.667 -2 -48c0 -42 7.33301 -75.167 22 -99.5s38 -41.833 70 -52.5s74.667 -16 128 -16h224l-42 -209h-199c-116 0 -205.667 29.833 -269 89.5
s-95 146.5 -95 260.5c0 83.333 27.167 160.833 81.5 232.5s129.833 132.834 226.5 183.501c19.333 10 36 18 50 24l-53 16c-30 8.66699 -53.833 15.167 -71.5 19.5s-32.167 6.5 -43.5 6.5c-19.333 0 -32.666 -5 -39.999 -15s-13 -24.333 -17 -43l-121 21
c22 135.333 77.667 203 167 203c24 0 48 -3.16699 72 -9.5s58.333 -16.833 103 -31.5l20 -7c62 -21.333 114.833 -37.333 158.5 -48s90.5 -16 140.5 -16l-42 -188c-55.333 -4 -115.166 -21 -179.499 -51z" />
    <glyph glyph-name="uni062E" unicode="&#x62e;" horiz-adv-x="833" 
d="M479 612l-132 110l110 131l131 -110zM529.5 202c-64.333 -30 -122.834 -65.833 -175.501 -107.5s-90.334 -79.834 -113.001 -114.501c-1.33301 -22.667 -2 -38.667 -2 -48c0 -42 7.33301 -75.167 22 -99.5s38 -41.833 70 -52.5s74.667 -16 128 -16h224l-42 -209h-199
c-116 0 -205.667 29.833 -269 89.5s-95 146.5 -95 260.5c0 83.333 27.167 160.833 81.5 232.5s129.833 132.834 226.5 183.501c19.333 10 36 18 50 24l-53 16c-30 8.66699 -53.833 15.167 -71.5 19.5s-32.167 6.5 -43.5 6.5c-19.333 0 -32.666 -5 -39.999 -15
s-13 -24.333 -17 -43l-121 21c22 135.333 77.667 203 167 203c24 0 48 -3.16699 72 -9.5s58.333 -16.833 103 -31.5l20 -7c62 -21.333 114.833 -37.333 158.5 -48s90.5 -16 140.5 -16l-42 -188c-55.333 -4 -115.166 -21 -179.499 -51z" />
    <glyph glyph-name="uni062F" unicode="&#x62f;" horiz-adv-x="661" 
d="M522 376.5c37.333 -68.333 56.002 -135.834 56.002 -202.501c0 -52 -15.333 -93 -46 -123c-44 -46 -123 -69 -237 -69c-72 0 -125 13.333 -159 40s-51 73.667 -51 141c0 25.333 1.66699 51 5 77l127 -8l-2 -18c0 -9.33301 2.16699 -15.833 6.5 -19.5
s11.666 -5.83398 21.999 -6.50098s29.166 -1 56.499 -1c14.667 0 35.667 1 63 3s51 4.66699 71 8c-15.333 62.667 -73.333 141.334 -174 236.001l103 140c68.667 -63.333 121.667 -129.166 159 -197.499z" />
    <glyph glyph-name="uni0630" unicode="&#x630;" horiz-adv-x="661" 
d="M327 657l-132 110l110 130l131 -109zM522 376.5c37.333 -68.333 56.002 -135.834 56.002 -202.501c0 -52 -15.333 -93 -46 -123c-44 -46 -123 -69 -237 -69c-72 0 -125 13.333 -159 40s-51 73.667 -51 141c0 25.333 1.66699 51 5 77l127 -8l-2 -18
c0 -9.33301 2.16699 -15.833 6.5 -19.5s11.666 -5.83398 21.999 -6.50098s29.166 -1 56.499 -1c14.667 0 35.667 1 63 3s51 4.66699 71 8c-15.333 62.667 -73.333 141.334 -174 236.001l103 140c68.667 -63.333 121.667 -129.166 159 -197.499z" />
    <glyph glyph-name="uni0631" unicode="&#x631;" horiz-adv-x="431" 
d="M-81 -174c64.667 31.333 115.999 58.999 153.999 82.999s66.667 46.167 86 66.5s35 42.166 47 65.499l-43 313l158 34c16 -126.667 24 -228.667 24 -306c0 -58 -9 -109.667 -27 -155s-50.167 -89.166 -96.5 -131.499s-111.166 -85.166 -194.499 -128.499z" />
    <glyph glyph-name="uni0632" unicode="&#x632;" horiz-adv-x="431" 
d="M323 605l-109 -131l-131 110l110 131zM-81 -174c64.667 31.333 115.999 58.999 153.999 82.999s66.667 46.167 86 66.5s35 42.166 47 65.499l-43 313l158 34c16 -126.667 24 -228.667 24 -306c0 -58 -9 -109.667 -27 -155s-50.167 -89.166 -96.5 -131.499
s-111.166 -85.166 -194.499 -128.499z" />
    <glyph glyph-name="uni0633" unicode="&#x633;" horiz-adv-x="1296" 
d="M1199 419c3.33301 -35.333 6.16797 -71.666 8.50098 -108.999s3.5 -74 3.5 -110c0 -65.333 -17.333 -115 -52 -149s-79.334 -51 -134.001 -51c-27.333 0 -52 5.16699 -74 15.5s-38.667 27.833 -50 52.5c-12.667 -24 -30 -41.333 -52 -52s-43.333 -16 -64 -16
c-41.333 0 -72 10 -92 30c2 -30 3 -57.667 3 -83c0 -45.333 -18.833 -82 -56.5 -110s-82 -48.167 -133 -60.5s-98.167 -18.5 -141.5 -18.5c-98 0 -169.167 19 -213.5 57s-66.5 92.667 -66.5 164c0 31.333 4.83301 77.166 14.5 137.499s22.167 132.5 37.5 216.5l126 -26
c-26 -142.667 -39.333 -236.667 -40 -282c0 -40.667 46.667 -61 140 -61c40.667 0 76.334 2.16699 107.001 6.5s58.667 11.5 84 21.5l-47 367l154 34l15 -134c2 -20 8 -33.833 18 -41.5s26.667 -11.5 50 -11.5c20.667 0 42 3.66699 64 11l-3 170l139 7l5 -183
c10 -3.33301 23.667 -5 41 -5c29.333 0 55.666 4.66699 78.999 14l-27 214l153 28z" />
    <glyph glyph-name="uni0634" unicode="&#x634;" horiz-adv-x="1296" 
d="M855 669l-113 94l95 112l113 -93zM766 488l-114 95l96 115l109 -93l83 98l113 -93l-95 -113l-110 91zM1199 419c3.33301 -35.333 6.16797 -71.666 8.50098 -108.999s3.5 -74 3.5 -110c0 -65.333 -17.333 -115 -52 -149s-79.334 -51 -134.001 -51
c-27.333 0 -52 5.16699 -74 15.5s-38.667 27.833 -50 52.5c-12.667 -24 -30 -41.333 -52 -52s-43.333 -16 -64 -16c-41.333 0 -72 10 -92 30c2 -30 3 -57.667 3 -83c0 -45.333 -18.833 -82 -56.5 -110s-82 -48.167 -133 -60.5s-98.167 -18.5 -141.5 -18.5
c-98 0 -169.167 19 -213.5 57s-66.5 92.667 -66.5 164c0 31.333 4.83301 77.166 14.5 137.499s22.167 132.5 37.5 216.5l126 -26c-26 -142.667 -39.333 -236.667 -40 -282c0 -40.667 46.667 -61 140 -61c40.667 0 76.334 2.16699 107.001 6.5s58.667 11.5 84 21.5l-47 367
l154 34l15 -134c2 -20 8 -33.833 18 -41.5s26.667 -11.5 50 -11.5c20.667 0 42 3.66699 64 11l-3 170l139 7l5 -183c10 -3.33301 23.667 -5 41 -5c29.333 0 55.666 4.66699 78.999 14l-27 214l153 28z" />
    <glyph glyph-name="uni0635" unicode="&#x635;" horiz-adv-x="1371" 
d="M1231 435.5c36.667 -49 54.999 -118.832 54.999 -209.499c0 -42 -13.333 -80.667 -40 -116c-30.667 -38.667 -75.667 -68.334 -135 -89.001s-130 -31 -212 -31c-88.667 0 -157 10.333 -205 31c1.33301 -36 2 -60.667 2 -74c0 -45.333 -18.833 -82 -56.5 -110
s-82 -48.167 -133 -60.5s-98.167 -18.5 -141.5 -18.5c-98 0 -169.167 19 -213.5 57s-66.5 92.667 -66.5 164c0 31.333 4.83301 77.166 14.5 137.499s22.167 132.5 37.5 216.5l126 -26c-26 -142.667 -39.333 -236.667 -40 -282c0 -40.667 46.667 -61 140 -61
c40.667 0 76.334 2.16699 107.001 6.5s58.667 11.5 84 21.5l-47 367l154 34l18 -175c5.33301 -1.33301 15.666 -3.66602 30.999 -6.99902c24 42 54.333 85.5 91 130.5s79 84.167 127 117.5s97.333 50 148 50c66.667 0 118.334 -24.5 155.001 -73.5zM1125.5 310.501
c-17 19 -37.499 28.5 -61.499 28.5c-30 0 -64.333 -13 -103 -39s-76.334 -61 -113.001 -105h45c82.667 0 168 9.66699 256 29c1.33301 38.667 -6.5 67.5 -23.5 86.5z" />
    <glyph glyph-name="uni0636" unicode="&#x636;" horiz-adv-x="1371" 
d="M847 551l-131 110l109 131l131 -110zM1231 435.5c36.667 -49 54.999 -118.832 54.999 -209.499c0 -42 -13.333 -80.667 -40 -116c-30.667 -38.667 -75.667 -68.334 -135 -89.001s-130 -31 -212 -31c-88.667 0 -157 10.333 -205 31c1.33301 -36 2 -60.667 2 -74
c0 -45.333 -18.833 -82 -56.5 -110s-82 -48.167 -133 -60.5s-98.167 -18.5 -141.5 -18.5c-98 0 -169.167 19 -213.5 57s-66.5 92.667 -66.5 164c0 31.333 4.83301 77.166 14.5 137.499s22.167 132.5 37.5 216.5l126 -26c-26 -142.667 -39.333 -236.667 -40 -282
c0 -40.667 46.667 -61 140 -61c40.667 0 76.334 2.16699 107.001 6.5s58.667 11.5 84 21.5l-47 367l154 34l18 -175c5.33301 -1.33301 15.666 -3.66602 30.999 -6.99902c24 42 54.333 85.5 91 130.5s79 84.167 127 117.5s97.333 50 148 50
c66.667 0 118.334 -24.5 155.001 -73.5zM1125.5 310.501c-17 19 -37.499 28.5 -61.499 28.5c-30 0 -64.333 -13 -103 -39s-76.334 -61 -113.001 -105h45c82.667 0 168 9.66699 256 29c1.33301 38.667 -6.5 67.5 -23.5 86.5z" />
    <glyph glyph-name="uni0637" unicode="&#x637;" horiz-adv-x="846" 
d="M705 442c36.667 -48.667 55.001 -118.333 55.001 -209c0 -42.667 -13 -81.667 -39 -117c-30.667 -38 -75.834 -66.833 -135.501 -86.5s-130.167 -29.5 -211.5 -29.5h-253l-36 206h94c9.33301 16.667 18.666 31.667 27.999 45c2.66699 4.66699 4.5 11 5.5 19
s1.5 21.333 1.5 40c0 40 -3.33301 144.333 -10 313l-5 134l155 27v-292c0 -24.667 -1 -48.667 -3 -72c68.667 63.333 135 95 199 95c66.667 0 118.334 -24.333 155.001 -73zM600.001 317.501c-16.667 19 -37.3311 28.501 -61.998 28.501
c-28.667 0 -62.334 -12.833 -101.001 -38.5s-77 -60.834 -115 -105.501h45c88 0 173.333 9.66699 256 29c1.33301 38.667 -6.33398 67.5 -23.001 86.5z" />
    <glyph glyph-name="uni0638" unicode="&#x638;" horiz-adv-x="846" 
d="M589 609l-131 110l109 130l131 -109zM705 442c36.667 -48.667 55.001 -118.333 55.001 -209c0 -42.667 -13 -81.667 -39 -117c-30.667 -38 -75.834 -66.833 -135.501 -86.5s-130.167 -29.5 -211.5 -29.5h-253l-36 206h94c9.33301 16.667 18.666 31.667 27.999 45
c2.66699 4.66699 4.5 11 5.5 19s1.5 21.333 1.5 40c0 40 -3.33301 144.333 -10 313l-5 134l155 27v-292c0 -24.667 -1 -48.667 -3 -72c68.667 63.333 135 95 199 95c66.667 0 118.334 -24.333 155.001 -73zM600.001 317.501c-16.667 19 -37.3311 28.501 -61.998 28.501
c-28.667 0 -62.334 -12.833 -101.001 -38.5s-77 -60.834 -115 -105.501h45c88 0 173.333 9.66699 256 29c1.33301 38.667 -6.33398 67.5 -23.001 86.5z" />
    <glyph glyph-name="uni0639" unicode="&#x639;" horiz-adv-x="692" 
d="M246 -280.5c-51.333 27.667 -90.998 67.668 -118.998 120.001s-42 114.5 -42 186.5c0 52 11.167 102.667 33.5 152s55.166 94 98.499 134c-30.667 59.333 -46 118 -46 176c0 133.333 81.333 200 244 200c30.667 0 60.334 -2.33301 89.001 -7l-29 -151
c-14 2 -32.333 3 -55 3c-20.667 0 -41 -1 -61 -3s-35 -5 -45 -9c0 -22.667 3.66699 -47 11 -73s16.333 -47.333 27 -64l239 77l31 -181c-104 -27.333 -184.167 -54.333 -240.5 -81s-102.5 -58.334 -138.5 -95.001l-1 -22c-1.33301 -14.667 -2 -25 -2 -31
c0.666992 -43.333 7.16699 -77 19.5 -101s31.666 -41 57.999 -51s62.166 -15 107.499 -15h256l-42 -206h-214c-68 0 -127.667 13.833 -179 41.5z" />
    <glyph glyph-name="uni063A" unicode="&#x63a;" horiz-adv-x="692" 
d="M456 910l-109 -130l-132 109l110 131zM246 -280.5c-51.333 27.667 -90.998 67.668 -118.998 120.001s-42 114.5 -42 186.5c0 52 11.167 102.667 33.5 152s55.166 94 98.499 134c-30.667 59.333 -46 118 -46 176c0 133.333 81.333 200 244 200
c30.667 0 60.334 -2.33301 89.001 -7l-29 -151c-14 2 -32.333 3 -55 3c-20.667 0 -41 -1 -61 -3s-35 -5 -45 -9c0 -22.667 3.66699 -47 11 -73s16.333 -47.333 27 -64l239 77l31 -181c-104 -27.333 -184.167 -54.333 -240.5 -81s-102.5 -58.334 -138.5 -95.001l-1 -22
c-1.33301 -14.667 -2 -25 -2 -31c0.666992 -43.333 7.16699 -77 19.5 -101s31.666 -41 57.999 -51s62.166 -15 107.499 -15h256l-42 -206h-214c-68 0 -127.667 13.833 -179 41.5z" />
    <glyph glyph-name="uni0640" unicode="&#x640;" horiz-adv-x="213" 
d="M220 192.5c2 -9 3.00195 -20.167 3.00195 -33.5v-112c0 -12.667 -1 -23.667 -3 -33s-4.33301 -14 -7 -14h-213c-2.66699 -0 -5.33398 4.83301 -8.00098 14.5s-4 20.5 -4 32.5v112c0 12.667 1.16699 23.667 3.5 33s5.16602 14 8.49902 14h213c2.66699 0 5 -4.5 7 -13.5z
" />
    <glyph glyph-name="uni0641" unicode="&#x641;" horiz-adv-x="1065" 
d="M770 779l-132 110l110 130l131 -109zM970.5 204c-5 -44 -14.1699 -80.1709 -27.5029 -108.504s-32.666 -49.833 -57.999 -64.5c-19.333 -11.333 -40.666 -19.166 -63.999 -23.499s-53.833 -7.16602 -91.5 -8.49902s-104.834 -2.33301 -201.501 -3h-74
c-79.333 0 -145.5 6 -198.5 18s-94.667 34.333 -125 67s-45.5 79 -45.5 139c0 14 2.33301 38 7 72l26 156l124 -25l-22 -136c-2.66699 -11.333 -4 -20.333 -4 -27c0 -15.333 7.83301 -27.166 23.5 -35.499s40.667 -14.166 75 -17.499s81.166 -5 140.499 -5
c138 0 230.833 0.333008 278.5 1s82.834 2.66699 105.501 6l3 47c-28 -6.66699 -60 -10 -96 -10s-67.333 4.66699 -94 14c-10 2.66699 -18.333 7.66699 -25 15s-15.667 20.666 -27 39.999c-11.333 20 -18.666 34.5 -21.999 43.5s-5 19.5 -5 31.5
c4 88.667 23 160.334 57 215.001s83.667 82 149 82c40.667 0 75.834 -12.5 105.501 -37.5s52.5 -61 68.5 -108s24 -102.167 24 -165.5c0.666992 -70.667 -1.5 -128 -6.5 -172zM778.997 411.996c26.667 0 48.334 1 65.001 3c0 34 -7 60.167 -21 78.5s-32 27.5 -54 27.5
c-18 0 -32.833 -8.83301 -44.5 -26.5s-18.834 -44.167 -21.501 -79.5c20 -2 45.333 -3 76 -3z" />
    <glyph glyph-name="uni0642" unicode="&#x642;" horiz-adv-x="862" 
d="M475 582l-119 100l100 119l116 -97l88 105l119 -100l-100 -118l-116 96zM683.5 448.5c29.667 -25 52.499 -60.8359 68.499 -107.503s24 -101.667 24 -165c0 -71.333 -0.833008 -123.166 -2.5 -155.499s-6 -59.166 -13 -80.499s-18.833 -41 -35.5 -59
c-64 -66 -185.333 -99 -364 -99c-100 0 -171 18.667 -213 56s-63 91.666 -63 162.999c0 49.333 17.333 167.333 52 354l126 -25c-26 -144 -39.333 -238.333 -40 -283c0 -24 13.5 -40 40.5 -48s60.167 -12 99.5 -12c72 0 130.333 2 175 6s81.334 10 110.001 18l2 46
c-33.333 -8 -68.333 -12 -105 -12c-34.667 0 -66 4.33301 -94 13c-10 3.33301 -18.333 8.83301 -25 16.5s-15.334 20.834 -26.001 39.501c-12 19.333 -19.667 33.5 -23 42.5s-5 19.833 -5 32.5c4 88.667 23 160.334 57 215.001s83.667 82 149 82
c40.667 0 75.834 -12.5 105.501 -37.5zM642.999 213.997c0 34 -6.99902 59.999 -20.999 77.999s-32 27 -54 27c-18 0 -32.833 -8.66699 -44.5 -26s-18.834 -43.666 -21.501 -78.999c20 -2 45.333 -3 76 -3c26 0 47.667 1 65 3z" />
    <glyph glyph-name="uni0643" unicode="&#x643;" horiz-adv-x="911" 
d="M685 220l-28.999 537l155 27l5 -144c0.666992 -16 2.5 -72.5 5.5 -169.5s4.5 -188.167 4.5 -273.5c0 -62.667 -23.333 -110.334 -70 -143.001c-24.667 -18 -65.834 -32.333 -123.501 -43s-117.167 -16 -178.5 -16c-79.333 0 -145.5 5.83301 -198.5 17.5
s-94.667 34 -125 67s-45.5 79.5 -45.5 139.5c0 14 2.33301 38 7 72l26 156l124 -25l-22 -137c-2.66699 -10.667 -4 -19.334 -4 -26.001c0 -15.333 7.83301 -27.166 23.5 -35.499s40.667 -14.166 75 -17.499s81.166 -5 140.499 -5c106.667 0 183.334 6.33301 230.001 19z
M488.001 461c0.666992 1.33301 0.498047 2 -0.501953 2h-4.5c-30 4.66699 -53.167 9.16699 -69.5 13.5s-29.166 11 -38.499 20s-14 21.5 -14 37.5c0 27.333 5.83301 55.833 17.5 85.5s26.667 54.334 45 74.001s36.833 29.5 55.5 29.5c16.667 0 32 -5.16699 46 -15.5
s30 -29.5 48 -57.5l-48 -48c-16 16 -30.333 24 -43 24c-19.333 0 -34 -18.333 -44 -55c26.667 -2.66699 47.834 -6.5 63.501 -11.5s28.167 -13.833 37.5 -26.5s14 -31.334 14 -56.001c0 -44.667 -19 -80.667 -57 -108s-91.667 -41 -161 -41l14 112
c62.667 -0.666992 109 6.33301 139 21z" />
    <glyph glyph-name="uni0644" unicode="&#x644;" horiz-adv-x="777" 
d="M508 755l155.999 29l32 -837c0.666992 -45.333 -17.833 -82 -55.5 -110s-82.167 -48.167 -133.5 -60.5s-98.666 -18.5 -141.999 -18.5c-101.333 0 -173.333 18.667 -216 56s-64 92.333 -64 165c0 31.333 4.83301 77.166 14.5 137.499s22.167 132.5 37.5 216.5l126 -26
c-26 -142.667 -39.333 -236.667 -40 -282c0 -40.667 46.667 -61 140 -61c38.667 0 73 2.33301 103 7s61.667 11.334 95 20.001z" />
    <glyph glyph-name="uni0645" unicode="&#x645;" horiz-adv-x="643" 
d="M85 42c0 70 7.99805 123.334 23.998 160.001c38 86.667 78.5 152 121.5 196s89.5 66 139.5 66c34.667 0 66.334 -11.333 95.001 -34s51.167 -53.834 67.5 -93.501s24.5 -83.5 24.5 -131.5c0 -43.333 -6.66699 -86 -20 -128c-4 -10.667 -9.66699 -20.167 -17 -28.5
s-21 -19.833 -41 -34.5c-27.333 -20 -48.666 -30 -63.999 -30c-5.33301 0 -12 1.66699 -20 5l-171 79c12.667 -95.333 28.667 -200 48 -314l-159 -48c-18.667 150.667 -28 262.667 -28 336zM424.998 204.001c0 28 -5.83301 50.667 -17.5 68s-29.834 26 -54.501 26
c-29.333 0 -59.666 -25.333 -90.999 -76l156 -74c4.66699 18 7 36.667 7 56z" />
    <glyph glyph-name="uni0646" unicode="&#x646;" horiz-adv-x="780" 
d="M496 514l-109 -130l-131 109l110 131zM99.5 116.5c9.66699 60.333 22.166 132.501 37.499 216.501l126 -26c-26 -142.667 -39.333 -236.667 -40 -282c0 -40.667 46.667 -61 140 -61c40.667 0 76.334 2.16699 107.001 6.5s58.667 11.5 84 21.5l-47 367l154 34
c11.333 -110 20 -199.667 26 -269s9 -128.333 9 -177c0 -45.333 -18.833 -82 -56.5 -110s-82 -48.167 -133 -60.5s-98.167 -18.5 -141.5 -18.5c-98 0 -169.167 19 -213.5 57s-66.5 92.667 -66.5 164c0 31.333 4.83301 77.166 14.5 137.499z" />
    <glyph glyph-name="uni0647" unicode="&#x647;" horiz-adv-x="588" 
d="M134.5 35c-33 31.333 -49.499 72.333 -49.499 123c0 37.333 6.66699 71.5 20 102.5s38.333 70.5 75 118.5l-46 32l99 143c88 -55.333 154.333 -115 199 -179s69 -142.667 73 -236c0.666992 -11.333 -1.33301 -22.5 -6 -33.5s-14.334 -26.167 -29.001 -45.5
c-14.667 -20 -25 -33.167 -31 -39.5s-12.333 -10.833 -19 -13.5c-41.333 -12.667 -90 -19 -146 -19c-60 0 -106.5 15.667 -139.5 47zM367.001 196c-16 52 -43.668 90.001 -83.001 114.001c-13.333 -12.667 -25.833 -28.334 -37.5 -47.001s-17.5 -33.334 -17.5 -44.001
c0 -11.333 3.83301 -18.666 11.5 -21.999s21.834 -5 42.501 -5c39.333 0 67.333 1.33301 84 4z" />
    <glyph glyph-name="uni0648" unicode="&#x648;" horiz-adv-x="567" 
d="M385 403c30 -25.333 53.5 -61.501 70.5 -108.501s25.5 -101.833 25.5 -164.5c0 -91.333 -24.5 -174.833 -73.5 -250.5s-135.5 -140.834 -259.5 -195.501l-103 159c60 20.667 114.667 46 164 76s87 59.667 113 89c-23.333 -5.33301 -47.333 -8 -72 -8
c-38.667 0 -70 4.66699 -94 14c-10 2.66699 -18.333 7.83398 -25 15.501s-16 21.5 -28 41.5c-10 18 -16.833 32.167 -20.5 42.5s-5.5 20.5 -5.5 30.5c4 88.667 23 160.334 57 215.001s83.667 82 149 82c38 0 72 -12.667 102 -38zM283 164.999c28 0 49.667 1.33301 65 4
c0 34 -7 60.167 -21 78.5s-32 27.5 -54 27.5c-18.667 0 -33.667 -9 -45 -27s-18.333 -44.333 -21 -79c18 -2.66699 43.333 -4 76 -4z" />
    <glyph glyph-name="uni0649" unicode="&#x649;" horiz-adv-x="865" 
d="M149 -205c-42.667 37.333 -64.001 92.001 -64.001 164.001c0 49.333 17.333 167.333 52 354l126 -26c-26 -142.667 -39.333 -236.667 -40 -282c0 -24 14.167 -40 42.5 -48s66.833 -12 115.5 -12c52 0 98.333 4 139 12s72.334 20 95.001 36v6
c0 10.667 -3.66699 16.667 -11 18c-58.667 7.33301 -101.5 14 -128.5 20s-48.5 16.5 -64.5 31.5s-24 37.5 -24 67.5c0 56 11.833 113.667 35.5 173s54 108.5 91 147.5s73.833 58.5 110.5 58.5c30.667 0 59 -9.66699 85 -29s55 -56 87 -110l-88 -93c-30 32 -58.333 48 -85 48
c-22.667 0 -42 -11.167 -58 -33.5s-28 -52.833 -36 -91.5c50 -6 89.5 -13.833 118.5 -23.5s52.667 -28.334 71 -56.001s27.5 -68.167 27.5 -121.5c0 -50 -15 -95.333 -45 -136c-31.333 -40.667 -76 -72.5 -134 -95.5s-125.333 -34.5 -202 -34.5
c-101.333 0 -173.333 18.667 -216 56z" />
    <glyph glyph-name="uni064A" unicode="&#x64a;" horiz-adv-x="865" 
d="M647.5 182.5c29 -9.66699 52.666 -28.333 70.999 -56s27.5 -68.167 27.5 -121.5c0 -50 -15 -95.333 -45 -136c-31.333 -40.667 -76 -72.5 -134 -95.5s-125.333 -34.5 -202 -34.5c-101.333 0 -173.333 18.667 -216 56s-64 92 -64 164c0 49.333 17.333 167.333 52 354
l126 -26c-26 -142.667 -39.333 -236.667 -40 -282c0 -24 14.167 -40 42.5 -48s66.833 -12 115.5 -12c52 0 98.333 4 139 12s72.334 20 95.001 36v6c0 10.667 -3.66699 16.667 -11 18c-58.667 7.33301 -101.5 14 -128.5 20s-48.5 16.5 -64.5 31.5s-24 37.5 -24 67.5
c0 56 11.833 113.667 35.5 173s54 108.5 91 147.5s73.833 58.5 110.5 58.5c30.667 0 59 -9.66699 85 -29s55 -56 87 -110l-88 -93c-30 32 -58.333 48 -85 48c-22.667 0 -42 -11.167 -58 -33.5s-28 -52.833 -36 -91.5c50 -6 89.5 -13.833 118.5 -23.5zM483.999 -344.999
l119 -99l-101 -119l-116 98l-87 -107l-119 100l99 120l117 -97z" />
    <glyph glyph-name="uni064B" unicode="&#x64b;" 
d="M-4 1029l355 90l16 -120l-354 -88zM-4 813l355 91l16 -121l-354 -88z" />
    <glyph glyph-name="uni064C" unicode="&#x64c;" 
d="M340 1093c21.333 -28 32.002 -66.3359 32.002 -115.003c0 -12 -0.333008 -21 -1 -27c-2.66699 -38 -10.5 -66.5 -23.5 -85.5s-37.5 -35.833 -73.5 -50.5s-97.667 -33.667 -185 -57l-87 -23c-18.667 60 -31 101.833 -37 125.5s-9 47.5 -9 71.5c0 12.667 1.16699 29 3.5 49
s5.16602 42 8.49902 66l3 23l93 -13c-6 -27.333 -11 -52 -15 -74s-6 -40.333 -6 -55c0 -15.333 2.66699 -34.666 8 -57.999l97 23c-2 0.666992 -3.83301 1.33398 -5.5 2.00098s-3.16699 1.33398 -4.5 2.00098c-4.66699 1.33301 -9 4.5 -13 9.5s-8.66699 13.833 -14 26.5
c-6.66699 14 -10 24.333 -10 31c0 3.33301 0.333008 6 1 8c13.333 56 33.5 98.5 60.5 127.5s56.833 42.5 89.5 40.5c37.333 -3.33301 66.666 -19 87.999 -47zM289.002 981.997c0 16 -4 28.832 -12 38.499s-18.667 14.5 -32 14.5c-10.667 0 -20.334 -4.66699 -29.001 -14
s-15.667 -22.333 -21 -39c36.667 -9.33301 67.334 -16 92.001 -20c1.33301 4.66699 2 11.334 2 20.001z" />
    <glyph glyph-name="uni064D" unicode="&#x64d;" 
d="M-2 -144l355 90l16 -120l-354 -89zM-2 -360l355 90l16 -120l-354 -88z" />
    <glyph glyph-name="uni064E" unicode="&#x64e;" 
d="M-4 805l355 90l16 -120l-354 -88z" />
    <glyph glyph-name="uni064F" unicode="&#x64f;" 
d="M319 1093c21.333 -28 32.001 -66.335 32.001 -115.002c0 -12 -0.333008 -21 -1 -27c-3.33301 -40.667 -12.5 -70.667 -27.5 -90s-43.333 -36.5 -85 -51.5s-117.5 -37.167 -227.5 -66.5l-21 117l138 33c-2 0.666992 -3.83301 1.33398 -5.5 2.00098
s-3.16699 1.33398 -4.5 2.00098c-5.33301 1.33301 -9.83301 4.5 -13.5 9.5s-8.16699 13.833 -13.5 26.5c-6.66699 14 -10 24.333 -10 31c0 3.33301 0.333008 6 1 8c13.333 56 33.5 98.5 60.5 127.5s56.833 42.5 89.5 40.5c37.333 -3.33301 66.666 -19 87.999 -47z
M268.001 981.998c0 16 -4 28.832 -12 38.499s-18.667 14.5 -32 14.5c-10.667 0 -20.334 -4.66699 -29.001 -14s-15.667 -22.333 -21 -39c36.667 -9.33301 67.334 -16 92.001 -20c1.33301 4.66699 2 11.334 2 20.001z" />
    <glyph glyph-name="uni0650" unicode="&#x650;" 
d="M-4 -164l355 90l16 -120l-354 -88z" />
    <glyph glyph-name="uni0651" unicode="&#x651;" 
d="M59 726.5c-17.333 9.66699 -31.334 23.167 -42.001 40.5s-16 37.666 -16 60.999c0 12 2.33301 37.333 7 76l7 67l80 -15l-10 -87c-2 -12 1.33301 -20 10 -24s20.667 -6 36 -6c6 0 15 0.666992 27 2l-3 99l81 2l1 -102c5.33301 -0.666992 13 -1 23 -1c26 0 44.333 2 55 6
c-1.33301 18 -4 38.333 -8 61s-8.33301 42 -13 58l90 33c13.333 -54.667 20 -109.667 20 -165c0 -37.333 -12.167 -66.666 -36.5 -87.999s-59.833 -32 -106.5 -32c-28 0 -50 7.66699 -66 23c-24.667 -15.333 -51.667 -23 -81 -23c-19.333 0 -37.666 4.83301 -54.999 14.5z
" />
    <glyph glyph-name="uni0652" unicode="&#x652;" 
d="M7 844c0 28.667 8 53.666 24 74.999s37.667 35.333 65 42c8.66699 2.66699 18.667 4 30 4c27.333 0 51.833 -9 73.5 -27s36.167 -41.667 43.5 -71c3.33301 -13.333 5 -25 5 -35c0 -28 -8.16699 -52.667 -24.5 -74s-38.5 -35.333 -66.5 -42l-42 -9
c-13.333 -3.33301 -24.333 -5 -33 -5c-20 0 -35.5 6.33301 -46.5 19s-19.5 31.334 -25.5 56.001l119 34c14.667 4.66699 22 12.667 22 24c0 8 -2.33301 14.333 -7 19s-10.667 7 -18 7c-9.33301 0 -16 -2.5 -20 -7.5s-5 -10.5 -3 -16.5l-92 -27c-2.66699 10.667 -4 22 -4 34z
" />
    <glyph glyph-name="uni0653" unicode="&#x653;" 
d="M307 786c-45.333 0 -89.665 3.33398 -132.998 10.001c-10.667 2.66699 -20.334 4 -29.001 4c-7.33301 0 -13.333 -3 -18 -9s-10 -19.333 -16 -40l-111 28c11.333 47.333 23.166 84.166 35.499 110.499s27 44.833 44 55.5s38.5 16 64.5 16c7.33301 0 25 -2 53 -6
c48.667 -7.33301 94 -11 136 -11l69 1l-36 -159h-59z" />
    <glyph glyph-name="uni0654" unicode="&#x654;" 
d="M-7 805l95 23.999c-13.333 34 -20 65 -20 93c0 10 0.333008 17.333 1 22c3.33301 34 17.166 61.333 41.499 82s56.166 31 95.499 31c6 0 15 -0.666992 27 -2c16.667 -0.666992 34.334 -3.66699 53.001 -9l-27 -116c-20 4.66699 -35.333 7.33398 -46 8.00098
c-12 1.33301 -20.667 2 -26 2s-12.666 -0.666992 -21.999 -2c0 -26 7.33301 -53.333 22 -82l158 39l16 -119l-351 -89z" />
    <glyph glyph-name="uni0655" unicode="&#x655;" 
d="M-7 -316l95 24.998c-13.333 32.667 -20 63.334 -20 92.001c0 10 0.333008 17.333 1 22c3.33301 34.667 17.333 62.167 42 82.5s57 30.5 97 30.5c10.667 0 19 -0.333008 25 -1c18 -2 35.667 -5.33301 53 -10l-27 -116c-20 4.66699 -35.333 7.33398 -46 8.00098
c-6 0.666992 -14.667 1 -26 1c-10 0 -17.333 -0.333008 -22 -1c0 -26 7.33301 -53.333 22 -82l158 39l16 -119l-351 -89z" />
    <glyph glyph-name="uni0656" unicode="&#x656;" 
d="M0 17l92 12v-212l-89 -7z" />
    <glyph glyph-name="uni0660" unicode="&#x660;" horiz-adv-x="628" 
d="M198 73.5c-34.667 20.333 -62.166 48.165 -82.499 83.498s-30.5 74 -30.5 116s10.333 80.5 31 115.5s48.5 62.667 83.5 83s73.833 30.5 116.5 30.5c41.333 0 79.333 -10.167 114 -30.5s62.167 -48.166 82.5 -83.499s30.5 -73.666 30.5 -114.999
c0 -42 -10.333 -80.667 -31 -116s-48.5 -63.333 -83.5 -84s-73.167 -31 -114.5 -31c-42.667 0.666992 -81.334 11.167 -116.001 31.5zM377.001 209.999c17.333 17.333 26 38.333 26 63c0 25.333 -8.5 46.5 -25.5 63.5s-38.167 25.5 -63.5 25.5s-46.666 -8.5 -63.999 -25.5
s-26 -38.167 -26 -63.5c0 -24.667 8.66699 -45.667 26 -63s38.666 -26 63.999 -26c24.667 0 45.667 8.66699 63 26z" />
    <glyph glyph-name="uni0661" unicode="&#x661;" horiz-adv-x="382" 
d="M240 784c18 -120.667 32 -230.333 42 -329s15 -195 15 -289c0 -55.333 -2 -110.666 -6 -165.999l-128 -13c1.33301 23.333 2 58.666 2 105.999c0 214.667 -26.667 436 -80 664z" />
    <glyph glyph-name="uni0662" unicode="&#x662;" horiz-adv-x="668" 
d="M85 757l154.998 26.999l24 -149c2.66699 -19.333 9.16699 -32.166 19.5 -38.499s30.5 -9.5 60.5 -9.5c42 0 75 4.66699 99 14l-24 169l151 29c10.667 -86.667 16 -159.334 16 -218.001c0 -66.667 -18.667 -116.667 -56 -150s-89.666 -50 -156.999 -50
c-28 0 -54.333 6.33301 -79 19c13.333 -120 20 -228 20 -324c0 -34 -0.333008 -59.333 -1 -76l-128 -13c0.666992 222.667 -32.666 479.334 -99.999 770.001z" />
    <glyph glyph-name="uni0663" unicode="&#x663;" horiz-adv-x="885" 
d="M789 758c7.33301 -67.333 11 -129.334 11 -186.001c0 -64.667 -18.333 -114 -55 -148s-83.667 -51 -141 -51c-67.333 0 -112.666 13.667 -135.999 41c-14.667 -14.667 -32.834 -25.334 -54.501 -32.001s-42.834 -10 -63.501 -10c-17.333 0 -35.666 5.66699 -54.999 17
c12.667 -110 19 -213.333 19 -310c0 -35.333 -0.333008 -61.666 -1 -78.999l-128 -13c0.666992 120 -7.83301 243.333 -25.5 370s-42.5 259.334 -74.5 398.001l155 27l24 -151c3.33301 -21.333 8 -35.833 14 -43.5s17.333 -11.5 34 -11.5c27.333 0 52.333 5 75 15l-4 164
l140 7l4 -179c8.66699 -2.66699 26 -4 52 -4c28.667 0 55 4.33301 79 13l-24 177l151 29z" />
    <glyph glyph-name="uni0664" unicode="&#x664;" horiz-adv-x="602" 
d="M104 332.5c12.667 34.333 30.3311 63.8369 52.998 88.5039c-40 45.333 -60 105 -60 179c0 61.333 21.333 108 64 140s104.334 48 185.001 48c42 0 84.667 -3.66699 128 -11l-14 -172c-44 5.33301 -81 8 -111 8c-43.333 0 -78.666 -4.33301 -105.999 -13
c3.33301 -27.333 12 -49 26 -65s35.833 -27.333 65.5 -34s69.5 -9.33398 119.5 -8.00098l-1 -155c-66.667 0.666992 -117.5 -6 -152.5 -20s-59.833 -38.667 -74.5 -74c2.66699 -17.333 12.334 -30 29.001 -38s45 -12 85 -12c32 0 61.167 1.16699 87.5 3.5
s57.833 6.16602 94.5 11.499l5 -199c-38.667 -6.66699 -72 -11.334 -100 -14.001s-60 -4 -96 -4c-76.667 0 -136.834 20.667 -180.501 62s-65.5 97.666 -65.5 168.999c0 38.667 6.33301 75.167 19 109.5z" />
    <glyph glyph-name="uni0665" unicode="&#x665;" horiz-adv-x="756" 
d="M85 169c0 68.667 14.668 143.333 44.001 224s65.5 148.667 108.5 204s83.5 83 121.5 83c49.333 0 98.166 -26.5 146.499 -79.5s88 -120.833 119 -203.5s46.5 -164.667 46.5 -246c0 -66 -25 -114 -75 -144s-129 -45 -237 -45c-182.667 0 -274 69 -274 207z
M519.001 181.999c-5.33301 40 -17.5 84.166 -36.5 132.499s-39.667 89.5 -62 123.5s-40.5 51 -54.5 51c-9.33301 0 -23.5 -18.667 -42.5 -56s-36.333 -79.166 -52 -125.499s-23.5 -81.833 -23.5 -106.5c0 -12 10 -20.833 30 -26.5s54 -8.5 102 -8.5
c62 0 108.333 5.33301 139 16z" />
    <glyph glyph-name="uni0666" unicode="&#x666;" horiz-adv-x="619" 
d="M359 218.5c-3.33301 73 -5 181.166 -5 324.499c-20 -1.33301 -36.667 -2 -50 -2c-69.333 0 -150 8.66699 -242 26l-9 201c70 -9.33301 126.833 -15.666 170.5 -18.999s89.167 -5 136.5 -5c38 0 85 1 141 3c0 -173.333 0.833008 -302 2.5 -386s4.66699 -149.833 9 -197.5
s11.5 -94.5 21.5 -140.5l-149 -48c-14 89.333 -22.667 170.5 -26 243.5z" />
    <glyph glyph-name="uni0667" unicode="&#x667;" horiz-adv-x="767" 
d="M569 447.5c-39.333 -84.333 -70.667 -165.999 -94 -244.999s-35 -141.833 -35 -188.5v-14l-128 -14v12c0 57.333 -8.33301 123.166 -25 197.499s-42.667 153.166 -78 236.499s-80 164.333 -134 243l129 118c31.333 -45.333 65.5 -114.833 102.5 -208.5
s63.5 -180.834 79.5 -261.501l2 -9l1 9c7.33301 54 21 111.833 41 173.5s42.667 119.334 68 173.001s50 96.167 74 127.5l122 -131c-44 -61.333 -85.667 -134.166 -125 -218.499z" />
    <glyph glyph-name="uni0668" unicode="&#x668;" horiz-adv-x="767" 
d="M480 582.5c16.667 -74.333 42.832 -153.166 78.499 -236.499s80.5 -164.333 134.5 -243l-129 -118c-31.333 46 -65.666 115.833 -102.999 209.5s-64 180.5 -80 260.5l-1 9l-2 -9c-7.33301 -54 -20.833 -111.833 -40.5 -173.5s-42.167 -119.334 -67.5 -173.001
s-50 -96.167 -74 -127.5l-122 131c44 61.333 85.5 134.166 124.5 218.499s70.167 166 93.5 245s35 141.833 35 188.5v14l128 14v-12c0 -57.333 8.33301 -123.166 25 -197.499z" />
    <glyph glyph-name="uni0669" unicode="&#x669;" horiz-adv-x="648" 
d="M532 226c5.33301 -70.667 15.666 -141.667 30.999 -213l-142 -46c-10 68 -17.5 123.167 -22.5 165.5s-7.5 82.5 -7.5 120.5v30c-26 -6.66699 -60.667 -10 -104 -10c-54.667 0 -98.334 5 -131.001 15c-10.667 2.66699 -19.667 7.5 -27 14.5s-15.666 18.5 -24.999 34.5
c-12 18.667 -19.833 33.334 -23.5 44.001s-5.5 21.667 -5.5 33c0 74.667 8.33301 141.167 25 199.5s42 104.166 76 137.499s75.667 50 125 50c46.667 0 86.834 -13.167 120.501 -39.5s59.167 -63.333 76.5 -111s26 -103.167 26 -166.5c0 -101.333 2.66699 -187.333 8 -258z
M391 477c0 52 -9 91.5 -27 118.5s-39.333 40.5 -64 40.5c-26 0 -48 -13.333 -66 -40s-28.333 -66 -31 -118c12 -4.66699 41.667 -7 89 -7c50.667 0 83.667 2 99 6z" />
    <glyph glyph-name="uni066A" unicode="&#x66a;" horiz-adv-x="1016" 
d="M217 10l457 803l144 -65l-455 -803zM364 752.5c28 -16.333 50.166 -38.5 66.499 -66.5s24.5 -59 24.5 -93s-8.16699 -65 -24.5 -93s-38.666 -50 -66.999 -66s-59.5 -24 -93.5 -24c-33.333 0 -63.833 8.16699 -91.5 24.5s-49.667 38.5 -66 66.5s-24.5 58.667 -24.5 92
c0 34 8.33301 65 25 93s39 50.167 67 66.5s58.667 24.5 92 24.5s64 -8.16699 92 -24.5zM220.999 643c-14 -14 -21 -30.667 -21 -50c0 -20 7 -37 21 -51s31 -21 51 -21s36.833 7 50.5 21s20.5 31 20.5 51c0 19.333 -6.83301 36 -20.5 50s-30.5 21 -50.5 21s-37 -7 -51 -21z
M658.999 -22c-28 16.667 -50.165 38.9971 -66.498 66.9971s-24.5 58.667 -24.5 92c0 34 8.16699 65 24.5 93s38.5 50 66.5 66s58.667 24 92 24c33.333 0.666992 64.166 -7.16602 92.499 -23.499s50.666 -38.5 66.999 -66.5s24.5 -59 24.5 -93
c0 -33.333 -8.33301 -64.166 -25 -92.499s-39 -50.666 -67 -66.999s-58.667 -24.5 -92 -24.5s-64 8.33301 -92 25zM802.501 86.9971c13.667 14 20.5 30.667 20.5 50c0 20.667 -6.83301 37.834 -20.5 51.501s-30.834 20.5 -51.501 20.5c-20 0 -36.833 -6.83301 -50.5 -20.5
s-20.5 -30.834 -20.5 -51.501c0 -19.333 6.83301 -36 20.5 -50s30.5 -21 50.5 -21c20.667 0 37.834 7 51.501 21z" />
    <glyph glyph-name="uni066B" unicode="&#x66b;" horiz-adv-x="373" 
d="M291.5 809.5c20.333 -23.667 30.502 -55.832 30.502 -96.499c0 -39.333 -10.167 -82.5 -30.5 -129.5s-46.5 -90.167 -78.5 -129.5l-80 76c31.333 33.333 53.666 64.666 66.999 93.999h-1c-28.667 0 -53.5 10.833 -74.5 32.5s-31.5 47.5 -31.5 77.5
c0 32 10.833 58.5 32.5 79.5s48.167 31.5 79.5 31.5c37.333 0 66.166 -11.833 86.499 -35.5z" />
    <glyph glyph-name="uni066C" unicode="&#x66c;" horiz-adv-x="391" 
d="M-34 -244l292 505l133 -81l-289 -505z" />
    <glyph glyph-name="uni066D" unicode="&#x66d;" horiz-adv-x="602" 
d="M428 243l56 -71l-131 -97l-52 77l-51 -77l-133 97l56 72l-88 26l51 152l87 -31l-4 94h165l-4 -93l86 30l52 -152z" />
    <glyph glyph-name="uni066E" unicode="&#x66e;" horiz-adv-x="948" 
d="M858 325c2 -35.333 3.00195 -74.002 3.00195 -116.002c0 -39.333 -6.5 -72.333 -19.5 -99s-33.833 -48 -62.5 -64c-32 -17.333 -74.167 -30 -126.5 -38s-118.5 -12 -198.5 -12c-79.333 0 -145.5 6 -198.5 18s-94.667 34.333 -125 67s-45.5 79 -45.5 139
c0 14 2.33301 38 7 72l26 156l124 -25l-22 -136c-2.66699 -11.333 -4 -20.333 -4 -27c0 -15.333 7.83301 -27.166 23.5 -35.499s40.667 -14.166 75 -17.499s81.166 -5 140.499 -5c60.667 0 111.667 1.5 153 4.5s78.666 7.83301 111.999 14.5l-26 213l153 28
c5.33301 -56 9 -101.667 11 -137z" />
    <glyph glyph-name="uni066F" unicode="&#x66f;" horiz-adv-x="862" 
d="M683.5 448.5c29.667 -25 52.499 -60.8359 68.499 -107.503s24 -101.667 24 -165c0 -71.333 -0.833008 -123.166 -2.5 -155.499s-6 -59.166 -13 -80.499s-18.833 -41 -35.5 -59c-64 -66 -185.333 -99 -364 -99c-100 0 -171 18.667 -213 56s-63 91.666 -63 162.999
c0 49.333 17.333 167.333 52 354l126 -25c-26 -144 -39.333 -238.333 -40 -283c0 -24 13.5 -40 40.5 -48s60.167 -12 99.5 -12c72 0 130.333 2 175 6s81.334 10 110.001 18l2 46c-33.333 -8 -68.333 -12 -105 -12c-34.667 0 -66 4.33301 -94 13
c-10 3.33301 -18.333 8.83301 -25 16.5s-15.334 20.834 -26.001 39.501c-12 19.333 -19.667 33.5 -23 42.5s-5 19.833 -5 32.5c4 88.667 23 160.334 57 215.001s83.667 82 149 82c40.667 0 75.834 -12.5 105.501 -37.5zM642.999 213.997
c0 34 -6.99902 59.999 -20.999 77.999s-32 27 -54 27c-18 0 -32.833 -8.66699 -44.5 -26s-18.834 -43.666 -21.501 -78.999c20 -2 45.333 -3 76 -3c26 0 47.667 1 65 3z" />
    <glyph glyph-name="uni0670" unicode="&#x670;" 
d="M0 1066l92 12v-212l-89 -7z" />
    <glyph glyph-name="uni0671" unicode="&#x671;" horiz-adv-x="304" 
d="M34 762c-24 10.667 -35.998 27.668 -35.998 51.001v32c-1.33301 -2 -7 -10 -17 -24s-20 -32.333 -30 -55l-81 42c3.33301 17.333 14.5 39.5 33.5 66.5s42.667 50.167 71 69.5s58.166 27.666 89.499 24.999v-85c3.33301 -2.66699 6.66602 -4 9.99902 -4
c62 84 116.667 126 164 126c74.667 0 112 -45.333 112 -136c0 -27.333 -5.66699 -48.666 -17 -63.999c-17.333 -18.667 -42.5 -33.334 -75.5 -44.001s-69.833 -16 -110.5 -16c-51.333 0 -89 5.33301 -113 16zM267.002 873.001c-0.666992 12 -3.16602 20.167 -7.49902 24.5
s-11.833 6.5 -22.5 6.5c-12 0 -25.833 -3.83301 -41.5 -11.5s-30.834 -19.167 -45.501 -34.5c40.667 0.666992 79.667 5.66699 117 15zM216.003 0.000976562l-138 -19l-13 667l153 26z" />
    <glyph glyph-name="uni067E" unicode="&#x67e;" horiz-adv-x="948" 
d="M858 325c2 -35.333 3.00195 -74.002 3.00195 -116.002c0 -39.333 -6.5 -72.333 -19.5 -99s-33.833 -48 -62.5 -64c-32 -17.333 -74.167 -30 -126.5 -38s-118.5 -12 -198.5 -12c-79.333 0 -145.5 6 -198.5 18s-94.667 34.333 -125 67s-45.5 79 -45.5 139
c0 14 2.33301 38 7 72l26 156l124 -25l-22 -136c-2.66699 -11.333 -4 -20.333 -4 -27c0 -15.333 7.83301 -27.166 23.5 -35.499s40.667 -14.166 75 -17.499s81.166 -5 140.499 -5c60.667 0 111.667 1.5 153 4.5s78.666 7.83301 111.999 14.5l-26 213l153 28
c5.33301 -56 9 -101.667 11 -137zM558.002 -114.002l113 -94l-95 -113l-110 93l-83 -100l-112 94l95 113l110 -91zM467.002 -290.002l113 -95l-94 -112l-112 95z" />
    <glyph glyph-name="uni0686" unicode="&#x686;" horiz-adv-x="833" 
d="M709 253c-55.333 -4 -115.167 -21 -179.5 -51s-122.833 -65.833 -175.5 -107.5s-90.334 -79.834 -113.001 -114.501c-1.33301 -22.667 -2 -38.667 -2 -48c0 -42 7.33301 -75.167 22 -99.5s38 -41.833 70 -52.5s74.667 -16 128 -16h224l-42 -209h-199
c-116 0 -205.667 29.833 -269 89.5s-95 146.5 -95 260.5c0 83.333 27.167 160.833 81.5 232.5s129.833 132.834 226.5 183.501c19.333 10 36 18 50 24l-53 16c-30 8.66699 -53.833 15.167 -71.5 19.5s-32.167 6.5 -43.5 6.5c-19.333 0 -32.666 -5 -39.999 -15
s-13 -24.333 -17 -43l-121 21c22 135.333 77.667 203 167 203c24 0 48 -3.16699 72 -9.5s58.333 -16.833 103 -31.5l20 -7c62 -21.333 114.833 -37.333 158.5 -48s90.5 -16 140.5 -16zM626.999 1l-63 -75l-74 62l-55 -67l-75 63l64 75l73 -61l55 66zM490.999 -54l75 -63
l-62 -75l-75 64z" />
    <glyph glyph-name="uni0698" unicode="&#x698;" horiz-adv-x="431" 
d="M198 648l-113 94l95 112l113 -93zM109 467l-113 95l95 115l110 -93l82 98l113 -93l-94 -113l-111 92zM321 388c16 -126.667 23.999 -228.668 23.999 -306.001c0 -58 -9 -109.667 -27 -155s-50.167 -89.166 -96.5 -131.499s-111.166 -85.166 -194.499 -128.499l-108 159
c64.667 31.333 116 59 154 83s66.667 46.167 86 66.5s35 42.166 47 65.499l-43 313z" />
    <glyph glyph-name="uni06A1" unicode="&#x6a1;" horiz-adv-x="1065" 
d="M970.5 204c-5 -44 -14.1699 -80.1709 -27.5029 -108.504s-32.666 -49.833 -57.999 -64.5c-19.333 -11.333 -40.666 -19.166 -63.999 -23.499s-53.833 -7.16602 -91.5 -8.49902s-104.834 -2.33301 -201.501 -3h-74c-79.333 0 -145.5 6 -198.5 18s-94.667 34.333 -125 67
s-45.5 79 -45.5 139c0 14 2.33301 38 7 72l26 156l124 -25l-22 -136c-2.66699 -11.333 -4 -20.333 -4 -27c0 -15.333 7.83301 -27.166 23.5 -35.499s40.667 -14.166 75 -17.499s81.166 -5 140.499 -5c138 0 230.833 0.333008 278.5 1s82.834 2.66699 105.501 6l3 47
c-28 -6.66699 -60 -10 -96 -10s-67.333 4.66699 -94 14c-10 2.66699 -18.333 7.66699 -25 15s-15.667 20.666 -27 39.999c-11.333 20 -18.666 34.5 -21.999 43.5s-5 19.5 -5 31.5c4 88.667 23 160.334 57 215.001s83.667 82 149 82c40.667 0 75.834 -12.5 105.501 -37.5
s52.5 -61 68.5 -108s24 -102.167 24 -165.5c0.666992 -70.667 -1.5 -128 -6.5 -172zM778.997 411.996c26.667 0 48.334 1 65.001 3c0 34 -7 60.167 -21 78.5s-32 27.5 -54 27.5c-18 0 -32.833 -8.83301 -44.5 -26.5s-18.834 -44.167 -21.501 -79.5c20 -2 45.333 -3 76 -3z
" />
    <glyph glyph-name="uni06A9" unicode="&#x6a9;" horiz-adv-x="942" 
d="M811 381c32 -64 48 -134.003 48 -210.003c0 -43.333 -13.667 -77.666 -41 -102.999s-69.666 -43.666 -126.999 -54.999s-133.333 -17 -228 -17c-82 0 -150 5.83301 -204 17.5s-96.5 33.834 -127.5 66.501s-46.5 79.334 -46.5 140.001c0 14 2.33301 38 7 72l26 156
l124 -25l-22 -136c-2.66699 -11.333 -4 -20.333 -4 -27c0 -15.333 7.83301 -27.166 23.5 -35.499s40.667 -14.166 75 -17.499s81.166 -5 140.499 -5c109.333 0 197.666 6.33301 264.999 19c-7.33301 48.667 -33.666 98.167 -78.999 148.5s-105.333 99.166 -180 146.499
l1 154c129.333 69.333 254 124.666 374 165.999l21 -168l-223 -90c14 -6.66699 27 -15.334 39 -26.001c60 -50 106 -107 138 -171z" />
    <glyph glyph-name="uni06AF" unicode="&#x6af;" horiz-adv-x="942" 
d="M686 801l-112.001 -52c-49.333 -24 -86.666 -41.667 -111.999 -53l1 109l90 40l125 55zM810.999 381c32 -64 48 -134.003 48 -210.003c0 -43.333 -13.667 -77.666 -41 -102.999s-69.666 -43.666 -126.999 -54.999s-133.333 -17 -228 -17c-82 0 -150 5.83301 -204 17.5
s-96.5 33.834 -127.5 66.501s-46.5 79.334 -46.5 140.001c0 14 2.33301 38 7 72l26 156l124 -25l-22 -136c-2.66699 -11.333 -4 -20.333 -4 -27c0 -15.333 7.83301 -27.166 23.5 -35.499s40.667 -14.166 75 -17.499s81.166 -5 140.499 -5
c109.333 0 197.666 6.33301 264.999 19c-7.33301 48.667 -33.666 98.167 -78.999 148.5s-105.333 99.166 -180 146.499l1 154c129.333 69.333 254 124.666 374 165.999l21 -168l-223 -90c14 -6.66699 27 -15.334 39 -26.001c60 -50 106 -107 138 -171z" />
    <glyph glyph-name="uni06BA" unicode="&#x6ba;" horiz-adv-x="780" 
d="M99.5 116.5c9.66699 60.333 22.166 132.501 37.499 216.501l126 -26c-26 -142.667 -39.333 -236.667 -40 -282c0 -40.667 46.667 -61 140 -61c40.667 0 76.334 2.16699 107.001 6.5s58.667 11.5 84 21.5l-47 367l154 34c11.333 -110 20 -199.667 26 -269
s9 -128.333 9 -177c0 -45.333 -18.833 -82 -56.5 -110s-82 -48.167 -133 -60.5s-98.167 -18.5 -141.5 -18.5c-98 0 -169.167 19 -213.5 57s-66.5 92.667 -66.5 164c0 31.333 4.83301 77.166 14.5 137.499z" />
    </font>
</defs>
</svg>
