<?xml version="1.0" standalone="no"?>
<!DOCTYPE svg PUBLIC "-//W3C//DTD SVG 1.1//EN" "http://www.w3.org/Graphics/SVG/1.1/DTD/svg11.dtd" >
<svg>
<metadata>
Created by FontForge 20090914 at Sun Sep 22 22:31:55 2019
 By www-data
Copyright (c) 2018 by www.fontiran.com All rights reserved.
</metadata>
<defs>
<font id="Anjoman-Thin" horiz-adv-x="0" >
  <font-face 
    font-family="Thin"
    font-weight="100"
    font-stretch="normal"
    units-per-em="1000"
    panose-1="0 0 2 0 0 0 0 0 0 0"
    ascent="800"
    descent="-200"
    x-height="508.998"
    cap-height="702"
    bbox="-179 -461.001 1274 1323"
    underline-thickness="50"
    underline-position="-50"
    unicode-range="U+0020-U+FEFC"
  />
<missing-glyph horiz-adv-x="681" 
d="M558 -293h-431v1362h431v-1362zM229 978v-45h88v-51h-90v-45h227v45h-90v51h90v45h-225zM227 802v-142h227v47h-90v95h-137zM317 707h-45v49h45v-49zM227 624v-45h90v-51h-90v-45h137v96h90v45h-227zM409 542v-90h-182v-46h227v136h-45zM317 376v-77h47v32h45v-64h-137
v109h-45v-154h227v154h-137zM227 140v-154h227v154h-227zM409 31h-137v64h137v-64zM227 -45v-45h96l-96 -64v-45h227v45h-139l95 64h44v45h-227z" />
    <glyph glyph-name="uniFDF2" unicode="&#x627;&#xfedf;&#xfee0;&#xfeea;" horiz-adv-x="1263" arabic-form="isolated" 
d="M619 722l-3 137l25 3l1 -140h-23zM495.5 513.5c-7 14.333 -9.83594 29.1699 -8.50293 44.5029c0.666992 4 1.66699 12.333 3 25s5.33301 41.667 12 87l24 -5l-14 -108c-1.33301 -11.333 0.333984 -20.333 5.00098 -27s14.334 -10 29.001 -10
c18.667 0 33.667 0.666992 45 2s21 4.66602 29 9.99902l-1 117l26 2l1 -122c10.667 -6.66699 24.334 -10 41.001 -10c30.667 0 53 4.66699 67 14c1.33301 27.333 -3 79.666 -13 156.999l20 5c6 -33.333 9.83301 -60 11.5 -80s2.83398 -44 3.50098 -72
c-0.666992 -20.667 -10.334 -34.334 -29.001 -41.001s-38 -10 -58 -10c-15.333 0 -27 1.66699 -35 5s-16 9.33301 -24 18c-8 -6.66699 -20.167 -12.167 -36.5 -16.5s-31.5 -6.5 -45.5 -6.5c-28 0 -45.5 7.16699 -52.5 21.5zM1177 0.00390625l-31 -4l-16 664l31 8z
M978.997 593.004c0.666992 -21.333 5.00488 -97.6631 13.0049 -228.996c1.33301 -18 4.16602 -63.333 8.49902 -136s6.16602 -119 5.49902 -139c0 -10.667 -3.5 -19.667 -10.5 -27s-17.833 -15 -32.5 -23c-48.667 -26 -103.334 -39 -164.001 -39
c-38.667 0 -71 5.33301 -97 16s-45.333 25 -58 43c-11.333 -19.333 -32.5 -34 -63.5 -44s-70.167 -15 -117.5 -15c-40.667 0 -73.834 12 -99.501 36s-39.834 56.667 -42.501 98c-4 -6.66699 -10 -11.334 -18 -14.001s-18.667 -5 -32 -7c-22 -4 -48.667 -5.33301 -80 -4
c-28 1.33301 -49.333 4.16602 -64 8.49902s-25.5 12.666 -32.5 24.999s-9.83301 31.166 -8.5 56.499c2 28 13.167 56.333 33.5 85s46.666 52.167 78.999 70.5s66.166 27.166 101.499 26.499l-3 74l30 5l9 -236c1.33301 -44.667 4.33301 -79.667 9 -105
s16 -46.166 34 -62.499s46 -24.5 84 -24.5c55.333 0 95.833 4.66699 121.5 14s41.167 25.666 46.5 48.999l-21 268l31 8l19 -261c0.666992 -26 13.667 -45.5 39 -58.5s59 -19.5 101 -19.5c28.667 0 59.834 3.33301 93.501 10s62.834 18.334 87.501 35.001l-33 510z
M263.502 144.007c17.667 1.33301 33.167 4.33301 46.5 9l-8 195c-42 -0.666992 -77.5 -11 -106.5 -31s-50.5 -44.5 -64.5 -73.5s-20.333 -57.167 -19 -84.5c8 -4.66699 17.333 -8.16699 28 -10.5s28 -4.16602 52 -5.49902c30 -0.666992 53.833 -0.333984 71.5 0.999023z" />
    <glyph glyph-name="uniFEF5" unicode="&#xfedf;&#xfe82;" horiz-adv-x="408" arabic-form="isolated" 
d="M218 29.5c46.667 25.667 72.001 49.499 76.001 71.499l-16 559l31 8l13 -556c0.666992 -40 -28.333 -76 -87 -108s-130.334 -57.667 -215.001 -77l3 33c83.333 20.667 148.333 43.834 195 69.501zM147.001 610.999c-24 0.666992 -51.9961 3.00098 -83.9961 7.00098
c-28 2.66699 -45.667 4 -53 4c-12.667 0 -21.834 -1.16699 -27.501 -3.5s-9.83398 -6 -12.501 -11s-6.33398 -14.167 -11.001 -27.5l-23 4c6.66699 25.333 15.167 42.166 25.5 50.499s26.166 12.5 47.499 12.5c10 0 30.333 -2 61 -6c31.333 -4 56.333 -6.33301 75 -7l49 -2
l-7 -22zM135.505 268.5c9.66699 -73 15.168 -138.5 16.501 -196.5l-25 -10c-0.666992 53.333 -5.83398 117.5 -15.501 192.5s-24.5 145.833 -44.5 212.5l27 10c18 -66 31.833 -135.5 41.5 -208.5z" />
    <glyph glyph-name="uniFEF6" unicode="&#xfee0;&#xfe82;" horiz-adv-x="521" arabic-form="final" 
d="M527.5 28c1.66699 -2.66699 2.5 -6.00195 2.5 -10.002v-4c0 -3.33301 -0.833008 -6.5 -2.5 -9.5s-3.83398 -4.5 -6.50098 -4.5h-7c-43.333 0 -77.333 1.83301 -102 5.5s-44 10.334 -58 20.001s-24.667 24.167 -32 43.5c-18.667 -30.667 -54.5 -58.167 -107.5 -82.5
s-113.5 -44.166 -181.5 -59.499l3 33c83.333 20.667 148.333 43.834 195 69.501s72 49.5 76 71.5l-16 559l30 8h1l13 -542v-13c0 -25.333 7.16699 -43.833 21.5 -55.5s32.833 -18.834 55.5 -21.501s55 -4 97 -4h12c2.66699 0 4.83398 -1.33301 6.50098 -4zM150 610.998
c-24 0.666992 -52 3 -84 7c-28 2.66699 -46 4 -54 4c-12 0 -21 -1.16699 -27 -3.5s-10.333 -6.16602 -13 -11.499s-6.33398 -14.333 -11.001 -27l-22 4c6.66699 25.333 15 42.166 25 50.499s25.667 12.5 47 12.5c10.667 0 31.334 -2 62.001 -6
c31.333 -4 56.333 -6.33301 75 -7l49 -2l-8 -22zM107 476.998c17.333 -66.667 31 -136.5 41 -209.5s15.667 -138.167 17 -195.5l-26 -10c-0.666992 54.667 -5.66699 119.167 -15 193.5s-24 144.833 -44 211.5z" />
    <glyph glyph-name="uniFEF7" unicode="&#xfedf;&#xfe84;" horiz-adv-x="408" arabic-form="isolated" 
d="M-77 616l98.001 30.001c-12.667 25.333 -21.5 46 -26.5 62s-8.16699 33 -9.5 51c-0.666992 17.333 9.33301 31.166 30 41.499s48 15.5 82 15.5c10 0 17.333 -0.333008 22 -1l2 -23h-29c-16 0 -31.5 -2.16699 -46.5 -6.5s-26.167 -9.5 -33.5 -15.5
c0.666992 -22.667 3.66699 -43 9 -61s13.666 -35.667 24.999 -53l157 50l6 -24l-281 -90zM218.001 29.501c46.667 25.667 72.001 49.499 76.001 71.499l-16 559l31 8l13 -556c0.666992 -40 -28.333 -76 -87 -108s-130.334 -57.667 -215.001 -77l3 33
c83.333 20.667 148.333 43.834 195 69.501zM135.502 268.5c9.66699 -73 15.168 -138.5 16.501 -196.5l-25 -10c-0.666992 53.333 -5.83398 117.5 -15.501 192.5s-24.5 145.833 -44.5 212.5l27 10c18 -66 31.833 -135.5 41.5 -208.5z" />
    <glyph glyph-name="uniFEF8" unicode="&#xfee0;&#xfe84;" horiz-adv-x="508" arabic-form="final" 
d="M205 659l-279.998 -89.999l-5 24l98 31c-12.667 24.667 -21.5 45 -26.5 61s-8.16699 33 -9.5 51c-0.666992 17.333 9.16602 31.166 29.499 41.499s47.833 15.833 82.5 16.5c9.33301 0 16.666 -0.666992 21.999 -2l2 -23c-7.33301 0.666992 -17 1 -29 1
c-16.667 -0.666992 -32.5 -3 -47.5 -7s-25.833 -9.33301 -32.5 -16c0.666992 -22 3.66699 -42 9 -60s13.333 -36 24 -54l158 50zM514.502 28.001c1.66699 -2.66699 2.49805 -6.00195 2.49805 -10.002v-4c0 -3.33301 -0.833008 -6.5 -2.5 -9.5s-3.83398 -4.5 -6.50098 -4.5
h-6c-44 0 -78.167 1.83301 -102.5 5.5s-43.666 10.334 -57.999 20.001s-25.166 24.167 -32.499 43.5c-18.667 -30.667 -54.5 -58.167 -107.5 -82.5s-113.5 -44.166 -181.5 -59.499l3 33c83.333 20.667 148.333 43.834 195 69.501s72 49.5 76 71.5l-16 559l30 8h1l13 -542
v-13c0 -25.333 7.16699 -43.833 21.5 -55.5s32.833 -18.834 55.5 -21.501s55 -4 97 -4h12c2.66699 0 4.83398 -1.33301 6.50098 -4zM111.5 254.499c-9.66699 75 -24.499 145.833 -44.499 212.5l27 10c18 -66 31.833 -135.5 41.5 -208.5s15.167 -138.5 16.5 -196.5l-25 -10
c-0.666992 53.333 -5.83398 117.5 -15.501 192.5z" />
    <glyph glyph-name="uniFEF9" unicode="&#xfedf;&#xfe88;" horiz-adv-x="499" arabic-form="isolated" 
d="M232 30c46.667 26 71.667 49.667 75 71l-17 559l32 8l13 -556c0.666992 -40 -28.333 -76 -87 -108s-130.334 -57.667 -215.001 -77l2 33c84.667 20.667 150.334 44 197.001 70zM136 351c19.333 -100.667 29 -193.667 29 -279l-26 -10
c-0.666992 80 -10.167 172.333 -28.5 277s-47.833 191.334 -88.5 260.001l28 18c38 -76.667 66.667 -165.334 86 -266.001zM132 -364l99.001 29.999c-14 26 -23.5 47.167 -28.5 63.5s-7.5 33.5 -7.5 51.5c0 16.667 10 29.834 30 39.501s47 14.834 81 15.501
c10 0 17.333 -0.333008 22 -1l2 -24c-7.33301 0.666992 -17 1 -29 1c-16 0 -31.5 -2.16699 -46.5 -6.5s-26.167 -9.83301 -33.5 -16.5c0.666992 -22.667 3.66699 -42.834 9 -60.501s13.666 -35.167 24.999 -52.5l157 49l6 -24l-281 -89z" />
    <glyph glyph-name="uniFEFA" unicode="&#xfee0;&#xfe88;" horiz-adv-x="521" arabic-form="final" 
d="M527.5 28c1.66699 -2.66699 2.49707 -5.99902 2.49707 -9.99902v-4c0 -3.33301 -0.833008 -6.5 -2.5 -9.5s-3.83398 -4.5 -6.50098 -4.5h-6c-43.333 0 -77.5 1.66699 -102.5 5s-45 9.83301 -60 19.5s-25.833 23.5 -32.5 41.5c-19.333 -30 -55.166 -56.667 -107.499 -80
s-112.166 -43 -179.499 -59l2 33c84.667 20.667 150.334 44 197.001 70s71.667 49.667 75 71l-17 559l32 8l13 -555c0 -25.333 7.16699 -43.833 21.5 -55.5s32.833 -18.834 55.5 -21.501s55 -4 97 -4h12c2.66699 0 4.83398 -1.33301 6.50098 -4zM138.997 62.001
c-0.666992 80 -10.167 172.333 -28.5 277s-47.833 191.334 -88.5 260.001l28 18c38 -76.667 66.667 -165.334 86 -266.001s29 -193.667 29 -279zM437.997 -288.999l6 -25.999l-306 -98l-5 27l107 33c-14.667 28 -24.834 50.833 -30.501 68.5s-8.5 36.167 -8.5 55.5
c0 18 11 32.5 33 43.5s51.333 16.833 88 17.5c10.667 0 18.667 -0.666992 24 -2l2 -26c-8 0.666992 -18.333 1 -31 1c-17.333 0 -34.166 -2.33301 -50.499 -7s-28.5 -10.334 -36.5 -17.001c0.666992 -24 4 -45.667 10 -65s14.667 -39 26 -59z" />
    <glyph glyph-name="uniFEFB" unicode="&#xfedf;&#xfe8e;" horiz-adv-x="421" arabic-form="isolated" 
d="M232 30c46.667 26 71.667 49.667 75 71l-17 559l32 8l13 -556c0.666992 -40 -28.333 -76 -87 -108s-130.334 -57.667 -215.001 -77l2 33c84.667 20.667 150.334 44 197.001 70zM136 351c19.333 -100.667 29 -193.667 29 -279l-26 -10
c-0.666992 80 -10.167 172.333 -28.5 277s-47.833 191.334 -88.5 260.001l28 18c38 -76.667 66.667 -165.334 86 -266.001z" />
    <glyph glyph-name="uniFEFC" unicode="&#xfee0;&#xfe8e;" horiz-adv-x="521" arabic-form="final" 
d="M527.5 28c1.66699 -2.66699 2.49707 -5.99902 2.49707 -9.99902v-4c0 -3.33301 -0.833008 -6.5 -2.5 -9.5s-3.83398 -4.5 -6.50098 -4.5h-6c-43.333 0 -77.5 1.66699 -102.5 5s-45 9.83301 -60 19.5s-25.833 23.5 -32.5 41.5c-19.333 -30 -55.166 -56.667 -107.499 -80
s-112.166 -43 -179.499 -59l2 33c84.667 20.667 150.334 44 197.001 70s71.667 49.667 75 71l-17 559l32 8l13 -555c0 -25.333 7.16699 -43.833 21.5 -55.5s32.833 -18.834 55.5 -21.501s55 -4 97 -4h12c2.66699 0 4.83398 -1.33301 6.50098 -4zM138.997 62.001
c-0.666992 80 -10.167 172.333 -28.5 277s-47.833 191.334 -88.5 260.001l28 18c38 -76.667 66.667 -165.334 86 -266.001s29 -193.667 29 -279z" />
    <glyph glyph-name="uni06440671" unicode="&#xfedf;&#xfb51;" horiz-adv-x="405" 
d="M-36 586c-19.333 5.33301 -28.998 16.998 -28.998 34.998v56c-16.667 -7.33301 -31.334 -17.833 -44.001 -31.5s-25 -30.167 -37 -49.5l-18 12c-0.666992 4.66699 5.16602 15.5 17.499 32.5s28 32.167 47 45.5s39.167 19 60.5 17v-84
c-0.666992 -2.66699 1.5 -4.66699 6.5 -6s10.5 -2 16.5 -2c22.667 33.333 46.667 62.833 72 88.5s52.333 38.834 81 39.501c48.667 0 73 -29 73 -87c0 -9.33301 -0.5 -16.666 -1.5 -21.999s-3.5 -10 -7.5 -14c-11.333 -12.667 -31.833 -22.167 -61.5 -28.5
s-60.834 -9.5 -93.501 -9.5c-35.333 0 -62.666 2.66699 -81.999 8zM59.002 602.998c43.333 0 85.333 7.99902 126 23.999c1.33301 28.667 -1.83398 50.334 -9.50098 65.001s-22.167 22 -43.5 22c-17.333 0 -34.166 -8 -50.499 -24s-40.5 -44 -72.5 -84
c18 -2 34.667 -3 50 -3zM214.002 29.4971c46.667 25.667 72.001 49.499 76.001 71.499l-16 559l32 8l13 -556c0.666992 -40 -28.333 -76 -87 -108s-130.334 -57.667 -215.001 -77l2 33c83.333 20.667 148.333 43.834 195 69.501zM132.003 269.996
c10 -72.667 15.668 -138.667 17.001 -198l-26 -10c-0.666992 54.667 -5.83398 119.167 -15.501 193.5s-24.5 144.833 -44.5 211.5l27 10c18 -65.333 32 -134.333 42 -207z" />
    <glyph glyph-name="uni06440671.fina" unicode="&#xfee0;&#xfb51;" horiz-adv-x="508" 
d="M141 587c-30 -6.66699 -60.999 -10.001 -92.999 -10.001c-35.333 0 -62.666 2.66699 -81.999 8s-29 17 -29 35v56c-16.667 -7.33301 -31.334 -17.833 -44.001 -31.5s-25 -30.167 -37 -49.5l-18 12c-0.666992 4.66699 5.16602 15.5 17.499 32.5s28 32.167 47 45.5
s39.167 19 60.5 17v-84c-0.666992 -2.66699 1.5 -4.66699 6.5 -6s10.5 -2 16.5 -2c22.667 33.333 46.667 62.833 72 88.5s52.333 38.834 81 39.501c24 0 42.167 -7.5 54.5 -22.5s18.5 -36.5 18.5 -64.5c0 -8.66699 -0.5 -15.667 -1.5 -21s-3.5 -10.333 -7.5 -15
c-11.333 -12 -32 -21.333 -62 -28zM83.501 688.999c-16.333 -16 -40.5029 -44.001 -72.5029 -84.001c16.667 -2 32.667 -3 48 -3c41.333 0 84 8 128 24c0.666992 28.667 -2.66602 50.334 -9.99902 65.001s-21.666 22 -42.999 22c-17.333 0 -34.166 -8 -50.499 -24z
M514.498 27.998c1.66699 -2.66699 2.49805 -6.00195 2.49805 -10.002v-4c0 -3.33301 -0.833008 -6.5 -2.5 -9.5s-3.83398 -4.5 -6.50098 -4.5h-6c-44 0 -78.167 1.83301 -102.5 5.5s-43.666 10.334 -57.999 20.001s-25.166 24.167 -32.499 43.5
c-18.667 -30.667 -54.5 -58.167 -107.5 -82.5s-113.5 -44.166 -181.5 -59.499l3 33c83.333 20.667 148.333 43.834 195 69.501s72 49.5 76 71.5l-16 559l30 8h1l13 -542v-13c0 -25.333 7.16699 -43.833 21.5 -55.5s32.833 -18.834 55.5 -21.501s55 -4 97 -4h12
c2.66699 0 4.83398 -1.33301 6.50098 -4zM111.496 254.496c-9.66699 75 -24.499 145.833 -44.499 212.5l27 10c18 -66 31.833 -135.5 41.5 -208.5s15.167 -138.5 16.5 -196.5l-25 -10c-0.666992 53.333 -5.83398 117.5 -15.501 192.5z" />
    <glyph glyph-name="uni066E.init" unicode="&#x66e;" horiz-adv-x="315" 
d="M225 231c2 -52.667 3 -100.666 3 -143.999c0 -20 -14 -36.667 -42 -50c-46 -24.667 -108 -37 -186 -37c-2.66699 0 -5 1.5 -7 4.5s-3 6.16699 -3 9.5v4c0 4 1 7.33301 3 10s4.33301 4 7 4c43.333 0 82 3.16699 116 9.5s63.333 18.166 88 35.499l-12 236l31 10
c1.33301 -44 2 -74.667 2 -92z" />
    <glyph glyph-name="uni066E.medi" unicode="&#x66e;" horiz-adv-x="312" 
d="M318.5 28c1.66699 -2.66699 2.49902 -6 2.49902 -10v-4c0 -3.33301 -0.833008 -6.5 -2.5 -9.5s-3.83398 -4.5 -6.50098 -4.5c-44.667 0 -79.667 4.5 -105 13.5s-41.666 21.167 -48.999 36.5c-8.66699 -14.667 -28.167 -26.667 -58.5 -36s-63.5 -14 -99.5 -14
c-2.66699 0 -5 1.5 -7 4.5s-3 6.16699 -3 9.5v4c0 4 1 7.33301 3 10s4.33301 4 7 4c36.667 0 65.167 3 85.5 9s39.5 15.667 57.5 29l-14 215l29 1l16 -212c26 -28 72 -42 138 -42c2.66699 0 4.83398 -1.33301 6.50098 -4z" />
    <glyph glyph-name="uni066E.fina" unicode="&#x66e;" horiz-adv-x="882" 
d="M889.5 28c1.66699 -2.66699 2.49805 -6 2.49805 -10v-4c0 -3.33301 -0.833008 -6.5 -2.5 -9.5s-3.83398 -4.5 -6.50098 -4.5c-92 -0 -146.333 17.333 -163 52c-4 -4 -7.33301 -6.66699 -10 -8c-14.667 -9.33301 -40 -18 -76 -26c-32 -8 -70.167 -14 -114.5 -18
s-88.166 -6 -131.499 -6c-99.333 0 -174.5 10.667 -225.5 32s-76.5 61.666 -76.5 120.999c0 14 1.33301 27.333 4 40l26 156l27 -5l-25 -154c-2 -14 -3 -25.667 -3 -35c0 -49.333 24.833 -82.166 74.5 -98.499s115.834 -24.5 198.501 -24.5
c64.667 0 127.334 4.16699 188.001 12.5s104.667 19.5 132 33.5l-15 207l31 2l15 -208c13.333 -16 31.666 -26.833 54.999 -32.5s53 -8.5 89 -8.5c2.66699 0 4.83398 -1.33301 6.50098 -4z" />
    <glyph glyph-name="uni066F.fina" unicode="&#x66f;" horiz-adv-x="716" 
d="M722.5 28c1.66699 -2.66699 2.50098 -6.00195 2.50098 -10.002v-4c0 -3.33301 -0.833008 -6.5 -2.5 -9.5s-3.83398 -4.5 -6.50098 -4.5h-85c0.666992 -16 1 -36.333 1 -61c0 -26 -1.66699 -42.667 -5 -50c-15.333 -32 -55 -56 -119 -72s-130.667 -24 -200 -24
c-96 0 -156.333 18 -181 54s-37 67.667 -37 95c0 16 4.16699 55.167 12.5 117.5s17.166 120.5 26.499 174.5l28 -6c-7.33301 -41.333 -14.333 -86.666 -21 -135.999s-12 -91.333 -16 -126c-0.666992 -4 -1 -9.66699 -1 -17c0 -81.333 63 -122 189 -122
c63.333 0 121.333 5 174 15s93.334 27 122.001 51l-1 111c-44 -4 -86 -6 -126 -6c-30.667 0 -52 1 -64 3c-10.667 1.33301 -18.334 3.33301 -23.001 6s-10.334 8.33398 -17.001 17.001c-5.33301 6.66699 -8.66602 13.167 -9.99902 19.5s-2 15.5 -2 27.5
c0 24 4.16699 53 12.5 87s22.5 64.333 42.5 91s46.667 40 80 40c56 0 92 -24.667 108 -74s24.667 -103.333 26 -162v-21h86c2.66699 0 4.83398 -1.33301 6.50098 -4zM601.001 41.998c0 72 -8.5 125.333 -25.5 160s-43.5 52 -79.5 52c-34.667 0 -61.167 -20 -79.5 -60
s-27.5 -90.667 -27.5 -152c12 -6 39 -9 81 -9c64 0 107.667 3 131 9z" />
    <glyph glyph-name="uni06A1.init" unicode="&#x6a1;" horiz-adv-x="427" 
d="M335.5 91c-2.33301 -20 -7.00195 -34.166 -14.002 -42.499s-18.833 -16.833 -35.5 -25.5c-19.333 -10 -45.166 -16.333 -77.499 -19s-73.833 -4 -124.5 -4h-38h-46c-2.66699 0 -5 1.5 -7 4.5s-3 6.16699 -3 9.5v4c0 4 1 7.33301 3 10s4.33301 4 7 4
c91.333 0 158.333 1.83301 201 5.5s77 12.5 103 26.5c2 11.333 3.5 25.333 4.5 42s1.83301 28 2.5 34c-5.33301 0 -13.333 -0.666992 -24 -2c-41.333 -2.66699 -75.333 -4 -102 -4c-30.667 0 -51.667 1 -63 3s-19.333 4.33301 -24 7s-10 8 -16 16
c-5.33301 7.33301 -8.66602 14 -9.99902 20s-2 14.667 -2 26c0 25.333 4.16699 54.833 12.5 88.5s22.666 63.667 42.999 90s47.5 39.5 81.5 39.5c54.667 0 90.167 -24.833 106.5 -74.5s24.5 -102.834 24.5 -159.501c0.666992 -46 -0.166016 -79 -2.49902 -99z
M309.998 178.001c0 72.667 -8.66797 126.332 -26.001 160.999s-44 52 -80 52c-34 0 -60.333 -20.167 -79 -60.5s-27.667 -91.166 -27 -152.499c11.333 -5.33301 38.333 -8 81 -8c62.667 0 106.334 2.66699 131.001 8z" />
    <glyph glyph-name="uni06A1.medi" unicode="&#x6a1;" horiz-adv-x="415" 
d="M421.5 28c1.66699 -2.66699 2.49805 -6.00195 2.49805 -10.002v-4c0 -3.33301 -0.833008 -6.5 -2.5 -9.5s-3.83398 -4.5 -6.50098 -4.5h-37c-40 0 -71.5 2.33301 -94.5 7s-41.833 11.334 -56.5 20.001c-17.333 -6.66699 -42 -12.834 -74 -18.501s-72.667 -8.5 -122 -8.5
h-31c-2.66699 0 -5 1.5 -7 4.5s-3 6.16699 -3 9.5v4c0 4 1 7.33301 3 10s4.33301 4 7 4h97c38.667 0 71.334 4.66699 98.001 14c-28 15.333 -54.5 36.333 -79.5 63s-37.5 51 -37.5 73c0 13.333 7.5 34 22.5 62s34 52.833 57 74.5s46.833 32.5 71.5 32.5
c23.333 0 44.5 -8.83301 63.5 -26.5s34 -42 45 -73s16.5 -66.167 16.5 -105.5c0 -13.333 -3.66699 -25.166 -11 -35.499s-17.166 -19.666 -29.499 -27.999s-32.5 -20.833 -60.5 -37.5c19.333 -8.66699 38 -13 56 -13h106c2.66699 0 4.83398 -1.33301 6.50098 -4z
M138.998 123.998c21.333 -19.333 50.667 -40.665 88 -63.998l98 67c0.666992 28.667 -2.5 57.667 -9.5 87s-17.833 53.833 -32.5 73.5s-32.667 29.5 -54 29.5c-17.333 0 -35.5 -8.33301 -54.5 -25s-35 -35.834 -48 -57.501s-19.5 -37.834 -19.5 -48.501
c0 -22 10.667 -42.667 32 -62z" />
    <glyph glyph-name="uni06A1.fina" unicode="&#x6a1;" horiz-adv-x="931" 
d="M937.5 28c1.66699 -2.66699 2.49902 -6.00098 2.49902 -10.001v-4c0 -3.33301 -0.833008 -6.5 -2.5 -9.5s-3.83398 -4.5 -6.50098 -4.5h-38c-42.667 0 -75.5 2.66699 -98.5 8s-42.167 12.666 -57.5 21.999c-14 -6 -27.667 -11 -41 -15
c-36.667 -9.33301 -80.5 -15.166 -131.5 -17.499s-109.833 -3.5 -176.5 -3.5c-99.333 0 -174.5 10.667 -225.5 32s-76.5 61.666 -76.5 120.999c0 14 1.33301 27.333 4 40l26 156l27 -5l-25 -154c-2 -14 -3 -25.667 -3 -35c0 -49.333 24.833 -82.166 74.5 -98.499
s115.834 -24.5 198.501 -24.5c94 0 162 1.16699 204 3.5s80.333 8.16602 115 17.499c-28 16.667 -54.167 38 -78.5 64s-36.5 49.667 -36.5 71c0 13.333 7.66699 34 23 62s34.666 52.833 57.999 74.5s47 32.5 71 32.5c23.333 0 44.5 -8.83301 63.5 -26.5s34 -42 45 -73
s16.5 -66.167 16.5 -105.5c0 -13.333 -3.66699 -25.166 -11 -35.499s-17.166 -19.666 -29.499 -27.999s-32.5 -20.833 -60.5 -37.5c20 -8.66699 38.333 -13 55 -13h108c2.66699 0 4.83398 -1.33301 6.50098 -4zM654.999 123.999
c21.333 -19.333 50.334 -40.665 87.001 -63.998l97 67c1.33301 28.667 -1.5 57.667 -8.5 87s-17.833 53.833 -32.5 73.5s-32.667 29.5 -54 29.5c-18 0 -36.333 -8.33301 -55 -25s-34.334 -35.834 -47.001 -57.501s-19 -37.834 -19 -48.501c0 -22 10.667 -42.667 32 -62z" />
    <glyph glyph-name="uniFB51" unicode="&#x671;" horiz-adv-x="295" arabic-form="final" 
d="M323 656c0 -10 -0.499023 -17.5 -1.49902 -22.5s-3.16699 -9.83301 -6.5 -14.5c-11.333 -12 -32 -21.167 -62 -27.5s-61 -9.5 -93 -9.5c-36 0 -63.5 2.66699 -82.5 8s-28.5 16.666 -28.5 33.999v57c-16.667 -7.33301 -31.334 -17.833 -44.001 -31.5
s-25 -30.167 -37 -49.5l-19 12c0 4.66699 6.16699 15.5 18.5 32.5s27.833 32.167 46.5 45.5s38.667 19 60 17v-84c0 -3.33301 2.5 -5.66602 7.5 -6.99902s10.167 -2 15.5 -2c56 85.333 107.333 128.333 154 129c48 0 72 -29 72 -87zM288.501 696
c-7.66699 14.667 -22.166 21.999 -43.499 21.999c-17.333 0 -34.333 -8 -51 -24s-40.334 -44 -71.001 -84c17.333 -2 34 -3 50 -3c43.333 0 85.333 8 126 24c0.666992 28.667 -2.83301 50.334 -10.5 65.001zM302.502 27.999c1.66699 -2.66699 2.5 -6 2.5 -10v-4
c0 -3.33301 -0.833008 -6.5 -2.5 -9.5s-3.83398 -4.5 -6.50098 -4.5h-2c-65.333 0 -112.5 12.667 -141.5 38s-44.167 62 -45.5 110l-19 371l31 7l17 -378c2 -44 16 -74.333 42 -91s66 -25 120 -25h-2c2.66699 0 4.83398 -1.33301 6.50098 -4z" />
    <glyph glyph-name="uniFB57" unicode="&#x67e;" horiz-adv-x="882" arabic-form="final" 
d="M889.5 28c1.66699 -2.66699 2.49805 -6 2.49805 -10v-4c0 -3.33301 -0.833008 -6.5 -2.5 -9.5s-3.83398 -4.5 -6.50098 -4.5c-92 -0 -146.333 17.333 -163 52c-4 -4 -7.33301 -6.66699 -10 -8c-14.667 -9.33301 -40 -18 -76 -26c-32 -8 -70.167 -14 -114.5 -18
s-88.166 -6 -131.499 -6c-99.333 0 -174.5 10.667 -225.5 32s-76.5 61.666 -76.5 120.999c0 14 1.33301 27.333 4 40l26 156l27 -5l-25 -154c-2 -14 -3 -25.667 -3 -35c0 -49.333 24.833 -82.166 74.5 -98.499s115.834 -24.5 198.501 -24.5
c64.667 0 127.334 4.16699 188.001 12.5s104.667 19.5 132 33.5l-15 207l31 2l15 -208c13.333 -16 31.666 -26.833 54.999 -32.5s53 -8.5 89 -8.5c2.66699 0 4.83398 -1.33301 6.50098 -4zM378.998 -150l-33 -37l-39 33l32 38zM439.998 -119l39 -33l-31 -38l-39 31z
M386.998 -227l39 -32l-34 -38l-37 30z" />
    <glyph glyph-name="uniFB58" unicode="&#x67e;" horiz-adv-x="315" arabic-form="initial" 
d="M225 231c2 -52.667 3 -100.666 3 -143.999c0 -20 -14 -36.667 -42 -50c-46 -24.667 -108 -37 -186 -37c-2.66699 0 -5 1.5 -7 4.5s-3 6.16699 -3 9.5v4c0 4 1 7.33301 3 10s4.33301 4 7 4c43.333 0 82 3.16699 116 9.5s63.333 18.166 88 35.499l-12 236l31 10
c1.33301 -44 2 -74.667 2 -92zM54 -133.999l-33 -36l-39 32l32 38zM115 -102.999l39 -33l-31 -38l-39 32zM62 -209.999l39 -33l-34 -38l-37 30z" />
    <glyph glyph-name="uniFB59" unicode="&#x67e;" horiz-adv-x="312" arabic-form="medial" 
d="M318.5 28c1.66699 -2.66699 2.49902 -6 2.49902 -10v-4c0 -3.33301 -0.833008 -6.5 -2.5 -9.5s-3.83398 -4.5 -6.50098 -4.5c-44.667 0 -79.667 4.5 -105 13.5s-41.666 21.167 -48.999 36.5c-8.66699 -14.667 -28.167 -26.667 -58.5 -36s-63.5 -14 -99.5 -14
c-2.66699 0 -5 1.5 -7 4.5s-3 6.16699 -3 9.5v4c0 4 1 7.33301 3 10s4.33301 4 7 4c36.667 0 65.167 3 85.5 9s39.5 15.667 57.5 29l-14 215l29 1l16 -212c26 -28 72 -42 138 -42c2.66699 0 4.83398 -1.33301 6.50098 -4zM136.999 -155l-33 -37l-39 33l32 38zM197.999 -125
l39 -33l-32 -38l-39 32zM144.999 -232l39 -33l-34 -38l-37 31z" />
    <glyph glyph-name="uniFB7B" unicode="&#x686;" horiz-adv-x="641" arabic-form="final" 
d="M647.5 28c1.66699 -2.66699 2.5 -6.00098 2.5 -10.001v-4c0 -3.33301 -0.833008 -6.5 -2.5 -9.5s-3.83398 -4.5 -6.50098 -4.5h-23c-49.333 0 -87.833 6.66699 -115.5 20s-49.167 35.5 -64.5 66.5s-29 76.167 -41 135.5c-66 -29.333 -123.333 -63.833 -172 -103.5
s-81 -82.167 -97 -127.5c-7.33301 -26.667 -11 -58.667 -11 -96c0 -149.333 95.333 -224 286 -224h146l-1 -31h-144c-96.667 0 -168.5 16.167 -215.5 48.5s-75.833 66.833 -86.5 103.5s-16 74.334 -16 113.001c0 84.667 34.667 158.667 104 222s162.666 116 279.999 158
c11.333 4 29 8.66699 53 14c-28.667 2 -58.167 7.33301 -88.5 16s-72.833 22 -127.5 40c-2.66699 1.33301 -9 3.66602 -19 6.99902c-53.333 17.333 -91.333 26 -114 26c-14 0 -25.833 -6.16699 -35.5 -18.5s-18.167 -31.166 -25.5 -56.499l-23 6
c19.333 67.333 48.333 101 87 101c20.667 0 66.334 -11 137.001 -33c59.333 -20 109.833 -35.5 151.5 -46.5s80.834 -16.5 117.501 -16.5c7.33301 0 17 0.666992 29 2l-1 -37c-58 -8.66699 -120.667 -27 -188 -55c11.333 -59.333 24.166 -103 38.499 -131
s33.5 -46.833 57.5 -56.5s58.333 -14.5 103 -14.5h19c2.66699 0 4.83398 -1.33301 6.50098 -4zM293 -18.001l44 -37l-36 -40l-43 36zM409 -99.001l-43 35l35 43l43 -36zM350 -211.001l-40 33l35 44l42 -36z" />
    <glyph glyph-name="uniFB7C" unicode="&#x686;" horiz-adv-x="651" arabic-form="initial" 
d="M561 213l-4.00098 -31.999c-12 1.33301 -20.667 2 -26 2c-25.333 0 -51.333 -5 -78 -15s-55.667 -24.333 -87 -43c-47.333 -29.333 -86.166 -52.166 -116.499 -68.499s-63.5 -29.833 -99.5 -40.5s-74.667 -16 -116 -16h-34c-2.66699 0 -5 1.5 -7 4.5s-3 6.16699 -3 9.5v4
c0 4 1 7.33301 3 10s4.33301 4 7 4h43c42 0 83.333 7.5 124 22.5s90 39.5 148 73.5c36.667 22.667 67.334 40.667 92.001 54c15.333 8.66699 32.666 14.667 51.999 18l-20 7c-46.667 14 -93.667 30.333 -141 49c-68 28.667 -113 43 -135 43
c-16 -0.666992 -29.333 -9.33398 -40 -26.001s-18 -34.334 -22 -53.001l-23 4c9.33301 38.667 20.5 66.5 33.5 83.5s33.167 25.5 60.5 25.5c19.333 0 66.333 -15.667 141 -47c112 -48.667 194.667 -73 248 -73zM218.999 -158.999l-32 -37l-40 33l32 38zM280.999 -128.999
l39 -33l-32 -38l-39 32zM227.999 -235.999l39 -33l-34 -38l-37 31z" />
    <glyph glyph-name="uniFB7D" unicode="&#x686;" horiz-adv-x="603" arabic-form="medial" 
d="M609.5 28c1.66699 -2.66699 2.49707 -5.99512 2.49707 -9.99512v-4c0 -3.33301 -0.833008 -6.5 -2.5 -9.5s-3.83398 -4.5 -6.50098 -4.5h-73c-38.667 0 -66.667 6 -84 18s-28 25.667 -32 41s-8.66699 43.333 -14 84c-11.333 -5.33301 -24.666 -12.666 -39.999 -21.999
c-46 -28 -84 -50 -114 -66s-62.667 -29.167 -98 -39.5s-73 -15.5 -113 -15.5h-35c-2.66699 0 -5 1.5 -7 4.5s-3 6.16699 -3 9.5v4c0 4 1 7.33301 3 10s4.33301 4 7 4h43c42 0 83.5 7.5 124.5 22.5s90.167 39.5 147.5 73.5c11.333 7.33301 34 20.666 68 39.999l24 14
c16.667 8 34.334 13.667 53.001 17c-10.667 3.33301 -17.667 5.66602 -21 6.99902c-44 13.333 -90.667 29.666 -140 48.999c-28.667 12.667 -55.5 23.167 -80.5 31.5s-43.5 12.5 -55.5 12.5c-16 -0.666992 -29.333 -9.33398 -40 -26.001s-18 -34.334 -22 -53.001l-23 4
c9.33301 38.667 20.5 66.5 33.5 83.5s33.167 25.5 60.5 25.5c12 0 28.833 -3.83301 50.5 -11.5s52.5 -19.834 92.5 -36.501c112 -48.667 194 -73 246 -73l-5 -33c-10.667 1.33301 -19.334 2 -26.001 2c-30 0 -63.667 -8 -101 -24c0.666992 -6 2.33398 -23.833 5.00098 -53.5
s10.834 -49 24.501 -58s34.167 -13.5 61.5 -13.5h83c2.66699 0 4.83398 -1.33301 6.50098 -4zM218.997 -158.995l-32 -37l-40 33l32 38zM280.997 -128.995l39 -33l-32 -38l-39 32zM227.997 -235.995l39 -33l-34 -38l-37 31z" />
    <glyph glyph-name="uniFB8B" unicode="&#x698;" horiz-adv-x="418" arabic-form="final" 
d="M162 504l-39 33l32 39l39 -33zM106 399l-38 32l32 39l39 -34zM170 427l32 39l39 -34l-34 -38zM424.5 28c1.66699 -2.66699 2.49902 -6.00293 2.49902 -10.0029v-4c0 -3.33301 -0.833008 -6.5 -2.5 -9.5s-3.83398 -4.5 -6.50098 -4.5h-74
c-55.333 0 -93.666 12 -114.999 36c0.666992 -7.33301 1 -16.666 1 -27.999c0 -45.333 -24 -90 -72 -134s-113.667 -84 -197 -120l-13 29c70 29.333 127.167 62.833 171.5 100.5s72.166 74.167 83.499 109.5l-29 266l33 11l11 -118
c0.666992 -9.33301 1.33398 -17.666 2.00098 -24.999s1.33398 -13.666 2.00098 -18.999c5.33301 -32.667 18.666 -53.5 39.999 -62.5s47 -13.5 77 -13.5h79c2.66699 0 4.83398 -1.33301 6.50098 -4z" />
    <glyph glyph-name="uniFB8F" unicode="&#x6a9;" horiz-adv-x="922" arabic-form="final" 
d="M928.5 28c1.66699 -2.66699 2.49902 -6.00195 2.49902 -10.002v-4c0 -3.33301 -0.833008 -6.5 -2.5 -9.5s-3.83398 -4.5 -6.50098 -4.5h-78c-30 0 -53.333 3.83301 -70 11.5s-27.667 22.5 -33 44.5c-17.333 -18.667 -56 -33.5 -116 -44.5s-139 -16.833 -237 -17.5
c-99.333 0 -174.5 10.667 -225.5 32s-76.5 61.666 -76.5 120.999c0 14 1.33301 27.333 4 40l26 156l27 -5l-25 -154c-2 -14 -3 -25.667 -3 -35c0 -49.333 24.833 -82.166 74.5 -98.499s115.834 -24.5 198.501 -24.5c76 0 144.667 4 206 12s104.333 19 129 33
c0 58.667 -9 110.834 -27 156.501s-44.333 87.5 -79 125.5s-80 78 -136 120v3l-2 -1l2 4v32c90 51.333 193 98 309 140l1 -32c-93.333 -33.333 -187.333 -75.666 -282 -126.999l5 -4c85.333 -68 144.666 -130.167 177.999 -186.5s52.333 -113.833 57 -172.5l1 4
c2 -31.333 6.83301 -54.333 14.5 -69s17.334 -23.667 29.001 -27s28.167 -5 49.5 -5h79c2.66699 0 4.83398 -1.33301 6.50098 -4z" />
    <glyph glyph-name="uniFB90" unicode="&#x6a9;" horiz-adv-x="416" arabic-form="initial" 
d="M206 337.5c34.667 -47 57.3359 -90.334 68.0029 -130.001s16 -82.5 16 -128.5c0 -24.667 -27 -44 -81 -58s-123.667 -21 -209 -21c-2.66699 0 -5 1.5 -7 4.5s-3 6.16699 -3 9.5v4c0 4 1 7.33301 3 10s4.33301 4 7 4c46 0 95.167 3.33301 147.5 10
s90.166 16.334 113.499 29.001c0.666992 58.667 -8 110.667 -26 156s-44.333 87 -79 125s-80.334 78.333 -137.001 121v3l-0.5 -0.5l-0.5 -0.5l1 3v33c91.333 51.333 194.666 98 309.999 140l1 -32c-95.333 -34 -189 -76.333 -281 -127l3 -2
c68 -54.667 119.333 -105.5 154 -152.5z" />
    <glyph glyph-name="uniFB91" unicode="&#x6a9;" horiz-adv-x="460" arabic-form="medial" 
d="M466.5 28c1.66699 -2.66699 2.50098 -6 2.50098 -10v-4c0 -3.33301 -0.833008 -6.5 -2.5 -9.5s-3.83398 -4.5 -6.50098 -4.5h-78c-29.333 0 -52.5 3.66699 -69.5 11s-28.167 21.666 -33.5 42.999c-17.333 -16.667 -51 -29.834 -101 -39.501s-109.333 -14.5 -178 -14.5
c-2.66699 0 -5 1.5 -7 4.5s-3 6.16699 -3 9.5v4c0 4 1 7.33301 3 10s4.33301 4 7 4c46 0 95.167 3.33301 147.5 10s90.166 16.334 113.499 29.001c0.666992 58.667 -8 110.667 -26 156s-44.333 87 -79 125s-80.334 78.333 -137.001 121v3l-0.5 -0.5l-0.5 -0.5l1 3v33
c91.333 51.333 194.666 98 309.999 140l1 -32c-95.333 -34 -189 -76.333 -281 -127l3 -2c84.667 -68 143.834 -130.167 177.501 -186.5s53.167 -113.166 58.5 -170.499c2 -31.333 6.83301 -54.333 14.5 -69s17.334 -23.667 29.001 -27s28.5 -5 50.5 -5h78
c2.66699 0 4.83398 -1.33301 6.50098 -4z" />
    <glyph glyph-name="uniFB93" unicode="&#x6af;" horiz-adv-x="921" arabic-form="final" 
d="M673 667c-64 -25.333 -127.333 -56.333 -190 -93l1 34c61.333 36 123 66 185 90zM928.5 28c1.66699 -2.66699 2.49902 -6.00195 2.49902 -10.002v-4c0 -3.33301 -0.833008 -6.5 -2.5 -9.5s-3.83398 -4.5 -6.50098 -4.5h-78c-30 0 -53.333 3.83301 -70 11.5
s-27.667 22.5 -33 44.5c-17.333 -18.667 -56 -33.5 -116 -44.5s-139 -16.833 -237 -17.5c-99.333 0 -174.5 10.667 -225.5 32s-76.5 61.666 -76.5 120.999c0 14 1.33301 27.333 4 40l26 156l27 -5l-25 -154c-2 -14 -3 -25.667 -3 -35c0 -49.333 24.833 -82.166 74.5 -98.499
s115.834 -24.5 198.501 -24.5c76 0 144.667 4 206 12s104.333 19 129 33c0 58.667 -9 110.834 -27 156.501s-44.333 87.5 -79 125.5s-80 78 -136 120v3l-2 -1l2 4v32c90 51.333 193 98 309 140l1 -32c-93.333 -33.333 -187.333 -75.666 -282 -126.999l5 -4
c85.333 -68 144.666 -130.167 177.999 -186.5s52.333 -113.833 57 -172.5l1 4c2 -31.333 6.83301 -54.333 14.5 -69s17.334 -23.667 29.001 -27s28.167 -5 49.5 -5h79c2.66699 0 4.83398 -1.33301 6.50098 -4z" />
    <glyph glyph-name="uniFB94" unicode="&#x6af;" horiz-adv-x="416" arabic-form="initial" 
d="M210 667c-66 -26 -129.667 -57 -191 -93l2 34c60.667 35.333 122 65.333 184 90zM206 337.5c34.667 -47 57.3359 -90.334 68.0029 -130.001s16 -82.5 16 -128.5c0 -24.667 -27 -44 -81 -58s-123.667 -21 -209 -21c-2.66699 0 -5 1.5 -7 4.5s-3 6.16699 -3 9.5v4
c0 4 1 7.33301 3 10s4.33301 4 7 4c46 0 95.167 3.33301 147.5 10s90.166 16.334 113.499 29.001c0.666992 58.667 -8 110.667 -26 156s-44.333 87 -79 125s-80.334 78.333 -137.001 121v3l-0.5 -0.5l-0.5 -0.5l1 3v33c91.333 51.333 194.666 98 309.999 140l1 -32
c-95.333 -34 -189 -76.333 -281 -127l3 -2c68 -54.667 119.333 -105.5 154 -152.5z" />
    <glyph glyph-name="uniFB95" unicode="&#x6af;" horiz-adv-x="460" arabic-form="medial" 
d="M210 667c-66 -26 -129.667 -57 -191 -93l2 34c60.667 35.333 122 65.333 184 90zM466.5 28c1.66699 -2.66699 2.50098 -6 2.50098 -10v-4c0 -3.33301 -0.833008 -6.5 -2.5 -9.5s-3.83398 -4.5 -6.50098 -4.5h-78c-29.333 0 -52.5 3.66699 -69.5 11
s-28.167 21.666 -33.5 42.999c-17.333 -16.667 -51 -29.834 -101 -39.501s-109.333 -14.5 -178 -14.5c-2.66699 0 -5 1.5 -7 4.5s-3 6.16699 -3 9.5v4c0 4 1 7.33301 3 10s4.33301 4 7 4c46 0 95.167 3.33301 147.5 10s90.166 16.334 113.499 29.001
c0.666992 58.667 -8 110.667 -26 156s-44.333 87 -79 125s-80.334 78.333 -137.001 121v3l-0.5 -0.5l-0.5 -0.5l1 3v33c91.333 51.333 194.666 98 309.999 140l1 -32c-95.333 -34 -189 -76.333 -281 -127l3 -2c84.667 -68 143.834 -130.167 177.501 -186.5
s53.167 -113.166 58.5 -170.499c2 -31.333 6.83301 -54.333 14.5 -69s17.334 -23.667 29.001 -27s28.5 -5 50.5 -5h78c2.66699 0 4.83398 -1.33301 6.50098 -4z" />
    <glyph glyph-name="uniFB9F" unicode="&#x6ba;" horiz-adv-x="775" arabic-form="final" 
d="M781.5 28c1.66699 -2.66699 2.5 -6.00195 2.5 -10.002v-4c0 -3.33301 -0.833008 -6.5 -2.5 -9.5s-3.83398 -4.5 -6.50098 -4.5h-34c-39.333 0 -72 3.5 -98 10.5s-44 19.833 -54 38.5l10 -140c1.33301 -20 -9.16699 -39 -31.5 -57s-55.833 -32.5 -100.5 -43.5
s-97.667 -16.5 -159 -16.5c-96 0.666992 -156.333 18.834 -181 54.501s-37 67.167 -37 94.5c0 16 4.16699 55.167 12.5 117.5s17.166 120.5 26.499 174.5l28 -6c-7.33301 -41.333 -14.333 -86.666 -21 -135.999s-12 -91.333 -16 -126c-0.666992 -4 -1 -9.66699 -1 -17
c0 -81.333 63 -122 189 -122c60.667 0 112.334 4.83301 155.001 14.5s78.667 26.5 108 50.5l-32 392l32 9l15 -177c2.66699 -33.333 17.167 -55.5 43.5 -66.5s61.5 -16.5 105.5 -16.5h40c2.66699 0 4.83398 -1.33301 6.50098 -4z" />
    <glyph glyph-name="uniFBA5" unicode="&#x6c0;" horiz-adv-x="462" arabic-form="final" 
d="M251 496.5c-36 -15.667 -84.667 -23.8311 -146 -24.498l3 30c36 0 68.833 3.83301 98.5 11.5s52.5 16.167 68.5 25.5l1 17c0 14.667 -3 25 -9 31s-18 10.667 -36 14c-19.333 4 -38.333 6.66699 -57 8c-16 2 -26.333 4.16699 -31 6.5s-7 9.16602 -7 20.499
c0 10 4.16699 27.167 12.5 51.5s20.5 46.666 36.5 66.999s35.667 30.5 59 30.5c15.333 0 28.5 -4.33301 39.5 -13s21.167 -19 30.5 -31l-18 -13c-16.667 16.667 -33.667 25 -51 25c-21.333 0 -40 -12 -56 -36s-26.667 -50 -32 -78c42 -4.66699 71.5 -8.5 88.5 -11.5
s31 -9.16699 42 -18.5s16.5 -23.666 16.5 -42.999c0.666992 -30.667 -17 -53.834 -53 -69.501zM468.5 28.0029c1.66699 -2.66699 2.50195 -6.00391 2.50195 -10.0039v-4c0 -3.33301 -0.833008 -6.5 -2.5 -9.5s-3.83398 -4.5 -6.50098 -4.5h-9
c-32.667 0 -61.334 4.16699 -86.001 12.5s-40.334 25.833 -47.001 52.5c-6.66699 -8.66699 -22 -15.667 -46 -21c-24 -4 -50.333 -6 -79 -6s-50.5 1.83301 -65.5 5.5s-26.167 11.334 -33.5 23.001s-11 29.834 -11 54.501c0 28.667 9.5 57.834 28.5 87.501
s44.167 54.5 75.5 74.5s65 30.667 101 32l-9 74l32 6l21 -238c3.33301 -40 7.5 -67.667 12.5 -83s15.333 -26.166 31 -32.499s42.5 -9.5 80.5 -9.5h4c2.66699 0 4.83398 -1.33301 6.50098 -4zM262.002 75.499c17.333 2.33301 33.668 6.16699 49.001 11.5l-18 194
c-40 -2.66699 -73.5 -13.667 -100.5 -33s-47.167 -42.666 -60.5 -69.999s-20 -54.333 -20 -81l1 -13c8 -4.66699 17.167 -7.83398 27.5 -9.50098s28.166 -2.5 53.499 -2.5c28 0 50.667 1.16699 68 3.5z" />
    <glyph glyph-name="uniFBFD" unicode="&#x6cc;" horiz-adv-x="642" arabic-form="final" 
d="M648.5 28c1.66699 -2.66699 2.5 -6.00098 2.5 -10.001v-4c0 -3.33301 -0.833008 -6.5 -2.5 -9.5s-3.83398 -4.5 -6.50098 -4.5l-63 -1c18 -13.333 27 -33 27 -59c0 -64 -27.5 -108.167 -82.5 -132.5s-126.833 -36.5 -215.5 -36.5c-95.333 0 -155.5 18 -180.5 54
s-37.5 67.333 -37.5 94c0 16.667 4.16699 55.834 12.5 117.501s17.166 119.834 26.499 174.501l28 -5c-7.33301 -42 -14.333 -87.667 -21 -137s-12 -91.333 -16 -126c-0.666992 -4 -1 -9.66699 -1 -17c0 -48.667 19 -81.334 57 -98.001s81.333 -25 130 -25
c59.333 0 109.833 5 151.5 15s78.834 30 111.501 60c2 22 3 40 3 54c0 20 -3.5 34.5 -10.5 43.5s-19.5 14.833 -37.5 17.5s-47.333 4 -88 4h-53l14 35h245c2.66699 0 4.83398 -1.33301 6.50098 -4z" />
    <glyph glyph-name="uniFBFE" unicode="&#x6cc;" horiz-adv-x="350" arabic-form="initial" 
d="M225 231c2 -52.667 3 -100.666 3 -143.999c0 -20 -14 -36.667 -42 -50c-46 -24.667 -108 -37 -186 -37c-2.66699 0 -5 1.5 -7 4.5s-3 6.16699 -3 9.5v4c0 4 1 7.33301 3 10s4.33301 4 7 4c43.333 0 82 3.16699 116 9.5s63.333 18.166 88 35.499l-12 236l31 10
c1.33301 -44 2 -74.667 2 -92zM43 -100.999l39 -33l-33 -39l-37 33zM140 -103.999l40 -34l-33 -39l-37 32z" />
    <glyph glyph-name="uniFBFF" unicode="&#x6cc;" horiz-adv-x="312" arabic-form="medial" 
d="M318.5 28c1.66699 -2.66699 2.49902 -6 2.49902 -10v-4c0 -3.33301 -0.833008 -6.5 -2.5 -9.5s-3.83398 -4.5 -6.50098 -4.5c-44.667 0 -79.667 4.5 -105 13.5s-41.666 21.167 -48.999 36.5c-8.66699 -14.667 -28.167 -26.667 -58.5 -36s-63.5 -14 -99.5 -14
c-2.66699 0 -5 1.5 -7 4.5s-3 6.16699 -3 9.5v4c0 4 1 7.33301 3 10s4.33301 4 7 4c36.667 0 65.167 3 85.5 9s39.5 15.667 57.5 29l-14 215l29 1l16 -212c26 -28 72 -42 138 -42c2.66699 0 4.83398 -1.33301 6.50098 -4zM91.999 -118l40 -34l-34 -38l-36 32zM189.999 -122
l40 -33l-34 -39l-36 32z" />
    <glyph glyph-name="uniFDFC" unicode="&#xfdfc;" horiz-adv-x="1361" arabic-form="isolated" 
d="M567 -87c0.666992 -19.333 -10.167 -38.334 -32.5 -57.001s-53.5 -34 -93.5 -46s-84.333 -18 -133 -18c-96 0 -157 18.333 -183 55s-39 68 -39 94c0 24.667 14.333 122 43 292l22 -6c-8 -41.333 -15.667 -87.666 -23 -138.999s-12.333 -92.333 -15 -123
c-0.666992 -4 -1 -9.33301 -1 -16c0 -49.333 19.833 -82.166 59.5 -98.499s85.167 -24.5 136.5 -24.5c38 0 80 4.66699 126 14s79.667 24.666 101 45.999l-5 774l31 8zM1100 61.499c-7.33301 -7.66699 -18.001 -15.165 -32.001 -22.498c-25.333 -14 -58.5 -24 -99.5 -30
s-81.5 -9 -121.5 -9c-68 0 -116 12.5 -144 37.5s-42.667 61.833 -44 110.5l-18 512l32 8l17 -520c1.33301 -44 15 -74.333 41 -91s65.667 -25 119 -25c54.667 0 101.334 3.33301 140.001 10s70.667 18.667 96 36l-13 234l32 10l3 -108c2 -44.667 3 -86.334 3 -125.001
c0 -10.667 -3.66699 -19.834 -11 -27.501zM1266 120.001c5.33301 -62.667 8 -100.002 8 -112.002c0 -45.333 -24.5 -90.666 -73.5 -135.999s-115.833 -85.333 -200.5 -120l-12 30c72 29.333 130.667 62.833 176 100.5s74.333 73.834 87 108.501l-32 268l33 11
c4 -49.333 8.66699 -99.333 14 -150zM785.998 -101.001l40 -33l-34 -39l-36 33zM883.998 -104.001l39 -34l-33 -39l-37 32z" />
    <glyph glyph-name="uniFE82" unicode="&#x622;" horiz-adv-x="266" arabic-form="final" 
d="M184 630c-23.333 0 -52.332 2.66699 -86.999 8c-22 3.33301 -39 5 -51 5s-21 -1.33301 -27 -4s-10.333 -6.5 -13 -11.5s-6.33398 -14.167 -11.001 -27.5l-22 6c6.66699 24.667 15 41 25 49s26 12 48 12c12 0 33.333 -2 64 -6c30 -4 54 -6.33301 72 -7l49 -1l-8 -23h-39z
M300.501 28c1.66699 -2.66699 2.5 -6 2.5 -10v-4c0 -3.33301 -0.833008 -6.5 -2.5 -9.5s-3.83398 -4.5 -6.50098 -4.5h-2c-65.333 0 -112.5 12.667 -141.5 38s-44.167 62 -45.5 110l-19 371l31 7l18 -378c2 -44 16 -74.333 42 -91s65.667 -25 119 -25h-2
c2.66699 0 4.83398 -1.33301 6.50098 -4z" />
    <glyph glyph-name="uniFE84" unicode="&#x623;" horiz-adv-x="295" arabic-form="final" 
d="M250 650l-279.999 -89.001l-6 24l99 30c-14 26 -23.5 47.167 -28.5 63.5s-7.5 33.5 -7.5 51.5c0 16.667 10.167 29.834 30.5 39.501s47.5 14.834 81.5 15.501c9.33301 0 16.666 -0.333008 21.999 -1l1 -23h-28c-16 0 -31.5 -2.16699 -46.5 -6.5s-26.167 -9.5 -33.5 -15.5
c0.666992 -22.667 3.66699 -42.834 9 -60.501s13.333 -35.5 24 -53.5l158 50zM302.501 27.999c1.66699 -2.66699 2.5 -6 2.5 -10v-4c0 -3.33301 -0.833008 -6.5 -2.5 -9.5s-3.83398 -4.5 -6.50098 -4.5h-2c-65.333 0 -112.5 12.667 -141.5 38s-44.167 62 -45.5 110l-19 371
l31 7l17 -378c2 -44 16 -74.333 42 -91s66 -25 120 -25h-2c2.66699 0 4.83398 -1.33301 6.50098 -4z" />
    <glyph glyph-name="uniFE86" unicode="&#x624;" horiz-adv-x="421" arabic-form="final" 
d="M59 390l98.001 30.001c-12.667 24.667 -21.5 45 -26.5 61s-8.16699 33 -9.5 51c-0.666992 17.333 9.16602 31.166 29.499 41.499s47.833 15.833 82.5 16.5c10 0 17.333 -0.666992 22 -2l2 -23c-7.33301 0.666992 -17 1 -29 1c-16.667 -0.666992 -32.5 -3 -47.5 -7
s-25.833 -9.33301 -32.5 -16c0.666992 -22 3.66699 -42 9 -60s13.333 -35.667 24 -53l158 49l6 -24l-281 -90zM427.501 28.001c1.66699 -2.66699 2.50098 -5.99902 2.50098 -9.99902v-4c0 -3.33301 -0.833008 -6.5 -2.5 -9.5s-3.83398 -4.5 -6.50098 -4.5h-90
c-14 -60.667 -47 -111.834 -99 -153.501s-107.667 -73.5 -167 -95.5l-13 31c141.333 56 224 129.667 248 221c-29.333 -2.66699 -68.333 -4 -117 -4c-30.667 0 -52 0.666992 -64 2c-10.667 2 -18.334 4.33301 -23.001 7s-10.334 8 -17.001 16
c-5.33301 7.33301 -8.66602 14 -9.99902 20s-2 15 -2 27c0 24 4.16699 53 12.5 87s22.5 64.333 42.5 91s46.667 40 80 40c56 0 92.5 -25 109.5 -75s25.5 -103.333 25.5 -160c0 -10 -0.333008 -17.333 -1 -22h85c2.66699 0 4.83398 -1.33301 6.50098 -4zM307.002 43.002
l0.00195312 7c-0.666992 69.333 -9.33398 120.833 -26.001 154.5s-43 50.5 -79 50.5c-34.667 0 -61.334 -20 -80.001 -60s-28 -90.667 -28 -152c11.333 -6 39 -9 83 -9c62.667 0 106 3 130 9z" />
    <glyph glyph-name="uniFE88" unicode="&#x625;" horiz-adv-x="295" arabic-form="final" 
d="M301.5 28c1.66699 -2.66699 2.49805 -6 2.49805 -10v-4c0 -3.33301 -0.833008 -6.5 -2.5 -9.5s-3.83398 -4.5 -6.50098 -4.5h-1c-65.333 0 -112.666 12.667 -141.999 38s-44.666 62 -45.999 110l-19 512l32 8l17 -520c2 -44 16 -74.333 42 -91s66 -25 120 -25h-3
c2.66699 0 4.83398 -1.33301 6.50098 -4zM281.998 -230l5 -24.002l-280 -89l-6 24l99 30c-14 26 -23.5 47.167 -28.5 63.5s-7.5 33.5 -7.5 51.5c0 16.667 10 29.834 30 39.501s47 14.834 81 15.501c10 0 17.333 -0.333008 22 -1l2 -24c-6.66699 0.666992 -16 1 -28 1
c-16 0 -31.5 -2.16699 -46.5 -6.5s-26.167 -9.83301 -33.5 -16.5c0.666992 -22 3.66699 -42 9 -60s13.333 -35.667 24 -53z" />
    <glyph glyph-name="uniFE8A" unicode="&#x626;" horiz-adv-x="642" arabic-form="final" 
d="M147 340l98.001 29.998c-14 25.333 -23.5 46.333 -28.5 63s-7.5 34 -7.5 52c0 16.667 10.167 29.834 30.5 39.501s47.5 14.834 81.5 15.501c9.33301 0 16.666 -0.666992 21.999 -2l1 -23c-6.66699 0.666992 -16 1 -28 1c-16 0 -31.5 -2.16699 -46.5 -6.5
s-26.167 -9.83301 -33.5 -16.5c0.666992 -22 3.66699 -42 9 -60s13.333 -35.667 24 -53l158 49l5 -24l-280 -89zM648.501 27.998c1.66699 -2.66699 2.5 -6.00098 2.5 -10.001v-4c0 -3.33301 -0.833008 -6.5 -2.5 -9.5s-3.83398 -4.5 -6.50098 -4.5l-63 -1
c18 -13.333 27 -33 27 -59c0 -64 -27.5 -108.167 -82.5 -132.5s-126.833 -36.5 -215.5 -36.5c-95.333 0 -155.5 18 -180.5 54s-37.5 67.333 -37.5 94c0 16.667 4.16699 55.834 12.5 117.501s17.166 119.834 26.499 174.501l28 -5c-7.33301 -42 -14.333 -87.667 -21 -137
s-12 -91.333 -16 -126c-0.666992 -4 -1 -9.66699 -1 -17c0 -48.667 19 -81.334 57 -98.001s81.333 -25 130 -25c59.333 0 109.833 5 151.5 15s78.834 30 111.501 60c2 22 3 40 3 54c0 20 -3.5 34.5 -10.5 43.5s-19.5 14.833 -37.5 17.5s-47.333 4 -88 4h-53l14 35h245
c2.66699 0 4.83398 -1.33301 6.50098 -4z" />
    <glyph glyph-name="uniFE8B" unicode="&#x626;" horiz-adv-x="315" arabic-form="initial" 
d="M39 414l98.002 30.001c-12.667 25.333 -21.5 46 -26.5 62s-8.16699 33 -9.5 51c-0.666992 17.333 9.33301 31.166 30 41.499s48 15.5 82 15.5h11c5.33301 0 9 -0.333008 11 -1l2 -23c-7.33301 0.666992 -13.333 0.833984 -18 0.500977s-8.33398 -0.5 -11.001 -0.5
c-16.667 0 -32.5 -2 -47.5 -6s-25.833 -9.33301 -32.5 -16c0.666992 -22.667 3.66699 -42.834 9 -60.501s13.666 -35.5 24.999 -53.5l157 50l6 -24l-281 -90zM223.002 323.001c1.33301 -44 2 -74.666 2 -91.999c2 -52.667 3 -100.667 3 -144c0 -20 -14 -36.667 -42 -50
c-46 -24.667 -108 -37 -186 -37c-2.66699 0 -5 1.5 -7 4.5s-3 6.16699 -3 9.5v4c0 4 1 7.33301 3 10s4.33301 4 7 4c43.333 0 82 3.16699 116 9.5s63.333 18.166 88 35.499l-12 236z" />
    <glyph glyph-name="uniFE8C" unicode="&#x626;" horiz-adv-x="312" arabic-form="medial" 
d="M-12 390l99.0029 30c-14 26 -23.5 47.167 -28.5 63.5s-7.5 33.5 -7.5 51.5c0 16.667 10.167 30 30.5 40s47.166 15 80.499 15h11c5.33301 0 9 -0.333008 11 -1l2 -23c-7.33301 0.666992 -13.333 0.833984 -18 0.500977s-8.33398 -0.5 -11.001 -0.5
c-16.667 0 -32.5 -2 -47.5 -6s-25.833 -9.33301 -32.5 -16c1.33301 -22.667 4.66602 -42.834 9.99902 -60.501s13.333 -35.5 24 -53.5l158 50l5 -24l-281 -90zM318.503 28c1.66699 -2.66699 2.49902 -6 2.49902 -10v-4c0 -3.33301 -0.833008 -6.5 -2.5 -9.5
s-3.83398 -4.5 -6.50098 -4.5c-44.667 0 -79.667 4.5 -105 13.5s-41.666 21.167 -48.999 36.5c-8.66699 -14.667 -28.167 -26.667 -58.5 -36s-63.5 -14 -99.5 -14c-2.66699 0 -5 1.5 -7 4.5s-3 6.16699 -3 9.5v4c0 4 1 7.33301 3 10s4.33301 4 7 4c36.667 0 65.167 3 85.5 9
s39.5 15.667 57.5 29l-14 215l29 1l16 -212c26 -28 72 -42 138 -42c2.66699 0 4.83398 -1.33301 6.50098 -4z" />
    <glyph glyph-name="uniFE8E" unicode="&#x627;" horiz-adv-x="295" arabic-form="final" 
d="M301.5 28c1.66699 -2.66699 2.49805 -6 2.49805 -10v-4c0 -3.33301 -0.833008 -6.5 -2.5 -9.5s-3.83398 -4.5 -6.50098 -4.5h-1c-65.333 0 -112.666 12.667 -141.999 38s-44.666 62 -45.999 110l-19 512l32 8l17 -520c2 -44 16 -74.333 42 -91s66 -25 120 -25h-3
c2.66699 0 4.83398 -1.33301 6.50098 -4z" />
    <glyph glyph-name="uniFE90" unicode="&#x628;" horiz-adv-x="882" arabic-form="final" 
d="M889.5 28c1.66699 -2.66699 2.49805 -6 2.49805 -10v-4c0 -3.33301 -0.833008 -6.5 -2.5 -9.5s-3.83398 -4.5 -6.50098 -4.5c-92 -0 -146.333 17.333 -163 52c-4 -4 -7.33301 -6.66699 -10 -8c-14.667 -9.33301 -40 -18 -76 -26c-32 -8 -70.167 -14 -114.5 -18
s-88.166 -6 -131.499 -6c-99.333 0 -174.5 10.667 -225.5 32s-76.5 61.666 -76.5 120.999c0 14 1.33301 27.333 4 40l26 156l27 -5l-25 -154c-2 -14 -3 -25.667 -3 -35c0 -49.333 24.833 -82.166 74.5 -98.499s115.834 -24.5 198.501 -24.5
c64.667 0 127.334 4.16699 188.001 12.5s104.667 19.5 132 33.5l-15 207l31 2l15 -208c13.333 -16 31.666 -26.833 54.999 -32.5s53 -8.5 89 -8.5c2.66699 0 4.83398 -1.33301 6.50098 -4zM408.998 -119l41 -34l-35 -39l-39 33z" />
    <glyph glyph-name="uniFE91" unicode="&#x628;" horiz-adv-x="315" arabic-form="initial" 
d="M225 231c2 -52.667 3 -100.666 3 -143.999c0 -20 -14 -36.667 -42 -50c-46 -24.667 -108 -37 -186 -37c-2.66699 0 -5 1.5 -7 4.5s-3 6.16699 -3 9.5v4c0 4 1 7.33301 3 10s4.33301 4 7 4c43.333 0 82 3.16699 116 9.5s63.333 18.166 88 35.499l-12 236l31 10
c1.33301 -44 2 -74.667 2 -92zM79 -118.999l41 -34l-35 -39l-39 33z" />
    <glyph glyph-name="uniFE92" unicode="&#x628;" horiz-adv-x="312" arabic-form="medial" 
d="M318.5 28c1.66699 -2.66699 2.49902 -6 2.49902 -10v-4c0 -3.33301 -0.833008 -6.5 -2.5 -9.5s-3.83398 -4.5 -6.50098 -4.5c-44.667 0 -79.667 4.5 -105 13.5s-41.666 21.167 -48.999 36.5c-8.66699 -14.667 -28.167 -26.667 -58.5 -36s-63.5 -14 -99.5 -14
c-2.66699 0 -5 1.5 -7 4.5s-3 6.16699 -3 9.5v4c0 4 1 7.33301 3 10s4.33301 4 7 4c36.667 0 65.167 3 85.5 9s39.5 15.667 57.5 29l-14 215l29 1l16 -212c26 -28 72 -42 138 -42c2.66699 0 4.83398 -1.33301 6.50098 -4zM154.999 -119l41 -34l-35 -39l-39 33z" />
    <glyph glyph-name="uniFE94" unicode="&#x629;" horiz-adv-x="463" arabic-form="final" 
d="M241 530l-37 32l32 39l40 -32zM339 526l-38 32l33 39l39 -32zM469.5 28c1.66699 -2.66699 2.5 -6.00391 2.5 -10.0039v-4c0 -3.33301 -0.833008 -6.5 -2.5 -9.5s-3.83398 -4.5 -6.50098 -4.5h-9c-32 0 -60.5 4.16699 -85.5 12.5s-40.833 25.833 -47.5 52.5
c-6.66699 -8.66699 -22 -15.667 -46 -21c-24 -4 -50.333 -6 -79 -6s-50.5 1.83301 -65.5 5.5s-26.167 11.334 -33.5 23.001s-11 29.834 -11 54.501c0 28.667 9.5 57.834 28.5 87.501s44.167 54.5 75.5 74.5s65 30.667 101 32l-9 74l32 6l21 -238
c3.33301 -40 7.5 -67.667 12.5 -83s15.333 -26.166 31 -32.499s42.5 -9.5 80.5 -9.5h4c2.66699 0 4.83398 -1.33301 6.50098 -4zM263 75.4961c17.333 2.33301 33.668 6.16699 49.001 11.5l-18 194c-40 -2.66699 -73.5 -13.667 -100.5 -33s-47.167 -42.666 -60.5 -69.999
s-20 -54.333 -20 -81l1 -13c8 -4.66699 17.167 -7.83398 27.5 -9.50098s28.166 -2.5 53.499 -2.5c28 0 50.667 1.16699 68 3.5z" />
    <glyph glyph-name="uniFE96" unicode="&#x62a;" horiz-adv-x="882" arabic-form="final" 
d="M386 413l-38 32l33 39l39 -33zM483 409l-37 31l32 40l40 -32zM889.5 28c1.66699 -2.66699 2.49805 -6 2.49805 -10v-4c0 -3.33301 -0.833008 -6.5 -2.5 -9.5s-3.83398 -4.5 -6.50098 -4.5c-92 -0 -146.333 17.333 -163 52c-4 -4 -7.33301 -6.66699 -10 -8
c-14.667 -9.33301 -40 -18 -76 -26c-32 -8 -70.167 -14 -114.5 -18s-88.166 -6 -131.499 -6c-99.333 0 -174.5 10.667 -225.5 32s-76.5 61.666 -76.5 120.999c0 14 1.33301 27.333 4 40l26 156l27 -5l-25 -154c-2 -14 -3 -25.667 -3 -35
c0 -49.333 24.833 -82.166 74.5 -98.499s115.834 -24.5 198.501 -24.5c64.667 0 127.334 4.16699 188.001 12.5s104.667 19.5 132 33.5l-15 207l31 2l15 -208c13.333 -16 31.666 -26.833 54.999 -32.5s53 -8.5 89 -8.5c2.66699 0 4.83398 -1.33301 6.50098 -4z" />
    <glyph glyph-name="uniFE97" unicode="&#x62a;" horiz-adv-x="350" arabic-form="initial" 
d="M119 450l-37 33l32 38l40 -32zM217 446l-38 32l33 40l39 -33zM223 323c1.33301 -44 2 -74.666 2 -91.999c2 -52.667 3 -100.667 3 -144c0 -20 -14 -36.667 -42 -50c-46 -24.667 -108 -37 -186 -37c-2.66699 0 -5 1.5 -7 4.5s-3 6.16699 -3 9.5v4c0 4 1 7.33301 3 10
s4.33301 4 7 4c43.333 0 82 3.16699 116 9.5s63.333 18.166 88 35.499l-12 236z" />
    <glyph glyph-name="uniFE98" unicode="&#x62a;" horiz-adv-x="312" arabic-form="medial" 
d="M104 400l-38 33l33 38l40 -32zM202 396l-38 32l33 40l39 -33zM318.5 28c1.66699 -2.66699 2.49902 -6 2.49902 -10v-4c0 -3.33301 -0.833008 -6.5 -2.5 -9.5s-3.83398 -4.5 -6.50098 -4.5c-44.667 0 -79.667 4.5 -105 13.5s-41.666 21.167 -48.999 36.5
c-8.66699 -14.667 -28.167 -26.667 -58.5 -36s-63.5 -14 -99.5 -14c-2.66699 0 -5 1.5 -7 4.5s-3 6.16699 -3 9.5v4c0 4 1 7.33301 3 10s4.33301 4 7 4c36.667 0 65.167 3 85.5 9s39.5 15.667 57.5 29l-14 215l29 1l16 -212c26 -28 72 -42 138 -42
c2.66699 0 4.83398 -1.33301 6.50098 -4z" />
    <glyph glyph-name="uniFE9A" unicode="&#x62b;" horiz-adv-x="882" arabic-form="final" 
d="M424 520l-39 32l32 40l39 -33zM368 415l-38 32l32 39l39 -34zM432 443l32 39l39 -34l-34 -38zM889.5 28c1.66699 -2.66699 2.49805 -6 2.49805 -10v-4c0 -3.33301 -0.833008 -6.5 -2.5 -9.5s-3.83398 -4.5 -6.50098 -4.5c-92 -0 -146.333 17.333 -163 52
c-4 -4 -7.33301 -6.66699 -10 -8c-14.667 -9.33301 -40 -18 -76 -26c-32 -8 -70.167 -14 -114.5 -18s-88.166 -6 -131.499 -6c-99.333 0 -174.5 10.667 -225.5 32s-76.5 61.666 -76.5 120.999c0 14 1.33301 27.333 4 40l26 156l27 -5l-25 -154c-2 -14 -3 -25.667 -3 -35
c0 -49.333 24.833 -82.166 74.5 -98.499s115.834 -24.5 198.501 -24.5c64.667 0 127.334 4.16699 188.001 12.5s104.667 19.5 132 33.5l-15 207l31 2l15 -208c13.333 -16 31.666 -26.833 54.999 -32.5s53 -8.5 89 -8.5c2.66699 0 4.83398 -1.33301 6.50098 -4z" />
    <glyph glyph-name="uniFE9B" unicode="&#x62b;" horiz-adv-x="350" arabic-form="initial" 
d="M170 553l-39 33l31 39l39 -33zM114 448l-38 32l32 39l39 -34zM178 476l31 39l39 -34l-33 -38zM223 323c1.33301 -44 2 -74.666 2 -91.999c2 -52.667 3 -100.667 3 -144c0 -20 -14 -36.667 -42 -50c-46 -24.667 -108 -37 -186 -37c-2.66699 0 -5 1.5 -7 4.5
s-3 6.16699 -3 9.5v4c0 4 1 7.33301 3 10s4.33301 4 7 4c43.333 0 82 3.16699 116 9.5s63.333 18.166 88 35.499l-12 236z" />
    <glyph glyph-name="uniFE9C" unicode="&#x62b;" horiz-adv-x="312" arabic-form="medial" 
d="M139 517l-39 32l32 40l39 -33zM83 412l-38 32l32 39l39 -34zM147 440l32 39l39 -34l-34 -38zM318.5 28c1.66699 -2.66699 2.49902 -6 2.49902 -10v-4c0 -3.33301 -0.833008 -6.5 -2.5 -9.5s-3.83398 -4.5 -6.50098 -4.5c-44.667 0 -79.667 4.5 -105 13.5
s-41.666 21.167 -48.999 36.5c-8.66699 -14.667 -28.167 -26.667 -58.5 -36s-63.5 -14 -99.5 -14c-2.66699 0 -5 1.5 -7 4.5s-3 6.16699 -3 9.5v4c0 4 1 7.33301 3 10s4.33301 4 7 4c36.667 0 65.167 3 85.5 9s39.5 15.667 57.5 29l-14 215l29 1l16 -212
c26 -28 72 -42 138 -42c2.66699 0 4.83398 -1.33301 6.50098 -4z" />
    <glyph glyph-name="uniFE9E" unicode="&#x62c;" horiz-adv-x="641" arabic-form="final" 
d="M647.5 28c1.66699 -2.66699 2.5 -6.00098 2.5 -10.001v-4c0 -3.33301 -0.833008 -6.5 -2.5 -9.5s-3.83398 -4.5 -6.50098 -4.5h-23c-49.333 0 -87.833 6.66699 -115.5 20s-49.167 35.5 -64.5 66.5s-29 76.167 -41 135.5c-66 -29.333 -123.333 -63.833 -172 -103.5
s-81 -82.167 -97 -127.5c-7.33301 -26.667 -11 -58.667 -11 -96c0 -149.333 95.333 -224 286 -224h146l-1 -31h-144c-96.667 0 -168.5 16.167 -215.5 48.5s-75.833 66.833 -86.5 103.5s-16 74.334 -16 113.001c0 84.667 34.667 158.667 104 222s162.666 116 279.999 158
c11.333 4 29 8.66699 53 14c-28.667 2 -58.167 7.33301 -88.5 16s-72.833 22 -127.5 40c-2.66699 1.33301 -9 3.66602 -19 6.99902c-53.333 17.333 -91.333 26 -114 26c-14 0 -25.833 -6.16699 -35.5 -18.5s-18.167 -31.166 -25.5 -56.499l-23 6
c19.333 67.333 48.333 101 87 101c20.667 0 66.334 -11 137.001 -33c59.333 -20 109.833 -35.5 151.5 -46.5s80.834 -16.5 117.501 -16.5c7.33301 0 17 0.666992 29 2l-1 -37c-58 -8.66699 -120.667 -27 -188 -55c11.333 -59.333 24.166 -103 38.499 -131
s33.5 -46.833 57.5 -56.5s58.333 -14.5 103 -14.5h19c2.66699 0 4.83398 -1.33301 6.50098 -4zM301 -98.001l37 44l45 -37l-39 -43z" />
    <glyph glyph-name="uniFE9F" unicode="&#x62c;" horiz-adv-x="651" arabic-form="initial" 
d="M561 213l-4.00098 -31.999c-12 1.33301 -20.667 2 -26 2c-25.333 0 -51.333 -5 -78 -15s-55.667 -24.333 -87 -43c-47.333 -29.333 -86.166 -52.166 -116.499 -68.499s-63.5 -29.833 -99.5 -40.5s-74.667 -16 -116 -16h-34c-2.66699 0 -5 1.5 -7 4.5s-3 6.16699 -3 9.5v4
c0 4 1 7.33301 3 10s4.33301 4 7 4h43c42 0 83.333 7.5 124 22.5s90 39.5 148 73.5c36.667 22.667 67.334 40.667 92.001 54c15.333 8.66699 32.666 14.667 51.999 18l-20 7c-46.667 14 -93.667 30.333 -141 49c-68 28.667 -113 43 -135 43
c-16 -0.666992 -29.333 -9.33398 -40 -26.001s-18 -34.334 -22 -53.001l-23 4c9.33301 38.667 20.5 66.5 33.5 83.5s33.167 25.5 60.5 25.5c19.333 0 66.333 -15.667 141 -47c112 -48.667 194.667 -73 248 -73zM300.999 -96.999l41 -34l-35 -39l-39 33z" />
    <glyph glyph-name="uniFEA0" unicode="&#x62c;" horiz-adv-x="603" arabic-form="medial" 
d="M609.5 28c1.66699 -2.66699 2.49707 -5.99512 2.49707 -9.99512v-4c0 -3.33301 -0.833008 -6.5 -2.5 -9.5s-3.83398 -4.5 -6.50098 -4.5h-73c-38.667 0 -66.667 6 -84 18s-28 25.667 -32 41s-8.66699 43.333 -14 84c-11.333 -5.33301 -24.666 -12.666 -39.999 -21.999
c-46 -28 -84 -50 -114 -66s-62.667 -29.167 -98 -39.5s-73 -15.5 -113 -15.5h-35c-2.66699 0 -5 1.5 -7 4.5s-3 6.16699 -3 9.5v4c0 4 1 7.33301 3 10s4.33301 4 7 4h43c42 0 83.5 7.5 124.5 22.5s90.167 39.5 147.5 73.5c11.333 7.33301 34 20.666 68 39.999l24 14
c16.667 8 34.334 13.667 53.001 17c-10.667 3.33301 -17.667 5.66602 -21 6.99902c-44 13.333 -90.667 29.666 -140 48.999c-28.667 12.667 -55.5 23.167 -80.5 31.5s-43.5 12.5 -55.5 12.5c-16 -0.666992 -29.333 -9.33398 -40 -26.001s-18 -34.334 -22 -53.001l-23 4
c9.33301 38.667 20.5 66.5 33.5 83.5s33.167 25.5 60.5 25.5c12 0 28.833 -3.83301 50.5 -11.5s52.5 -19.834 92.5 -36.501c112 -48.667 194 -73 246 -73l-5 -33c-10.667 1.33301 -19.334 2 -26.001 2c-30 0 -63.667 -8 -101 -24c0.666992 -6 2.33398 -23.833 5.00098 -53.5
s10.834 -49 24.501 -58s34.167 -13.5 61.5 -13.5h83c2.66699 0 4.83398 -1.33301 6.50098 -4zM300.997 -95.9951l41 -34l-35 -39l-39 33z" />
    <glyph glyph-name="uniFEA2" unicode="&#x62d;" horiz-adv-x="641" arabic-form="final" 
d="M647.5 28c1.66699 -2.66699 2.5 -6.00098 2.5 -10.001v-4c0 -3.33301 -0.833008 -6.5 -2.5 -9.5s-3.83398 -4.5 -6.50098 -4.5h-23c-49.333 0 -87.833 6.66699 -115.5 20s-49.167 35.5 -64.5 66.5s-29 76.167 -41 135.5c-66 -29.333 -123.333 -63.833 -172 -103.5
s-81 -82.167 -97 -127.5c-7.33301 -26.667 -11 -58.667 -11 -96c0 -149.333 95.333 -224 286 -224h146l-1 -31h-144c-96.667 0 -168.5 16.167 -215.5 48.5s-75.833 66.833 -86.5 103.5s-16 74.334 -16 113.001c0 84.667 34.667 158.667 104 222s162.666 116 279.999 158
c11.333 4 29 8.66699 53 14c-28.667 2 -58.167 7.33301 -88.5 16s-72.833 22 -127.5 40c-2.66699 1.33301 -9 3.66602 -19 6.99902c-53.333 17.333 -91.333 26 -114 26c-14 0 -25.833 -6.16699 -35.5 -18.5s-18.167 -31.166 -25.5 -56.499l-23 6
c19.333 67.333 48.333 101 87 101c20.667 0 66.334 -11 137.001 -33c59.333 -20 109.833 -35.5 151.5 -46.5s80.834 -16.5 117.501 -16.5c7.33301 0 17 0.666992 29 2l-1 -37c-58 -8.66699 -120.667 -27 -188 -55c11.333 -59.333 24.166 -103 38.499 -131
s33.5 -46.833 57.5 -56.5s58.333 -14.5 103 -14.5h19c2.66699 0 4.83398 -1.33301 6.50098 -4z" />
    <glyph glyph-name="uniFEA3" unicode="&#x62d;" horiz-adv-x="651" arabic-form="initial" 
d="M561 213l-4.00098 -31.999c-12 1.33301 -20.667 2 -26 2c-25.333 0 -51.333 -5 -78 -15s-55.667 -24.333 -87 -43c-47.333 -29.333 -86.166 -52.166 -116.499 -68.499s-63.5 -29.833 -99.5 -40.5s-74.667 -16 -116 -16h-34c-2.66699 0 -5 1.5 -7 4.5s-3 6.16699 -3 9.5v4
c0 4 1 7.33301 3 10s4.33301 4 7 4h43c42 0 83.333 7.5 124 22.5s90 39.5 148 73.5c36.667 22.667 67.334 40.667 92.001 54c15.333 8.66699 32.666 14.667 51.999 18l-20 7c-46.667 14 -93.667 30.333 -141 49c-68 28.667 -113 43 -135 43
c-16 -0.666992 -29.333 -9.33398 -40 -26.001s-18 -34.334 -22 -53.001l-23 4c9.33301 38.667 20.5 66.5 33.5 83.5s33.167 25.5 60.5 25.5c19.333 0 66.333 -15.667 141 -47c112 -48.667 194.667 -73 248 -73z" />
    <glyph glyph-name="uniFEA4" unicode="&#x62d;" horiz-adv-x="603" arabic-form="medial" 
d="M609.5 28c1.66699 -2.66699 2.49707 -5.99512 2.49707 -9.99512v-4c0 -3.33301 -0.833008 -6.5 -2.5 -9.5s-3.83398 -4.5 -6.50098 -4.5h-73c-38.667 0 -66.667 6 -84 18s-28 25.667 -32 41s-8.66699 43.333 -14 84c-11.333 -5.33301 -24.666 -12.666 -39.999 -21.999
c-46 -28 -84 -50 -114 -66s-62.667 -29.167 -98 -39.5s-73 -15.5 -113 -15.5h-35c-2.66699 0 -5 1.5 -7 4.5s-3 6.16699 -3 9.5v4c0 4 1 7.33301 3 10s4.33301 4 7 4h43c42 0 83.5 7.5 124.5 22.5s90.167 39.5 147.5 73.5c11.333 7.33301 34 20.666 68 39.999l24 14
c16.667 8 34.334 13.667 53.001 17c-10.667 3.33301 -17.667 5.66602 -21 6.99902c-44 13.333 -90.667 29.666 -140 48.999c-28.667 12.667 -55.5 23.167 -80.5 31.5s-43.5 12.5 -55.5 12.5c-16 -0.666992 -29.333 -9.33398 -40 -26.001s-18 -34.334 -22 -53.001l-23 4
c9.33301 38.667 20.5 66.5 33.5 83.5s33.167 25.5 60.5 25.5c12 0 28.833 -3.83301 50.5 -11.5s52.5 -19.834 92.5 -36.501c112 -48.667 194 -73 246 -73l-5 -33c-10.667 1.33301 -19.334 2 -26.001 2c-30 0 -63.667 -8 -101 -24c0.666992 -6 2.33398 -23.833 5.00098 -53.5
s10.834 -49 24.501 -58s34.167 -13.5 61.5 -13.5h83c2.66699 0 4.83398 -1.33301 6.50098 -4z" />
    <glyph glyph-name="uniFEA6" unicode="&#x62e;" horiz-adv-x="641" arabic-form="final" 
d="M370 529l-38 33l33 40l40 -34zM647.5 28c1.66699 -2.66699 2.5 -6.00098 2.5 -10.001v-4c0 -3.33301 -0.833008 -6.5 -2.5 -9.5s-3.83398 -4.5 -6.50098 -4.5h-23c-49.333 0 -87.833 6.66699 -115.5 20s-49.167 35.5 -64.5 66.5s-29 76.167 -41 135.5
c-66 -29.333 -123.333 -63.833 -172 -103.5s-81 -82.167 -97 -127.5c-7.33301 -26.667 -11 -58.667 -11 -96c0 -149.333 95.333 -224 286 -224h146l-1 -31h-144c-96.667 0 -168.5 16.167 -215.5 48.5s-75.833 66.833 -86.5 103.5s-16 74.334 -16 113.001
c0 84.667 34.667 158.667 104 222s162.666 116 279.999 158c11.333 4 29 8.66699 53 14c-28.667 2 -58.167 7.33301 -88.5 16s-72.833 22 -127.5 40c-2.66699 1.33301 -9 3.66602 -19 6.99902c-53.333 17.333 -91.333 26 -114 26c-14 0 -25.833 -6.16699 -35.5 -18.5
s-18.167 -31.166 -25.5 -56.499l-23 6c19.333 67.333 48.333 101 87 101c20.667 0 66.334 -11 137.001 -33c59.333 -20 109.833 -35.5 151.5 -46.5s80.834 -16.5 117.501 -16.5c7.33301 0 17 0.666992 29 2l-1 -37c-58 -8.66699 -120.667 -27 -188 -55
c11.333 -59.333 24.166 -103 38.499 -131s33.5 -46.833 57.5 -56.5s58.333 -14.5 103 -14.5h19c2.66699 0 4.83398 -1.33301 6.50098 -4z" />
    <glyph glyph-name="uniFEA7" unicode="&#x62e;" horiz-adv-x="651" arabic-form="initial" 
d="M267 429l-38 33l33 40l40 -34zM561 213l-4.00098 -31.999c-12 1.33301 -20.667 2 -26 2c-25.333 0 -51.333 -5 -78 -15s-55.667 -24.333 -87 -43c-47.333 -29.333 -86.166 -52.166 -116.499 -68.499s-63.5 -29.833 -99.5 -40.5s-74.667 -16 -116 -16h-34
c-2.66699 0 -5 1.5 -7 4.5s-3 6.16699 -3 9.5v4c0 4 1 7.33301 3 10s4.33301 4 7 4h43c42 0 83.333 7.5 124 22.5s90 39.5 148 73.5c36.667 22.667 67.334 40.667 92.001 54c15.333 8.66699 32.666 14.667 51.999 18l-20 7c-46.667 14 -93.667 30.333 -141 49
c-68 28.667 -113 43 -135 43c-16 -0.666992 -29.333 -9.33398 -40 -26.001s-18 -34.334 -22 -53.001l-23 4c9.33301 38.667 20.5 66.5 33.5 83.5s33.167 25.5 60.5 25.5c19.333 0 66.333 -15.667 141 -47c112 -48.667 194.667 -73 248 -73z" />
    <glyph glyph-name="uniFEA8" unicode="&#x62e;" horiz-adv-x="603" arabic-form="medial" 
d="M267 429l-38 33l33 40l40 -34zM609.5 28c1.66699 -2.66699 2.49707 -5.99512 2.49707 -9.99512v-4c0 -3.33301 -0.833008 -6.5 -2.5 -9.5s-3.83398 -4.5 -6.50098 -4.5h-73c-38.667 0 -66.667 6 -84 18s-28 25.667 -32 41s-8.66699 43.333 -14 84
c-11.333 -5.33301 -24.666 -12.666 -39.999 -21.999c-46 -28 -84 -50 -114 -66s-62.667 -29.167 -98 -39.5s-73 -15.5 -113 -15.5h-35c-2.66699 0 -5 1.5 -7 4.5s-3 6.16699 -3 9.5v4c0 4 1 7.33301 3 10s4.33301 4 7 4h43c42 0 83.5 7.5 124.5 22.5s90.167 39.5 147.5 73.5
c11.333 7.33301 34 20.666 68 39.999l24 14c16.667 8 34.334 13.667 53.001 17c-10.667 3.33301 -17.667 5.66602 -21 6.99902c-44 13.333 -90.667 29.666 -140 48.999c-28.667 12.667 -55.5 23.167 -80.5 31.5s-43.5 12.5 -55.5 12.5
c-16 -0.666992 -29.333 -9.33398 -40 -26.001s-18 -34.334 -22 -53.001l-23 4c9.33301 38.667 20.5 66.5 33.5 83.5s33.167 25.5 60.5 25.5c12 0 28.833 -3.83301 50.5 -11.5s52.5 -19.834 92.5 -36.501c112 -48.667 194 -73 246 -73l-5 -33
c-10.667 1.33301 -19.334 2 -26.001 2c-30 0 -63.667 -8 -101 -24c0.666992 -6 2.33398 -23.833 5.00098 -53.5s10.834 -49 24.501 -58s34.167 -13.5 61.5 -13.5h83c2.66699 0 4.83398 -1.33301 6.50098 -4z" />
    <glyph glyph-name="uniFEAA" unicode="&#x62f;" horiz-adv-x="575" arabic-form="final" 
d="M581.5 28c1.66699 -2.66699 2.49805 -6 2.49805 -10v-4c0 -3.33301 -0.833008 -6.5 -2.5 -9.5s-3.83398 -4.5 -6.50098 -4.5h-24c-35.333 -0 -63.166 5.33301 -83.499 16s-34.5 28.667 -42.5 54c-3.33301 -5.33301 -8 -10.333 -14 -15s-10 -8 -12 -10
c-24.667 -16.667 -59.167 -30.5 -103.5 -41.5s-86.166 -16.5 -125.499 -16.5c-29.333 0 -50.666 6 -63.999 18s-20 36.333 -20 73v32h27v-25c0 -19.333 1.33301 -33.5 4 -42.5s8.16699 -15.333 16.5 -19s21.833 -5.5 40.5 -5.5c49.333 0 97 6.66699 143 20s77.667 32 95 56
l-70 311l28 20l55 -260c10 -45.333 19 -76.333 27 -93s20.167 -27.5 36.5 -32.5s45.166 -7.5 86.499 -7.5c2.66699 0 4.83398 -1.33301 6.50098 -4z" />
    <glyph glyph-name="uniFEAC" unicode="&#x630;" horiz-adv-x="575" arabic-form="final" 
d="M350 585l-38 33l33 40l40 -34zM581.5 28c1.66699 -2.66699 2.49805 -6 2.49805 -10v-4c0 -3.33301 -0.833008 -6.5 -2.5 -9.5s-3.83398 -4.5 -6.50098 -4.5h-24c-35.333 -0 -63.166 5.33301 -83.499 16s-34.5 28.667 -42.5 54c-3.33301 -5.33301 -8 -10.333 -14 -15
s-10 -8 -12 -10c-24.667 -16.667 -59.167 -30.5 -103.5 -41.5s-86.166 -16.5 -125.499 -16.5c-29.333 0 -50.666 6 -63.999 18s-20 36.333 -20 73v32h27v-25c0 -19.333 1.33301 -33.5 4 -42.5s8.16699 -15.333 16.5 -19s21.833 -5.5 40.5 -5.5c49.333 0 97 6.66699 143 20
s77.667 32 95 56l-70 311l28 20l55 -260c10 -45.333 19 -76.333 27 -93s20.167 -27.5 36.5 -32.5s45.166 -7.5 86.499 -7.5c2.66699 0 4.83398 -1.33301 6.50098 -4z" />
    <glyph glyph-name="uniFEAE" unicode="&#x631;" horiz-adv-x="418" arabic-form="final" 
d="M424.5 28c1.66699 -2.66699 2.49902 -6.00293 2.49902 -10.0029v-4c0 -3.33301 -0.833008 -6.5 -2.5 -9.5s-3.83398 -4.5 -6.50098 -4.5h-74c-55.333 0 -93.666 12 -114.999 36c0.666992 -7.33301 1 -16.666 1 -27.999c0 -45.333 -24 -90 -72 -134
s-113.667 -84 -197 -120l-13 29c70 29.333 127.167 62.833 171.5 100.5s72.166 74.167 83.499 109.5l-29 266l33 11l11 -118c0.666992 -9.33301 1.33398 -17.666 2.00098 -24.999s1.33398 -13.666 2.00098 -18.999c5.33301 -32.667 18.666 -53.5 39.999 -62.5
s47 -13.5 77 -13.5h79c2.66699 0 4.83398 -1.33301 6.50098 -4z" />
    <glyph glyph-name="uniFEB0" unicode="&#x632;" horiz-adv-x="418" arabic-form="final" 
d="M170 427l-37 33l33 40l40 -34zM424.5 28c1.66699 -2.66699 2.49902 -6.00293 2.49902 -10.0029v-4c0 -3.33301 -0.833008 -6.5 -2.5 -9.5s-3.83398 -4.5 -6.50098 -4.5h-74c-55.333 0 -93.666 12 -114.999 36c0.666992 -7.33301 1 -16.666 1 -27.999
c0 -45.333 -24 -90 -72 -134s-113.667 -84 -197 -120l-13 29c70 29.333 127.167 62.833 171.5 100.5s72.166 74.167 83.499 109.5l-29 266l33 11l11 -118c0.666992 -9.33301 1.33398 -17.666 2.00098 -24.999s1.33398 -13.666 2.00098 -18.999
c5.33301 -32.667 18.666 -53.5 39.999 -62.5s47 -13.5 77 -13.5h79c2.66699 0 4.83398 -1.33301 6.50098 -4z" />
    <glyph glyph-name="uniFEB2" unicode="&#x633;" horiz-adv-x="1193" arabic-form="final" 
d="M1199.5 28c1.66699 -2.66699 2.49902 -6 2.49902 -10v-4c0 -3.33301 -0.833008 -6.5 -2.5 -9.5s-3.83398 -4.5 -6.50098 -4.5h-81c-45.333 -0 -75 15.333 -89 46c-7.33301 -17.333 -23.833 -29.333 -49.5 -36s-51.834 -10 -78.501 -10c-20.667 -0 -37.667 3.33301 -51 10
s-22.666 16 -27.999 28c-2 -4 -5.33301 -7.66699 -10 -11c-12 -8.66699 -29.667 -15.334 -53 -20.001s-48 -7 -74 -7c-42.667 0 -72.334 12.667 -89.001 38l9 -129c1.33301 -20 -9.16699 -39 -31.5 -57s-55.833 -32.5 -100.5 -43.5s-97.667 -16.5 -159 -16.5
c-96 0.666992 -156.333 18.834 -181 54.501s-37 67.167 -37 94.5c0 16 4.16699 55.167 12.5 117.5s17.166 120.5 26.499 174.5l28 -6c-7.33301 -41.333 -14.333 -86.666 -21 -135.999s-12 -91.333 -16 -126c-0.666992 -4 -1 -9.66699 -1 -17c0 -81.333 63 -122 189 -122
c60.667 0 112.334 4.83301 155.001 14.5s78.667 26.5 108 50.5l-32 392l32 9l13 -168v-6c2.66699 -32 12.167 -54.333 28.5 -67s41.833 -19 76.5 -19c30 0 54.333 2 73 6s33 11.333 43 22l-8 217l33 1l3 -218c8.66699 -12 18.834 -19.667 30.501 -23s25.834 -5 42.501 -5
c46 0 78 8.33301 96 25l-19 260l33 6l9 -197c1.33301 -28.667 6.5 -49.834 15.5 -63.501s19.167 -22.167 30.5 -25.5s25 -5 41 -5h81c2.66699 0 4.83398 -1.33301 6.50098 -4z" />
    <glyph glyph-name="uniFEB3" unicode="&#x633;" horiz-adv-x="638" arabic-form="initial" 
d="M547 214c3.33301 -50 4.99707 -100.331 4.99707 -150.998c0 -23.333 -14 -39.666 -42 -48.999s-57.667 -14 -89 -14c-19.333 0 -35.666 3.33301 -48.999 10s-22.666 16 -27.999 28c-7.33301 -12 -22.666 -21.333 -45.999 -28s-44.333 -10 -63 -10
c-22.667 0 -42.667 3.83301 -60 11.5s-28.666 16.5 -33.999 26.5c-10 -10 -29 -18.833 -57 -26.5s-56 -11.5 -84 -11.5c-2.66699 0 -5 1.5 -7 4.5s-3 6.16699 -3 9.5v4c0 4 1 7.33301 3 10s4.33301 4 7 4c26 0 49.167 2 69.5 6s38.833 11.333 55.5 22l5 177h31l-6 -142
c-0.666992 -26.667 6.66602 -43.834 21.999 -51.501s35 -11.5 59 -11.5c48 1.33301 79.333 10.666 94 27.999l-7 217l32 1l3 -219c9.33301 -10.667 20 -17.834 32 -21.501s26 -5.5 42 -5.5c46 0 78 8.66699 96 26l-19 259l34 6c0 -24.667 1.33301 -61 4 -109z" />
    <glyph glyph-name="uniFEB4" unicode="&#x633;" horiz-adv-x="719" arabic-form="medial" 
d="M725.5 28c1.66699 -2.66699 2.49707 -5.99609 2.49707 -9.99609v-4c0 -3.33301 -0.833008 -6.5 -2.5 -9.5s-3.83398 -4.5 -6.50098 -4.5h-80c-46 0 -76 15.333 -90 46c-7.33301 -17.333 -23.833 -29.333 -49.5 -36s-51.834 -10 -78.501 -10
c-19.333 0 -35.666 3.33301 -48.999 10s-22.666 16 -27.999 28c-7.33301 -12 -22.666 -21.333 -45.999 -28s-44.333 -10 -63 -10c-22.667 0 -42.667 3.83301 -60 11.5s-28.666 16.5 -33.999 26.5c-10 -10 -29 -18.833 -57 -26.5s-56 -11.5 -84 -11.5
c-2.66699 0 -5 1.5 -7 4.5s-3 6.16699 -3 9.5v4c0 4 1 7.33301 3 10s4.33301 4 7 4c26 0 49.167 2 69.5 6s38.833 11.333 55.5 22l5 177h31l-6 -142c-0.666992 -26.667 6.66602 -43.834 21.999 -51.501s35 -11.5 59 -11.5c48 1.33301 79.333 10.666 94 27.999l-7 217l32 1
l3 -219c9.33301 -10.667 20 -17.834 32 -21.501s26 -5.5 42 -5.5c46 0 78 8.66699 96 26l-19 259l32 6l10 -197c1.33301 -28.667 6.33301 -49.834 15 -63.501s18.834 -22.167 30.501 -25.5s25.5 -5 41.5 -5h81c2.66699 0 4.83398 -1.33301 6.50098 -4z" />
    <glyph glyph-name="uniFEB6" unicode="&#x634;" horiz-adv-x="1192" arabic-form="final" 
d="M802 510l-39 32l31 40l39 -33zM746 405l-38 32l32 39l39 -34zM810 433l31 39l39 -34l-33 -38zM1199.5 28c1.66699 -2.66699 2.49902 -6 2.49902 -10v-4c0 -3.33301 -0.833008 -6.5 -2.5 -9.5s-3.83398 -4.5 -6.50098 -4.5h-81c-45.333 -0 -75 15.333 -89 46
c-7.33301 -17.333 -23.833 -29.333 -49.5 -36s-51.834 -10 -78.501 -10c-20.667 -0 -37.667 3.33301 -51 10s-22.666 16 -27.999 28c-2 -4 -5.33301 -7.66699 -10 -11c-12 -8.66699 -29.667 -15.334 -53 -20.001s-48 -7 -74 -7c-42.667 0 -72.334 12.667 -89.001 38l9 -129
c1.33301 -20 -9.16699 -39 -31.5 -57s-55.833 -32.5 -100.5 -43.5s-97.667 -16.5 -159 -16.5c-96 0.666992 -156.333 18.834 -181 54.501s-37 67.167 -37 94.5c0 16 4.16699 55.167 12.5 117.5s17.166 120.5 26.499 174.5l28 -6
c-7.33301 -41.333 -14.333 -86.666 -21 -135.999s-12 -91.333 -16 -126c-0.666992 -4 -1 -9.66699 -1 -17c0 -81.333 63 -122 189 -122c60.667 0 112.334 4.83301 155.001 14.5s78.667 26.5 108 50.5l-32 392l32 9l13 -168v-6c2.66699 -32 12.167 -54.333 28.5 -67
s41.833 -19 76.5 -19c30 0 54.333 2 73 6s33 11.333 43 22l-8 217l33 1l3 -218c8.66699 -12 18.834 -19.667 30.501 -23s25.834 -5 42.501 -5c46 0 78 8.33301 96 25l-19 260l33 6l9 -197c1.33301 -28.667 6.5 -49.834 15.5 -63.501s19.167 -22.167 30.5 -25.5s25 -5 41 -5
h81c2.66699 0 4.83398 -1.33301 6.50098 -4z" />
    <glyph glyph-name="uniFEB7" unicode="&#x634;" horiz-adv-x="638" arabic-form="initial" 
d="M340 517l-39 33l32 39l39 -33zM285 412l-38 32l32 39l39 -34zM349 440l31 39l39 -34l-34 -38zM547 214c3.33301 -50 4.99707 -100.331 4.99707 -150.998c0 -23.333 -14 -39.666 -42 -48.999s-57.667 -14 -89 -14c-19.333 0 -35.666 3.33301 -48.999 10
s-22.666 16 -27.999 28c-7.33301 -12 -22.666 -21.333 -45.999 -28s-44.333 -10 -63 -10c-22.667 0 -42.667 3.83301 -60 11.5s-28.666 16.5 -33.999 26.5c-10 -10 -29 -18.833 -57 -26.5s-56 -11.5 -84 -11.5c-2.66699 0 -5 1.5 -7 4.5s-3 6.16699 -3 9.5v4
c0 4 1 7.33301 3 10s4.33301 4 7 4c26 0 49.167 2 69.5 6s38.833 11.333 55.5 22l5 177h31l-6 -142c-0.666992 -26.667 6.66602 -43.834 21.999 -51.501s35 -11.5 59 -11.5c48 1.33301 79.333 10.666 94 27.999l-7 217l32 1l3 -219c9.33301 -10.667 20 -17.834 32 -21.501
s26 -5.5 42 -5.5c46 0 78 8.66699 96 26l-19 259l34 6c0 -24.667 1.33301 -61 4 -109z" />
    <glyph glyph-name="uniFEB8" unicode="&#x634;" horiz-adv-x="719" arabic-form="medial" 
d="M336 517l-39 33l32 39l39 -33zM281 412l-38 32l32 39l39 -34zM344 440l32 39l39 -34l-34 -38zM725.5 28c1.66699 -2.66699 2.49707 -5.99609 2.49707 -9.99609v-4c0 -3.33301 -0.833008 -6.5 -2.5 -9.5s-3.83398 -4.5 -6.50098 -4.5h-80c-46 0 -76 15.333 -90 46
c-7.33301 -17.333 -23.833 -29.333 -49.5 -36s-51.834 -10 -78.501 -10c-19.333 0 -35.666 3.33301 -48.999 10s-22.666 16 -27.999 28c-7.33301 -12 -22.666 -21.333 -45.999 -28s-44.333 -10 -63 -10c-22.667 0 -42.667 3.83301 -60 11.5s-28.666 16.5 -33.999 26.5
c-10 -10 -29 -18.833 -57 -26.5s-56 -11.5 -84 -11.5c-2.66699 0 -5 1.5 -7 4.5s-3 6.16699 -3 9.5v4c0 4 1 7.33301 3 10s4.33301 4 7 4c26 0 49.167 2 69.5 6s38.833 11.333 55.5 22l5 177h31l-6 -142c-0.666992 -26.667 6.66602 -43.834 21.999 -51.501
s35 -11.5 59 -11.5c48 1.33301 79.333 10.666 94 27.999l-7 217l32 1l3 -219c9.33301 -10.667 20 -17.834 32 -21.501s26 -5.5 42 -5.5c46 0 78 8.66699 96 26l-19 259l32 6l10 -197c1.33301 -28.667 6.33301 -49.834 15 -63.501s18.834 -22.167 30.501 -25.5
s25.5 -5 41.5 -5h81c2.66699 0 4.83398 -1.33301 6.50098 -4z" />
    <glyph glyph-name="uniFEBA" unicode="&#x635;" horiz-adv-x="1225" arabic-form="final" 
d="M1231.5 28c1.66699 -2.66699 2.50195 -6.00293 2.50195 -10.0029v-4c0 -3.33301 -0.833008 -6.5 -2.5 -9.5s-3.83398 -4.5 -6.50098 -4.5c-22 0 -43 4.83301 -63 14.5s-34.667 25.167 -44 46.5c-26.667 -17.333 -67.334 -32.333 -122.001 -45s-118 -19 -190 -19
c-99.333 0 -171 8.33301 -215 25l8 -113c1.33301 -20 -9.16699 -39 -31.5 -57s-55.833 -32.5 -100.5 -43.5s-97.667 -16.5 -159 -16.5c-96 0.666992 -156.333 18.834 -181 54.501s-37 67.167 -37 94.5c0 16 4.16699 55.167 12.5 117.5s17.166 120.5 26.499 174.5l28 -6
c-7.33301 -41.333 -14.333 -86.666 -21 -135.999s-12 -91.333 -16 -126c-0.666992 -4 -1 -9.66699 -1 -17c0 -81.333 63 -122 189 -122c60.667 0 112.334 4.83301 155.001 14.5s78.667 26.5 108 50.5l-32 392l32 9l10 -126c1.33301 -28 4 -65.333 8 -112
c11.333 -5.33301 21.333 -8.33301 30 -9l18 21c58.667 70 118.667 132.667 180 188s118.333 83 171 83c51.333 0 89.166 -15.667 113.499 -47s36.5 -79.333 36.5 -144c0 -24 -0.666992 -41 -2 -51c6 -23.333 17.833 -39.666 35.5 -48.999s35.5 -14 53.5 -14
c2.66699 0 4.83398 -1.33301 6.50098 -4zM1108 85.9971c-0.666992 49.333 -3 88.168 -7 116.501s-14.5 52.166 -31.5 71.499s-43.833 29 -80.5 29c-41.333 0 -92.5 -24.5 -153.5 -73.5s-122.833 -112.5 -185.5 -190.5c40 -6 93.667 -9 161 -9c106 0 205 18.667 297 56z" />
    <glyph glyph-name="uniFEBB" unicode="&#x635;" horiz-adv-x="800" arabic-form="initial" 
d="M677.5 290c24.333 -31.333 36.498 -79.667 36.498 -145c0 -22.667 -1 -40.667 -3 -54s-6.66699 -22.333 -14 -27c-24 -18 -63.667 -33.667 -119 -47s-120.666 -20 -195.999 -20c-45.333 0 -93.666 2.83301 -144.999 8.5s-85 17.167 -101 34.5
c-9.33301 -11.333 -28 -20.833 -56 -28.5s-54.667 -11.5 -80 -11.5c-2.66699 0 -5 1.5 -7 4.5s-3 6.16699 -3 9.5v4c0 4 1 7.33301 3 10s4.33301 4 7 4c13.333 0 31.833 2 55.5 6s47.167 11.667 70.5 23v155h31l-4 -156c11.333 -8 25.333 -13.333 42 -16l15 17
c152 184 269.667 276 353 276c52 0 90.167 -15.667 114.5 -47zM683.998 85.999c0 48 -2.16699 86.333 -6.5 115s-15.166 52.667 -32.499 72s-44.333 29 -81 29c-40.667 0 -91.834 -24.667 -153.501 -74s-122.834 -112.333 -183.501 -189
c38.667 -6.66699 92.334 -10 161.001 -10c105.333 0 204 19 296 57z" />
    <glyph glyph-name="uniFEBC" unicode="&#x635;" horiz-adv-x="797" arabic-form="medial" 
d="M803.5 28c1.66699 -2.66699 2.49902 -6.00098 2.49902 -10.001v-4c0 -3.33301 -0.833008 -6.5 -2.5 -9.5s-3.83398 -4.5 -6.50098 -4.5c-21.333 0 -42 4.66699 -62 14s-35 24.333 -45 45c-26 -16.667 -66 -31.167 -120 -43.5s-116.667 -18.5 -188 -18.5
c-45.333 0 -93.666 2.83301 -144.999 8.5s-85 17.167 -101 34.5c-9.33301 -11.333 -28 -20.833 -56 -28.5s-54.667 -11.5 -80 -11.5c-2.66699 0 -5 1.5 -7 4.5s-3 6.16699 -3 9.5v4c0 4 1 7.33301 3 10s4.33301 4 7 4c13.333 0 31.833 2 55.5 6s47.167 11.667 70.5 23v155
h31l-4 -156c11.333 -8 25.333 -13.333 42 -16l15 17c152 184 269.667 276 353 276c52 0 90.167 -15.667 114.5 -47s36.5 -79.666 36.5 -144.999c0 -28 -1.33301 -47.333 -4 -58c7.33301 -20 19.5 -34.167 36.5 -42.5s33.833 -12.5 50.5 -12.5
c2.66699 0 4.83398 -1.33301 6.50098 -4zM683.999 85.999c0 48 -2.16699 86.333 -6.5 115s-15.166 52.667 -32.499 72s-44.333 29 -81 29c-40.667 0 -91.834 -24.667 -153.501 -74s-122.834 -112.333 -183.501 -189c38.667 -6.66699 92.334 -10 161.001 -10
c105.333 0 204 19 296 57z" />
    <glyph glyph-name="uniFEBE" unicode="&#x636;" horiz-adv-x="1225" arabic-form="final" 
d="M840 452l-38 33l33 40l40 -34zM1231.5 28c1.66699 -2.66699 2.50195 -6.00293 2.50195 -10.0029v-4c0 -3.33301 -0.833008 -6.5 -2.5 -9.5s-3.83398 -4.5 -6.50098 -4.5c-22 0 -43 4.83301 -63 14.5s-34.667 25.167 -44 46.5
c-26.667 -17.333 -67.334 -32.333 -122.001 -45s-118 -19 -190 -19c-99.333 0 -171 8.33301 -215 25l8 -113c1.33301 -20 -9.16699 -39 -31.5 -57s-55.833 -32.5 -100.5 -43.5s-97.667 -16.5 -159 -16.5c-96 0.666992 -156.333 18.834 -181 54.501s-37 67.167 -37 94.5
c0 16 4.16699 55.167 12.5 117.5s17.166 120.5 26.499 174.5l28 -6c-7.33301 -41.333 -14.333 -86.666 -21 -135.999s-12 -91.333 -16 -126c-0.666992 -4 -1 -9.66699 -1 -17c0 -81.333 63 -122 189 -122c60.667 0 112.334 4.83301 155.001 14.5s78.667 26.5 108 50.5
l-32 392l32 9l10 -126c1.33301 -28 4 -65.333 8 -112c11.333 -5.33301 21.333 -8.33301 30 -9l18 21c58.667 70 118.667 132.667 180 188s118.333 83 171 83c51.333 0 89.166 -15.667 113.499 -47s36.5 -79.333 36.5 -144c0 -24 -0.666992 -41 -2 -51
c6 -23.333 17.833 -39.666 35.5 -48.999s35.5 -14 53.5 -14c2.66699 0 4.83398 -1.33301 6.50098 -4zM1108 85.9971c-0.666992 49.333 -3 88.168 -7 116.501s-14.5 52.166 -31.5 71.499s-43.833 29 -80.5 29c-41.333 0 -92.5 -24.5 -153.5 -73.5
s-122.833 -112.5 -185.5 -190.5c40 -6 93.667 -9 161 -9c106 0 205 18.667 297 56z" />
    <glyph glyph-name="uniFEBF" unicode="&#x636;" horiz-adv-x="800" arabic-form="initial" 
d="M423 452l-38 33l33 40l40 -34zM677.5 290c24.333 -31.333 36.498 -79.667 36.498 -145c0 -22.667 -1 -40.667 -3 -54s-6.66699 -22.333 -14 -27c-24 -18 -63.667 -33.667 -119 -47s-120.666 -20 -195.999 -20c-45.333 0 -93.666 2.83301 -144.999 8.5
s-85 17.167 -101 34.5c-9.33301 -11.333 -28 -20.833 -56 -28.5s-54.667 -11.5 -80 -11.5c-2.66699 0 -5 1.5 -7 4.5s-3 6.16699 -3 9.5v4c0 4 1 7.33301 3 10s4.33301 4 7 4c13.333 0 31.833 2 55.5 6s47.167 11.667 70.5 23v155h31l-4 -156
c11.333 -8 25.333 -13.333 42 -16l15 17c152 184 269.667 276 353 276c52 0 90.167 -15.667 114.5 -47zM683.998 85.999c0 48 -2.16699 86.333 -6.5 115s-15.166 52.667 -32.499 72s-44.333 29 -81 29c-40.667 0 -91.834 -24.667 -153.501 -74
s-122.834 -112.333 -183.501 -189c38.667 -6.66699 92.334 -10 161.001 -10c105.333 0 204 19 296 57z" />
    <glyph glyph-name="uniFEC0" unicode="&#x636;" horiz-adv-x="797" arabic-form="medial" 
d="M423 452l-38 33l33 40l40 -34zM803.5 28c1.66699 -2.66699 2.49902 -6.00098 2.49902 -10.001v-4c0 -3.33301 -0.833008 -6.5 -2.5 -9.5s-3.83398 -4.5 -6.50098 -4.5c-21.333 0 -42 4.66699 -62 14s-35 24.333 -45 45c-26 -16.667 -66 -31.167 -120 -43.5
s-116.667 -18.5 -188 -18.5c-45.333 0 -93.666 2.83301 -144.999 8.5s-85 17.167 -101 34.5c-9.33301 -11.333 -28 -20.833 -56 -28.5s-54.667 -11.5 -80 -11.5c-2.66699 0 -5 1.5 -7 4.5s-3 6.16699 -3 9.5v4c0 4 1 7.33301 3 10s4.33301 4 7 4c13.333 0 31.833 2 55.5 6
s47.167 11.667 70.5 23v155h31l-4 -156c11.333 -8 25.333 -13.333 42 -16l15 17c152 184 269.667 276 353 276c52 0 90.167 -15.667 114.5 -47s36.5 -79.666 36.5 -144.999c0 -28 -1.33301 -47.333 -4 -58c7.33301 -20 19.5 -34.167 36.5 -42.5s33.833 -12.5 50.5 -12.5
c2.66699 0 4.83398 -1.33301 6.50098 -4zM683.999 85.999c0 48 -2.16699 86.333 -6.5 115s-15.166 52.667 -32.499 72s-44.333 29 -81 29c-40.667 0 -91.834 -24.667 -153.501 -74s-122.834 -112.333 -183.501 -189c38.667 -6.66699 92.334 -10 161.001 -10
c105.333 0 204 19 296 57z" />
    <glyph glyph-name="uniFEC2" unicode="&#x637;" horiz-adv-x="787" arabic-form="final" 
d="M793.5 28c1.66699 -2.66699 2.5 -6.00293 2.5 -10.0029v-4c0 -3.33301 -0.833008 -6.5 -2.5 -9.5s-3.83398 -4.5 -6.50098 -4.5c-22.667 0 -43.834 4.83301 -63.501 14.5s-34.167 25.167 -43.5 46.5c-24.667 -18 -68.334 -32.667 -131.001 -44s-146.334 -17 -251.001 -17
h-194l-18 32h86c4.66699 6.66699 13.334 17.334 26.001 32.001l22 27c9.33301 12.667 15.833 32 19.5 58s5.5 75.333 5.5 148c0 68 -2 172 -6 312l-1 51l31 8l9 -400c0.666992 -30.667 0 -56.167 -2 -76.5s-5.66699 -37.166 -11 -50.499
c52.667 57.333 103.334 104.333 152.001 141s93 55 133 55c52 0 90 -15.667 114 -47s36 -79.666 36 -144.999c0 -24.667 -1 -42 -3 -52c6 -22.667 17.833 -38.5 35.5 -47.5s35.834 -13.5 54.501 -13.5c2.66699 0 4.83398 -1.33301 6.50098 -4zM517 43.9971
c59.333 8 110 22 152 42c0 48 -2 86.333 -6 115s-14.667 52.667 -32 72s-44 29 -80 29c-42 0 -93.667 -25 -155 -75s-123.333 -115 -186 -195h94c82.667 0 153.667 4 213 12z" />
    <glyph glyph-name="uniFEC3" unicode="&#x637;" horiz-adv-x="700" arabic-form="initial" 
d="M578 290c24 -31.333 35.998 -79.6689 35.998 -145.002c0 -22.667 -1 -40.667 -3 -54s-6.66699 -22.333 -14 -27c-23.333 -18.667 -66.5 -34 -129.5 -46s-148.167 -18 -255.5 -18h-212c-2.66699 0 -5 1.5 -7 4.5s-3 6.16699 -3 9.5v4c0 4 1 7.33301 3 10s4.33301 4 7 4h86
c4.66699 6.66699 13.334 17.334 26.001 32.001l22 27c9.33301 12.667 15.833 32 19.5 58s5.5 75.333 5.5 148c0 68 -2 172 -6 312l-1 51l31 8l9 -400c0.666992 -30.667 0 -56.167 -2 -76.5s-5.66699 -37.166 -11 -50.499c52.667 57.333 103.334 104.333 152.001 141
s93 55 133 55c52 0 90 -15.667 114 -47zM430.998 43.9971c59.333 8 110 22 152 42c0 48 -2 86.333 -6 115s-14.667 52.667 -32 72s-44 29 -80 29c-42 0 -93.667 -25 -155 -75s-123.333 -115 -186 -195h94c82.667 0 153.667 4 213 12z" />
    <glyph glyph-name="uniFEC4" unicode="&#x637;" horiz-adv-x="700" arabic-form="medial" 
d="M706.5 28c1.66699 -2.66699 2.49902 -6.00293 2.49902 -10.0029v-4c0 -3.33301 -0.833008 -6.5 -2.5 -9.5s-3.83398 -4.5 -6.50098 -4.5c-22 0 -43 4.83301 -63 14.5s-34.667 25.167 -44 46.5c-24 -18 -67.333 -32.667 -130 -44s-146.334 -17 -251.001 -17h-212
c-2.66699 0 -5 1.5 -7 4.5s-3 6.16699 -3 9.5v4c0 4 1 7.33301 3 10s4.33301 4 7 4h86c4.66699 6.66699 13.334 17.334 26.001 32.001l22 27c9.33301 12.667 15.833 32 19.5 58s5.5 75.333 5.5 148c0 68 -2 172 -6 312l-1 51l31 8l9 -400
c0.666992 -30.667 0 -56.167 -2 -76.5s-5.66699 -37.166 -11 -50.499c52.667 57.333 103.334 104.333 152.001 141s93 55 133 55c52 0 90 -15.667 114 -47s36 -79.666 36 -144.999c0 -26 -1 -44 -3 -54c6 -22 17.833 -37.333 35.5 -46s35.5 -13 53.5 -13
c2.66699 0 4.83398 -1.33301 6.50098 -4zM430.999 43.9971c59.333 8 110 22 152 42c0 48 -2 86.333 -6 115s-14.667 52.667 -32 72s-44 29 -80 29c-42 0 -93.667 -25 -155 -75s-123.333 -115 -186 -195h94c82.667 0 153.667 4 213 12z" />
    <glyph glyph-name="uniFEC6" unicode="&#x638;" horiz-adv-x="787" arabic-form="final" 
d="M793.5 28c1.66699 -2.66699 2.5 -6.00293 2.5 -10.0029v-4c0 -3.33301 -0.833008 -6.5 -2.5 -9.5s-3.83398 -4.5 -6.50098 -4.5c-22.667 0 -43.834 4.83301 -63.501 14.5s-34.167 25.167 -43.5 46.5c-24.667 -18 -68.334 -32.667 -131.001 -44s-146.334 -17 -251.001 -17
h-194l-18 32h86c4.66699 6.66699 13.334 17.334 26.001 32.001l22 27c9.33301 12.667 15.833 32 19.5 58s5.5 75.333 5.5 148c0 68 -2 172 -6 312l-1 51l31 8l9 -400c0.666992 -30.667 0 -56.167 -2 -76.5s-5.66699 -37.166 -11 -50.499
c52.667 57.333 103.334 104.333 152.001 141s93 55 133 55c52 0 90 -15.667 114 -47s36 -79.666 36 -144.999c0 -24.667 -1 -42 -3 -52c6 -22.667 17.833 -38.5 35.5 -47.5s35.834 -13.5 54.501 -13.5c2.66699 0 4.83398 -1.33301 6.50098 -4zM506 447.997l-37 33l32 40
l40 -34zM517 43.9971c59.333 8 110 22 152 42c0 48 -2 86.333 -6 115s-14.667 52.667 -32 72s-44 29 -80 29c-42 0 -93.667 -25 -155 -75s-123.333 -115 -186 -195h94c82.667 0 153.667 4 213 12z" />
    <glyph glyph-name="uniFEC7" unicode="&#x638;" horiz-adv-x="700" arabic-form="initial" 
d="M578 290c24 -31.333 35.998 -79.6689 35.998 -145.002c0 -22.667 -1 -40.667 -3 -54s-6.66699 -22.333 -14 -27c-23.333 -18.667 -66.5 -34 -129.5 -46s-148.167 -18 -255.5 -18h-212c-2.66699 0 -5 1.5 -7 4.5s-3 6.16699 -3 9.5v4c0 4 1 7.33301 3 10s4.33301 4 7 4h86
c4.66699 6.66699 13.334 17.334 26.001 32.001l22 27c9.33301 12.667 15.833 32 19.5 58s5.5 75.333 5.5 148c0 68 -2 172 -6 312l-1 51l31 8l9 -400c0.666992 -30.667 0 -56.167 -2 -76.5s-5.66699 -37.166 -11 -50.499c52.667 57.333 103.334 104.333 152.001 141
s93 55 133 55c52 0 90 -15.667 114 -47zM413.998 447.997l-38 33l33 40l40 -34zM430.998 43.9971c59.333 8 110 22 152 42c0 48 -2 86.333 -6 115s-14.667 52.667 -32 72s-44 29 -80 29c-42 0 -93.667 -25 -155 -75s-123.333 -115 -186 -195h94c82.667 0 153.667 4 213 12z
" />
    <glyph glyph-name="uniFEC8" unicode="&#x638;" horiz-adv-x="700" arabic-form="medial" 
d="M706.5 28c1.66699 -2.66699 2.49902 -6.00293 2.49902 -10.0029v-4c0 -3.33301 -0.833008 -6.5 -2.5 -9.5s-3.83398 -4.5 -6.50098 -4.5c-22 0 -43 4.83301 -63 14.5s-34.667 25.167 -44 46.5c-24 -18 -67.333 -32.667 -130 -44s-146.334 -17 -251.001 -17h-212
c-2.66699 0 -5 1.5 -7 4.5s-3 6.16699 -3 9.5v4c0 4 1 7.33301 3 10s4.33301 4 7 4h86c4.66699 6.66699 13.334 17.334 26.001 32.001l22 27c9.33301 12.667 15.833 32 19.5 58s5.5 75.333 5.5 148c0 68 -2 172 -6 312l-1 51l31 8l9 -400
c0.666992 -30.667 0 -56.167 -2 -76.5s-5.66699 -37.166 -11 -50.499c52.667 57.333 103.334 104.333 152.001 141s93 55 133 55c52 0 90 -15.667 114 -47s36 -79.666 36 -144.999c0 -26 -1 -44 -3 -54c6 -22 17.833 -37.333 35.5 -46s35.5 -13 53.5 -13
c2.66699 0 4.83398 -1.33301 6.50098 -4zM413.999 447.997l-38 33l33 40l40 -34zM430.999 43.9971c59.333 8 110 22 152 42c0 48 -2 86.333 -6 115s-14.667 52.667 -32 72s-44 29 -80 29c-42 0 -93.667 -25 -155 -75s-123.333 -115 -186 -195h94c82.667 0 153.667 4 213 12z
" />
    <glyph glyph-name="uniFECA" unicode="&#x639;" horiz-adv-x="546" arabic-form="final" 
d="M552.5 28c1.66699 -2.66699 2.49805 -5.99902 2.49805 -9.99902v-4c0 -3.33301 -0.833008 -6.5 -2.5 -9.5s-3.83398 -4.5 -6.50098 -4.5h-21c-38 0 -70.5 6.66699 -97.5 20s-50.167 32.333 -69.5 57s-38.666 56.667 -57.999 96c-41.333 -28 -75.333 -56 -102 -84
s-49.667 -60.667 -69 -98c-3.33301 -11.333 -6 -26.333 -8 -45s-3 -35.667 -3 -51c0 -75.333 24 -131.333 72 -168s119.333 -55 214 -55h146l-1 -32h-145c-94.667 0 -165.5 15.667 -212.5 47s-76.167 65.333 -87.5 102s-17 74 -17 112c0 63.333 18.167 119.5 54.5 168.5
s84.833 93.5 145.5 133.5l-88.5 121c-23 31.333 -38.667 51 -47 59s-15.833 12 -22.5 12l-10 -1l-18 -2l3 34c35.333 5.33301 75.333 9.83301 120 13.5s86 5.5 124 5.5c40.667 0 74.834 -2.66699 102.501 -8s41.5 -16.333 41.5 -33v-17c0 -18 -9.16699 -40.167 -27.5 -66.5
s-40.666 -51.833 -66.999 -76.5s-50.166 -44 -71.499 -58c20 -40 39.167 -70.833 57.5 -92.5s38.666 -37.334 60.999 -47.001s50.166 -14.5 83.499 -14.5h18c2.66699 0 4.83398 -1.33301 6.50098 -4zM214.998 358.501c19.333 -25.667 52.6631 -73.167 99.9961 -142.5
c15.333 10.667 34.333 26.667 57 48s42.834 43.833 60.501 67.5s27.834 44.167 30.501 61.5c0 12.667 -38 19 -114 19c-31.333 0 -64.666 -1 -99.999 -3s-60.666 -4 -75.999 -6c8.66699 -4 22.667 -18.833 42 -44.5z" />
    <glyph glyph-name="uniFECB" unicode="&#x639;" horiz-adv-x="506" arabic-form="initial" 
d="M420 53c-74.667 -22 -138.331 -36.3311 -190.998 -42.998s-119.334 -10 -200.001 -10h-29c-2.66699 0 -5 1.5 -7 4.5s-3 6.16699 -3 9.5v4c0 4 1 7.33301 3 10s4.33301 4 7 4h149c-12.667 24.667 -22.834 52.5 -30.501 83.5s-11.5 62.5 -11.5 94.5
c0 26.667 12.167 46.167 36.5 58.5s55.5 18.5 93.5 18.5c36.667 0 74.334 -5 113.001 -15l-8 -30c-29.333 8.66699 -62.666 13 -99.999 13c-48.667 0 -85.334 -7.66699 -110.001 -23c0 -37.333 4.66699 -72.833 14 -106.5s22.333 -63.834 39 -90.501
c43.333 4 83.166 10.167 119.499 18.5s73.833 19.166 112.5 32.499z" />
    <glyph glyph-name="uniFECC" unicode="&#x639;" horiz-adv-x="487" arabic-form="medial" 
d="M493.5 28c1.66699 -2.66699 2.50098 -6 2.50098 -10v-4c0 -3.33301 -0.833008 -6.5 -2.5 -9.5s-3.83398 -4.5 -6.50098 -4.5h-126c-46.667 0 -81 13 -103 39c-26 -26 -62 -39 -108 -39h-150c-2.66699 0 -5 1.5 -7 4.5s-3 6.16699 -3 9.5v4c0 4 1 7.33301 3 10
s4.33301 4 7 4h143c47.333 0 76.666 8.66699 87.999 26l-92 124c-24 32 -40.167 52 -48.5 60s-15.833 12 -22.5 12l-11 -1l-18 -2l3 33c34 5.33301 73.5 10 118.5 14s87.167 6 126.5 6c40.667 0 74.667 -2.66699 102 -8s41 -16.333 41 -33v-17c0 -16.667 -8 -37.5 -24 -62.5
s-35.833 -49.333 -59.5 -73s-45.5 -42.167 -65.5 -55.5c18 -15.333 45.667 -23 83 -23h123c2.66699 0 4.83398 -1.33301 6.50098 -4zM155.001 218c19.333 -25.333 53.3311 -72.333 101.998 -141c14.667 10 32.834 25.5 54.501 46.5s41.334 43.333 59.001 67
s28.167 44.167 31.5 61.5c0 12.667 -37.667 19 -113 19c-30.667 0 -63.667 -1 -99 -3s-61 -4 -77 -6c8.66699 -4 22.667 -18.667 42 -44z" />
    <glyph glyph-name="uniFECE" unicode="&#x63a;" horiz-adv-x="546" arabic-form="final" 
d="M317 589l-37 33l32 40l40 -34zM552.5 28c1.66699 -2.66699 2.49805 -5.99902 2.49805 -9.99902v-4c0 -3.33301 -0.833008 -6.5 -2.5 -9.5s-3.83398 -4.5 -6.50098 -4.5h-21c-38 0 -70.5 6.66699 -97.5 20s-50.167 32.333 -69.5 57s-38.666 56.667 -57.999 96
c-41.333 -28 -75.333 -56 -102 -84s-49.667 -60.667 -69 -98c-3.33301 -11.333 -6 -26.333 -8 -45s-3 -35.667 -3 -51c0 -75.333 24 -131.333 72 -168s119.333 -55 214 -55h146l-1 -32h-145c-94.667 0 -165.5 15.667 -212.5 47s-76.167 65.333 -87.5 102s-17 74 -17 112
c0 63.333 18.167 119.5 54.5 168.5s84.833 93.5 145.5 133.5l-88.5 121c-23 31.333 -38.667 51 -47 59s-15.833 12 -22.5 12l-10 -1l-18 -2l3 34c35.333 5.33301 75.333 9.83301 120 13.5s86 5.5 124 5.5c40.667 0 74.834 -2.66699 102.501 -8s41.5 -16.333 41.5 -33v-17
c0 -18 -9.16699 -40.167 -27.5 -66.5s-40.666 -51.833 -66.999 -76.5s-50.166 -44 -71.499 -58c20 -40 39.167 -70.833 57.5 -92.5s38.666 -37.334 60.999 -47.001s50.166 -14.5 83.499 -14.5h18c2.66699 0 4.83398 -1.33301 6.50098 -4zM214.998 358.501
c19.333 -25.667 52.6631 -73.167 99.9961 -142.5c15.333 10.667 34.333 26.667 57 48s42.834 43.833 60.501 67.5s27.834 44.167 30.501 61.5c0 12.667 -38 19 -114 19c-31.333 0 -64.666 -1 -99.999 -3s-60.666 -4 -75.999 -6c8.66699 -4 22.667 -18.833 42 -44.5z" />
    <glyph glyph-name="uniFECF" unicode="&#x63a;" horiz-adv-x="506" arabic-form="initial" 
d="M248 415l-38 33l33 40l40 -34zM420 53c-74.667 -22 -138.331 -36.3311 -190.998 -42.998s-119.334 -10 -200.001 -10h-29c-2.66699 0 -5 1.5 -7 4.5s-3 6.16699 -3 9.5v4c0 4 1 7.33301 3 10s4.33301 4 7 4h149c-12.667 24.667 -22.834 52.5 -30.501 83.5
s-11.5 62.5 -11.5 94.5c0 26.667 12.167 46.167 36.5 58.5s55.5 18.5 93.5 18.5c36.667 0 74.334 -5 113.001 -15l-8 -30c-29.333 8.66699 -62.666 13 -99.999 13c-48.667 0 -85.334 -7.66699 -110.001 -23c0 -37.333 4.66699 -72.833 14 -106.5s22.333 -63.834 39 -90.501
c43.333 4 83.166 10.167 119.499 18.5s73.833 19.166 112.5 32.499z" />
    <glyph glyph-name="uniFED0" unicode="&#x63a;" horiz-adv-x="487" arabic-form="medial" 
d="M264 406l-38 33l33 40l40 -34zM493.5 28c1.66699 -2.66699 2.50098 -6 2.50098 -10v-4c0 -3.33301 -0.833008 -6.5 -2.5 -9.5s-3.83398 -4.5 -6.50098 -4.5h-126c-46.667 0 -81 13 -103 39c-26 -26 -62 -39 -108 -39h-150c-2.66699 0 -5 1.5 -7 4.5s-3 6.16699 -3 9.5v4
c0 4 1 7.33301 3 10s4.33301 4 7 4h143c47.333 0 76.666 8.66699 87.999 26l-92 124c-24 32 -40.167 52 -48.5 60s-15.833 12 -22.5 12l-11 -1l-18 -2l3 33c34 5.33301 73.5 10 118.5 14s87.167 6 126.5 6c40.667 0 74.667 -2.66699 102 -8s41 -16.333 41 -33v-17
c0 -16.667 -8 -37.5 -24 -62.5s-35.833 -49.333 -59.5 -73s-45.5 -42.167 -65.5 -55.5c18 -15.333 45.667 -23 83 -23h123c2.66699 0 4.83398 -1.33301 6.50098 -4zM155.001 218c19.333 -25.333 53.3311 -72.333 101.998 -141c14.667 10 32.834 25.5 54.501 46.5
s41.334 43.333 59.001 67s28.167 44.167 31.5 61.5c0 12.667 -37.667 19 -113 19c-30.667 0 -63.667 -1 -99 -3s-61 -4 -77 -6c8.66699 -4 22.667 -18.667 42 -44z" />
    <glyph glyph-name="uniFED2" unicode="&#x641;" horiz-adv-x="931" arabic-form="final" 
d="M767 446l-38 33l33 40l40 -34zM937.5 28c1.66699 -2.66699 2.49902 -6.00098 2.49902 -10.001v-4c0 -3.33301 -0.833008 -6.5 -2.5 -9.5s-3.83398 -4.5 -6.50098 -4.5h-38c-42.667 0 -75.5 2.66699 -98.5 8s-42.167 12.666 -57.5 21.999c-14 -6 -27.667 -11 -41 -15
c-36.667 -9.33301 -80.5 -15.166 -131.5 -17.499s-109.833 -3.5 -176.5 -3.5c-99.333 0 -174.5 10.667 -225.5 32s-76.5 61.666 -76.5 120.999c0 14 1.33301 27.333 4 40l26 156l27 -5l-25 -154c-2 -14 -3 -25.667 -3 -35c0 -49.333 24.833 -82.166 74.5 -98.499
s115.834 -24.5 198.501 -24.5c94 0 162 1.16699 204 3.5s80.333 8.16602 115 17.499c-28 16.667 -54.167 38 -78.5 64s-36.5 49.667 -36.5 71c0 13.333 7.66699 34 23 62s34.666 52.833 57.999 74.5s47 32.5 71 32.5c23.333 0 44.5 -8.83301 63.5 -26.5s34 -42 45 -73
s16.5 -66.167 16.5 -105.5c0 -13.333 -3.66699 -25.166 -11 -35.499s-17.166 -19.666 -29.499 -27.999s-32.5 -20.833 -60.5 -37.5c20 -8.66699 38.333 -13 55 -13h108c2.66699 0 4.83398 -1.33301 6.50098 -4zM654.999 123.999
c21.333 -19.333 50.334 -40.665 87.001 -63.998l97 67c1.33301 28.667 -1.5 57.667 -8.5 87s-17.833 53.833 -32.5 73.5s-32.667 29.5 -54 29.5c-18 0 -36.333 -8.33301 -55 -25s-34.334 -35.834 -47.001 -57.501s-19 -37.834 -19 -48.501c0 -22 10.667 -42.667 32 -62z" />
    <glyph glyph-name="uniFED3" unicode="&#x641;" horiz-adv-x="396" arabic-form="initial" 
d="M180 540l-38 32l33 40l40 -33zM335.5 91c-2.33301 -20 -7.00195 -34.166 -14.002 -42.499s-18.833 -16.833 -35.5 -25.5c-19.333 -10 -45.166 -16.333 -77.499 -19s-73.833 -4 -124.5 -4h-38h-46c-2.66699 0 -5 1.5 -7 4.5s-3 6.16699 -3 9.5v4c0 4 1 7.33301 3 10
s4.33301 4 7 4c91.333 0 158.333 1.83301 201 5.5s77 12.5 103 26.5c2 11.333 3.5 25.333 4.5 42s1.83301 28 2.5 34c-5.33301 0 -13.333 -0.666992 -24 -2c-41.333 -2.66699 -75.333 -4 -102 -4c-30.667 0 -51.667 1 -63 3s-19.333 4.33301 -24 7s-10 8 -16 16
c-5.33301 7.33301 -8.66602 14 -9.99902 20s-2 14.667 -2 26c0 25.333 4.16699 54.833 12.5 88.5s22.666 63.667 42.999 90s47.5 39.5 81.5 39.5c54.667 0 90.167 -24.833 106.5 -74.5s24.5 -102.834 24.5 -159.501c0.666992 -46 -0.166016 -79 -2.49902 -99z
M309.998 178.001c0 72.667 -8.66797 126.332 -26.001 160.999s-44 52 -80 52c-34 0 -60.333 -20.167 -79 -60.5s-27.667 -91.166 -27 -152.499c11.333 -5.33301 38.333 -8 81 -8c62.667 0 106.334 2.66699 131.001 8z" />
    <glyph glyph-name="uniFED4" unicode="&#x641;" horiz-adv-x="415" arabic-form="medial" 
d="M224 459l-38 33l33 40l40 -34zM421.5 28c1.66699 -2.66699 2.49805 -6.00195 2.49805 -10.002v-4c0 -3.33301 -0.833008 -6.5 -2.5 -9.5s-3.83398 -4.5 -6.50098 -4.5h-37c-40 0 -71.5 2.33301 -94.5 7s-41.833 11.334 -56.5 20.001
c-17.333 -6.66699 -42 -12.834 -74 -18.501s-72.667 -8.5 -122 -8.5h-31c-2.66699 0 -5 1.5 -7 4.5s-3 6.16699 -3 9.5v4c0 4 1 7.33301 3 10s4.33301 4 7 4h97c38.667 0 71.334 4.66699 98.001 14c-28 15.333 -54.5 36.333 -79.5 63s-37.5 51 -37.5 73
c0 13.333 7.5 34 22.5 62s34 52.833 57 74.5s46.833 32.5 71.5 32.5c23.333 0 44.5 -8.83301 63.5 -26.5s34 -42 45 -73s16.5 -66.167 16.5 -105.5c0 -13.333 -3.66699 -25.166 -11 -35.499s-17.166 -19.666 -29.499 -27.999s-32.5 -20.833 -60.5 -37.5
c19.333 -8.66699 38 -13 56 -13h106c2.66699 0 4.83398 -1.33301 6.50098 -4zM138.998 123.998c21.333 -19.333 50.667 -40.665 88 -63.998l98 67c0.666992 28.667 -2.5 57.667 -9.5 87s-17.833 53.833 -32.5 73.5s-32.667 29.5 -54 29.5
c-17.333 0 -35.5 -8.33301 -54.5 -25s-35 -35.834 -48 -57.501s-19.5 -37.834 -19.5 -48.501c0 -22 10.667 -42.667 32 -62z" />
    <glyph glyph-name="uniFED6" unicode="&#x642;" horiz-adv-x="716" arabic-form="final" 
d="M451 424l-37 33l32 38l40 -32zM549 420l-38 32l33 40l40 -33zM722.5 28c1.66699 -2.66699 2.50098 -6.00195 2.50098 -10.002v-4c0 -3.33301 -0.833008 -6.5 -2.5 -9.5s-3.83398 -4.5 -6.50098 -4.5h-85c0.666992 -16 1 -36.333 1 -61c0 -26 -1.66699 -42.667 -5 -50
c-15.333 -32 -55 -56 -119 -72s-130.667 -24 -200 -24c-96 0 -156.333 18 -181 54s-37 67.667 -37 95c0 16 4.16699 55.167 12.5 117.5s17.166 120.5 26.499 174.5l28 -6c-7.33301 -41.333 -14.333 -86.666 -21 -135.999s-12 -91.333 -16 -126
c-0.666992 -4 -1 -9.66699 -1 -17c0 -81.333 63 -122 189 -122c63.333 0 121.333 5 174 15s93.334 27 122.001 51l-1 111c-44 -4 -86 -6 -126 -6c-30.667 0 -52 1 -64 3c-10.667 1.33301 -18.334 3.33301 -23.001 6s-10.334 8.33398 -17.001 17.001
c-5.33301 6.66699 -8.66602 13.167 -9.99902 19.5s-2 15.5 -2 27.5c0 24 4.16699 53 12.5 87s22.5 64.333 42.5 91s46.667 40 80 40c56 0 92 -24.667 108 -74s24.667 -103.333 26 -162v-21h86c2.66699 0 4.83398 -1.33301 6.50098 -4zM601.001 41.998
c0 72 -8.5 125.333 -25.5 160s-43.5 52 -79.5 52c-34.667 0 -61.167 -20 -79.5 -60s-27.5 -90.667 -27.5 -152c12 -6 39 -9 81 -9c64 0 107.667 3 131 9z" />
    <glyph glyph-name="uniFED7" unicode="&#x642;" horiz-adv-x="395" arabic-form="initial" 
d="M133 562l-38 32l33 39l39 -33zM230 558l-37 31l32 40l40 -32zM335.5 91c-2.33301 -20 -7.00195 -34.166 -14.002 -42.499s-18.833 -16.833 -35.5 -25.5c-19.333 -10 -45.166 -16.333 -77.499 -19s-73.833 -4 -124.5 -4h-38h-46c-2.66699 0 -5 1.5 -7 4.5
s-3 6.16699 -3 9.5v4c0 4 1 7.33301 3 10s4.33301 4 7 4c91.333 0 158.333 1.83301 201 5.5s77 12.5 103 26.5c2 11.333 3.5 25.333 4.5 42s1.83301 28 2.5 34c-5.33301 0 -13.333 -0.666992 -24 -2c-41.333 -2.66699 -75.333 -4 -102 -4c-30.667 0 -51.667 1 -63 3
s-19.333 4.33301 -24 7s-10 8 -16 16c-5.33301 7.33301 -8.66602 14 -9.99902 20s-2 14.667 -2 26c0 25.333 4.16699 54.833 12.5 88.5s22.666 63.667 42.999 90s47.5 39.5 81.5 39.5c54.667 0 90.167 -24.833 106.5 -74.5s24.5 -102.834 24.5 -159.501
c0.666992 -46 -0.166016 -79 -2.49902 -99zM309.998 178.001c0 72.667 -8.66797 126.332 -26.001 160.999s-44 52 -80 52c-34 0 -60.333 -20.167 -79 -60.5s-27.667 -91.166 -27 -152.499c11.333 -5.33301 38.333 -8 81 -8c62.667 0 106.334 2.66699 131.001 8z" />
    <glyph glyph-name="uniFED8" unicode="&#x642;" horiz-adv-x="415" arabic-form="medial" 
d="M171 483l-37 33l32 39l40 -33zM269 480l-38 31l33 40l40 -33zM421.5 28c1.66699 -2.66699 2.49805 -6.00195 2.49805 -10.002v-4c0 -3.33301 -0.833008 -6.5 -2.5 -9.5s-3.83398 -4.5 -6.50098 -4.5h-37c-40 0 -71.5 2.33301 -94.5 7s-41.833 11.334 -56.5 20.001
c-17.333 -6.66699 -42 -12.834 -74 -18.501s-72.667 -8.5 -122 -8.5h-31c-2.66699 0 -5 1.5 -7 4.5s-3 6.16699 -3 9.5v4c0 4 1 7.33301 3 10s4.33301 4 7 4h97c38.667 0 71.334 4.66699 98.001 14c-28 15.333 -54.5 36.333 -79.5 63s-37.5 51 -37.5 73
c0 13.333 7.5 34 22.5 62s34 52.833 57 74.5s46.833 32.5 71.5 32.5c23.333 0 44.5 -8.83301 63.5 -26.5s34 -42 45 -73s16.5 -66.167 16.5 -105.5c0 -13.333 -3.66699 -25.166 -11 -35.499s-17.166 -19.666 -29.499 -27.999s-32.5 -20.833 -60.5 -37.5
c19.333 -8.66699 38 -13 56 -13h106c2.66699 0 4.83398 -1.33301 6.50098 -4zM138.998 123.998c21.333 -19.333 50.667 -40.665 88 -63.998l98 67c0.666992 28.667 -2.5 57.667 -9.5 87s-17.833 53.833 -32.5 73.5s-32.667 29.5 -54 29.5
c-17.333 0 -35.5 -8.33301 -54.5 -25s-35 -35.834 -48 -57.501s-19.5 -37.834 -19.5 -48.501c0 -22 10.667 -42.667 32 -62z" />
    <glyph glyph-name="uniFEDA" unicode="&#x643;" horiz-adv-x="830" arabic-form="final" 
d="M836.5 28c1.66699 -2.66699 2.5 -6.00098 2.5 -10.001v-4c0 -3.33301 -0.833008 -6.5 -2.5 -9.5s-3.83398 -4.5 -6.50098 -4.5c-85.333 0 -138.666 20 -159.999 60c-28.667 -26 -65.834 -42.5 -111.501 -49.5s-102.5 -10.5 -170.5 -10.5
c-99.333 0 -174.5 10.833 -225.5 32.5s-76.5 62.5 -76.5 122.5c0 14 1.33301 27.333 4 40l26 155l27 -5l-25 -154c-2 -12.667 -3 -24.667 -3 -36c0 -49.333 24.833 -82.166 74.5 -98.499s115.834 -24.5 198.501 -24.5c68 0 122.167 3.33301 162.5 10s72.166 18 95.499 34
l-21 584l31 8l18 -520c1.33301 -44 15 -74.333 41 -91s66 -25 120 -25h-5c2.66699 0 4.83398 -1.33301 6.50098 -4zM443 317.999c-36 -15.333 -84.9951 -23.333 -146.995 -24l2 31c36.667 0 69.834 3.5 99.501 10.5s52.834 15.167 69.501 24.5
c1.33301 22 -0.833984 37 -6.50098 45s-18.834 14 -39.501 18c-14.667 3.33301 -34.334 6 -59.001 8c-14.667 2 -24.334 4.33301 -29.001 7s-7 9 -7 19s4.33301 27.333 13 52s21.167 47.167 37.5 67.5s35.833 30.5 58.5 30.5c25.333 0 48.666 -15 69.999 -45l-18 -13
c-17.333 17.333 -34.333 26 -51 26c-20.667 0 -39 -12 -55 -36s-26.667 -49.667 -32 -77l23 -3c33.333 -4 57.666 -7.83301 72.999 -11.5s27.666 -10.167 36.999 -19.5s14 -23 14 -41c0.666992 -30.667 -17 -53.667 -53 -69z" />
    <glyph glyph-name="uniFEDB" unicode="&#x643;" horiz-adv-x="416" arabic-form="initial" 
d="M206 337.5c34.667 -47 57.3359 -90.334 68.0029 -130.001s16 -82.5 16 -128.5c0 -24.667 -27 -44 -81 -58s-123.667 -21 -209 -21c-2.66699 0 -5 1.5 -7 4.5s-3 6.16699 -3 9.5v4c0 4 1 7.33301 3 10s4.33301 4 7 4c46 0 95.167 3.33301 147.5 10
s90.166 16.334 113.499 29.001c0.666992 58.667 -8 110.667 -26 156s-44.333 87 -79 125s-80.334 78.333 -137.001 121v3l-0.5 -0.5l-0.5 -0.5l1 3v33c91.333 51.333 194.666 98 309.999 140l1 -32c-95.333 -34 -189 -76.333 -281 -127l3 -2
c68 -54.667 119.333 -105.5 154 -152.5z" />
    <glyph glyph-name="uniFEDC" unicode="&#x643;" horiz-adv-x="460" arabic-form="medial" 
d="M466.5 28c1.66699 -2.66699 2.50098 -6 2.50098 -10v-4c0 -3.33301 -0.833008 -6.5 -2.5 -9.5s-3.83398 -4.5 -6.50098 -4.5h-78c-29.333 0 -52.5 3.66699 -69.5 11s-28.167 21.666 -33.5 42.999c-17.333 -16.667 -51 -29.834 -101 -39.501s-109.333 -14.5 -178 -14.5
c-2.66699 0 -5 1.5 -7 4.5s-3 6.16699 -3 9.5v4c0 4 1 7.33301 3 10s4.33301 4 7 4c46 0 95.167 3.33301 147.5 10s90.166 16.334 113.499 29.001c0.666992 58.667 -8 110.667 -26 156s-44.333 87 -79 125s-80.334 78.333 -137.001 121v3l-0.5 -0.5l-0.5 -0.5l1 3v33
c91.333 51.333 194.666 98 309.999 140l1 -32c-95.333 -34 -189 -76.333 -281 -127l3 -2c84.667 -68 143.834 -130.167 177.501 -186.5s53.167 -113.166 58.5 -170.499c2 -31.333 6.83301 -54.333 14.5 -69s17.334 -23.667 29.001 -27s28.5 -5 50.5 -5h78
c2.66699 0 4.83398 -1.33301 6.50098 -4z" />
    <glyph glyph-name="uniFEDE" unicode="&#x644;" horiz-adv-x="732" arabic-form="final" 
d="M738.5 28c1.66699 -2.66699 2.5 -6.00195 2.5 -10.002v-4c0 -3.33301 -0.833008 -6.5 -2.5 -9.5s-3.83398 -4.5 -6.50098 -4.5h-82c-40 0 -68 11.333 -84 34l1 -121c0.666992 -19.333 -10.166 -38.333 -32.499 -57s-53.5 -34 -93.5 -46s-84.333 -18 -133 -18
c-96 0 -156.333 18 -181 54s-37 67.667 -37 95c0 16 4.16699 55.167 12.5 117.5s17.166 120.5 26.499 174.5l28 -6c-7.33301 -41.333 -14.333 -86.666 -21 -135.999s-12 -91.333 -16 -126c-0.666992 -4 -1 -9.66699 -1 -17c0 -81.333 63 -122 189 -122
c38.667 0 81 5.33301 127 16s79.333 29 100 55l-5 763l31 8l4 -540c2.66699 -31.333 8.16699 -53.666 16.5 -66.999s19.5 -21.5 33.5 -24.5s36 -4.5 66 -4.5h51c2.66699 0 4.83398 -1.33301 6.50098 -4z" />
    <glyph glyph-name="uniFEDF" unicode="&#x644;" horiz-adv-x="350" arabic-form="initial" 
d="M257 342c4.66699 -139.333 6.99902 -223.667 6.99902 -253c0 -21.333 -14.667 -38.666 -44 -51.999c-24.667 -13.333 -57.167 -22.833 -97.5 -28.5s-81.166 -8.5 -122.499 -8.5c-2.66699 0 -5 1.5 -7 4.5s-3 6.16699 -3 9.5v4c0 4 1 7.33301 3 10s4.33301 4 7 4
c55.333 0 102.5 3.16699 141.5 9.5s71.5 18.166 97.5 35.499l-24 583l30 8c3.33301 -78 7.33301 -186.667 12 -326z" />
    <glyph glyph-name="uniFEE0" unicode="&#x644;" horiz-adv-x="348" arabic-form="medial" 
d="M354.5 28c1.66699 -2.66699 2.5 -6 2.5 -10v-4c0 -3.33301 -0.833008 -6.5 -2.5 -9.5s-3.83398 -4.5 -6.50098 -4.5c-87.333 0 -144.333 19.667 -171 59c-22.667 -39.333 -81.667 -59 -177 -59c-2.66699 0 -5 1.5 -7 4.5s-3 6.16699 -3 9.5v4c0 4 1 7.33301 3 10
s4.33301 4 7 4c52.667 0 91.5 4.33301 116.5 13s40.5 24 46.5 46l-20 569l32 8l18 -559c2 -51.333 55 -77 159 -77h-4c2.66699 0 4.83398 -1.33301 6.50098 -4zM166 116v-10v10z" />
    <glyph glyph-name="uniFEE2" unicode="&#x645;" horiz-adv-x="560" arabic-form="final" 
d="M566.5 28c1.66699 -2.66699 2.49902 -6.00098 2.49902 -10.001v-4c0 -3.33301 -0.833008 -6.5 -2.5 -9.5s-3.83398 -4.5 -6.50098 -4.5c-35.333 0 -61.333 0.833008 -78 2.5s-29.834 5.5 -39.501 11.5s-17.834 15.667 -24.501 29l-5 -33
c-4.66699 -22 -13 -38.667 -25 -50c-7.33301 -6.66699 -16.333 -10 -27 -10c-8 0 -17 2 -27 6l-208 93c-6 -45.333 -9 -92.333 -9 -141c0 -60 4 -134.667 12 -224l-31 -12c-6.66699 108 -10 186.333 -10 235c0 38 1.5 69.833 4.5 95.5s8.16699 47.834 15.5 66.501
c-4.66699 -4.66699 3.5 11.666 24.5 48.999s45.833 69.833 74.5 97.5s60.667 41.5 96 41.5c38 0 66.333 -12.667 85 -38s30 -58.666 34 -99.999c2.66699 -28 7.83398 -47.833 15.501 -59.5s19.834 -19.167 36.501 -22.5s45.334 -5 86.001 -5
c2.66699 0 4.83398 -1.33301 6.50098 -4zM385.499 24.499c3.66699 19.667 5.5 39.832 5.5 60.499c0 38.667 -6.83301 71.334 -20.5 98.001s-35.167 40 -64.5 40c-25.333 0 -47.166 -6 -65.499 -18s-34.333 -27.833 -48 -47.5s-29.834 -46.834 -48.501 -81.501l228 -100
c5.33301 12.667 9.83301 28.834 13.5 48.501z" />
    <glyph glyph-name="uniFEE3" unicode="&#x645;" horiz-adv-x="460" arabic-form="initial" 
d="M346.5 208.5c17 -32.333 25.5 -71.501 25.5 -117.501c0 -18 -1.33301 -37.667 -4 -59c-3.33301 -22 -6.83301 -38 -10.5 -48s-9.5 -18 -17.5 -24c-9.33301 -7.33301 -18.666 -11 -27.999 -11c-8.66699 0 -17.334 2 -26.001 6l-181 81
c-8.66699 -10.667 -19.667 -19.334 -33 -26.001s-28.333 -10 -45 -10h-27c-2.66699 0 -5 1.5 -7 4.5s-3 6.16699 -3 9.5v4c0 4 1 7.33301 3 10s4.33301 4 7 4h35c14 0 24.5 1.33301 31.5 4s15 10.834 24 24.501s20.833 37.167 35.5 70.5
c1.33301 2.66699 6.5 15.334 15.5 38.001s23.667 43 44 61s43.833 27 70.5 27c43.333 0 73.5 -16.167 90.5 -48.5zM337.5 23.999c3.66699 20 5.50098 40.666 5.50098 61.999c0 39.333 -6.83301 72 -20.5 98s-35.834 39 -66.501 39c-18.667 0 -34.667 -5.33301 -48 -16
s-26 -27.167 -38 -49.5s-26.667 -54.166 -44 -95.499l197 -87c6 12.667 10.833 29 14.5 49z" />
    <glyph glyph-name="uniFEE4" unicode="&#x645;" horiz-adv-x="513" arabic-form="medial" 
d="M519.5 28c1.66699 -2.66699 2.50586 -6 2.50586 -10v-4c0 -3.33301 -0.833008 -6.5 -2.5 -9.5s-3.83398 -4.5 -6.50098 -4.5c-35.333 -0 -61.333 0.833008 -78 2.5s-29.834 5.5 -39.501 11.5s-17.834 15.667 -24.501 29l-2 -9c-3.33301 -22.667 -7 -38.834 -11 -48.501
s-9.66699 -18.167 -17 -25.5c-9.33301 -7.33301 -19 -11 -29 -11c-7.33301 0 -15.666 2 -24.999 6l-182 81c-8.66699 -10.667 -19.834 -19.334 -33.501 -26.001s-28.834 -10 -45.501 -10h-26c-2.66699 0 -5 1.5 -7 4.5s-3 6.16699 -3 9.5v4c0 4 1 7.33301 3 10
s4.33301 4 7 4h35c14 0 24.5 1.33301 31.5 4s15 10.834 24 24.501s20.833 37.167 35.5 70.5c1.33301 2.66699 6.5 15.334 15.5 38.001s23.667 43 44 61s43.833 27 70.5 27c37.333 0 65.166 -12.667 83.499 -38s29.5 -58.666 33.5 -99.999
c3.33301 -28.667 8.66602 -48.834 15.999 -60.501s19.666 -19 36.999 -22s46.333 -4.5 87 -4.5c2.66699 0 4.83398 -1.33301 6.50098 -4zM337.506 24c3.66699 20 5.50098 40.666 5.50098 61.999c0 39.333 -6.83301 72 -20.5 98s-35.834 39 -66.501 39
c-18.667 0 -34.667 -5.33301 -48 -16s-26 -27.167 -38 -49.5s-26.667 -54.166 -44 -95.499l197 -87c6 12.667 10.833 29 14.5 49z" />
    <glyph glyph-name="uniFEE6" unicode="&#x646;" horiz-adv-x="775" arabic-form="final" 
d="M342 406l-38 33l33 40l40 -34zM781.5 28c1.66699 -2.66699 2.5 -6.00195 2.5 -10.002v-4c0 -3.33301 -0.833008 -6.5 -2.5 -9.5s-3.83398 -4.5 -6.50098 -4.5h-34c-39.333 0 -72 3.5 -98 10.5s-44 19.833 -54 38.5l10 -140c1.33301 -20 -9.16699 -39 -31.5 -57
s-55.833 -32.5 -100.5 -43.5s-97.667 -16.5 -159 -16.5c-96 0.666992 -156.333 18.834 -181 54.501s-37 67.167 -37 94.5c0 16 4.16699 55.167 12.5 117.5s17.166 120.5 26.499 174.5l28 -6c-7.33301 -41.333 -14.333 -86.666 -21 -135.999s-12 -91.333 -16 -126
c-0.666992 -4 -1 -9.66699 -1 -17c0 -81.333 63 -122 189 -122c60.667 0 112.334 4.83301 155.001 14.5s78.667 26.5 108 50.5l-32 392l32 9l15 -177c2.66699 -33.333 17.167 -55.5 43.5 -66.5s61.5 -16.5 105.5 -16.5h40c2.66699 0 4.83398 -1.33301 6.50098 -4z" />
    <glyph glyph-name="uniFEE7" unicode="&#x646;" horiz-adv-x="323" arabic-form="initial" 
d="M202 441l-37 33l33 40l40 -34zM223 323c1.33301 -44 2 -74.666 2 -91.999c2 -52.667 3 -100.667 3 -144c0 -20 -14 -36.667 -42 -50c-46 -24.667 -108 -37 -186 -37c-2.66699 0 -5 1.5 -7 4.5s-3 6.16699 -3 9.5v4c0 4 1 7.33301 3 10s4.33301 4 7 4
c43.333 0 82 3.16699 116 9.5s63.333 18.166 88 35.499l-12 236z" />
    <glyph glyph-name="uniFEE8" unicode="&#x646;" horiz-adv-x="312" arabic-form="medial" 
d="M136 436l-38 33l33 40l40 -34zM318.5 28c1.66699 -2.66699 2.49902 -6 2.49902 -10v-4c0 -3.33301 -0.833008 -6.5 -2.5 -9.5s-3.83398 -4.5 -6.50098 -4.5c-44.667 0 -79.667 4.5 -105 13.5s-41.666 21.167 -48.999 36.5c-8.66699 -14.667 -28.167 -26.667 -58.5 -36
s-63.5 -14 -99.5 -14c-2.66699 0 -5 1.5 -7 4.5s-3 6.16699 -3 9.5v4c0 4 1 7.33301 3 10s4.33301 4 7 4c36.667 0 65.167 3 85.5 9s39.5 15.667 57.5 29l-14 215l29 1l16 -212c26 -28 72 -42 138 -42c2.66699 0 4.83398 -1.33301 6.50098 -4z" />
    <glyph glyph-name="uniFEEA" unicode="&#x647;" horiz-adv-x="463" arabic-form="final" 
d="M469.5 28c1.66699 -2.66699 2.5 -6.00391 2.5 -10.0039v-4c0 -3.33301 -0.833008 -6.5 -2.5 -9.5s-3.83398 -4.5 -6.50098 -4.5h-9c-32 0 -60.5 4.16699 -85.5 12.5s-40.833 25.833 -47.5 52.5c-6.66699 -8.66699 -22 -15.667 -46 -21c-24 -4 -50.333 -6 -79 -6
s-50.5 1.83301 -65.5 5.5s-26.167 11.334 -33.5 23.001s-11 29.834 -11 54.501c0 28.667 9.5 57.834 28.5 87.501s44.167 54.5 75.5 74.5s65 30.667 101 32l-9 74l32 6l21 -238c3.33301 -40 7.5 -67.667 12.5 -83s15.333 -26.166 31 -32.499s42.5 -9.5 80.5 -9.5h4
c2.66699 0 4.83398 -1.33301 6.50098 -4zM263 75.4961c17.333 2.33301 33.668 6.16699 49.001 11.5l-18 194c-40 -2.66699 -73.5 -13.667 -100.5 -33s-47.167 -42.666 -60.5 -69.999s-20 -54.333 -20 -81l1 -13c8 -4.66699 17.167 -7.83398 27.5 -9.50098
s28.166 -2.5 53.499 -2.5c28 0 50.667 1.16699 68 3.5z" />
    <glyph glyph-name="uniFEEB" unicode="&#x647;" horiz-adv-x="582" arabic-form="initial" 
d="M462 215c22 -24.667 33.002 -54.332 33.002 -88.999c0 -26.667 -6.33301 -58 -19 -94c-1.33301 -6 -3.83301 -11 -7.5 -15s-9.83398 -8.33301 -18.501 -13c-10 -4.66699 -19 -7 -27 -7c-3.33301 0 -7.66602 0.666992 -12.999 2l-150 53
c-12 -22 -39.5 -36.167 -82.5 -42.5s-102.167 -9.5 -177.5 -9.5c-2.66699 0 -5 1.5 -7 4.5s-3 6.16699 -3 9.5v4c0 4 1 7.33301 3 10s4.33301 4 7 4h109c25.333 0 48.166 2 68.499 6s36.5 9.66699 48.5 17c-50.667 10 -89.334 23.333 -116.001 40s-40 39.667 -40 69
c0 32.667 7.83301 62.667 23.5 90s35.5 54.333 59.5 81l-56 26l12 29l249 -107c47.333 -20.667 82 -43.334 104 -68.001zM311.002 269.002l-133.001 55.999c-19.333 -21.333 -37.166 -46.166 -53.499 -74.499s-24.5 -54.5 -24.5 -78.5c0 -14.667 4.5 -26.667 13.5 -36
s23 -17.333 42 -24s46.833 -14.667 83.5 -24zM462.001 121.001c0 29.333 -8 54.332 -24 74.999s-47.667 40.334 -95 59.001l-69 -174l164 -58c16 27.333 24 60 24 98z" />
    <glyph glyph-name="uniFEEC" unicode="&#x647;" horiz-adv-x="438" arabic-form="medial" 
d="M444.5 28c1.66699 -2.66699 2.49609 -6.00195 2.49609 -10.002v-4c0 -3.33301 -0.833008 -6.5 -2.5 -9.5s-3.83398 -4.5 -6.50098 -4.5c-83.333 0 -130 1 -140 3c29.333 -18 44 -51 44 -99v-34c0 -13.333 -1 -23.666 -3 -30.999s-5.66699 -14.333 -11 -21
c-6.66699 -8 -13.167 -13.5 -19.5 -16.5s-17.166 -4.5 -32.499 -4.5c-71.333 0 -119.166 21.667 -143.499 65s-35.833 89.333 -34.5 138h-98c-2.66699 0 -5 1.5 -7 4.5s-3 6.16699 -3 9.5v4c0 4 1 7.33301 3 10s4.33301 4 7 4h97c4.66699 41.333 14.334 81.833 29.001 121.5
s33.334 72.334 56.001 98.001s47 38.5 73 38.5h40l9 -258h134c2.66699 0 4.83398 -1.33301 6.50098 -4zM254.996 254.998c-24 0 -45.501 -14.333 -64.501 -43s-33.667 -61.167 -44 -97.5s-15.166 -63.833 -14.499 -82.5h74c20 0 34.333 -0.5 43 -1.5
s15.667 -2.83301 21 -5.5l-6 229c-2 0.666992 -5 1 -9 1zM289.995 -31.502c-14 19.667 -37.999 29.5 -71.999 29.5h-87c2 -114.667 47.667 -172 137 -172c15.333 0 29.666 1.33301 42.999 4v73c0 24 -7 45.833 -21 65.5z" />
    <glyph glyph-name="uniFEEE" unicode="&#x648;" horiz-adv-x="421" arabic-form="final" 
d="M427.5 28c1.66699 -2.66699 2.50098 -5.99902 2.50098 -9.99902v-4c0 -3.33301 -0.833008 -6.5 -2.5 -9.5s-3.83398 -4.5 -6.50098 -4.5h-90c-14 -60.667 -47 -111.834 -99 -153.501s-107.667 -73.5 -167 -95.5l-13 31c141.333 56 224 129.667 248 221
c-29.333 -2.66699 -68.333 -4 -117 -4c-30.667 0 -52 0.666992 -64 2c-10.667 2 -18.334 4.33301 -23.001 7s-10.334 8 -17.001 16c-5.33301 7.33301 -8.66602 14 -9.99902 20s-2 15 -2 27c0 24 4.16699 53 12.5 87s22.5 64.333 42.5 91s46.667 40 80 40
c56 0 92.5 -25 109.5 -75s25.5 -103.333 25.5 -160c0 -10 -0.333008 -17.333 -1 -22h85c2.66699 0 4.83398 -1.33301 6.50098 -4zM307.001 43.001l0.00195312 7c-0.666992 69.333 -9.33398 120.833 -26.001 154.5s-43 50.5 -79 50.5c-34.667 0 -61.334 -20 -80.001 -60
s-28 -90.667 -28 -152c11.333 -6 39 -9 83 -9c62.667 0 106 3 130 9z" />
    <glyph glyph-name="uniFEF0" unicode="&#x649;" horiz-adv-x="642" arabic-form="final" 
d="M648.5 28c1.66699 -2.66699 2.5 -6.00098 2.5 -10.001v-4c0 -3.33301 -0.833008 -6.5 -2.5 -9.5s-3.83398 -4.5 -6.50098 -4.5l-63 -1c18 -13.333 27 -33 27 -59c0 -64 -27.5 -108.167 -82.5 -132.5s-126.833 -36.5 -215.5 -36.5c-95.333 0 -155.5 18 -180.5 54
s-37.5 67.333 -37.5 94c0 16.667 4.16699 55.834 12.5 117.501s17.166 119.834 26.499 174.501l28 -5c-7.33301 -42 -14.333 -87.667 -21 -137s-12 -91.333 -16 -126c-0.666992 -4 -1 -9.66699 -1 -17c0 -48.667 19 -81.334 57 -98.001s81.333 -25 130 -25
c59.333 0 109.833 5 151.5 15s78.834 30 111.501 60c2 22 3 40 3 54c0 20 -3.5 34.5 -10.5 43.5s-19.5 14.833 -37.5 17.5s-47.333 4 -88 4h-53l14 35h245c2.66699 0 4.83398 -1.33301 6.50098 -4z" />
    <glyph glyph-name="uniFEF2" unicode="&#x64a;" horiz-adv-x="642" arabic-form="final" 
d="M648.5 28c1.66699 -2.66699 2.5 -6.00098 2.5 -10.001v-4c0 -3.33301 -0.833008 -6.5 -2.5 -9.5s-3.83398 -4.5 -6.50098 -4.5l-63 -1c18 -13.333 27 -33 27 -59c0 -64 -27.5 -108.167 -82.5 -132.5s-126.833 -36.5 -215.5 -36.5c-95.333 0 -155.5 18 -180.5 54
s-37.5 67.333 -37.5 94c0 16.667 4.16699 55.834 12.5 117.501s17.166 119.834 26.499 174.501l28 -5c-7.33301 -42 -14.333 -87.667 -21 -137s-12 -91.333 -16 -126c-0.666992 -4 -1 -9.66699 -1 -17c0 -48.667 19 -81.334 57 -98.001s81.333 -25 130 -25
c59.333 0 109.833 5 151.5 15s78.834 30 111.501 60c2 22 3 40 3 54c0 20 -3.5 34.5 -10.5 43.5s-19.5 14.833 -37.5 17.5s-47.333 4 -88 4h-53l14 35h245c2.66699 0 4.83398 -1.33301 6.50098 -4zM260 -354.001l39 -34l-33 -38l-37 32zM357 -358.001l40 -33l-33 -39l-37 32
z" />
    <glyph glyph-name="uniFEF3" unicode="&#x64a;" horiz-adv-x="315" arabic-form="initial" 
d="M225 231c2 -52.667 3 -100.666 3 -143.999c0 -20 -14 -36.667 -42 -50c-46 -24.667 -108 -37 -186 -37c-2.66699 0 -5 1.5 -7 4.5s-3 6.16699 -3 9.5v4c0 4 1 7.33301 3 10s4.33301 4 7 4c43.333 0 82 3.16699 116 9.5s63.333 18.166 88 35.499l-12 236l31 10
c1.33301 -44 2 -74.667 2 -92zM46 -100.999l40 -33l-34 -39l-37 33zM144 -103.999l39 -34l-33 -39l-37 32z" />
    <glyph glyph-name="uniFEF4" unicode="&#x64a;" horiz-adv-x="312" arabic-form="medial" 
d="M318.5 28c1.66699 -2.66699 2.49902 -6 2.49902 -10v-4c0 -3.33301 -0.833008 -6.5 -2.5 -9.5s-3.83398 -4.5 -6.50098 -4.5c-44.667 0 -79.667 4.5 -105 13.5s-41.666 21.167 -48.999 36.5c-8.66699 -14.667 -28.167 -26.667 -58.5 -36s-63.5 -14 -99.5 -14
c-2.66699 0 -5 1.5 -7 4.5s-3 6.16699 -3 9.5v4c0 4 1 7.33301 3 10s4.33301 4 7 4c36.667 0 65.167 3 85.5 9s39.5 15.667 57.5 29l-14 215l29 1l16 -212c26 -28 72 -42 138 -42c2.66699 0 4.83398 -1.33301 6.50098 -4zM86.999 -118l39 -34l-33 -38l-37 32zM183.999 -122
l40 -33l-33 -39l-37 32z" />
    <glyph glyph-name=".notdef" horiz-adv-x="681" 
d="M558 -293h-431v1362h431v-1362zM229 978v-45h88v-51h-90v-45h227v45h-90v51h90v45h-225zM227 802v-142h227v47h-90v95h-137zM317 707h-45v49h45v-49zM227 624v-45h90v-51h-90v-45h137v96h90v45h-227zM409 542v-90h-182v-46h227v136h-45zM317 376v-77h47v32h45v-64h-137
v109h-45v-154h227v154h-137zM227 140v-154h227v154h-227zM409 31h-137v64h137v-64zM227 -45v-45h96l-96 -64v-45h227v45h-139l95 64h44v45h-227z" />
    <glyph glyph-name="space" unicode=" " horiz-adv-x="128" 
 />
    <glyph glyph-name="exclam" unicode="!" horiz-adv-x="206" 
d="M116 135l-31 -5l-17 519l34 18zM75.5 13c-7 8 -10.5 17.333 -10.5 28c0 11.333 3.66699 20.666 11 27.999s16.333 11 27 11c11.333 0 20.666 -3.66699 27.999 -11s11 -16.666 11 -27.999c0 -10.667 -3.66699 -20 -11 -28s-16.666 -12 -27.999 -12s-20.5 4 -27.5 12z" />
    <glyph glyph-name="quotedbl" unicode="&#x22;" horiz-adv-x="392" 
d="M101 512l-10 160l-3 75h59l-1 -75l-10 -160h-35zM255 512l-10 160l-3 75h59l-1 -75l-10 -160h-35z" />
    <glyph glyph-name="numbersign" unicode="#" horiz-adv-x="518" 
d="M128 231h-90v38h95l23 182h-96v42h100l26 208h38l-27 -208h161l29 208h38l-29 -208h88v-42h-91l-22 -182h92v-38h-97l-28 -231h-38l27 231h-160l-29 -231h-39zM333 269l21 182h-159l-23 -182h161z" />
    <glyph glyph-name="dollar" unicode="$" horiz-adv-x="518" 
d="M244 -119l0.00195312 106.999c-34 3.33301 -66.5 12.5 -97.5 27.5s-58.5 33.5 -82.5 55.5l25 35c55.333 -51.333 113.333 -77 174 -77c45.333 0 79.666 11.833 102.999 35.5s35 55.834 35 96.501c0 59.333 -26.333 106.666 -79 141.999c-20.667 14 -45.667 27.667 -75 41
c-31.333 14.667 -57.666 29.667 -78.999 45s-39 33.666 -53 54.999c-15.333 22.667 -23 52.334 -23 89.001c0 44.667 14 82.334 42 113.001s64.667 48.667 110 54v108h42v-106c32 -2.66699 59.667 -10.667 83 -24s45.333 -31.333 66 -54l-30 -32
c-22.667 23.333 -43.834 40.166 -63.501 50.499s-44.834 15.5 -75.501 15.5c-36.667 0 -66.5 -11.5 -89.5 -34.5s-34.5 -52.5 -34.5 -88.5c0 -28.667 7 -52.667 21 -72s33.667 -36.333 59 -51c25.333 -15.333 47.333 -26 66 -32c57.333 -25.333 99 -54.666 125 -87.999
s39 -75.666 39 -126.999c0 -50.667 -15.167 -91.834 -45.5 -123.501s-70.5 -49.5 -120.5 -53.5v-107h-42z" />
    <glyph glyph-name="percent" unicode="%" horiz-adv-x="868" 
d="M84.5 368c-27.667 38 -41.5 94.333 -41.5 169c0 72.667 13.833 127.834 41.5 165.501s65.167 56.5 112.5 56.5c45.333 0 82 -18.833 110 -56.5s42 -92.834 42 -165.501c0 -74 -14 -130.167 -42 -168.5s-64.667 -57.5 -110 -57.5c-47.333 0 -84.833 19 -112.5 57z
M274.5 394c20.333 30.667 30.498 78.332 30.498 142.999c0 62.667 -10.167 109.334 -30.5 140.001s-46.166 46 -77.499 46c-33.333 0 -60.166 -15 -80.499 -45s-30.5 -77 -30.5 -141s10.333 -111.5 31 -142.5s47.334 -46.5 80.001 -46.5c31.333 0 57.166 15.333 77.499 46z
M212.998 -13.002l396 735h43l-397 -735h-42zM561.498 43.498c-27.667 37.667 -41.5 93.832 -41.5 168.499c0 73.333 13.833 128.833 41.5 166.5s65.167 56.5 112.5 56.5c45.333 0 82 -19 110 -57s42 -93.333 42 -166c0 -73.333 -14 -129.166 -42 -167.499
s-64.667 -57.5 -110 -57.5c-47.333 0 -84.833 18.833 -112.5 56.5zM751.498 68.9961c20.333 30.667 30.5 78.333 30.5 143c0 63.333 -10.167 110.166 -30.5 140.499s-46.166 45.5 -77.499 45.5c-33.333 0 -60 -15 -80 -45s-30 -77 -30 -141
c0 -63.333 10.167 -110.666 30.5 -141.999s46.833 -47 79.5 -47c31.333 0 57.166 15.333 77.499 46z" />
    <glyph glyph-name="ampersand" unicode="&#x26;" horiz-adv-x="622" 
d="M139.5 11c-31 16 -55.502 38.8359 -73.502 68.5029s-27 63.5 -27 101.5c0 29.333 6.16699 55.666 18.5 78.999s28.5 44.333 48.5 63s46 40 78 64c-32 68 -48 127.667 -48 179c0 30 6.66699 56.833 20 80.5s31.333 42.167 54 55.5s47.334 20 74.001 20
c38 0 67.667 -11.833 89 -35.5s32 -54.5 32 -92.5c0 -28 -7.16699 -53.667 -21.5 -77s-32 -44.333 -53 -63s-51.833 -43.667 -92.5 -75c23.333 -42.667 52.333 -84.334 87 -125.001s72.334 -78.334 113.001 -113.001c50 69.333 86.667 146.333 110 231h47
c-32.667 -106.667 -75 -194 -127 -262c46.667 -35.333 93 -62.333 139 -81l-15 -42c-48 15.333 -99.333 44 -154 86c-59.333 -57.333 -124 -86 -194 -86c-38.667 0 -73.5 8 -104.5 24zM220.998 420.003c33.333 24 59 43.833 77 59.5s32.833 32.834 44.5 51.501
s17.5 39 17.5 61c0 25.333 -6.33301 46.666 -19 63.999s-32 26 -58 26c-30.667 0 -55.167 -10.833 -73.5 -32.5s-27.5 -49.5 -27.5 -83.5c0 -40 13 -88.667 39 -146zM408.998 103.003c-86.667 78.667 -156.001 161.331 -208.001 247.998
c-36 -27.333 -63.667 -54.166 -83 -80.499s-29 -55.166 -29 -86.499c0 -30.667 7.33301 -57.667 22 -81s34.167 -41.333 58.5 -54s50.5 -19 78.5 -19c54.667 0 108.334 24.333 161.001 73z" />
    <glyph glyph-name="quotesingle" unicode="'" horiz-adv-x="238" 
d="M101 512l-10 160l-3 75h59l-1 -75l-10 -160h-35z" />
    <glyph glyph-name="parenleft" unicode="(" horiz-adv-x="289" 
d="M232 -193c-45.333 74.667 -79.833 152.169 -103.5 232.502s-35.5 167.166 -35.5 260.499s11.833 179.666 35.5 258.999s58.167 157.333 103.5 234l26 -8c-41.333 -70 -72.666 -146.167 -93.999 -228.5s-32 -167.833 -32 -256.5s10.667 -174.167 32 -256.5
s52.666 -158.5 93.999 -228.5z" />
    <glyph glyph-name="parenright" unicode=")" horiz-adv-x="289" 
d="M30 -185c42 70.667 73.833 147.165 95.5 229.498s32.5 167.5 32.5 255.5s-10.833 173.167 -32.5 255.5s-53.5 158.833 -95.5 229.5l27 8c45.333 -76.667 79.833 -154.667 103.5 -234s35.5 -165.666 35.5 -258.999s-11.833 -180.166 -35.5 -260.499
s-58.167 -157.833 -103.5 -232.5z" />
    <glyph glyph-name="asterisk" unicode="*" horiz-adv-x="427" 
d="M146 479l-21 11l66 104l-107 43l7 28l113 -31l8 123l20 2l6 -122l116 29l10 -26l-107 -43l64 -103l-16 -16l-80 100z" />
    <glyph glyph-name="plus" unicode="+" horiz-adv-x="517" 
d="M236 118v217h-199v42h199v217h45v-217h199v-42h-199v-217h-45z" />
    <glyph glyph-name="comma" unicode="," horiz-adv-x="237" 
d="M51 -136c26.667 14 47.334 32.3311 62.001 54.998s21.667 48.334 21 77.001c-0.666992 -0.666992 -4.33398 -1 -11.001 -1c-14 0 -25.167 3.83301 -33.5 11.5s-12.5 18.834 -12.5 33.501c0 14 4.66699 25.333 14 34s20.333 13 33 13c16 0 29.167 -7.33301 39.5 -22
s15.5 -34 15.5 -58c0 -38 -10 -71.833 -30 -101.5s-47.333 -54.5 -82 -74.5z" />
    <glyph glyph-name="hyphen" unicode="-" horiz-adv-x="323" 
d="M43 247v43h238v-43h-238z" />
    <glyph glyph-name="period" unicode="." horiz-adv-x="180" 
d="M61.5 12.5c-7 7.66699 -10.5 16.5 -10.5 26.5c0 10.667 3.66699 19.667 11 27s16 11 26 11c10.667 0 19.667 -3.66699 27 -11s11 -16.333 11 -27c0 -10 -3.66699 -18.833 -11 -26.5s-16.333 -11.5 -27 -11.5s-19.5 3.83301 -26.5 11.5z" />
    <glyph glyph-name="slash" unicode="/" horiz-adv-x="384" 
d="M9 -173l327 938h44l-328 -938h-43z" />
    <glyph glyph-name="zero" unicode="0" horiz-adv-x="517" 
d="M112 83c-35.333 58 -53 145.667 -53 263c0 116 17.667 203.167 53 261.5s84.333 87.5 147 87.5c61.333 0 109.5 -29.167 144.5 -87.5s52.5 -145.5 52.5 -261.5c0 -115.333 -17.333 -202.5 -52 -261.5s-83 -88.5 -145 -88.5c-62.667 0 -111.667 29 -147 87zM379 101.5
c29.333 53.667 44 135.167 44 244.5c0 108.667 -14.5 189.667 -43.5 243s-69.167 80 -120.5 80s-91.833 -26.833 -121.5 -80.5s-44.5 -134.5 -44.5 -242.5s14.833 -189.167 44.5 -243.5s70.167 -81.5 121.5 -81.5c50.667 0 90.667 26.833 120 80.5z" />
    <glyph glyph-name="one" unicode="1" horiz-adv-x="517" 
d="M99 34l161.999 0.000976562v586h-123v19c29.333 6.66699 53.833 13.167 73.5 19.5s36.834 14.166 51.501 23.499h30v-648h151v-25h-345v25z" />
    <glyph glyph-name="two" unicode="2" horiz-adv-x="517" 
d="M53 26l155.001 163.998c38.667 42.667 71 81.334 97 116.001c31.333 42 53.666 78.5 66.999 109.5s20 61.5 20 91.5c0 49.333 -14 88.5 -42 117.5s-66.667 43.5 -116 43.5c-57.333 0 -111 -28.667 -161 -86l-19 20c30.667 32.667 60.5 56.334 89.5 71.001
s60.833 22 95.5 22c57.333 0 102.5 -16.667 135.5 -50s49.5 -79 49.5 -137c0 -30 -6.66699 -61.667 -20 -95s-34.333 -70.333 -63 -111c-23.333 -31.333 -49.833 -63.5 -79.5 -96.5l-124.5 -135.5l-32 -34l129 1h225v-28h-406v17z" />
    <glyph glyph-name="three" unicode="3" horiz-adv-x="514" 
d="M60 106c27.333 -26.667 55.332 -47.499 83.999 -62.499s64 -22.5 106 -22.5c32.667 0 61.834 6.83301 87.501 20.5s45.667 32.5 60 56.5s21.5 51.333 21.5 82c0 58 -21.833 100.167 -65.5 126.5s-102.167 40.166 -175.5 41.499v27
c143.333 1.33301 215 53.666 215 156.999c0 41.333 -13.333 74.333 -40 99s-62.334 37 -107.001 37c-56.667 0 -109 -23.667 -157 -71l-18 20c52 52 110.333 78 175 78c53.333 0 97 -14.167 131 -42.5s51 -67.5 51 -117.5c0 -38 -11.5 -72 -34.5 -102
s-55.5 -52.667 -97.5 -68v-4c44.667 -9.33301 81.834 -30.666 111.501 -63.999s44.5 -72 44.5 -116c0 -36.667 -8.66699 -69 -26 -97s-41.333 -49.667 -72 -65s-65.667 -23 -105 -23c-38 0 -75.5 7.66699 -112.5 23s-68.5 37 -94.5 65z" />
    <glyph glyph-name="four" unicode="4" horiz-adv-x="517" 
d="M342 212h-317v19l317 451h31v-443h103v-27h-103v-203h-31v203zM342 239v257.999l1 92c0 18.667 -0.333008 31 -1 37h-8c-7.33301 -13.333 -19 -30.666 -35 -51.999c-14.667 -20 -23.667 -32.667 -27 -38l-210 -297h280z" />
    <glyph glyph-name="five" unicode="5" horiz-adv-x="517" 
d="M132.5 18c-37.667 14.667 -69.165 35.334 -94.498 62.001l19 20c47.333 -52.667 109.333 -79 186 -79c34 0 64.667 8.5 92 25.5s48.833 40.333 64.5 70s23.5 62.5 23.5 98.5c0 56 -15.833 100.833 -47.5 134.5s-74.834 50.5 -129.501 50.5
c-24 0 -45.167 -3.5 -63.5 -10.5s-39.5 -18.5 -63.5 -34.5l-25 17l24 310h302v-29h-273l-25 -268c25.333 14 47.666 24.167 66.999 30.5s41 9.5 65 9.5c64.667 0 114.5 -18.333 149.5 -55s52.5 -88 52.5 -154c0 -42 -9.33301 -79.833 -28 -113.5
s-44.167 -59.834 -76.5 -78.501s-68.166 -28 -107.499 -28c-36.667 0 -73.834 7.33301 -111.501 22z" />
    <glyph glyph-name="six" unicode="6" horiz-adv-x="517" 
d="M130 596.5c43.333 65.667 103.002 98.5 179.002 98.5c26 0 50 -4.66699 72 -14s43.333 -25 64 -47l-19 -21c-33.333 36 -72.333 54 -117 54c-42.667 0 -80 -12.833 -112 -38.5s-56.667 -63.167 -74 -112.5s-26 -108 -26 -176l1 -33
c24.667 30.667 53.167 55.167 85.5 73.5s64.166 27.5 95.499 27.5c60 0 105.667 -17.5 137 -52.5s47 -85.5 47 -151.5c0 -38 -8 -73 -24 -105s-37.833 -57.167 -65.5 -75.5s-58.5 -27.5 -92.5 -27.5c-42.667 0 -80.334 12.5 -113.001 37.5s-58 61.333 -76 109
s-27 104.5 -27 170.5c0 123.333 21.667 217.833 65 283.5zM154.502 85.5c31.667 -42.333 74.165 -63.5 127.498 -63.5c28 0 53.333 8.16699 76 24.5s40.334 38.5 53.001 66.5s19 58.333 19 91c0 56 -13.333 99.667 -40 131s-65.667 47 -117 47
c-32 0 -63.167 -9.5 -93.5 -28.5s-57.166 -45.167 -80.499 -78.5c5.33301 -84 23.833 -147.167 55.5 -189.5z" />
    <glyph glyph-name="seven" unicode="7" horiz-adv-x="517" 
d="M267 352.5c32.667 96.333 86 196.832 160 301.499h-371v28h407v-21c-52.667 -69.333 -94 -136.166 -124 -200.499s-51.833 -131.833 -65.5 -202.5s-22.5 -153.667 -26.5 -249h-37c5.33301 132.667 24.333 247.167 57 343.5z" />
    <glyph glyph-name="eight" unicode="8" horiz-adv-x="514" 
d="M153.5 20c-32.333 16 -57.5 37.6631 -75.5 64.9961s-27 57.666 -27 90.999c0 36.667 12.5 73.334 37.5 110.001s58.5 64.334 100.5 83.001v6c-34 23.333 -59 48.333 -75 75s-24 54.334 -24 83.001c0 29.333 7.5 56.333 22.5 81s35.667 44.334 62 59.001
s55.833 22 88.5 22c54.667 0 98.167 -15.667 130.5 -47s48.5 -73.333 48.5 -126c0 -28.667 -9 -59.667 -27 -93s-42 -61 -72 -83v-6c44 -24 75.167 -50.167 93.5 -78.5s27.5 -59.833 27.5 -94.5c0 -30.667 -8.5 -59.167 -25.5 -85.5s-41 -47.166 -72 -62.499
s-65.833 -23 -104.5 -23c-40 0 -76.167 8 -108.5 24zM411 520.996c0 44.667 -13.667 80.666 -41 107.999s-63.333 41 -108 41c-42 0 -75.667 -12.833 -101 -38.5s-38 -58.5 -38 -98.5c0 -43.333 15.833 -78.166 47.5 -104.499s79.167 -51.833 142.5 -76.5
c65.333 52 98 108.333 98 169zM384 61.9951c30.667 28 45.999 63.666 45.999 106.999c0 32 -7.83301 58.333 -23.5 79s-35.667 37.834 -60 51.501s-58.833 29.5 -103.5 47.5l-17 7.5l-15 6.5c-43.333 -26 -75.5 -54 -96.5 -84s-31.5 -62.333 -31.5 -97
c0 -28.667 7.83301 -55.167 23.5 -79.5s37.334 -43.833 65.001 -58.5s58.167 -22 91.5 -22c50 0 90.333 14 121 42z" />
    <glyph glyph-name="nine" unicode="9" horiz-adv-x="517" 
d="M79 591c16 32 37.833 57.3311 65.5 75.998s57.834 28 90.501 28c67.333 0 120.166 -27 158.499 -81s57.5 -133 57.5 -237c0 -123.333 -21.667 -217.666 -65 -282.999s-103.333 -98 -180 -98c-56.667 0 -101.667 19.333 -135 58l19 22c35.333 -36.667 74.333 -55 117 -55
c44.667 0 83.5 14.333 116.5 43s57.833 70.334 74.5 125.001s24 119.667 22 195c-14.667 -30 -40.167 -54.667 -76.5 -74s-71.833 -29 -106.5 -29c-58.667 0 -103.667 17.333 -135 52s-47 85.667 -47 153c0 38 8 73 24 105zM125.5 353.998
c26.333 -31.333 65.5 -47 117.5 -47c32 0 63.167 9.83301 93.5 29.5s57.833 47.167 82.5 82.5c-5.33301 79.333 -23.5 140.833 -54.5 184.5s-74.5 65.5 -130.5 65.5c-28.667 0 -54.167 -8.33301 -76.5 -25s-39.833 -39 -52.5 -67s-19 -58.333 -19 -91
c0 -56.667 13.167 -100.667 39.5 -132z" />
    <glyph glyph-name="colon" unicode=":" horiz-adv-x="260" 
d="M62.5 205.5c-7 7.66699 -10.5 16.833 -10.5 27.5c0 11.333 3.66699 20.666 11 27.999s16.333 11 27 11s19.667 -3.66699 27 -11s11 -16.666 11 -27.999c0 -10 -3.66699 -19 -11 -27s-16.333 -12 -27 -12c-11.333 0 -20.5 3.83301 -27.5 11.5zM62.5 12.499
c-7 7.66699 -10.5 16.833 -10.5 27.5c0 11.333 3.66699 20.666 11 27.999s16.333 11 27 11s19.667 -3.66699 27 -11s11 -16.666 11 -27.999c0 -10 -3.66699 -19 -11 -27s-16.333 -12 -27 -12c-11.333 0 -20.5 3.83301 -27.5 11.5z" />
    <glyph glyph-name="semicolon" unicode=";" horiz-adv-x="227" 
d="M85.5 423.5c-7 7.66699 -10.5 16.834 -10.5 27.501c0 11.333 3.83301 20.666 11.5 27.999s16.5 11 26.5 11c11.333 0 20.666 -3.66699 27.999 -11s11 -16.666 11 -27.999c0 -10.667 -3.66699 -19.834 -11 -27.501s-16.666 -11.5 -27.999 -11.5s-20.5 3.83301 -27.5 11.5z
M51 -136c26.667 14 47.334 32.3311 62.001 54.998s21.667 48.334 21 77.001c-0.666992 -0.666992 -4.33398 -1 -11.001 -1c-14 0 -25.167 3.83301 -33.5 11.5s-12.5 18.834 -12.5 33.501c0 14 4.66699 25.333 14 34s20.333 13 33 13c16 0 29.167 -7.33301 39.5 -22
s15.5 -34 15.5 -58c0 -38 -10 -71.833 -30 -101.5s-47.333 -54.5 -82 -74.5z" />
    <glyph glyph-name="less" unicode="&#x3c;" horiz-adv-x="517" 
d="M480 157l-443 177v49l443 176v-47l-392 -151v-5l392 -152v-47z" />
    <glyph glyph-name="equal" unicode="=" horiz-adv-x="517" 
d="M37 446v42h443v-42h-443zM37 227v42h443v-42h-443z" />
    <glyph glyph-name="greater" unicode="&#x3e;" horiz-adv-x="517" 
d="M37 157v47l393 152v5l-393 151v47l443 -176v-49z" />
    <glyph glyph-name="question" unicode="?" horiz-adv-x="436" 
d="M177 193c-2 12 -3.00098 24.001 -3.00098 36.001c0 54.667 23.667 111 71 169c30 35.333 51.833 65.5 65.5 90.5s20.5 51.167 20.5 78.5c0 35.333 -10.667 65.166 -32 89.499s-51.666 36.5 -90.999 36.5c-26 0 -51.167 -6.16699 -75.5 -18.5s-45.5 -29.5 -63.5 -51.5
l-29 28c52 56.667 110.333 85 175 85c49.333 0 89.166 -15.167 119.499 -45.5s45.5 -70.833 45.5 -121.5c0 -28 -7.33301 -56.667 -22 -86s-36.667 -61 -66 -95c-25.333 -33.333 -44.166 -62.5 -56.499 -87.5s-18.5 -51.833 -18.5 -80.5c0 -6 0.666992 -15 2 -27h-42z
M168.999 0.500977c-8.66699 9 -13 20.5 -13 34.5c0 16 4.33301 28.667 13 38s19.334 14 32.001 14c13.333 0 24.5 -4.66699 33.5 -14s13.5 -22 13.5 -38c0 -14 -4.66699 -25.5 -14 -34.5s-20.333 -13.5 -33 -13.5s-23.334 4.5 -32.001 13.5z" />
    <glyph glyph-name="at" unicode="@" horiz-adv-x="880" 
d="M274 -132c-44 16.667 -81.666 41.3291 -112.999 73.9961c-34 31.333 -60 70.5 -78 117.5s-27 99.5 -27 157.5c0 68.667 11.333 131.834 34 189.501s54.667 107.167 96 148.5c39.333 40.667 84.833 72 136.5 94s105.834 33 162.501 33c52 0 98.833 -8 140.5 -24
s77.167 -39.333 106.5 -70c29.333 -29.333 51.833 -65 67.5 -107s23.5 -89 23.5 -141c0 -44 -5.83301 -83.667 -17.5 -119s-27.5 -65.333 -47.5 -90c-19.333 -23.333 -40.833 -41.166 -64.5 -53.499s-46.834 -18.5 -69.501 -18.5c-30 0 -54.167 6.83301 -72.5 20.5
s-28.5 34.167 -30.5 61.5h-2c-47.333 -50 -91.666 -75 -132.999 -75c-35.333 0 -64.5 12.667 -87.5 38s-34.5 61.666 -34.5 108.999c0 26.667 4.5 54.667 13.5 84s21.833 55.333 38.5 78c18 24.667 39.667 44.167 65 58.5s53.333 21.5 84 21.5
c37.333 0 66.666 -17 87.999 -51h2l10 42h38l-38 -203c-6.66699 -24.667 -10 -47.334 -10 -68.001c0 -51.333 24.333 -77 73 -77c18.667 0 37 5.33301 55 16s34.333 26.334 49 47.001c15.333 21.333 27.5 46.833 36.5 76.5s13.5 62.834 13.5 99.501
c0 46 -6.83301 88 -20.5 126s-33.5 70 -59.5 96c-26.667 27.333 -58.667 48.333 -96 63s-79 22 -125 22c-49.333 0 -97.333 -10.167 -144 -30.5s-87.334 -49.166 -122.001 -86.499c-36.667 -38 -65.5 -83 -86.5 -135s-31.5 -109.333 -31.5 -172
c0 -50.667 7.83301 -97.167 23.5 -139.5s37.834 -78.5 66.501 -108.5c28.667 -29.333 63.167 -51.666 103.5 -66.999s84.166 -23 131.499 -23c66 0 126.333 17 181 51l17 -34c-58.667 -37.333 -125.667 -56 -201 -56c-52.667 0 -101 8.33301 -145 25zM509.001 175.995
l34 187.001c-12 20 -24 33.833 -36 41.5s-26.333 11.5 -43 11.5c-44 0 -82.333 -22 -115 -66c-13.333 -19.333 -23.5 -40.833 -30.5 -64.5s-10.5 -46.834 -10.5 -69.501c0 -38 8 -66 24 -84s36.667 -27 62 -27c32.667 0 71 23.667 115 71z" />
    <glyph glyph-name="A" unicode="A" horiz-adv-x="558" 
d="M265 702h38l245 -693h-37l-81 242h-295l-81 -242h-34zM418 277l-45.001 143.999c-9.33301 24 -23.333 65 -42 123c-11.333 38.667 -26.333 81.334 -45 128.001h-5l-9 -24c-13.333 -33.333 -25.666 -68 -36.999 -104l-8 -23c-8 -27.333 -19 -61 -33 -101l-45 -143h269z
" />
    <glyph glyph-name="B" unicode="B" horiz-adv-x="623" 
d="M113 702h186c68 0 122.333 -13.167 163 -39.5s61 -67.5 61 -123.5c0 -39.333 -9.66699 -72.666 -29 -99.999s-46.333 -46 -81 -56v-5c49.333 -6.66699 87.5 -25.167 114.5 -55.5s40.5 -68.833 40.5 -115.5c0 -66.667 -23.5 -116.334 -70.5 -149.001
s-109.5 -49 -187.5 -49h-197v693zM276 390c142 0 213 47.667 213 143c0 48.667 -16.5 84.667 -49.5 108s-85.167 35 -156.5 35h-136v-286h129zM297 34c77.333 0 136.167 14.5 176.5 43.5s60.5 71.833 60.5 128.5c0 52 -20 91.5 -60 118.5s-99 40.5 -177 40.5h-150v-331h150z
" />
    <glyph glyph-name="C" unicode="C" horiz-adv-x="608" 
d="M202 43.5c-44 31.667 -77.333 74.832 -100 129.499s-34 116 -34 184c0 68.667 11.667 130 35 184s57.333 96.5 102 127.5s97.334 46.5 158.001 46.5c32 0 62.833 -6.33301 92.5 -19s56.167 -32 79.5 -58l-16 -23c-44 46.667 -96.333 70 -157 70
c-56 0 -103.333 -14.167 -142 -42.5s-67.667 -67.166 -87 -116.499s-29 -105.333 -29 -168c0 -62 9.5 -118.333 28.5 -169s47.667 -90.834 86 -120.501s85.166 -44.5 140.499 -44.5c34 0 65.167 6.33301 93.5 19s56.833 34.334 85.5 65.001l18 -19
c-28 -32 -58 -55.5 -90 -70.5s-68 -22.5 -108 -22.5c-60 0 -112 15.833 -156 47.5z" />
    <glyph glyph-name="D" unicode="D" horiz-adv-x="651" 
d="M113 9v693h157c102 0 180 -29.5 234 -88.5s81 -144.167 81 -255.5c0 -110 -27.167 -195.667 -81.5 -257s-131.833 -92 -232.5 -92h-158zM147 34l118 -0.000976562c89.333 0 158.833 27.833 208.5 83.5s74.5 135.834 74.5 240.501c0 102.667 -24.333 181.167 -73 235.5
s-118.667 81.5 -210 81.5h-118v-641z" />
    <glyph glyph-name="E" unicode="E" horiz-adv-x="555" 
d="M113 702h373v-27h-339v-283h285v-30h-285v-325h349v-28h-383v693z" />
    <glyph glyph-name="F" unicode="F" horiz-adv-x="514" 
d="M113 702h371v-27h-337v-299h284v-26h-284v-341h-34v693z" />
    <glyph glyph-name="G" unicode="G" horiz-adv-x="652" 
d="M104.5 542c24.333 54 59.498 96.334 105.498 127.001s100.667 46 164 46c35.333 0 67.833 -5.66699 97.5 -17s57.834 -31.333 84.501 -60l-19 -23c-23.333 24.667 -48.166 42.5 -74.499 53.5s-55.833 16.5 -88.5 16.5c-58.667 0 -108.167 -14.5 -148.5 -43.5
s-70.666 -68.167 -90.999 -117.5s-30.5 -104.666 -30.5 -165.999c0 -62.667 10 -119.334 30 -170.001s49.833 -90.667 89.5 -120s88.167 -44 145.5 -44c31.333 0 61.666 5.33301 90.999 16s54 24.667 74 42v233h-169v27h201v-271c-24 -25.333 -53.5 -44.166 -88.5 -56.499
s-72.5 -18.5 -112.5 -18.5c-62 0 -115.333 15.667 -160 47s-78.667 74.166 -102 128.499s-35 116.166 -35 185.499s12.167 131 36.5 185z" />
    <glyph glyph-name="H" unicode="H" horiz-adv-x="690" 
d="M113 702h34v-312h395v312h35v-693h-35v355h-395v-355h-34v693z" />
    <glyph glyph-name="I" unicode="I" horiz-adv-x="261" 
d="M113 9v693h34v-693h-34z" />
    <glyph glyph-name="J" unicode="J" horiz-adv-x="499" 
d="M122.5 19.5c-28.333 15.667 -51.498 38.833 -69.498 69.5l28 17c30 -54.667 75.667 -82 137 -82c46.667 0 81 14.333 103 43s33 73 33 133v502h36v-508c0 -28 -3.33301 -54.5 -10 -79.5s-16.334 -45.833 -29.001 -62.5c-28.667 -37.333 -72.334 -56 -131.001 -56
c-36.667 0 -69.167 7.83301 -97.5 23.5z" />
    <glyph glyph-name="K" unicode="K" horiz-adv-x="602" 
d="M113 9v693h34l-1 -404h7l351 404h38l-218 -255l254 -438h-41l-236 412l-154 -174v-238h-34z" />
    <glyph glyph-name="L" unicode="L" horiz-adv-x="505" 
d="M113 9v693h34v-665h327v-28h-361z" />
    <glyph glyph-name="M" unicode="M" horiz-adv-x="762" 
d="M113 702l55.999 -0.000976562l147 -410c8.66699 -24.667 19.667 -53 33 -85l30 -78h6c10 22.667 20.333 49.334 31 80.001l12 33l19 50l144 410h58v-693h-33v455v135v64h-6l-211 -578h-33l-217 578h-5c0.666992 -20 0.333984 -54.333 -0.999023 -103l-1 -96v-455h-29v693
z" />
    <glyph glyph-name="N" unicode="N" horiz-adv-x="686" 
d="M113 9v693h42l254 -427l130 -213h5c0 30 -0.333008 57 -1 81l-1 135v424h31v-693h-41l-226 374l-159 265h-6c1.33301 -24 2.33301 -55.333 3 -94s1 -77.667 1 -117v-428h-32z" />
    <glyph glyph-name="O" unicode="O" horiz-adv-x="703" 
d="M198.5 44c-43 32 -75.502 75.5 -97.502 130.5s-33 116.167 -33 183.5s10.833 128 32.5 182s53.834 96.667 96.501 128s94.334 47 155.001 47c59.333 0 110.5 -15.5 153.5 -46.5s75.667 -73.5 98 -127.5s33.5 -115 33.5 -183c0 -68.667 -11.167 -130.5 -33.5 -185.5
s-55 -98.167 -98 -129.5s-94.167 -47 -153.5 -47s-110.5 16 -153.5 48zM488.498 71c37 31.333 64.667 72.334 83 123.001s27.5 105.334 27.5 164.001c0 60 -9.33301 114.833 -28 164.5s-46.667 89.167 -84 118.5s-82.333 44 -135 44c-54 0 -99.5 -15 -136.5 -45
s-64.833 -69.833 -83.5 -119.5s-28 -103.834 -28 -162.501c0 -60 9.5 -115.333 28.5 -166s47.167 -91.334 84.5 -122.001s82.333 -46 135 -46c54 0 99.5 15.667 136.5 47z" />
    <glyph glyph-name="P" unicode="P" horiz-adv-x="592" 
d="M113 702h171.001c83.333 0 145.666 -14.667 186.999 -44s62 -78 62 -146c0 -68.667 -21.833 -119.167 -65.5 -151.5s-103.5 -48.5 -179.5 -48.5h-141v-303h-34v693zM277.001 340c75.333 0 130.833 14 166.5 42s53.5 71.333 53.5 130c0 57.333 -17.5 99 -52.5 125
s-92.5 39 -172.5 39h-125v-336h130z" />
    <glyph glyph-name="Q" unicode="Q" horiz-adv-x="703" 
d="M100.5 539c21.667 54 53.832 96.668 96.499 128.001s94.334 47 155.001 47c59.333 0 110.5 -15.5 153.5 -46.5s75.667 -73.333 98 -127s33.5 -114.834 33.5 -183.501c0 -64 -10.167 -122.5 -30.5 -175.5s-50.5 -96.5 -90.5 -130.5s-89 -53.667 -147 -59
c16 -39.333 40.333 -69.5 73 -90.5s73.667 -31.5 123 -31.5c22.667 0 44.334 2.33301 65.001 7l8 -29c-26.667 -6 -52.667 -9 -78 -9c-56 0 -103.833 13.667 -143.5 41s-68.5 65.666 -86.5 114.999c-54.667 2.66699 -101.834 20.834 -141.501 54.501s-69.667 77.5 -90 131.5
s-30.5 112.667 -30.5 176c0 67.333 10.833 128 32.5 182zM97.998 352.001c0 -56 8.66895 -108.331 26.002 -156.998s43.5 -89.167 78.5 -121.5s78.167 -51.5 129.5 -57.5c13.333 -1.33301 22.666 -2 27.999 -2c49.333 0 91.833 14.167 127.5 42.5
s63.167 66.166 82.5 113.499s31 100 35 158c0.666992 8 1 20 1 36c0 57.333 -8.83301 109.666 -26.5 156.999s-44.167 86 -79.5 116s-78.333 47.667 -129 53c-14.667 1.33301 -25 2 -31 2c-48 0 -89.333 -13.333 -124 -40s-61.834 -63 -81.501 -109
s-31.5 -97.333 -35.5 -154c-0.666992 -8 -1 -20.333 -1 -37z" />
    <glyph glyph-name="R" unicode="R" horiz-adv-x="586" 
d="M113 702h194.001c73.333 0 129.5 -14.167 168.5 -42.5s58.5 -73.833 58.5 -136.5c0 -53.333 -15.333 -96.5 -46 -129.5s-76.334 -54.833 -137.001 -65.5l189 -319h-39l-190 323h-164v-323h-34v693zM295.001 360c66.667 0 117.333 13.668 152 41.001s52 68 52 122
c0 51.333 -16.5 89.666 -49.5 114.999s-84.5 38 -154.5 38h-148v-316h148z" />
    <glyph glyph-name="S" unicode="S" horiz-adv-x="562" 
d="M162 21.5c-39.333 17 -73.002 40.832 -101.002 71.499l21 26c28.667 -30.667 61.167 -54.167 97.5 -70.5s73.5 -24.5 111.5 -24.5c54.667 0 98.834 13.667 132.501 41s50.5 64 50.5 110c0 28.667 -5 51.834 -15 69.501s-23.333 32 -40 43s-41 24.167 -73 39.5
c-5.33301 3.33301 -11.666 6.66602 -18.999 9.99902c-20.667 10 -41.667 19.333 -63 28l-28 13c-46 18.667 -80.833 41.5 -104.5 68.5s-35.5 60.5 -35.5 100.5c0 33.333 8.83301 62.666 26.5 87.999s41.5 45 71.5 59s63.333 21 100 21c36 0 70 -6.83301 102 -20.5
s60.333 -32.5 85 -56.5l-18 -23c-46 46.667 -102.333 70 -169 70c-49.333 0 -89 -12.167 -119 -36.5s-45 -56.833 -45 -97.5c0 -36 12 -65.5 36 -88.5s59.667 -44.167 107 -63.5l69 -30l23 -10c48 -19.333 84 -43.166 108 -71.499s36 -64.166 36 -107.499
c0 -37.333 -9.5 -69.833 -28.5 -97.5s-45.167 -49 -78.5 -64s-70.333 -22.5 -111 -22.5c-46.667 0 -89.667 8.5 -129 25.5z" />
    <glyph glyph-name="T" unicode="T" horiz-adv-x="565" 
d="M265 9v666h-225v27h485v-27h-225v-666h-35z" />
    <glyph glyph-name="U" unicode="U" horiz-adv-x="683" 
d="M165 72.5c-36.667 51 -54.999 118.169 -54.999 201.502v428h34v-423c0 -76.667 16.167 -138.334 48.5 -185.001s82.166 -70 149.499 -70c70 0 120.833 23.667 152.5 71s47.5 108.666 47.5 183.999v423h31v-428c0 -85.333 -18.5 -153 -55.5 -203s-95.5 -75 -175.5 -75
c-81.333 0 -140.333 25.5 -177 76.5z" />
    <glyph glyph-name="V" unicode="V" horiz-adv-x="529" 
d="M52 702l111 -348l81 -247l19 -57h6l18 52l77 235l117 365h33l-226 -693h-42l-230 693h36z" />
    <glyph glyph-name="W" unicode="W" horiz-adv-x="831" 
d="M40 702h36.999l80 -366l17 -79c22.667 -102 37.334 -170.333 44.001 -205h7l73 279l98 371h39l97 -366l20 -73l57 -211h7c10.667 52.667 21 100.667 31 144l30 144l79 362h33l-157 -693h-42l-89 335l-82 310h-6l-44 -165l-39 -147l-90 -333h-42z" />
    <glyph glyph-name="X" unicode="X" horiz-adv-x="520" 
d="M239 368l-192.001 333.999h39l117 -204l23 -40l35 -61h6l58 100l114 205h35l-193 -337l207 -356h-39l-121 211l-23 40c-27.333 48 -41.666 74 -42.999 78h-7l-17 -30c-23.333 -39.333 -40.333 -68.666 -51 -87.999l-120 -211h-36z" />
    <glyph glyph-name="Y" unicode="Y" horiz-adv-x="482" 
d="M224 287l-209 415h35l106 -216c29.333 -61.333 57 -114 83 -158h5l46 81.5c14 25.667 27 51.167 39 76.5l105 216h35l-210 -415v-278h-35v278z" />
    <glyph glyph-name="Z" unicode="Z" horiz-adv-x="579" 
d="M63 29l412 646h-377v27h420v-20l-414 -645h417v-28h-458v20z" />
    <glyph glyph-name="bracketleft" unicode="[" horiz-adv-x="302" 
d="M106 -164v927h174v-32h-136v-863h136v-32h-174z" />
    <glyph glyph-name="backslash" unicode="\" horiz-adv-x="383" 
d="M-9 767l39 -1l321 -939h-38z" />
    <glyph glyph-name="bracketright" unicode="]" horiz-adv-x="302" 
d="M24 -164v32h134v863h-134v32h173v-927h-173z" />
    <glyph glyph-name="asciicircum" unicode="^" horiz-adv-x="518" 
d="M71 314l162 410h51l162 -410h-48l-81 218l-55 142h-4l-58 -142l-81 -218h-48z" />
    <glyph glyph-name="underscore" unicode="_" horiz-adv-x="539" 
d="M13 -127v42h513v-42h-513z" />
    <glyph glyph-name="a" unicode="a" horiz-adv-x="529" 
d="M109 30.5c-25.333 23 -38 55.498 -38 97.498c0 37.333 11.167 68.333 33.5 93s57.666 44.834 105.999 60.501s112.5 28.167 192.5 37.5c0.666992 58.667 -10 102.834 -32 132.501s-54.667 44.5 -98 44.5c-54.667 0 -108.667 -19.333 -162 -58l-14 23
c23.333 16 50.666 30.167 81.999 42.5s65 18.5 101 18.5c52.667 0 92 -16.333 118 -49s39 -80.334 39 -143.001v-321h-25l-5 66l-6 -1c-33.333 -27.333 -66.166 -47.166 -98.499 -59.499s-62.5 -18.5 -90.5 -18.5c-43.333 0 -77.666 11.5 -102.999 34.5zM309.5 41.998
c28.333 14 59.5 36.001 93.5 66.001l1 188c-63.333 -8.66699 -115.833 -18.334 -157.5 -29.001s-76 -26.834 -103 -48.501s-40.5 -50.5 -40.5 -86.5c0 -35.333 10.333 -62.666 31 -81.999s50 -29 88 -29c30 0 59.167 7 87.5 21z" />
    <glyph glyph-name="b" unicode="b" horiz-adv-x="574" 
d="M107 766l33 0.000976562v-214l-2 -119c26 26.667 55 48.167 87 64.5s64.667 24.5 98 24.5c68 0 118.167 -23.333 150.5 -70s48.5 -108.334 48.5 -185.001c0 -52 -9 -98.5 -27 -139.5s-43.5 -73.167 -76.5 -96.5s-71.5 -35 -115.5 -35c-24 0 -50.833 6 -80.5 18
s-56.167 27.333 -79.5 46h-6l-4 -51h-26v757zM140 94.001c24.667 -22 51.1699 -39.5 79.5029 -52.5s55.166 -19.5 80.499 -19.5c39.333 0 73.166 11.5 101.499 34.5s49.666 53.167 63.999 90.5s21.5 77.333 21.5 120c0 70.667 -13.833 126.5 -41.5 167.5
s-71.167 61.5 -130.5 61.5c-52.667 0 -111 -29.333 -175 -88v-314z" />
    <glyph glyph-name="c" unicode="c" horiz-adv-x="484" 
d="M169.5 29.5c-34.333 22.333 -60.501 53.333 -78.501 93s-27 84.834 -27 135.501c0 50 9.33301 95.167 28 135.5s45.334 71.833 80.001 94.5s75 34 121 34c25.333 0 49.166 -4.33301 71.499 -13s45.166 -23.334 68.499 -44.001l-19 -20c-20 18 -39.667 31.167 -59 39.5
s-40 12.5 -62 12.5c-39.333 0 -73.666 -11 -102.999 -33s-51.833 -51.333 -67.5 -88s-23.5 -76 -23.5 -118c0 -44 7.83301 -84 23.5 -120s38.167 -64.5 67.5 -85.5s63.333 -31.5 102 -31.5c46.667 0 92.334 19 137.001 57l15 -21c-47.333 -40.667 -98.333 -61 -153 -61
c-46.667 0 -87.167 11.167 -121.5 33.5z" />
    <glyph glyph-name="d" unicode="d" horiz-adv-x="587" 
d="M93.5 394.5c19.667 40.333 46.498 71.667 80.498 94s71.333 33.5 112 33.5c30.667 0 58.334 -5.5 83.001 -16.5s51.667 -28.833 81 -53.5l-3 142v172h33v-757h-25l-6 65h-5c-29.333 -26 -59 -45.5 -89 -58.5s-58 -19.5 -84 -19.5
c-65.333 0 -116.166 22.167 -152.499 66.5s-54.5 109.5 -54.5 195.5c0 50.667 9.83301 96.167 29.5 136.5zM145.998 86.001c32 -42.667 75.666 -63.999 130.999 -63.999c29.333 0 57.833 7.5 85.5 22.5s55.834 37.833 84.501 68.5v312c-26 24 -52 41.833 -78 53.5
s-53 17.5 -81 17.5c-36 0 -68.5 -10.833 -97.5 -32.5s-51.667 -50.834 -68 -87.501s-24.5 -76 -24.5 -118c0 -72 16 -129.333 48 -172z" />
    <glyph glyph-name="e" unicode="e" horiz-adv-x="521" 
d="M174.5 30c-35 22.667 -62.167 53.833 -81.5 93.5s-29 84.5 -29 134.5c0 47.333 9.33301 91.166 28 131.499s44.5 72.5 77.5 96.5s69.833 36 110.5 36c63.333 0 111 -21.167 143 -63.5s48 -98.166 48 -167.499l1 -32h-375c0 -46 8.33301 -86.833 25 -122.5
s40.167 -63.5 70.5 -83.5s66.166 -30 107.499 -30c24.667 0 47.834 3.16699 69.501 9.5s44.167 16.5 67.5 30.5l12 -23c-25.333 -14 -49.333 -24.833 -72 -32.5s-50 -11.5 -82 -11.5c-45.333 0 -85.5 11.333 -120.5 34zM442 282.999c1.33301 69.333 -12 122.334 -40 159.001
s-68 55 -120 55c-36 0 -67.667 -9.83301 -95 -29.5s-48.833 -45.834 -64.5 -78.501s-24.5 -68 -26.5 -106h346z" />
    <glyph glyph-name="f" unicode="f" horiz-adv-x="285" 
d="M115 483l-71 -0.000976562v22l71 5v122c0 98 40 147 120 147c11.333 0 22 -0.833008 32 -2.5s21.667 -5.16699 35 -10.5l-10 -24c-17.333 7.33301 -36 11 -56 11c-29.333 0 -51.5 -10.667 -66.5 -32s-22.5 -51.666 -22.5 -90.999v-121h120v-26h-120v-474h-32v474z" />
    <glyph glyph-name="g" unicode="g" horiz-adv-x="522" 
d="M120.5 -206.5c-38.333 23.667 -57.501 57.502 -57.501 101.502c0 19.333 6.66699 39.5 20 60.5s32.333 40.833 57 59.5v6c-14 7.33301 -25 19 -33 35s-12 32.667 -12 50c0 20.667 6.16699 40 18.5 58s24.833 30.667 37.5 38v6c-44 41.333 -66 87.666 -66 138.999
c0 33.333 7.66699 63.166 23 89.499s36.333 47 63 62s56.334 22.5 89.001 22.5c30.667 0 53.334 -4 68.001 -12h169v-25h-134c22 -14.667 39.333 -34 52 -58s19 -50.333 19 -79c0 -33.333 -8 -63.5 -24 -90.5s-37.333 -48 -64 -63s-55.334 -22.5 -86.001 -22.5
c-13.333 0 -27.833 2.33301 -43.5 7s-30.167 10.667 -43.5 18c-14.667 -12 -26.5 -24.667 -35.5 -38s-13.5 -29 -13.5 -47c0 -24.667 8.5 -43.334 25.5 -56.001s44.833 -19 83.5 -19h109c56.667 0 98.167 -9 124.5 -27s39.5 -46 39.5 -84
c0 -33.333 -11.333 -62.666 -34 -87.999s-52.167 -44.833 -88.5 -58.5s-74.833 -20.5 -115.5 -20.5c-60 0 -109.167 11.833 -147.5 35.5zM362.499 238.002c26.333 29.333 39.5 65.667 39.5 109s-13.167 79.333 -39.5 108s-60.5 43 -102.5 43c-41.333 0 -75 -14.333 -101 -43
s-39 -64.667 -39 -108c0 -28 6.16699 -53.667 18.5 -77s29.333 -41.833 51 -55.5s45.167 -20.5 70.5 -20.5c42 0 76.167 14.667 102.5 44zM366.999 -200.497c30.667 11.667 55.833 28 75.5 49s29.5 44.833 29.5 71.5c0 28.667 -10.167 50 -30.5 64s-52.5 21 -96.5 21h-110
c-26.667 0 -49 4 -67 12c-24 -15.333 -42.333 -33.333 -55 -54s-19 -42 -19 -64c0 -36 16 -64.5 48 -85.5s75.667 -31.5 131 -31.5c32 0 63.333 5.83301 94 17.5z" />
    <glyph glyph-name="h" unicode="h" horiz-adv-x="569" 
d="M107 766h33.001v-214l-2 -128c33.333 33.333 64.166 58 92.499 74s60.5 24 96.5 24c50 0 87 -15 111 -45s36 -78.333 36 -145v-323h-32v316c0 58 -10 100.833 -30 128.5s-52.333 41.5 -97 41.5c-31.333 0 -59.5 -7.83301 -84.5 -23.5s-55.167 -41.5 -90.5 -77.5v-385h-33
v757z" />
    <glyph glyph-name="i" unicode="i" horiz-adv-x="247" 
d="M99 660.5c-6.66699 6.33301 -9.99902 14.5 -9.99902 24.5s3.16699 18.167 9.5 24.5s15.166 9.5 26.499 9.5c10.667 0 19.334 -3.33301 26.001 -10s10 -14.667 10 -24c0 -10 -3.5 -18.167 -10.5 -24.5s-15.5 -9.5 -25.5 -9.5c-10.667 0 -19.334 3.16699 -26.001 9.5z
M107.001 509h33v-500h-33v500z" />
    <glyph glyph-name="j" unicode="j" horiz-adv-x="247" 
d="M99 660c-6.66699 6.66699 -10 14.667 -10 24c0 10 3.33301 18.167 10 24.5s15.334 9.5 26.001 9.5s19.167 -3.16699 25.5 -9.5s9.5 -14.5 9.5 -24.5c0 -9.33301 -3.33301 -17.333 -10 -24s-15 -10 -25 -10c-10.667 0 -19.334 3.33301 -26.001 10zM-27 -229l8 22.001
c18 -4 34.333 -6 49 -6c27.333 0 47 9.5 59 28.5s18 49.833 18 92.5v601h32v-604c0 -50.667 -8.83301 -87.334 -26.5 -110.001s-44.5 -34 -80.5 -34c-18 0 -37.667 3.33301 -59 10z" />
    <glyph glyph-name="k" unicode="k" horiz-adv-x="501" 
d="M107 766h33v-568l6 -1l262 312h34l-160 -195l193 -305h-36l-175 282l-124 -147v-135h-33v757z" />
    <glyph glyph-name="l" unicode="l" horiz-adv-x="255" 
d="M121 12.5c-9.33301 11 -14.001 30.833 -14.001 59.5v694h33v-701c0 -29.333 10 -44 30 -44l13 1l4 -24c-3.33301 -1.33301 -7.5 -2 -12.5 -2h-10.5c-19.333 0 -33.666 5.5 -42.999 16.5z" />
    <glyph glyph-name="m" unicode="m" horiz-adv-x="877" 
d="M108 510l23 0.000976562l8 -83h6c29.333 33.333 58.333 57.666 87 72.999s55.667 23 81 23c38 0 68 -8.5 90 -25.5s38 -44.833 48 -83.5c31.333 36.667 61.5 64 90.5 82s58.5 27 88.5 27c48.667 0 85.167 -15.333 109.5 -46s36.5 -79 36.5 -145v-323h-32v316
c0 56.667 -10 99.167 -30 127.5s-51 42.5 -93 42.5c-48.667 0 -102.334 -34.667 -161.001 -104v-382h-33v316c0 57.333 -10 100 -30 128s-51.333 42 -94 42c-25.333 0 -51.166 -8.5 -77.499 -25.5s-54.833 -43.167 -85.5 -78.5v-382h-32v501z" />
    <glyph glyph-name="n" unicode="n" horiz-adv-x="575" 
d="M107 509h25l8 -81h5c30 30.667 59.333 54 88 70s60 24 94 24c50 0 87 -15 111 -45s36 -78.333 36 -145v-323h-32v316c0 58 -10 100.833 -30 128.5s-52.333 41.5 -97 41.5c-31.333 0 -59.5 -7.83301 -84.5 -23.5s-55.167 -41.5 -90.5 -77.5v-385h-33v500z" />
    <glyph glyph-name="o" unicode="o" horiz-adv-x="576" 
d="M172 29.5c-34 22.333 -60.5 53.332 -79.5 92.999s-28.5 84.834 -28.5 135.501c0 51.333 9.5 97 28.5 137s45.333 71.167 79 93.5s72.167 33.5 115.5 33.5c42.667 0 81.167 -11.167 115.5 -33.5s61.166 -53.666 80.499 -93.999s29 -85.833 29 -136.5
s-9.5 -95.834 -28.5 -135.501s-45.667 -70.667 -80 -93s-73.166 -33.5 -116.499 -33.5c-42.667 0 -81 11.167 -115 33.5zM385.5 50.999c29 20 51.833 48.001 68.5 84.001s25 76.667 25 122c0 46 -8.33301 87.333 -25 124s-39.5 65.167 -68.5 85.5s-61.833 30.5 -98.5 30.5
c-35.333 0 -67.5 -10.333 -96.5 -31s-52 -49.334 -69 -86.001s-25.5 -77.667 -25.5 -123c0 -44.667 8.5 -85 25.5 -121s40 -64.167 69 -84.5s61.167 -30.5 96.5 -30.5c36.667 0 69.5 10 98.5 30z" />
    <glyph glyph-name="p" unicode="p" horiz-adv-x="587" 
d="M107 509h25.999l6 -64l6 -1c30.667 26 61.667 45.5 93 58.5s60 19.5 86 19.5c62.667 0 111.334 -21.667 146.001 -65s52 -107.333 52 -192c0 -53.333 -9.5 -100.5 -28.5 -141.5s-45 -72.667 -78 -95s-70.5 -33.5 -112.5 -33.5c-52 0 -107 23 -165 69l2 -110v-180h-33v735
zM139.999 93c26.667 -22 53.832 -39.5 81.499 -52.5s53.834 -19.5 78.501 -19.5c36.667 0 69.167 10.5 97.5 31.5s50.333 50.167 66 87.5s23.5 79.333 23.5 126c0 74.667 -14.5 131.5 -43.5 170.5s-71.833 58.5 -128.5 58.5c-48.667 0 -107 -29 -175 -87v-315z" />
    <glyph glyph-name="q" unicode="q" horiz-adv-x="587" 
d="M447 -34l1.99902 115.999c-26 -29.333 -54.167 -51.166 -84.5 -65.499s-61.5 -21.5 -93.5 -21.5c-65.333 0 -116.166 22.333 -152.499 67s-54.5 109.667 -54.5 195c0 50.667 9.83301 96.167 29.5 136.5s46.5 71.833 80.5 94.5s71.333 34 112 34
c28 0 54.5 -4.66699 79.5 -14s50.167 -25 75.5 -47h6l7 48h26v-735h-33v192zM361.999 43.499c27.333 15 55.668 37.834 85.001 68.501v313c-26 24 -52 41.667 -78 53s-53 17 -81 17c-36 0 -68.5 -10.833 -97.5 -32.5s-51.667 -50.834 -68 -87.501s-24.5 -76 -24.5 -118
c0 -72 16 -129.333 48 -172s75.667 -64 131 -64c29.333 0 57.666 7.5 84.999 22.5z" />
    <glyph glyph-name="r" unicode="r" horiz-adv-x="342" 
d="M107 509l25.002 -0.000976562l5 -95h5c18 33.333 40.833 59.833 68.5 79.5s55.834 29.5 84.501 29.5c18 0 32 -2.33301 42 -7l-8 -30c-4.66699 2.66699 -10.334 4.33398 -17.001 5.00098s-14.334 1 -23.001 1c-31.333 0 -59.833 -12.667 -85.5 -38
s-46.834 -59.333 -63.501 -102v-343h-33v500z" />
    <glyph glyph-name="s" unicode="s" horiz-adv-x="437" 
d="M129.5 12c-30.333 10.667 -58.168 26.667 -83.501 48l19 23c24.667 -20 49.5 -35.333 74.5 -46s54.167 -16 87.5 -16c38.667 0 70.334 10 95.001 30s37 46.667 37 80c0 32 -8.66699 56.333 -26 73c-7.33301 6.66699 -19 13.5 -35 20.5s-31 12.5 -45 16.5
c-66.667 20 -114.167 41.5 -142.5 64.5s-42.5 51.833 -42.5 86.5c0 38 14.167 69.167 42.5 93.5s66.5 36.5 114.5 36.5c23.333 0 47.166 -3.83301 71.499 -11.5s46.166 -19.5 65.499 -35.5l-16 -22c-20.667 15.333 -40.667 26.5 -60 33.5s-39.666 10.5 -60.999 10.5
c-37.333 0 -67.5 -9.33301 -90.5 -28s-34.5 -43.334 -34.5 -74.001c0 -20 5.5 -36.667 16.5 -50s25 -24.166 42 -32.499s40.5 -18.166 70.5 -29.499l30 -12c38.667 -11.333 68 -25.333 88 -42c30 -25.333 45 -57 45 -95c0 -40.667 -15.167 -73.834 -45.5 -99.501
s-71.166 -38.5 -122.499 -38.5c-32.667 0 -64.167 5.33301 -94.5 16z" />
    <glyph glyph-name="t" unicode="t" horiz-adv-x="336" 
d="M147.5 32.5c-19 24.333 -28.499 61.167 -28.499 110.5v340h-81v22l82 5l6 148h26v-149h149v-26h-149v-343c0 -40.667 7.5 -70.5 22.5 -89.5s39.5 -28.5 73.5 -28.5c17.333 0 37 4 59 12l8 -21c-12.667 -5.33301 -25.834 -9.5 -39.501 -12.5s-25.167 -4.5 -34.5 -4.5
c-43.333 0 -74.5 12.167 -93.5 36.5z" />
    <glyph glyph-name="u" unicode="u" horiz-adv-x="572" 
d="M134.5 40.5c-24.333 29.667 -36.502 77.833 -36.502 144.5v324h33v-317c0 -57.333 10.167 -100 30.5 -128s51.833 -42 94.5 -42c32 0 61 8.5 87 25.5s55.667 45.167 89 84.5v377h32v-500h-25l-4 83h-6c-53.333 -64 -113.666 -96 -180.999 -96
c-51.333 0 -89.166 14.833 -113.499 44.5z" />
    <glyph glyph-name="v" unicode="v" horiz-adv-x="469" 
d="M26 509h32.999l115 -316c2.66699 -3.33301 11.334 -26.333 26.001 -69l19.5 -53c7.66699 -20.667 12.167 -31.667 13.5 -33h6l29.5 76c13 33.333 22.833 59.333 29.5 78l114 317h33l-187 -500h-45z" />
    <glyph glyph-name="w" unicode="w" horiz-adv-x="739" 
d="M37 509l35 0.00292969l91 -327l21 -71l22 -74h6l8 26c3.33301 11.333 8.83301 28.666 16.5 51.999s14.5 45.666 20.5 66.999l91 327h44l93 -327c16.667 -58 32 -106.333 46 -145h5c4 15.333 12 40.666 24 75.999l22 69l88 327h31l-142 -500h-50l-92 311
c-6 22.667 -9.66699 37 -11 43c-10.667 40 -21.667 77.667 -33 113h-6c1.33301 5.33301 -6 -20.667 -22 -78l-23 -79l-91 -310h-46z" />
    <glyph glyph-name="x" unicode="x" horiz-adv-x="439" 
d="M200 271l-156 237.997h35l81 -126c23.333 -37.333 43.666 -67.333 60.999 -90h4l27 40c14 18.667 25.333 35.334 34 50.001l76 126h34l-154 -243l167 -257h-34l-89 137c-5.33301 9.33301 -16.333 25.333 -33 48c-11.333 14.667 -22.666 31 -33.999 49h-3
c-6 -9.33301 -11.5 -17.166 -16.5 -23.499s-9.16699 -12.166 -12.5 -17.499c-11.333 -14 -24.333 -32.667 -39 -56l-85 -137h-33z" />
    <glyph glyph-name="y" unicode="y" horiz-adv-x="470" 
d="M54.5 -225c-7.66699 0.666992 -13.8311 2.33203 -18.498 4.99902l7 27l17.5 -3.5c8.33301 -1.66699 14.166 -2.5 17.499 -2.5c30 0 57 12 81 36s44 59.333 60 106l15 50l-208 516h33l122 -319c1.33301 -1.33301 10.333 -22.333 27 -63c22.667 -55.333 35 -84.333 37 -87
h5l7 19l26 70.5c13.333 35.667 21.333 55.834 24 60.501l108 319h31l-201 -571c-19.333 -56 -43.333 -97.333 -72 -124s-60 -40 -94 -40c-8.66699 0 -16.834 0.333008 -24.501 1z" />
    <glyph glyph-name="z" unicode="z" horiz-adv-x="436" 
d="M38 23l312 460h-280v26h319v-15l-312 -459h323v-26h-362v14z" />
    <glyph glyph-name="braceleft" unicode="{" horiz-adv-x="301" 
d="M242 -164c-42 0 -72.499 9.83301 -91.499 29.5s-28.5 55.5 -28.5 107.5c0 22.667 1.33301 56 4 100c3.33301 41.333 5 82 5 122c0 58.667 -31 87.334 -93 86.001v36c29.333 -1.33301 52.166 5 68.499 19s24.5 36 24.5 66c0 42 -1.66699 82.333 -5 121
c-2.66699 41.333 -4 75.333 -4 102c0 52 9.5 88 28.5 108s49.5 30 91.5 30h37v-32h-33c-32.667 0 -54.667 -8.5 -66 -25.5s-17 -45.5 -17 -85.5c0 -20.667 1.33301 -54.334 4 -101.001s4 -81.667 4 -105c0 -32.667 -4.33301 -58 -13 -76s-23 -30.333 -43 -37v-4
c20 -6.66699 34.333 -19 43 -37s13 -43.333 13 -76c0 -20.667 -1.33301 -55.667 -4 -105c-2.66699 -48 -4 -81.667 -4 -101c0 -40 5.66699 -68.333 17 -85s33.333 -25 66 -25h33v-32h-37z" />
    <glyph glyph-name="bar" unicode="|" horiz-adv-x="244" 
d="M103 -270v1078h40v-1078h-40z" />
    <glyph glyph-name="braceright" unicode="}" horiz-adv-x="301" 
d="M30 -132h34.001c32 0 53.667 8.33301 65 25s17 45 17 85c0 19.333 -1.33301 53 -4 101c-2.66699 49.333 -4 84.333 -4 105c0 32.667 4.33301 58 13 76s23 30.333 43 37v4c-20 6.66699 -34.333 19 -43 37s-13 43.333 -13 76c0 23.333 1.33301 58.333 4 105
s4 80.334 4 101.001c0 40 -5.66699 68.5 -17 85.5s-33 25.5 -65 25.5h-34v32h37c42 0 72.5 -10 91.5 -30s28.5 -56 28.5 -108c0 -26.667 -1.33301 -60.667 -4 -102c-3.33301 -38.667 -5 -79 -5 -121c0 -30 8.16699 -52 24.5 -66s39.166 -20.333 68.499 -19v-36
c-62 1.33301 -93 -27.334 -93 -86.001c0 -40 1.66699 -80.667 5 -122c2.66699 -44 4 -77.333 4 -100c0 -52 -9.5 -87.833 -28.5 -107.5s-49.5 -29.5 -91.5 -29.5h-37v32z" />
    <glyph glyph-name="asciitilde" unicode="~" horiz-adv-x="517" 
d="M302 300.5c-16 8.33301 -33.668 20.1689 -53.001 35.502c-21.333 16.667 -38.166 28.667 -50.499 36s-24.833 11 -37.5 11c-17.333 0 -33 -5.16699 -47 -15.5s-27.333 -27.5 -40 -51.5l-31 20c14.667 29.333 32.667 51.5 54 66.5s43.333 22.5 66 22.5
c18.667 0 35.5 -4 50.5 -12s33.833 -20 56.5 -36c20.667 -16.667 36.834 -28.834 48.501 -36.501s24.5 -11.5 38.5 -11.5c33.333 0 61.666 22.667 84.999 68l32 -22c-14.667 -28.667 -32.667 -50.334 -54 -65.001s-43 -22 -65 -22c-19.333 0 -37 4.16699 -53 12.5z" />
    <glyph glyph-name="exclamdown" unicode="&#xa1;" horiz-adv-x="263" 
d="M194.5 602.5c7 -7.66699 10.5 -16.833 10.5 -27.5c0 -11.333 -3.83301 -20.666 -11.5 -27.999s-16.5 -11 -26.5 -11c-11.333 0 -20.833 3.66699 -28.5 11s-11.5 16.666 -11.5 27.999c0 10 3.83301 19 11.5 27s17.167 12 28.5 12s20.5 -3.83301 27.5 -11.5zM154 481.001
l31 5l17 -519l-34 -18z" />
    <glyph glyph-name="cent" unicode="&#xa2;" horiz-adv-x="518" 
d="M275 -31l-0.000976562 117.999c-31.333 3.33301 -59.833 11.333 -85.5 24s-47.167 29.334 -64.5 50.001c-39.333 43.333 -59 101.666 -59 174.999c0 70 20.667 127.333 62 172c18 20.667 39.833 37.334 65.5 50.001s52.834 20.667 81.501 24v120h38v-117
c30.667 -0.666992 57 -6.5 79 -17.5s44.333 -26.167 67 -45.5l-27 -33c-35.333 33.333 -75 51.333 -119 54v-415c46.667 2 90.667 21.667 132 59l24 -32c-49.333 -44.667 -101.333 -68 -156 -70v-116h-38zM159.499 195.499c27.667 -36.333 66.167 -58.833 115.5 -67.5v414
c-47.333 -8.66699 -85.333 -31.334 -114 -68.001s-43 -82.667 -43 -138c0 -57.333 13.833 -104.166 41.5 -140.499z" />
    <glyph glyph-name="sterling" unicode="&#xa3;" horiz-adv-x="517" 
d="M62 0l0.00195312 28.998c38 22 66.667 51.667 86 89s29 78 29 122c0 13.333 -1.66699 28 -5 44s-5.33301 26.333 -6 31h-108v36l72 4h26l-10 35c-8.66699 25.333 -15.167 47.833 -19.5 67.5s-6.5 39.5 -6.5 59.5c0 56 17 101 51 135c32 33.333 76.333 50 133 50
c63.333 0 115.666 -25.667 156.999 -77l-33 -31c-16 20.667 -33.833 36.667 -53.5 48s-42.834 17 -69.501 17c-42 0 -74.833 -13.333 -98.5 -40s-35.5 -60 -35.5 -100c0 -22 2.16699 -43.167 6.5 -63.5s10.833 -45.166 19.5 -74.499l8 -26h178v-40h-168
c5.33301 -34.667 8 -60 8 -76c0 -42.667 -6.5 -78.667 -19.5 -108s-32.5 -56.666 -58.5 -81.999v-5h317v-44h-400z" />
    <glyph glyph-name="currency" unicode="&#xa4;" horiz-adv-x="517" 
d="M32 154l71.001 71.9971c-26.667 36 -40 79 -40 129c0 52 13.333 95.333 40 130l-71 74l29 31l73 -76c35.333 32 77.333 48 126 48c22.667 0 44.834 -4.16699 66.501 -12.5s40.167 -20.166 55.5 -35.499l73 76l30 -31l-72 -74c27.333 -37.333 41 -80.666 41 -129.999
c0 -50 -13.667 -93 -41 -129l72 -72l-30 -30l-71 72c-16.667 -15.333 -35.834 -27.166 -57.501 -35.499s-43.834 -12.5 -66.501 -12.5c-50 0 -92 16 -126 48l-73 -72zM337.001 211.997c22 16 38.833 36.833 50.5 62.5s17.5 52.5 17.5 80.5
c0 28.667 -6.16699 55.667 -18.5 81s-29.5 45.833 -51.5 61.5s-47 23.5 -75 23.5c-30 0 -56.333 -8 -79 -24s-40 -36.667 -52 -62s-18 -52 -18 -80c0 -29.333 6.16699 -56.833 18.5 -82.5s29.833 -46.167 52.5 -61.5s48.667 -23 78 -23s55 8 77 24z" />
    <glyph glyph-name="yen" unicode="&#xa5;" horiz-adv-x="517" 
d="M234 0v177h-181v38h181v76h-181v37h164l-186 361h54l100 -207l36 -71c9.33301 -23.333 21 -49 35 -77h4c16 30 29 55.667 39 77c8 17.333 14.333 30.333 19 39l15 32l101 207h52l-188 -361h165v-37h-181v-76h181v-38h-181v-177h-48z" />
    <glyph glyph-name="brokenbar" unicode="&#xa6;" horiz-adv-x="244" 
d="M103 300v508h40v-508h-40zM103 -270v506h40v-506h-40z" />
    <glyph glyph-name="section" unicode="&#xa7;" horiz-adv-x="517" 
d="M78 12l32.998 30.001c20 -18.667 40.833 -32.834 62.5 -42.501s47.834 -14.5 78.501 -14.5c32 0 57.833 8.66699 77.5 26s29.5 39 29.5 65c0 29.333 -11.333 53.166 -34 71.499s-59 36.5 -109 54.5c-108.667 39.333 -163 98.666 -163 177.999c0 60 32.333 106.333 97 139
c-24.667 24.667 -37 54.334 -37 89.001c0 38 14.5 68.5 43.5 91.5s64.167 34.5 105.5 34.5c54 0 104 -19 150 -57l-26 -33c-18.667 15.333 -37.667 27 -57 35s-41.666 12 -66.999 12c-34 0 -59.333 -7.66699 -76 -23s-25 -34.666 -25 -57.999c0 -20 4.66699 -36.5 14 -49.5
s23.5 -24.667 42.5 -35s46.833 -22.5 83.5 -36.5c52.667 -20.667 92.834 -45.834 120.501 -75.501s41.5 -65.5 41.5 -107.5c0 -33.333 -7.83301 -60.5 -23.5 -81.5s-38.834 -39.5 -69.501 -55.5c12.667 -13.333 22 -27 28 -41s9 -31 9 -51
c0 -25.333 -7.16699 -48.166 -21.5 -68.499s-33.5 -36.333 -57.5 -48s-49.333 -17.5 -76 -17.5c-68.667 0 -126.667 23 -174 69zM398.498 238.501c13 15.667 19.5029 37.1689 19.5029 64.502c0 26 -7.5 48.167 -22.5 66.5s-35.833 35.166 -62.5 50.499
c-16.667 9.33301 -31.834 17 -45.501 23s-22.167 9.66699 -25.5 11c-28.667 11.333 -55.334 24.333 -80.001 39c-28 -14.667 -48.833 -30.334 -62.5 -47.001s-20.5 -38.334 -20.5 -65.001c0 -46.667 28.667 -84 86 -112c29.333 -16 53.666 -27.333 72.999 -34
c9.33301 -3.33301 20 -7.83301 32 -13.5s27.667 -14.167 47 -25.5c28 12.667 48.5 26.834 61.5 42.501z" />
    <glyph glyph-name="copyright" unicode="&#xa9;" horiz-adv-x="799" 
d="M267.5 12.5c-41.667 17 -78.501 41.5 -110.501 73.5c-67.333 67.333 -101 154.333 -101 261c0 53.333 8.83301 102 26.5 146s42.5 81.333 74.5 112c31.333 31.333 67.833 55.333 109.5 72s85.834 25 132.501 25s90.667 -8.33301 132 -25s78.333 -40.667 111 -72
c32 -30.667 57 -68.167 75 -112.5s27 -92.833 27 -145.5c0 -106 -34 -193 -102 -261c-32.667 -32 -69.667 -56.5 -111 -73.5s-85.333 -25.5 -132 -25.5c-46 0 -89.833 8.5 -131.5 25.5zM516.999 44c37.333 16 70.001 38.668 98.001 68.001
c28.667 28.667 50.834 63 66.501 103s23.5 84 23.5 132s-7.83301 91.667 -23.5 131s-37.834 73.666 -66.501 102.999c-27.333 28.667 -59.666 50.667 -96.999 66s-77 23 -119 23c-41.333 0 -80.333 -7.66699 -117 -23s-69 -37.333 -97 -66
c-29.333 -29.333 -52 -63.833 -68 -103.5s-24 -83.167 -24 -130.5c0 -48 8.16699 -92 24.5 -132s38.833 -74.333 67.5 -103c28.667 -29.333 61.167 -52 97.5 -68s75.166 -24 116.499 -24s80.666 8 117.999 24zM272 190.001
c-37.333 39.333 -56.0039 91.6689 -56.0039 157.002c0 29.333 5.33301 56.666 16 81.999s25.334 47.333 44.001 66c37.333 36 82.333 54 135 54c26.667 0 50.334 -5.16699 71.001 -15.5s40.334 -25.166 59.001 -44.499l-26 -28c-17.333 16.667 -34 29 -50 37
s-34.333 12 -55 12c-28 0 -53.167 -6.83301 -75.5 -20.5s-39.833 -32.834 -52.5 -57.501s-19 -53 -19 -85c0 -52.667 13.333 -94.834 40 -126.501s61.667 -47.5 105 -47.5c24 0 45.5 4.66699 64.5 14s38.5 23 58.5 41l22 -30c-24 -21.333 -46.667 -37.5 -68 -48.5
s-47.666 -16.5 -78.999 -16.5c-53.333 0 -98 19 -134 57z" />
    <glyph glyph-name="guillemotleft" unicode="&#xab;" horiz-adv-x="420" 
d="M97.5 123c-7.66699 30 -11.501 59.6699 -11.501 89.0029s3.83301 58.666 11.5 87.999s21.5 71 41.5 125l38 -11c-17.333 -50.667 -29.666 -90.834 -36.999 -120.501s-11 -56.834 -11 -81.501c0 -26.667 4 -55.667 12 -87s20.667 -71.333 38 -120l-41 -6
c-19.333 52.667 -32.833 94 -40.5 124zM242.999 122.003c-7.33301 30 -11.001 59.999 -11.001 89.999c0 29.333 3.83301 59 11.5 89s21.167 71.333 40.5 124l39 -11c-18 -51.333 -30.833 -91.666 -38.5 -120.999s-11.5 -56.333 -11.5 -81c0 -27.333 4 -56.5 12 -87.5
s21 -70.833 39 -119.5l-41 -6c-19.333 52 -32.666 93 -39.999 123z" />
    <glyph glyph-name="logicalnot" unicode="&#xac;" horiz-adv-x="517" 
d="M435 118v217h-398v42h443v-259h-45z" />
    <glyph glyph-name="registered" unicode="&#xae;" horiz-adv-x="433" 
d="M116 377c-30 18.667 -53.6689 44.167 -71.002 76.5s-26 67.5 -26 105.5s8.5 73 25.5 105s40.333 57.333 70 76s63.167 28 100.5 28c38 0 72.167 -9 102.5 -27s54 -43 71 -75s25.5 -67.667 25.5 -107c0 -40 -8.66699 -76 -26 -108s-41.166 -57 -71.499 -75
s-64.166 -27 -101.499 -27c-36 0 -69 9.33301 -99 28zM299.498 405.5c25 15.667 44.667 37 59 64s21.5 56.833 21.5 89.5c0 33.333 -7.33301 63.5 -22 90.5s-34.667 48.333 -60 64s-53 23.5 -83 23.5c-32 0 -60.167 -8.33301 -84.5 -25s-43.166 -38.667 -56.499 -66
s-20 -56.333 -20 -87c0 -32 6.83301 -61.5 20.5 -88.5s32.667 -48.5 57 -64.5s52.166 -24 83.499 -24s59.5 7.83301 84.5 23.5zM142.998 674l75 -0.000976562c24 0 43.5 -5.33301 58.5 -16s22.5 -28.667 22.5 -54c0 -13.333 -3.66699 -25.666 -11 -36.999s-17 -19 -29 -23
l51 -93h-40l-41 81h-52v-81h-34v223zM208.998 561.999c18.667 0 32.5 3.16699 41.5 9.5s13.5 16.833 13.5 31.5c0 13.333 -3.83301 23.333 -11.5 30s-21.167 10 -40.5 10h-35v-81h32z" />
    <glyph glyph-name="degree" unicode="&#xb0;" horiz-adv-x="336" 
d="M123.5 491c-15 6 -28.167 14.333 -39.5 25c-26 24 -39 55 -39 93c0 39.333 13 71.333 39 96c22.667 22.667 51 34 85 34c32.667 0 61.334 -11.333 86.001 -34c24 -25.333 36 -57.333 36 -96c0 -38 -12 -69 -36 -93c-26.667 -22.667 -55.334 -34 -86.001 -34
c-15.333 0 -30.5 3 -45.5 9zM230.5 543.5c16.333 17.667 24.5 39.501 24.5 65.501c0 28 -8.16699 51 -24.5 69s-36.833 27 -61.5 27c-25.333 0 -46 -8.83301 -62 -26.5s-24 -40.834 -24 -69.501c0 -26 8 -47.833 24 -65.5s36.667 -26.5 62 -26.5
c24.667 0 45.167 8.83301 61.5 26.5z" />
    <glyph glyph-name="plusminus" unicode="&#xb1;" horiz-adv-x="517" 
d="M236 118v216h-199v41h199v219h45v-219h199v-41h-199v-216h-45zM37 0v42h443v-42h-443z" />
    <glyph glyph-name="paragraph" unicode="&#xb6;" horiz-adv-x="558" 
d="M314 261c-85.333 0 -149.666 17.332 -192.999 51.999c-50.667 36.667 -76 94.334 -76 173.001c0 79.333 23.667 137 71 173c41.333 33.333 101.666 50 180.999 50h48v-448h-31zM402 -86.001v795h52v-795h-52z" />
    <glyph glyph-name="periodcentered" unicode="&#xb7;" horiz-adv-x="207" 
d="M64 324c-6.66699 7.33301 -9.99902 16.333 -9.99902 27c0 11.333 3.5 20.5 10.5 27.5s15.5 10.5 25.5 10.5c10.667 0 19.667 -3.5 27 -10.5s11 -16.167 11 -27.5c0 -10.667 -3.5 -19.667 -10.5 -27s-16.167 -11 -27.5 -11c-10.667 0 -19.334 3.66699 -26.001 11z" />
    <glyph glyph-name="guillemotright" unicode="&#xbb;" horiz-adv-x="420" 
d="M96 5c18 48.667 30.999 88.501 38.999 119.501s12 60.167 12 87.5c0 24.667 -3.83301 51.667 -11.5 81s-20.5 69.666 -38.5 120.999l39 11c19.333 -52.667 32.833 -94 40.5 -124s11.5 -59.667 11.5 -89c0 -30 -3.66699 -60 -11 -90s-20.666 -71 -39.999 -123z
M240.999 5.00098c17.333 48.667 29.999 88.6641 37.999 119.997s12 60.333 12 87c0 24.667 -3.66699 51.834 -11 81.501s-19.666 69.834 -36.999 120.501l38 11c20 -54 33.833 -95.667 41.5 -125s11.5 -58.666 11.5 -87.999s-3.83301 -59 -11.5 -89
s-21.167 -71.333 -40.5 -124z" />
    <glyph glyph-name="questiondown" unicode="&#xbf;" horiz-adv-x="431" 
d="M256 536.5c8.66699 -9 12.998 -20.5 12.998 -34.5c0 -16.667 -4.33301 -29.667 -13 -39s-19.334 -14 -32.001 -14c-13.333 0 -24.666 4.66699 -33.999 14s-14 22.333 -14 39c0 14 4.83301 25.5 14.5 34.5s20.834 13.5 33.501 13.5s23.334 -4.5 32.001 -13.5zM247.998 343
c2 -10.667 3.00098 -22 3.00098 -34c0 -55.333 -23.667 -112 -71 -170c-30 -36.667 -51.833 -67.167 -65.5 -91.5s-20.5 -50.166 -20.5 -77.499c0 -35.333 10.667 -65.333 32 -90s51.666 -37 90.999 -37c26 0 51.167 6.33301 75.5 19s45.5 30 63.5 52l29 -28
c-52 -56.667 -110.333 -85 -175 -85c-49.333 0 -89.166 15.167 -119.499 45.5s-45.5 70.5 -45.5 120.5c0 28 7.33301 56.5 22 85.5s36.667 60.833 66 95.5c25.333 33.333 44.166 62.666 56.499 87.999s18.5 52.333 18.5 81c0 5.33301 -0.666992 14 -2 26h42z" />
    <glyph glyph-name="multiply" unicode="&#xd7;" horiz-adv-x="518" 
d="M85 145l-30 31l176 181l-176 178l30 32l175 -181l172 181l30 -32l-175 -178l175 -181l-30 -31l-172 182z" />
    <glyph glyph-name="divide" unicode="&#xf7;" horiz-adv-x="517" 
d="M229 518.5c-8.66699 8.33301 -13 18.833 -13 31.5c0 12 4.33301 22.167 13 30.5s19 12.5 31 12.5s21.833 -4.16699 29.5 -12.5s11.5 -18.5 11.5 -30.5c0 -12.667 -3.83301 -23.167 -11.5 -31.5s-17.5 -12.5 -29.5 -12.5s-22.333 4.16699 -31 12.5zM37 335v42h443v-42
h-443zM229 130.5c-8.66699 8.33301 -13 18.833 -13 31.5c0 12 4.33301 22.167 13 30.5s19 12.5 31 12.5s21.833 -4 29.5 -12s11.5 -18.333 11.5 -31s-3.83301 -23.167 -11.5 -31.5s-17.5 -12.5 -29.5 -12.5s-22.333 4.16699 -31 12.5z" />
    <glyph glyph-name="uni060C" unicode="&#x60c;" horiz-adv-x="204" 
d="M129 66.5c7.33301 -7 11.001 -15.835 11.001 -26.502c0 -11.333 -3.66699 -20.666 -11 -27.999s-16.333 -11 -27 -11c-12.667 0 -24 5 -34 15s-15 25 -15 45c0 22.667 6.33301 48.834 19 78.501s27 56.5 43 80.5l22 -23c-35.333 -51.333 -54.333 -93.333 -57 -126
c5.33301 4 12.666 6 21.999 6c10.667 0 19.667 -3.5 27 -10.5zM81.001 44.998l-1 12c0 -5.33301 0.333008 -9.33301 1 -12z" />
    <glyph glyph-name="uni061B" unicode="&#x61b;" horiz-adv-x="250" 
d="M80 202c-10 10 -14.999 25 -14.999 45c0 23.333 6.5 50 19.5 80s27.167 56 42.5 78l21 -22c-15.333 -22.667 -28 -44.334 -38 -65.001s-16 -40.667 -18 -60c5.33301 3.33301 12.666 5 21.999 5c10.667 0 19.667 -3.5 27 -10.5s11 -15.833 11 -26.5
c0 -11.333 -3.66699 -20.666 -11 -27.999s-16.333 -11 -27 -11c-12.667 0 -24 5 -34 15zM92.001 243c0 -5.33301 0.333008 -9.33301 1 -12zM139.001 66c7.33301 -7.33301 11 -16.333 11 -27c0 -10 -3.66699 -18.833 -11 -26.5s-16.333 -11.5 -27 -11.5
s-19.5 3.83301 -26.5 11.5s-10.5 16.5 -10.5 26.5c0 10.667 3.66699 19.667 11 27s16 11 26 11c10.667 0 19.667 -3.66699 27 -11z" />
    <glyph glyph-name="uni061F" unicode="&#x61f;" horiz-adv-x="481" 
d="M389 468c0 86 -48.998 129.001 -146.998 129.001c-48 0 -83.667 -10.833 -107 -32.5s-35 -52.5 -35 -92.5c0 -19.333 2.66699 -35.5 8 -48.5s13.5 -25.333 24.5 -37s28.5 -27.5 52.5 -47.5c19.333 -16.667 36.333 -32 51 -46c24.667 -22.667 40.667 -45.167 48 -67.5
s11 -52.833 11 -91.5l-31 -5c-0.666992 25.333 -1.83398 43.5 -3.50098 54.5s-6.83398 23 -15.501 36s-23.667 29.833 -45 50.5c-8 7.33301 -24 20.666 -48 39.999c-22 18 -38.5 32.5 -49.5 43.5s-20.167 25 -27.5 42s-11 37.5 -11 61.5c0 55.333 15.5 99.333 46.5 132
s74.833 49 131.5 49c55.333 0 98.333 -13.833 129 -41.5s46 -66.5 46 -116.5c0 -16 -1.33301 -31.667 -4 -47h-27c2 13.333 3 25 3 35zM251.502 12.501c-7 7.66699 -10.5 16.834 -10.5 27.501c0 11.333 3.66699 20.666 11 27.999s16.333 11 27 11
c11.333 0 20.666 -3.66699 27.999 -11s11 -16.666 11 -27.999c0 -10.667 -3.66699 -19.834 -11 -27.501s-16.666 -11.5 -27.999 -11.5s-20.5 3.83301 -27.5 11.5z" />
    <glyph glyph-name="uni0621" unicode="&#x621;" horiz-adv-x="584" 
d="M68 31l146.998 60.999c-24.667 33.333 -42.167 59.333 -52.5 78s-17.166 35.334 -20.499 50.001s-5 34 -5 58c0 35.333 16.667 62.833 50 82.5s71.666 29.5 114.999 29.5c24.667 0 47 -2.33301 67 -7l-4 -37c-23.333 5.33301 -44 8 -62 8
c-59.333 0 -104.666 -15.667 -135.999 -47c-1.33301 -38 4.83398 -72 18.501 -102s35.5 -62.333 65.5 -97l258 105l6 -35l-438 -181z" />
    <glyph glyph-name="uni0622" unicode="&#x622;" horiz-adv-x="215" 
d="M185 630c-24.667 0 -53.666 2.66699 -86.999 8c-22 3.33301 -38.667 5 -50 5c-12 0 -21 -1.33301 -27 -4s-10.333 -6.5 -13 -11.5s-6.33398 -14.167 -11.001 -27.5l-22 6c6 24.667 14.167 41 24.5 49s26.5 12 48.5 12c12 0 33.333 -2 64 -6c30 -4 54 -6.33301 72 -7
l48 -1l-7 -23h-40zM130.001 0l-30 -4l-15 523l32 8z" />
    <glyph glyph-name="uni0623" unicode="&#x623;" horiz-adv-x="184" 
d="M-75 589l98.001 29.998c-14 26 -23.5 47.167 -28.5 63.5s-7.5 33.5 -7.5 51.5c0 16.667 10.167 29.834 30.5 39.501s47.5 14.834 81.5 15.501c9.33301 0 16.666 -0.333008 21.999 -1l1 -24c-6.66699 0.666992 -16 1 -28 1c-16 0 -31.5 -2.16699 -46.5 -6.5
s-26.167 -9.83301 -33.5 -16.5c0.666992 -22 3.66699 -42 9 -60s13.333 -35.667 24 -53l158 49l5 -24l-280 -89zM109.001 -0.00195312l-30 -4l-14 523l32 8z" />
    <glyph glyph-name="uni0624" unicode="&#x624;" horiz-adv-x="421" 
d="M56 390l98 30c-13.333 26 -22.666 47 -27.999 63s-8 32.667 -8 50c0 16.667 10.167 30.167 30.5 40.5s47.5 15.833 81.5 16.5c9.33301 0 16.666 -0.666992 21.999 -2l1 -23c-6.66699 0.666992 -16 1 -28 1c-16.667 -0.666992 -32.5 -3 -47.5 -7
s-25.833 -9.33301 -32.5 -16c0.666992 -22 3.66699 -42 9 -60s13.333 -35.667 24 -53l158 49l5 -24l-280 -90zM309.5 214c17 -50 25.498 -103.336 25.498 -160.003c0 -75.333 -28.167 -138.333 -84.5 -189s-118.833 -88.667 -187.5 -114l-12 31
c140.667 56 223.334 129.667 248.001 221c-30 -2.66699 -69.333 -4 -118 -4c-30.667 0 -51.667 0.666992 -63 2c-11.333 2 -19.333 4.33301 -24 7s-10 8 -16 16c-5.33301 6.66699 -8.66602 12.834 -9.99902 18.501s-2 11.667 -2 18v13.5
c0 24.667 4.16699 53.834 12.5 87.501s22.5 63.334 42.5 89.001s46.333 38.5 79 38.5c56 0 92.5 -25 109.5 -75zM304.998 42.9971c0.666992 1.33301 1 3.66699 1 7c-0.666992 69.333 -9.5 120.833 -26.5 154.5s-43.5 50.5 -79.5 50.5c-34 0 -60.5 -20.167 -79.5 -60.5
s-28.5 -90.833 -28.5 -151.5c12 -6 39.667 -9 83 -9c62.667 0 106 3 130 9z" />
    <glyph glyph-name="uni0625" unicode="&#x625;" horiz-adv-x="187" 
d="M84 668l17 -668l-31 -4l-17 664zM-56 -329l98.001 30c-13.333 26 -22.666 47.167 -27.999 63.5s-8 33.166 -8 50.499c0 16.667 10.167 30.167 30.5 40.5s47.5 15.5 81.5 15.5h10c5.33301 0 9.33301 -0.333008 12 -1l1 -23
c-4.66699 0.666992 -9.83398 0.833984 -15.501 0.500977s-9.83398 -0.5 -12.501 -0.5c-16 0 -31.5 -2.16699 -46.5 -6.5s-26.167 -9.5 -33.5 -15.5c0.666992 -22 3.66699 -42 9 -60s13.333 -36 24 -54l158 50l5 -24l-280 -90z" />
    <glyph glyph-name="uni0626" unicode="&#x626;" horiz-adv-x="705" 
d="M100 383l99.001 30.001c-14 25.333 -23.5 46.166 -28.5 62.499s-7.5 33.5 -7.5 51.5c0 16.667 10 30 30 40s47 15.333 81 16c10 0 17.333 -0.666992 22 -2l2 -23c-6.66699 0.666992 -16.334 1 -29.001 1c-16 -0.666992 -31.5 -3 -46.5 -7s-25.833 -9.33301 -32.5 -16
c0.666992 -22 3.66699 -42 9 -60s13.333 -35.667 24 -53l158 49l5 -24l-280 -90zM127.001 -135.999c-24.667 36 -36.9971 67.3281 -36.9971 93.9951c0 16.667 4.16699 55.834 12.5 117.501s17.166 119.834 26.499 174.501l28 -6
c-7.33301 -41.333 -14.333 -86.666 -21 -135.999s-12 -91.333 -16 -126c-0.666992 -4 -1 -9.66699 -1 -17c0 -48.667 19 -81.334 57 -98.001s81.333 -25 130 -25c60 0 110.667 5 152 15s78.333 30 111 60c3.33301 32 5 55.333 5 70c0 30 -4.83301 50.667 -14.5 62
s-27.167 19 -52.5 23c-26 5.33301 -54.333 9.33301 -85 12c-24 2 -39.667 5.16699 -47 9.5s-11 13.833 -11 28.5c0 47.333 7.5 93.166 22.5 137.499s36.167 80.333 63.5 108s58.333 41.5 93 41.5c18.667 0 34.5 -4.5 47.5 -13.5s23.667 -18.5 32 -28.5
s13.166 -15.333 14.499 -16l-16 -14c-25.333 25.333 -51.666 38 -78.999 38c-26.667 0 -51.334 -12.167 -74.001 -36.5s-40.834 -56.166 -54.501 -95.499s-21.5 -80.666 -23.5 -123.999c50 -3.33301 89.333 -7.66602 118 -12.999s52.167 -15.333 70.5 -30s27.5 -36 27.5 -64
c0 -29.333 -2 -53.666 -6 -72.999s-11.667 -36 -23 -50c-43.333 -52.667 -133 -79 -269 -79c-96 0 -156.333 18 -181 54z" />
    <glyph glyph-name="uni0627" unicode="&#x627;" horiz-adv-x="187" 
d="M84 668l17 -668l-31 -4l-17 664z" />
    <glyph glyph-name="uni0628" unicode="&#x628;" horiz-adv-x="827" 
d="M738 79c0 -21.333 -16.667 -38.333 -50 -51c-56.667 -22.667 -156.334 -34 -299.001 -34c-99.333 0 -174.5 10.667 -225.5 32s-76.5 61.666 -76.5 120.999c0 8 1.33301 21.333 4 40l26 156l27 -5l-25 -154c-2 -14 -3 -25.667 -3 -35
c0 -49.333 24.833 -82.166 74.5 -98.499s115.834 -24.5 198.501 -24.5c74 0 139.833 3.5 197.5 10.5s100.167 18.167 127.5 33.5l-15 246l32 9c4.66699 -107.333 7 -189.333 7 -246zM396 -121l41 -34l-35 -39l-39 33z" />
    <glyph glyph-name="uni0629" unicode="&#x629;" horiz-adv-x="459" 
d="M190 532l-35 -39l-37 33l32 38zM288 528l-35 -39l-37 32l32 40zM122.5 13.5c-24.333 13 -36.499 39.8311 -36.499 80.498c0 30 13 66.333 39 109s53.667 78 83 106l-39 26l15 23c52.667 -34 92.5 -66.667 119.5 -98s45 -60.666 54 -87.999s14.167 -57.666 15.5 -90.999
c0.666992 -18.667 -1.33301 -34 -6 -46c-4.66699 -11.333 -11 -19 -19 -23c-26.667 -12 -72.334 -18 -137.001 -18c-34.667 0 -64.167 6.5 -88.5 19.5zM345.001 39.998c0.666992 6 1.00098 16.333 1.00098 31c0 84.667 -39.333 158 -118 220
c-30 -28.667 -56.833 -64 -80.5 -106s-35.5 -73.667 -35.5 -95s6.66699 -37 20 -47s39.666 -15.333 78.999 -16c57.333 0 102 4.33301 134 13z" />
    <glyph glyph-name="uni062A" unicode="&#x62a;" horiz-adv-x="827" 
d="M393 413l-38 32l33 39l40 -33zM491 409l-38 31l33 40l39 -32zM738 79c0 -21.333 -16.667 -38.333 -50 -51c-56.667 -22.667 -156.334 -34 -299.001 -34c-99.333 0 -174.5 10.667 -225.5 32s-76.5 61.666 -76.5 120.999c0 8 1.33301 21.333 4 40l26 156l27 -5l-25 -154
c-2 -14 -3 -25.667 -3 -35c0 -49.333 24.833 -82.166 74.5 -98.499s115.834 -24.5 198.501 -24.5c74 0 139.833 3.5 197.5 10.5s100.167 18.167 127.5 33.5l-15 246l32 9c4.66699 -107.333 7 -189.333 7 -246z" />
    <glyph glyph-name="uni062B" unicode="&#x62b;" horiz-adv-x="827" 
d="M440 518l-39 33l32 39l39 -33zM385 414l-38 31l31 39l39 -34zM448 442l32 39l39 -34l-34 -38zM738 79c0 -21.333 -16.667 -38.333 -50 -51c-56.667 -22.667 -156.334 -34 -299.001 -34c-99.333 0 -174.5 10.667 -225.5 32s-76.5 61.666 -76.5 120.999
c0 8 1.33301 21.333 4 40l26 156l27 -5l-25 -154c-2 -14 -3 -25.667 -3 -35c0 -49.333 24.833 -82.166 74.5 -98.499s115.834 -24.5 198.501 -24.5c74 0 139.833 3.5 197.5 10.5s100.167 18.167 127.5 33.5l-15 246l32 9c4.66699 -107.333 7 -189.333 7 -246z" />
    <glyph glyph-name="uni062C" unicode="&#x62c;" horiz-adv-x="676" 
d="M611 289c-56 -8.66699 -118.502 -27.1689 -187.502 -55.502s-131.167 -63.666 -186.5 -105.999s-91.666 -87.833 -108.999 -136.5c-7.33301 -26.667 -11 -58.667 -11 -96c0 -149.333 95.333 -224 286 -224h146l-1 -31h-144c-96.667 0 -168.5 16.167 -215.5 48.5
s-75.833 66.833 -86.5 103.5s-16 74.334 -16 113.001c0 84.667 34.667 158.667 104 222s162.666 116 279.999 158c11.333 4 29 8.66699 53 14c-28.667 2 -58.167 7.33301 -88.5 16s-72.833 22 -127.5 40c-2.66699 1.33301 -9 3.66602 -19 6.99902
c-53.333 17.333 -91.333 26 -114 26c-14 0 -25.833 -6.16699 -35.5 -18.5s-18.167 -31.166 -25.5 -56.499l-23 6c19.333 67.333 48.333 101 87 101c20.667 0 66.334 -11 137.001 -33c59.333 -20 109.833 -35.5 151.5 -46.5s80.834 -16.5 117.501 -16.5
c7.33301 0 17 0.666992 29 2zM317.998 -52.002l36 43l45 -37l-38 -42z" />
    <glyph glyph-name="uni062D" unicode="&#x62d;" horiz-adv-x="676" 
d="M423.5 233.5c-69 -28.333 -131.169 -63.668 -186.502 -106.001s-91.666 -87.833 -108.999 -136.5c-7.33301 -26.667 -11 -58.667 -11 -96c0 -149.333 95.333 -224 286 -224h146l-1 -31h-144c-96.667 0 -168.5 16.167 -215.5 48.5s-75.833 66.833 -86.5 103.5
s-16 74.334 -16 113.001c0 84.667 34.667 158.667 104 222s162.666 116 279.999 158c11.333 4 29 8.66699 53 14c-28.667 2 -58.167 7.33301 -88.5 16s-72.833 22 -127.5 40c-2.66699 1.33301 -9 3.66602 -19 6.99902c-53.333 17.333 -91.333 26 -114 26
c-14 0 -25.833 -6.16699 -35.5 -18.5s-18.167 -31.166 -25.5 -56.499l-23 6c19.333 67.333 48.333 101 87 101c20.667 0 66.334 -11 137.001 -33c59.333 -20 109.833 -35.5 151.5 -46.5s80.834 -16.5 117.501 -16.5c7.33301 0 17 0.666992 29 2l-1 -37
c-56 -8.66699 -118.5 -27.167 -187.5 -55.5z" />
    <glyph glyph-name="uni062E" unicode="&#x62e;" horiz-adv-x="676" 
d="M370 529l-38 33l33 40l40 -34zM423.5 233.5c-69 -28.333 -131.169 -63.668 -186.502 -106.001s-91.666 -87.833 -108.999 -136.5c-7.33301 -26.667 -11 -58.667 -11 -96c0 -149.333 95.333 -224 286 -224h146l-1 -31h-144c-96.667 0 -168.5 16.167 -215.5 48.5
s-75.833 66.833 -86.5 103.5s-16 74.334 -16 113.001c0 84.667 34.667 158.667 104 222s162.666 116 279.999 158c11.333 4 29 8.66699 53 14c-28.667 2 -58.167 7.33301 -88.5 16s-72.833 22 -127.5 40c-2.66699 1.33301 -9 3.66602 -19 6.99902
c-53.333 17.333 -91.333 26 -114 26c-14 0 -25.833 -6.16699 -35.5 -18.5s-18.167 -31.166 -25.5 -56.499l-23 6c19.333 67.333 48.333 101 87 101c20.667 0 66.334 -11 137.001 -33c59.333 -20 109.833 -35.5 151.5 -46.5s80.834 -16.5 117.501 -16.5
c7.33301 0 17 0.666992 29 2l-1 -37c-56 -8.66699 -118.5 -27.167 -187.5 -55.5z" />
    <glyph glyph-name="uni062F" unicode="&#x62f;" horiz-adv-x="542" 
d="M452.5 55c-1.66699 -9.33301 -5.83398 -17.332 -12.501 -23.999l-12 -9l-2 -5l1 4c-33.333 -19.333 -98 -29 -194 -29c-45.333 0 -78.166 3.5 -98.499 10.5s-33.5 18.667 -39.5 35s-9 41.833 -9 76.5v9l26 1c0.666992 -4 1 -9.33301 1 -16
c0 -28.667 2.16699 -48.167 6.5 -58.5s14.333 -17 30 -20s45.167 -4.5 88.5 -4.5c34 0 70.167 2 108.5 6s66.5 11.667 84.5 23l1 21c0 61.333 -15.667 118.333 -47 171s-74.333 104 -129 154l22 24c52.667 -52 92 -99.333 118 -142s42.333 -78.334 49 -107.001
s10 -56.667 10 -84c0 -14.667 -0.833008 -26.667 -2.5 -36z" />
    <glyph glyph-name="uni0630" unicode="&#x630;" horiz-adv-x="542" 
d="M270 575l-38 33l33 40l40 -34zM452.5 55c-1.66699 -9.33301 -5.83398 -17.332 -12.501 -23.999l-12 -9l-2 -5l1 4c-33.333 -19.333 -98 -29 -194 -29c-45.333 0 -78.166 3.5 -98.499 10.5s-33.5 18.667 -39.5 35s-9 41.833 -9 76.5v9l26 1c0.666992 -4 1 -9.33301 1 -16
c0 -28.667 2.16699 -48.167 6.5 -58.5s14.333 -17 30 -20s45.167 -4.5 88.5 -4.5c34 0 70.167 2 108.5 6s66.5 11.667 84.5 23l1 21c0 61.333 -15.667 118.333 -47 171s-74.333 104 -129 154l22 24c52.667 -52 92 -99.333 118 -142s42.333 -78.334 49 -107.001
s10 -56.667 10 -84c0 -14.667 -0.833008 -26.667 -2.5 -36z" />
    <glyph glyph-name="uni0631" unicode="&#x631;" horiz-adv-x="316" 
d="M-52 -217c70 29.333 127.168 62.833 171.501 100.5s72.166 74.167 83.499 109.5l-29 266l33 11c5.33301 -62.667 10.333 -117.667 15 -165c5.33301 -52 8 -84.333 8 -97c0 -45.333 -24 -90 -72 -134s-113.667 -84 -197 -120z" />
    <glyph glyph-name="uni0632" unicode="&#x632;" horiz-adv-x="316" 
d="M206 466l-36 -39l-37 33l33 40zM-52 -217c70 29.333 127.168 62.833 171.501 100.5s72.166 74.167 83.499 109.5l-29 266l33 11c5.33301 -62.667 10.333 -117.667 15 -165c5.33301 -52 8 -84.333 8 -97c0 -45.333 -24 -90 -72 -134s-113.667 -84 -197 -120z" />
    <glyph glyph-name="uni0633" unicode="&#x633;" horiz-adv-x="1112" 
d="M1022 207c2.66699 -57.333 3.99805 -105.334 3.99805 -144.001c0 -24 -14 -40.5 -42 -49.5s-57.667 -13.5 -89 -13.5c-20.667 0 -37.667 3.33301 -51 10s-22.666 16 -27.999 28c-2 -4 -5.33301 -7.66699 -10 -11c-12 -8.66699 -29.667 -15.334 -53 -20.001s-48 -7 -74 -7
c-42.667 0 -72.334 12.667 -89.001 38l9 -129c1.33301 -20 -9.16699 -39 -31.5 -57s-55.833 -32.5 -100.5 -43.5s-97.667 -16.5 -159 -16.5c-96 0.666992 -156.333 18.834 -181 54.501s-37 67.167 -37 94.5c0 16 4.16699 55.167 12.5 117.5s17.166 120.5 26.499 174.5l28 -6
c-7.33301 -41.333 -14.333 -86.666 -21 -135.999s-12 -91.333 -16 -126c-0.666992 -4 -1 -9.66699 -1 -17c0 -81.333 63 -122 189 -122c60.667 0 112.334 4.83301 155.001 14.5s78.667 26.5 108 50.5l-32 392l32 9l13 -168v-6c2.66699 -32 12.167 -54.333 28.5 -67
s41.833 -19 76.5 -19c30 0 54.333 2 73 6s33 11.333 43 22l-8 217l33 1l3 -218c8.66699 -12 18.834 -19.667 30.501 -23s25.834 -5 42.501 -5c46 0 78 8.33301 96 25l-19 260l35 6c0 -25.333 1.33301 -64 4 -116z" />
    <glyph glyph-name="uni0634" unicode="&#x634;" horiz-adv-x="1112" 
d="M802 510l-39 32l31 40l39 -33zM746 405l-38 32l32 39l39 -34zM810 433l31 39l39 -34l-33 -38zM1022 207c2.66699 -57.333 3.99805 -105.334 3.99805 -144.001c0 -24 -14 -40.5 -42 -49.5s-57.667 -13.5 -89 -13.5c-20.667 0 -37.667 3.33301 -51 10
s-22.666 16 -27.999 28c-2 -4 -5.33301 -7.66699 -10 -11c-12 -8.66699 -29.667 -15.334 -53 -20.001s-48 -7 -74 -7c-42.667 0 -72.334 12.667 -89.001 38l9 -129c1.33301 -20 -9.16699 -39 -31.5 -57s-55.833 -32.5 -100.5 -43.5s-97.667 -16.5 -159 -16.5
c-96 0.666992 -156.333 18.834 -181 54.501s-37 67.167 -37 94.5c0 16 4.16699 55.167 12.5 117.5s17.166 120.5 26.499 174.5l28 -6c-7.33301 -41.333 -14.333 -86.666 -21 -135.999s-12 -91.333 -16 -126c-0.666992 -4 -1 -9.66699 -1 -17c0 -81.333 63 -122 189 -122
c60.667 0 112.334 4.83301 155.001 14.5s78.667 26.5 108 50.5l-32 392l32 9l13 -168v-6c2.66699 -32 12.167 -54.333 28.5 -67s41.833 -19 76.5 -19c30 0 54.333 2 73 6s33 11.333 43 22l-8 217l33 1l3 -218c8.66699 -12 18.834 -19.667 30.501 -23s25.834 -5 42.501 -5
c46 0 78 8.33301 96 25l-19 260l35 6c0 -25.333 1.33301 -64 4 -116z" />
    <glyph glyph-name="uni0635" unicode="&#x635;" horiz-adv-x="1225" 
d="M1101.5 290c24.333 -31.333 36.5029 -79.3359 36.5029 -144.003c0 -22.667 -1 -40.667 -3 -54s-6.33301 -22.666 -13 -27.999c-24.667 -18 -64.834 -33.667 -120.501 -47s-120.834 -20 -195.501 -20c-99.333 0 -171 8.33301 -215 25l8 -113
c1.33301 -20 -9.16699 -39 -31.5 -57s-55.833 -32.5 -100.5 -43.5s-97.667 -16.5 -159 -16.5c-96 0.666992 -156.333 18.834 -181 54.501s-37 67.167 -37 94.5c0 16 4.16699 55.167 12.5 117.5s17.166 120.5 26.499 174.5l28 -6
c-7.33301 -41.333 -14.333 -86.666 -21 -135.999s-12 -91.333 -16 -126c-0.666992 -4 -1 -9.66699 -1 -17c0 -81.333 63 -122 189 -122c60.667 0 112.334 4.83301 155.001 14.5s78.667 26.5 108 50.5l-32 392l32 9l10 -126c1.33301 -28 4 -65.333 8 -112
c11.333 -5.33301 21.333 -8.33301 30 -9l18 21c58.667 70 118.667 132.667 180 188s118.333 83 171 83c51.333 0 89.166 -15.667 113.499 -47zM1108 85.9971c-0.666992 49.333 -3 88.168 -7 116.501s-14.5 52.166 -31.5 71.499s-43.833 29 -80.5 29
c-41.333 0 -92.5 -24.5 -153.5 -73.5s-122.833 -112.5 -185.5 -190.5c40 -6 93.667 -9 161 -9c106 0 205 18.667 297 56z" />
    <glyph glyph-name="uni0636" unicode="&#x636;" horiz-adv-x="1224" 
d="M840 452l-38 33l33 40l40 -34zM1101.5 290c24.333 -31.333 36.5029 -79.3359 36.5029 -144.003c0 -22.667 -1 -40.667 -3 -54s-6.33301 -22.666 -13 -27.999c-24.667 -18 -64.834 -33.667 -120.501 -47s-120.834 -20 -195.501 -20c-99.333 0 -171 8.33301 -215 25l8 -113
c1.33301 -20 -9.16699 -39 -31.5 -57s-55.833 -32.5 -100.5 -43.5s-97.667 -16.5 -159 -16.5c-96 0.666992 -156.333 18.834 -181 54.501s-37 67.167 -37 94.5c0 16 4.16699 55.167 12.5 117.5s17.166 120.5 26.499 174.5l28 -6
c-7.33301 -41.333 -14.333 -86.666 -21 -135.999s-12 -91.333 -16 -126c-0.666992 -4 -1 -9.66699 -1 -17c0 -81.333 63 -122 189 -122c60.667 0 112.334 4.83301 155.001 14.5s78.667 26.5 108 50.5l-32 392l32 9l10 -126c1.33301 -28 4 -65.333 8 -112
c11.333 -5.33301 21.333 -8.33301 30 -9l18 21c58.667 70 118.667 132.667 180 188s118.333 83 171 83c51.333 0 89.166 -15.667 113.499 -47zM1108 85.9971c-0.666992 49.333 -3 88.168 -7 116.501s-14.5 52.166 -31.5 71.499s-43.833 29 -80.5 29
c-41.333 0 -92.5 -24.5 -153.5 -73.5s-122.833 -112.5 -185.5 -190.5c40 -6 93.667 -9 161 -9c106 0 205 18.667 297 56z" />
    <glyph glyph-name="uni0637" unicode="&#x637;" horiz-adv-x="787" 
d="M664 290c24 -31.333 35.998 -79.6689 35.998 -145.002c0 -22.667 -1 -40.667 -3 -54s-6.66699 -22.333 -14 -27c-23.333 -18.667 -66.5 -34 -129.5 -46s-148.167 -18 -255.5 -18h-194l-18 32h86c4.66699 6.66699 13.334 17.334 26.001 32.001l22 27
c9.33301 12.667 15.833 32 19.5 58s5.5 75.333 5.5 148c0 68 -2 172 -6 312l-1 51l31 8l9 -400c0.666992 -30.667 0 -56.167 -2 -76.5s-5.66699 -37.166 -11 -50.499c52.667 57.333 103.334 104.333 152.001 141s93 55 133 55c52 0 90 -15.667 114 -47zM516.998 43.9971
c59.333 8 110 22 152 42c0 48 -2 86.333 -6 115s-14.667 52.667 -32 72s-44 29 -80 29c-42 0 -93.667 -25 -155 -75s-123.333 -115 -186 -195h94c82.667 0 153.667 4 213 12z" />
    <glyph glyph-name="uni0638" unicode="&#x638;" horiz-adv-x="787" 
d="M664 290c24 -31.333 35.998 -79.6689 35.998 -145.002c0 -22.667 -1 -40.667 -3 -54s-6.66699 -22.333 -14 -27c-23.333 -18.667 -66.5 -34 -129.5 -46s-148.167 -18 -255.5 -18h-194l-18 32h86c4.66699 6.66699 13.334 17.334 26.001 32.001l22 27
c9.33301 12.667 15.833 32 19.5 58s5.5 75.333 5.5 148c0 68 -2 172 -6 312l-1 51l31 8l9 -400c0.666992 -30.667 0 -56.167 -2 -76.5s-5.66699 -37.166 -11 -50.499c52.667 57.333 103.334 104.333 152.001 141s93 55 133 55c52 0 90 -15.667 114 -47zM505.998 447.997
l-37 33l32 40l40 -34zM516.998 43.9971c59.333 8 110 22 152 42c0 48 -2 86.333 -6 115s-14.667 52.667 -32 72s-44 29 -80 29c-42 0 -93.667 -25 -155 -75s-123.333 -115 -186 -195h94c82.667 0 153.667 4 213 12z" />
    <glyph glyph-name="uni0639" unicode="&#x639;" horiz-adv-x="642" 
d="M190.5 -283c-47 31.333 -76.166 65.3311 -87.499 101.998s-17 74 -17 112c0 45.333 7.5 84.833 22.5 118.5s34.5 62.167 58.5 85.5s53.667 46.666 89 69.999c-32 42.667 -53.667 80.334 -65 113.001s-17 66.667 -17 102c0 22.667 15.667 41.334 47 56.001
s64.333 22 99 22c22.667 0 40.834 -1.5 54.501 -4.5s22.167 -4.83301 25.5 -5.5l-3 -31c-27.333 4.66699 -54.333 7 -81 7c-23.333 0 -44.5 -2.66699 -63.5 -8s-37.167 -14.666 -54.5 -27.999c3.33301 -38 12.5 -75.667 27.5 -113s33.833 -69.666 56.5 -96.999l241 78l6 -31
c-94 -28 -162.333 -50.333 -205 -67s-79.834 -38.334 -111.501 -65.001s-59.834 -64 -84.501 -112c-3.33301 -12 -6 -27.167 -8 -45.5s-3 -34.833 -3 -49.5c0 -149.333 95.333 -224 286 -224h146l-1 -32h-144c-95.333 0 -166.5 15.667 -213.5 47z" />
    <glyph glyph-name="uni063A" unicode="&#x63a;" horiz-adv-x="642" 
d="M328 675l-35 -39l-37 33l32 40zM190.5 -283c-47 31.333 -76.166 65.3311 -87.499 101.998s-17 74 -17 112c0 45.333 7.5 84.833 22.5 118.5s34.5 62.167 58.5 85.5s53.667 46.666 89 69.999c-32 42.667 -53.667 80.334 -65 113.001s-17 66.667 -17 102
c0 22.667 15.667 41.334 47 56.001s64.333 22 99 22c22.667 0 40.834 -1.5 54.501 -4.5s22.167 -4.83301 25.5 -5.5l-3 -31c-27.333 4.66699 -54.333 7 -81 7c-23.333 0 -44.5 -2.66699 -63.5 -8s-37.167 -14.666 -54.5 -27.999c3.33301 -38 12.5 -75.667 27.5 -113
s33.833 -69.666 56.5 -96.999l241 78l6 -31c-94 -28 -162.333 -50.333 -205 -67s-79.834 -38.334 -111.501 -65.001s-59.834 -64 -84.501 -112c-3.33301 -12 -6 -27.167 -8 -45.5s-3 -34.833 -3 -49.5c0 -149.333 95.333 -224 286 -224h146l-1 -32h-144
c-95.333 0 -166.5 15.667 -213.5 47z" />
    <glyph glyph-name="uni0640" unicode="&#x640;" horiz-adv-x="216" 
d="M222.5 28c1.66699 -2.66699 2.5 -6 2.5 -10v-4c0 -3.33301 -0.833008 -6.5 -2.5 -9.5s-3.83398 -4.5 -6.50098 -4.5h-216c-2.66699 0 -5 1.5 -7 4.5s-3 6.16699 -3 9.5v4c0 4 1 7.33301 3 10s4.33301 4 7 4h216c2.66699 0 4.83398 -1.33301 6.50098 -4z" />
    <glyph glyph-name="uni0641" unicode="&#x641;" horiz-adv-x="829" 
d="M608 543l-38 33l33 40l40 -34zM742 148c0 -32.667 -1.16699 -56 -3.5 -70s-6.83301 -24.667 -13.5 -32s-18.667 -15 -36 -23c-23.333 -11.333 -58.833 -19 -106.5 -23s-112.167 -6 -193.5 -6c-99.333 0 -174.5 10.667 -225.5 32s-76.5 61.666 -76.5 120.999
c0 8 1.33301 21.333 4 40l26 156l27 -5l-25 -154c-2 -14 -3 -25.667 -3 -35c0 -49.333 24.833 -82.166 74.5 -98.499s115.834 -24.5 198.501 -24.5c88.667 0 157 2.66699 205 8s85.667 15.333 113 30c1.33301 10.667 2.66602 28 3.99902 52l2 25
c-52.667 -4.66699 -94.667 -7 -126 -7c-29.333 0 -50 1.33301 -62 4c-12 2 -20.333 4.33301 -25 7s-10 8 -16 16c-5.33301 6.66699 -8.5 13 -9.5 19s-1.5 15 -1.5 27c0 24.667 4.16699 54 12.5 88s22.666 64.167 42.999 90.5s47.5 39.5 81.5 39.5
c54.667 0 90.334 -25 107.001 -75s25 -103 25 -159v-43zM712 178c0 72.667 -8.5 126.332 -25.5 160.999s-43.5 52 -79.5 52c-34 0 -60.333 -20.167 -79 -60.5s-27.667 -91.166 -27 -152.499c11.333 -5.33301 38.333 -8 81 -8c62 0 105.333 2.66699 130 8z" />
    <glyph glyph-name="uni0642" unicode="&#x642;" horiz-adv-x="721" 
d="M451 421l-37 32l32 39l40 -33zM549 417l-38 31l33 40l40 -32zM632 -64c0 -26 -1.66992 -42.668 -5.00293 -50.001c-15.333 -32 -54.833 -55.833 -118.5 -71.5s-130.5 -23.5 -200.5 -23.5c-96 0 -156.333 18 -181 54s-37 67.667 -37 95c0 16 4.16699 55 12.5 117
s17.166 120 26.499 174l28 -6c-7.33301 -41.333 -14.333 -86.666 -21 -135.999s-12 -91.333 -16 -126c-0.666992 -4 -1 -9.66699 -1 -17c0 -81.333 63 -122 189 -122c63.333 0 121.333 5 174 15s93.334 27 122.001 51l-1 111c-33.333 -3.33301 -83.666 -5 -150.999 -5
c-18.667 0 -31.667 0.666992 -39 2c-11.333 2 -19.166 4.33301 -23.499 7s-9.83301 8 -16.5 16c-5.33301 6.66699 -8.66602 13.167 -9.99902 19.5s-2 15.5 -2 27.5c0 24 4.16699 53 12.5 87s22.5 64.333 42.5 91s46.667 40 80 40c56 0 92 -24.5 108 -73.5
s24.667 -102.833 26 -161.5zM600.997 39.999c0 71.333 -8.50098 124.333 -25.501 159s-43.5 52 -79.5 52c-34.667 0 -61.167 -20 -79.5 -60s-27.5 -90.333 -27.5 -151c12 -6.66699 39 -10 81 -10c64.667 0 108.334 3.33301 131.001 10z" />
    <glyph glyph-name="uni0643" unicode="&#x643;" horiz-adv-x="760" 
d="M551.5 41.5c40.333 6.33301 72.165 17.832 95.498 34.499l-30 582l31 8c3.33301 -97.333 8.33301 -203.333 15 -318c2 -40.667 5.66699 -121 11 -241c0.666992 -32 -13.333 -55.667 -42 -71c-45.333 -24 -126.666 -36 -243.999 -36c-99.333 0 -174.5 10.833 -225.5 32.5
s-76.5 62.5 -76.5 122.5c0 14 1.33301 27.333 4 40l26 155l27 -5l-25 -154c-2 -12.667 -3 -24.667 -3 -36c0 -49.333 24.833 -82.166 74.5 -98.499s115.834 -24.5 198.501 -24.5c68.667 0 123.167 3.16699 163.5 9.5zM397.499 335.499c29.667 7 52.8389 15.167 69.5059 24.5
c1.33301 22 -0.833984 37 -6.50098 45s-18.834 14 -39.501 18c-14.667 3.33301 -34.334 6 -59.001 8c-14.667 2 -24.334 4.33301 -29.001 7s-7 9 -7 19s4.33301 27.333 13 52s21.167 47.167 37.5 67.5s35.833 30.5 58.5 30.5c25.333 0 48.666 -15 69.999 -45l-18 -13
c-17.333 17.333 -34.333 26 -51 26c-20.667 0 -39 -12 -55 -36s-26.667 -49.667 -32 -77l23 -3c33.333 -4 57.666 -7.83301 72.999 -11.5s27.666 -10.167 36.999 -19.5s14 -23 14 -41c0.666992 -30.667 -17 -53.667 -53 -69s-85 -23.333 -147 -24l2 31
c36.667 0 69.834 3.5 99.501 10.5z" />
    <glyph glyph-name="uni0644" unicode="&#x644;" horiz-adv-x="653" 
d="M530 660l31 7.99902l6 -755c0.666992 -19.333 -10.166 -38.333 -32.499 -57s-53.5 -34 -93.5 -46s-84.333 -18 -133 -18c-96 0 -156.333 18 -181 54s-37 67.667 -37 95c0 16 4.16699 55.167 12.5 117.5s17.166 120.5 26.499 174.5l28 -6
c-7.33301 -41.333 -14.333 -86.666 -21 -135.999s-12 -91.333 -16 -126c-0.666992 -4 -1 -9.66699 -1 -17c0 -81.333 63 -122 189 -122c38.667 0 81 5.33301 127 16s79.333 29 100 55z" />
    <glyph glyph-name="uni0645" unicode="&#x645;" horiz-adv-x="506" 
d="M86 -61c0 70 7.33301 121.002 22 153.002c0 4.66699 9.16699 23.5 27.5 56.5s42 63.333 71 91s61.167 41.5 96.5 41.5c42 0 72 -15.833 90 -47.5s27 -70.834 27 -117.501c0 -28.667 -2.66699 -55.667 -8 -81c-1.33301 -11.333 -3.83301 -20.833 -7.5 -28.5
s-9.5 -14.834 -17.5 -21.501c-8.66699 -7.33301 -18 -11 -28 -11c-7.33301 0 -16 2 -26 6l-207 92c-6.66699 -42.667 -10 -89.667 -10 -141c0 -45.333 4 -119.333 12 -222l-30 -12c-8 114 -12 194.667 -12 242zM385.5 49.002c3.66699 19.333 5.5 39.333 5.5 60
c0 39.333 -7 72.333 -21 99s-35.667 40 -65 40c-24.667 0 -46 -6 -64 -18s-33.833 -27.833 -47.5 -47.5s-30.167 -47.167 -49.5 -82.5l227 -99c6 12.667 10.833 28.667 14.5 48z" />
    <glyph glyph-name="uni0646" unicode="&#x646;" horiz-adv-x="685" 
d="M377 445l-35 -39l-38 33l33 40zM102.5 58.5c8.33301 62.333 17.166 120.498 26.499 174.498l28 -6c-7.33301 -41.333 -14.333 -86.666 -21 -135.999s-12 -91.333 -16 -126c-0.666992 -4 -1 -9.66699 -1 -17c0 -81.333 63 -122 189 -122
c60.667 0 112.334 4.83301 155.001 14.5s78.667 26.5 108 50.5l-32 392l32 9l28 -383c1.33301 -20 -9.16699 -39 -31.5 -57s-55.833 -32.5 -100.5 -43.5s-97.667 -16.5 -159 -16.5c-96 0.666992 -156.333 18.834 -181 54.501s-37 67.167 -37 94.5
c0 16 4.16699 55.167 12.5 117.5z" />
    <glyph glyph-name="uni0647" unicode="&#x647;" horiz-adv-x="459" 
d="M122.5 13.5c-24.333 13 -36.499 39.8311 -36.499 80.498c0 30 13 66.333 39 109s53.667 78 83 106l-39 26l15 23c52.667 -34 92.5 -66.667 119.5 -98s45 -60.666 54 -87.999s14.167 -57.666 15.5 -90.999c0.666992 -18.667 -1.33301 -34 -6 -46
c-4.66699 -11.333 -11 -19 -19 -23c-26.667 -12 -72.334 -18 -137.001 -18c-34.667 0 -64.167 6.5 -88.5 19.5zM345.001 39.998c0.666992 6 1.00098 16.333 1.00098 31c0 84.667 -39.333 158 -118 220c-30 -28.667 -56.833 -64 -80.5 -106s-35.5 -73.667 -35.5 -95
s6.66699 -37 20 -47s39.666 -15.333 78.999 -16c57.333 0 102 4.33301 134 13z" />
    <glyph glyph-name="uni0648" unicode="&#x648;" horiz-adv-x="421" 
d="M309.5 214c17 -50 25.498 -103.336 25.498 -160.003c0 -75.333 -28.167 -138.333 -84.5 -189s-118.833 -88.667 -187.5 -114l-12 31c140.667 56 223.334 129.667 248.001 221c-30 -2.66699 -69.333 -4 -118 -4c-30.667 0 -51.667 0.666992 -63 2
c-11.333 2 -19.333 4.33301 -24 7s-10 8 -16 16c-5.33301 6.66699 -8.66602 12.834 -9.99902 18.501s-2 11.667 -2 18v13.5c0 24.667 4.16699 53.834 12.5 87.501s22.5 63.334 42.5 89.001s46.333 38.5 79 38.5c56 0 92.5 -25 109.5 -75zM304.998 42.9971
c0.666992 1.33301 1 3.66699 1 7c-0.666992 69.333 -9.5 120.833 -26.5 154.5s-43.5 50.5 -79.5 50.5c-34 0 -60.5 -20.167 -79.5 -60.5s-28.5 -90.833 -28.5 -151.5c12 -6 39.667 -9 83 -9c62.667 0 106 3 130 9z" />
    <glyph glyph-name="uni0649" unicode="&#x649;" horiz-adv-x="705" 
d="M127 -136c-24.667 36 -36.9971 67.3281 -36.9971 93.9951c0 16.667 4.16699 55.834 12.5 117.501s17.166 119.834 26.499 174.501l28 -6c-7.33301 -41.333 -14.333 -86.666 -21 -135.999s-12 -91.333 -16 -126c-0.666992 -4 -1 -9.66699 -1 -17
c0 -48.667 19 -81.334 57 -98.001s81.333 -25 130 -25c60 0 110.667 5 152 15s78.333 30 111 60c3.33301 32 5 55.333 5 70c0 30 -4.83301 50.667 -14.5 62s-27.167 19 -52.5 23c-26 5.33301 -54.333 9.33301 -85 12c-24 2 -39.667 5.16699 -47 9.5s-11 13.833 -11 28.5
c0 47.333 7.5 93.166 22.5 137.499s36.167 80.333 63.5 108s58.333 41.5 93 41.5c18.667 0 34.5 -4.5 47.5 -13.5s23.667 -18.5 32 -28.5s13.166 -15.333 14.499 -16l-16 -14c-25.333 25.333 -51.666 38 -78.999 38c-26.667 0 -51.334 -12.167 -74.001 -36.5
s-40.834 -56.166 -54.501 -95.499s-21.5 -80.666 -23.5 -123.999c50 -3.33301 89.333 -7.66602 118 -12.999s52.167 -15.333 70.5 -30s27.5 -36 27.5 -64c0 -29.333 -2 -53.666 -6 -72.999s-11.667 -36 -23 -50c-43.333 -52.667 -133 -79 -269 -79
c-96 0 -156.333 18 -181 54z" />
    <glyph glyph-name="uni064A" unicode="&#x64a;" horiz-adv-x="705" 
d="M127 -136c-24.667 36 -36.9971 67.3281 -36.9971 93.9951c0 16.667 4.16699 55.834 12.5 117.501s17.166 119.834 26.499 174.501l28 -6c-7.33301 -41.333 -14.333 -86.666 -21 -135.999s-12 -91.333 -16 -126c-0.666992 -4 -1 -9.66699 -1 -17
c0 -48.667 19 -81.334 57 -98.001s81.333 -25 130 -25c60 0 110.667 5 152 15s78.333 30 111 60c3.33301 32 5 55.333 5 70c0 30 -4.83301 50.667 -14.5 62s-27.167 19 -52.5 23c-26 5.33301 -54.333 9.33301 -85 12c-24 2 -39.667 5.16699 -47 9.5s-11 13.833 -11 28.5
c0 47.333 7.5 93.166 22.5 137.499s36.167 80.333 63.5 108s58.333 41.5 93 41.5c18.667 0 34.5 -4.5 47.5 -13.5s23.667 -18.5 32 -28.5s13.166 -15.333 14.499 -16l-16 -14c-25.333 25.333 -51.666 38 -78.999 38c-26.667 0 -51.334 -12.167 -74.001 -36.5
s-40.834 -56.166 -54.501 -95.499s-21.5 -80.666 -23.5 -123.999c50 -3.33301 89.333 -7.66602 118 -12.999s52.167 -15.333 70.5 -30s27.5 -36 27.5 -64c0 -29.333 -2 -53.666 -6 -72.999s-11.667 -36 -23 -50c-43.333 -52.667 -133 -79 -269 -79
c-96 0 -156.333 18 -181 54zM322.003 -365.005l-34 -39l-36 33l30 40zM420.003 -369.005l-34 -38l-36 31l30 41z" />
    <glyph glyph-name="uni064B" unicode="&#x64b;" 
d="M0 898l294 91l8 -23l-295 -93zM0 812l294 92l8 -23l-295 -93z" />
    <glyph glyph-name="uni064C" unicode="&#x64c;" 
d="M282 873c-8 -12.667 -30.001 -26.6689 -66.001 -42.002s-98.333 -36.333 -187 -63l-1 -1v1l-2 -1l-2 6c-11.333 16.667 -19 29.834 -23 39.501s-6 21.167 -6 34.5c0 19.333 6.33301 58.333 19 117l22 -7c-12.667 -53.333 -19 -89.666 -19 -108.999
c0 -10.667 1.33301 -19.667 4 -27s7.33398 -16 14.001 -26l220 71c-17.333 -1.33301 -30 -2 -38 -2c-26 0 -55 2.66699 -87 8c-8 0.666992 -16.333 6 -25 16c-3.33301 5.33301 -6 10 -8 14s-2.66699 7.33301 -2 10c0.666992 31.333 8.5 63.5 23.5 96.5
s40.833 49.5 77.5 49.5c29.333 0 52.833 -11.167 70.5 -33.5s26.5 -53.833 26.5 -94.5c0.666992 -25.333 -3 -44.333 -11 -57zM163.499 893.498c21.667 -2.33301 42.5 -3.50098 62.5 -3.50098c18.667 0 31.667 1.33301 39 4c1.33301 12 2 21 2 27c0 30.667 -6 57 -18 79
s-29.667 33 -53 33c-18.667 0 -33.667 -8.5 -45 -25.5s-19.333 -35.667 -24 -56s-7 -36.833 -7 -49.5c7.33301 -3.33301 21.833 -6.16602 43.5 -8.49902z" />
    <glyph glyph-name="uni064D" unicode="&#x64d;" 
d="M-17 -60l294 92l8 -23l-295 -93zM-17 -145l294 92l8 -23l-295 -93z" />
    <glyph glyph-name="uni064E" unicode="&#x64e;" 
d="M0 784l294 92l8 -23l-295 -93z" />
    <glyph glyph-name="uni064F" unicode="&#x64f;" 
d="M287 873c-8 -12.667 -30.167 -26.832 -66.5 -42.499s-99.166 -36.834 -188.499 -63.501l-8 23l236 76c-17.333 -1.33301 -30 -2 -38 -2c-26 0 -55 2.66699 -87 8c-8 0.666992 -16.333 6 -25 16c-3.33301 5.33301 -6 10 -8 14s-2.66699 7.33301 -2 10
c0.666992 31.333 8.5 63.5 23.5 96.5s41.167 49.5 78.5 49.5c29.333 0 52.666 -11.167 69.999 -33.5s26.333 -53.833 27 -94.5c0 -25.333 -4 -44.333 -12 -57zM168.5 893.502c21.667 -2.33301 42.498 -3.49902 62.498 -3.49902c18.667 0 31.667 1.33301 39 4
c1.33301 12 2 21 2 27c0 30.667 -6 57 -18 79s-29.667 33 -53 33c-18.667 0 -33.667 -8.33301 -45 -25s-19.166 -35.334 -23.499 -56.001s-6.5 -37.334 -6.5 -50.001c6.66699 -3.33301 20.834 -6.16602 42.501 -8.49902z" />
    <glyph glyph-name="uni0650" unicode="&#x650;" 
d="M0 -42l294 92l8 -23l-295 -93z" />
    <glyph glyph-name="uni0651" unicode="&#x651;" 
d="M3.5 797c-7 14.667 -9.83496 29.335 -8.50195 44.002c0.666992 4 1.66699 12.333 3 25s5.33301 41.667 12 87l23 -4l-14 -109c-1.33301 -11.333 0.333984 -20.333 5.00098 -27s14.334 -10 29.001 -10c18.667 0 33.667 0.833008 45 2.5s21 5.16699 29 10.5l-1 117l27 2
l1 -122c10 -7.33301 23.667 -11 41 -11c30 0 52 4.66699 66 14c2 32.667 -2.33301 85.334 -13 158.001l21 5c5.33301 -32 8.83301 -57.833 10.5 -77.5s2.83398 -44.834 3.50098 -75.501c-0.666992 -20 -10.334 -33.5 -29.001 -40.5s-38 -10.5 -58 -10.5
c-14.667 0 -26.167 1.66699 -34.5 5s-16.5 9.66602 -24.5 18.999c-8 -6.66699 -20.167 -12.334 -36.5 -17.001s-31.5 -7 -45.5 -7c-27.333 0 -44.5 7.33301 -51.5 22z" />
    <glyph glyph-name="uni0652" unicode="&#x652;" 
d="M25 853c0 15.333 4.33008 28.998 12.9971 40.998s20.334 21.333 35.001 28c13.333 6 26.333 9 39 9c14.667 0 27.834 -3.66699 39.501 -11s20.5 -18.333 26.5 -33c5.33301 -12 8 -23.667 8 -35c0 -14.667 -4 -28.167 -12 -40.5s-20.333 -22.166 -37 -29.499l-40 -17
c-9.33301 -6 -18.666 -9 -27.999 -9c-12.667 0 -22 4.33301 -28 13l81 35c26 9.33301 39 24.333 39 45c0 8.66699 -2 17.334 -6 26.001c-8 20 -21.667 30 -41 30c-8.66699 0 -19 -2 -31 -6c-23.333 -8.66699 -35 -22.667 -35 -42c0 -7.33301 2 -16 6 -26l-22 -11
c-4.66699 10 -7 21 -7 33z" />
    <glyph glyph-name="uni0653" unicode="&#x653;" 
d="M211 741c-23.333 0.666992 -50.3301 3 -80.9971 7c-24.667 3.33301 -43.334 5 -56.001 5s-22 -1.16699 -28 -3.5s-10.333 -6.16602 -13 -11.499s-6.33398 -14.333 -11.001 -27l-22 4c6.66699 25.333 15.167 42.166 25.5 50.499s26.166 12.5 47.499 12.5
c10 0 30.333 -2 61 -6c31.333 -4 56.333 -6.33301 75 -7l49 -2l-7 -23z" />
    <glyph glyph-name="uni0654" unicode="&#x654;" 
d="M9 795l99.001 29.999c-14 26 -23.5 47.167 -28.5 63.5s-7.5 33.5 -7.5 51.5c0 16.667 10 29.834 30 39.501s47 14.834 81 15.501c10 0 17.333 -0.333008 22 -1l2 -24c-7.33301 0.666992 -17 1 -29 1c-16 0 -31.5 -2.16699 -46.5 -6.5s-26.167 -9.83301 -33.5 -16.5
c0.666992 -22.667 3.66699 -42.834 9 -60.501s13.666 -35.167 24.999 -52.5l157 49l6 -24l-281 -89z" />
    <glyph glyph-name="uni0655" unicode="&#x655;" 
d="M9 -249l99.001 30c-14 25.333 -23.5 46.166 -28.5 62.499s-7.5 33.833 -7.5 52.5c0 16.667 10 29.834 30 39.501s47 14.834 81 15.501c10 0 17.333 -0.666992 22 -2l2 -23c-7.33301 0.666992 -17 1 -29 1c-16 0 -31.5 -2.16699 -46.5 -6.5s-26.167 -9.83301 -33.5 -16.5
c0.666992 -22.667 3.66699 -42.834 9 -60.501s13.666 -35.167 24.999 -52.5l157 49l6 -24l-281 -89z" />
    <glyph glyph-name="uni0656" unicode="&#x656;" 
d="M-5 42l25 4l1 -140l-23 -1z" />
    <glyph glyph-name="uni0660" unicode="&#x660;" horiz-adv-x="435" 
d="M149.5 84c-20.333 12 -36.334 28.166 -48.001 48.499s-17.5 42.5 -17.5 66.5c0 24.667 6 47.334 18 68.001s28.333 37 49 49s43.334 18 68.001 18c36 -1.33301 66.833 -15 92.5 -41s38.5 -57.333 38.5 -94c0.666992 -24.667 -5 -47.167 -17 -67.5
s-28.333 -36.333 -49 -48s-43 -17.5 -67 -17.5c-24.667 0 -47.167 6 -67.5 18zM287.999 128.999c18.667 18.667 28 42 28 70s-9.33301 51.333 -28 70s-41.667 28 -69 28c-28.667 0 -52.5 -9.33301 -71.5 -28s-28.5 -42 -28.5 -70s9.5 -51.333 28.5 -70s42.833 -28 71.5 -28
c27.333 0 50.333 9.33301 69 28z" />
    <glyph glyph-name="uni0661" unicode="&#x661;" horiz-adv-x="277" 
d="M117 668c48.667 -161.333 73 -336.667 73 -526c0 -52.667 -1.33301 -100 -4 -142l-29 -4c2 38 3 75.333 3 112c0 188 -24.667 371.333 -74 550z" />
    <glyph glyph-name="uni0662" unicode="&#x662;" horiz-adv-x="488" 
d="M158 85c0 91.333 -6.16797 183.669 -18.501 277.002s-30.166 192 -53.499 296l31 10c8.66699 -34.667 20.667 -90.334 36 -167.001c6 -28.667 13.333 -49.834 22 -63.501s19.5 -22.834 32.5 -27.501s30.833 -7 53.5 -7c57.333 0 95.666 8 114.999 24l-6 235l33 3l-1 -224
c0 -28 -14.167 -46.667 -42.5 -56s-62.166 -14 -101.499 -14c-42 0 -71.333 9 -88 27c12.667 -98 19 -191.333 19 -280c0 -25.333 -1.33301 -64.666 -4 -117.999l-29 -4c1.33301 40 2 69.667 2 89z" />
    <glyph glyph-name="uni0663" unicode="&#x663;" horiz-adv-x="622" 
d="M536 440c0 -26.667 -12.834 -44.332 -38.501 -52.999s-50.834 -13 -75.501 -13c-34 0 -57.667 9.66699 -71 29c-24 -18.667 -57.667 -28 -101 -28c-27.333 0 -50.666 7 -69.999 21c20.667 -120.667 30.334 -252.667 29.001 -396l-30 -4v39c0 183.333 -31 391 -93 623
l31 10v-1v2l2 -7c18 -63.333 33 -122.333 45 -177l6 -25c5.33301 -17.333 14.833 -30.5 28.5 -39.5s31.5 -13.5 53.5 -13.5c17.333 0 31.5 1.5 42.5 4.5s25.5 8.5 43.5 16.5l-4 224h31l4 -227v-1v-1c15.333 -11.333 37.333 -17 66 -17c15.333 0 28.5 1 39.5 3
s22.5 6 34.5 12l-6 241l34 3c-0.666992 -20.667 -1 -95.334 -1 -224.001l2 2z" />
    <glyph glyph-name="uni0664" unicode="&#x664;" horiz-adv-x="487" 
d="M124 292c25.333 36 62.0029 60.3311 110.003 72.998c-40.667 8.66699 -70.834 25 -90.501 49s-32 48.833 -37 74.5s-7.5 52.834 -7.5 81.501c0 34 16 58.333 48 73s73.333 22 124 22c29.333 0 62 -2.33301 98 -7l-8 -31c-20 3.33301 -44.333 5 -73 5
c-34.667 0 -66.834 -3 -96.501 -9s-51.167 -14.333 -64.5 -25c-0.666992 -55.333 5 -97.666 17 -126.999s33.833 -50.166 65.5 -62.499s78.167 -17.5 139.5 -15.5v-37c-66 -0.666992 -119 -16.334 -159 -47.001s-66.667 -67 -80 -109c-2 -63.333 13 -105.833 45 -127.5
s74.667 -32.5 128 -32.5c74 0 120 2.33301 138 7l2 -34c-20.667 -4 -41.834 -6.5 -63.501 -7.5s-50.167 -1.5 -85.5 -1.5c-70 0 -118.833 16.667 -146.5 50s-41.5 74 -41.5 122c0 41.333 12.667 80 38 116z" />
    <glyph glyph-name="uni0665" unicode="&#x665;" horiz-adv-x="634" 
d="M136.5 36.5c-33.667 22.333 -50.499 56.832 -50.499 103.499c0 44.667 11.667 102.334 35 173.001s51.666 132.334 84.999 185.001s64 79 92 79c42 0 82.333 -27.333 121 -82s69.667 -120.667 93 -198s35 -146.333 35 -207c0 -30.667 -22.5 -52.834 -67.5 -66.501
s-105.5 -20.5 -181.5 -20.5c-74 0 -127.833 11.167 -161.5 33.5zM437.001 45.499c36 6.33301 65 16.833 87 31.5c2 52 -8.83301 115.833 -32.5 191.5s-53.667 141 -90 196s-70.833 82.5 -103.5 82.5c-20.667 0 -46.167 -25 -76.5 -75s-57 -107.833 -80 -173.5
s-34.5 -119.5 -34.5 -161.5c0 -67.333 63.667 -101 191 -101c56.667 0 103 3.16699 139 9.5z" />
    <glyph glyph-name="uni0666" unicode="&#x666;" horiz-adv-x="491" 
d="M352.5 220.5c-3 71.667 -4.5 169.832 -4.5 294.499v100c-24 -1.33301 -48.333 -2 -73 -2c-88.667 0 -157.667 4.66699 -207 14l-2 33c44.667 -9.33301 106.667 -14 186 -14c47.333 0 88.333 2 123 6l-1 -159c0 -223.333 10.333 -384.666 31 -483.999l-32 -16
c-10.667 80 -17.5 155.833 -20.5 227.5z" />
    <glyph glyph-name="uni0667" unicode="&#x667;" horiz-adv-x="634" 
d="M558 642c-150.667 -168.667 -226.67 -367.004 -228.003 -595.004v-47l-30 -4v60c0 48 -6.66699 103.833 -20 167.5s-36.666 132.834 -69.999 207.501s-78 147.334 -134 218.001l26 20c61.333 -90.667 108.333 -170 141 -238s54.334 -141.333 65.001 -220l3 -32
c0.666992 8.66699 2.33398 19.334 5.00098 32.001c12 76.667 35.833 151.334 71.5 224.001s85.167 149.667 148.5 231zM314.997 143.996z" />
    <glyph glyph-name="uni0668" unicode="&#x668;" horiz-adv-x="634" 
d="M354 439.5c13.333 -63.667 36.668 -132.831 70.001 -207.498s78 -147.334 134 -218.001l-25 -19c-61.333 88.667 -108.5 167.5 -141.5 236.5s-54.833 142.5 -65.5 220.5l-3 32c-0.666992 -8.66699 -2.33398 -19.334 -5.00098 -32.001
c-12 -76.667 -35.833 -151.5 -71.5 -224.5s-85.167 -149.833 -148.5 -230.5l-22 24c150.667 168.667 226.667 367 228 595v47l30 4v-60c0 -48 6.66699 -103.833 20 -167.5zM319.002 519.003z" />
    <glyph glyph-name="uni0669" unicode="&#x669;" horiz-adv-x="490" 
d="M372 -6c-16 112.667 -24 232.001 -24 358.001c-40.667 -9.33301 -88.334 -14 -143.001 -14c-32 0 -58 1 -78 3c-23.333 3.33301 -40.666 12.333 -51.999 27c-4 6 -6.83301 12.667 -8.5 20s-2.16699 11 -1.5 11c-3.33301 0 -1.5 25.167 5.5 75.5
s21.833 95.666 44.5 135.999s56.667 60.5 102 60.5c61.333 0 103 -26.667 125 -80s33 -127.333 33 -222c0 -74 3.16699 -145 9.5 -213s12.833 -116.667 19.5 -146zM346 383.001c0 88.667 -10.501 153 -31.501 193s-53.5 60 -97.5 60c-24.667 0 -46.667 -10.167 -66 -30.5
s-34.166 -49.5 -44.499 -87.5s-15.166 -83 -14.499 -135c19.333 -9.33301 56.666 -14 111.999 -14c68 1.33301 115.333 6 142 14z" />
    </font>
</defs>
</svg>
