<?xml version="1.0" standalone="no"?>
<!DOCTYPE svg PUBLIC "-//W3C//DTD SVG 1.1//EN" "http://www.w3.org/Graphics/SVG/1.1/DTD/svg11.dtd" >
<svg>
<metadata>
Created by FontForge 20090914 at Sun Sep 22 22:31:11 2019
 By www-data
Copyright (c) 2018 by www.fontiran.com All rights reserved.
</metadata>
<defs>
<font id="Anjoman-ExtraLight" horiz-adv-x="0" >
  <font-face 
    font-family="ExtraLight"
    font-weight="200"
    font-stretch="normal"
    units-per-em="1000"
    panose-1="0 0 3 0 0 0 0 0 0 0"
    ascent="800"
    descent="-200"
    x-height="513"
    cap-height="703"
    bbox="-179 -512 1314 1335"
    underline-thickness="50"
    underline-position="-50"
    unicode-range="U+0020-U+FEFC"
  />
<missing-glyph horiz-adv-x="681" 
d="M558 -293h-431v1362h431v-1362zM229 978v-45h88v-51h-90v-45h227v45h-90v51h90v45h-225zM227 802v-142h227v47h-90v95h-137zM317 707h-45v49h45v-49zM227 624v-45h90v-51h-90v-45h137v96h90v45h-227zM409 542v-90h-182v-46h227v136h-45zM317 376v-77h47v32h45v-64h-137
v109h-45v-154h227v154h-137zM227 140v-154h227v154h-227zM409 31h-137v64h137v-64zM227 -45v-45h96l-96 -64v-45h227v45h-139l95 64h44v45h-227z" />
    <glyph glyph-name="uniFDF2" unicode="&#x627;&#xfedf;&#xfee0;&#xfeea;" horiz-adv-x="1293" arabic-form="isolated" 
d="M626 731l-3 143l33 5l1 -146zM493 565c0.666992 4 1.66699 12.335 3 25.002s5.33301 42.667 12 90l29 -6l-14 -106c-2.66699 -24.667 9 -37 35 -37c18 0 32.333 0.666992 43 2s19.667 4.66602 27 9.99902l-1 115l32 2l1 -120c10 -6.66699 23 -10 39 -10
c30 0 52.333 5 67 15c0.666992 18.667 -0.5 42.834 -3.5 72.501s-6.83301 56.5 -11.5 80.5l27 8c5.33301 -30.667 9 -56.834 11 -78.501s3.33301 -46.834 4 -75.501c-0.666992 -22 -10.834 -37.167 -30.501 -45.5s-40.5 -12.5 -62.5 -12.5
c-14.667 0 -26.167 1.66699 -34.5 5s-16.5 9.33301 -24.5 18c-8.66699 -6.66699 -21.167 -12.167 -37.5 -16.5s-31.166 -6.5 -44.499 -6.5c-44 0 -66 23.667 -66 71zM1207 0.00195312l-40 -6l-18 676l44 10zM999 603.002c0.666992 -26.667 5 -104.665 13 -233.998
c10 -141.333 15 -230.666 15 -267.999c0 -12.667 -3.83301 -23.834 -11.5 -33.501s-19.167 -18.834 -34.5 -27.501c-48.667 -26.667 -104.334 -40 -167.001 -40c-38.667 0 -71.5 5.33301 -98.5 16s-46.833 24.667 -59.5 42c-27.333 -38.667 -88.666 -58 -183.999 -58
c-41.333 0 -75.166 11.333 -101.499 34s-41.166 54.667 -44.499 96c-4.66699 -8 -11 -13.667 -19 -17s-18 -5.66602 -30 -6.99902c-22 -4 -49.333 -5.33301 -82 -4c-40 2 -68.167 8.5 -84.5 19.5s-24.5 32.5 -24.5 64.5c0 31.333 9.66699 62.5 29 93.5
s45.666 56.667 78.999 77s69.666 31.166 108.999 32.499l-2 74l41 7l8 -243c0.666992 -42 3.5 -75 8.5 -99s16.167 -43.333 33.5 -58s44 -22 80 -22c50.667 0 89 4 115 12s43 22.333 51 43l-20 264l42 9l17 -250c0.666992 -26.667 12.667 -46.334 36 -59.001s55 -19 95 -19
h6c28 0 58.667 3.33301 92 10s62 17.667 86 33l-36 503zM228 150.004c32 0 60.333 3.33301 85 10l-6 184c-41.333 -1.33301 -76 -11.333 -104 -30s-48.833 -41.5 -62.5 -68.5s-20.167 -53.5 -19.5 -79.5c8 -4.66699 17.167 -8.16699 27.5 -10.5s26.5 -3.83301 48.5 -4.5z
" />
    <glyph glyph-name="uniFEF5" unicode="&#xfedf;&#xfe82;" horiz-adv-x="423" arabic-form="isolated" 
d="M217 46c48 24 75.332 46.333 81.999 67l-18 557l43 10l13 -557c0.666992 -44.667 -29.666 -83 -90.999 -115s-136.333 -57.667 -225 -77v50c82.667 19.333 148 41 196 65zM151.999 617c-26 0.666992 -55.999 2.99805 -89.999 6.99805c-22 3.33301 -38.667 5 -50 5
c-12 0 -20.833 -1.16699 -26.5 -3.5s-10 -6.16602 -13 -11.499s-6.5 -14.666 -10.5 -27.999l-30 7c7.33301 29.333 16.666 49 27.999 59s28.333 15 51 15c10 0 30.333 -2 61 -6c32.667 -4 59.667 -6.33301 81 -7l50 -2l-10 -36zM142.5 284.998
c9.66699 -72 15.165 -138 16.498 -198l-35 -10c-0.666992 55.333 -5.66699 119 -15 191s-24.666 140.333 -45.999 205l37 18c18.667 -65.333 32.834 -134 42.501 -206z" />
    <glyph glyph-name="uniFEF6" unicode="&#xfee0;&#xfe82;" horiz-adv-x="530" arabic-form="final" 
d="M536.5 43c1.66699 -3.33301 2.49902 -7.66602 2.49902 -12.999v-11c0 -5.33301 -0.833008 -9.83301 -2.5 -13.5s-3.83398 -5.5 -6.50098 -5.5h-14c-40 0 -71.833 1.83301 -95.5 5.5s-42.5 10.5 -56.5 20.5s-24.667 24.333 -32 43
c-21.333 -30.667 -59.166 -57.667 -113.499 -81s-115.833 -42.333 -184.5 -57v50c82.667 19.333 148 41 196 65s75.333 46.333 82 67l-18 557l43 10l13 -551c0 -24.667 6.5 -42.834 19.5 -54.501s30.333 -19 52 -22s51.5 -4.5 89.5 -4.5h19
c2.66699 0 4.83398 -1.66699 6.50098 -5zM152.999 617c-27.333 0.666992 -57 2.99805 -89 6.99805c-22 3.33301 -38.667 5 -50 5c-12 0 -20.833 -1.16699 -26.5 -3.5s-10 -6.16602 -13 -11.499s-6.5 -14.666 -10.5 -27.999l-31 7c8 30 17.5 49.833 28.5 59.5
s28.167 14.5 51.5 14.5c10 0 30.333 -2 61 -6c32.667 -4 59.667 -6.33301 81 -7l50 -2l-10 -36zM112.999 490.998c18.667 -65.333 32.833 -134 42.5 -206s15.167 -138 16.5 -198l-35 -10c-0.666992 54.667 -5.66699 118.167 -15 190.5s-24.333 140.833 -45 205.5z" />
    <glyph glyph-name="uniFEF7" unicode="&#xfedf;&#xfe84;" horiz-adv-x="424" arabic-form="isolated" 
d="M-80 625l97 31c-13.333 25.333 -22.666 46.5 -27.999 63.5s-8 34.167 -8 51.5c0 20 10.667 35.667 32 47s49.666 17 84.999 17c11.333 0 20 -0.666992 26 -2l-1 -32c-7.33301 0.666992 -18 1 -32 1c-15.333 0 -30.333 -1.83301 -45 -5.5s-25.334 -8.5 -32.001 -14.5
c0.666992 -22 3.83398 -42.167 9.50098 -60.5s14.167 -36.5 25.5 -54.5l159 50l6 -32l-288 -93zM218.5 46c48.333 24 75.5 46.333 81.5 67l-17 557l43 10l12 -557c0.666992 -44.667 -29.5 -83.167 -90.5 -115.5s-135.833 -57.833 -224.5 -76.5v50
c82 19.333 147.167 41 195.5 65zM144.5 284.5c9.66699 -72.333 15.1689 -138.167 16.502 -197.5l-35 -10c-0.666992 54 -5.83398 117.167 -15.501 189.5s-24.834 141.166 -45.501 206.499l36 18c19.333 -65.333 33.833 -134.166 43.5 -206.499z" />
    <glyph glyph-name="uniFEF8" unicode="&#xfee0;&#xfe84;" horiz-adv-x="521" arabic-form="final" 
d="M214 666l-288.003 -93l-7 33l98 31c-13.333 26 -22.666 47.333 -27.999 64s-8 33.667 -8 51c0 20 10.667 35.667 32 47s49.333 17 84 17c12 0 21 -0.666992 27 -2l-1 -32c-8 0.666992 -18.667 1 -32 1c-16 0 -31.167 -1.83301 -45.5 -5.5s-25.166 -8.5 -32.499 -14.5
c0.666992 -22 3.83398 -42.167 9.50098 -60.5s14.167 -36.5 25.5 -54.5l159 51zM527.497 43c1.66699 -3.33301 2.49902 -7.66602 2.49902 -12.999v-11c0 -5.33301 -0.833008 -9.83301 -2.5 -13.5s-3.83398 -5.5 -6.50098 -5.5h-14c-40 0 -71.833 1.83301 -95.5 5.5
s-42.5 10.5 -56.5 20.5s-24.667 24.333 -32 43c-21.333 -30.667 -59.166 -57.667 -113.499 -81s-115.833 -42.333 -184.5 -57v50c82.667 19.333 148 41 196 65s75.333 46.333 82 67l-18 557l42 10h1l11 -483l2 -68c0 -24.667 6.5 -42.834 19.5 -54.501s30.333 -19 52 -22
s51.5 -4.5 89.5 -4.5h19c2.66699 0 4.83398 -1.66699 6.50098 -5zM112.996 268c-9.33301 72 -24.668 140.333 -46.001 205l37 18c18.667 -65.333 32.834 -134 42.501 -206s15.167 -138 16.5 -198l-35 -10c-0.666992 55.333 -5.66699 119 -15 191z" />
    <glyph glyph-name="uniFEF9" unicode="&#xfedf;&#xfe88;" horiz-adv-x="506" arabic-form="isolated" 
d="M233 46c48 24 75.332 46.333 81.999 67l-18 557l43 10l12 -557c0.666992 -44.667 -29.666 -83 -90.999 -115s-136 -57.333 -224 -76v49c82.667 19.333 148 41 196 65zM146.999 365c18.667 -98.667 27.999 -191.332 27.999 -277.999l-35 -10
c-0.666992 80 -10 170.5 -28 271.5s-48 185.5 -90 253.5l36 26c40.667 -76.667 70.334 -164.334 89.001 -263.001zM125.998 -364.998l96.9941 31c-13.333 26 -22.666 47.5 -27.999 64.5s-8 34.167 -8 51.5c0 20 10.833 35.667 32.5 47s49.834 17 84.501 17
c8.66699 0 17.334 -1 26.001 -3l-1 -32c-7.33301 1.33301 -18 2 -32 2c-15.333 0 -30.166 -2 -44.499 -6s-25.166 -9 -32.499 -15c0.666992 -42 12.334 -80 35.001 -114l159 50l6 -33l-288 -92z" />
    <glyph glyph-name="uniFEFA" unicode="&#xfee0;&#xfe88;" horiz-adv-x="534" arabic-form="final" 
d="M540.5 43c1.66699 -3.33301 2.5 -7.66602 2.5 -12.999v-11c0 -5.33301 -0.833008 -9.83301 -2.5 -13.5s-3.83398 -5.5 -6.50098 -5.5h-15c-58.667 0 -101.667 4.66699 -129 14s-46.333 27 -57 53c-21.333 -30.667 -59 -57.167 -113 -79.5s-115 -40.833 -183 -55.5v49
c82.667 19.333 148 41 196 65s75.333 46.333 82 67l-18 557l43 10l12 -551c0 -24.667 6.66699 -42.834 20 -54.501s30.833 -19 52.5 -22s51.5 -4.5 89.5 -4.5h20c2.66699 0 4.83398 -1.66699 6.50098 -5zM140 77c-0.666992 80 -10.001 170.502 -28.001 271.502
s-48 185.5 -90 253.5l36 26c40.667 -76.667 70.334 -164.334 89.001 -263.001s28 -191.334 28 -278.001zM434.999 -283.998l7.00098 -34.999l-309 -99l-7 35l105 33c-14.667 27.333 -24.834 50.166 -30.501 68.499s-8.5 36.833 -8.5 55.5c0 20.667 11.5 37.167 34.5 49.5
s53.167 18.5 90.5 18.5c12.667 0 22 -0.666992 28 -2l-1 -34c-8 0.666992 -19.333 1 -34 1c-16.667 0 -32.667 -2 -48 -6s-27 -9.33301 -35 -16c0.666992 -23.333 4 -44.833 10 -64.5s15 -39.167 27 -58.5z" />
    <glyph glyph-name="uniFEFB" unicode="&#xfedf;&#xfe8e;" horiz-adv-x="439" arabic-form="isolated" 
d="M233 46c48 24 75.332 46.333 81.999 67l-18 557l43 10l12 -557c0.666992 -44.667 -29.666 -83 -90.999 -115s-136 -57.333 -224 -76v49c82.667 19.333 148 41 196 65zM146.999 365c18.667 -98.667 27.999 -191.332 27.999 -277.999l-35 -10
c-0.666992 80 -10 170.5 -28 271.5s-48 185.5 -90 253.5l36 26c40.667 -76.667 70.334 -164.334 89.001 -263.001z" />
    <glyph glyph-name="uniFEFC" unicode="&#xfee0;&#xfe8e;" horiz-adv-x="534" arabic-form="final" 
d="M540.5 43c1.66699 -3.33301 2.5 -7.66602 2.5 -12.999v-11c0 -5.33301 -0.833008 -9.83301 -2.5 -13.5s-3.83398 -5.5 -6.50098 -5.5h-15c-58.667 0 -101.667 4.66699 -129 14s-46.333 27 -57 53c-21.333 -30.667 -59 -57.167 -113 -79.5s-115 -40.833 -183 -55.5v49
c82.667 19.333 148 41 196 65s75.333 46.333 82 67l-18 557l43 10l12 -551c0 -24.667 6.66699 -42.834 20 -54.501s30.833 -19 52.5 -22s51.5 -4.5 89.5 -4.5h20c2.66699 0 4.83398 -1.66699 6.50098 -5zM140 77c-0.666992 80 -10.001 170.502 -28.001 271.502
s-48 185.5 -90 253.5l36 26c40.667 -76.667 70.334 -164.334 89.001 -263.001s28 -191.334 28 -278.001z" />
    <glyph glyph-name="uni06440671" unicode="&#xfedf;&#xfb51;" horiz-adv-x="430" 
d="M-25.5 592.5c-19.667 5.66699 -29.499 17.498 -29.499 35.498v54c-14.667 -7.33301 -28 -17.666 -40 -30.999s-24 -29.666 -36 -48.999l-23 14c0 5.33301 6.33301 16.833 19 34.5s28.667 33.334 48 47.001s39.666 19.5 60.999 17.5v-83
c0.666992 -2.66699 3.16699 -4.66699 7.5 -6s8.83301 -2 13.5 -2c22 32.667 45.5 61.667 70.5 87s51.833 38.333 80.5 39c50 0 75 -29.667 75 -89c0 -9.33301 -0.5 -16.833 -1.5 -22.5s-3.5 -10.834 -7.5 -15.501c-12 -12 -32.833 -21.5 -62.5 -28.5
s-60.5 -10.5 -92.5 -10.5c-35.333 0 -62.833 2.83301 -82.5 8.5zM70.001 615.998c38.667 0 79.333 7.66699 122 23c0.666992 26.667 -2.5 46.667 -9.5 60s-20.5 20 -40.5 20c-16.667 0 -33.5 -7.83301 -50.5 -23.5s-39.167 -41.167 -66.5 -76.5c16 -2 31 -3 45 -3z
M224 45.998c48 24 75.332 46.333 81.999 67l-18 557l43 10l13 -557c0.666992 -44.667 -29.666 -83 -90.999 -115s-136.333 -57.667 -225 -77v50c82.667 19.333 148 41 196 65zM149.499 284.998c9.66699 -72 15.165 -138 16.498 -198l-35 -10
c-0.666992 55.333 -5.66699 119 -15 191s-24.666 140.333 -45.999 205l37 18c18.667 -65.333 32.834 -134 42.501 -206z" />
    <glyph glyph-name="uni06440671.fina" unicode="&#xfee0;&#xfb51;" horiz-adv-x="525" 
d="M150.5 594.5c-29.667 -7 -60.499 -10.501 -92.499 -10.501c-35.333 0 -62.666 2.83301 -81.999 8.5s-29 17.5 -29 35.5v54c-15.333 -7.33301 -29 -17.666 -41 -30.999s-24 -29.666 -36 -48.999l-23 14c0.666992 6 7.16699 17.667 19.5 35s28.166 32.833 47.499 46.5
s39.666 19.5 60.999 17.5v-83c0.666992 -2.66699 3.16699 -4.66699 7.5 -6s8.83301 -2 13.5 -2c22 32.667 45.667 61.667 71 87s52.333 38.333 81 39c49.333 0 74 -29.667 74 -89c0 -9.33301 -0.5 -16.833 -1.5 -22.5s-3.5 -10.834 -7.5 -15.501
c-12 -12 -32.833 -21.5 -62.5 -28.5zM92.501 695.499c-17 -15.667 -39.168 -41.167 -66.501 -76.5c16 -2 31 -3 45 -3c38.667 0 79.334 7.66699 122.001 23c0.666992 26.667 -2.5 46.667 -9.5 60s-20.5 20 -40.5 20c-16.667 0 -33.5 -7.83301 -50.5 -23.5zM531.5 42.999
c1.66699 -3.33301 2.49902 -7.66602 2.49902 -12.999v-11c0 -5.33301 -0.833008 -9.83301 -2.5 -13.5s-3.83398 -5.5 -6.50098 -5.5h-14c-40 -0 -71.833 1.83301 -95.5 5.5s-42.5 10.5 -56.5 20.5s-24.667 24.333 -32 43c-21.333 -30.667 -59.166 -57.667 -113.499 -81
s-115.833 -42.333 -184.5 -57v50c82.667 19.333 148 41 196 65s75.333 46.333 82 67l-18 557l43 10l13 -551c0 -24.667 6.5 -42.834 19.5 -54.501s30.333 -19 52 -22s51.5 -4.5 89.5 -4.5h19c2.66699 0 4.83398 -1.66699 6.50098 -5zM116.999 267.499
c-9.33301 72.333 -24.334 140.833 -45.001 205.5l36 18c18.667 -65.333 32.834 -134 42.501 -206s15.167 -138 16.5 -198l-35 -10c-0.666992 54.667 -5.66699 118.167 -15 190.5z" />
    <glyph glyph-name="uni066E.init" unicode="&#x66e;" horiz-adv-x="322" 
d="M231 290c2.66699 -93.333 4 -157.334 4 -192.001c0 -23.333 -15.333 -43.333 -46 -60c-46.667 -25.333 -109.667 -38 -189 -38c-2.66699 0 -5 2 -7 6s-3 8.33301 -3 13v11c0 4.66699 1 8.83398 3 12.501s4.33301 5.5 7 5.5c44 0 82.5 3.16699 115.5 9.5
s61.5 17.5 85.5 33.5l-15 234l43 11z" />
    <glyph glyph-name="uni066E.medi" unicode="&#x66e;" horiz-adv-x="324" 
d="M330.5 43c1.66699 -3.33301 2.50098 -7.66797 2.50098 -13.001v-11c0 -5.33301 -0.833008 -9.83301 -2.5 -13.5s-3.83398 -5.5 -6.50098 -5.5c-90.667 0 -143.667 18 -159 54c-10 -16.667 -30 -29.834 -60 -39.501s-65 -14.5 -105 -14.5c-2.66699 0 -5 2 -7 6
s-3 8.33301 -3 13v11c0 4.66699 1 8.83398 3 12.501s4.33301 5.5 7 5.5c36.667 0 65.667 2.83301 87 8.5s40.666 14.834 57.999 27.501l-15 212l41 2l15 -212c25.333 -25.333 71.333 -38 138 -38c2.66699 0 4.83398 -1.66699 6.50098 -5z" />
    <glyph glyph-name="uni066E.fina" unicode="&#x66e;" horiz-adv-x="888" 
d="M895.5 43c1.66699 -3.33301 2.50098 -7.66699 2.50098 -13v-11c0 -5.33301 -0.833008 -9.83301 -2.5 -13.5s-3.83398 -5.5 -6.50098 -5.5c-93.333 0 -148 18 -164 54c-8 -8 -18.667 -14.5 -32 -19.5s-31 -10.5 -53 -16.5c-32 -8 -70.333 -14 -115 -18
s-88.334 -6 -131.001 -6c-101.333 0 -178 11.333 -230 34s-78 64.667 -78 126c0 15.333 1.33301 30 4 44l26 155l36 -7l-25 -151c-2 -12.667 -3 -24 -3 -34c0 -48 23.833 -79.667 71.5 -95s113.167 -23 196.5 -23c66 0 128 3.83301 186 11.5s101.667 18.5 131 32.5l-15 200
l42 3l15 -206c12.667 -14 30.5 -23.5 53.5 -28.5s51.167 -7.5 84.5 -7.5c2.66699 0 4.83398 -1.66699 6.50098 -5z" />
    <glyph glyph-name="uni066F.fina" unicode="&#x66f;" horiz-adv-x="734" 
d="M740.5 43c1.66699 -3.33301 2.49902 -7.66602 2.49902 -12.999v-11c0 -5.33301 -0.833008 -9.83301 -2.5 -13.5s-3.83398 -5.5 -6.50098 -5.5h-89v-38c0 -21.333 -0.833008 -38 -2.5 -50s-4.5 -21.333 -8.5 -28c-18.667 -32 -59.334 -55.833 -122.001 -71.5
s-129.334 -23.5 -200.001 -23.5c-92 0 -152 17.833 -180 53.5s-42 69.167 -42 100.5c0 15.333 4.33301 54.833 13 118.5s17.667 123.834 27 180.501l37 -8c-7.33301 -42.667 -14.666 -89.5 -21.999 -140.5s-12.666 -92.167 -15.999 -123.5
c-0.666992 -3.33301 -1 -8.33301 -1 -15c0 -46.667 18.833 -77.834 56.5 -93.501s80.5 -23.5 128.5 -23.5c142.667 0 240.667 21 294 63v35v69c-38.667 -4.66699 -80 -7 -124 -7c-31.333 0 -53 1 -65 3c-11.333 2 -19.5 4.66699 -24.5 8s-10.833 9.66602 -17.5 18.999
c-6 8 -9.83301 15.333 -11.5 22s-2.5 16 -2.5 28c0.666992 27.333 5.33398 58.5 14.001 93.5s23.5 65.667 44.5 92s48.5 39.5 82.5 39.5c91.333 0 138.333 -80.667 141 -242v-13h90c2.66699 0 4.83398 -1.66699 6.50098 -5zM605.999 55
c0 68 -8.49902 118.501 -25.499 151.501s-43.167 49.5 -78.5 49.5c-32.667 0 -57.834 -18.833 -75.501 -56.5s-26.5 -85.834 -26.5 -144.501c12 -6 38.667 -9 80 -9c60.667 0 102.667 3 126 9z" />
    <glyph glyph-name="uni06A1.init" unicode="&#x6a1;" horiz-adv-x="437" 
d="M346 102.5c-2.66699 -22.333 -7.83203 -38.835 -15.499 -49.502s-20.5 -20.334 -38.5 -29.001c-21.333 -11.333 -50 -18.166 -86 -20.499s-86.333 -3.5 -151 -3.5h-55c-2.66699 0 -5 2 -7 6s-3 8.33301 -3 13v11c0 4.66699 1 8.83398 3 12.501s4.33301 5.5 7 5.5
c92 0 159.5 1.83301 202.5 5.5s77.167 11.834 102.5 24.501c1.33301 10.667 2.66602 27.667 3.99902 51l2 23c-37.333 -4.66699 -78.333 -7 -123 -7c-31.333 0 -53 1 -65 3c-11.333 2 -19.5 4.66699 -24.5 8s-10.833 9.66602 -17.5 18.999c-6 8 -9.83301 15.333 -11.5 22
s-2.5 15.667 -2.5 27c0.666992 28 5.5 59.333 14.5 94s24 65.334 45 92.001s48.5 40 82.5 40c56.667 0 94.167 -25.667 112.5 -77s27.5 -106.333 27.5 -165c0.666992 -48 -0.333008 -83.167 -3 -105.5zM311.002 200.998c0 68.667 -8.5 119.5 -25.5 152.5
s-43.167 49.5 -78.5 49.5c-32.667 0 -58 -18.833 -76 -56.5s-27 -86.167 -27 -145.5c13.333 -5.33301 40.333 -8 81 -8c60 0 102 2.66699 126 8z" />
    <glyph glyph-name="uni06A1.medi" unicode="&#x6a1;" horiz-adv-x="425" 
d="M431.5 43c1.66699 -3.33301 2.50098 -7.66797 2.50098 -13.001v-11c0 -5.33301 -0.833008 -9.83301 -2.5 -13.5s-3.83398 -5.5 -6.50098 -5.5h-43c-40 0 -71.667 2.66699 -95 8s-42.333 13.333 -57 24c-15.333 -8.66699 -39.166 -16.167 -71.499 -22.5
s-73.5 -9.5 -123.5 -9.5h-35c-2.66699 0 -5 2 -7 6s-3 8.33301 -3 13v11c0 4.66699 1 8.83398 3 12.501s4.33301 5.5 7 5.5h93c38.667 0 69 4 91 12c-26.667 14.667 -51.334 34.334 -74.001 59.001s-34 47.334 -34 68.001c0 15.333 8 37.666 24 66.999s36 55.333 60 78
s48.333 34 73 34c24 0 46 -9 66 -27s35.833 -43 47.5 -75s17.5 -67.667 17.5 -107c0 -20.667 -6.83301 -37.334 -20.5 -50.001s-37.834 -29 -72.501 -49c18 -6.66699 36 -10 54 -10h100c2.66699 0 4.83398 -1.66699 6.50098 -5zM146.501 134.998
c20.333 -18.667 47.5 -39 81.5 -61l97 64c0.666992 28 -2.5 56 -9.5 84s-17.5 51.167 -31.5 69.5s-31 27.5 -51 27.5c-16.667 0 -34 -8 -52 -24s-33.333 -34.5 -46 -55.5s-19 -36.833 -19 -47.5c0 -19.333 10.167 -38.333 30.5 -57z" />
    <glyph glyph-name="uni06A1.fina" unicode="&#x6a1;" horiz-adv-x="943" 
d="M949.5 43c1.66699 -3.33301 2.49902 -7.66602 2.49902 -12.999v-11c0 -5.33301 -0.833008 -9.83301 -2.5 -13.5s-3.83398 -5.5 -6.50098 -5.5h-44c-42 0 -75 3 -99 9s-43.667 14.667 -59 26c-13.333 -7.33301 -29 -13.333 -47 -18c-35.333 -10 -78 -16.333 -128 -19
s-107.333 -4 -172 -4c-101.333 0 -178 11.333 -230 34s-78 64.667 -78 126c0 15.333 1.33301 30 4 44l26 155l36 -7l-25 -151c-2 -12.667 -3 -24 -3 -34c0 -48 23.833 -79.667 71.5 -95s113.167 -23 196.5 -23c90.667 0 155.834 1 195.501 3s76.167 7.33301 109.5 16
c-26 15.333 -49.833 35 -71.5 59s-32.5 46 -32.5 66c0 15.333 8 37.666 24 66.999s36.167 55.333 60.5 78s48.5 34 72.5 34c24.667 0 47 -9 67 -27s35.667 -43 47 -75s17 -67.667 17 -107c0 -20.667 -6.66699 -37.167 -20 -49.5s-37.333 -28.5 -72 -48.5
c17.333 -7.33301 35 -11 53 -11h101c2.66699 0 4.83398 -1.66699 6.50098 -5zM664.499 134.5c20.333 -19 47.167 -39.167 80.5 -60.5l97 64c0.666992 28 -2.5 56 -9.5 84s-17.5 51.167 -31.5 69.5s-31 27.5 -51 27.5c-16.667 0 -34 -8 -52 -24s-33.167 -34.5 -45.5 -55.5
s-18.5 -36.833 -18.5 -47.5c0 -19.333 10.167 -38.5 30.5 -57.5z" />
    <glyph glyph-name="uniFB51" unicode="&#x671;" horiz-adv-x="298" arabic-form="final" 
d="M324 677c0 -9.33301 -0.5 -16.833 -1.5 -22.5s-3.5 -10.834 -7.5 -15.501c-12 -13.333 -33 -23.333 -63 -30s-61.667 -10 -95 -10c-37.333 0 -65.833 2.83301 -85.5 8.5s-29.5 17.834 -29.5 36.501v54c-28 -13.333 -53.667 -40.333 -77 -81l-24 15
c0 5.33301 6.33301 17 19 35s29 34 49 48s41 20 63 18v-85c0 -2.66699 2.16699 -4.66699 6.5 -6s9.16602 -2 14.499 -2c22.667 33.333 46.834 63 72.501 89s53.167 39.333 82.5 40c50.667 0 76 -30.667 76 -92zM284 716.5c-7.33301 13.667 -21.001 20.5 -41.001 20.5
c-17.333 0 -34.5 -8 -51.5 -24s-39.5 -42.333 -67.5 -79c10 -1.33301 24 -2 42 -2c43.333 0 86 7.66699 128 23c0.666992 27.333 -2.66602 47.833 -9.99902 61.5zM305.499 43c1.66699 -3.33301 2.5 -7.66699 2.5 -13v-11c0 -5.33301 -0.833008 -9.83301 -2.5 -13.5
s-3.83398 -5.5 -6.50098 -5.5h-6c-65.333 0 -112.833 13.167 -142.5 39.5s-45.167 66.166 -46.5 119.499l-18 371l43 10l16 -381c2 -41.333 15 -70.166 39 -86.499s60.333 -24.5 109 -24.5h6c2.66699 0 4.83398 -1.66699 6.50098 -5z" />
    <glyph glyph-name="uniFB57" unicode="&#x67e;" horiz-adv-x="888" arabic-form="final" 
d="M895.5 43c1.66699 -3.33301 2.50098 -7.66699 2.50098 -13v-11c0 -5.33301 -0.833008 -9.83301 -2.5 -13.5s-3.83398 -5.5 -6.50098 -5.5c-93.333 0 -148 18 -164 54c-8 -8 -18.667 -14.5 -32 -19.5s-31 -10.5 -53 -16.5c-32 -8 -70.333 -14 -115 -18
s-88.334 -6 -131.001 -6c-101.333 0 -178 11.333 -230 34s-78 64.667 -78 126c0 15.333 1.33301 30 4 44l26 155l36 -7l-25 -151c-2 -12.667 -3 -24 -3 -34c0 -48 23.833 -79.667 71.5 -95s113.167 -23 196.5 -23c66 0 128 3.83301 186 11.5s101.667 18.5 131 32.5l-15 200
l42 3l15 -206c12.667 -14 30.5 -23.5 53.5 -28.5s51.167 -7.5 84.5 -7.5c2.66699 0 4.83398 -1.66699 6.50098 -5zM388.001 -156.001l-39 -45l-47 39l39 46zM452.001 -119.001l46 -39l-38 -46l-46 39zM394.001 -233.001l47 -39l-40 -46l-45 38z" />
    <glyph glyph-name="uniFB58" unicode="&#x67e;" horiz-adv-x="322" arabic-form="initial" 
d="M231 290c2.66699 -93.333 4 -157.334 4 -192.001c0 -23.333 -15.333 -43.333 -46 -60c-46.667 -25.333 -109.667 -38 -189 -38c-2.66699 0 -5 2 -7 6s-3 8.33301 -3 13v11c0 4.66699 1 8.83398 3 12.501s4.33301 5.5 7 5.5c44 0 82.5 3.16699 115.5 9.5
s61.5 17.5 85.5 33.5l-15 234l43 11zM65 -142.001l-40 -44l-46 39l38 45zM128 -104.001l47 -39l-38 -46l-47 38zM71 -218.001l46 -40l-40 -45l-44 37z" />
    <glyph glyph-name="uniFB59" unicode="&#x67e;" horiz-adv-x="324" arabic-form="medial" 
d="M330.5 43c1.66699 -3.33301 2.50098 -7.66797 2.50098 -13.001v-11c0 -5.33301 -0.833008 -9.83301 -2.5 -13.5s-3.83398 -5.5 -6.50098 -5.5c-90.667 0 -143.667 18 -159 54c-10 -16.667 -30 -29.834 -60 -39.501s-65 -14.5 -105 -14.5c-2.66699 0 -5 2 -7 6
s-3 8.33301 -3 13v11c0 4.66699 1 8.83398 3 12.501s4.33301 5.5 7 5.5c36.667 0 65.667 2.83301 87 8.5s40.666 14.834 57.999 27.501l-15 212l41 2l15 -212c25.333 -25.333 71.333 -38 138 -38c2.66699 0 4.83398 -1.66699 6.50098 -5zM142.001 -161.002l-40 -44l-46 39
l38 45zM205.001 -123.002l47 -40l-38 -45l-47 38zM148.001 -238.002l46 -39l-40 -45l-44 37z" />
    <glyph glyph-name="uniFB7B" unicode="&#x686;" horiz-adv-x="658" arabic-form="final" 
d="M664.5 43c1.66699 -3.33301 2.5 -7.66797 2.5 -13.001v-11c0 -5.33301 -0.833008 -9.83301 -2.5 -13.5s-3.83398 -5.5 -6.50098 -5.5h-30c-50.667 0 -90 6.66699 -118 20s-49.5 35 -64.5 65s-28.5 74 -40.5 132c-63.333 -29.333 -119.166 -63.5 -167.499 -102.5
s-81.166 -80.167 -98.499 -123.5c-6.66699 -26.667 -10 -57.334 -10 -92.001c0 -74 23 -129 69 -165s115 -54 207 -54h157l-5 -49h-153c-93.333 0 -163.5 16 -210.5 48s-76.667 67.5 -89 106.5s-18.5 78.833 -18.5 119.5c0 86 34.5 160.833 103.5 224.5
s160.833 116.5 275.5 158.5c12 4.66699 28.333 9.33398 49 14.001c-28.667 3.33301 -60.334 9.83301 -95.001 19.5s-75 22.5 -121 38.5c-56.667 18 -95.334 26.667 -116.001 26c-14.667 0 -26.667 -6.16699 -36 -18.5s-17 -30.5 -23 -54.5l-33 8
c10 34.667 22.333 61.667 37 81s33.667 29.333 57 30c26 0 73.333 -11.667 142 -35c58 -20 108.5 -35.5 151.5 -46.5s83.167 -16.5 120.5 -16.5c12 0 21 0.333008 27 1l-6 -50c-58 -8.66699 -118.333 -26.667 -181 -54c10.667 -53.333 22.834 -92.666 36.501 -117.999
s31.667 -42.5 54 -51.5s54.166 -13.5 95.499 -13.5h34c2.66699 0 4.83398 -1.66699 6.50098 -5zM298 -15.002l46 -39l-38 -43l-45 37zM414 -100.002l-45 37l37 45l45 -38zM356 -211.002l-43 36l37 46l45 -38z" />
    <glyph glyph-name="uniFB7C" unicode="&#x686;" horiz-adv-x="663" arabic-form="initial" 
d="M576 231l-7.99805 -46.001c-4 0.666992 -10 1 -18 1c-28.667 0 -57.334 -5.5 -86.001 -16.5s-61 -27.167 -97 -48.5c-45.333 -28 -83.333 -49.833 -114 -65.5s-64.5 -28.834 -101.5 -39.501s-76.833 -16 -119.5 -16h-32c-2.66699 0 -5 2 -7 6s-3 8.33301 -3 13v11
c0 4.66699 1 8.83398 3 12.501s4.33301 5.5 7 5.5h40c42.667 0 84.5 7.16699 125.5 21.5s89.167 37.166 144.5 68.499l31.5 17c8.33301 4.66699 15.166 8.33398 20.499 11.001l50 27c17.333 8 33 13.333 47 16l-18 6c-39.333 10.667 -85 26.334 -137 47.001
c-66 28 -110.333 42 -133 42c-16.667 -0.666992 -30 -9 -40 -25s-17 -33.333 -21 -52l-32 6c8.66699 40.667 20.167 70.5 34.5 89.5s35.833 28.5 64.5 28.5c13.333 0 31.5 -4 54.5 -12s53.833 -20 92.5 -36c113.333 -48 197.333 -72 252 -72zM230.002 -164.001l-39 -45
l-47 39l38 46zM294.002 -127.001l46 -39l-38 -46l-47 38zM236.002 -241.001l47 -39l-40 -46l-45 37z" />
    <glyph glyph-name="uniFB7D" unicode="&#x686;" horiz-adv-x="623" arabic-form="medial" 
d="M629.5 43c1.66699 -3.33301 2.50098 -7.66797 2.50098 -13.001v-11c0 -5.33301 -0.833008 -9.83301 -2.5 -13.5s-3.83398 -5.5 -6.50098 -5.5h-86c-36.667 0 -64.5 5.66699 -83.5 17s-32 26 -39 44s-12.833 43.667 -17.5 77c-6.66699 -3.33301 -16.667 -9 -30 -17
c-45.333 -28 -83.333 -49.833 -114 -65.5s-64.5 -28.834 -101.5 -39.501s-76.5 -16 -118.5 -16h-33c-2.66699 0 -5 2 -7 6s-3 8.33301 -3 13v11c0 4.66699 1 8.83398 3 12.501s4.33301 5.5 7 5.5h40c42.667 0 84.5 7.16699 125.5 21.5s89.167 37.166 144.5 68.499l31.5 17
c8.33301 4.66699 15.166 8.33398 20.499 11.001l50 27c17.333 8 33 13.333 47 16l-18 6c-39.333 10.667 -85 26.334 -137 47.001c-66 28 -110.333 42 -133 42c-16.667 -0.666992 -30 -9 -40 -25s-17 -33.333 -21 -52l-32 6c8.66699 40.667 20.167 70.5 34.5 89.5
s35.833 28.5 64.5 28.5c13.333 0 31.5 -4 54.5 -12s53.833 -20 92.5 -36c113.333 -48 197.333 -72 252 -72l-9 -47c-4.66699 0.666992 -11.667 1 -21 1c-34.667 0 -73 -9.66699 -115 -29c4.66699 -30.667 9.66699 -53 15 -67s15 -24.333 29 -31s35.667 -10 65 -10h83
c2.66699 0 4.83398 -1.66699 6.50098 -5zM230.001 -164.002l-39 -45l-47 39l38 46zM294.001 -127.002l46 -39l-38 -46l-47 38zM236.001 -241.002l47 -39l-40 -46l-45 37z" />
    <glyph glyph-name="uniFB8B" unicode="&#x698;" horiz-adv-x="422" arabic-form="final" 
d="M165 518l-47 39l39 46l46 -39zM106 406l-46 38l38 46l47 -40zM171 441l39 47l46 -40l-40 -46zM428.5 43c1.66699 -3.33301 2.5 -7.66895 2.5 -13.002v-11c0 -5.33301 -0.833008 -9.83301 -2.5 -13.5s-3.83398 -5.5 -6.50098 -5.5h-66c-55.333 0 -94 12.333 -116 37
c0.666992 -5.33301 1 -12.666 1 -21.999c0 -48.667 -23.833 -96.167 -71.5 -142.5s-114.834 -88.5 -201.501 -126.5l-22 41c72 31.333 129.833 65.333 173.5 102s71.834 72.667 84.501 108l-30 271l44 14l13 -141c0.666992 -3.33301 1 -7.66602 1 -12.999
c4.66699 -34 17.667 -55.833 39 -65.5s48.333 -14.5 81 -14.5h70c2.66699 0 4.83398 -1.66699 6.50098 -5z" />
    <glyph glyph-name="uniFB8F" unicode="&#x6a9;" horiz-adv-x="926" arabic-form="final" 
d="M932.5 43c1.66699 -3.33301 2.5 -7.66699 2.5 -13v-11c0 -5.33301 -0.833008 -9.83301 -2.5 -13.5s-3.83398 -5.5 -6.50098 -5.5h-79c-27.333 0 -49.5 4 -66.5 12s-28.833 22 -35.5 42c-43.333 -39.333 -160.333 -59.333 -351 -60c-101.333 0 -178 11.333 -230 34
s-78 64.667 -78 126c0 15.333 1.33301 30 4 44l26 155l36 -7l-25 -151c-2 -12.667 -3 -24 -3 -34c0 -48 23.833 -79.667 71.5 -95s113.167 -23 196.5 -23c76 0 143.833 3.66699 203.5 11s102.5 17.666 128.5 30.999c0 56.667 -9.33301 107.167 -28 151.5
s-45.667 85.333 -81 123s-80.666 76.834 -135.999 117.501v49c92 52.667 197 100 315 142l3 -44c-92.667 -34 -184.334 -75.333 -275.001 -124l8 -6c60 -47.333 106.667 -92.333 140 -135s56.333 -83 69 -121s20 -77.667 22 -119c3.33301 -22 8.83301 -38 16.5 -48
s16.667 -16.333 27 -19s24.833 -4 43.5 -4h78c2.66699 0 4.83398 -1.66699 6.50098 -5z" />
    <glyph glyph-name="uniFB90" unicode="&#x6a9;" horiz-adv-x="424" arabic-form="initial" 
d="M218.5 347.5c33.667 -46.333 55.999 -89.501 66.999 -129.501s16.5 -83.333 16.5 -130c0 -28 -27.5 -49.667 -82.5 -65s-128.167 -23 -219.5 -23c-2.66699 0 -5 2 -7 6s-3 8.33301 -3 13v11c0 4.66699 1 8.83398 3 12.501s4.33301 5.5 7 5.5c47.333 0 96.833 3 148.5 9
s89.834 15 114.501 27c0 56.667 -9.16699 107.334 -27.5 152.001s-45 85.667 -80 123s-80.5 76.666 -136.5 117.999v49c95.333 54 200.666 101.333 315.999 142l3 -44c-94.667 -34.667 -186.667 -76 -276 -124c0.666992 0 3.33398 -1.66699 8.00098 -5
c65.333 -52 114.833 -101.167 148.5 -147.5z" />
    <glyph glyph-name="uniFB91" unicode="&#x6a9;" horiz-adv-x="466" arabic-form="medial" 
d="M472.5 43c1.66699 -3.33301 2.50098 -7.66895 2.50098 -13.002v-11c0 -5.33301 -0.833008 -9.83301 -2.5 -13.5s-3.83398 -5.5 -6.50098 -5.5h-79c-27.333 0 -49.5 4 -66.5 12s-28.833 22 -35.5 42c-19.333 -18 -53.833 -31.5 -103.5 -40.5s-110.167 -13.5 -181.5 -13.5
c-2.66699 0 -5 2 -7 6s-3 8.33301 -3 13v11c0 4.66699 1 8.83398 3 12.501s4.33301 5.5 7 5.5c47.333 0 96.833 3 148.5 9s89.834 15 114.501 27c0 56.667 -9.16699 107.334 -27.5 152.001s-45 85.667 -80 123s-80.5 76.666 -136.5 117.999v49
c95.333 54 200.666 101.333 315.999 142l3 -44c-94.667 -34.667 -186.667 -76 -276 -124c0.666992 0 3.33398 -1.66699 8.00098 -5c81.333 -65.333 138.666 -125.833 171.999 -181.5s52.666 -112.834 57.999 -171.501c2 -29.333 6.66699 -50.666 14 -63.999
s16.5 -21.666 27.5 -24.999s26.833 -5 47.5 -5h77c2.66699 0 4.83398 -1.66699 6.50098 -5z" />
    <glyph glyph-name="uniFB93" unicode="&#x6af;" horiz-adv-x="926" arabic-form="final" 
d="M673 679c-65.333 -25.333 -129.333 -56.333 -192 -93l2 42c61.333 35.333 123.333 65.333 186 90zM932.5 43c1.66699 -3.33301 2.5 -7.66699 2.5 -13v-11c0 -5.33301 -0.833008 -9.83301 -2.5 -13.5s-3.83398 -5.5 -6.50098 -5.5h-79c-27.333 0 -49.5 4 -66.5 12
s-28.833 22 -35.5 42c-43.333 -39.333 -160.333 -59.333 -351 -60c-101.333 0 -178 11.333 -230 34s-78 64.667 -78 126c0 15.333 1.33301 30 4 44l26 155l36 -7l-25 -151c-2 -12.667 -3 -24 -3 -34c0 -48 23.833 -79.667 71.5 -95s113.167 -23 196.5 -23
c76 0 143.833 3.66699 203.5 11s102.5 17.666 128.5 30.999c0 56.667 -9.33301 107.167 -28 151.5s-45.667 85.333 -81 123s-80.666 76.834 -135.999 117.501v49c92 52.667 197 100 315 142l3 -44c-92.667 -34 -184.334 -75.333 -275.001 -124l8 -6
c60 -47.333 106.667 -92.333 140 -135s56.333 -83 69 -121s20 -77.667 22 -119c3.33301 -22 8.83301 -38 16.5 -48s16.667 -16.333 27 -19s24.833 -4 43.5 -4h78c2.66699 0 4.83398 -1.66699 6.50098 -5z" />
    <glyph glyph-name="uniFB94" unicode="&#x6af;" horiz-adv-x="424" arabic-form="initial" 
d="M212 679c-67.333 -26.667 -131.667 -57.667 -193 -93l2 42c63.333 36 125.333 66 186 90zM218.499 347.5c33.667 -46.333 55.999 -89.501 66.999 -129.501s16.5 -83.333 16.5 -130c0 -28 -27.5 -49.667 -82.5 -65s-128.167 -23 -219.5 -23c-2.66699 0 -5 2 -7 6
s-3 8.33301 -3 13v11c0 4.66699 1 8.83398 3 12.501s4.33301 5.5 7 5.5c47.333 0 96.833 3 148.5 9s89.834 15 114.501 27c0 56.667 -9.16699 107.334 -27.5 152.001s-45 85.667 -80 123s-80.5 76.666 -136.5 117.999v49c95.333 54 200.666 101.333 315.999 142l3 -44
c-94.667 -34.667 -186.667 -76 -276 -124c0.666992 0 3.33398 -1.66699 8.00098 -5c65.333 -52 114.833 -101.167 148.5 -147.5z" />
    <glyph glyph-name="uniFB95" unicode="&#x6af;" horiz-adv-x="466" arabic-form="medial" 
d="M212 679c-67.333 -26.667 -131.667 -57.667 -193 -93l2 42c63.333 36 125.333 66 186 90zM472.499 43c1.66699 -3.33301 2.50098 -7.66895 2.50098 -13.002v-11c0 -5.33301 -0.833008 -9.83301 -2.5 -13.5s-3.83398 -5.5 -6.50098 -5.5h-79c-27.333 0 -49.5 4 -66.5 12
s-28.833 22 -35.5 42c-19.333 -18 -53.833 -31.5 -103.5 -40.5s-110.167 -13.5 -181.5 -13.5c-2.66699 0 -5 2 -7 6s-3 8.33301 -3 13v11c0 4.66699 1 8.83398 3 12.501s4.33301 5.5 7 5.5c47.333 0 96.833 3 148.5 9s89.834 15 114.501 27
c0 56.667 -9.16699 107.334 -27.5 152.001s-45 85.667 -80 123s-80.5 76.666 -136.5 117.999v49c95.333 54 200.666 101.333 315.999 142l3 -44c-94.667 -34.667 -186.667 -76 -276 -124c0.666992 0 3.33398 -1.66699 8.00098 -5
c81.333 -65.333 138.666 -125.833 171.999 -181.5s52.666 -112.834 57.999 -171.501c2 -29.333 6.66699 -50.666 14 -63.999s16.5 -21.666 27.5 -24.999s26.833 -5 47.5 -5h77c2.66699 0 4.83398 -1.66699 6.50098 -5z" />
    <glyph glyph-name="uniFB9F" unicode="&#x6ba;" horiz-adv-x="780" arabic-form="final" 
d="M786.5 43c1.66699 -3.33301 2.49902 -7.66699 2.49902 -13v-11c0 -5.33301 -0.833008 -9.83301 -2.5 -13.5s-3.83398 -5.5 -6.50098 -5.5h-32c-38.667 -0 -70.667 3.83301 -96 11.5s-43 21.5 -53 41.5l9 -137c1.33301 -23.333 -9.83398 -44.666 -33.501 -63.999
s-58.167 -34.666 -103.5 -45.999s-98.333 -17 -159 -17c-92 0.666992 -152 18.667 -180 54s-42 68.666 -42 99.999c0 16 4.33301 56.667 13 122s17.667 124.333 27 177l37 -8c-7.33301 -42.667 -14.666 -89.5 -21.999 -140.5s-12.666 -92.167 -15.999 -123.5
c-0.666992 -3.33301 -1 -8.33301 -1 -15c0 -46.667 18.833 -77.834 56.5 -93.501s80.5 -23.5 128.5 -23.5c58 0 108 4.66699 150 14s77.667 25.333 107 48l-34 390l44 11l15 -171c2.66699 -33.333 16.5 -55.333 41.5 -66s60.5 -16 106.5 -16h37
c2.66699 0 4.83398 -1.66699 6.50098 -5z" />
    <glyph glyph-name="uniFBA5" unicode="&#x6c0;" horiz-adv-x="475" arabic-form="final" 
d="M263.5 510.5c-36.333 -16.333 -86.1699 -24.8291 -149.503 -25.4961l4 38c36.667 0 69.5 3.33301 98.5 10s51.5 15 67.5 25l1 16c0 12.667 -2.83301 21.667 -8.5 27s-16.834 9.66602 -33.501 12.999l-54 8c-18.667 2 -30.667 4.66699 -36 8s-8 11 -8 23
c0 11.333 4.33301 29.666 13 54.999s21.334 48.166 38.001 68.499s36.334 30.5 59.001 30.5c27.333 0 51.333 -15.667 72 -47l-20 -16c-16.667 16.667 -33.667 25 -51 25c-20 0 -37.667 -11.5 -53 -34.5s-25.666 -47.833 -30.999 -74.5
c41.333 -4.66699 70.5 -8.66699 87.5 -12s30.833 -9.83301 41.5 -19.5s16 -24.834 16 -45.501c0.666992 -32 -17.166 -56.167 -53.499 -72.5zM481.496 43.0039c1.66699 -3.33301 2.5 -7.66797 2.5 -13.001v-11c0 -5.33301 -0.833008 -9.83301 -2.5 -13.5
s-3.83398 -5.5 -6.50098 -5.5h-15c-31.333 0 -59.666 4.83301 -84.999 14.5s-41 28.167 -47 55.5c-6.66699 -14 -22.334 -22.667 -47.001 -26c-24 -4 -51 -6 -81 -6c-28.667 0 -51 2 -67 6s-27.833 12.333 -35.5 25s-11.5 31.334 -11.5 56.001
c0 30.667 9.16699 61.167 27.5 91.5s43.333 55.833 75 76.5s66.5 32.667 104.5 36l-9 75l42 9l22 -243c3.33301 -38.667 7.33301 -65.5 12 -80.5s14.667 -25.667 30 -32s41.333 -9.5 78 -9.5h7c2.66699 0 4.83398 -1.66699 6.50098 -5zM314.996 101.002l-17.999 183
c-40.667 -4 -74.334 -16.167 -101.001 -36.5s-46 -44.333 -58 -72s-17 -54.167 -15 -79.5c8 -4 17.167 -6.66699 27.5 -8s26.833 -2 49.5 -2c48 0 86.333 5 115 15z" />
    <glyph glyph-name="uniFBFD" unicode="&#x6cc;" horiz-adv-x="655" arabic-form="final" 
d="M661.5 43c1.66699 -3.33301 2.49805 -7.66797 2.49805 -13.001v-11c0 -5.33301 -0.833008 -9.83301 -2.5 -13.5s-3.83398 -5.5 -6.50098 -5.5l-53 -1c11.333 -13.333 17 -31.666 17 -54.999c0 -118.667 -102.333 -178 -307 -178c-92 0 -152 17.833 -180 53.5
s-42 68.834 -42 99.501c0 16 4.33301 56.667 13 122s17.667 124.666 27 177.999l37 -7c-7.33301 -42.667 -14.666 -89.834 -21.999 -141.501s-12.666 -93.167 -15.999 -124.5c-0.666992 -3.33301 -1 -8.33301 -1 -15c0 -46.667 18.667 -77.667 56 -93s80.333 -23 129 -23
c58.667 0 108.667 4.83301 150 14.5s78 28.834 110 57.501c1.33301 24 2 39 2 45c0 20 -3.33301 34.5 -10 43.5s-19 14.833 -37 17.5s-47 4 -87 4h-51l16 51h249c2.66699 0 4.83398 -1.66699 6.50098 -5z" />
    <glyph glyph-name="uniFBFE" unicode="&#x6cc;" horiz-adv-x="350" arabic-form="initial" 
d="M231 290c2.66699 -93.333 4 -157.334 4 -192.001c0 -23.333 -15.333 -43.333 -46 -60c-46.667 -25.333 -109.667 -38 -189 -38c-2.66699 0 -5 2 -7 6s-3 8.33301 -3 13v11c0 4.66699 1 8.83398 3 12.501s4.33301 5.5 7 5.5c44 0 82.5 3.16699 115.5 9.5
s61.5 17.5 85.5 33.5l-15 234l43 11zM43 -104.001l47 -40l-40 -46l-45 39zM151 -106.001l47 -41l-40 -46l-44 38z" />
    <glyph glyph-name="uniFBFF" unicode="&#x6cc;" horiz-adv-x="324" arabic-form="medial" 
d="M330.5 43c1.66699 -3.33301 2.50098 -7.66797 2.50098 -13.001v-11c0 -5.33301 -0.833008 -9.83301 -2.5 -13.5s-3.83398 -5.5 -6.50098 -5.5c-90.667 0 -143.667 18 -159 54c-10 -16.667 -30 -29.834 -60 -39.501s-65 -14.5 -105 -14.5c-2.66699 0 -5 2 -7 6
s-3 8.33301 -3 13v11c0 4.66699 1 8.83398 3 12.501s4.33301 5.5 7 5.5c36.667 0 65.667 2.83301 87 8.5s40.666 14.834 57.999 27.501l-15 212l41 2l15 -212c25.333 -25.333 71.333 -38 138 -38c2.66699 0 4.83398 -1.66699 6.50098 -5zM89.001 -118.002l48 -40l-40 -47
l-45 39zM198.001 -121.002l47 -40l-40 -46l-45 38z" />
    <glyph glyph-name="uniFDFC" unicode="&#xfdfc;" horiz-adv-x="1401" arabic-form="isolated" 
d="M579 -78c0 -24 -11.499 -46.166 -34.499 -66.499s-55 -36.5 -96 -48.5s-86.833 -18 -137.5 -18c-94.667 0 -155.834 18.5 -183.501 55.5s-41.5 70.5 -41.5 100.5c0 24.667 13.333 116.334 40 275.001c1.33301 5.33301 2.66602 12.666 3.99902 21.999l32 -8
c-8 -41.333 -15.667 -87.5 -23 -138.5s-12.666 -92.833 -15.999 -125.5c-4.66699 -52.667 12.833 -87.834 52.5 -105.501s85.167 -26.5 136.5 -26.5c38 0 79.667 4.5 125 13.5s79 23.5 101 43.5l-10 775l43 10zM1090 40.001c-25.333 -14 -58.3301 -24.1689 -98.9971 -30.502
s-81.334 -9.5 -122.001 -9.5c-72 0 -122.5 12.833 -151.5 38.5s-44.5 65.834 -46.5 120.501l-17 511l43 10l15 -521c1.33301 -41.333 14.166 -70.166 38.499 -86.499s61.166 -24.5 110.499 -24.5h8c54 0 99.833 3 137.5 9s69.167 17.333 94.5 34l-15 236l44 12l3 -78
c2.66699 -77.333 4 -131 4 -161c0 -23.333 -15.667 -43.333 -47 -60zM1304 142.999c6.66699 -64.667 10 -107 10 -127c0 -49.333 -23.5 -97.166 -70.5 -143.499s-113.167 -88.5 -198.5 -126.5l-22 41c70 31.333 126.833 65.166 170.5 101.499s72.5 71.833 86.5 106.5
l-34 273l45 14zM801.004 -103.001l48 -40l-40 -46l-45 39zM910.004 -105.001l47 -40l-40 -47l-45 38z" />
    <glyph glyph-name="uniFE82" unicode="&#x622;" horiz-adv-x="276" arabic-form="final" 
d="M193 638c-18.667 0.666992 -48.6699 3.33203 -90.0029 7.99902c-21.333 3.33301 -37.666 5 -48.999 5c-17.333 0 -28.666 -2.66699 -33.999 -8s-10.666 -17 -15.999 -35l-31 8c8 28.667 17.667 47.834 29 57.501s28.333 14.5 51 14.5c10.667 0 32 -2 64 -6
c31.333 -4 57.333 -6.33301 78 -7l50 -1l-10 -36h-42zM308.497 42.998c1.66699 -3.33301 2.5 -7.66699 2.5 -13v-11c0 -5.33301 -0.833008 -9.83301 -2.5 -13.5s-3.83398 -5.5 -6.50098 -5.5h-6c-65.333 0 -112.833 13.167 -142.5 39.5s-45.167 66.166 -46.5 119.499
l-18 371l43 10l16 -381c2 -41.333 15 -70.166 39 -86.499s60.333 -24.5 109 -24.5h6c2.66699 0 4.83398 -1.66699 6.50098 -5z" />
    <glyph glyph-name="uniFE84" unicode="&#x623;" horiz-adv-x="298" arabic-form="final" 
d="M254 671l-288.003 -93l-7 33l98 31c-13.333 25.333 -22.666 46.5 -27.999 63.5s-8 34.167 -8 51.5c0 20 10.667 35.667 32 47s49.333 17 84 17c12 0 21 -0.666992 27 -2l-1 -32c-8 0.666992 -18.667 1 -32 1c-16 0 -31.167 -1.83301 -45.5 -5.5
s-25.166 -8.5 -32.499 -14.5c0.666992 -22 3.83398 -42.167 9.50098 -60.5s14.167 -36.5 25.5 -54.5l159 50zM305.497 43c1.66699 -3.33301 2.5 -7.66699 2.5 -13v-11c0 -5.33301 -0.833008 -9.83301 -2.5 -13.5s-3.83398 -5.5 -6.50098 -5.5h-6
c-65.333 0 -112.833 13.167 -142.5 39.5s-45.167 66.166 -46.5 119.499l-18 371l43 10l16 -381c2 -41.333 15 -70.166 39 -86.499s60.333 -24.5 109 -24.5h6c2.66699 0 4.83398 -1.66699 6.50098 -5z" />
    <glyph glyph-name="uniFE86" unicode="&#x624;" horiz-adv-x="431" arabic-form="final" 
d="M56 413l97.998 31.001c-13.333 26 -22.666 47.5 -27.999 64.5s-8 34.167 -8 51.5c0 19.333 10.667 34.666 32 45.999s49.333 17 84 17c12 0 21 -0.666992 27 -2l-1 -32c-8 1.33301 -18.667 2 -32 2c-16 0 -31.167 -2 -45.5 -6s-25.166 -9 -32.499 -15
c2 -42 13.667 -80 35 -114l159 50l7 -33l-288 -92zM437.998 43.001c2 -3.33301 3 -7.66797 3 -13.001v-11c0 -4.66699 -1 -9 -3 -13s-4.33301 -6 -7 -6h-89c-14.667 -60 -47.834 -111.5 -99.501 -154.5s-108.5 -76.5 -170.5 -100.5l-21 43
c66 25.333 120.833 56.166 164.5 92.499s72.834 77.833 87.501 124.5c-32.667 -4 -71 -6 -115 -6c-31.333 0 -53 1 -65 3c-11.333 2 -19.5 4.5 -24.5 7.5s-10.833 9.16699 -17.5 18.5c-6 8.66699 -9.83301 16.334 -11.5 23.001s-2.5 15.667 -2.5 27
c0.666992 28 5.33398 59.5 14.001 94.5s23.5 65.667 44.5 92s48.5 39.5 82.5 39.5c57.333 0 95.166 -25.667 113.499 -77s27.5 -106.666 27.5 -165.999v-13h82c2.66699 0 5 -1.66699 7 -5zM309.998 55.999c0 68 -8.50098 118.501 -25.501 151.501s-42.833 49.5 -77.5 49.5
c-32.667 0 -58.167 -18.833 -76.5 -56.5s-27.5 -85.834 -27.5 -144.501c12.667 -6 40.334 -9 83.001 -9c60.667 0 102 3 124 9z" />
    <glyph glyph-name="uniFE88" unicode="&#x625;" horiz-adv-x="299" arabic-form="final" 
d="M305.5 43c1.66699 -3.33301 2.5 -7.66699 2.5 -13v-11c0 -5.33301 -0.833008 -9.83301 -2.5 -13.5s-3.83398 -5.5 -6.50098 -5.5h-6c-65.333 0 -112.833 13.167 -142.5 39.5s-45.167 66.166 -46.5 119.499l-18 511l43 10l16 -521c1.33301 -41.333 14 -70.166 38 -86.499
s60.667 -24.5 110 -24.5h6c2.66699 0 4.83398 -1.66699 6.50098 -5zM285 -232.001l6 -32.999l-288 -92l-6 33l98 30c-13.333 24.667 -22.666 45.5 -27.999 62.5s-8.33301 34.5 -9 52.5c0 20 10.667 35.833 32 47.5s49.666 17.5 84.999 17.5c12 0 20.667 -0.666992 26 -2v-32
c-8 0.666992 -19 1 -33 1c-16 0 -31.167 -1.83301 -45.5 -5.5s-24.833 -8.83398 -31.5 -15.501c2 -42 13.667 -80 35 -114z" />
    <glyph glyph-name="uniFE8A" unicode="&#x626;" horiz-adv-x="655" arabic-form="final" 
d="M128 356l97.998 31c-13.333 26 -22.666 47.333 -27.999 64s-8 33.667 -8 51c0 20 10.667 35.667 32 47s49.333 17 84 17c12 0 21 -0.666992 27 -2l-1 -32c-8 0.666992 -18.667 1 -32 1c-15.333 0 -30.333 -1.83301 -45 -5.5s-25.667 -8.5 -33 -14.5
c0.666992 -22 3.83398 -42.167 9.50098 -60.5s14.167 -36.5 25.5 -54.5l160 51l6 -33l-288 -93zM661.498 43c1.66699 -3.33301 2.49805 -7.66797 2.49805 -13.001v-11c0 -5.33301 -0.833008 -9.83301 -2.5 -13.5s-3.83398 -5.5 -6.50098 -5.5l-53 -1
c11.333 -13.333 17 -31.666 17 -54.999c0 -118.667 -102.333 -178 -307 -178c-92 0 -152 17.833 -180 53.5s-42 68.834 -42 99.501c0 16 4.33301 56.667 13 122s17.667 124.666 27 177.999l37 -7c-7.33301 -42.667 -14.666 -89.834 -21.999 -141.501
s-12.666 -93.167 -15.999 -124.5c-0.666992 -3.33301 -1 -8.33301 -1 -15c0 -46.667 18.667 -77.667 56 -93s80.333 -23 129 -23c58.667 0 108.667 4.83301 150 14.5s78 28.834 110 57.501c1.33301 24 2 39 2 45c0 20 -3.33301 34.5 -10 43.5s-19 14.833 -37 17.5
s-47 4 -87 4h-51l16 51h249c2.66699 0 4.83398 -1.66699 6.50098 -5z" />
    <glyph glyph-name="uniFE8B" unicode="&#x626;" horiz-adv-x="322" arabic-form="initial" 
d="M30 432l97.9971 31.001c-13.333 26 -22.666 47.5 -27.999 64.5s-8 34.167 -8 51.5c0 19.333 10.667 34.666 32 45.999s49.333 17 84 17c12 0 21 -0.666992 27 -2l-1 -32c-16 1.33301 -26.667 2 -32 2c-16 0 -31.167 -2 -45.5 -6s-25.166 -9 -32.499 -15
c0.666992 -22 3.83398 -42 9.50098 -60s14.167 -36 25.5 -54l160 50l6 -33l-288 -92zM228.997 336.001l2 -46.001c2.66699 -93.333 4 -157.333 4 -192c0 -23.333 -15.333 -43.333 -46 -60c-46.667 -25.333 -109.667 -38 -189 -38c-2.66699 0 -5 2 -7 6s-3 8.33301 -3 13v11
c0 4.66699 1 8.83398 3 12.501s4.33301 5.5 7 5.5c44 0 82.5 3.16699 115.5 9.5s61.5 17.5 85.5 33.5l-15 234z" />
    <glyph glyph-name="uniFE8C" unicode="&#x626;" horiz-adv-x="324" arabic-form="medial" 
d="M-9 413l97.998 30c-13.333 26 -22.666 47.5 -27.999 64.5s-8 34.167 -8 51.5c0 20 10.667 35.667 32 47s49.333 17 84 17c12 0 21 -0.666992 27 -2l-1 -32c-8 0.666992 -18.667 1 -32 1c-16 0 -31.167 -2 -45.5 -6s-25.166 -9 -32.499 -15c2 -42 13.667 -80 35 -114
l159 50l7 -33l-288 -92zM330.498 43c1.66699 -3.33301 2.50098 -7.66797 2.50098 -13.001v-11c0 -5.33301 -0.833008 -9.83301 -2.5 -13.5s-3.83398 -5.5 -6.50098 -5.5c-90.667 0 -143.667 18 -159 54c-10 -16.667 -30 -29.834 -60 -39.501s-65 -14.5 -105 -14.5
c-2.66699 0 -5 2 -7 6s-3 8.33301 -3 13v11c0 4.66699 1 8.83398 3 12.501s4.33301 5.5 7 5.5c36.667 0 65.667 2.83301 87 8.5s40.666 14.834 57.999 27.501l-15 212l41 2l15 -212c25.333 -25.333 71.333 -38 138 -38c2.66699 0 4.83398 -1.66699 6.50098 -5z" />
    <glyph glyph-name="uniFE8E" unicode="&#x627;" horiz-adv-x="299" arabic-form="final" 
d="M305.5 43c1.66699 -3.33301 2.5 -7.66699 2.5 -13v-11c0 -5.33301 -0.833008 -9.83301 -2.5 -13.5s-3.83398 -5.5 -6.50098 -5.5h-6c-65.333 0 -112.833 13.167 -142.5 39.5s-45.167 66.166 -46.5 119.499l-18 511l43 10l16 -521c1.33301 -41.333 14 -70.166 38 -86.499
s60.667 -24.5 110 -24.5h6c2.66699 0 4.83398 -1.66699 6.50098 -5z" />
    <glyph glyph-name="uniFE90" unicode="&#x628;" horiz-adv-x="888" arabic-form="final" 
d="M895.5 43c1.66699 -3.33301 2.50098 -7.66699 2.50098 -13v-11c0 -5.33301 -0.833008 -9.83301 -2.5 -13.5s-3.83398 -5.5 -6.50098 -5.5c-93.333 0 -148 18 -164 54c-8 -8 -18.667 -14.5 -32 -19.5s-31 -10.5 -53 -16.5c-32 -8 -70.333 -14 -115 -18
s-88.334 -6 -131.001 -6c-101.333 0 -178 11.333 -230 34s-78 64.667 -78 126c0 15.333 1.33301 30 4 44l26 155l36 -7l-25 -151c-2 -12.667 -3 -24 -3 -34c0 -48 23.833 -79.667 71.5 -95s113.167 -23 196.5 -23c66 0 128 3.83301 186 11.5s101.667 18.5 131 32.5l-15 200
l42 3l15 -206c12.667 -14 30.5 -23.5 53.5 -28.5s51.167 -7.5 84.5 -7.5c2.66699 0 4.83398 -1.66699 6.50098 -5zM412.001 -119.001l50 -42l-43 -48l-47 41z" />
    <glyph glyph-name="uniFE91" unicode="&#x628;" horiz-adv-x="322" arabic-form="initial" 
d="M231 290c2.66699 -93.333 4 -157.334 4 -192.001c0 -23.333 -15.333 -43.333 -46 -60c-46.667 -25.333 -109.667 -38 -189 -38c-2.66699 0 -5 2 -7 6s-3 8.33301 -3 13v11c0 4.66699 1 8.83398 3 12.501s4.33301 5.5 7 5.5c44 0 82.5 3.16699 115.5 9.5
s61.5 17.5 85.5 33.5l-15 234l43 11zM81 -119.001l50 -42l-42 -48l-48 41z" />
    <glyph glyph-name="uniFE92" unicode="&#x628;" horiz-adv-x="324" arabic-form="medial" 
d="M330.5 43c1.66699 -3.33301 2.50098 -7.66797 2.50098 -13.001v-11c0 -5.33301 -0.833008 -9.83301 -2.5 -13.5s-3.83398 -5.5 -6.50098 -5.5c-90.667 0 -143.667 18 -159 54c-10 -16.667 -30 -29.834 -60 -39.501s-65 -14.5 -105 -14.5c-2.66699 0 -5 2 -7 6
s-3 8.33301 -3 13v11c0 4.66699 1 8.83398 3 12.501s4.33301 5.5 7 5.5c36.667 0 65.667 2.83301 87 8.5s40.666 14.834 57.999 27.501l-15 212l41 2l15 -212c25.333 -25.333 71.333 -38 138 -38c2.66699 0 4.83398 -1.66699 6.50098 -5zM156.001 -119.002l50 -42l-43 -48
l-48 41z" />
    <glyph glyph-name="uniFE94" unicode="&#x629;" horiz-adv-x="476" arabic-form="final" 
d="M242 539l-45 39l39 47l47 -39zM351 536l-46 39l39 47l48 -39zM482.5 43c1.66699 -3.33301 2.50098 -7.66797 2.50098 -13.001v-11c0 -5.33301 -0.833008 -9.83301 -2.5 -13.5s-3.83398 -5.5 -6.50098 -5.5h-15c-31.333 0 -59.666 4.83301 -84.999 14.5
s-41 28.167 -47 55.5c-6.66699 -14 -22.334 -22.667 -47.001 -26c-24 -4 -51 -6 -81 -6c-28.667 0 -51 2 -67 6s-27.833 12.333 -35.5 25s-11.5 31.334 -11.5 56.001c0 30.667 9.16699 61.167 27.5 91.5s43.166 55.833 74.499 76.5s66 32.667 104 36l-9 75l43 9l21 -243
c4 -38.667 8.33301 -65.5 13 -80.5s14.667 -25.667 30 -32s41.333 -9.5 78 -9.5h7c2.66699 0 4.83398 -1.66699 6.50098 -5zM316.001 100.998l-17.999 183c-40.667 -4 -74.334 -16.167 -101.001 -36.5s-46 -44.333 -58 -72s-17 -54.167 -15 -79.5
c8 -4 17.167 -6.66699 27.5 -8s26.833 -2 49.5 -2c48 0 86.333 5 115 15z" />
    <glyph glyph-name="uniFE96" unicode="&#x62a;" horiz-adv-x="888" arabic-form="final" 
d="M388 416l-46 40l39 46l47 -39zM496 414l-46 38l39 47l48 -39zM895.5 43c1.66699 -3.33301 2.50098 -7.66699 2.50098 -13v-11c0 -5.33301 -0.833008 -9.83301 -2.5 -13.5s-3.83398 -5.5 -6.50098 -5.5c-93.333 0 -148 18 -164 54c-8 -8 -18.667 -14.5 -32 -19.5
s-31 -10.5 -53 -16.5c-32 -8 -70.333 -14 -115 -18s-88.334 -6 -131.001 -6c-101.333 0 -178 11.333 -230 34s-78 64.667 -78 126c0 15.333 1.33301 30 4 44l26 155l36 -7l-25 -151c-2 -12.667 -3 -24 -3 -34c0 -48 23.833 -79.667 71.5 -95s113.167 -23 196.5 -23
c66 0 128 3.83301 186 11.5s101.667 18.5 131 32.5l-15 200l42 3l15 -206c12.667 -14 30.5 -23.5 53.5 -28.5s51.167 -7.5 84.5 -7.5c2.66699 0 4.83398 -1.66699 6.50098 -5z" />
    <glyph glyph-name="uniFE97" unicode="&#x62a;" horiz-adv-x="355" arabic-form="initial" 
d="M114 464l-45 40l39 46l47 -39zM222 462l-45 38l39 47l47 -39zM229 336l2 -46.001c2.66699 -93.333 4 -157.333 4 -192c0 -23.333 -15.333 -43.333 -46 -60c-46.667 -25.333 -109.667 -38 -189 -38c-2.66699 0 -5 2 -7 6s-3 8.33301 -3 13v11
c0 4.66699 1 8.83398 3 12.501s4.33301 5.5 7 5.5c44 0 82.5 3.16699 115.5 9.5s61.5 17.5 85.5 33.5l-15 234z" />
    <glyph glyph-name="uniFE98" unicode="&#x62a;" horiz-adv-x="324" arabic-form="medial" 
d="M102 413l-45 39l39 46l47 -39zM211 410l-46 38l39 48l48 -39zM330.5 43c1.66699 -3.33301 2.50098 -7.66797 2.50098 -13.001v-11c0 -5.33301 -0.833008 -9.83301 -2.5 -13.5s-3.83398 -5.5 -6.50098 -5.5c-90.667 0 -143.667 18 -159 54
c-10 -16.667 -30 -29.834 -60 -39.501s-65 -14.5 -105 -14.5c-2.66699 0 -5 2 -7 6s-3 8.33301 -3 13v11c0 4.66699 1 8.83398 3 12.501s4.33301 5.5 7 5.5c36.667 0 65.667 2.83301 87 8.5s40.666 14.834 57.999 27.501l-15 212l41 2l15 -212
c25.333 -25.333 71.333 -38 138 -38c2.66699 0 4.83398 -1.66699 6.50098 -5z" />
    <glyph glyph-name="uniFE9A" unicode="&#x62b;" horiz-adv-x="888" arabic-form="final" 
d="M431 531l-46 39l38 47l47 -40zM372 419l-45 38l38 46l47 -40zM438 454l38 47l47 -40l-40 -46zM895.5 43c1.66699 -3.33301 2.50098 -7.66699 2.50098 -13v-11c0 -5.33301 -0.833008 -9.83301 -2.5 -13.5s-3.83398 -5.5 -6.50098 -5.5c-93.333 0 -148 18 -164 54
c-8 -8 -18.667 -14.5 -32 -19.5s-31 -10.5 -53 -16.5c-32 -8 -70.333 -14 -115 -18s-88.334 -6 -131.001 -6c-101.333 0 -178 11.333 -230 34s-78 64.667 -78 126c0 15.333 1.33301 30 4 44l26 155l36 -7l-25 -151c-2 -12.667 -3 -24 -3 -34c0 -48 23.833 -79.667 71.5 -95
s113.167 -23 196.5 -23c66 0 128 3.83301 186 11.5s101.667 18.5 131 32.5l-15 200l42 3l15 -206c12.667 -14 30.5 -23.5 53.5 -28.5s51.167 -7.5 84.5 -7.5c2.66699 0 4.83398 -1.66699 6.50098 -5z" />
    <glyph glyph-name="uniFE9B" unicode="&#x62b;" horiz-adv-x="355" arabic-form="initial" 
d="M169 576l-46 39l38 47l47 -39zM111 464l-46 38l38 46l47 -40zM176 499l38 47l47 -40l-40 -46zM229 336l2 -46.001c2.66699 -93.333 4 -157.333 4 -192c0 -23.333 -15.333 -43.333 -46 -60c-46.667 -25.333 -109.667 -38 -189 -38c-2.66699 0 -5 2 -7 6s-3 8.33301 -3 13
v11c0 4.66699 1 8.83398 3 12.501s4.33301 5.5 7 5.5c44 0 82.5 3.16699 115.5 9.5s61.5 17.5 85.5 33.5l-15 234z" />
    <glyph glyph-name="uniFE9C" unicode="&#x62b;" horiz-adv-x="324" arabic-form="medial" 
d="M144 535l-46 39l38 47l46 -39zM85 423l-46 38l39 46l46 -40zM151 458l38 47l46 -40l-40 -46zM330.5 43c1.66699 -3.33301 2.50098 -7.66797 2.50098 -13.001v-11c0 -5.33301 -0.833008 -9.83301 -2.5 -13.5s-3.83398 -5.5 -6.50098 -5.5c-90.667 0 -143.667 18 -159 54
c-10 -16.667 -30 -29.834 -60 -39.501s-65 -14.5 -105 -14.5c-2.66699 0 -5 2 -7 6s-3 8.33301 -3 13v11c0 4.66699 1 8.83398 3 12.501s4.33301 5.5 7 5.5c36.667 0 65.667 2.83301 87 8.5s40.666 14.834 57.999 27.501l-15 212l41 2l15 -212
c25.333 -25.333 71.333 -38 138 -38c2.66699 0 4.83398 -1.66699 6.50098 -5z" />
    <glyph glyph-name="uniFE9E" unicode="&#x62c;" horiz-adv-x="658" arabic-form="final" 
d="M664.5 43c1.66699 -3.33301 2.5 -7.66797 2.5 -13.001v-11c0 -5.33301 -0.833008 -9.83301 -2.5 -13.5s-3.83398 -5.5 -6.50098 -5.5h-30c-50.667 0 -90 6.66699 -118 20s-49.5 35 -64.5 65s-28.5 74 -40.5 132c-63.333 -29.333 -119.166 -63.5 -167.499 -102.5
s-81.166 -80.167 -98.499 -123.5c-6.66699 -26.667 -10 -57.334 -10 -92.001c0 -74 23 -129 69 -165s115 -54 207 -54h157l-5 -49h-153c-93.333 0 -163.5 16 -210.5 48s-76.667 67.5 -89 106.5s-18.5 78.833 -18.5 119.5c0 86 34.5 160.833 103.5 224.5
s160.833 116.5 275.5 158.5c12 4.66699 28.333 9.33398 49 14.001c-28.667 3.33301 -60.334 9.83301 -95.001 19.5s-75 22.5 -121 38.5c-56.667 18 -95.334 26.667 -116.001 26c-14.667 0 -26.667 -6.16699 -36 -18.5s-17 -30.5 -23 -54.5l-33 8
c10 34.667 22.333 61.667 37 81s33.667 29.333 57 30c26 0 73.333 -11.667 142 -35c58 -20 108.5 -35.5 151.5 -46.5s83.167 -16.5 120.5 -16.5c12 0 21 0.333008 27 1l-6 -50c-58 -8.66699 -118.333 -26.667 -181 -54c10.667 -53.333 22.834 -92.666 36.501 -117.999
s31.667 -42.5 54 -51.5s54.166 -13.5 95.499 -13.5h34c2.66699 0 4.83398 -1.66699 6.50098 -5zM305 -99.002l42 52l53 -44l-45 -50z" />
    <glyph glyph-name="uniFE9F" unicode="&#x62c;" horiz-adv-x="663" arabic-form="initial" 
d="M576 231l-7.99805 -46.001c-4 0.666992 -10 1 -18 1c-28.667 0 -57.334 -5.5 -86.001 -16.5s-61 -27.167 -97 -48.5c-45.333 -28 -83.333 -49.833 -114 -65.5s-64.5 -28.834 -101.5 -39.501s-76.833 -16 -119.5 -16h-32c-2.66699 0 -5 2 -7 6s-3 8.33301 -3 13v11
c0 4.66699 1 8.83398 3 12.501s4.33301 5.5 7 5.5h40c42.667 0 84.5 7.16699 125.5 21.5s89.167 37.166 144.5 68.499l31.5 17c8.33301 4.66699 15.166 8.33398 20.499 11.001l50 27c17.333 8 33 13.333 47 16l-18 6c-39.333 10.667 -85 26.334 -137 47.001
c-66 28 -110.333 42 -133 42c-16.667 -0.666992 -30 -9 -40 -25s-17 -33.333 -21 -52l-32 6c8.66699 40.667 20.167 70.5 34.5 89.5s35.833 28.5 64.5 28.5c13.333 0 31.5 -4 54.5 -12s53.833 -20 92.5 -36c113.333 -48 197.333 -72 252 -72zM303.002 -97.001l50 -41
l-43 -48l-48 40z" />
    <glyph glyph-name="uniFEA0" unicode="&#x62c;" horiz-adv-x="623" arabic-form="medial" 
d="M629.5 43c1.66699 -3.33301 2.50098 -7.66797 2.50098 -13.001v-11c0 -5.33301 -0.833008 -9.83301 -2.5 -13.5s-3.83398 -5.5 -6.50098 -5.5h-86c-36.667 0 -64.5 5.66699 -83.5 17s-32 26 -39 44s-12.833 43.667 -17.5 77c-6.66699 -3.33301 -16.667 -9 -30 -17
c-45.333 -28 -83.333 -49.833 -114 -65.5s-64.5 -28.834 -101.5 -39.501s-76.5 -16 -118.5 -16h-33c-2.66699 0 -5 2 -7 6s-3 8.33301 -3 13v11c0 4.66699 1 8.83398 3 12.501s4.33301 5.5 7 5.5h40c42.667 0 84.5 7.16699 125.5 21.5s89.167 37.166 144.5 68.499l31.5 17
c8.33301 4.66699 15.166 8.33398 20.499 11.001l50 27c17.333 8 33 13.333 47 16l-18 6c-39.333 10.667 -85 26.334 -137 47.001c-66 28 -110.333 42 -133 42c-16.667 -0.666992 -30 -9 -40 -25s-17 -33.333 -21 -52l-32 6c8.66699 40.667 20.167 70.5 34.5 89.5
s35.833 28.5 64.5 28.5c13.333 0 31.5 -4 54.5 -12s53.833 -20 92.5 -36c113.333 -48 197.333 -72 252 -72l-9 -47c-4.66699 0.666992 -11.667 1 -21 1c-34.667 0 -73 -9.66699 -115 -29c4.66699 -30.667 9.66699 -53 15 -67s15 -24.333 29 -31s35.667 -10 65 -10h83
c2.66699 0 4.83398 -1.66699 6.50098 -5zM303.001 -96.002l50 -41l-43 -49l-48 41z" />
    <glyph glyph-name="uniFEA2" unicode="&#x62d;" horiz-adv-x="658" arabic-form="final" 
d="M664.5 43c1.66699 -3.33301 2.5 -7.66797 2.5 -13.001v-11c0 -5.33301 -0.833008 -9.83301 -2.5 -13.5s-3.83398 -5.5 -6.50098 -5.5h-30c-50.667 0 -90 6.66699 -118 20s-49.5 35 -64.5 65s-28.5 74 -40.5 132c-63.333 -29.333 -119.166 -63.5 -167.499 -102.5
s-81.166 -80.167 -98.499 -123.5c-6.66699 -26.667 -10 -57.334 -10 -92.001c0 -74 23 -129 69 -165s115 -54 207 -54h157l-5 -49h-153c-93.333 0 -163.5 16 -210.5 48s-76.667 67.5 -89 106.5s-18.5 78.833 -18.5 119.5c0 86 34.5 160.833 103.5 224.5
s160.833 116.5 275.5 158.5c12 4.66699 28.333 9.33398 49 14.001c-28.667 3.33301 -60.334 9.83301 -95.001 19.5s-75 22.5 -121 38.5c-56.667 18 -95.334 26.667 -116.001 26c-14.667 0 -26.667 -6.16699 -36 -18.5s-17 -30.5 -23 -54.5l-33 8
c10 34.667 22.333 61.667 37 81s33.667 29.333 57 30c26 0 73.333 -11.667 142 -35c58 -20 108.5 -35.5 151.5 -46.5s83.167 -16.5 120.5 -16.5c12 0 21 0.333008 27 1l-6 -50c-58 -8.66699 -118.333 -26.667 -181 -54c10.667 -53.333 22.834 -92.666 36.501 -117.999
s31.667 -42.5 54 -51.5s54.166 -13.5 95.499 -13.5h34c2.66699 0 4.83398 -1.66699 6.50098 -5z" />
    <glyph glyph-name="uniFEA3" unicode="&#x62d;" horiz-adv-x="663" arabic-form="initial" 
d="M576 231l-7.99805 -46.001c-4 0.666992 -10 1 -18 1c-28.667 0 -57.334 -5.5 -86.001 -16.5s-61 -27.167 -97 -48.5c-45.333 -28 -83.333 -49.833 -114 -65.5s-64.5 -28.834 -101.5 -39.501s-76.833 -16 -119.5 -16h-32c-2.66699 0 -5 2 -7 6s-3 8.33301 -3 13v11
c0 4.66699 1 8.83398 3 12.501s4.33301 5.5 7 5.5h40c42.667 0 84.5 7.16699 125.5 21.5s89.167 37.166 144.5 68.499l31.5 17c8.33301 4.66699 15.166 8.33398 20.499 11.001l50 27c17.333 8 33 13.333 47 16l-18 6c-39.333 10.667 -85 26.334 -137 47.001
c-66 28 -110.333 42 -133 42c-16.667 -0.666992 -30 -9 -40 -25s-17 -33.333 -21 -52l-32 6c8.66699 40.667 20.167 70.5 34.5 89.5s35.833 28.5 64.5 28.5c13.333 0 31.5 -4 54.5 -12s53.833 -20 92.5 -36c113.333 -48 197.333 -72 252 -72z" />
    <glyph glyph-name="uniFEA4" unicode="&#x62d;" horiz-adv-x="623" arabic-form="medial" 
d="M629.5 43c1.66699 -3.33301 2.50098 -7.66797 2.50098 -13.001v-11c0 -5.33301 -0.833008 -9.83301 -2.5 -13.5s-3.83398 -5.5 -6.50098 -5.5h-86c-36.667 0 -64.5 5.66699 -83.5 17s-32 26 -39 44s-12.833 43.667 -17.5 77c-6.66699 -3.33301 -16.667 -9 -30 -17
c-45.333 -28 -83.333 -49.833 -114 -65.5s-64.5 -28.834 -101.5 -39.501s-76.5 -16 -118.5 -16h-33c-2.66699 0 -5 2 -7 6s-3 8.33301 -3 13v11c0 4.66699 1 8.83398 3 12.501s4.33301 5.5 7 5.5h40c42.667 0 84.5 7.16699 125.5 21.5s89.167 37.166 144.5 68.499l31.5 17
c8.33301 4.66699 15.166 8.33398 20.499 11.001l50 27c17.333 8 33 13.333 47 16l-18 6c-39.333 10.667 -85 26.334 -137 47.001c-66 28 -110.333 42 -133 42c-16.667 -0.666992 -30 -9 -40 -25s-17 -33.333 -21 -52l-32 6c8.66699 40.667 20.167 70.5 34.5 89.5
s35.833 28.5 64.5 28.5c13.333 0 31.5 -4 54.5 -12s53.833 -20 92.5 -36c113.333 -48 197.333 -72 252 -72l-9 -47c-4.66699 0.666992 -11.667 1 -21 1c-34.667 0 -73 -9.66699 -115 -29c4.66699 -30.667 9.66699 -53 15 -67s15 -24.333 29 -31s35.667 -10 65 -10h83
c2.66699 0 4.83398 -1.66699 6.50098 -5z" />
    <glyph glyph-name="uniFEA6" unicode="&#x62e;" horiz-adv-x="658" arabic-form="final" 
d="M380 537l-47 41l40 49l49 -41zM664.5 43c1.66699 -3.33301 2.5 -7.66797 2.5 -13.001v-11c0 -5.33301 -0.833008 -9.83301 -2.5 -13.5s-3.83398 -5.5 -6.50098 -5.5h-30c-50.667 0 -90 6.66699 -118 20s-49.5 35 -64.5 65s-28.5 74 -40.5 132
c-63.333 -29.333 -119.166 -63.5 -167.499 -102.5s-81.166 -80.167 -98.499 -123.5c-6.66699 -26.667 -10 -57.334 -10 -92.001c0 -74 23 -129 69 -165s115 -54 207 -54h157l-5 -49h-153c-93.333 0 -163.5 16 -210.5 48s-76.667 67.5 -89 106.5s-18.5 78.833 -18.5 119.5
c0 86 34.5 160.833 103.5 224.5s160.833 116.5 275.5 158.5c12 4.66699 28.333 9.33398 49 14.001c-28.667 3.33301 -60.334 9.83301 -95.001 19.5s-75 22.5 -121 38.5c-56.667 18 -95.334 26.667 -116.001 26c-14.667 0 -26.667 -6.16699 -36 -18.5s-17 -30.5 -23 -54.5
l-33 8c10 34.667 22.333 61.667 37 81s33.667 29.333 57 30c26 0 73.333 -11.667 142 -35c58 -20 108.5 -35.5 151.5 -46.5s83.167 -16.5 120.5 -16.5c12 0 21 0.333008 27 1l-6 -50c-58 -8.66699 -118.333 -26.667 -181 -54c10.667 -53.333 22.834 -92.666 36.501 -117.999
s31.667 -42.5 54 -51.5s54.166 -13.5 95.499 -13.5h34c2.66699 0 4.83398 -1.66699 6.50098 -5z" />
    <glyph glyph-name="uniFEA7" unicode="&#x62e;" horiz-adv-x="663" arabic-form="initial" 
d="M275 445l-47 41l40 49l50 -42zM576 231l-7.99805 -46.001c-4 0.666992 -10 1 -18 1c-28.667 0 -57.334 -5.5 -86.001 -16.5s-61 -27.167 -97 -48.5c-45.333 -28 -83.333 -49.833 -114 -65.5s-64.5 -28.834 -101.5 -39.501s-76.833 -16 -119.5 -16h-32
c-2.66699 0 -5 2 -7 6s-3 8.33301 -3 13v11c0 4.66699 1 8.83398 3 12.501s4.33301 5.5 7 5.5h40c42.667 0 84.5 7.16699 125.5 21.5s89.167 37.166 144.5 68.499l31.5 17c8.33301 4.66699 15.166 8.33398 20.499 11.001l50 27c17.333 8 33 13.333 47 16l-18 6
c-39.333 10.667 -85 26.334 -137 47.001c-66 28 -110.333 42 -133 42c-16.667 -0.666992 -30 -9 -40 -25s-17 -33.333 -21 -52l-32 6c8.66699 40.667 20.167 70.5 34.5 89.5s35.833 28.5 64.5 28.5c13.333 0 31.5 -4 54.5 -12s53.833 -20 92.5 -36
c113.333 -48 197.333 -72 252 -72z" />
    <glyph glyph-name="uniFEA8" unicode="&#x62e;" horiz-adv-x="623" arabic-form="medial" 
d="M275 445l-47 41l40 49l50 -42zM629.5 43c1.66699 -3.33301 2.50098 -7.66797 2.50098 -13.001v-11c0 -5.33301 -0.833008 -9.83301 -2.5 -13.5s-3.83398 -5.5 -6.50098 -5.5h-86c-36.667 0 -64.5 5.66699 -83.5 17s-32 26 -39 44s-12.833 43.667 -17.5 77
c-6.66699 -3.33301 -16.667 -9 -30 -17c-45.333 -28 -83.333 -49.833 -114 -65.5s-64.5 -28.834 -101.5 -39.501s-76.5 -16 -118.5 -16h-33c-2.66699 0 -5 2 -7 6s-3 8.33301 -3 13v11c0 4.66699 1 8.83398 3 12.501s4.33301 5.5 7 5.5h40c42.667 0 84.5 7.16699 125.5 21.5
s89.167 37.166 144.5 68.499l31.5 17c8.33301 4.66699 15.166 8.33398 20.499 11.001l50 27c17.333 8 33 13.333 47 16l-18 6c-39.333 10.667 -85 26.334 -137 47.001c-66 28 -110.333 42 -133 42c-16.667 -0.666992 -30 -9 -40 -25s-17 -33.333 -21 -52l-32 6
c8.66699 40.667 20.167 70.5 34.5 89.5s35.833 28.5 64.5 28.5c13.333 0 31.5 -4 54.5 -12s53.833 -20 92.5 -36c113.333 -48 197.333 -72 252 -72l-9 -47c-4.66699 0.666992 -11.667 1 -21 1c-34.667 0 -73 -9.66699 -115 -29c4.66699 -30.667 9.66699 -53 15 -67
s15 -24.333 29 -31s35.667 -10 65 -10h83c2.66699 0 4.83398 -1.66699 6.50098 -5z" />
    <glyph glyph-name="uniFEAA" unicode="&#x62f;" horiz-adv-x="582" arabic-form="final" 
d="M588.5 43c1.66699 -3.33301 2.49805 -7.66797 2.49805 -13.001v-11c0 -5.33301 -0.833008 -9.83301 -2.5 -13.5s-3.83398 -5.5 -6.50098 -5.5h-24c-34.667 0 -62.5 5.33301 -83.5 16s-35.5 28.667 -43.5 54c-4 -7.33301 -9.16699 -13.333 -15.5 -18
s-10.166 -7.66699 -11.499 -9c-24 -16 -57.833 -29.333 -101.5 -40s-84.5 -16 -122.5 -16c-32.667 0 -56.5 6.83301 -71.5 20.5s-22.5 40.167 -22.5 79.5v35h36v-25c0 -18.667 1.5 -32.167 4.5 -40.5s9 -14.166 18 -17.499s23.5 -5 43.5 -5
c45.333 0 89.5 6.16699 132.5 18.5s73.833 28.833 92.5 49.5l-71 312l40 26l55 -265c10 -43.333 18.833 -73 26.5 -89s19.334 -26.333 35.001 -31s43.5 -7 83.5 -7c2.66699 0 4.83398 -1.66699 6.50098 -5z" />
    <glyph glyph-name="uniFEAC" unicode="&#x630;" horiz-adv-x="582" arabic-form="final" 
d="M353 593l-47 41l40 49l49 -42zM588.5 43c1.66699 -3.33301 2.49805 -7.66797 2.49805 -13.001v-11c0 -5.33301 -0.833008 -9.83301 -2.5 -13.5s-3.83398 -5.5 -6.50098 -5.5h-24c-34.667 0 -62.5 5.33301 -83.5 16s-35.5 28.667 -43.5 54
c-4 -7.33301 -9.16699 -13.333 -15.5 -18s-10.166 -7.66699 -11.499 -9c-24 -16 -57.833 -29.333 -101.5 -40s-84.5 -16 -122.5 -16c-32.667 0 -56.5 6.83301 -71.5 20.5s-22.5 40.167 -22.5 79.5v35h36v-25c0 -18.667 1.5 -32.167 4.5 -40.5s9 -14.166 18 -17.499
s23.5 -5 43.5 -5c45.333 0 89.5 6.16699 132.5 18.5s73.833 28.833 92.5 49.5l-71 312l40 26l55 -265c10 -43.333 18.833 -73 26.5 -89s19.334 -26.333 35.001 -31s43.5 -7 83.5 -7c2.66699 0 4.83398 -1.66699 6.50098 -5z" />
    <glyph glyph-name="uniFEAE" unicode="&#x631;" horiz-adv-x="422" arabic-form="final" 
d="M428.5 43c1.66699 -3.33301 2.5 -7.66895 2.5 -13.002v-11c0 -5.33301 -0.833008 -9.83301 -2.5 -13.5s-3.83398 -5.5 -6.50098 -5.5h-66c-55.333 0 -94 12.333 -116 37c0.666992 -5.33301 1 -12.666 1 -21.999c0 -48.667 -23.833 -96.167 -71.5 -142.5
s-114.834 -88.5 -201.501 -126.5l-22 41c72 31.333 129.833 65.333 173.5 102s71.834 72.667 84.501 108l-30 271l44 14l13 -141c0.666992 -3.33301 1 -7.66602 1 -12.999c4.66699 -34 17.667 -55.833 39 -65.5s48.333 -14.5 81 -14.5h70
c2.66699 0 4.83398 -1.66699 6.50098 -5z" />
    <glyph glyph-name="uniFEB0" unicode="&#x632;" horiz-adv-x="422" arabic-form="final" 
d="M174 432l-48 40l41 49l49 -41zM428.5 43c1.66699 -3.33301 2.5 -7.66895 2.5 -13.002v-11c0 -5.33301 -0.833008 -9.83301 -2.5 -13.5s-3.83398 -5.5 -6.50098 -5.5h-66c-55.333 0 -94 12.333 -116 37c0.666992 -5.33301 1 -12.666 1 -21.999
c0 -48.667 -23.833 -96.167 -71.5 -142.5s-114.834 -88.5 -201.501 -126.5l-22 41c72 31.333 129.833 65.333 173.5 102s71.834 72.667 84.501 108l-30 271l44 14l13 -141c0.666992 -3.33301 1 -7.66602 1 -12.999c4.66699 -34 17.667 -55.833 39 -65.5
s48.333 -14.5 81 -14.5h70c2.66699 0 4.83398 -1.66699 6.50098 -5z" />
    <glyph glyph-name="uniFEB2" unicode="&#x633;" horiz-adv-x="1208" arabic-form="final" 
d="M1214.5 43c1.66699 -3.33301 2.5 -7.66895 2.5 -13.002v-11c0 -5.33301 -0.833008 -9.83301 -2.5 -13.5s-3.83398 -5.5 -6.50098 -5.5h-74c-47.333 0 -79 16.333 -95 49c-10 -17.333 -27.833 -29.833 -53.5 -37.5s-51.5 -11.5 -77.5 -11.5
c-21.333 0 -39.166 3.83301 -53.499 11.5s-24.166 18.167 -29.499 31.5c-8.66699 -14.667 -25.834 -25.5 -51.501 -32.5s-53.5 -10.5 -83.5 -10.5c-42.667 0 -72.667 12.667 -90 38l8 -122c1.33301 -23.333 -9.83398 -44.666 -33.501 -63.999
s-58.167 -34.666 -103.5 -45.999s-98.333 -17 -159 -17c-92 0.666992 -152 18.667 -180 54s-42 68.666 -42 99.999c0 16 4.33301 56.667 13 122s17.667 124.333 27 177l37 -8c-7.33301 -42.667 -14.666 -89.5 -21.999 -140.5s-12.666 -92.167 -15.999 -123.5
c-0.666992 -3.33301 -1 -8.33301 -1 -15c0 -46.667 18.833 -77.834 56.5 -93.501s80.5 -23.5 128.5 -23.5c58 0 108 4.66699 150 14s77.667 25.333 107 48l-34 390l44 11l13 -169v0c2.66699 -31.333 11.667 -53 27 -65s40 -18 74 -18c28.667 0 52.167 1.83301 70.5 5.5
s32.166 10.5 41.499 20.5l-7 213l42 1l4 -216c8.66699 -9.33301 18.834 -15.666 30.501 -18.999s25.5 -5 41.5 -5c43.333 0 74.666 7.66699 93.999 23l-20 256l44 8l10 -198c1.33301 -26.667 6.33301 -46.667 15 -60s18.667 -21.666 30 -24.999s25.666 -5 42.999 -5h75
c2.66699 0 4.83398 -1.66699 6.50098 -5z" />
    <glyph glyph-name="uniFEB3" unicode="&#x633;" horiz-adv-x="663" arabic-form="initial" 
d="M572 230c2.66699 -61.333 3.99707 -112.334 3.99707 -153.001c0 -28 -14.333 -47.833 -43 -59.5s-60 -17.5 -94 -17.5c-21.333 0 -39.333 3.66699 -54 11s-24.667 17.666 -30 30.999c-8 -14 -23.667 -24.5 -47 -31.5s-45 -10.5 -65 -10.5
c-23.333 0 -43.833 3.83301 -61.5 11.5s-29.5 17.5 -35.5 29.5c-10.667 -12 -30 -21.833 -58 -29.5s-57.333 -11.5 -88 -11.5c-2.66699 0 -5 2 -7 6s-3 8.33301 -3 13v11c0 4.66699 1 8.83398 3 12.501s4.33301 5.5 7 5.5c26 0 49.333 1.83301 70 5.5
s39.334 10.834 56.001 21.501l4 173l41 -1l-5 -137c-0.666992 -26 6.33301 -42.833 21 -50.5s34.334 -11.5 59.001 -11.5c44.667 1.33301 75 10.333 91 27l-7 213l42 1l3 -215c8 -10 17.5 -16.833 28.5 -20.5s24.167 -5.5 39.5 -5.5c44.667 0 77.334 8 98.001 24l-19 256
l46 8c0 -24 1.33301 -59.333 4 -106z" />
    <glyph glyph-name="uniFEB4" unicode="&#x633;" horiz-adv-x="739" arabic-form="medial" 
d="M745.5 43c1.66699 -3.33301 2.49902 -7.66895 2.49902 -13.002v-11c0 -5.33301 -0.833008 -9.83301 -2.5 -13.5s-3.83398 -5.5 -6.50098 -5.5h-74c-48.667 0 -80.334 16.333 -95.001 49c-9.33301 -17.333 -26.833 -29.833 -52.5 -37.5s-51.834 -11.5 -78.501 -11.5
c-21.333 0 -39.333 3.66699 -54 11s-24.667 17.666 -30 30.999c-8 -14 -23.667 -24.5 -47 -31.5s-45 -10.5 -65 -10.5c-23.333 0 -43.833 3.83301 -61.5 11.5s-29.5 17.5 -35.5 29.5c-10.667 -12 -30 -21.833 -58 -29.5s-57.333 -11.5 -88 -11.5c-2.66699 0 -5 2 -7 6
s-3 8.33301 -3 13v11c0 4.66699 1 8.83398 3 12.501s4.33301 5.5 7 5.5c26 0 49.333 1.83301 70 5.5s39.334 10.834 56.001 21.501l4 173l41 -1l-5 -137c-0.666992 -26 6.33301 -42.833 21 -50.5s34.334 -11.5 59.001 -11.5c44.667 1.33301 75 10.333 91 27l-7 213l42 1
l3 -215c8 -10 17.5 -16.833 28.5 -20.5s24.167 -5.5 39.5 -5.5c44.667 0 77.334 8 98.001 24l-19 256l44 8l10 -198c1.33301 -26.667 6.16602 -46.667 14.499 -60s18.333 -21.666 30 -24.999s25.834 -5 42.501 -5h76c2.66699 0 4.83398 -1.66699 6.50098 -5z" />
    <glyph glyph-name="uniFEB6" unicode="&#x634;" horiz-adv-x="1207" arabic-form="final" 
d="M808 525l-46 39l38 47l46 -39zM749 413l-45 38l38 47l46 -40zM815 448l38 47l46 -40l-40 -46zM1214.5 43c1.66699 -3.33301 2.5 -7.66895 2.5 -13.002v-11c0 -5.33301 -0.833008 -9.83301 -2.5 -13.5s-3.83398 -5.5 -6.50098 -5.5h-74c-47.333 0 -79 16.333 -95 49
c-10 -17.333 -27.833 -29.833 -53.5 -37.5s-51.5 -11.5 -77.5 -11.5c-21.333 0 -39.166 3.83301 -53.499 11.5s-24.166 18.167 -29.499 31.5c-8.66699 -14.667 -25.834 -25.5 -51.501 -32.5s-53.5 -10.5 -83.5 -10.5c-42.667 0 -72.667 12.667 -90 38l8 -122
c1.33301 -23.333 -9.83398 -44.666 -33.501 -63.999s-58.167 -34.666 -103.5 -45.999s-98.333 -17 -159 -17c-92 0.666992 -152 18.667 -180 54s-42 68.666 -42 99.999c0 16 4.33301 56.667 13 122s17.667 124.333 27 177l37 -8
c-7.33301 -42.667 -14.666 -89.5 -21.999 -140.5s-12.666 -92.167 -15.999 -123.5c-0.666992 -3.33301 -1 -8.33301 -1 -15c0 -46.667 18.833 -77.834 56.5 -93.501s80.5 -23.5 128.5 -23.5c58 0 108 4.66699 150 14s77.667 25.333 107 48l-34 390l44 11l13 -169v0
c2.66699 -31.333 11.667 -53 27 -65s40 -18 74 -18c28.667 0 52.167 1.83301 70.5 5.5s32.166 10.5 41.499 20.5l-7 213l42 1l4 -216c8.66699 -9.33301 18.834 -15.666 30.501 -18.999s25.5 -5 41.5 -5c43.333 0 74.666 7.66699 93.999 23l-20 256l44 8l10 -198
c1.33301 -26.667 6.33301 -46.667 15 -60s18.667 -21.666 30 -24.999s25.666 -5 42.999 -5h75c2.66699 0 4.83398 -1.66699 6.50098 -5z" />
    <glyph glyph-name="uniFEB7" unicode="&#x634;" horiz-adv-x="663" arabic-form="initial" 
d="M351 531l-46 39l38 46l47 -39zM292 418l-45 38l38 47l46 -40zM358 454l38 46l47 -40l-40 -45zM572 230c2.66699 -61.333 3.99707 -112.334 3.99707 -153.001c0 -28 -14.333 -47.833 -43 -59.5s-60 -17.5 -94 -17.5c-21.333 0 -39.333 3.66699 -54 11
s-24.667 17.666 -30 30.999c-8 -14 -23.667 -24.5 -47 -31.5s-45 -10.5 -65 -10.5c-23.333 0 -43.833 3.83301 -61.5 11.5s-29.5 17.5 -35.5 29.5c-10.667 -12 -30 -21.833 -58 -29.5s-57.333 -11.5 -88 -11.5c-2.66699 0 -5 2 -7 6s-3 8.33301 -3 13v11
c0 4.66699 1 8.83398 3 12.501s4.33301 5.5 7 5.5c26 0 49.333 1.83301 70 5.5s39.334 10.834 56.001 21.501l4 173l41 -1l-5 -137c-0.666992 -26 6.33301 -42.833 21 -50.5s34.334 -11.5 59.001 -11.5c44.667 1.33301 75 10.333 91 27l-7 213l42 1l3 -215
c8 -10 17.5 -16.833 28.5 -20.5s24.167 -5.5 39.5 -5.5c44.667 0 77.334 8 98.001 24l-19 256l46 8c0 -24 1.33301 -59.333 4 -106z" />
    <glyph glyph-name="uniFEB8" unicode="&#x634;" horiz-adv-x="739" arabic-form="medial" 
d="M351 531l-46 39l38 46l47 -39zM292 418l-45 38l38 47l46 -40zM358 454l38 46l47 -40l-40 -45zM745.5 43c1.66699 -3.33301 2.49902 -7.66895 2.49902 -13.002v-11c0 -5.33301 -0.833008 -9.83301 -2.5 -13.5s-3.83398 -5.5 -6.50098 -5.5h-74
c-48.667 0 -80.334 16.333 -95.001 49c-9.33301 -17.333 -26.833 -29.833 -52.5 -37.5s-51.834 -11.5 -78.501 -11.5c-21.333 0 -39.333 3.66699 -54 11s-24.667 17.666 -30 30.999c-8 -14 -23.667 -24.5 -47 -31.5s-45 -10.5 -65 -10.5
c-23.333 0 -43.833 3.83301 -61.5 11.5s-29.5 17.5 -35.5 29.5c-10.667 -12 -30 -21.833 -58 -29.5s-57.333 -11.5 -88 -11.5c-2.66699 0 -5 2 -7 6s-3 8.33301 -3 13v11c0 4.66699 1 8.83398 3 12.501s4.33301 5.5 7 5.5c26 0 49.333 1.83301 70 5.5
s39.334 10.834 56.001 21.501l4 173l41 -1l-5 -137c-0.666992 -26 6.33301 -42.833 21 -50.5s34.334 -11.5 59.001 -11.5c44.667 1.33301 75 10.333 91 27l-7 213l42 1l3 -215c8 -10 17.5 -16.833 28.5 -20.5s24.167 -5.5 39.5 -5.5c44.667 0 77.334 8 98.001 24l-19 256
l44 8l10 -198c1.33301 -26.667 6.16602 -46.667 14.499 -60s18.333 -21.666 30 -24.999s25.834 -5 42.501 -5h76c2.66699 0 4.83398 -1.66699 6.50098 -5z" />
    <glyph glyph-name="uniFEBA" unicode="&#x635;" horiz-adv-x="1241" arabic-form="final" 
d="M1247.5 43c1.66699 -3.33301 2.49902 -7.66602 2.49902 -12.999v-11c0 -5.33301 -0.833008 -9.83301 -2.5 -13.5s-3.83398 -5.5 -6.50098 -5.5c-57.333 0 -96 21 -116 63c-26.667 -18.667 -67 -34.334 -121 -47.001s-117 -19 -189 -19
c-34.667 0 -72.167 1.66699 -112.5 5s-74.166 10.333 -101.499 21l7 -107c1.33301 -23.333 -9.83398 -44.666 -33.501 -63.999s-58.167 -34.666 -103.5 -45.999s-98.333 -17 -159 -17c-92 0.666992 -152 18.667 -180 54s-42 68.666 -42 99.999c0 16 4.33301 56.667 13 122
s17.667 124.333 27 177l37 -8c-7.33301 -42.667 -14.666 -89.5 -21.999 -140.5s-12.666 -92.167 -15.999 -123.5c-0.666992 -3.33301 -1 -8.33301 -1 -15c0 -46.667 18.833 -77.834 56.5 -93.501s80.5 -23.5 128.5 -23.5c58 0 108 4.66699 150 14s77.667 25.333 107 48
l-34 390l44 11l18 -232c11.333 -5.33301 21.333 -8.33301 30 -9c-1.33301 -1.33301 3 4 13 16c57.333 70 117.166 133.833 179.499 191.5s121.166 86.5 176.499 86.5c52.667 0 91.834 -16.5 117.501 -49.5s38.5 -83.167 38.5 -150.5c0 -20 -1 -37 -3 -51
c6 -20 17.667 -34.167 35 -42.5s36 -12.5 56 -12.5c2.66699 0 4.83398 -1.66699 6.50098 -5zM1107 209c-4.66699 28.667 -15.502 51.999 -32.502 69.999s-42.5 27 -76.5 27c-40.667 0 -90.667 -23.5 -150 -70.5s-118.666 -107.5 -177.999 -181.5
c36.667 -6 86.334 -9 149.001 -9c104.667 0 202.667 18 294 54c0.666992 44.667 -1.33301 81.334 -6 110.001z" />
    <glyph glyph-name="uniFEBB" unicode="&#x635;" horiz-adv-x="816" arabic-form="initial" 
d="M691.5 304.5c25.667 -33 38.5029 -83.168 38.5029 -150.501c0 -22 -1.16699 -40 -3.5 -54s-7.5 -24 -15.5 -30c-24 -20.667 -64 -38 -120 -52s-122.333 -21 -199 -21c-46.667 0 -95.334 3 -146.001 9s-84.667 18.333 -102 37c-12 -12.667 -32.5 -23 -61.5 -31
s-56.5 -12 -82.5 -12c-2.66699 0 -5 2 -7 6s-3 8.33301 -3 13v11c0 4.66699 1 8.83398 3 12.501s4.33301 5.5 7 5.5c15.333 0 34.5 2 57.5 6s45.833 11.333 68.5 22v157h42l-5 -157c12.667 -8.66699 26.667 -14 42 -16c38.667 47.333 74.667 89.5 108 126.5
s74.666 74.167 123.999 111.5s94.666 56 135.999 56c53.333 0 92.833 -16.5 118.5 -49.5zM691.003 98.999c0 44.667 -2.33203 81.333 -6.99902 110s-15.5 52 -32.5 70s-42.833 27 -77.5 27c-40.667 0 -90.834 -23.5 -150.501 -70.5s-118.5 -107.5 -176.5 -181.5
c38 -6 87.667 -9 149 -9c104.667 0 203 18 295 54z" />
    <glyph glyph-name="uniFEBC" unicode="&#x635;" horiz-adv-x="815" arabic-form="medial" 
d="M821.5 43c1.66699 -3.33301 2.50293 -7.66992 2.50293 -13.0029v-11c0 -5.33301 -0.833008 -9.83301 -2.5 -13.5s-3.83398 -5.5 -6.50098 -5.5c-56 0 -94.333 20.667 -115 62c-26.667 -18.667 -66.834 -34.167 -120.501 -46.5s-116.167 -18.5 -187.5 -18.5
c-46.667 0 -95.334 3 -146.001 9s-84.667 18.333 -102 37c-12 -12.667 -32.5 -23 -61.5 -31s-56.5 -12 -82.5 -12c-2.66699 0 -5 2 -7 6s-3 8.33301 -3 13v11c0 4.66699 1 8.83398 3 12.501s4.33301 5.5 7 5.5c15.333 0 34.5 2 57.5 6s45.833 11.333 68.5 22v157h42l-5 -157
c12.667 -8.66699 26.667 -14 42 -16c38.667 47.333 74.667 89.5 108 126.5s74.666 74.167 123.999 111.5s94.666 56 135.999 56c53.333 0 92.833 -16.5 118.5 -49.5s38.5 -83.167 38.5 -150.5c0 -25.333 -1.66699 -44.666 -5 -57.999c8 -17.333 20.333 -29.666 37 -36.999
s34.334 -11 53.001 -11c2.66699 0 4.83398 -1.66699 6.50098 -5zM691.003 98.9961c0 44.667 -2.33203 81.333 -6.99902 110s-15.5 52 -32.5 70s-42.833 27 -77.5 27c-40.667 0 -90.834 -23.5 -150.501 -70.5s-118.5 -107.5 -176.5 -181.5c38 -6 87.667 -9 149 -9
c104.667 0 203 18 295 54z" />
    <glyph glyph-name="uniFEBE" unicode="&#x636;" horiz-adv-x="1241" arabic-form="final" 
d="M842 466l-47 40l40 49l49 -41zM1247.5 43c1.66699 -3.33301 2.49902 -7.66602 2.49902 -12.999v-11c0 -5.33301 -0.833008 -9.83301 -2.5 -13.5s-3.83398 -5.5 -6.50098 -5.5c-57.333 0 -96 21 -116 63c-26.667 -18.667 -67 -34.334 -121 -47.001s-117 -19 -189 -19
c-34.667 0 -72.167 1.66699 -112.5 5s-74.166 10.333 -101.499 21l7 -107c1.33301 -23.333 -9.83398 -44.666 -33.501 -63.999s-58.167 -34.666 -103.5 -45.999s-98.333 -17 -159 -17c-92 0.666992 -152 18.667 -180 54s-42 68.666 -42 99.999c0 16 4.33301 56.667 13 122
s17.667 124.333 27 177l37 -8c-7.33301 -42.667 -14.666 -89.5 -21.999 -140.5s-12.666 -92.167 -15.999 -123.5c-0.666992 -3.33301 -1 -8.33301 -1 -15c0 -46.667 18.833 -77.834 56.5 -93.501s80.5 -23.5 128.5 -23.5c58 0 108 4.66699 150 14s77.667 25.333 107 48
l-34 390l44 11l18 -232c11.333 -5.33301 21.333 -8.33301 30 -9c-1.33301 -1.33301 3 4 13 16c57.333 70 117.166 133.833 179.499 191.5s121.166 86.5 176.499 86.5c52.667 0 91.834 -16.5 117.501 -49.5s38.5 -83.167 38.5 -150.5c0 -20 -1 -37 -3 -51
c6 -20 17.667 -34.167 35 -42.5s36 -12.5 56 -12.5c2.66699 0 4.83398 -1.66699 6.50098 -5zM1107 209c-4.66699 28.667 -15.502 51.999 -32.502 69.999s-42.5 27 -76.5 27c-40.667 0 -90.667 -23.5 -150 -70.5s-118.666 -107.5 -177.999 -181.5
c36.667 -6 86.334 -9 149.001 -9c104.667 0 202.667 18 294 54c0.666992 44.667 -1.33301 81.334 -6 110.001z" />
    <glyph glyph-name="uniFEBF" unicode="&#x636;" horiz-adv-x="816" arabic-form="initial" 
d="M426 466l-47 40l41 49l49 -41zM691.5 304.5c25.667 -33 38.5029 -83.168 38.5029 -150.501c0 -22 -1.16699 -40 -3.5 -54s-7.5 -24 -15.5 -30c-24 -20.667 -64 -38 -120 -52s-122.333 -21 -199 -21c-46.667 0 -95.334 3 -146.001 9s-84.667 18.333 -102 37
c-12 -12.667 -32.5 -23 -61.5 -31s-56.5 -12 -82.5 -12c-2.66699 0 -5 2 -7 6s-3 8.33301 -3 13v11c0 4.66699 1 8.83398 3 12.501s4.33301 5.5 7 5.5c15.333 0 34.5 2 57.5 6s45.833 11.333 68.5 22v157h42l-5 -157c12.667 -8.66699 26.667 -14 42 -16
c38.667 47.333 74.667 89.5 108 126.5s74.666 74.167 123.999 111.5s94.666 56 135.999 56c53.333 0 92.833 -16.5 118.5 -49.5zM691.003 98.999c0 44.667 -2.33203 81.333 -6.99902 110s-15.5 52 -32.5 70s-42.833 27 -77.5 27c-40.667 0 -90.834 -23.5 -150.501 -70.5
s-118.5 -107.5 -176.5 -181.5c38 -6 87.667 -9 149 -9c104.667 0 203 18 295 54z" />
    <glyph glyph-name="uniFEC0" unicode="&#x636;" horiz-adv-x="815" arabic-form="medial" 
d="M426 466l-47 40l41 49l49 -41zM821.5 43c1.66699 -3.33301 2.50293 -7.66992 2.50293 -13.0029v-11c0 -5.33301 -0.833008 -9.83301 -2.5 -13.5s-3.83398 -5.5 -6.50098 -5.5c-56 0 -94.333 20.667 -115 62c-26.667 -18.667 -66.834 -34.167 -120.501 -46.5
s-116.167 -18.5 -187.5 -18.5c-46.667 0 -95.334 3 -146.001 9s-84.667 18.333 -102 37c-12 -12.667 -32.5 -23 -61.5 -31s-56.5 -12 -82.5 -12c-2.66699 0 -5 2 -7 6s-3 8.33301 -3 13v11c0 4.66699 1 8.83398 3 12.501s4.33301 5.5 7 5.5c15.333 0 34.5 2 57.5 6
s45.833 11.333 68.5 22v157h42l-5 -157c12.667 -8.66699 26.667 -14 42 -16c38.667 47.333 74.667 89.5 108 126.5s74.666 74.167 123.999 111.5s94.666 56 135.999 56c53.333 0 92.833 -16.5 118.5 -49.5s38.5 -83.167 38.5 -150.5c0 -25.333 -1.66699 -44.666 -5 -57.999
c8 -17.333 20.333 -29.666 37 -36.999s34.334 -11 53.001 -11c2.66699 0 4.83398 -1.66699 6.50098 -5zM691.003 98.9961c0 44.667 -2.33203 81.333 -6.99902 110s-15.5 52 -32.5 70s-42.833 27 -77.5 27c-40.667 0 -90.834 -23.5 -150.501 -70.5
s-118.5 -107.5 -176.5 -181.5c38 -6 87.667 -9 149 -9c104.667 0 203 18 295 54z" />
    <glyph glyph-name="uniFEC2" unicode="&#x637;" horiz-adv-x="794" arabic-form="final" 
d="M801 43c2 -3.33301 3 -7.6709 3 -13.0039v-11c0 -4.66699 -1 -9 -3 -13s-4.33301 -6 -7 -6c-56.667 0 -95 21 -115 63c-26.667 -19.333 -70.834 -34.666 -132.501 -45.999s-142.5 -17 -242.5 -17h-198l-20 48h87l23 30l9.5 12l12.5 16
c8.66699 11.333 14.834 29.333 18.501 54s5.5 71.334 5.5 140.001c0 86 -2.33301 209.333 -7 370l43 10l8 -391c0 -31.333 -0.666992 -56.166 -2 -74.499s-4.66602 -33.833 -9.99902 -46.5c114 124 206 186 276 186c53.333 0 92.666 -16.5 117.999 -49.5
s38 -83.167 38 -150.5c0 -19.333 -1 -36.666 -3 -51.999c6 -20 17.667 -34 35 -42s36 -12 56 -12c2.66699 0 5 -1.66699 7 -5zM516.5 59.4951c57.667 7.66699 107.832 20.833 150.499 39.5c0 44.667 -2.33301 81.334 -7 110.001s-15.5 52 -32.5 70s-42.5 27 -76.5 27
c-41.333 0 -91.833 -23.833 -151.5 -71.5s-119.167 -109.834 -178.5 -186.501h94c76.667 0 143.834 3.83301 201.501 11.5z" />
    <glyph glyph-name="uniFEC3" unicode="&#x637;" horiz-adv-x="706" arabic-form="initial" 
d="M582 304.5c25.333 -33 37.999 -83.1699 37.999 -150.503c0 -22 -1.16699 -40 -3.5 -54s-7.16602 -24 -14.499 -30c-24 -20.667 -67.333 -37.5 -130 -50.5s-147.334 -19.5 -254.001 -19.5h-218c-2.66699 0 -5 2 -7 6s-3 8.33301 -3 13v11c0 4.66699 1 8.83398 3 12.501
s4.33301 5.5 7 5.5h87l23 30l9.5 12l12.5 16c8.66699 11.333 14.834 29.333 18.501 54s5.5 71.334 5.5 140.001c0 86 -2.33301 209.333 -7 370l43 10l8 -391c0 -31.333 -0.666992 -56.166 -2 -74.499s-4.66602 -33.833 -9.99902 -46.5c114 124 206 186 276 186
c53.333 0 92.666 -16.5 117.999 -49.5zM430.499 59.4971c57.667 7.66699 107.832 20.833 150.499 39.5c0 44.667 -2.33301 81.334 -7 110.001s-15.5 52 -32.5 70s-42.5 27 -76.5 27c-41.333 0 -91.833 -23.833 -151.5 -71.5s-119.167 -109.834 -178.5 -186.501h94
c76.667 0 143.834 3.83301 201.501 11.5z" />
    <glyph glyph-name="uniFEC4" unicode="&#x637;" horiz-adv-x="708" arabic-form="medial" 
d="M714.5 43c1.66699 -3.33301 2.5 -7.6709 2.5 -13.0039v-11c0 -5.33301 -0.833008 -9.83301 -2.5 -13.5s-3.83398 -5.5 -6.50098 -5.5c-56.667 0 -95 21 -115 63c-26.667 -19.333 -70.834 -34.666 -132.501 -45.999s-142.5 -17 -242.5 -17h-218c-2.66699 0 -5 2 -7 6
s-3 8.33301 -3 13v11c0 4.66699 1 8.83398 3 12.501s4.33301 5.5 7 5.5h87l23 30l9.5 12l12.5 16c8.66699 11.333 14.834 29.333 18.501 54s5.5 71.334 5.5 140.001c0 86 -2.33301 209.333 -7 370l43 10l8 -391c0 -31.333 -0.666992 -56.166 -2 -74.499
s-4.66602 -33.833 -9.99902 -46.5c114 124 206 186 276 186c53.333 0 92.666 -16.5 117.999 -49.5s38 -83.167 38 -150.5c0 -20 -1 -38 -3 -54c6.66699 -18.667 18.5 -32 35.5 -40s35.5 -12 55.5 -12c2.66699 0 4.83398 -1.66699 6.50098 -5zM430.5 59.4951
c57.667 7.66699 107.832 20.833 150.499 39.5c0 44.667 -2.33301 81.334 -7 110.001s-15.5 52 -32.5 70s-42.5 27 -76.5 27c-41.333 0 -91.833 -23.833 -151.5 -71.5s-119.167 -109.834 -178.5 -186.501h94c76.667 0 143.834 3.83301 201.501 11.5z" />
    <glyph glyph-name="uniFEC6" unicode="&#x638;" horiz-adv-x="794" arabic-form="final" 
d="M801 43c2 -3.33301 3 -7.6709 3 -13.0039v-11c0 -4.66699 -1 -9 -3 -13s-4.33301 -6 -7 -6c-56.667 0 -95 21 -115 63c-26.667 -19.333 -70.834 -34.666 -132.501 -45.999s-142.5 -17 -242.5 -17h-198l-20 48h87l23 30l9.5 12l12.5 16
c8.66699 11.333 14.834 29.333 18.501 54s5.5 71.334 5.5 140.001c0 86 -2.33301 209.333 -7 370l43 10l8 -391c0 -31.333 -0.666992 -56.166 -2 -74.499s-4.66602 -33.833 -9.99902 -46.5c114 124 206 186 276 186c53.333 0 92.666 -16.5 117.999 -49.5
s38 -83.167 38 -150.5c0 -19.333 -1 -36.666 -3 -51.999c6 -20 17.667 -34 35 -42s36 -12 56 -12c2.66699 0 5 -1.66699 7 -5zM515 466.995l-48 40l41 49l49 -41zM516.5 59.4951c57.667 7.66699 107.832 20.833 150.499 39.5c0 44.667 -2.33301 81.334 -7 110.001
s-15.5 52 -32.5 70s-42.5 27 -76.5 27c-41.333 0 -91.833 -23.833 -151.5 -71.5s-119.167 -109.834 -178.5 -186.501h94c76.667 0 143.834 3.83301 201.501 11.5z" />
    <glyph glyph-name="uniFEC7" unicode="&#x638;" horiz-adv-x="706" arabic-form="initial" 
d="M582 304.5c25.333 -33 37.999 -83.1699 37.999 -150.503c0 -22 -1.16699 -40 -3.5 -54s-7.16602 -24 -14.499 -30c-24 -20.667 -67.333 -37.5 -130 -50.5s-147.334 -19.5 -254.001 -19.5h-218c-2.66699 0 -5 2 -7 6s-3 8.33301 -3 13v11c0 4.66699 1 8.83398 3 12.501
s4.33301 5.5 7 5.5h87l23 30l9.5 12l12.5 16c8.66699 11.333 14.834 29.333 18.501 54s5.5 71.334 5.5 140.001c0 86 -2.33301 209.333 -7 370l43 10l8 -391c0 -31.333 -0.666992 -56.166 -2 -74.499s-4.66602 -33.833 -9.99902 -46.5c114 124 206 186 276 186
c53.333 0 92.666 -16.5 117.999 -49.5zM422.999 466.997l-47 40l40 49l49 -41zM430.499 59.4971c57.667 7.66699 107.832 20.833 150.499 39.5c0 44.667 -2.33301 81.334 -7 110.001s-15.5 52 -32.5 70s-42.5 27 -76.5 27c-41.333 0 -91.833 -23.833 -151.5 -71.5
s-119.167 -109.834 -178.5 -186.501h94c76.667 0 143.834 3.83301 201.501 11.5z" />
    <glyph glyph-name="uniFEC8" unicode="&#x638;" horiz-adv-x="708" arabic-form="medial" 
d="M714.5 43c1.66699 -3.33301 2.5 -7.6709 2.5 -13.0039v-11c0 -5.33301 -0.833008 -9.83301 -2.5 -13.5s-3.83398 -5.5 -6.50098 -5.5c-56.667 0 -95 21 -115 63c-26.667 -19.333 -70.834 -34.666 -132.501 -45.999s-142.5 -17 -242.5 -17h-218c-2.66699 0 -5 2 -7 6
s-3 8.33301 -3 13v11c0 4.66699 1 8.83398 3 12.501s4.33301 5.5 7 5.5h87l23 30l9.5 12l12.5 16c8.66699 11.333 14.834 29.333 18.501 54s5.5 71.334 5.5 140.001c0 86 -2.33301 209.333 -7 370l43 10l8 -391c0 -31.333 -0.666992 -56.166 -2 -74.499
s-4.66602 -33.833 -9.99902 -46.5c114 124 206 186 276 186c53.333 0 92.666 -16.5 117.999 -49.5s38 -83.167 38 -150.5c0 -20 -1 -38 -3 -54c6.66699 -18.667 18.5 -32 35.5 -40s35.5 -12 55.5 -12c2.66699 0 4.83398 -1.66699 6.50098 -5zM423 466.995l-47 40l40 49
l49 -41zM430.5 59.4951c57.667 7.66699 107.832 20.833 150.499 39.5c0 44.667 -2.33301 81.334 -7 110.001s-15.5 52 -32.5 70s-42.5 27 -76.5 27c-41.333 0 -91.833 -23.833 -151.5 -71.5s-119.167 -109.834 -178.5 -186.501h94c76.667 0 143.834 3.83301 201.501 11.5z
" />
    <glyph glyph-name="uniFECA" unicode="&#x639;" horiz-adv-x="561" arabic-form="final" 
d="M567.5 43c1.66699 -3.33301 2.50098 -7.66602 2.50098 -12.999v-11c0 -5.33301 -0.833008 -9.83301 -2.5 -13.5s-3.83398 -5.5 -6.50098 -5.5h-29c-57.333 0 -102.5 13 -135.5 39s-63.167 67.333 -90.5 124c-40 -26 -73 -52.167 -99 -78.5s-48.667 -57.5 -68 -93.5
c-6.66699 -32 -10 -62.667 -10 -92c0 -74 23 -129 69 -165s115 -54 207 -54h157l-5 -49h-153c-132 0 -218 28.5 -258 85.5s-60 119.833 -60 188.5c0 62 17.667 117.167 53 165.5s83 92.5 143 132.5l-85.5 119c-22.333 30.667 -37.333 50 -45 58s-14.5 12 -20.5 12l-9 -1
l-19 -2l3 46c97.333 12.667 180 19 248 19c43.333 0 79 -3.5 107 -10.5s42 -19.833 42 -38.5v-20c0 -17.333 -8.83301 -39 -26.5 -65s-39.334 -51.833 -65.001 -77.5s-49.5 -45.834 -71.5 -60.501c25.333 -50 51.833 -84.833 79.5 -104.5s63.5 -29.5 107.5 -29.5h34
c2.66699 0 4.83398 -1.66699 6.50098 -5zM224.001 358c17.333 -23.333 49.333 -70.333 96 -141c15.333 10 33.833 25.5 55.5 46.5s41 43 58 66s27.167 43.167 30.5 60.5c-0.666992 6.66699 -11.5 11.5 -32.5 14.5s-47.833 4.5 -80.5 4.5c-30 0 -61.5 -1.16699 -94.5 -3.5
s-56.833 -4.5 -71.5 -6.5c8.66699 -4 21.667 -17.667 39 -41z" />
    <glyph glyph-name="uniFECB" unicode="&#x639;" horiz-adv-x="516" arabic-form="initial" 
d="M430 55c-80.667 -22.667 -146.834 -37.501 -198.501 -44.501s-117.5 -10.5 -197.5 -10.5h-34c-2.66699 0 -5 2 -7 6s-3 8.33301 -3 13v11c0 4.66699 1 8.83398 3 12.501s4.33301 5.5 7 5.5h146c-26.667 56 -40 112.333 -40 169c0 31.333 13.333 54.5 40 69.5
s61 22.5 103 22.5c34.667 0 71 -5 109 -15l-11 -43c-28 8.66699 -60.667 13 -98 13c-47.333 0 -82.666 -7 -105.999 -21c0 -36 4.33301 -70.5 13 -103.5s21 -62.5 37 -88.5c77.333 8.66699 155.333 25.667 234 51z" />
    <glyph glyph-name="uniFECC" unicode="&#x639;" horiz-adv-x="498" arabic-form="medial" 
d="M504.5 43c1.66699 -3.33301 2.49805 -7.66602 2.49805 -12.999v-11c0 -5.33301 -0.833008 -9.83301 -2.5 -13.5s-3.83398 -5.5 -6.50098 -5.5h-132c-47.333 0 -81.666 13 -102.999 39c-27.333 -26 -64.333 -39 -111 -39h-152c-2.66699 0 -5 2 -7 6s-3 8.33301 -3 13v11
c0 4.66699 1 8.83398 3 12.501s4.33301 5.5 7 5.5h141c42 0 70 6.33301 84 19l-13 18l-79.5 110.5c-21 28.333 -35.333 46.166 -43 53.499s-14.5 11 -20.5 11l-9 -1l-19 -2l3 45c92 13.333 175 20 249 20c98.667 0 148 -16.333 148 -49v-19c0 -16 -7.5 -36.167 -22.5 -60.5
s-33.667 -48.333 -56 -72s-43.166 -41.834 -62.499 -54.501c16 -12.667 41.333 -19 76 -19h122c2.66699 0 4.83398 -1.66699 6.50098 -5zM160.498 229c16.333 -21.333 50.167 -68.667 101.5 -142c14 9.33301 31.667 24.5 53 45.5s40.333 43 57 66s26.667 42.833 30 59.5
c-0.666992 6.66699 -11.5 11.5 -32.5 14.5s-47.833 4.5 -80.5 4.5c-30 0 -61.5 -1.16699 -94.5 -3.5s-56.833 -4.5 -71.5 -6.5c8.66699 -4 21.167 -16.667 37.5 -38z" />
    <glyph glyph-name="uniFECE" unicode="&#x63a;" horiz-adv-x="561" arabic-form="final" 
d="M322 589l-47 40l40 49l49 -41zM567.5 43c1.66699 -3.33301 2.50098 -7.66602 2.50098 -12.999v-11c0 -5.33301 -0.833008 -9.83301 -2.5 -13.5s-3.83398 -5.5 -6.50098 -5.5h-29c-57.333 0 -102.5 13 -135.5 39s-63.167 67.333 -90.5 124c-40 -26 -73 -52.167 -99 -78.5
s-48.667 -57.5 -68 -93.5c-6.66699 -32 -10 -62.667 -10 -92c0 -74 23 -129 69 -165s115 -54 207 -54h157l-5 -49h-153c-132 0 -218 28.5 -258 85.5s-60 119.833 -60 188.5c0 62 17.667 117.167 53 165.5s83 92.5 143 132.5l-85.5 119c-22.333 30.667 -37.333 50 -45 58
s-14.5 12 -20.5 12l-9 -1l-19 -2l3 46c97.333 12.667 180 19 248 19c43.333 0 79 -3.5 107 -10.5s42 -19.833 42 -38.5v-20c0 -17.333 -8.83301 -39 -26.5 -65s-39.334 -51.833 -65.001 -77.5s-49.5 -45.834 -71.5 -60.501c25.333 -50 51.833 -84.833 79.5 -104.5
s63.5 -29.5 107.5 -29.5h34c2.66699 0 4.83398 -1.66699 6.50098 -5zM224.001 358c17.333 -23.333 49.333 -70.333 96 -141c15.333 10 33.833 25.5 55.5 46.5s41 43 58 66s27.167 43.167 30.5 60.5c-0.666992 6.66699 -11.5 11.5 -32.5 14.5s-47.833 4.5 -80.5 4.5
c-30 0 -61.5 -1.16699 -94.5 -3.5s-56.833 -4.5 -71.5 -6.5c8.66699 -4 21.667 -17.667 39 -41z" />
    <glyph glyph-name="uniFECF" unicode="&#x63a;" horiz-adv-x="516" arabic-form="initial" 
d="M248 435l-47 41l40 49l49 -42zM430 55c-80.667 -22.667 -146.834 -37.501 -198.501 -44.501s-117.5 -10.5 -197.5 -10.5h-34c-2.66699 0 -5 2 -7 6s-3 8.33301 -3 13v11c0 4.66699 1 8.83398 3 12.501s4.33301 5.5 7 5.5h146c-26.667 56 -40 112.333 -40 169
c0 31.333 13.333 54.5 40 69.5s61 22.5 103 22.5c34.667 0 71 -5 109 -15l-11 -43c-28 8.66699 -60.667 13 -98 13c-47.333 0 -82.666 -7 -105.999 -21c0 -36 4.33301 -70.5 13 -103.5s21 -62.5 37 -88.5c77.333 8.66699 155.333 25.667 234 51z" />
    <glyph glyph-name="uniFED0" unicode="&#x63a;" horiz-adv-x="498" arabic-form="medial" 
d="M267 424l-47 41l40 49l50 -42zM504.5 43c1.66699 -3.33301 2.49805 -7.66602 2.49805 -12.999v-11c0 -5.33301 -0.833008 -9.83301 -2.5 -13.5s-3.83398 -5.5 -6.50098 -5.5h-132c-47.333 0 -81.666 13 -102.999 39c-27.333 -26 -64.333 -39 -111 -39h-152
c-2.66699 0 -5 2 -7 6s-3 8.33301 -3 13v11c0 4.66699 1 8.83398 3 12.501s4.33301 5.5 7 5.5h141c42 0 70 6.33301 84 19l-13 18l-79.5 110.5c-21 28.333 -35.333 46.166 -43 53.499s-14.5 11 -20.5 11l-9 -1l-19 -2l3 45c92 13.333 175 20 249 20
c98.667 0 148 -16.333 148 -49v-19c0 -16 -7.5 -36.167 -22.5 -60.5s-33.667 -48.333 -56 -72s-43.166 -41.834 -62.499 -54.501c16 -12.667 41.333 -19 76 -19h122c2.66699 0 4.83398 -1.66699 6.50098 -5zM160.498 229c16.333 -21.333 50.167 -68.667 101.5 -142
c14 9.33301 31.667 24.5 53 45.5s40.333 43 57 66s26.667 42.833 30 59.5c-0.666992 6.66699 -11.5 11.5 -32.5 14.5s-47.833 4.5 -80.5 4.5c-30 0 -61.5 -1.16699 -94.5 -3.5s-56.833 -4.5 -71.5 -6.5c8.66699 -4 21.167 -16.667 37.5 -38z" />
    <glyph glyph-name="uniFED2" unicode="&#x641;" horiz-adv-x="943" arabic-form="final" 
d="M772 464l-47 41l40 49l50 -41zM949.5 43c1.66699 -3.33301 2.49902 -7.66602 2.49902 -12.999v-11c0 -5.33301 -0.833008 -9.83301 -2.5 -13.5s-3.83398 -5.5 -6.50098 -5.5h-44c-42 0 -75 3 -99 9s-43.667 14.667 -59 26c-13.333 -7.33301 -29 -13.333 -47 -18
c-35.333 -10 -78 -16.333 -128 -19s-107.333 -4 -172 -4c-101.333 0 -178 11.333 -230 34s-78 64.667 -78 126c0 15.333 1.33301 30 4 44l26 155l36 -7l-25 -151c-2 -12.667 -3 -24 -3 -34c0 -48 23.833 -79.667 71.5 -95s113.167 -23 196.5 -23
c90.667 0 155.834 1 195.501 3s76.167 7.33301 109.5 16c-26 15.333 -49.833 35 -71.5 59s-32.5 46 -32.5 66c0 15.333 8 37.666 24 66.999s36.167 55.333 60.5 78s48.5 34 72.5 34c24.667 0 47 -9 67 -27s35.667 -43 47 -75s17 -67.667 17 -107
c0 -20.667 -6.66699 -37.167 -20 -49.5s-37.333 -28.5 -72 -48.5c17.333 -7.33301 35 -11 53 -11h101c2.66699 0 4.83398 -1.66699 6.50098 -5zM664.499 134.5c20.333 -19 47.167 -39.167 80.5 -60.5l97 64c0.666992 28 -2.5 56 -9.5 84s-17.5 51.167 -31.5 69.5
s-31 27.5 -51 27.5c-16.667 0 -34 -8 -52 -24s-33.167 -34.5 -45.5 -55.5s-18.5 -36.833 -18.5 -47.5c0 -19.333 10.167 -38.5 30.5 -57.5z" />
    <glyph glyph-name="uniFED3" unicode="&#x641;" horiz-adv-x="410" arabic-form="initial" 
d="M185 563l-47 41l40 49l49 -41zM346 102.5c-2.66699 -22.333 -7.83203 -38.835 -15.499 -49.502s-20.5 -20.334 -38.5 -29.001c-21.333 -11.333 -50 -18.166 -86 -20.499s-86.333 -3.5 -151 -3.5h-55c-2.66699 0 -5 2 -7 6s-3 8.33301 -3 13v11
c0 4.66699 1 8.83398 3 12.501s4.33301 5.5 7 5.5c92 0 159.5 1.83301 202.5 5.5s77.167 11.834 102.5 24.501c1.33301 10.667 2.66602 27.667 3.99902 51l2 23c-37.333 -4.66699 -78.333 -7 -123 -7c-31.333 0 -53 1 -65 3c-11.333 2 -19.5 4.66699 -24.5 8
s-10.833 9.66602 -17.5 18.999c-6 8 -9.83301 15.333 -11.5 22s-2.5 15.667 -2.5 27c0.666992 28 5.5 59.333 14.5 94s24 65.334 45 92.001s48.5 40 82.5 40c56.667 0 94.167 -25.667 112.5 -77s27.5 -106.333 27.5 -165c0.666992 -48 -0.333008 -83.167 -3 -105.5z
M311.002 200.998c0 68.667 -8.5 119.5 -25.5 152.5s-43.167 49.5 -78.5 49.5c-32.667 0 -58 -18.833 -76 -56.5s-27 -86.167 -27 -145.5c13.333 -5.33301 40.333 -8 81 -8c60 0 102 2.66699 126 8z" />
    <glyph glyph-name="uniFED4" unicode="&#x641;" horiz-adv-x="425" arabic-form="medial" 
d="M232 475l-47 41l40 49l50 -42zM431.5 43c1.66699 -3.33301 2.50098 -7.66797 2.50098 -13.001v-11c0 -5.33301 -0.833008 -9.83301 -2.5 -13.5s-3.83398 -5.5 -6.50098 -5.5h-43c-40 0 -71.667 2.66699 -95 8s-42.333 13.333 -57 24
c-15.333 -8.66699 -39.166 -16.167 -71.499 -22.5s-73.5 -9.5 -123.5 -9.5h-35c-2.66699 0 -5 2 -7 6s-3 8.33301 -3 13v11c0 4.66699 1 8.83398 3 12.501s4.33301 5.5 7 5.5h93c38.667 0 69 4 91 12c-26.667 14.667 -51.334 34.334 -74.001 59.001s-34 47.334 -34 68.001
c0 15.333 8 37.666 24 66.999s36 55.333 60 78s48.333 34 73 34c24 0 46 -9 66 -27s35.833 -43 47.5 -75s17.5 -67.667 17.5 -107c0 -20.667 -6.83301 -37.334 -20.5 -50.001s-37.834 -29 -72.501 -49c18 -6.66699 36 -10 54 -10h100c2.66699 0 4.83398 -1.66699 6.50098 -5
zM146.501 134.998c20.333 -18.667 47.5 -39 81.5 -61l97 64c0.666992 28 -2.5 56 -9.5 84s-17.5 51.167 -31.5 69.5s-31 27.5 -51 27.5c-16.667 0 -34 -8 -52 -24s-33.333 -34.5 -46 -55.5s-19 -36.833 -19 -47.5c0 -19.333 10.167 -38.333 30.5 -57z" />
    <glyph glyph-name="uniFED6" unicode="&#x642;" horiz-adv-x="734" arabic-form="final" 
d="M453 435l-45 39l39 47l47 -39zM562 432l-46 39l39 47l48 -39zM740.5 43c1.66699 -3.33301 2.49902 -7.66602 2.49902 -12.999v-11c0 -5.33301 -0.833008 -9.83301 -2.5 -13.5s-3.83398 -5.5 -6.50098 -5.5h-89v-38c0 -21.333 -0.833008 -38 -2.5 -50
s-4.5 -21.333 -8.5 -28c-18.667 -32 -59.334 -55.833 -122.001 -71.5s-129.334 -23.5 -200.001 -23.5c-92 0 -152 17.833 -180 53.5s-42 69.167 -42 100.5c0 15.333 4.33301 54.833 13 118.5s17.667 123.834 27 180.501l37 -8
c-7.33301 -42.667 -14.666 -89.5 -21.999 -140.5s-12.666 -92.167 -15.999 -123.5c-0.666992 -3.33301 -1 -8.33301 -1 -15c0 -46.667 18.833 -77.834 56.5 -93.501s80.5 -23.5 128.5 -23.5c142.667 0 240.667 21 294 63v35v69c-38.667 -4.66699 -80 -7 -124 -7
c-31.333 0 -53 1 -65 3c-11.333 2 -19.5 4.66699 -24.5 8s-10.833 9.66602 -17.5 18.999c-6 8 -9.83301 15.333 -11.5 22s-2.5 16 -2.5 28c0.666992 27.333 5.33398 58.5 14.001 93.5s23.5 65.667 44.5 92s48.5 39.5 82.5 39.5c91.333 0 138.333 -80.667 141 -242v-13h90
c2.66699 0 4.83398 -1.66699 6.50098 -5zM605.999 55c0 68 -8.49902 118.501 -25.499 151.501s-43.167 49.5 -78.5 49.5c-32.667 0 -57.834 -18.833 -75.501 -56.5s-26.5 -85.834 -26.5 -144.501c12 -6 38.667 -9 80 -9c60.667 0 102.667 3 126 9z" />
    <glyph glyph-name="uniFED7" unicode="&#x642;" horiz-adv-x="409" arabic-form="initial" 
d="M131 582l-45 39l39 47l47 -39zM240 579l-46 39l39 47l48 -39zM346 102.5c-2.66699 -22.333 -7.83203 -38.835 -15.499 -49.502s-20.5 -20.334 -38.5 -29.001c-21.333 -11.333 -50 -18.166 -86 -20.499s-86.333 -3.5 -151 -3.5h-55c-2.66699 0 -5 2 -7 6s-3 8.33301 -3 13
v11c0 4.66699 1 8.83398 3 12.501s4.33301 5.5 7 5.5c92 0 159.5 1.83301 202.5 5.5s77.167 11.834 102.5 24.501c1.33301 10.667 2.66602 27.667 3.99902 51l2 23c-37.333 -4.66699 -78.333 -7 -123 -7c-31.333 0 -53 1 -65 3c-11.333 2 -19.5 4.66699 -24.5 8
s-10.833 9.66602 -17.5 18.999c-6 8 -9.83301 15.333 -11.5 22s-2.5 15.667 -2.5 27c0.666992 28 5.5 59.333 14.5 94s24 65.334 45 92.001s48.5 40 82.5 40c56.667 0 94.167 -25.667 112.5 -77s27.5 -106.333 27.5 -165c0.666992 -48 -0.333008 -83.167 -3 -105.5z
M311.002 200.998c0 68.667 -8.5 119.5 -25.5 152.5s-43.167 49.5 -78.5 49.5c-32.667 0 -58 -18.833 -76 -56.5s-27 -86.167 -27 -145.5c13.333 -5.33301 40.333 -8 81 -8c60 0 102 2.66699 126 8z" />
    <glyph glyph-name="uniFED8" unicode="&#x642;" horiz-adv-x="425" arabic-form="medial" 
d="M173 494l-45 40l39 46l47 -39zM281 492l-45 38l39 47l47 -39zM431.5 43c1.66699 -3.33301 2.50098 -7.66797 2.50098 -13.001v-11c0 -5.33301 -0.833008 -9.83301 -2.5 -13.5s-3.83398 -5.5 -6.50098 -5.5h-43c-40 0 -71.667 2.66699 -95 8s-42.333 13.333 -57 24
c-15.333 -8.66699 -39.166 -16.167 -71.499 -22.5s-73.5 -9.5 -123.5 -9.5h-35c-2.66699 0 -5 2 -7 6s-3 8.33301 -3 13v11c0 4.66699 1 8.83398 3 12.501s4.33301 5.5 7 5.5h93c38.667 0 69 4 91 12c-26.667 14.667 -51.334 34.334 -74.001 59.001s-34 47.334 -34 68.001
c0 15.333 8 37.666 24 66.999s36 55.333 60 78s48.333 34 73 34c24 0 46 -9 66 -27s35.833 -43 47.5 -75s17.5 -67.667 17.5 -107c0 -20.667 -6.83301 -37.334 -20.5 -50.001s-37.834 -29 -72.501 -49c18 -6.66699 36 -10 54 -10h100c2.66699 0 4.83398 -1.66699 6.50098 -5
zM146.501 134.998c20.333 -18.667 47.5 -39 81.5 -61l97 64c0.666992 28 -2.5 56 -9.5 84s-17.5 51.167 -31.5 69.5s-31 27.5 -51 27.5c-16.667 0 -34 -8 -52 -24s-33.333 -34.5 -46 -55.5s-19 -36.833 -19 -47.5c0 -19.333 10.167 -38.333 30.5 -57z" />
    <glyph glyph-name="uniFEDA" unicode="&#x643;" horiz-adv-x="840" arabic-form="final" 
d="M846.5 43c1.66699 -3.33301 2.49902 -7.66504 2.49902 -12.998v-11c0 -5.33301 -0.833008 -9.83301 -2.5 -13.5s-3.83398 -5.5 -6.50098 -5.5c-88.667 0 -144.334 20 -167.001 60c-26 -23.333 -61.333 -39.166 -106 -47.499s-96.667 -12.5 -156 -12.5
c-71.333 0 -130.166 4.16699 -176.499 12.5s-82.666 24.166 -108.999 47.499s-39.5 57 -39.5 101c0 14.667 1.33301 29 4 43l26 155l36 -7l-25 -151c-2 -12.667 -3 -24.334 -3 -35.001c0 -48 23.833 -79.667 71.5 -95s113.167 -23 196.5 -23c66.667 0 119.667 3 159 9
s71 16.667 95 32l-22 581l43 10l17 -524c1.33301 -40.667 14 -68.834 38 -84.501s61 -23.5 111 -23.5h7c2.66699 0 4.83398 -1.66699 6.50098 -5zM445.499 321.501c-36.333 -16.333 -86.1699 -24.832 -149.503 -25.499l3 39c36.667 0 69.5 3.16699 98.5 9.5
s51.833 14.166 68.5 23.499l1 15c0 14 -2.83301 23.833 -8.5 29.5s-17.167 10.167 -34.5 13.5c-18.667 4 -37 6.66699 -55 8c-18 2 -29.667 4.5 -35 7.5s-8 10.167 -8 21.5c0 12 4.33301 30.667 13 56s21.334 48.333 38.001 69s36.334 31 59.001 31
c27.333 0 51.666 -16 72.999 -48l-20 -17c-17.333 17.333 -34.333 26 -51 26c-20.667 0 -38.5 -11.333 -53.5 -34s-25.167 -47.334 -30.5 -74.001l22 -3c32.667 -4 56.834 -8 72.501 -12s28 -10.667 37 -20s13.5 -23.666 13.5 -42.999
c0.666992 -32 -17.166 -56.167 -53.499 -72.5z" />
    <glyph glyph-name="uniFEDB" unicode="&#x643;" horiz-adv-x="424" arabic-form="initial" 
d="M218.5 347.5c33.667 -46.333 55.999 -89.501 66.999 -129.501s16.5 -83.333 16.5 -130c0 -28 -27.5 -49.667 -82.5 -65s-128.167 -23 -219.5 -23c-2.66699 0 -5 2 -7 6s-3 8.33301 -3 13v11c0 4.66699 1 8.83398 3 12.501s4.33301 5.5 7 5.5c47.333 0 96.833 3 148.5 9
s89.834 15 114.501 27c0 56.667 -9.16699 107.334 -27.5 152.001s-45 85.667 -80 123s-80.5 76.666 -136.5 117.999v49c95.333 54 200.666 101.333 315.999 142l3 -44c-94.667 -34.667 -186.667 -76 -276 -124c0.666992 0 3.33398 -1.66699 8.00098 -5
c65.333 -52 114.833 -101.167 148.5 -147.5z" />
    <glyph glyph-name="uniFEDC" unicode="&#x643;" horiz-adv-x="466" arabic-form="medial" 
d="M472.5 43c1.66699 -3.33301 2.50098 -7.66895 2.50098 -13.002v-11c0 -5.33301 -0.833008 -9.83301 -2.5 -13.5s-3.83398 -5.5 -6.50098 -5.5h-79c-27.333 0 -49.5 4 -66.5 12s-28.833 22 -35.5 42c-19.333 -18 -53.833 -31.5 -103.5 -40.5s-110.167 -13.5 -181.5 -13.5
c-2.66699 0 -5 2 -7 6s-3 8.33301 -3 13v11c0 4.66699 1 8.83398 3 12.501s4.33301 5.5 7 5.5c47.333 0 96.833 3 148.5 9s89.834 15 114.501 27c0 56.667 -9.16699 107.334 -27.5 152.001s-45 85.667 -80 123s-80.5 76.666 -136.5 117.999v49
c95.333 54 200.666 101.333 315.999 142l3 -44c-94.667 -34.667 -186.667 -76 -276 -124c0.666992 0 3.33398 -1.66699 8.00098 -5c81.333 -65.333 138.666 -125.833 171.999 -181.5s52.666 -112.834 57.999 -171.501c2 -29.333 6.66699 -50.666 14 -63.999
s16.5 -21.666 27.5 -24.999s26.833 -5 47.5 -5h77c2.66699 0 4.83398 -1.66699 6.50098 -5z" />
    <glyph glyph-name="uniFEDE" unicode="&#x644;" horiz-adv-x="743" arabic-form="final" 
d="M749.5 43c1.66699 -3.33301 2.49805 -7.66699 2.49805 -13v-11c0 -5.33301 -0.833008 -9.83301 -2.5 -13.5s-3.83398 -5.5 -6.50098 -5.5h-75c-42.667 0 -72.667 13 -90 39l1 -120c0 -23.333 -11.5 -45 -34.5 -65s-55 -35.833 -96 -47.5s-86.833 -17.5 -137.5 -17.5
c-92 0 -151.833 17.833 -179.5 53.5s-41.5 69.167 -41.5 100.5c0 15.333 4.33301 54.833 13 118.5s17.667 123.834 27 180.501l37 -8c-7.33301 -42.667 -14.666 -89.5 -21.999 -140.5s-12.666 -92.167 -15.999 -123.5c-0.666992 -3.33301 -1 -8.33301 -1 -15
c0 -46.667 18.667 -77.834 56 -93.501s80 -23.5 128 -23.5c39.333 0 81.5 5.16699 126.5 15.5s78.167 27.5 99.5 51.5l-10 765l43 10l6 -530c2 -32 7.16699 -55.333 15.5 -70s19.5 -23.667 33.5 -27s35.667 -5 65 -5h52c2.66699 0 4.83398 -1.66699 6.50098 -5z" />
    <glyph glyph-name="uniFEDF" unicode="&#x644;" horiz-adv-x="354" arabic-form="initial" 
d="M252 635c10.667 -298.667 16 -477 16 -535c0 -24.667 -15.667 -45.334 -47 -62.001c-25.333 -14 -58 -23.833 -98 -29.5s-81 -8.5 -123 -8.5c-2.66699 0 -5 2 -7 6s-3 8.33301 -3 13v11c0 4.66699 1 8.83398 3 12.501s4.33301 5.5 7 5.5c54 0 100 3 138 9
s69.333 17 94 33l-24 580l43 10z" />
    <glyph glyph-name="uniFEE0" unicode="&#x644;" horiz-adv-x="360" arabic-form="medial" 
d="M366.5 43c1.66699 -3.33301 2.5 -7.66797 2.5 -13.001v-11c0 -5.33301 -0.833008 -9.83301 -2.5 -13.5s-3.83398 -5.5 -6.50098 -5.5c-90 0 -148.667 20 -176 60c-25.333 -40 -86.666 -60 -183.999 -60c-2.66699 0 -5 2 -7 6s-3 8.33301 -3 13v11
c0 4.66699 1 8.83398 3 12.501s4.33301 5.5 7 5.5c49.333 0 87.166 3.83301 113.499 11.5s43.833 20.834 52.5 39.501l-20 571l43 10l16 -554c0.666992 -26.667 13.5 -46.334 38.5 -59.001s61.5 -19 109.5 -19h7c2.66699 0 4.83398 -1.66699 6.50098 -5zM173 125.998v-1v1z
" />
    <glyph glyph-name="uniFEE2" unicode="&#x645;" horiz-adv-x="570" arabic-form="final" 
d="M576.5 43c1.66699 -3.33301 2.49902 -7.66602 2.49902 -12.999v-11c0 -5.33301 -0.833008 -9.83301 -2.5 -13.5s-3.83398 -5.5 -6.50098 -5.5c-32.667 0 -57.667 1 -75 3s-31.333 6.33301 -42 13s-19.667 16.667 -27 30l-5 -32c-2 -11.333 -5 -20.833 -9 -28.5
s-10 -15.167 -18 -22.5c-9.33301 -8.66699 -20 -13 -32 -13c-8 0 -16.667 2 -26 6l-202 92c-4.66699 -38 -7 -79.667 -7 -125c0 -54.667 4.33301 -132.667 13 -234l-41 -16c-8.66699 111.333 -13 193.666 -13 246.999c0 72 7 124.667 21 158
c15.333 36.667 40.333 78.5 75 125.5s76.334 70.5 125.001 70.5c38.667 0 67.667 -13 87 -39s31.333 -59.333 36 -100c3.33301 -26.667 9 -46 17 -58s21 -19.833 39 -23.5s46 -5.5 84 -5.5c2.66699 0 4.83398 -1.66699 6.50098 -5zM386.999 35.5
c3.33301 18.333 5.00195 37.167 5.00195 56.5c0 38 -6.83301 70 -20.5 96s-35.167 39 -64.5 39c-32.667 0 -59.834 -11.167 -81.501 -33.5s-45.5 -57.833 -71.5 -106.5l220 -97c5.33301 12 9.66602 27.167 12.999 45.5z" />
    <glyph glyph-name="uniFEE3" unicode="&#x645;" horiz-adv-x="474" arabic-form="initial" 
d="M357.5 222c19 -34.667 28.499 -76.6689 28.499 -126.002c0 -22.667 -1.66699 -44 -5 -64c-3.33301 -20.667 -7.16602 -35.667 -11.499 -45s-10.833 -17.666 -19.5 -24.999c-10.667 -8.66699 -21.334 -13 -32.001 -13c-7.33301 0 -15.666 2 -24.999 6l-182 82
c-20 -24.667 -48.333 -37 -85 -37h-26c-2.66699 0 -5 2 -7 6s-3 8.33301 -3 13v11c0 4.66699 1 8.83398 3 12.501s4.33301 5.5 7 5.5h35c14.667 0 25.667 1.33301 33 4s15.333 10.5 24 23.5s20 35.5 34 67.5c2 4 8.16699 18 18.5 42s26 44.833 47 62.5s44.5 26.5 70.5 26.5
c44.667 0 76.5 -17.333 95.5 -52zM342.999 34.498c3.33301 18.333 5.00098 37.167 5.00098 56.5c0 38.667 -7 71 -21 97s-36.333 39 -67 39c-24.667 0 -45.5 -11.167 -62.5 -33.5s-37.167 -61.833 -60.5 -118.5l193 -86c5.33301 12 9.66602 27.167 12.999 45.5z" />
    <glyph glyph-name="uniFEE4" unicode="&#x645;" horiz-adv-x="527" arabic-form="medial" 
d="M533.5 43c1.66699 -3.33301 2.49902 -7.66895 2.49902 -13.002v-11c0 -5.33301 -0.833008 -9.83301 -2.5 -13.5s-3.83398 -5.5 -6.50098 -5.5c-33.333 0 -58.666 1 -75.999 3s-31.333 6.33301 -42 13s-19.334 17 -26.001 31l-2 -13
c-3.33301 -21.333 -7.16602 -36.666 -11.499 -45.999s-10.833 -18 -19.5 -26c-10.667 -8.66699 -21.334 -13 -32.001 -13c-7.33301 0 -15.666 2 -24.999 6l-182 82c-20 -24.667 -48 -37 -84 -37h-27c-2.66699 0 -5 2 -7 6s-3 8.33301 -3 13v11c0 4.66699 1 8.83398 3 12.501
s4.33301 5.5 7 5.5h35c14.667 0 25.667 1.33301 33 4s15.333 10.5 24 23.5s20 35.5 34 67.5c2 4 8.16699 18 18.5 42s26 44.833 47 62.5s44.5 26.5 70.5 26.5c37.333 0 65.833 -12.5 85.5 -37.5s32.167 -57.5 37.5 -97.5c4 -28.667 10 -49.167 18 -61.5
s20.667 -20.333 38 -24s46 -5.5 86 -5.5c2.66699 0 4.83398 -1.66699 6.50098 -5zM342.999 34.4971c3.33301 18.333 5.00098 37.167 5.00098 56.5c0 38.667 -7 71 -21 97s-36.333 39 -67 39c-24.667 0 -45.5 -11.167 -62.5 -33.5s-37.167 -61.833 -60.5 -118.5l193 -86
c5.33301 12 9.66602 27.167 12.999 45.5z" />
    <glyph glyph-name="uniFEE6" unicode="&#x646;" horiz-adv-x="780" arabic-form="final" 
d="M347 402l-47 41l40 49l49 -42zM786.5 43c1.66699 -3.33301 2.49902 -7.66699 2.49902 -13v-11c0 -5.33301 -0.833008 -9.83301 -2.5 -13.5s-3.83398 -5.5 -6.50098 -5.5h-32c-38.667 -0 -70.667 3.83301 -96 11.5s-43 21.5 -53 41.5l9 -137
c1.33301 -23.333 -9.83398 -44.666 -33.501 -63.999s-58.167 -34.666 -103.5 -45.999s-98.333 -17 -159 -17c-92 0.666992 -152 18.667 -180 54s-42 68.666 -42 99.999c0 16 4.33301 56.667 13 122s17.667 124.333 27 177l37 -8
c-7.33301 -42.667 -14.666 -89.5 -21.999 -140.5s-12.666 -92.167 -15.999 -123.5c-0.666992 -3.33301 -1 -8.33301 -1 -15c0 -46.667 18.833 -77.834 56.5 -93.501s80.5 -23.5 128.5 -23.5c58 0 108 4.66699 150 14s77.667 25.333 107 48l-34 390l44 11l15 -171
c2.66699 -33.333 16.5 -55.333 41.5 -66s60.5 -16 106.5 -16h37c2.66699 0 4.83398 -1.66699 6.50098 -5z" />
    <glyph glyph-name="uniFEE7" unicode="&#x646;" horiz-adv-x="328" arabic-form="initial" 
d="M200 452l-47 41l40 49l49 -42zM229 336l2 -46.001c2.66699 -93.333 4 -157.333 4 -192c0 -23.333 -15.333 -43.333 -46 -60c-46.667 -25.333 -109.667 -38 -189 -38c-2.66699 0 -5 2 -7 6s-3 8.33301 -3 13v11c0 4.66699 1 8.83398 3 12.501s4.33301 5.5 7 5.5
c44 0 82.5 3.16699 115.5 9.5s61.5 17.5 85.5 33.5l-15 234z" />
    <glyph glyph-name="uniFEE8" unicode="&#x646;" horiz-adv-x="324" arabic-form="medial" 
d="M142 440l-47 41l40 49l50 -42zM330.5 43c1.66699 -3.33301 2.50098 -7.66797 2.50098 -13.001v-11c0 -5.33301 -0.833008 -9.83301 -2.5 -13.5s-3.83398 -5.5 -6.50098 -5.5c-90.667 0 -143.667 18 -159 54c-10 -16.667 -30 -29.834 -60 -39.501s-65 -14.5 -105 -14.5
c-2.66699 0 -5 2 -7 6s-3 8.33301 -3 13v11c0 4.66699 1 8.83398 3 12.501s4.33301 5.5 7 5.5c36.667 0 65.667 2.83301 87 8.5s40.666 14.834 57.999 27.501l-15 212l41 2l15 -212c25.333 -25.333 71.333 -38 138 -38c2.66699 0 4.83398 -1.66699 6.50098 -5z" />
    <glyph glyph-name="uniFEEA" unicode="&#x647;" horiz-adv-x="476" arabic-form="final" 
d="M482.5 43c1.66699 -3.33301 2.50098 -7.66797 2.50098 -13.001v-11c0 -5.33301 -0.833008 -9.83301 -2.5 -13.5s-3.83398 -5.5 -6.50098 -5.5h-15c-31.333 0 -59.666 4.83301 -84.999 14.5s-41 28.167 -47 55.5c-6.66699 -14 -22.334 -22.667 -47.001 -26
c-24 -4 -51 -6 -81 -6c-28.667 0 -51 2 -67 6s-27.833 12.333 -35.5 25s-11.5 31.334 -11.5 56.001c0 30.667 9.16699 61.167 27.5 91.5s43.166 55.833 74.499 76.5s66 32.667 104 36l-9 75l43 9l21 -243c4 -38.667 8.33301 -65.5 13 -80.5s14.667 -25.667 30 -32
s41.333 -9.5 78 -9.5h7c2.66699 0 4.83398 -1.66699 6.50098 -5zM316.001 100.998l-17.999 183c-40.667 -4 -74.334 -16.167 -101.001 -36.5s-46 -44.333 -58 -72s-17 -54.167 -15 -79.5c8 -4 17.167 -6.66699 27.5 -8s26.833 -2 49.5 -2c48 0 86.333 5 115 15z" />
    <glyph glyph-name="uniFEEB" unicode="&#x647;" horiz-adv-x="595" arabic-form="initial" 
d="M474.5 228c22.333 -26 33.5 -56.668 33.5 -92.001c0 -27.333 -6.66699 -60 -20 -98c-1.33301 -6 -4.16602 -11.333 -8.49902 -16s-11.166 -10 -20.499 -16c-12.667 -6.66699 -23 -10 -31 -10c-5.33301 0 -10 1 -14 3l-148 53c-12 -21.333 -40.333 -35.333 -85 -42
s-105 -10 -181 -10c-2.66699 0 -5 2 -7 6s-3 8.33301 -3 13v11c0 4.66699 1 8.83398 3 12.501s4.33301 5.5 7 5.5h106c47.333 0 84.666 6 111.999 18c-46.667 9.33301 -82.834 22.666 -108.501 39.999s-38.5 40.333 -38.5 69c0 31.333 7.33301 59.833 22 85.5
s34 52.834 58 81.501l-54 25l18 41l256 -111c46.667 -20 81.167 -43 103.5 -69zM312 273.999l-126 54c-20 -21.333 -37.667 -45 -53 -71s-23 -50.333 -23 -73c0 -20.667 9.5 -36.167 28.5 -46.5s54.167 -21.833 105.5 -34.5zM467 127.999c0 28 -8.16699 52.332 -24.5 72.999
s-46.833 39.667 -91.5 57l-66 -165l159 -57c15.333 26.667 23 57.334 23 92.001z" />
    <glyph glyph-name="uniFEEC" unicode="&#x647;" horiz-adv-x="449" arabic-form="medial" 
d="M455.5 43c1.66699 -3.33301 2.49902 -7.66797 2.49902 -13.001v-11c0 -5.33301 -0.833008 -9.83301 -2.5 -13.5s-3.83398 -5.5 -6.50098 -5.5c-81.333 0 -127.666 1 -138.999 3c27.333 -18 41 -49 41 -93v-40c0 -13.333 -1.16699 -23.833 -3.5 -31.5
s-7.5 -15.5 -15.5 -23.5c-7.33301 -8.66699 -14.5 -14.667 -21.5 -18s-17.833 -5 -32.5 -5c-70.667 0 -119 21.5 -145 64.5s-39.333 90.833 -40 143.5h-93c-2.66699 0 -5 2 -7 6s-3 8.33301 -3 13v11c0 4.66699 1 8.83398 3 12.501s4.33301 5.5 7 5.5h94
c5.33301 42 15.833 83 31.5 123s35.167 72.833 58.5 98.5s48.333 38.5 75 38.5h45l9 -260h136c2.66699 0 4.83398 -1.66699 6.50098 -5zM198.499 225.498c-19.667 -27 -34.999 -58.666 -45.999 -94.999s-16.5 -64.5 -16.5 -84.5h73c18.667 0 32.167 -0.333008 40.5 -1
s15.166 -2.33398 20.499 -5.00098l-6 221c-24 3.33301 -45.833 -8.5 -65.5 -35.5zM289 -28.501c-14.667 19.667 -38.666 29.499 -71.999 29.499h-83c3.33301 -110.667 48.666 -166 135.999 -166c13.333 0 27 1 41 3v67c0 24.667 -7.33301 46.834 -22 66.501z" />
    <glyph glyph-name="uniFEEE" unicode="&#x648;" horiz-adv-x="431" arabic-form="final" 
d="M438 43c2 -3.33301 3 -7.66797 3 -13.001v-11c0 -4.66699 -1 -9 -3 -13s-4.33301 -6 -7 -6h-89c-14.667 -60 -47.834 -111.5 -99.501 -154.5s-108.5 -76.5 -170.5 -100.5l-21 43c66 25.333 120.833 56.166 164.5 92.499s72.834 77.833 87.501 124.5
c-32.667 -4 -71 -6 -115 -6c-31.333 0 -53 1 -65 3c-11.333 2 -19.5 4.5 -24.5 7.5s-10.833 9.16699 -17.5 18.5c-6 8.66699 -9.83301 16.334 -11.5 23.001s-2.5 15.667 -2.5 27c0.666992 28 5.33398 59.5 14.001 94.5s23.5 65.667 44.5 92s48.5 39.5 82.5 39.5
c57.333 0 95.166 -25.667 113.499 -77s27.5 -106.666 27.5 -165.999v-13h82c2.66699 0 5 -1.66699 7 -5zM310 55.998c0 68 -8.50098 118.501 -25.501 151.501s-42.833 49.5 -77.5 49.5c-32.667 0 -58.167 -18.833 -76.5 -56.5s-27.5 -85.834 -27.5 -144.501
c12.667 -6 40.334 -9 83.001 -9c60.667 0 102 3 124 9z" />
    <glyph glyph-name="uniFEF0" unicode="&#x649;" horiz-adv-x="655" arabic-form="final" 
d="M661.5 43c1.66699 -3.33301 2.49805 -7.66797 2.49805 -13.001v-11c0 -5.33301 -0.833008 -9.83301 -2.5 -13.5s-3.83398 -5.5 -6.50098 -5.5l-53 -1c11.333 -13.333 17 -31.666 17 -54.999c0 -118.667 -102.333 -178 -307 -178c-92 0 -152 17.833 -180 53.5
s-42 68.834 -42 99.501c0 16 4.33301 56.667 13 122s17.667 124.666 27 177.999l37 -7c-7.33301 -42.667 -14.666 -89.834 -21.999 -141.501s-12.666 -93.167 -15.999 -124.5c-0.666992 -3.33301 -1 -8.33301 -1 -15c0 -46.667 18.667 -77.667 56 -93s80.333 -23 129 -23
c58.667 0 108.667 4.83301 150 14.5s78 28.834 110 57.501c1.33301 24 2 39 2 45c0 20 -3.33301 34.5 -10 43.5s-19 14.833 -37 17.5s-47 4 -87 4h-51l16 51h249c2.66699 0 4.83398 -1.66699 6.50098 -5z" />
    <glyph glyph-name="uniFEF2" unicode="&#x64a;" horiz-adv-x="655" arabic-form="final" 
d="M661.5 43c1.66699 -3.33301 2.49805 -7.66797 2.49805 -13.001v-11c0 -5.33301 -0.833008 -9.83301 -2.5 -13.5s-3.83398 -5.5 -6.50098 -5.5l-53 -1c11.333 -13.333 17 -31.666 17 -54.999c0 -118.667 -102.333 -178 -307 -178c-92 0 -152 17.833 -180 53.5
s-42 68.834 -42 99.501c0 16 4.33301 56.667 13 122s17.667 124.666 27 177.999l37 -7c-7.33301 -42.667 -14.666 -89.834 -21.999 -141.501s-12.666 -93.167 -15.999 -124.5c-0.666992 -3.33301 -1 -8.33301 -1 -15c0 -46.667 18.667 -77.667 56 -93s80.333 -23 129 -23
c58.667 0 108.667 4.83301 150 14.5s78 28.834 110 57.501c1.33301 24 2 39 2 45c0 20 -3.33301 34.5 -10 43.5s-19 14.833 -37 17.5s-47 4 -87 4h-51l16 51h249c2.66699 0 4.83398 -1.66699 6.50098 -5zM261.998 -354.002l47 -40l-40 -47l-44 39zM369.998 -357.002l48 -40
l-40 -46l-45 38z" />
    <glyph glyph-name="uniFEF3" unicode="&#x64a;" horiz-adv-x="322" arabic-form="initial" 
d="M231 290c2.66699 -93.333 4 -157.334 4 -192.001c0 -23.333 -15.333 -43.333 -46 -60c-46.667 -25.333 -109.667 -38 -189 -38c-2.66699 0 -5 2 -7 6s-3 8.33301 -3 13v11c0 4.66699 1 8.83398 3 12.501s4.33301 5.5 7 5.5c44 0 82.5 3.16699 115.5 9.5
s61.5 17.5 85.5 33.5l-15 234l43 11zM42 -103.001l47 -40l-40 -46l-44 39zM150 -105.001l48 -40l-40 -47l-45 38z" />
    <glyph glyph-name="uniFEF4" unicode="&#x64a;" horiz-adv-x="324" arabic-form="medial" 
d="M330.5 43c1.66699 -3.33301 2.50098 -7.66797 2.50098 -13.001v-11c0 -5.33301 -0.833008 -9.83301 -2.5 -13.5s-3.83398 -5.5 -6.50098 -5.5c-90.667 0 -143.667 18 -159 54c-10 -16.667 -30 -29.834 -60 -39.501s-65 -14.5 -105 -14.5c-2.66699 0 -5 2 -7 6
s-3 8.33301 -3 13v11c0 4.66699 1 8.83398 3 12.501s4.33301 5.5 7 5.5c36.667 0 65.667 2.83301 87 8.5s40.666 14.834 57.999 27.501l-15 212l41 2l15 -212c25.333 -25.333 71.333 -38 138 -38c2.66699 0 4.83398 -1.66699 6.50098 -5zM92.001 -118.002l47 -40l-40 -47
l-45 39zM200.001 -121.002l47 -40l-40 -46l-44 38z" />
    <glyph glyph-name=".notdef" horiz-adv-x="681" 
d="M558 -293h-431v1362h431v-1362zM229 978v-45h88v-51h-90v-45h227v45h-90v51h90v45h-225zM227 802v-142h227v47h-90v95h-137zM317 707h-45v49h45v-49zM227 624v-45h90v-51h-90v-45h137v96h90v45h-227zM409 542v-90h-182v-46h227v136h-45zM317 376v-77h47v32h45v-64h-137
v109h-45v-154h227v154h-137zM227 140v-154h227v154h-227zM409 31h-137v64h137v-64zM227 -45v-45h96l-96 -64v-45h227v45h-139l95 64h44v45h-227z" />
    <glyph glyph-name="space" unicode=" " horiz-adv-x="132" 
 />
    <glyph glyph-name="exclam" unicode="!" horiz-adv-x="223" 
d="M130 152l-42 -6l-17 515l47 19zM78.5 13c-8.33301 9.33301 -12.502 20.333 -12.502 33c0 13.333 4.33301 24.5 13 33.5s19.334 13.5 32.001 13.5c13.333 0 24.5 -4.5 33.5 -13.5s13.5 -20.167 13.5 -33.5c0 -12.667 -4.5 -23.667 -13.5 -33s-20.167 -14 -33.5 -14
s-24.166 4.66699 -32.499 14z" />
    <glyph glyph-name="quotedbl" unicode="&#x22;" horiz-adv-x="413" 
d="M103 498l-12 166l-3 83h70l-2 -83l-12 -166h-41zM268 498l-12 166l-3 83h70l-2 -83l-12 -166h-41z" />
    <glyph glyph-name="numbersign" unicode="#" horiz-adv-x="524" 
d="M127 228h-89v45h95l21 176h-94v48h100l26 205h44l-27 -205h156l28 205h44l-28 -205h88v-48h-92l-21 -176h92v-45h-98l-28 -228h-44l27 228h-155l-28 -228h-45zM333 273l21 176h-154l-22 -176h155z" />
    <glyph glyph-name="dollar" unicode="$" horiz-adv-x="524" 
d="M243 -119l0.00292969 107.003c-33.333 3.33301 -66 12.666 -98 27.999s-60 33.666 -84 54.999l31 44c57.333 -50.667 114.666 -76 171.999 -76c43.333 0 76.166 11.333 98.499 34s33.5 53.334 33.5 92.001c0 30.667 -7 56.834 -21 78.501s-33.333 40.834 -58 57.501
c-20.667 13.333 -45.334 26.666 -74.001 39.999c-30 14 -55.833 29 -77.5 45s-39.5 34.667 -53.5 56c-15.333 22.667 -23 51.667 -23 87c0 46.667 14 85.5 42 116.5s65.333 49.5 112 55.5v108h49v-106c32 -3.33301 59.833 -11.833 83.5 -25.5s46.167 -31.834 67.5 -54.501
l-36 -38c-22.667 22.667 -43.667 39 -63 49s-44 15 -74 15c-35.333 0 -64 -10.667 -86 -32s-33 -49.333 -33 -84c0 -27.333 7 -50.333 21 -69s33.667 -35.334 59 -50.001c24 -14.667 46.667 -25.667 68 -33c55.333 -25.333 95.833 -54.333 121.5 -87
s38.5 -74.334 38.5 -125.001c0 -51.333 -15 -92.833 -45 -124.5s-70.667 -50.167 -122 -55.5v-108h-49z" />
    <glyph glyph-name="percent" unicode="%" horiz-adv-x="874" 
d="M83 368.5c-28 38.333 -42 94.168 -42 167.501c0 72 14 127 42 165s66 57 114 57c46.667 0 84.167 -19 112.5 -57s42.5 -93 42.5 -165c0 -72.667 -14.333 -128.334 -43 -167.001s-66 -58 -112 -58c-48 0 -86 19.167 -114 57.5zM213 -12.998l396 736h49l-396 -736h-49z
M271.5 398.502c19.667 30.333 29.5 76.167 29.5 137.5c0 60 -9.66699 105 -29 135s-44.333 45 -75 45c-31.333 0 -56.666 -14.833 -75.999 -44.5s-29 -74.834 -29 -135.501c0 -61.333 9.66699 -107.166 29 -137.499s44.666 -45.5 75.999 -45.5c30 0 54.833 15.167 74.5 45.5
zM565 44.5029c-28 38.333 -42 94.168 -42 167.501c0 72 14 127 42 165s66 57 114 57c46.667 0 84.167 -19 112.5 -57s42.5 -93 42.5 -165c0 -72.667 -14.333 -128.334 -43 -167.001s-66 -58 -112 -58c-48 0 -86 19.167 -114 57.5zM753 74.5049
c19.333 30.333 29 76.167 29 137.5c0 60 -9.66699 105 -29 135s-44 45 -74 45c-32 0 -57.667 -14.833 -77 -44.5s-29 -74.834 -29 -135.501c0 -61.333 9.66699 -107.166 29 -137.499s45 -45.5 77 -45.5c30 0 54.667 15.167 74 45.5z" />
    <glyph glyph-name="ampersand" unicode="&#x26;" horiz-adv-x="634" 
d="M140 11.5c-32 16.333 -56.999 39.168 -74.999 68.501s-27 63.333 -27 102c0 42 11.833 78 35.5 108s59.5 62.667 107.5 98c-32 66 -48 124.333 -48 175c0 30.667 7 58.167 21 82.5s32.667 43.333 56 57s49 20.5 77 20.5c39.333 0 70.333 -12.333 93 -37
s34 -56.667 34 -96c0 -28 -7 -53.5 -21 -76.5s-31.333 -43.667 -52 -62s-51.334 -43.166 -92.001 -74.499c23.333 -40.667 51.666 -80.334 84.999 -119.001s69.333 -74 108 -106c48.667 66 84.334 140.667 107.001 224h59c-32 -104 -74 -190.667 -126 -260
c46.667 -34.667 92.334 -60.334 137.001 -77.001l-18 -52c-48.667 14.667 -101 42.667 -157 84c-60.667 -56 -126.334 -84 -197.001 -84c-39.333 0 -75 8.16699 -107 24.5zM227.001 424.002c31.333 22.667 55.833 41.501 73.5 56.501s32 31.5 43 49.5s16.5 37.667 16.5 59
c0 24.667 -6.16699 45.167 -18.5 61.5s-30.833 24.5 -55.5 24.5c-29.333 0 -52.833 -10.5 -70.5 -31.5s-26.5 -47.5 -26.5 -79.5c0 -40.667 12.667 -87.334 38 -140.001zM405.001 107.003c-82.667 74 -149.666 152.667 -200.999 236c-33.333 -26 -59 -51.333 -77 -76
s-27 -51.667 -27 -81c0 -30 6.83301 -56 20.5 -78s32.167 -39 55.5 -51s48.666 -18 75.999 -18c51.333 0 102.333 22.667 153 68z" />
    <glyph glyph-name="quotesingle" unicode="'" horiz-adv-x="248" 
d="M103 498l-12 166l-3 83h70l-2 -83l-12 -166h-41z" />
    <glyph glyph-name="parenleft" unicode="(" horiz-adv-x="301" 
d="M232 -192c-46 74 -80.833 151.165 -104.5 231.498s-35.5 167.5 -35.5 261.5c0 93.333 11.833 179.833 35.5 259.5s58.5 157.5 104.5 233.5l35 -13c-41.333 -70 -72.666 -145.667 -93.999 -227s-32 -165.666 -32 -252.999s10.667 -171.666 32 -252.999
s52.666 -157 93.999 -227z" />
    <glyph glyph-name="parenright" unicode=")" horiz-adv-x="301" 
d="M33 -179c42 70 73.667 145.831 95 227.498s32 165.834 32 252.501s-10.667 170.834 -32 252.501s-53 157.5 -95 227.5l36 13c46 -76 80.833 -153.833 104.5 -233.5s35.5 -166.167 35.5 -259.5c0 -94 -11.833 -181.167 -35.5 -261.5s-58.5 -157.5 -104.5 -231.5z" />
    <glyph glyph-name="asterisk" unicode="*" horiz-adv-x="436" 
d="M146 469l-24 17l63 104l-106 44l11 32l112 -28l10 121h27l9 -120l115 27l10 -32l-105 -44l61 -104l-23 -17l-80 95z" />
    <glyph glyph-name="plus" unicode="+" horiz-adv-x="524" 
d="M236 116v216h-199v49h199v216h52v-216h199v-49h-199v-216h-52z" />
    <glyph glyph-name="comma" unicode="," horiz-adv-x="248" 
d="M51 -135c27.333 14 49 32.499 65 55.499s23.667 48.5 23 76.5c-1.33301 -0.666992 -5 -1 -11 -1c-15.333 0 -27.833 4.33301 -37.5 13s-14.5 21.334 -14.5 38.001c0 15.333 5.16699 27.833 15.5 37.5s22.833 14.5 37.5 14.5c18 0 32.667 -8 44 -24s17 -37.333 17 -64
c0 -40.667 -10.833 -76.667 -32.5 -108s-51.167 -57 -88.5 -77z" />
    <glyph glyph-name="hyphen" unicode="-" horiz-adv-x="327" 
d="M43 244v51h242v-51h-242z" />
    <glyph glyph-name="period" unicode="." horiz-adv-x="204" 
d="M68.5 12.5c-8.33301 9 -12.502 19.833 -12.502 32.5c0 13.333 4.33301 24.333 13 33s19.334 13 32.001 13s23.5 -4.33301 32.5 -13s13.5 -19.667 13.5 -33c0 -12.667 -4.5 -23.5 -13.5 -32.5s-19.833 -13.5 -32.5 -13.5c-13.333 0 -24.166 4.5 -32.499 13.5z" />
    <glyph glyph-name="slash" unicode="/" horiz-adv-x="382" 
d="M9 -173l316 940h50l-315 -940h-51z" />
    <glyph glyph-name="zero" unicode="0" horiz-adv-x="524" 
d="M111.5 84c-36.333 59.333 -54.5 147 -54.5 263c0 114.667 18.167 201.5 54.5 260.5s86.833 88.5 151.5 88.5c64 0 113.833 -29.5 149.5 -88.5s53.5 -145.833 53.5 -260.5c0 -115.333 -17.833 -202.833 -53.5 -262.5s-85.5 -89.5 -149.5 -89.5
c-64.667 0 -115.167 29.667 -151.5 89zM377 110.5c27.333 52.333 41 131.167 41 236.5c0 104 -13.5 182 -40.5 234s-65.167 78 -114.5 78s-88 -26 -116 -78s-42 -130 -42 -234s14 -182.5 42 -235.5s66.667 -79.5 116 -79.5c48.667 0 86.667 26.167 114 78.5z" />
    <glyph glyph-name="one" unicode="1" horiz-adv-x="524" 
d="M96 45h161v565h-124v28c58 12.667 101.667 27.667 131 45h41v-638h148v-37h-357v37z" />
    <glyph glyph-name="two" unicode="2" horiz-adv-x="524" 
d="M52 34l154.5 162c37 40 68.167 77 93.5 111c30.667 40.667 52.667 76.334 66 107.001s20 60.667 20 90c0 47.333 -13.333 84.833 -40 112.5s-63.667 41.5 -111 41.5c-55.333 0 -107.333 -28 -156 -84l-28 27c30.667 33.333 61.167 57.5 91.5 72.5s63.5 22.5 99.5 22.5
c58.667 0 105.167 -17 139.5 -51s51.5 -80.333 51.5 -139c0 -30 -6.66699 -61.5 -20 -94.5s-34 -69.167 -62 -108.5c-25.333 -34.667 -54.5 -70.334 -87.5 -107.001l-139.5 -150c48 1.33301 90.667 2 128 2h216v-40h-416v26z" />
    <glyph glyph-name="three" unicode="3" horiz-adv-x="522" 
d="M64 115c26.667 -26 54.167 -46.334 82.5 -61.001s62.833 -22 103.5 -22c48 0 87 14 117 42s45 64.333 45 109c0 104 -78 157.333 -234 160v36c139.333 1.33301 209 51.333 209 150c0 39.333 -12.667 70.666 -38 93.999s-59.333 35 -102 35c-54 0 -105.333 -23 -154 -69
l-25 29c26.667 24.667 54.5 43.834 83.5 57.501s61.5 20.5 97.5 20.5c55.333 0 100.5 -14.333 135.5 -43s52.5 -68.667 52.5 -120c0 -38 -11.333 -71.667 -34 -101s-55 -51.666 -97 -66.999v-4c44.667 -10 81.667 -31.333 111 -64s44 -71 44 -115
c0 -36.667 -9 -69.167 -27 -97.5s-42.833 -50.333 -74.5 -66s-67.5 -23.5 -107.5 -23.5s-78.833 7.66699 -116.5 23s-69.5 37.333 -95.5 66z" />
    <glyph glyph-name="four" unicode="4" horiz-adv-x="524" 
d="M340 207h-315v29l309 447h51v-438h100v-38h-100v-199h-45v199zM340 245v241.001l1 93c0 19.333 -0.333008 32.333 -1 39h-7c-6.66699 -12.667 -18 -30.334 -34 -53.001s-25 -36 -27 -40l-197 -280h265z" />
    <glyph glyph-name="five" unicode="5" horiz-adv-x="524" 
d="M132 17.5c-38 15 -70.002 35.834 -96.002 62.501l26 30c22.667 -24 48.5 -43 77.5 -57s63.833 -21 104.5 -21c32.667 0 62.167 8 88.5 24s46.833 38.167 61.5 66.5s22 59.5 22 93.5c0 54 -15.167 96.833 -45.5 128.5s-71.5 47.5 -123.5 47.5
c-22.667 0 -43.167 -3.5 -61.5 -10.5s-39.166 -17.833 -62.499 -32.5l-31 20l24 314h313v-40h-271l-24 -253c24 12.667 45.333 22.167 64 28.5s39.334 9.5 62.001 9.5c65.333 0 115.833 -18.5 151.5 -55.5s53.5 -88.833 53.5 -155.5
c0 -42.667 -9.66699 -80.834 -29 -114.501s-45.5 -60 -78.5 -79s-69.833 -28.5 -110.5 -28.5c-38.667 0 -77 7.5 -115 22.5z" />
    <glyph glyph-name="six" unicode="6" horiz-adv-x="524" 
d="M128 597c44 66 104.996 99.002 182.996 99.002c28 0 53.833 -4.83301 77.5 -14.5s45.834 -25.834 66.501 -48.501l-27 -30c-33.333 36 -72 54 -116 54c-43.333 0 -80.666 -13.5 -111.999 -40.5s-54.833 -66.333 -70.5 -118s-22.167 -113.167 -19.5 -184.5
c22.667 28.667 49.834 52 81.501 70s62.834 27 93.501 27c60.667 0 107 -17.667 139 -53s48 -86.333 48 -153c0 -38.667 -8.16699 -74 -24.5 -106s-38.833 -57.333 -67.5 -76s-60.667 -28 -96 -28c-44 0 -82.667 12.667 -116 38s-59.333 62.166 -78 110.499
s-28 105.833 -28 172.5c0 121.333 22 215 66 281zM163.996 92.502c30 -41 70.333 -61.501 121 -61.501c26.667 0 50.667 7.83301 72 23.5s38 36.667 50 63s18 55.5 18 87.5c0 54 -12.667 95.833 -38 125.5s-62.333 44.5 -111 44.5c-30 0 -59.5 -9.16699 -88.5 -27.5
s-54.5 -43.166 -76.5 -74.499c5.33301 -79.333 23 -139.5 53 -180.5z" />
    <glyph glyph-name="seven" unicode="7" horiz-adv-x="524" 
d="M261.5 346c32.333 95.333 84.833 194.334 157.5 297.001h-364v40h416v-29c-52.667 -68.667 -93.667 -134.834 -123 -198.501s-50.833 -130.5 -64.5 -200.5s-22.5 -152.333 -26.5 -247h-51c4.66699 130 23.167 242.667 55.5 338z" />
    <glyph glyph-name="eight" unicode="8" horiz-adv-x="522" 
d="M155 18.5c-32.667 15.667 -58.165 37.3301 -76.498 64.9971s-27.5 58.5 -27.5 92.5c0 37.333 12.167 73.833 36.5 109.5s57.166 62.834 98.499 81.501v6c-65.333 44.667 -98 97.334 -98 158.001c0 30.667 7.66699 58.5 23 83.5s36.666 44.833 63.999 59.5s58 22 92 22
c56 0 100.333 -15.833 133 -47.5s49 -74.167 49 -127.5c0 -29.333 -9 -60 -27 -92s-41.333 -58.667 -70 -80v-6c42.667 -24 73.334 -50.333 92.001 -79s28 -60.667 28 -96c0 -32 -8.83301 -61.167 -26.5 -87.5s-42.167 -47.166 -73.5 -62.499s-67 -23 -107 -23
c-40.667 0 -77.334 7.83301 -110.001 23.5zM406.002 518.996c0 43.333 -12.834 78.001 -38.501 104.001s-59.834 39 -102.501 39c-39.333 0 -71.166 -12.333 -95.499 -37s-36.5 -56 -36.5 -94c0 -41.333 15.333 -74.833 46 -100.5s76.334 -49.834 137.001 -72.501
c60 50 90 103.667 90 161zM381.001 68.4971c29.333 26.333 44.002 60.5 44.002 102.5c0 30 -7.33301 55 -22 75s-33.667 36.333 -57 49s-56 27.667 -98 45l-34 15c-79.333 -48.667 -119 -106.334 -119 -173.001c0 -27.333 7.5 -52.666 22.5 -75.999s35.667 -42 62 -56
s55.166 -21 86.499 -21c47.333 0 85.666 13.167 114.999 39.5z" />
    <glyph glyph-name="nine" unicode="9" horiz-adv-x="524" 
d="M78 591.5c16.667 32.333 39.168 57.834 67.501 76.501s59.5 28 93.5 28c69.333 0 123.666 -27.5 162.999 -82.5s59 -134.5 59 -238.5c0 -121.333 -22 -215 -66 -281s-105 -99 -183 -99c-60 0 -108 20.333 -144 61l27 31c34.667 -36.667 73.334 -55 116.001 -55
c43.333 0 80.666 13.667 111.999 41s55 67 71 119s23 114 21 186c-15.333 -28.667 -40.333 -52.334 -75 -71.001s-68.667 -28 -102 -28c-59.333 0 -105 17.5 -137 52.5s-48 86.167 -48 153.5c0 38.667 8.33301 74.167 25 106.5zM135.501 358.501
c25 -29.667 62.167 -44.499 111.5 -44.499c30.667 0 60.334 9.5 89.001 28.5s54.667 45.5 78 79.5c-5.33301 76 -22.833 134.5 -52.5 175.5s-70.834 61.5 -123.501 61.5c-27.333 0 -51.5 -7.83301 -72.5 -23.5s-37.5 -36.667 -49.5 -63s-18 -55.5 -18 -87.5
c0 -54.667 12.5 -96.834 37.5 -126.501z" />
    <glyph glyph-name="colon" unicode=":" horiz-adv-x="276" 
d="M69 218.5c-8.66699 9 -13 19.833 -13 32.5c0 13.333 4.5 24.5 13.5 33.5s19.833 13.5 32.5 13.5c13.333 0 24.333 -4.5 33 -13.5s13 -20.167 13 -33.5c0 -12.667 -4.33301 -23.5 -13 -32.5s-19.667 -13.5 -33 -13.5s-24.333 4.5 -33 13.5zM69 13
c-8.66699 9.33301 -13 20.333 -13 33s4.5 23.5 13.5 32.5s19.833 13.5 32.5 13.5c13.333 0 24.333 -4.33301 33 -13s13 -19.667 13 -33c0 -12.667 -4.33301 -23.667 -13 -33s-19.667 -14 -33 -14s-24.333 4.66699 -33 14z" />
    <glyph glyph-name="semicolon" unicode=";" horiz-adv-x="241" 
d="M87 417.5c-8.66699 9 -13 20.167 -13 33.5s4.5 24.5 13.5 33.5s19.833 13.5 32.5 13.5c13.333 0 24.5 -4.5 33.5 -13.5s13.5 -20.167 13.5 -33.5s-4.5 -24.5 -13.5 -33.5s-20.167 -13.5 -33.5 -13.5s-24.333 4.5 -33 13.5zM51 -135c27.333 14 49 32.499 65 55.499
s23.667 48.5 23 76.5c-1.33301 -0.666992 -5 -1 -11 -1c-15.333 0 -27.833 4.33301 -37.5 13s-14.5 21.334 -14.5 38.001c0 15.333 5.16699 27.833 15.5 37.5s22.833 14.5 37.5 14.5c18 0 32.667 -8 44 -24s17 -37.333 17 -64c0 -40.667 -10.833 -76.667 -32.5 -108
s-51.167 -57 -88.5 -77z" />
    <glyph glyph-name="less" unicode="&#x3c;" horiz-adv-x="524" 
d="M487 152l-450 179v56l450 178v-57l-387 -147v-5l387 -147v-57z" />
    <glyph glyph-name="equal" unicode="=" horiz-adv-x="524" 
d="M37 443v50h450v-50h-450zM37 221v50h450v-50h-450z" />
    <glyph glyph-name="greater" unicode="&#x3e;" horiz-adv-x="524" 
d="M37 152v57l387 147v5l-387 147v57l450 -178v-56z" />
    <glyph glyph-name="question" unicode="?" horiz-adv-x="444" 
d="M176 200c-2 11.333 -3.00195 22.333 -3.00195 33c0 56 23.333 112 70 168c30 36 51.667 65.667 65 89s20 48.333 20 75c0 33.333 -10.167 61.5 -30.5 84.5s-49.166 34.5 -86.499 34.5c-25.333 0 -49.666 -6 -72.999 -18s-43.666 -28.667 -60.999 -50l-37 34
c52 58 111.667 87 179 87c51.333 0 92.5 -15.333 123.5 -46s46.5 -71.667 46.5 -123c0 -28 -7.33301 -56 -22 -84s-36.334 -59.333 -65.001 -94c-24.667 -31.333 -43.167 -59.5 -55.5 -84.5s-18.5 -51.5 -18.5 -79.5c0 -5.33301 0.666992 -14 2 -26h-54zM168.998 2
c-10 10 -15.001 23 -15.001 39c0 18 4.83301 32.167 14.5 42.5s21.834 15.5 36.501 15.5c15.333 0 28 -5.16699 38 -15.5s15 -24.5 15 -42.5c0 -16 -5.16699 -29 -15.5 -39s-22.833 -15 -37.5 -15c-14 0 -26 5 -36 15z" />
    <glyph glyph-name="at" unicode="@" horiz-adv-x="892" 
d="M278 -135c-44.667 16.667 -83.002 41.333 -115.002 74c-34.667 32 -61.167 71.667 -79.5 119s-27.5 100.666 -27.5 159.999c0 69.333 11.5 133.166 34.5 191.499s55.167 108.5 96.5 150.5c40.667 40.667 87.167 72.334 139.5 95.001s107.5 34 165.5 34
c52.667 0 100.167 -8.16699 142.5 -24.5s78.833 -40.166 109.5 -71.499c30 -30 52.833 -66.5 68.5 -109.5s23.5 -90.5 23.5 -142.5c0 -44.667 -6 -84.834 -18 -120.501s-28.667 -65.834 -50 -90.501c-19.333 -23.333 -41.166 -41.333 -65.499 -54s-48.166 -19 -71.499 -19
c-30 0 -54.5 6.83301 -73.5 20.5s-29.833 34.167 -32.5 61.5h-2c-20.667 -22.667 -42.334 -40.667 -65.001 -54s-45.334 -20 -68.001 -20c-36 0 -65.667 12.833 -89 38.5s-35 62.5 -35 110.5c0 27.333 4.66699 55.833 14 85.5s22.333 56.167 39 79.5
c18.667 24.667 40.667 44.167 66 58.5s53.333 21.5 84 21.5c37.333 0 66.666 -17 87.999 -51h2l10 42h46l-40 -207c-6.66699 -24 -10 -45.667 -10 -65c0 -49.333 24 -74 72 -74c18 0 35.833 5.16699 53.5 15.5s33.834 25.5 48.501 45.5
c15.333 20.667 27.333 45.834 36 75.501s13 62.167 13 97.5c0 45.333 -6.66699 86.833 -20 124.5s-33 69.5 -59 95.5c-26.667 27.333 -58.667 48.333 -96 63s-79.333 22 -126 22c-49.333 0 -97.166 -10 -143.499 -30s-86.833 -48.333 -121.5 -85
c-36.667 -38 -65.334 -83 -86.001 -135s-31 -109.333 -31 -172c0 -51.333 7.83301 -97.833 23.5 -139.5s37.834 -77.167 66.501 -106.5s63.167 -51.666 103.5 -66.999s83.833 -23 130.5 -23c65.333 0 125 17 179 51l19 -40c-59.333 -37.333 -126.666 -56 -201.999 -56
c-53.333 0 -102.333 8.33301 -147 25zM511.998 179.999l32 182c-11.333 18.667 -22.666 31.667 -33.999 39s-25.333 11 -42 11c-43.333 0 -80 -21.333 -110 -64c-12.667 -18.667 -22.334 -39.5 -29.001 -62.5s-10 -45.833 -10 -68.5c0 -36 7.66699 -62.667 23 -80
s35 -26 59 -26c32 0 69 23 111 69z" />
    <glyph glyph-name="A" unicode="A" horiz-adv-x="569" 
d="M260 703h56l242 -695h-52l-77 234h-285l-78 -234h-49zM415 280l-41.999 134c-8 22 -21.667 62.667 -41 122c-14.667 49.333 -29 91 -43 125h-6c-2 -6 -3.83301 -11.167 -5.5 -15.5s-3.16699 -8.5 -4.5 -12.5c-14.667 -40.667 -25.334 -73 -32.001 -97l-40 -123l-42 -133
h256z" />
    <glyph glyph-name="B" unicode="B" horiz-adv-x="628" 
d="M110 703l192 -0.000976562c70 0 125.667 -13.167 167 -39.5s62 -67.833 62 -124.5c0 -39.333 -9.66699 -72.666 -29 -99.999s-45.666 -46 -78.999 -56v-6c48.667 -6.66699 86.167 -25 112.5 -55s39.5 -68.333 39.5 -115c0 -66.667 -23.833 -116.5 -71.5 -149.5
s-110.834 -49.5 -189.501 -49.5h-204v695zM282 393.999c65.333 0 115.167 11.5 149.5 34.5s51.5 57.167 51.5 102.5c0 46 -15.667 80 -47 102s-81 33 -149 33h-128v-272h123zM301.001 44.999c73.333 0 129.167 13.833 167.5 41.5s57.5 68.167 57.5 121.5
c0 100 -75 150 -225 150h-142v-313h142z" />
    <glyph glyph-name="C" unicode="C" horiz-adv-x="612" 
d="M203 42.5c-44.667 31.667 -78.6641 75.002 -101.997 130.002s-35 116.5 -35 184.5c0 68.667 12 130.167 36 184.5s58.667 97 104 128s98.666 46.5 159.999 46.5c33.333 0 65.333 -6.66699 96 -20s57.667 -33 81 -59l-24 -32c-43.333 46 -94.333 69 -153 69
c-54 0 -99.667 -13.667 -137 -41s-65.333 -64.833 -84 -112.5s-28 -101.834 -28 -162.501s9.16699 -115.334 27.5 -164.001s46 -87.167 83 -115.5s82.167 -42.5 135.5 -42.5c33.333 0 63.666 6.33301 90.999 19s55 33.667 83 63l26 -29
c-28 -31.333 -58.667 -54.833 -92 -70.5s-70 -23.5 -110 -23.5c-60.667 0 -113.334 15.833 -158.001 47.5z" />
    <glyph glyph-name="D" unicode="D" horiz-adv-x="656" 
d="M110 8v694.999h161c104 0 183.5 -29.667 238.5 -89s82.5 -144.666 82.5 -255.999c0 -110.667 -27.5 -196.667 -82.5 -258s-133.5 -92 -235.5 -92h-164zM159 44.999h107c87.333 0 154.833 27 202.5 81s71.5 131.333 71.5 232c0 100 -23.5 176.167 -70.5 228.5
s-114.833 78.5 -203.5 78.5h-107v-620z" />
    <glyph glyph-name="E" unicode="E" horiz-adv-x="560" 
d="M110 703h381v-39h-332v-268h280v-41h-280v-307h343v-40h-392v695z" />
    <glyph glyph-name="F" unicode="F" horiz-adv-x="521" 
d="M110 703h380v-39h-331v-284h279v-38h-279v-334h-49v695z" />
    <glyph glyph-name="G" unicode="G" horiz-adv-x="657" 
d="M103 542.5c24.667 54.333 60.501 96.834 107.501 127.501s102.5 46 166.5 46c36.667 0 70.334 -6.16699 101.001 -18.5s59.334 -32.5 86.001 -60.5l-26 -32c-24 24 -48.833 41.5 -74.5 52.5s-54.167 16.5 -85.5 16.5c-56.667 0 -104.5 -14 -143.5 -42
s-68.333 -65.833 -88 -113.5s-29.5 -101.167 -29.5 -160.5c0 -61.333 9.66699 -116.333 29 -165s48.333 -87 87 -115s86 -42 142 -42c29.333 0 57.833 5 85.5 15s50.5 23 68.5 39v220h-163v39h208v-278c-24.667 -24.667 -54.834 -43.5 -90.501 -56.5
s-73.834 -19.5 -114.501 -19.5c-63.333 0 -117.833 15.5 -163.5 46.5s-80.334 74 -104.001 129s-35.5 117.167 -35.5 186.5s12.333 131.166 37 185.499z" />
    <glyph glyph-name="H" unicode="H" horiz-adv-x="695" 
d="M110 703h49v-307h377v307h50v-695h-50v348h-377v-348h-49v695z" />
    <glyph glyph-name="I" unicode="I" horiz-adv-x="269" 
d="M110 8v695h49v-695h-49z" />
    <glyph glyph-name="J" unicode="J" horiz-adv-x="506" 
d="M121.5 19.5c-29.667 16.333 -53.8311 40.499 -72.498 72.499l38 25c15.333 -27.333 33.666 -47.666 54.999 -60.999s47 -20 77 -20c44.667 0 77.5 13.833 98.5 41.5s31.5 70.5 31.5 128.5v497h51v-504c0 -29.333 -3.5 -56.5 -10.5 -81.5s-16.833 -46.5 -29.5 -64.5
c-30.667 -38.667 -76.334 -58 -137.001 -58c-38 0 -71.833 8.16699 -101.5 24.5z" />
    <glyph glyph-name="K" unicode="K" horiz-adv-x="610" 
d="M110 8v695h49l-1 -391h6l335 391h55l-218 -258l254 -437h-57l-229 399l-145 -166v-233h-49z" />
    <glyph glyph-name="L" unicode="L" horiz-adv-x="512" 
d="M110 8v695h49v-655h322v-40h-371z" />
    <glyph glyph-name="M" unicode="M" horiz-adv-x="770" 
d="M110 703h70l143 -399l31 -83l29 -77h7l29 79l20 54l9 27l141 399h72v-695h-47v433c0 20 0.666992 55.333 2 106l1 98h-6l-205 -563h-40l-209 563h-6c1.33301 -33.333 2 -61 2 -83l-1 -121v-433h-42v695z" />
    <glyph glyph-name="N" unicode="N" horiz-adv-x="691" 
d="M110 8v695h56l246 -418l123 -207h6c-1.33301 21.333 -2.5 54.5 -3.5 99.5s-1.5 85.5 -1.5 121.5v404h45v-695h-55l-222 371l-149 253h-5c4 -60 6 -132 6 -216v-408h-46z" />
    <glyph glyph-name="O" unicode="O" horiz-adv-x="708" 
d="M199 43c-43.333 32 -76.333 75.5 -99 130.5s-34 116.5 -34 184.5s11 129 33 183s54.833 96.667 98.5 128s96.167 47 157.5 47c60.667 0 112.667 -15.5 156 -46.5s76.333 -73.5 99 -127.5s34 -115.333 34 -184c0 -69.333 -11.5 -131.5 -34.5 -186.5
s-56.167 -98.167 -99.5 -129.5s-95 -47 -155 -47c-60.667 0 -112.667 16 -156 48zM485.5 80.5c35.667 29.667 62.167 69 79.5 118s26 102.167 26 159.5c0 58.667 -9 112 -27 160s-44.833 86 -80.5 114s-78.5 42 -128.5 42c-51.333 0 -94.833 -14.333 -130.5 -43
s-62.5 -67 -80.5 -115s-27 -100.667 -27 -158c0 -58 9 -111.5 27 -160.5s45 -88.167 81 -117.5s79.333 -44 130 -44c51.333 0 94.833 14.833 130.5 44.5z" />
    <glyph glyph-name="P" unicode="P" horiz-adv-x="599" 
d="M110 703h180.001c84 0 147.167 -15.167 189.5 -45.5s63.5 -79.833 63.5 -148.5c0 -69.333 -22.333 -120.833 -67 -154.5s-105.334 -50.5 -182.001 -50.5h-135v-296h-49v695zM283.001 343c71.333 0 124 13.5 158 40.5s51 68.833 51 125.5c0 54.667 -16.667 94.5 -50 119.5
s-88 37.5 -164 37.5h-119v-323h124z" />
    <glyph glyph-name="Q" unicode="Q" horiz-adv-x="708" 
d="M99 541c22 54 54.833 96.6689 98.5 128.002s96.167 47 157.5 47c60.667 0 112.667 -15.5 156 -46.5s76.333 -73.5 99 -127.5s34 -115.333 34 -184c0 -63.333 -10 -121.5 -30 -174.5s-49.667 -96.333 -89 -130s-87.333 -53.834 -144 -60.501c16 -37.333 40 -66 72 -86
s71.667 -30 119 -30c25.333 0 48 2.66699 68 8l10 -39c-25.333 -6.66699 -53.333 -10 -84 -10c-57.333 0 -106.833 14 -148.5 42s-71.834 67.333 -90.501 118c-55.333 4 -102.666 22.833 -141.999 56.5s-69 77.167 -89 130.5s-30 111.666 -30 174.999c0 68 11 129 33 183z
M114 353.002c0 -58 9.16797 -111.33 27.501 -159.997s46 -87.834 83 -117.501s82.167 -44.5 135.5 -44.5c50.667 0 93.667 15.167 129 45.5s62 70.666 80 120.999s27 105.5 27 165.5c0 59.333 -9.66699 112.666 -29 159.999s-47.833 84.833 -85.5 112.5
s-82.834 41.5 -135.501 41.5c-69.333 0 -123.833 -27.667 -163.5 -83s-62.167 -126.333 -67.5 -213c-0.666992 -6 -1 -15.333 -1 -28z" />
    <glyph glyph-name="R" unicode="R" horiz-adv-x="596" 
d="M110 703l201.001 -0.000976562c155.333 0 233 -61.333 233 -184c0 -52.667 -14.833 -95.667 -44.5 -129s-73.834 -55.666 -132.501 -66.999l186 -315h-56l-183 316h-155v-316h-49v695zM299.001 362.999c64 0 112.499 13.168 145.499 39.501s49.5 65.166 49.5 116.499
c0 50 -15.667 87 -47 111s-80.666 36 -147.999 36h-140v-303h140z" />
    <glyph glyph-name="S" unicode="S" horiz-adv-x="567" 
d="M162 20.5c-40 17 -74.6699 41.165 -104.003 72.498l30 35c28 -30 59.833 -52.833 95.5 -68.5s71.834 -23.5 108.501 -23.5c52.667 0 94.834 12.833 126.501 38.5s47.5 60.167 47.5 103.5c0 28 -5.5 50.667 -16.5 68s-24.5 30.833 -40.5 40.5s-43 23.834 -81 42.501
l-63 28l-32 14c-46 18.667 -80.833 41.834 -104.5 69.501s-35.5 61.834 -35.5 102.501c0 34 9.16699 64.167 27.5 90.5s43 46.666 74 60.999s65.167 21.5 102.5 21.5c36.667 0 71.667 -7 105 -21s62.333 -33.333 87 -58l-25 -32c-46 46 -101.667 69 -167 69
c-46.667 0 -84.167 -11.333 -112.5 -34s-42.5 -53.334 -42.5 -92.001c0 -34 11.333 -61.667 34 -83s56.334 -41.333 101.001 -60l95 -41c48 -19.333 84 -43.5 108 -72.5s36 -65.167 36 -108.5c0 -38 -9.83301 -71.167 -29.5 -99.5s-46.5 -50.166 -80.5 -65.499
s-72 -23 -114 -23c-46.667 0 -90 8.5 -130 25.5z" />
    <glyph glyph-name="T" unicode="T" horiz-adv-x="570" 
d="M260 8v656h-221v39h493v-39h-222v-656h-50z" />
    <glyph glyph-name="U" unicode="U" horiz-adv-x="688" 
d="M163.5 72c-37.667 51.333 -56.501 120.668 -56.501 208.001v423h49v-420c0 -75.333 15.5 -135.333 46.5 -180s78.5 -67 142.5 -67c66.667 0 115.167 22.5 145.5 67.5s45.5 104.833 45.5 179.5v420h46v-423c0 -88.667 -19.167 -158.334 -57.5 -209.001
s-98.166 -76 -179.499 -76c-83.333 0 -143.833 25.667 -181.5 77z" />
    <glyph glyph-name="V" unicode="V" horiz-adv-x="539" 
d="M65 703l108.999 -349l94 -292h6l19 56c52.667 164 76.334 238 71.001 222l114 363h48l-225 -695h-60l-228 695h52z" />
    <glyph glyph-name="W" unicode="W" horiz-adv-x="838" 
d="M37 703h51.999l77 -364l39 -189l18 -86h7c6.66699 24.667 18.334 71.334 35.001 140.001l33 130l96 369h51l96 -364l71 -275h7c7.33301 37.333 17 83.666 29 138.999l28 139l76 361h47l-153 -695h-61l-88 341l-75 286h-6l-50 -195l-24 -92l-89 -340h-61z" />
    <glyph glyph-name="X" unicode="X" horiz-adv-x="532" 
d="M236 368l-192 335h56l110 -196l33 -59l25 -44h5l57 102l107 197h52l-193 -338l206 -357h-55l-116 204l-34 62c-18.667 34 -28.667 52.667 -30 56h-7c-3.33301 -8 -11.333 -22.667 -24 -44l-41 -74l-114 -204h-52z" />
    <glyph glyph-name="Y" unicode="Y" horiz-adv-x="493" 
d="M222 283l-209.999 420h52l101 -210c32 -67.333 58.333 -120 79 -158h6c29.333 51.333 56.666 104 81.999 158l100 210h50l-210 -420v-275h-50v275z" />
    <glyph glyph-name="Z" unicode="Z" horiz-adv-x="581" 
d="M60 37l401 627h-366v39h427v-28l-403 -627h406v-40h-465v29z" />
    <glyph glyph-name="bracketleft" unicode="[" horiz-adv-x="310" 
d="M105 -164v929h180v-38h-133v-853h133v-38h-180z" />
    <glyph glyph-name="backslash" unicode="\" horiz-adv-x="382" 
d="M-4 767l46 -1l314 -939h-46z" />
    <glyph glyph-name="bracketright" unicode="]" horiz-adv-x="310" 
d="M27 -164v38h131v853h-131v38h179v-929h-179z" />
    <glyph glyph-name="asciicircum" unicode="^" horiz-adv-x="524" 
d="M69 311l163 413h60l163 -413h-58l-77 210l-55 142h-4l-57 -142l-77 -210h-58z" />
    <glyph glyph-name="underscore" unicode="_" horiz-adv-x="540" 
d="M13 -130v48h514v-48h-514z" />
    <glyph glyph-name="a" unicode="a" horiz-adv-x="534" 
d="M106.5 31c-25.667 24 -38.499 57.333 -38.499 100c0 37.333 11.167 68.5 33.5 93.5s57.333 45.333 105 61s111.167 27.834 190.5 36.501c0.666992 54.667 -9.5 96 -30.5 124s-52.167 42 -93.5 42c-53.333 0 -107 -19 -161 -57l-18 33c62 41.333 124.667 62 188 62
c54.667 0 95.667 -16.833 123 -50.5s41 -82.834 41 -147.501v-320h-37l-7 65l-5 -1c-62 -51.333 -123.667 -77 -185 -77c-44.667 0 -79.834 12 -105.501 36zM309.001 52c26.667 13.333 56 34.001 88 62.001l1 177c-58 -7.33301 -107 -16.333 -147 -27
s-72.667 -26.334 -98 -47.001s-38 -48 -38 -82c0 -32.667 9.66699 -58 29 -76s46.666 -27 81.999 -27c28.667 0 56.334 6.66699 83.001 20z" />
    <glyph glyph-name="b" unicode="b" horiz-adv-x="583" 
d="M103 767h48v-212l-3 -115c26 26 54.5 46.833 85.5 62.5s62.833 23.5 95.5 23.5c68.667 0 119.167 -23.5 151.5 -70.5s48.5 -109.5 48.5 -187.5c0 -52 -9 -98.667 -27 -140s-43.667 -73.833 -77 -97.5s-72 -35.5 -116 -35.5c-24 0 -50.5 5.83301 -79.5 17.5
s-55.167 27.5 -78.5 47.5h-5l-5 -52h-38v759zM151 100c24 -20.667 49.334 -37 76.001 -49s52 -18 76 -18c37.333 0 69.166 10.833 95.499 32.5s46.333 50.5 60 86.5s20.5 74.667 20.5 116c0 68.667 -13 122.5 -39 161.5s-67.333 58.5 -124 58.5c-50 0 -105 -28 -165 -84
v-304z" />
    <glyph glyph-name="c" unicode="c" horiz-adv-x="488" 
d="M169.5 29c-35 22.667 -61.8369 54.002 -80.5039 94.002s-28 85.333 -28 136c0 51.333 9.83301 97.166 29.5 137.499s47.334 72 83.001 95s76.834 34.5 123.501 34.5c26.667 0 51.334 -4.33301 74.001 -13s45.334 -23.334 68.001 -44.001l-26 -30
c-19.333 17.333 -38.333 30 -57 38s-38.334 12 -59.001 12c-37.333 0 -70.166 -10.5 -98.499 -31.5s-50 -49.167 -65 -84.5s-22.5 -73.333 -22.5 -114c0 -42 7.66699 -80.333 23 -115s37 -62 65 -82s60.333 -30 97 -30c44 0 88.333 18.333 133 55l20 -30
c-46.667 -41.333 -98.667 -62 -156 -62c-47.333 0 -88.5 11.333 -123.5 34z" />
    <glyph glyph-name="d" unicode="d" horiz-adv-x="592" 
d="M90.5 396c19.667 40.667 46.5 72.5 80.5 95.5s71.667 34.5 113 34.5c30 0 57.167 -5.5 81.5 -16.5s50.833 -28.5 79.5 -52.5l-4 136v174h48v-759h-37l-7 64h-5c-28 -25.333 -56.667 -44.5 -86 -57.5s-57 -19.5 -83 -19.5c-66 0 -117.5 22.667 -154.5 68
s-55.5 110.666 -55.5 195.999c0 50.667 9.83301 96.334 29.5 137.001zM156 94c30 -40.667 71.667 -61 125 -61c28 0 55 7 81 21s52.333 35.667 79 65v302c-48.667 44.667 -98.667 67 -150 67c-34 0 -64.667 -10.333 -92 -31s-48.833 -48.5 -64.5 -83.5
s-23.5 -73.167 -23.5 -114.5c0 -69.333 15 -124.333 45 -165z" />
    <glyph glyph-name="e" unicode="e" horiz-adv-x="526" 
d="M174 29.5c-36 23 -63.832 54.5 -83.499 94.5s-29.5 85 -29.5 135c0 48 9.5 92.5 28.5 133.5s45.333 73.5 79 97.5s71.5 36 113.5 36c64.667 0 113.5 -21.5 146.5 -64.5s49.5 -99.5 49.5 -169.5c0 -4 0.166992 -9 0.5 -15s0.166016 -13.333 -0.500977 -22h-369
c0.666992 -66.667 18.667 -120.5 54 -161.5s82.333 -61.5 141 -61.5c24.667 0 47.667 3.16699 69 9.5s43.333 16.5 66 30.5l17 -31c-26 -14.667 -50.833 -26 -74.5 -34s-51.5 -12 -83.5 -12c-46.667 0 -88 11.5 -124 34.5zM436.001 289
c0.666992 64.667 -12.168 114.333 -38.501 149s-64.166 52 -113.499 52c-34 0 -64 -9.16699 -90 -27.5s-46.333 -42.833 -61 -73.5s-23 -64 -25 -100h328z" />
    <glyph glyph-name="f" unicode="f" horiz-adv-x="295" 
d="M113 475h-71.001v34l71 5v111c0 51.333 10.833 90 32.5 116s53.834 39 96.501 39c24.667 0 48.667 -5 72 -15l-12 -34c-17.333 7.33301 -36 11 -56 11c-28 0 -49.333 -10.167 -64 -30.5s-22 -49.833 -22 -88.5v-110h117v-38h-117v-467h-47v467z" />
    <glyph glyph-name="g" unicode="g" horiz-adv-x="530" 
d="M118.5 -204.5c-39 23.667 -58.5039 57.5 -58.5039 101.5c0 20 6.66699 40.167 20 60.5s32.333 39.833 57 58.5v6c-14 7.33301 -25 18.833 -33 34.5s-12 32.5 -12 50.5c0 20.667 5.83301 39.834 17.5 57.501s24.5 30.834 38.5 39.501v6c-44 40 -66 86.333 -66 139
c0 34 7.83301 64.333 23.5 91s37.334 47.667 65.001 63s58.5 23 92.5 23c28.667 0 51.667 -4.33301 69 -13h172v-35h-128c20 -14 35.833 -32.5 47.5 -55.5s17.5 -47.833 17.5 -74.5c0 -34 -8 -64.333 -24 -91s-37.667 -47.5 -65 -62.5s-57 -22.5 -89 -22.5
c-13.333 0 -27.666 2.16699 -42.999 6.5s-29.666 9.83301 -42.999 16.5c-13.333 -11.333 -24 -23.333 -32 -36s-12 -27.334 -12 -44.001c0 -23.333 8.33301 -41 25 -53s43 -18 79 -18h108c58 0 100.5 -9.33301 127.5 -28s40.5 -47.334 40.5 -86.001
c0 -34 -11.667 -64 -35 -90s-53.666 -45.833 -90.999 -59.5s-77 -20.5 -119 -20.5c-60.667 0 -110.5 11.833 -149.5 35.5zM358.996 245c24.667 28 37 62.666 37 103.999c0 42 -12.333 76.5 -37 103.5s-56.667 40.5 -96 40.5s-71.333 -13.5 -96 -40.5s-37 -61.5 -37 -103.5
c0 -27.333 5.83301 -52.166 17.5 -74.499s27.667 -39.833 48 -52.5s42.833 -19 67.5 -19c39.333 0 71.333 14 96 42zM365.996 -190.501c29.333 11 53.166 26.333 71.499 46s27.5 42.167 27.5 67.5c0 27.333 -9.66699 47.5 -29 60.5s-50.333 19.5 -93 19.5h-104
c-27.333 0 -49.666 3.66699 -66.999 11c-22 -14.667 -39 -31.667 -51 -51s-18 -39.333 -18 -60c0 -34 15.5 -60.833 46.5 -80.5s73.167 -29.5 126.5 -29.5c30.667 0 60.667 5.5 90 16.5z" />
    <glyph glyph-name="h" unicode="h" horiz-adv-x="576" 
d="M103 767h48.001v-212l-3 -124c33.333 32 64 55.833 92 71.5s59.333 23.5 94 23.5c51.333 0 89.166 -15.333 113.499 -46s36.5 -79.667 36.5 -147v-325h-47v316c0 56 -9.5 97.167 -28.5 123.5s-49.167 39.5 -90.5 39.5c-30 0 -57 -7.5 -81 -22.5s-52.667 -39.5 -86 -73.5
v-383h-48v759z" />
    <glyph glyph-name="i" unicode="i" horiz-adv-x="253" 
d="M98 658.5c-8 7.66699 -12.001 17.167 -12.001 28.5c0 12 3.83301 21.667 11.5 29s17.834 11 30.501 11s23 -3.66699 31 -11s12 -17 12 -29c0 -11.333 -4.16699 -20.833 -12.5 -28.5s-18.5 -11.5 -30.5 -11.5s-22 3.83301 -30 11.5zM102.999 513h48v-505h-48v505z" />
    <glyph glyph-name="j" unicode="j" horiz-adv-x="254" 
d="M98 658.5c-8 7.66699 -12 17.167 -12 28.5c0 12 4 21.667 12 29s18.333 11 31 11c12 0 21.833 -3.66699 29.5 -11s11.5 -17 11.5 -29c0 -11.333 -4 -20.833 -12 -28.5s-17.667 -11.5 -29 -11.5c-12.667 0 -23 3.83301 -31 11.5zM-30 -225l11 33.002
c18 -4 33.667 -6 47 -6c26.667 0 46 9.16699 58 27.5s18 48.166 18 89.499v594h47v-596c0 -52.667 -9.66699 -91.334 -29 -116.001s-49 -37 -89 -37c-21.333 0 -42.333 3.66699 -63 11z" />
    <glyph glyph-name="k" unicode="k" horiz-adv-x="513" 
d="M103 767h47v-554l6 -1l252 301h50l-164 -198l194 -307h-51l-169 274l-118 -139v-135h-47v759z" />
    <glyph glyph-name="l" unicode="l" horiz-adv-x="262" 
d="M119 15c-10.667 13.333 -16 36 -16 68v684h48v-691c0 -13.333 2.5 -24 7.5 -32s12.5 -12 22.5 -12l14 1l5 -35c-4.66699 -2 -14.667 -3 -30 -3c-23.333 0 -40.333 6.66699 -51 20z" />
    <glyph glyph-name="m" unicode="m" horiz-adv-x="884" 
d="M103 514l37 0.000976562l8 -81h5c57.333 62.667 113.333 94 168 94c38 0 68.167 -8.33301 90.5 -25s38.5 -44.334 48.5 -83.001c31.333 36 61.166 63 89.499 81s57.833 27 88.5 27c50 0 87.333 -15.667 112 -47s37 -80.333 37 -147v-325h-47v316
c0 54.667 -9.5 95.5 -28.5 122.5s-48.167 40.5 -87.5 40.5c-45.333 0 -96.666 -32.667 -153.999 -98v-381h-48v316c0 55.333 -9.33301 96.333 -28 123s-48 40 -88 40c-46 0 -97.667 -32.667 -155 -98v-381h-48v506z" />
    <glyph glyph-name="n" unicode="n" horiz-adv-x="581" 
d="M103 513h38.001l8 -79h5c29.333 29.333 58.333 52 87 68s59.667 24 93 24c51.333 0 89.166 -15.333 113.499 -46s36.5 -79.667 36.5 -147v-325h-47v316c0 56 -9.5 97.167 -28.5 123.5s-49.167 39.5 -90.5 39.5c-30 0 -57 -7.5 -81 -22.5s-52.667 -39.5 -86 -73.5v-383
h-48v505z" />
    <glyph glyph-name="o" unicode="o" horiz-adv-x="580" 
d="M172 28.5c-34.667 22.333 -61.832 53.668 -81.499 94.001s-29.5 85.833 -29.5 136.5c0 52 9.66699 98.167 29 138.5s46.5 71.833 81.5 94.5s74.5 34 118.5 34c43.333 0 82.5 -11.333 117.5 -34s62.333 -54.334 82 -95.001s29.5 -86.667 29.5 -138
c0 -50.667 -9.83301 -96 -29.5 -136s-46.834 -71.333 -81.501 -94s-74 -34 -118 -34s-83.333 11.167 -118 33.5zM383.002 60.502c27.333 19 48.833 45.6689 64.5 80.002s23.5 73.5 23.5 117.5c0 44.667 -7.83301 84.667 -23.5 120s-37.167 62.666 -64.5 81.999
s-58.333 29 -93 29c-34 0 -64.833 -9.83301 -92.5 -29.5s-49.334 -47.167 -65.001 -82.5s-23.5 -75 -23.5 -119c0 -42.667 7.83301 -81.334 23.5 -116.001s37.334 -61.667 65.001 -81s58.5 -29 92.5 -29c34.667 0 65.667 9.5 93 28.5z" />
    <glyph glyph-name="p" unicode="p" horiz-adv-x="592" 
d="M103 513l39 -0.000976562l6 -63h5c30 25.333 60.333 44.333 91 57s59.334 19 86.001 19c63.333 0 112.333 -22 147 -66s52 -108.333 52 -193c0 -53.333 -9.5 -100.666 -28.5 -141.999s-45.167 -73.333 -78.5 -96s-71 -34 -113 -34c-50.667 0 -104.334 22.333 -161.001 67
l3 -107v-178h-48v736zM151 99.999c25.333 -21.333 51.001 -37.832 77.001 -49.499s51 -17.5 75 -17.5c34 0 64.333 10 91 30s47.5 47.833 62.5 83.5s22.5 76.167 22.5 121.5c0 72 -13.667 126.667 -41 164s-68 56 -122 56c-24 0 -49.333 -6.83301 -76 -20.5
s-56.334 -34.834 -89.001 -63.501v-304z" />
    <glyph glyph-name="q" unicode="q" horiz-adv-x="592" 
d="M441 -34l3.00195 113c-25.333 -28 -52.833 -49 -82.5 -63s-59.834 -21 -90.501 -21c-66 0 -117.5 22.667 -154.5 68s-55.5 110.666 -55.5 195.999c0 50.667 9.83301 96.334 29.5 137.001s46.5 72.5 80.5 95.5s71.667 34.5 113 34.5c28.667 0 55.167 -4.66699 79.5 -14
s49.166 -25 74.499 -47h6l7 48h38v-736h-48v189zM362.002 54c26 14 52.333 35.667 79 65v302c-48.667 44.667 -98.667 67 -150 67c-34 0 -64.667 -10.333 -92 -31s-48.833 -48.5 -64.5 -83.5s-23.5 -73.167 -23.5 -114.5c0 -69.333 15 -124.333 45 -165s71.667 -61 125 -61
c28 0 55 7 81 21z" />
    <glyph glyph-name="r" unicode="r" horiz-adv-x="354" 
d="M103 513h37.998l5 -95h5c18 33.333 40.833 59.833 68.5 79.5s55.834 29.5 84.501 29.5c20 0 35 -2.66699 45 -8l-10 -42c-11.333 4.66699 -25.666 7 -42.999 7c-30 0 -57.667 -12.167 -83 -36.5s-46 -57.5 -62 -99.5v-340h-48v505z" />
    <glyph glyph-name="s" unicode="s" horiz-adv-x="443" 
d="M129 11.5c-31.333 11 -60.001 27.168 -86.001 48.501l25 32c25.333 -20 50.333 -35.333 75 -46s53 -16 85 -16c37.333 0 67.5 9.33301 90.5 28s34.5 44 34.5 76c0 28.667 -10.333 52.334 -31 71.001c-8 6 -20 12.5 -36 19.5s-31 12.833 -45 17.5
c-62.667 19.333 -107.5 40.666 -134.5 63.999s-40.5 52 -40.5 86c0 39.333 14.833 71.5 44.5 96.5s69.167 37.5 118.5 37.5c24.667 0 49.667 -4.16699 75 -12.5s48 -20.833 68 -37.5l-22 -30c-20.667 15.333 -40.667 26.5 -60 33.5s-39.666 10.5 -60.999 10.5
c-34.667 0 -62.834 -8.66699 -84.501 -26s-32.5 -40.333 -32.5 -69c0 -18.667 5.16699 -34.167 15.5 -46.5s23.333 -22.5 39 -30.5s38.167 -17.667 67.5 -29l24 -9c44 -14 75.667 -29 95 -45c30.667 -24.667 46 -57.334 46 -98.001c0 -42 -15.667 -76.167 -47 -102.5
s-73.666 -39.5 -126.999 -39.5c-32.667 0 -64.667 5.5 -96 16.5z" />
    <glyph glyph-name="t" unicode="t" horiz-adv-x="346" 
d="M146.5 33.5c-20.333 25.667 -30.501 64.165 -30.501 115.498v326h-80v34l82 5l8 148h38v-149h147v-38h-147v-328c0 -39.333 7.33301 -68.166 22 -86.499s38.334 -27.5 71.001 -27.5c18 0 37.333 4 58 12l10 -32c-12.667 -5.33301 -26.334 -9.66602 -41.001 -12.999
s-27.667 -5 -39 -5c-45.333 0 -78.166 12.833 -98.499 38.5z" />
    <glyph glyph-name="u" unicode="u" horiz-adv-x="578" 
d="M132 41c-24.667 30.667 -37.001 79.666 -37.001 146.999v325h48v-317c0 -55.333 9.5 -96.166 28.5 -122.499s48.5 -39.5 88.5 -39.5c30.667 0 58.334 8 83.001 24s52.667 42.667 84 80v375h47v-505h-37l-5 82h-5c-54 -63.333 -114.333 -95 -181 -95
c-51.333 0 -89.333 15.333 -114 46z" />
    <glyph glyph-name="v" unicode="v" horiz-adv-x="481" 
d="M25 513l48 -0.000976562l110 -309c2 -4 4.33301 -10.167 7 -18.5s5.66699 -17.166 9 -26.499c26.667 -72.667 40.334 -110 41.001 -112h5l14 38c27.333 72.667 41.666 112 42.999 118l109 310h47l-185 -505h-62z" />
    <glyph glyph-name="w" unicode="w" horiz-adv-x="752" 
d="M36 513h48.999l87 -319l31 -112l10 -34h5c20.667 66.667 35.334 115.334 44.001 146.001l87 319h56l89 -319c19.333 -67.333 34 -116 44 -146h5l19 65c10.667 34.667 18.667 61.667 24 81l85 319h44l-140 -505h-67l-87 301l-11 41
c-16.667 63.333 -27 101.666 -31 114.999h-5l-44 -157l-86 -300h-62z" />
    <glyph glyph-name="x" unicode="x" horiz-adv-x="454" 
d="M198 272l-156 241h51l77 -121c22.667 -38 42.667 -68.333 60 -91h3c14.667 22 23 34.333 25 37l34 54l71 121h49l-154 -247l167 -258h-50l-85 132c-8 12.667 -18.667 28.334 -32 47.001c-3.33301 5.33301 -8.33301 12.666 -15 21.999s-12.667 18.333 -18 27h-3l-29 -42
c-19.333 -28 -31.333 -46 -36 -54l-80 -132h-49z" />
    <glyph glyph-name="y" unicode="y" horiz-adv-x="482" 
d="M38 -217l10 38l17.5 -3.5c8.33301 -1.66699 14.5 -2.5 18.5 -2.5c28.667 0 54.5 11.167 77.5 33.5s42.167 55.833 57.5 100.5l13 47l-207 517h48l117 -308l61 -151h5l26.5 76c11 31.333 20.167 56.333 27.5 75l103 308h46l-199 -568c-40 -112.667 -98.333 -169 -175 -169
c-22 0 -37.667 2.33301 -47 7z" />
    <glyph glyph-name="z" unicode="z" horiz-adv-x="444" 
d="M38 30l303 445h-271v38h329v-23l-302 -444h312v-38h-371v22z" />
    <glyph glyph-name="braceleft" unicode="{" horiz-adv-x="310" 
d="M243 -164c-42 0 -72.666 9.99902 -91.999 29.999s-29 56.667 -29 110c0 22 1.33301 55 4 99c3.33301 40 5 79.333 5 118c0 29.333 -8 51.166 -24 65.499s-39 21.166 -69 20.499v42c29.333 -0.666992 52.166 6 68.499 20s24.5 35.667 24.5 65
c0 41.333 -1.66699 80.333 -5 117c-2.66699 42.667 -4 76.334 -4 101.001c0 53.333 9.66699 90.166 29 110.499s50 30.5 92 30.5h42v-38h-33c-31.333 0 -52.5 -8.16699 -63.5 -24.5s-16.5 -44.166 -16.5 -83.499c0 -18.667 1.33301 -51.334 4 -98.001
c2.66699 -48 4 -82.667 4 -104c0 -33.333 -4.5 -59.166 -13.5 -77.499s-24.167 -30.833 -45.5 -37.5v-4c21.333 -6.66699 36.5 -19.167 45.5 -37.5s13.5 -44.166 13.5 -77.499c0 -19.333 -1.33301 -53.666 -4 -102.999c-2.66699 -46.667 -4 -79.667 -4 -99
c0 -39.333 5.5 -67 16.5 -83s32.167 -24 63.5 -24h33v-38h-42z" />
    <glyph glyph-name="bar" unicode="|" horiz-adv-x="249" 
d="M102 -270v1080h47v-1080h-47z" />
    <glyph glyph-name="braceright" unicode="}" horiz-adv-x="310" 
d="M32 -126l32.001 0.000976562c31.333 0 52.5 8 63.5 24s16.5 43.667 16.5 83c0 19.333 -1.33301 52.333 -4 99c-2.66699 49.333 -4 83.666 -4 102.999c0 33.333 4.66699 59.166 14 77.499s24.333 30.833 45 37.5v4c-20.667 6.66699 -35.667 19.167 -45 37.5
s-14 44.166 -14 77.499c0 21.333 1.33301 56 4 104c2.66699 46.667 4 79.334 4 98.001c0 39.333 -5.5 67.166 -16.5 83.499s-32.167 24.5 -63.5 24.5h-32v38h41c42.667 0 73.667 -10.167 93 -30.5s29 -57.166 29 -110.499c0 -24.667 -1.33301 -58.334 -4 -101.001
c-3.33301 -36.667 -5 -75.667 -5 -117c0 -29.333 8.16699 -51 24.5 -65s39.166 -20.667 68.499 -20v-42c-30 0.666992 -53 -6.16602 -69 -20.499s-24 -36.166 -24 -65.499c0 -38.667 1.66699 -78 5 -118c2.66699 -44 4 -77 4 -99c0 -53.333 -9.66699 -90 -29 -110
s-50.333 -30 -93 -30h-41v38z" />
    <glyph glyph-name="asciitilde" unicode="~" horiz-adv-x="524" 
d="M304.5 297.5c-16.333 8.33301 -33.834 19.833 -52.501 34.5c-3.33301 2.66699 -11.333 8.66699 -24 18s-24.167 16.333 -34.5 21s-20.166 7 -29.499 7c-34 0 -62.333 -22.333 -85 -67l-37 25c16 30.667 35 53.667 57 69s44.333 23 67 23
c19.333 0 36.5 -3.83301 51.5 -11.5s33.5 -19.5 55.5 -35.5c21.333 -17.333 37.833 -29.5 49.5 -36.5s24.167 -10.5 37.5 -10.5c33.333 0 61.666 22.333 84.999 67l38 -26c-16 -30 -35.167 -52.5 -57.5 -67.5s-44.833 -22.5 -67.5 -22.5
c-19.333 0 -37.166 4.16699 -53.499 12.5z" />
    <glyph glyph-name="exclamdown" unicode="&#xa1;" horiz-adv-x="276" 
d="M204.5 602c9 -9.33301 13.5 -20.333 13.5 -33c0 -13.333 -4.5 -24.5 -13.5 -33.5s-19.833 -13.5 -32.5 -13.5c-14 0 -25.5 4.33301 -34.5 13s-13.5 20 -13.5 34c0 12.667 4.5 23.667 13.5 33s20.5 14 34.5 14c12.667 0 23.5 -4.66699 32.5 -14zM153 463l42 6l17 -515
l-47 -19z" />
    <glyph glyph-name="cent" unicode="&#xa2;" horiz-adv-x="524" 
d="M278 -33l-0.00292969 117.001c-31.333 3.33301 -60.166 11.5 -86.499 24.5s-48.5 29.833 -66.5 50.5c-39.333 43.333 -59 102.333 -59 177c0 70 20.667 128 62 174c18.667 20.667 41 37.667 67 51s53.667 21.666 83 24.999v118h44v-115
c30 -0.666992 56.333 -6.66699 79 -18s44.334 -26.333 65.001 -45l-32 -41c-33.333 31.333 -70.666 48.333 -111.999 51v-401c43.333 2 85.333 20.667 126 56l28 -39c-22 -20 -46.167 -36.333 -72.5 -49s-53.5 -19.667 -81.5 -21v-115h-44zM168.997 202.501
c26 -35 62.333 -56.833 109 -65.5v397c-45.333 -8.66699 -81.333 -30.667 -108 -66s-40 -79.333 -40 -132c0 -54 13 -98.5 39 -133.5z" />
    <glyph glyph-name="sterling" unicode="&#xa3;" horiz-adv-x="524" 
d="M61 0l-0.000976562 37.001c37.333 21.333 65.833 50.166 85.5 86.499s29.5 76.166 29.5 119.499c0 14.667 -3.33301 38 -10 70h-108v42l72 4h24l-7 24c-9.33301 28.667 -16.166 52.5 -20.499 71.5s-6.5 38.5 -6.5 58.5c0 58 17.667 104 53 138
c32.667 34.667 78.334 52 137.001 52c64 0 117.333 -26.333 160 -79l-39 -37c-15.333 19.333 -32.5 34.5 -51.5 45.5s-41.5 16.5 -67.5 16.5c-40.667 0 -72.334 -12.667 -95.001 -38s-34 -57.666 -34 -96.999c0 -20 1.83301 -38.5 5.5 -55.5s9.5 -40.167 17.5 -69.5l8 -30
h176v-46h-164c4 -24 6 -47.667 6 -71c0 -41.333 -6 -76 -18 -104s-30.333 -54 -55 -78v-5h312v-55h-410z" />
    <glyph glyph-name="currency" unicode="&#xa4;" horiz-adv-x="524" 
d="M31 156l69.999 71c-26.667 36 -40 78.667 -40 128c0 52 13.333 95.333 40 130l-70 72l35 37l73 -76c34 30 75.333 45 124 45c22.667 0 44.667 -3.83301 66 -11.5s40 -18.834 56 -33.501l73 76l36 -37l-72 -72c27.333 -37.333 41 -80.666 41 -129.999
s-13.667 -92 -41 -128l72 -71l-36 -36l-73 73c-16.667 -15.333 -35.5 -26.833 -56.5 -34.5s-42.833 -11.5 -65.5 -11.5c-49.333 0 -90.666 15.333 -123.999 46l-73 -73zM336.999 218.5c21.333 15 37.668 34.8291 49.001 59.4961s17 50.334 17 77.001
c0 28 -5.83301 54.167 -17.5 78.5s-28.167 44 -49.5 59s-45.666 22.5 -72.999 22.5c-28.667 0 -53.834 -7.66699 -75.501 -23s-38.334 -35.166 -50.001 -59.499s-17.5 -50.166 -17.5 -77.499c0 -28.667 6 -55.167 18 -79.5s28.833 -43.666 50.5 -57.999
s46.5 -21.5 74.5 -21.5s52.667 7.5 74 22.5z" />
    <glyph glyph-name="yen" unicode="&#xa5;" horiz-adv-x="524" 
d="M231 0l-0.00195312 175h-179v43h179v74h-179v42h160l-183 356h67l95 -201c8 -15.333 19.333 -39 34 -71c8.66699 -22 20.334 -47 35.001 -75h4c17.333 33.333 30 58.333 38 75c8.66699 21.333 19.334 45 32.001 71l96 201h65l-185 -356h162v-42h-180v-74h180v-43h-180
v-175h-61z" />
    <glyph glyph-name="brokenbar" unicode="&#xa6;" horiz-adv-x="249" 
d="M102 305v505h47v-505h-47zM102 -270v505h47v-505h-47z" />
    <glyph glyph-name="section" unicode="&#xa7;" horiz-adv-x="524" 
d="M75 11l39.002 36.002c20 -18.667 40.833 -32.834 62.5 -42.501s47.167 -14.5 76.5 -14.5c30.667 0 55.5 8.16699 74.5 24.5s28.5 36.833 28.5 61.5c0 28 -11.667 50.833 -35 68.5s-60 36.167 -110 55.5c-106 39.333 -159 98.666 -159 177.999c0 60 31.667 106.333 95 139
c-24 25.333 -36 55 -36 89c0 39.333 14.833 70.833 44.5 94.5s66.167 35.5 109.5 35.5c56 0 108 -19.333 156 -58l-32 -41c-19.333 16 -38.5 28 -57.5 36s-40.833 12 -65.5 12c-32 0 -56 -7.33301 -72 -22s-24 -33 -24 -55c0 -27.333 10.5 -49 31.5 -65
s58.167 -34 111.5 -54c52 -20.667 91.5 -45.667 118.5 -75s40.5 -65 40.5 -107c0 -33.333 -7.83301 -60.5 -23.5 -81.5s-38.834 -39.833 -69.501 -56.5c12 -13.333 20.833 -27 26.5 -41s8.5 -30.667 8.5 -50c0 -26.667 -7.33301 -50.5 -22 -71.5
s-34.334 -37.333 -59.001 -49s-51.334 -17.5 -80.001 -17.5c-71.333 0 -130.666 23.667 -177.999 71zM398.002 241.502c12 15 18 35.5 18 61.5c0 25.333 -7.16699 46.666 -21.5 63.999s-34.5 33.333 -60.5 48c-19.333 10.667 -43 22 -71 34
c-28.667 11.333 -54.667 23.666 -78 36.999c-26 -13.333 -45.333 -28.166 -58 -44.499s-19 -36.833 -19 -61.5c0 -24 7.33301 -44.667 22 -62s35 -32.666 61 -45.999c28 -15.333 51.667 -26.333 71 -33c27.333 -11.333 53.333 -24.333 78 -39c26.667 12.667 46 26.5 58 41.5
z" />
    <glyph glyph-name="copyright" unicode="&#xa9;" horiz-adv-x="801" 
d="M267.5 13c-42.333 17.333 -79.166 41.668 -110.499 73.001c-32.667 32.667 -57.834 71 -75.501 115s-26.5 93 -26.5 147c0 52.667 9 101.167 27 145.5s43 82.166 75 113.499c31.333 31.333 68 55.333 110 72s86.333 25 133 25s90.834 -8.33301 132.501 -25
s78.834 -40.667 111.501 -72s58 -69 76 -113s27 -92.667 27 -146c0 -54 -9 -103 -27 -147s-43.333 -82.333 -76 -115c-32.667 -32 -69.834 -56.5 -111.501 -73.5s-85.834 -25.5 -132.501 -25.5c-46 0 -90.167 8.66699 -132.5 26zM518.5 47.502
c37 15.667 69.165 38.167 96.498 67.5c28 28.667 49.833 62.834 65.5 102.501s23.5 83.167 23.5 130.5s-7.83301 90.666 -23.5 129.999s-37.5 73.333 -65.5 102c-27.333 28.667 -59.5 50.5 -96.5 65.5s-76.5 22.5 -118.5 22.5c-41.333 0 -80.166 -7.5 -116.499 -22.5
s-68.166 -36.833 -95.499 -65.5c-28.667 -28.667 -51.167 -62.667 -67.5 -102s-24.5 -82.666 -24.5 -129.999s8.16699 -90.833 24.5 -130.5s38.833 -73.834 67.5 -102.501c28 -29.333 60 -51.833 96 -67.5s74.667 -23.5 116 -23.5c42 0 81.5 7.83301 118.5 23.5z
M271.998 191.002c-37.333 39.333 -55.999 91.667 -55.999 157c0 29.333 5.33301 56.666 16 81.999s25.334 47.333 44.001 66c18.667 18 39.667 31.667 63 41s47.666 14 72.999 14c27.333 0 51.5 -5.33301 72.5 -16s40.833 -25.667 59.5 -45l-30 -32
c-16.667 16 -32.834 27.833 -48.501 35.5s-33.167 11.5 -52.5 11.5c-42 0 -76.333 -14.5 -103 -43.5s-40 -66.833 -40 -113.5c0 -51.333 12.833 -92.166 38.5 -122.499s59.834 -45.5 102.501 -45.5c22.667 0 43.167 4.66699 61.5 14s37.166 22.333 56.499 39l25 -35
c-23.333 -21.333 -45.833 -37.333 -67.5 -48s-48.167 -16 -79.5 -16c-54 0 -99 19 -135 57z" />
    <glyph glyph-name="guillemotleft" unicode="&#xab;" horiz-adv-x="439" 
d="M97.5 113.5c-7.66699 32.333 -11.499 64.501 -11.499 96.501s4 64.167 12 96.5s22 75.166 42 128.499l46 -16c-16.667 -48.667 -28.834 -88.834 -36.501 -120.501s-11.5 -61.167 -11.5 -88.5c0 -28 4 -58.667 12 -92s20.667 -73.666 38 -120.999l-49 -11
c-20 52.667 -33.833 95.167 -41.5 127.5zM252.501 112.501c-7.66699 32.333 -11.499 64.8311 -11.499 97.498c0 32 4 64.5 12 97.5s22 75.5 42 127.5l46 -16c-17.333 -49.333 -30 -89.666 -38 -120.999s-12 -60.666 -12 -87.999c0 -28 4.16699 -58.5 12.5 -91.5
s21.166 -73.5 38.499 -121.5l-48 -11c-20 52 -33.833 94.167 -41.5 126.5z" />
    <glyph glyph-name="logicalnot" unicode="&#xac;" horiz-adv-x="524" 
d="M433 116v216h-396v49h450v-265h-54z" />
    <glyph glyph-name="registered" unicode="&#xae;" horiz-adv-x="441" 
d="M118.5 376c-30.333 18.667 -54.165 44.167 -71.498 76.5s-26 67.833 -26 106.5s8.5 74 25.5 106s40.667 57.333 71 76s64.166 28 101.499 28c38.667 0 73.167 -9.16699 103.5 -27.5s54.166 -43.5 71.499 -75.5s26 -67.667 26 -107c0 -40.667 -8.83301 -77 -26.5 -109
s-41.667 -57 -72 -75s-64.5 -27 -102.5 -27c-36.667 0 -70.167 9.33301 -100.5 28zM303.501 405.5c25 15.667 44.5 37 58.5 64s21 56.833 21 89.5c0 33.333 -7.33301 63.333 -22 90s-34.5 47.667 -59.5 63s-52.5 23 -82.5 23c-32 0 -60.167 -8.16699 -84.5 -24.5
s-43 -38 -56 -65s-19.5 -55.833 -19.5 -86.5c0 -32 6.83301 -61.5 20.5 -88.5s32.667 -48.5 57 -64.5s51.833 -24 82.5 -24c31.333 0 59.5 7.83301 84.5 23.5zM146.001 673h77c24.667 0 44.5 -5.5 59.5 -16.5s22.5 -29.167 22.5 -54.5c0 -13.333 -3.66699 -25.5 -11 -36.5
s-17 -18.5 -29 -22.5l51 -92h-43l-41 79h-49v-79h-37v222zM213.001 562c18 0 31.333 2.99902 40 8.99902s13 16 13 30c0 12.667 -3.66699 22.334 -11 29.001s-20.333 10 -39 10h-33v-78h30z" />
    <glyph glyph-name="degree" unicode="&#xb0;" horiz-adv-x="343" 
d="M125 485c-15.333 6 -28.998 14.667 -40.998 26c-26 24.667 -39 56.334 -39 95.001c0 39.333 13 72 39 98c23.333 23.333 52.666 35 87.999 35s65 -11.667 89 -35c25.333 -26.667 38 -59.334 38 -98.001c0 -38 -12.667 -69.667 -38 -95
c-26.667 -23.333 -56.334 -35 -89.001 -35c-16 0 -31.667 3 -47 9zM233.002 541.5c16 17 24 38.5 24 64.5c0 28 -8 50.667 -24 68s-36.333 26 -61 26s-44.834 -8.66699 -60.501 -26s-23.5 -40 -23.5 -68c0 -26 7.83301 -47.5 23.5 -64.5s35.834 -25.5 60.501 -25.5
s45 8.5 61 25.5z" />
    <glyph glyph-name="plusminus" unicode="&#xb1;" horiz-adv-x="524" 
d="M236 124v208h-199v50h199v215h52v-215h199v-50h-199v-208h-52zM37 0v50h450v-50h-450z" />
    <glyph glyph-name="paragraph" unicode="&#xb6;" horiz-adv-x="573" 
d="M315 256c-85.333 0 -150 17.667 -194 53c-50.667 39.333 -76 97.666 -76 174.999c0 80.667 24 139.334 72 176.001c42 33.333 103 50 183 50h48v-454h-33zM405 -86v796h64v-796h-64z" />
    <glyph glyph-name="periodcentered" unicode="&#xb7;" horiz-adv-x="226" 
d="M70 318.5c-8.66699 9 -12.999 19.833 -12.999 32.5c0 13.333 4.5 24.333 13.5 33s19.5 13 31.5 13c13.333 0 24.333 -4.33301 33 -13s13 -19.667 13 -33c0 -12.667 -4.33301 -23.5 -13 -32.5s-19.667 -13.5 -33 -13.5c-12.667 0 -23.334 4.5 -32.001 13.5z" />
    <glyph glyph-name="guillemotright" unicode="&#xbb;" horiz-adv-x="439" 
d="M97 -3c17.333 48 30.167 88.502 38.5 121.502s12.5 63.5 12.5 91.5c0 27.333 -4 56.666 -12 87.999s-20.667 71.666 -38 120.999l47 16c20 -52 33.833 -94.5 41.5 -127.5s11.5 -65.5 11.5 -97.5c0 -32.667 -3.83301 -65.167 -11.5 -97.5s-21.167 -74.5 -40.5 -126.5z
M251.001 -2.99805c17.333 47.333 30.001 87.665 38.001 120.998s12 64 12 92c0 27.333 -3.83301 56.833 -11.5 88.5s-19.834 71.834 -36.501 120.501l46 16c20 -53.333 34 -96.166 42 -128.499s12 -64.5 12 -96.5s-3.83301 -64.167 -11.5 -96.5s-21.5 -74.833 -41.5 -127.5z
" />
    <glyph glyph-name="questiondown" unicode="&#xbf;" horiz-adv-x="440" 
d="M265 534c10 -10 15.001 -22.999 15.001 -38.999c0 -18 -4.83301 -32.167 -14.5 -42.5s-21.834 -15.5 -36.501 -15.5s-27.167 5.16699 -37.5 15.5s-15.5 24.5 -15.5 42.5c0 15.333 5.16699 28.166 15.5 38.499s22.833 15.5 37.5 15.5c14 0 26 -5 36 -15zM259.001 336.001
c1.33301 -7.33301 2.00098 -17.667 2.00098 -31c0 -56 -23.333 -112.667 -70 -170c-30 -36 -51.667 -65.667 -65 -89s-20 -48.333 -20 -75c0 -33.333 10.167 -61.5 30.5 -84.5s49.166 -34.5 86.499 -34.5c25.333 0 49.833 6 73.5 18s44.167 28.667 61.5 50l36 -34
c-52 -58 -111.667 -87 -179 -87c-51.333 0 -92.5 15.333 -123.5 46s-46.5 71.667 -46.5 123c0 28 7.33301 56 22 84s36.334 59.333 65.001 94c25.333 32.667 44.166 61.5 56.499 86.5s18.5 51.5 18.5 79.5c0 5.33301 -0.666992 13.333 -2 24h54z" />
    <glyph glyph-name="multiply" unicode="&#xd7;" horiz-adv-x="524" 
d="M90 142l-35 37l173 178l-173 176l35 37l173 -178l170 178l36 -37l-173 -176l173 -178l-36 -37l-170 179z" />
    <glyph glyph-name="divide" unicode="&#xf7;" horiz-adv-x="524" 
d="M228 516c-9.33301 9.33301 -14 21 -14 35c0 13.333 4.83301 24.666 14.5 33.999s21.167 14 34.5 14s24.5 -4.66699 33.5 -14s13.5 -20.666 13.5 -33.999c0 -14.667 -4.5 -26.5 -13.5 -35.5s-20.167 -13.5 -33.5 -13.5c-14 0 -25.667 4.66699 -35 14zM37 332v49h450v-49
h-450zM228 127c-9.33301 9.33301 -14 21 -14 35s4.66699 25.5 14 34.5s21 13.5 35 13.5c13.333 0 24.5 -4.5 33.5 -13.5s13.5 -20.5 13.5 -34.5c0 -14.667 -4.5 -26.5 -13.5 -35.5s-20.167 -13.5 -33.5 -13.5c-14 0 -25.667 4.66699 -35 14z" />
    <glyph glyph-name="uni060C" unicode="&#x60c;" horiz-adv-x="220" 
d="M142 76.5c8.66699 -8.33301 13.002 -18.835 13.002 -31.502c0 -13.333 -4.33301 -24.333 -13 -33s-19.667 -13 -33 -13c-14.667 0 -27.5 5.83301 -38.5 17.5s-16.5 28.167 -16.5 49.5c0 24.667 6.66699 52.834 20 84.501s28.666 59.834 45.999 84.501l27 -28
c-33.333 -49.333 -52.333 -90 -57 -122c5.33301 2.66699 11.666 4 18.999 4c13.333 0 24.333 -4.16699 33 -12.5z" />
    <glyph glyph-name="uni061B" unicode="&#x61b;" horiz-adv-x="257" 
d="M80.5 213c-11 11.333 -16.499 27.666 -16.499 48.999c0 24.667 6.66699 52.834 20 84.501s28.666 59.834 45.999 84.501l27 -28c-34 -49.333 -53 -90 -57 -122c8 2.66699 14.333 4 19 4c13.333 0 24.333 -4.16699 33 -12.5s13 -18.833 13 -31.5
s-4.5 -23.334 -13.5 -32.001s-19.833 -13 -32.5 -13c-14.667 0 -27.5 5.66699 -38.5 17zM152.001 78c8.66699 -8.66699 13.001 -19.667 13.001 -33c0 -12.667 -4.33301 -23.5 -13 -32.5s-19.667 -13.5 -33 -13.5c-12.667 0 -23.334 4.5 -32.001 13.5s-13 19.833 -13 32.5
c0 13.333 4.5 24.333 13.5 33s19.5 13 31.5 13c13.333 0 24.333 -4.33301 33 -13z" />
    <glyph glyph-name="uni061F" unicode="&#x61f;" horiz-adv-x="492" 
d="M389 484c0 43.333 -12.6641 74.666 -37.9971 93.999s-59.666 29 -102.999 29c-46 0 -80.333 -10.5 -103 -31.5s-34 -50.5 -34 -88.5c0 -18.667 2.83301 -34.5 8.5 -47.5s13.834 -25.167 24.501 -36.5s28 -27.333 52 -48c18 -15.333 34 -29.666 48 -42.999
c26 -24.667 42.833 -48 50.5 -70s11.5 -52.667 11.5 -92l-41 -6c-0.666992 24.667 -1.83398 42.667 -3.50098 54s-6.83398 23.333 -15.501 36s-23.667 29 -45 49c-11.333 10.667 -27 24 -47 40c-20.667 17.333 -36.834 32 -48.501 44s-21.334 26.833 -29.001 44.5
s-11.5 39.167 -11.5 64.5c0 56 16.167 100.833 48.5 134.5s77.166 50.5 134.499 50.5c56 0 99.833 -14.5 131.5 -43.5s47.5 -69.167 47.5 -120.5c0 -16.667 -1.33301 -32.667 -4 -48h-37c2 13.333 3 25 3 35zM251.503 13c-8.33301 9.33301 -12.502 20.333 -12.502 33
c0 13.333 4.33301 24.5 13 33.5s19.334 13.5 32.001 13.5c13.333 0 24.5 -4.5 33.5 -13.5s13.5 -20.167 13.5 -33.5c0 -12.667 -4.5 -23.667 -13.5 -33s-20.167 -14 -33.5 -14s-24.166 4.66699 -32.499 14z" />
    <glyph glyph-name="uni0621" unicode="&#x621;" horiz-adv-x="586" 
d="M68 41l143.999 58.0029c-22 32 -38.167 57.5 -48.5 76.5s-17.166 36.167 -20.499 51.5s-5 34 -5 56c0 37.333 16.833 66.166 50.5 86.499s74.167 30.5 121.5 30.5c22 0 44 -2.33301 66 -7l-7 -48c-23.333 5.33301 -44 8 -62 8c-56.667 0 -100 -14 -130 -42
c-1.33301 -36.667 4.5 -69.834 17.5 -99.501s33.833 -60.834 62.5 -93.501l254 100l8 -46l-441 -176z" />
    <glyph glyph-name="uni0622" unicode="&#x622;" horiz-adv-x="226" 
d="M191 638c-20 0.666992 -49.6699 3.33398 -89.0029 8.00098c-22 3.33301 -39 5 -51 5c-16.667 0 -27.667 -2.66699 -33 -8s-10.666 -17 -15.999 -35l-31 8c8 29.333 17.5 48.666 28.5 57.999s28.167 14 51.5 14c10.667 0 31.334 -2 62.001 -6
c32.667 -4 59.334 -6.33301 80.001 -7l50 -1l-10 -36h-42zM138.997 0l-40 -6l-14 536l43 10z" />
    <glyph glyph-name="uni0623" unicode="&#x623;" horiz-adv-x="195" 
d="M-76 614l96.9971 30c-13.333 26 -22.666 47.5 -27.999 64.5s-8 34.167 -8 51.5c0 20 10.667 35.667 32 47s49.666 17 84.999 17c11.333 0 20 -1 26 -3l-1 -31c-7.33301 0.666992 -18 1 -32 1c-15.333 0 -30.166 -2 -44.499 -6s-25.166 -9 -32.499 -15
c0.666992 -42 12.334 -80 35.001 -114l159 50l6 -33l-288 -92zM118.997 0l-40 -6l-14 536l43 10z" />
    <glyph glyph-name="uni0624" unicode="&#x624;" horiz-adv-x="436" 
d="M56 413l97.998 31.001c-13.333 26 -22.666 47.5 -27.999 64.5s-8 34.167 -8 51.5c0 19.333 10.667 34.666 32 45.999s49.333 17 84 17c12 0 21 -0.666992 27 -2l-1 -32c-8 1.33301 -18.667 2 -32 2c-16 0 -31.167 -2 -45.5 -6s-25.166 -9 -32.499 -15
c2 -42 13.667 -80 35 -114l159 50l7 -33l-288 -92zM321.498 227.001c18.333 -51.333 27.499 -106.667 27.499 -166c0 -76 -27.833 -140.5 -83.5 -193.5s-120.167 -93.833 -193.5 -122.5l-21 43c66 25.333 120.833 56.166 164.5 92.499s72.834 77.833 87.501 124.5
c-32.667 -4 -71 -6 -115 -6c-31.333 0 -53 1 -65 3c-11.333 2 -19.5 4.5 -24.5 7.5s-10.833 9.16699 -17.5 18.5c-6 8.66699 -9.83301 16.334 -11.5 23.001s-2.5 15.667 -2.5 27c0.666992 28 5.33398 59.5 14.001 94.5s23.5 65.667 44.5 92s48.5 39.5 82.5 39.5
c57.333 0 95.166 -25.667 113.499 -77zM309.997 56c0 68 -8.50098 118.501 -25.501 151.501s-42.833 49.5 -77.5 49.5c-32.667 0 -58.167 -18.833 -76.5 -56.5s-27.5 -85.834 -27.5 -144.501c12.667 -6 40.334 -9 83.001 -9c60.667 0 102 3 124 9z" />
    <glyph glyph-name="uni0625" unicode="&#x625;" horiz-adv-x="199" 
d="M98 680l15 -680l-40 -6l-18 676zM-54 -332l97.998 30c-13.333 26 -22.666 47.5 -27.999 64.5s-8 34.167 -8 51.5c0 20 10.667 35.667 32 47s49.333 17 84 17c12 0 21 -0.666992 27 -2l-1 -32c-8 0.666992 -18.667 1 -32 1c-16 0 -31.167 -2 -45.5 -6
s-25.166 -9 -32.499 -15c2 -42 13.667 -80 35 -114l159 50l7 -33l-288 -92z" />
    <glyph glyph-name="uni0626" unicode="&#x626;" horiz-adv-x="720" 
d="M90 397l97.9971 30c-13.333 26 -22.666 47.5 -27.999 64.5s-8 34.167 -8 51.5c0 20 10.667 35.667 32 47s49.333 17 84 17c12 0 21 -0.666992 27 -2l-1 -32c-8 0.666992 -18.667 1 -32 1c-16 0 -31.167 -1.83301 -45.5 -5.5s-25.166 -8.5 -32.499 -14.5
c0.666992 -22 3.83398 -42.167 9.50098 -60.5s14.167 -36.5 25.5 -54.5l159 50l7 -32l-288 -93zM131.997 -144.5c-28 35.667 -41.999 69.168 -41.999 100.501c0 16 4.33301 56.333 13 121s17.667 124 27 178l37 -8c-7.33301 -42.667 -14.666 -89.5 -21.999 -140.5
s-12.666 -92.5 -15.999 -124.5c-0.666992 -3.33301 -1 -8.33301 -1 -15c0 -46 18.833 -76.833 56.5 -92.5s80.5 -23.5 128.5 -23.5c59.333 0 109.666 4.83301 150.999 14.5s77.666 28.834 108.999 57.501c2.66699 23.333 4 45 4 65c0 27.333 -4.33301 46.166 -13 56.499
s-24.667 17.5 -48 21.5c-26 4.66699 -52.667 8.33398 -80 11.001c-20.667 2.66699 -35.334 5 -44.001 7s-15.167 5.83301 -19.5 11.5s-6.5 14.5 -6.5 26.5c0 48.667 8 95.834 24 141.501s38 82.834 66 111.501s59.333 43 94 43c20 0 37 -5 51 -15s25.167 -20 33.5 -30
s14.166 -16.667 17.499 -20l-22 -21c-26.667 26 -53.334 39 -80.001 39c-25.333 0 -48.833 -11.5 -70.5 -34.5s-39.167 -53.333 -52.5 -91s-21.333 -77.167 -24 -118.5c50.667 -4 90.334 -8.83301 119.001 -14.5s52 -16.334 70 -32.001s27 -39.167 27 -70.5
c0 -28.667 -2.16699 -52.834 -6.5 -72.501s-12.166 -36.834 -23.499 -51.501c-24 -28.667 -59.833 -49.834 -107.5 -63.501s-104.167 -20.5 -169.5 -20.5c-92 0 -152 17.833 -180 53.5z" />
    <glyph glyph-name="uni0627" unicode="&#x627;" horiz-adv-x="199" 
d="M98 680l15 -680l-40 -6l-18 676z" />
    <glyph glyph-name="uni0628" unicode="&#x628;" horiz-adv-x="839" 
d="M750 93c0 -28 -17.667 -49 -53 -63c-56 -24 -156.667 -36 -302 -36c-101.333 0 -178 11.333 -230 34s-78 64.667 -78 126c0 8.66699 1.33301 23 4 43l26 156l36 -7l-25 -152c-2 -12 -3 -23.333 -3 -34c0 -48 23.667 -79.5 71 -94.5s113 -22.5 197 -22.5
c164 0 271.667 13.667 323 41l-17 243l43 11c5.33301 -97.333 8 -179 8 -245zM402 -121l50 -41l-42 -48l-48 40z" />
    <glyph glyph-name="uni0629" unicode="&#x629;" horiz-adv-x="471" 
d="M197 550l-41 -47l-45 40l39 46zM306 547l-41 -46l-46 38l39 47zM86 100c0 30.667 12.335 66.666 37.002 107.999s52 77 82 107l-39 26l22 35c52.667 -34.667 93.167 -68 121.5 -100s47.666 -62.667 57.999 -92s16.166 -62 17.499 -98
c0.666992 -20 -2.33301 -36.333 -9 -49c-8 -13.333 -15.333 -21.666 -22 -24.999c-28 -12 -73.667 -18 -137 -18c-87.333 0 -131 35.333 -131 106zM347.002 54.999l1.00098 23c0 82.667 -38.333 154 -115 214c-28.667 -28 -54.334 -61.833 -77.001 -101.5
s-34 -69.5 -34 -89.5c0 -20.667 6.5 -35.5 19.5 -44.5s38.5 -13.833 76.5 -14.5c55.333 0 98.333 4.33301 129 13z" />
    <glyph glyph-name="uni062A" unicode="&#x62a;" horiz-adv-x="839" 
d="M393 416l-46 40l39 46l48 -39zM501 414l-45 38l39 47l47 -39zM750 93c0 -28 -17.667 -49 -53 -63c-56 -24 -156.667 -36 -302 -36c-101.333 0 -178 11.333 -230 34s-78 64.667 -78 126c0 8.66699 1.33301 23 4 43l26 156l36 -7l-25 -152c-2 -12 -3 -23.333 -3 -34
c0 -48 23.667 -79.5 71 -94.5s113 -22.5 197 -22.5c164 0 271.667 13.667 323 41l-17 243l43 11c5.33301 -97.333 8 -179 8 -245z" />
    <glyph glyph-name="uni062B" unicode="&#x62b;" horiz-adv-x="839" 
d="M443 530l-46 39l38 47l46 -40zM384 418l-46 38l39 46l46 -40zM450 453l38 47l46 -40l-40 -46zM750 93c0 -28 -17.667 -49 -53 -63c-56 -24 -156.667 -36 -302 -36c-101.333 0 -178 11.333 -230 34s-78 64.667 -78 126c0 8.66699 1.33301 23 4 43l26 156l36 -7l-25 -152
c-2 -12 -3 -23.333 -3 -34c0 -48 23.667 -79.5 71 -94.5s113 -22.5 197 -22.5c164 0 271.667 13.667 323 41l-17 243l43 11c5.33301 -97.333 8 -179 8 -245z" />
    <glyph glyph-name="uni062C" unicode="&#x62c;" horiz-adv-x="692" 
d="M619 285c-54.667 -8 -115.832 -26.167 -183.499 -54.5s-129.167 -63.5 -184.5 -105.5s-92.666 -86.667 -111.999 -134c-6.66699 -26.667 -10 -57.334 -10 -92.001c0 -74 23 -129 69 -165s115 -54 207 -54h157l-5 -49h-153c-93.333 0 -163.5 16 -210.5 48
s-76.667 67.5 -89 106.5s-18.5 78.833 -18.5 119.5c0 86 34.5 160.833 103.5 224.5s160.833 116.5 275.5 158.5c12 4.66699 28.333 9.33398 49 14.001c-28.667 3.33301 -60.334 9.83301 -95.001 19.5s-75 22.5 -121 38.5c-56.667 18 -95.334 26.667 -116.001 26
c-14.667 0 -26.667 -6.16699 -36 -18.5s-17 -30.5 -23 -54.5l-33 8c10 34.667 22.333 61.667 37 81s33.667 29.333 57 30c26 0 73.333 -11.667 142 -35c58 -20 108.5 -35.5 151.5 -46.5s83.167 -16.5 120.5 -16.5c12 0 21 0.333008 27 1zM324.002 -53l42 51l52 -43l-44 -51z
" />
    <glyph glyph-name="uni062D" unicode="&#x62d;" horiz-adv-x="692" 
d="M435.5 230.5c-67.667 -28.333 -129.165 -63.5 -184.498 -105.5s-92.666 -86.667 -111.999 -134c-6.66699 -26.667 -10 -57.334 -10 -92.001c0 -74 23 -129 69 -165s115 -54 207 -54h157l-5 -49h-153c-93.333 0 -163.5 16 -210.5 48s-76.667 67.5 -89 106.5
s-18.5 78.833 -18.5 119.5c0 86 34.5 160.833 103.5 224.5s160.833 116.5 275.5 158.5c12 4.66699 28.333 9.33398 49 14.001c-28.667 3.33301 -60.334 9.83301 -95.001 19.5s-75 22.5 -121 38.5c-56.667 18 -95.334 26.667 -116.001 26
c-14.667 0 -26.667 -6.16699 -36 -18.5s-17 -30.5 -23 -54.5l-33 8c10 34.667 22.333 61.667 37 81s33.667 29.333 57 30c26 0 73.333 -11.667 142 -35c58 -20 108.5 -35.5 151.5 -46.5s83.167 -16.5 120.5 -16.5c12 0 21 0.333008 27 1l-6 -50
c-54.667 -8 -115.834 -26.167 -183.501 -54.5z" />
    <glyph glyph-name="uni062E" unicode="&#x62e;" horiz-adv-x="692" 
d="M380 537l-47 41l40 49l49 -41zM435.5 230.5c-67.667 -28.333 -129.165 -63.5 -184.498 -105.5s-92.666 -86.667 -111.999 -134c-6.66699 -26.667 -10 -57.334 -10 -92.001c0 -74 23 -129 69 -165s115 -54 207 -54h157l-5 -49h-153c-93.333 0 -163.5 16 -210.5 48
s-76.667 67.5 -89 106.5s-18.5 78.833 -18.5 119.5c0 86 34.5 160.833 103.5 224.5s160.833 116.5 275.5 158.5c12 4.66699 28.333 9.33398 49 14.001c-28.667 3.33301 -60.334 9.83301 -95.001 19.5s-75 22.5 -121 38.5c-56.667 18 -95.334 26.667 -116.001 26
c-14.667 0 -26.667 -6.16699 -36 -18.5s-17 -30.5 -23 -54.5l-33 8c10 34.667 22.333 61.667 37 81s33.667 29.333 57 30c26 0 73.333 -11.667 142 -35c58 -20 108.5 -35.5 151.5 -46.5s83.167 -16.5 120.5 -16.5c12 0 21 0.333008 27 1l-6 -50
c-54.667 -8 -115.834 -26.167 -183.501 -54.5z" />
    <glyph glyph-name="uni062F" unicode="&#x62f;" horiz-adv-x="554" 
d="M431.5 249.5c23.667 -54.333 35.4971 -103.165 35.4971 -146.498c0 -16.667 -1 -30.334 -3 -41.001s-7 -20.334 -15 -29.001c-32 -28 -102 -42 -210 -42c-45.333 0 -78.666 3.66699 -99.999 11s-35.5 19.666 -42.5 36.999s-10.5 44 -10.5 80v15l36 -1v-15
c0 -26.667 2.16699 -44.834 6.5 -54.501s14.333 -16 30 -19s44.167 -4.5 85.5 -4.5c33.333 0 68.333 1.83301 105 5.5s64.334 10.834 83.001 21.501c4 62.667 -9.66699 121.167 -41 175.5s-76 107.833 -134 160.5l30 35c72.667 -71.333 120.834 -134.166 144.501 -188.499z
" />
    <glyph glyph-name="uni0630" unicode="&#x630;" horiz-adv-x="554" 
d="M275 583l-47 41l40 49l49 -42zM431.5 249.5c23.667 -54.333 35.4971 -103.165 35.4971 -146.498c0 -16.667 -1 -30.334 -3 -41.001s-7 -20.334 -15 -29.001c-32 -28 -102 -42 -210 -42c-45.333 0 -78.666 3.66699 -99.999 11s-35.5 19.666 -42.5 36.999
s-10.5 44 -10.5 80v15l36 -1v-15c0 -26.667 2.16699 -44.834 6.5 -54.501s14.333 -16 30 -19s44.167 -4.5 85.5 -4.5c33.333 0 68.333 1.83301 105 5.5s64.334 10.834 83.001 21.501c4 62.667 -9.66699 121.167 -41 175.5s-76 107.833 -134 160.5l30 35
c72.667 -71.333 120.834 -134.166 144.501 -188.499z" />
    <glyph glyph-name="uni0631" unicode="&#x631;" horiz-adv-x="327" 
d="M-54 -213c72 31.333 129.833 65.333 173.5 102s71.834 72.667 84.501 108l-30 271l44 14l14 -151c6 -58 9 -96.667 9 -116c0 -48.667 -23.833 -96.167 -71.5 -142.5s-114.834 -88.5 -201.501 -126.5z" />
    <glyph glyph-name="uni0632" unicode="&#x632;" horiz-adv-x="327" 
d="M216 480l-42 -48l-48 40l41 49zM-54 -213c72 31.333 129.833 65.333 173.5 102s71.834 72.667 84.501 108l-30 271l44 14l14 -151c6 -58 9 -96.667 9 -116c0 -48.667 -23.833 -96.167 -71.5 -142.5s-114.834 -88.5 -201.501 -126.5z" />
    <glyph glyph-name="uni0633" unicode="&#x633;" horiz-adv-x="1132" 
d="M1041 228c3.33301 -50 4.99902 -100.334 4.99902 -151.001c0 -28 -14.5 -47.833 -43.5 -59.5s-60.5 -17.5 -94.5 -17.5c-21.333 0 -39.166 3.83301 -53.499 11.5s-24.166 18.167 -29.499 31.5c-8.66699 -14.667 -25.834 -25.5 -51.501 -32.5s-53.5 -10.5 -83.5 -10.5
c-42.667 0 -72.667 12.667 -90 38l8 -122c1.33301 -23.333 -9.83398 -44.666 -33.501 -63.999s-58.167 -34.666 -103.5 -45.999s-98.333 -17 -159 -17c-92 0.666992 -152 18.667 -180 54s-42 68.666 -42 99.999c0 16 4.33301 56.667 13 122s17.667 124.333 27 177l37 -8
c-7.33301 -42.667 -14.666 -89.5 -21.999 -140.5s-12.666 -92.167 -15.999 -123.5c-0.666992 -3.33301 -1 -8.33301 -1 -15c0 -46.667 18.833 -77.834 56.5 -93.501s80.5 -23.5 128.5 -23.5c58 0 108 4.66699 150 14s77.667 25.333 107 48l-34 390l44 11l13 -169v0
c2.66699 -31.333 11.667 -53 27 -65s40 -18 74 -18c28.667 0 52.167 1.83301 70.5 5.5s32.166 10.5 41.499 20.5l-7 213l42 1l4 -216c8.66699 -9.33301 18.834 -15.666 30.501 -18.999s25.5 -5 41.5 -5c43.333 0 74.666 7.66699 93.999 23l-20 256l46 8
c0 -24 1.33301 -60 4 -108z" />
    <glyph glyph-name="uni0634" unicode="&#x634;" horiz-adv-x="1132" 
d="M808 525l-46 39l38 47l46 -39zM749 413l-45 38l38 47l46 -40zM815 448l38 47l46 -40l-40 -46zM1041 228c3.33301 -50 4.99902 -100.334 4.99902 -151.001c0 -28 -14.5 -47.833 -43.5 -59.5s-60.5 -17.5 -94.5 -17.5c-21.333 0 -39.166 3.83301 -53.499 11.5
s-24.166 18.167 -29.499 31.5c-8.66699 -14.667 -25.834 -25.5 -51.501 -32.5s-53.5 -10.5 -83.5 -10.5c-42.667 0 -72.667 12.667 -90 38l8 -122c1.33301 -23.333 -9.83398 -44.666 -33.501 -63.999s-58.167 -34.666 -103.5 -45.999s-98.333 -17 -159 -17
c-92 0.666992 -152 18.667 -180 54s-42 68.666 -42 99.999c0 16 4.33301 56.667 13 122s17.667 124.333 27 177l37 -8c-7.33301 -42.667 -14.666 -89.5 -21.999 -140.5s-12.666 -92.167 -15.999 -123.5c-0.666992 -3.33301 -1 -8.33301 -1 -15
c0 -46.667 18.833 -77.834 56.5 -93.501s80.5 -23.5 128.5 -23.5c58 0 108 4.66699 150 14s77.667 25.333 107 48l-34 390l44 11l13 -169v0c2.66699 -31.333 11.667 -53 27 -65s40 -18 74 -18c28.667 0 52.167 1.83301 70.5 5.5s32.166 10.5 41.499 20.5l-7 213l42 1l4 -216
c8.66699 -9.33301 18.834 -15.666 30.501 -18.999s25.5 -5 41.5 -5c43.333 0 74.666 7.66699 93.999 23l-20 256l46 8c0 -24 1.33301 -60 4 -108z" />
    <glyph glyph-name="uni0635" unicode="&#x635;" horiz-adv-x="1240" 
d="M1114.5 304.5c25.667 -33 38.499 -83.167 38.499 -150.5c0 -22 -1.16699 -40 -3.5 -54s-7.5 -24 -15.5 -30c-24 -20 -64 -37.167 -120 -51.5s-122.333 -21.5 -199 -21.5c-34.667 0 -72.167 1.66699 -112.5 5s-74.166 10.333 -101.499 21l7 -107
c1.33301 -23.333 -9.83398 -44.666 -33.501 -63.999s-58.167 -34.666 -103.5 -45.999s-98.333 -17 -159 -17c-92 0.666992 -152 18.667 -180 54s-42 68.666 -42 99.999c0 16 4.33301 56.667 13 122s17.667 124.333 27 177l37 -8
c-7.33301 -42.667 -14.666 -89.5 -21.999 -140.5s-12.666 -92.167 -15.999 -123.5c-0.666992 -3.33301 -1 -8.33301 -1 -15c0 -46.667 18.833 -77.834 56.5 -93.501s80.5 -23.5 128.5 -23.5c58 0 108 4.66699 150 14s77.667 25.333 107 48l-34 390l44 11l18 -232
c11.333 -5.33301 21.333 -8.33301 30 -9c-1.33301 -1.33301 3 4 13 16c57.333 70 117.166 133.833 179.499 191.5s121.166 86.5 176.499 86.5c52.667 0 91.834 -16.5 117.501 -49.5zM1107 209c-4.66699 28.667 -15.502 51.999 -32.502 69.999s-42.5 27 -76.5 27
c-40.667 0 -90.667 -23.5 -150 -70.5s-118.666 -107.5 -177.999 -181.5c36.667 -6 86.334 -9 149.001 -9c104.667 0 202.667 18 294 54c0.666992 44.667 -1.33301 81.334 -6 110.001z" />
    <glyph glyph-name="uni0636" unicode="&#x636;" horiz-adv-x="1239" 
d="M842 466l-47 40l40 49l49 -41zM1114.5 304.5c25.667 -33 38.499 -83.167 38.499 -150.5c0 -22 -1.16699 -40 -3.5 -54s-7.5 -24 -15.5 -30c-24 -20 -64 -37.167 -120 -51.5s-122.333 -21.5 -199 -21.5c-34.667 0 -72.167 1.66699 -112.5 5s-74.166 10.333 -101.499 21
l7 -107c1.33301 -23.333 -9.83398 -44.666 -33.501 -63.999s-58.167 -34.666 -103.5 -45.999s-98.333 -17 -159 -17c-92 0.666992 -152 18.667 -180 54s-42 68.666 -42 99.999c0 16 4.33301 56.667 13 122s17.667 124.333 27 177l37 -8
c-7.33301 -42.667 -14.666 -89.5 -21.999 -140.5s-12.666 -92.167 -15.999 -123.5c-0.666992 -3.33301 -1 -8.33301 -1 -15c0 -46.667 18.833 -77.834 56.5 -93.501s80.5 -23.5 128.5 -23.5c58 0 108 4.66699 150 14s77.667 25.333 107 48l-34 390l44 11l18 -232
c11.333 -5.33301 21.333 -8.33301 30 -9c-1.33301 -1.33301 3 4 13 16c57.333 70 117.166 133.833 179.499 191.5s121.166 86.5 176.499 86.5c52.667 0 91.834 -16.5 117.501 -49.5zM1107 209c-4.66699 28.667 -15.502 51.999 -32.502 69.999s-42.5 27 -76.5 27
c-40.667 0 -90.667 -23.5 -150 -70.5s-118.666 -107.5 -177.999 -181.5c36.667 -6 86.334 -9 149.001 -9c104.667 0 202.667 18 294 54c0.666992 44.667 -1.33301 81.334 -6 110.001z" />
    <glyph glyph-name="uni0637" unicode="&#x637;" horiz-adv-x="793" 
d="M668 304.5c25.333 -33 37.999 -83.1689 37.999 -150.502c0 -22 -1.16699 -40 -3.5 -54s-7.16602 -24 -14.499 -30c-24 -20.667 -67.333 -37.5 -130 -50.5s-147.334 -19.5 -254.001 -19.5h-198l-20 48h87l23 30l9.5 12l12.5 16c8.66699 11.333 14.834 29.333 18.501 54
s5.5 71.334 5.5 140.001c0 86 -2.33301 209.333 -7 370l43 10l8 -391c0 -31.333 -0.666992 -56.166 -2 -74.499s-4.66602 -33.833 -9.99902 -46.5c114 124 206 186 276 186c53.333 0 92.666 -16.5 117.999 -49.5zM516.499 59.498
c57.667 7.66699 107.832 20.833 150.499 39.5c0 44.667 -2.33301 81.334 -7 110.001s-15.5 52 -32.5 70s-42.5 27 -76.5 27c-41.333 0 -91.833 -23.833 -151.5 -71.5s-119.167 -109.834 -178.5 -186.501h94c76.667 0 143.834 3.83301 201.501 11.5z" />
    <glyph glyph-name="uni0638" unicode="&#x638;" horiz-adv-x="793" 
d="M668 304.5c25.333 -33 37.999 -83.1689 37.999 -150.502c0 -22 -1.16699 -40 -3.5 -54s-7.16602 -24 -14.499 -30c-24 -20.667 -67.333 -37.5 -130 -50.5s-147.334 -19.5 -254.001 -19.5h-198l-20 48h87l23 30l9.5 12l12.5 16c8.66699 11.333 14.834 29.333 18.501 54
s5.5 71.334 5.5 140.001c0 86 -2.33301 209.333 -7 370l43 10l8 -391c0 -31.333 -0.666992 -56.166 -2 -74.499s-4.66602 -33.833 -9.99902 -46.5c114 124 206 186 276 186c53.333 0 92.666 -16.5 117.999 -49.5zM514.999 466.998l-48 40l41 49l49 -41zM516.499 59.498
c57.667 7.66699 107.832 20.833 150.499 39.5c0 44.667 -2.33301 81.334 -7 110.001s-15.5 52 -32.5 70s-42.5 27 -76.5 27c-41.333 0 -91.833 -23.833 -151.5 -71.5s-119.167 -109.834 -178.5 -186.501h94c76.667 0 143.834 3.83301 201.501 11.5z" />
    <glyph glyph-name="uni0639" unicode="&#x639;" horiz-adv-x="649" 
d="M86 -56c0 62.667 14.502 114.332 43.502 154.999s70.167 79.334 123.5 116.001c-30.667 41.333 -51.5 78 -62.5 110s-16.5 65.333 -16.5 100c0 28 16.167 50.333 48.5 67s68.5 25 108.5 25c16.667 0 30.334 -0.833008 41.001 -2.5s23.667 -4.16699 39 -7.5l-6 -42
c-28 4 -54.333 6 -79 6c-23.333 0 -44.5 -2.5 -63.5 -7.5s-36.833 -13.833 -53.5 -26.5c3.33301 -37.333 12.166 -74 26.499 -110s32.166 -67 53.499 -93l241 78l8 -45c-92 -28 -159.5 -50.167 -202.5 -66.5s-80.333 -37.333 -112 -63s-59.834 -61.167 -84.501 -106.5
c-6.66699 -33.333 -10 -64.333 -10 -93c0 -74 23 -129 69 -165s115 -54 207 -54h157l-5 -49h-153c-212 0 -318 91.333 -318 274z" />
    <glyph glyph-name="uni063A" unicode="&#x63a;" horiz-adv-x="649" 
d="M341 698l-42 -48l-47 41l40 49zM86 -56c0 62.667 14.502 114.332 43.502 154.999s70.167 79.334 123.5 116.001c-30.667 41.333 -51.5 78 -62.5 110s-16.5 65.333 -16.5 100c0 28 16.167 50.333 48.5 67s68.5 25 108.5 25c16.667 0 30.334 -0.833008 41.001 -2.5
s23.667 -4.16699 39 -7.5l-6 -42c-28 4 -54.333 6 -79 6c-23.333 0 -44.5 -2.5 -63.5 -7.5s-36.833 -13.833 -53.5 -26.5c3.33301 -37.333 12.166 -74 26.499 -110s32.166 -67 53.499 -93l241 78l8 -45c-92 -28 -159.5 -50.167 -202.5 -66.5s-80.333 -37.333 -112 -63
s-59.834 -61.167 -84.501 -106.5c-6.66699 -33.333 -10 -64.333 -10 -93c0 -74 23 -129 69 -165s115 -54 207 -54h157l-5 -49h-153c-212 0 -318 91.333 -318 274z" />
    <glyph glyph-name="uni0640" unicode="&#x640;" horiz-adv-x="216" 
d="M222.5 43c1.66699 -3.33301 2.5 -7.66797 2.5 -13.001v-11c0 -5.33301 -0.833008 -9.83301 -2.5 -13.5s-3.83398 -5.5 -6.50098 -5.5h-216c-2.66699 0 -5 2 -7 6s-3 8.33301 -3 13v11c0 4.66699 1 8.83398 3 12.501s4.33301 5.5 7 5.5h216
c2.66699 0 4.83398 -1.66699 6.50098 -5z" />
    <glyph glyph-name="uni0641" unicode="&#x641;" horiz-adv-x="852" 
d="M624 568l-47 40l41 49l49 -41zM764 168c0 -36 -1.16699 -62.334 -3.5 -79.001s-7.33301 -29.5 -15 -38.5s-20.167 -17.833 -37.5 -26.5c-24 -11.333 -60.5 -19.166 -109.5 -23.499s-116.833 -6.5 -203.5 -6.5c-101.333 0 -178 11.333 -230 34s-78 64.667 -78 126
c0 8.66699 1.33301 23 4 43l26 156l36 -7l-25 -152c-2 -12 -3 -23.333 -3 -34c0 -48 23.667 -79.5 71 -94.5s113 -22.5 197 -22.5c95.333 0 167.166 2.5 215.499 7.5s85.5 14.167 111.5 27.5c1.33301 10.667 2.66602 27.667 3.99902 51l2 23
c-37.333 -4.66699 -78.333 -7 -123 -7c-30.667 0 -52 1 -64 3c-11.333 2 -19.666 4.66699 -24.999 8s-11.333 9.66602 -18 18.999c-6 8 -9.66699 15.167 -11 21.5s-2 15.5 -2 27.5c0.666992 28 5.33398 59.333 14.001 94s23.5 65.334 44.5 92.001s48.833 40 83.5 40
c56.667 0 94 -25.667 112 -77s27 -106.333 27 -165v-40zM725 200.999c0 69.333 -8.33105 120.333 -24.998 153s-42.334 49 -77.001 49c-32.667 0 -58 -18.833 -76 -56.5s-27 -86.167 -27 -145.5c12.667 -5.33301 39.667 -8 81 -8c59.333 0 100.666 2.66699 123.999 8z" />
    <glyph glyph-name="uni0642" unicode="&#x642;" horiz-adv-x="734" 
d="M453 435l-45 39l39 47l47 -39zM562 432l-46 39l39 47l48 -39zM645 -36c0 -21.333 -0.833984 -38.3311 -2.50098 -50.998s-4.5 -22.334 -8.5 -29.001c-18.667 -32 -59.334 -55.833 -122.001 -71.5s-129.334 -23.5 -200.001 -23.5c-92 0 -152 17.833 -180 53.5
s-42 69.167 -42 100.5c0 15.333 4.33301 54.833 13 118.5s17.667 123.834 27 180.501l37 -8c-7.33301 -42.667 -14.666 -89.5 -21.999 -140.5s-12.666 -92.167 -15.999 -123.5c-0.666992 -3.33301 -1 -8.33301 -1 -15c0 -46.667 18.833 -77.834 56.5 -93.501
s80.5 -23.5 128.5 -23.5c142.667 0 240.667 21 294 63v35v69c-38.667 -4.66699 -80 -7 -124 -7c-31.333 0 -53 1 -65 3c-11.333 2 -19.5 4.66699 -24.5 8s-10.833 9.66602 -17.5 18.999c-6 8 -9.83301 15.333 -11.5 22s-2.5 16 -2.5 28
c0.666992 27.333 5.33398 58.5 14.001 93.5s23.5 65.667 44.5 92s48.5 39.5 82.5 39.5c91.333 0 138.333 -80.667 141 -242zM605.999 55.002c0 68 -8.49902 118.501 -25.499 151.501s-43.167 49.5 -78.5 49.5c-32.667 0 -57.834 -18.833 -75.501 -56.5
s-26.5 -85.834 -26.5 -144.501c12 -6 38.667 -9 80 -9c60.667 0 102.667 3 126 9z" />
    <glyph glyph-name="uni0643" unicode="&#x643;" horiz-adv-x="770" 
d="M553.5 57.5c39.667 6.33301 70.833 17.1699 93.5 32.5029l-29 578l43 10c3.33301 -84.667 7.33301 -178.667 12 -282c6 -132.667 9.66699 -226.334 11 -281.001c0.666992 -34.667 -14.666 -60.667 -45.999 -78c-46 -24.667 -128 -37 -246 -37
c-100.667 0 -176.834 11.333 -228.501 34s-77.5 65 -77.5 127c0 15.333 1.33301 29.666 4 42.999l26 155l36 -6l-25 -152c-2 -12.667 -3 -24.334 -3 -35.001c0 -48 23.833 -79.667 71.5 -95s113.167 -23 196.5 -23c68 0 121.833 3.16699 161.5 9.5zM397.499 344.504
c29 6.33301 51.8291 14.167 68.4961 23.5l1 15c0 14 -2.83301 23.833 -8.5 29.5s-17.167 10.167 -34.5 13.5c-18.667 4 -37 6.66699 -55 8c-18 2 -29.667 4.5 -35 7.5s-8 10.167 -8 21.5c0 12 4.33301 30.667 13 56s21.334 48.333 38.001 69s36.334 31 59.001 31
c27.333 0 51.666 -16 72.999 -48l-20 -17c-17.333 17.333 -34.333 26 -51 26c-20.667 0 -38.5 -11.333 -53.5 -34s-25.167 -47.334 -30.5 -74.001l22 -3c32.667 -4 56.834 -8 72.501 -12s28 -10.667 37 -20s13.5 -23.666 13.5 -42.999
c0.666992 -32 -17.166 -56.167 -53.499 -72.5s-86.166 -24.833 -149.499 -25.5l3 39c36.667 0 69.5 3.16699 98.5 9.5z" />
    <glyph glyph-name="uni0644" unicode="&#x644;" horiz-adv-x="665" 
d="M528 670l42.998 10l8 -761c0 -23.333 -11.5 -45 -34.5 -65s-55 -35.833 -96 -47.5s-86.833 -17.5 -137.5 -17.5c-92 0 -151.833 17.833 -179.5 53.5s-41.5 69.167 -41.5 100.5c0 15.333 4.33301 54.833 13 118.5s17.667 123.834 27 180.501l37 -8
c-7.33301 -42.667 -14.666 -89.5 -21.999 -140.5s-12.666 -92.167 -15.999 -123.5c-0.666992 -3.33301 -1 -8.33301 -1 -15c0 -46.667 18.667 -77.834 56 -93.501s80 -23.5 128 -23.5c39.333 0 81.5 5.16699 126.5 15.5s78.167 27.5 99.5 51.5z" />
    <glyph glyph-name="uni0645" unicode="&#x645;" horiz-adv-x="518" 
d="M86 -49c0 67.333 7.33301 117.999 22 151.999c6.66699 16.667 18.5 40 35.5 70s40 58.5 69 85.5s60.833 40.5 95.5 40.5c44 0 75.667 -16.833 95 -50.5s29 -75.167 29 -124.5c0 -26 -3 -54 -9 -84c-2.66699 -11.333 -6 -21 -10 -29s-10.333 -15.667 -19 -23
c-8.66699 -8 -19 -12 -31 -12c-7.33301 0 -16 2 -26 6l-202 91c-4.66699 -37.333 -7 -78.666 -7 -123.999c0 -56 4.33301 -134 13 -234l-41 -16c-9.33301 122.667 -14 206.667 -14 252zM388 61.499c3.33301 18.333 5 37.167 5 56.5c0 38 -6.83301 70 -20.5 96
s-35.167 39 -64.5 39c-22.667 0 -42.667 -5.66699 -60 -17s-32.666 -26.5 -45.999 -45.5s-29 -44.833 -47 -77.5l220 -97c5.33301 12 9.66602 27.167 12.999 45.5z" />
    <glyph glyph-name="uni0646" unicode="&#x646;" horiz-adv-x="694" 
d="M389 450l-42 -48l-47 41l40 49zM103 65c8.66699 65.333 17.667 124.333 27 177l37 -8c-7.33301 -42.667 -14.666 -89.5 -21.999 -140.5s-12.666 -92.167 -15.999 -123.5c-0.666992 -3.33301 -1 -8.33301 -1 -15c0 -46.667 18.833 -77.834 56.5 -93.501
s80.5 -23.5 128.5 -23.5c58 0 108 4.66699 150 14s77.667 25.333 107 48l-34 390l44 11c4.66699 -56 9.66699 -120.333 15 -193s9.66602 -136.667 12.999 -192c1.33301 -23.333 -9.83398 -44.666 -33.501 -63.999s-58.167 -34.666 -103.5 -45.999s-98.333 -17 -159 -17
c-92 0.666992 -152 18.667 -180 54s-42 68.666 -42 99.999c0 16 4.33301 56.667 13 122z" />
    <glyph glyph-name="uni0647" unicode="&#x647;" horiz-adv-x="471" 
d="M86 100c0 30.667 12.335 66.666 37.002 107.999s52 77 82 107l-39 26l22 35c52.667 -34.667 93.167 -68 121.5 -100s47.666 -62.667 57.999 -92s16.166 -62 17.499 -98c0.666992 -20 -2.33301 -36.333 -9 -49c-8 -13.333 -15.333 -21.666 -22 -24.999
c-28 -12 -73.667 -18 -137 -18c-87.333 0 -131 35.333 -131 106zM347.002 54.999l1.00098 23c0 82.667 -38.333 154 -115 214c-28.667 -28 -54.334 -61.833 -77.001 -101.5s-34 -69.5 -34 -89.5c0 -20.667 6.5 -35.5 19.5 -44.5s38.5 -13.833 76.5 -14.5
c55.333 0 98.333 4.33301 129 13z" />
    <glyph glyph-name="uni0648" unicode="&#x648;" horiz-adv-x="436" 
d="M321.5 227c18.333 -51.333 27.499 -106.667 27.499 -166c0 -76 -27.833 -140.5 -83.5 -193.5s-120.167 -93.833 -193.5 -122.5l-21 43c66 25.333 120.833 56.166 164.5 92.499s72.834 77.833 87.501 124.5c-32.667 -4 -71 -6 -115 -6c-31.333 0 -53 1 -65 3
c-11.333 2 -19.5 4.5 -24.5 7.5s-10.833 9.16699 -17.5 18.5c-6 8.66699 -9.83301 16.334 -11.5 23.001s-2.5 15.667 -2.5 27c0.666992 28 5.33398 59.5 14.001 94.5s23.5 65.667 44.5 92s48.5 39.5 82.5 39.5c57.333 0 95.166 -25.667 113.499 -77zM309.999 55.999
c0 68 -8.50098 118.501 -25.501 151.501s-42.833 49.5 -77.5 49.5c-32.667 0 -58.167 -18.833 -76.5 -56.5s-27.5 -85.834 -27.5 -144.501c12.667 -6 40.334 -9 83.001 -9c60.667 0 102 3 124 9z" />
    <glyph glyph-name="uni0649" unicode="&#x649;" horiz-adv-x="720" 
d="M132 -144.5c-28 35.667 -41.999 69.168 -41.999 100.501c0 16 4.33301 56.333 13 121s17.667 124 27 178l37 -8c-7.33301 -42.667 -14.666 -89.5 -21.999 -140.5s-12.666 -92.5 -15.999 -124.5c-0.666992 -3.33301 -1 -8.33301 -1 -15c0 -46 18.833 -76.833 56.5 -92.5
s80.5 -23.5 128.5 -23.5c59.333 0 109.666 4.83301 150.999 14.5s77.666 28.834 108.999 57.501c2.66699 23.333 4 45 4 65c0 27.333 -4.33301 46.166 -13 56.499s-24.667 17.5 -48 21.5c-26 4.66699 -52.667 8.33398 -80 11.001c-20.667 2.66699 -35.334 5 -44.001 7
s-15.167 5.83301 -19.5 11.5s-6.5 14.5 -6.5 26.5c0 48.667 8 95.834 24 141.501s38 82.834 66 111.501s59.333 43 94 43c20 0 37 -5 51 -15s25.167 -20 33.5 -30s14.166 -16.667 17.499 -20l-22 -21c-26.667 26 -53.334 39 -80.001 39c-25.333 0 -48.833 -11.5 -70.5 -34.5
s-39.167 -53.333 -52.5 -91s-21.333 -77.167 -24 -118.5c50.667 -4 90.334 -8.83301 119.001 -14.5s52 -16.334 70 -32.001s27 -39.167 27 -70.5c0 -28.667 -2.16699 -52.834 -6.5 -72.501s-12.166 -36.834 -23.499 -51.501c-24 -28.667 -59.833 -49.834 -107.5 -63.501
s-104.167 -20.5 -169.5 -20.5c-92 0 -152 17.833 -180 53.5z" />
    <glyph glyph-name="uni064A" unicode="&#x64a;" horiz-adv-x="720" 
d="M132 -144.5c-28 35.667 -41.999 69.168 -41.999 100.501c0 16 4.33301 56.333 13 121s17.667 124 27 178l37 -8c-7.33301 -42.667 -14.666 -89.5 -21.999 -140.5s-12.666 -92.5 -15.999 -124.5c-0.666992 -3.33301 -1 -8.33301 -1 -15c0 -46 18.833 -76.833 56.5 -92.5
s80.5 -23.5 128.5 -23.5c59.333 0 109.666 4.83301 150.999 14.5s77.666 28.834 108.999 57.501c2.66699 23.333 4 45 4 65c0 27.333 -4.33301 46.166 -13 56.499s-24.667 17.5 -48 21.5c-26 4.66699 -52.667 8.33398 -80 11.001c-20.667 2.66699 -35.334 5 -44.001 7
s-15.167 5.83301 -19.5 11.5s-6.5 14.5 -6.5 26.5c0 48.667 8 95.834 24 141.501s38 82.834 66 111.501s59.333 43 94 43c20 0 37 -5 51 -15s25.167 -20 33.5 -30s14.166 -16.667 17.499 -20l-22 -21c-26.667 26 -53.334 39 -80.001 39c-25.333 0 -48.833 -11.5 -70.5 -34.5
s-39.167 -53.333 -52.5 -91s-21.333 -77.167 -24 -118.5c50.667 -4 90.334 -8.83301 119.001 -14.5s52 -16.334 70 -32.001s27 -39.167 27 -70.5c0 -28.667 -2.16699 -52.834 -6.5 -72.501s-12.166 -36.834 -23.499 -51.501c-24 -28.667 -59.833 -49.834 -107.5 -63.501
s-104.167 -20.5 -169.5 -20.5c-92 0 -152 17.833 -180 53.5zM329.001 -374.999l-40 -47l-44 39l37 48zM438.001 -377.999l-40 -46l-45 38l37 48z" />
    <glyph glyph-name="uni064B" unicode="&#x64b;" 
d="M0 912l300 95l8 -32l-300 -95zM0 812l300 94l8 -32l-300 -95z" />
    <glyph glyph-name="uni064C" unicode="&#x64c;" 
d="M272 1031.5c18 -23.667 26.9961 -57.1631 26.9961 -100.496c0 -26.667 -4.33301 -46.5 -13 -59.5s-31.667 -27.333 -69 -43s-101.666 -37.5 -192.999 -65.5c-12.667 24 -21.167 41.833 -25.5 53.5s-6.5 24.5 -6.5 38.5c0 11.333 1.83301 27.166 5.5 47.499
s8.5 44.166 14.5 71.499l28 -9c-12.667 -52.667 -19 -88.667 -19 -108c0 -17.333 5 -36 15 -56l202 66c-37.333 -2 -73.333 0.666992 -108 8c-9.33301 1.33301 -17.666 7.66602 -24.999 18.999s-10.666 19.666 -9.99902 24.999c2.66699 33.333 11.834 66.333 27.501 99
s41.167 49 76.5 49c30.667 0 55 -11.833 73 -35.5zM267.996 928.004c0 29.333 -5.83203 54.334 -17.499 75.001s-28.834 31 -51.501 31c-24.667 -0.666992 -42.5 -14.834 -53.5 -42.501s-17.5 -54.167 -19.5 -79.5c8 -3.33301 23.167 -6.33301 45.5 -9s43.166 -4 62.499 -4
c14.667 0 25.334 1 32.001 3c1.33301 12 2 20.667 2 26z" />
    <glyph glyph-name="uni064D" unicode="&#x64d;" 
d="M-15 -70l299 94l9 -31l-300 -96zM-15 -170l299 94l9 -32l-300 -95z" />
    <glyph glyph-name="uni064E" unicode="&#x64e;" 
d="M0 785l300 95l8 -32l-300 -95z" />
    <glyph glyph-name="uni064F" unicode="&#x64f;" 
d="M276 1032c18 -23.333 26.9961 -56.3311 26.9961 -98.998c0 -27.333 -4.16699 -47.5 -12.5 -60.5s-31.166 -27.5 -68.499 -43.5s-102 -38 -194 -66l-8 32l222 72c-37.333 -2 -73.333 0.666992 -108 8c-9.33301 1.33301 -17.666 7.66602 -24.999 18.999
s-10.666 19.666 -9.99902 24.999c2.66699 33.333 11.834 66.333 27.501 99s41.167 49 76.5 49c30.667 0 55 -11.667 73 -35zM271.996 928.002c0 29.333 -5.8291 54.334 -17.4961 75.001s-28.834 31 -51.501 31c-24.667 -0.666992 -42.834 -15.334 -54.501 -44.001
s-17.834 -54.667 -18.501 -78c8 -3.33301 23.167 -6.33301 45.5 -9s43.166 -4 62.499 -4c14 0 24.667 1 32 3c1.33301 12 2 20.667 2 26z" />
    <glyph glyph-name="uni0650" unicode="&#x650;" 
d="M0 -59l300 95l8 -32l-300 -95z" />
    <glyph glyph-name="uni0651" unicode="&#x651;" 
d="M6.5 793c-8.33301 15.333 -12.167 31.333 -11.5 48c0.666992 4 1.66699 12.333 3 25s5.33301 42.667 12 90l29 -5l-14 -107c-2.66699 -24.667 9 -37 35 -37c18 0 32.167 0.666992 42.5 2s19.5 4.66602 27.5 9.99902l-1 116l32 2l1 -121c9.33301 -6 22.333 -9 39 -9
c30.667 0 52.667 4.66699 66 14c0.666992 18.667 -0.5 43.167 -3.5 73.5s-6.5 56.833 -10.5 79.5l26 8c6 -30.667 10 -56.667 12 -78s3.33301 -46.666 4 -75.999c-0.666992 -22 -10.834 -37.167 -30.501 -45.5s-40.5 -12.5 -62.5 -12.5c-14.667 0 -26.167 1.66699 -34.5 5
s-16.5 9.33301 -24.5 18c-8.66699 -6.66699 -21.167 -12.167 -37.5 -16.5s-31.166 -6.5 -44.499 -6.5c-28 0 -46.167 7.66699 -54.5 23z" />
    <glyph glyph-name="uni0652" unicode="&#x652;" 
d="M23 853c0 16.667 4.83496 31.5 14.502 44.5s22.167 22.833 37.5 29.5c12.667 5.33301 25.667 8 39 8c15.333 0 29.333 -4 42 -12s22 -20 28 -36c4.66699 -10 7 -22 7 -36c0 -16 -4.33301 -30.5 -13 -43.5s-21.667 -23.167 -39 -30.5l-40 -16
c-8.66699 -5.33301 -18.334 -8 -29.001 -8c-14.667 0 -25.334 6 -32.001 18l85 35c24.667 9.33301 37 23.333 37 42c0 6.66699 -1.66699 15 -5 25c-6.66699 19.333 -20 29 -40 29c-8.66699 0 -18 -1.66699 -28 -5c-22.667 -7.33301 -34 -21 -34 -41
c0 -5.33301 1.66699 -13 5 -23l-28 -13c-4.66699 11.333 -7 22.333 -7 33z" />
    <glyph glyph-name="uni0653" unicode="&#x653;" 
d="M220 747c-25.333 0.666992 -55 3 -89 7c-22 3.33301 -39 5 -51 5c-16.667 0 -27.5 -2.66699 -32.5 -8s-10.5 -17 -16.5 -35l-31 6c8 29.333 17.5 49 28.5 59s27.833 15 50.5 15c10.667 0 30.667 -2 60 -6c34 -4 61.667 -6.33301 83 -7l50 -2l-10 -35z" />
    <glyph glyph-name="uni0654" unicode="&#x654;" 
d="M7 794l97.998 31c-13.333 26 -22.666 47.5 -27.999 64.5s-8 34.167 -8 51.5c0 20 10.667 35.667 32 47s49.333 17 84 17c8.66699 0 17.667 -1 27 -3l-1 -32c-8 1.33301 -18.667 2 -32 2c-16 0 -31.167 -2 -45.5 -6s-25.166 -9 -32.499 -15c2 -42 13.667 -80 35 -114
l159 50l7 -33l-288 -92z" />
    <glyph glyph-name="uni0655" unicode="&#x655;" 
d="M7 -260l97.9971 31c-13.333 26 -22.666 47.333 -27.999 64s-8 33.667 -8 51c0 20 10.667 35.667 32 47s49.333 17 84 17c12 0 21 -0.666992 27 -2l-1 -32c-8 0.666992 -18.667 1 -32 1c-16 0 -31.167 -1.83301 -45.5 -5.5s-25.166 -8.5 -32.499 -14.5
c0.666992 -22 3.83398 -42.167 9.50098 -60.5s14.167 -36.5 25.5 -54.5l159 51l7 -33l-288 -93z" />
    <glyph glyph-name="uni0656" unicode="&#x656;" 
d="M-6 38l33 5l1 -146l-31 -1z" />
    <glyph glyph-name="uni0660" unicode="&#x660;" horiz-adv-x="454" 
d="M154.5 83c-21.667 12.667 -38.833 29.834 -51.5 51.501s-19 45.5 -19 71.5s6.33301 50 19 72s30 39.5 52 52.5s46.333 19.5 73 19.5c26 -0.666992 49.667 -7.5 71 -20.5s38.333 -30.333 51 -52s19 -45.5 19 -71.5s-6.33301 -49.833 -19 -71.5s-30 -38.834 -52 -51.501
s-46 -19 -72 -19s-49.833 6.33301 -71.5 19zM297.001 137.5c18.667 18.333 28 41.166 28 68.499c0 28 -9.33301 51.333 -28 70s-41.667 28 -69 28c-28.667 0 -52.167 -9.33301 -70.5 -28s-27.5 -42 -27.5 -70c0 -27.333 9.16699 -50.166 27.5 -68.499
s41.833 -27.5 70.5 -27.5c27.333 0 50.333 9.16699 69 27.5z" />
    <glyph glyph-name="uni0661" unicode="&#x661;" horiz-adv-x="288" 
d="M129 680c48 -170.667 72 -351 72 -541c0 -52 -1.33301 -98.333 -4 -139l-39 -6c2 39.333 3 78 3 116c0 189.333 -25 375.333 -75 558z" />
    <glyph glyph-name="uni0662" unicode="&#x662;" horiz-adv-x="506" 
d="M163 74c0 94.667 -6.49902 190.331 -19.499 286.998s-32.167 199 -57.5 307l43 12c8 -32.667 16.333 -71.334 25 -116.001l11 -53c5.33301 -26 12.166 -45.333 20.499 -58s18.833 -21.167 31.5 -25.5s30 -6.5 52 -6.5c56.667 0 95 7.66699 115 23l-9 229l44 5
c0.666992 -49.333 1 -123.666 1 -222.999c0 -32 -15 -53.833 -45 -65.5s-65.667 -17.5 -107 -17.5c-38 0 -66.333 8.66699 -85 26c12.667 -101.333 19 -196.666 19 -285.999c0 -37.333 -1 -74.666 -3 -111.999l-38 -6c1.33301 36 2 62.667 2 80z" />
    <glyph glyph-name="uni0663" unicode="&#x663;" horiz-adv-x="648" 
d="M562 454c0 -30 -13.665 -50.8301 -40.998 -62.4971s-54.666 -17.5 -81.999 -17.5c-36.667 0 -62.334 10.333 -77.001 31c-12.667 -10.667 -28.334 -18.334 -47.001 -23.001s-37.334 -7 -56.001 -7c-26.667 0 -49 6.66699 -67 20c18 -118 27 -237.333 27 -358v-37l-39 -6
v33c0 101.333 -8 204.666 -24 309.999s-39.333 215.666 -70 330.999l43 12v-1v2l2 -8c14.667 -53.333 27.667 -107 39 -161l9 -35c10 -35.333 36.333 -53 79 -53c17.333 0 31.833 1.33301 43.5 4s25.5 7.66699 41.5 15l-4 220h41l4 -224c14 -10.667 32.667 -16 56 -16
c18.667 0 34 1 46 3s24.667 6.66699 38 14l-8 233l45 6z" />
    <glyph glyph-name="uni0664" unicode="&#x664;" horiz-adv-x="497" 
d="M122 296c24 36 58.668 61.0039 104.001 75.0039c-54 13.333 -88.667 38.666 -104 75.999s-23 79 -23 125c0 37.333 16.833 64.166 50.5 80.499s77.5 24.5 131.5 24.5c34.667 0 67 -2.33301 97 -7l-8 -45c-20.667 3.33301 -46.334 5 -77.001 5c-34 0 -65 -2.66699 -93 -8
s-49 -13 -63 -23c0 -52.667 6 -93 18 -121s33.833 -48 65.5 -60s77.834 -17 138.501 -15l-1 -49c-65.333 -0.666992 -117.833 -15.334 -157.5 -44.001s-66.5 -64 -80.5 -106c-0.666992 -58.667 14.166 -98.167 44.499 -118.5s71.833 -30.5 124.5 -30.5
c73.333 0 120.333 2.33301 141 7l2 -49c-22 -4 -44 -6.66699 -66 -8s-50.667 -2 -86 -2c-70.667 0 -120.667 17.167 -150 51.5s-44 76.166 -44 125.499c0 41.333 12 80 36 116z" />
    <glyph glyph-name="uni0665" unicode="&#x665;" horiz-adv-x="646" 
d="M138.5 34c-35 23.333 -52.499 59.333 -52.499 108c0 47.333 12 106.833 36 178.5s53 134 87 187s65.667 79.5 95 79.5c43.333 0 84.666 -27.167 123.999 -81.5s71 -120.5 95 -198.5s36 -148.667 36 -212c0 -64 -85 -96 -255 -96c-75.333 0 -130.5 11.667 -165.5 35z
M439.501 56.5c35.667 6.33301 64.1631 16.5 85.4961 30.5c0.666992 51.333 -10.666 113.333 -33.999 186s-52.5 135.5 -87.5 188.5s-68.167 79.5 -99.5 79.5c-19.333 0 -43.666 -24.333 -72.999 -73s-55.166 -105 -77.499 -169s-33.5 -116 -33.5 -156
c0 -64 61.333 -96 184 -96c54.667 0 99.834 3.16699 135.501 9.5z" />
    <glyph glyph-name="uni0666" unicode="&#x666;" horiz-adv-x="504" 
d="M354.5 223.5c-3 73 -4.5 169.833 -4.5 290.5v96c-24 -1.33301 -47.333 -2 -70 -2c-90.667 0 -161 5 -211 15l-4 49c50.667 -10.667 116 -16 196 -16c44.667 0 87 2 127 6l-1 -163c0 -225.333 10.333 -388 31 -488l-42 -19c-11.333 81.333 -18.5 158.5 -21.5 231.5z" />
    <glyph glyph-name="uni0667" unicode="&#x667;" horiz-adv-x="648" 
d="M572 645c-76.667 -87.333 -134.166 -182.668 -172.499 -286.001s-57.833 -208.333 -58.5 -315v-44l-39 -6v56c0 49.333 -6.83301 106.333 -20.5 171s-37.334 134.834 -71.001 210.501s-78.5 149.167 -134.5 220.5l35 29c58 -84 103.667 -161.667 137 -233
s55.666 -146.666 66.999 -225.999l3 -31c0.666992 9.33301 2.33398 19.666 5.00098 30.999c12 77.333 36 153.333 72 228s84.333 151 145 229z" />
    <glyph glyph-name="uni0668" unicode="&#x668;" horiz-adv-x="648" 
d="M366.5 454c13.667 -64.667 37.333 -134.831 71 -210.498s78.5 -149.167 134.5 -220.5l-36 -29c-58 84.667 -103.667 162.667 -137 234s-55.666 146 -66.999 224l-3 32c-0.666992 -10.667 -2.33398 -21.334 -5.00098 -32.001c-12 -77.333 -36 -153.333 -72 -228
s-84.333 -151 -145 -229l-31 35c76.667 87.333 134.167 182.833 172.5 286.5s57.833 208.5 58.5 314.5v44l39 5v-56c0 -48.667 6.83301 -105.334 20.5 -170.001z" />
    <glyph glyph-name="uni0669" unicode="&#x669;" horiz-adv-x="505" 
d="M376 -8c-16 106 -24 223.666 -24 352.999c-41.333 -8.66699 -88 -13 -140 -13c-36 0 -63.333 1.33301 -82 4c-24 4.66699 -41.333 14.334 -52 29.001c-5.33301 8 -8.83301 16.167 -10.5 24.5s-2.16699 18.166 -1.5 29.499c0.666992 29.333 5 63.833 13 103.5
s23.667 76.334 47 110.001s56 50.5 98 50.5c62.667 0 105.834 -26.833 129.501 -80.5s35.5 -127.834 35.5 -222.501c0 -76 3.16699 -148.167 9.5 -216.5s13.166 -119.166 20.499 -152.499zM213 379.999c63.333 1.33301 109 5.33398 137 12.001
c0 85.333 -10.333 147.333 -31 186s-52.334 58 -95.001 58c-24 0 -45.167 -9.66699 -63.5 -29s-32.666 -47.333 -42.999 -84s-15.5 -80.334 -15.5 -131.001c20 -8 57 -12 111 -12z" />
    <glyph glyph-name="uni066A" unicode="&#x66a;" horiz-adv-x="685" 
d="M271 751c22 -22 33 -49.001 33 -81.001s-11 -59.167 -33 -81.5s-49.333 -33.5 -82 -33.5c-31.333 0.666992 -58 12.334 -80 35.001s-33 50 -33 82c0 31.333 11.167 57.833 33.5 79.5s48.833 32.5 79.5 32.5c32.667 0 60 -11 82 -33zM134 724.999
c-14.667 -14.667 -22 -33 -22 -55c0 -22.667 7.33301 -41.334 22 -56.001s33 -22 55 -22c22.667 0 41.5 7.33301 56.5 22s22.5 33.334 22.5 56.001c0 22 -7.5 40.333 -22.5 55s-33.833 22 -56.5 22c-22 0 -40.333 -7.33301 -55 -22zM116 20.999l399 685l44 -20l-397 -684z
M411 -35.501c-22 22.333 -33 49.167 -33 80.5s11.167 58.333 33.5 81s49.5 34 81.5 34c31.333 -1.33301 58 -13 80 -35s33 -48.667 33 -80c0.666992 -32 -10.333 -59 -33 -81s-50 -33 -82 -33c-31.333 0 -58 11.167 -80 33.5zM548.5 -10.5c15 15 22.5 33.5 22.5 55.5
s-7.5 40.5 -22.5 55.5s-33.5 22.5 -55.5 22.5c-22.667 0 -41.334 -7.5 -56.001 -22.5s-22 -33.5 -22 -55.5s7.33301 -40.5 22 -55.5s33.334 -22.5 56.001 -22.5c22 0 40.5 7.5 55.5 22.5z" />
    <glyph glyph-name="uni066B" unicode="&#x66b;" horiz-adv-x="242" 
d="M149.5 801c11 -11.333 16.498 -27.998 16.498 -49.998c0 -24.667 -6.66699 -52.834 -20 -84.501s-28.666 -59.834 -45.999 -84.501l-27 28c33.333 49.333 52.333 90 57 122c-5.33301 -2.66699 -11.666 -4 -18.999 -4c-13.333 0 -24.333 4.16699 -33 12.5
s-13 18.833 -13 31.5c0 13.333 4.33301 24.333 13 33s19.667 13 33 13c14.667 0 27.5 -5.66699 38.5 -17z" />
    <glyph glyph-name="uni066C" unicode="&#x66c;" horiz-adv-x="208" 
d="M-26 -195l199 334l40 -18l-196 -339z" />
    <glyph glyph-name="uni066D" unicode="&#x66d;" horiz-adv-x="567" 
d="M334 279l90 -123l-50 -36l-91 124l-90 -124l-51 36l88 123l-144 50l20 58l145 -46v153h64v-154l146 47l19 -58z" />
    <glyph glyph-name="uni066E" unicode="&#x66e;" horiz-adv-x="839" 
d="M750 93c0 -28 -17.667 -49 -53 -63c-56 -24 -156.667 -36 -302 -36c-101.333 0 -178 11.333 -230 34s-78 64.667 -78 126c0 8.66699 1.33301 23 4 43l26 156l36 -7l-25 -152c-2 -12 -3 -23.333 -3 -34c0 -48 23.667 -79.5 71 -94.5s113 -22.5 197 -22.5
c164 0 271.667 13.667 323 41l-17 243l43 11c5.33301 -97.333 8 -179 8 -245z" />
    </font>
</defs>
</svg>
