<?xml version="1.0" standalone="no"?>
<!DOCTYPE svg PUBLIC "-//W3C//DTD SVG 1.1//EN" "http://www.w3.org/Graphics/SVG/1.1/DTD/svg11.dtd" >
<svg>
<metadata>
Created by FontForge 20090914 at Sun Sep 22 22:31:21 2019
 By www-data
Copyright (c) 2018 by www.fontiran.com All rights reserved.
</metadata>
<defs>
<font id="Anjoman-SemiBold" horiz-adv-x="0" >
  <font-face 
    font-family="SemiBold"
    font-weight="600"
    font-stretch="normal"
    units-per-em="1000"
    panose-1="0 0 7 0 0 0 0 0 0 0"
    ascent="800"
    descent="-200"
    x-height="534"
    cap-height="711"
    bbox="-181 -780.998 1525 1481"
    underline-thickness="50"
    underline-position="-50"
    unicode-range="U+0020-U+FEFC"
  />
<missing-glyph horiz-adv-x="681" 
d="M558 -293h-431v1362h431v-1362zM229 978v-45h88v-51h-90v-45h227v45h-90v51h90v45h-225zM227 802v-142h227v47h-90v95h-137zM317 707h-45v49h45v-49zM227 624v-45h90v-51h-90v-45h137v96h90v45h-227zM409 542v-90h-182v-46h227v136h-45zM317 376v-77h47v32h45v-64h-137
v109h-45v-154h227v154h-137zM227 140v-154h227v154h-227zM409 31h-137v64h137v-64zM227 -45v-45h96l-96 -64v-45h227v45h-139l95 64h44v45h-227z" />
    <glyph glyph-name="uniFDF2" unicode="&#x627;&#xfedf;&#xfee0;&#xfeea;" horiz-adv-x="1453" arabic-form="isolated" 
d="M665 781l-3 174l73 11l1 -179zM552.5 534c-17 19.333 -25.5 41.6709 -25.5 67.0039c0 7.33301 1.33301 20.666 4 39.999c0.666992 6.66699 2 17 4 31s4.33301 34.333 7 61l56 -12l-12 -96c-3.33301 -22 10.667 -33 42 -33c22 0 37.333 2 46 6l-2 106l61 3l2 -111
c6 -2.66699 15.667 -4 29 -4c16 0 28.167 0.666992 36.5 2s17.5 4.66602 27.5 9.99902c-0.666992 19.333 -3 41.5 -7 66.5s-9 46.833 -15 65.5l60 23c6 -22.667 10.833 -48.334 14.5 -77.001s5.5 -56.334 5.5 -83.001c0 -31.333 -11.333 -54.833 -34 -70.5
s-52 -23.5 -88 -23.5c-14 0 -25.667 1.5 -35 4.5s-18.333 8.16699 -27 15.5c-30 -13.333 -56.667 -20 -80 -20c-29.333 0 -52.5 9.66699 -69.5 29zM1366 0.00488281l-88 -13l-23 733l105 23zM1117 506.005l11.501 -161c5.66699 -78.667 9.16699 -139.334 10.5 -182.001
c0.666992 -24 -4.33301 -46.333 -15 -67s-26.334 -37.667 -47.001 -51c-24 -14 -53.667 -25 -89 -33s-67.333 -12 -96 -12c-39.333 0 -74.333 4.5 -105 13.5s-53.334 21.833 -68.001 38.5c-24 -20.667 -51.667 -34.5 -83 -41.5s-70.333 -10.5 -117 -10.5
c-45.333 0 -82.166 8.16699 -110.499 24.5s-46.833 45.166 -55.5 86.499c-6.66699 -15.333 -13.334 -26 -20.001 -32s-13.667 -9.33301 -21 -10c-18.667 -1.33301 -33.667 -2 -45 -2c-8.66699 0 -27 0.666992 -55 2c-43.333 3.33301 -75.166 13.333 -95.499 30
s-30.5 42 -30.5 76c0 7.33301 0.333008 13 1 17c5.33301 64 26.333 114.833 63 152.5s93 66.834 169 87.501l-1 76l101 20l3 -279c0.666992 -33.333 3.66699 -57.833 9 -73.5s14.5 -26.334 27.5 -32.001s33.167 -8.5 60.5 -8.5c68.667 0 121 4.66699 157 14l-15 237l102 20
l4 -195c0.666992 -28.667 7.5 -48.167 20.5 -58.5s35.167 -16.166 66.5 -17.499h38c29.333 0 58.333 2.33301 87 7s53 11.334 73 20.001l-49 470l102 28c3.33301 -52.667 7.33301 -104 12 -154zM258.001 191.005c23.333 0 48.667 3 76 9l-5 126
c-52 -8.66699 -90.167 -23.334 -114.5 -44.001s-38.5 -47 -42.5 -79c17.333 -5.33301 35 -8.66602 53 -9.99902c14.667 -1.33301 25.667 -2 33 -2z" />
    <glyph glyph-name="uniFEF5" unicode="&#xfedf;&#xfe82;" horiz-adv-x="502" arabic-form="isolated" 
d="M177 653c-36.667 0.666992 -75.001 4 -115.001 10c-21.333 2.66699 -34.333 4 -39 4c-11.333 0 -19.666 -3 -24.999 -9s-10.666 -19 -15.999 -39l-75 19c8.66699 35.333 18 62.5 28 81.5s21.667 32.333 35 40s30.666 11.5 51.999 11.5c13.333 0 32.333 -1.66699 57 -5
c40.667 -5.33301 79.667 -8.33301 117 -9l56 -2l-24 -103zM213.499 130.5c59 17 95.833 32.833 110.5 47.5l-24 542l106 23l9 -562c0.666992 -69.333 -37.5 -121.333 -114.5 -156s-167.833 -57 -272.5 -67l-14 136c74 7.33301 140.5 19.5 199.5 36.5zM183.999 372.5
c8 -63.667 12.333 -131.166 13 -202.499l-84 -14c-2 139.333 -23.333 256.666 -64 351.999l85 56c25.333 -64 42 -127.833 50 -191.5z" />
    <glyph glyph-name="uniFEF6" unicode="&#xfee0;&#xfe82;" horiz-adv-x="581" arabic-form="final" 
d="M173 653c-36 0.666992 -74.002 4 -114.002 10c-21.333 2.66699 -34.666 4 -39.999 4c-11.333 0 -19.666 -3 -24.999 -9s-10.666 -19 -15.999 -39l-75 19c8.66699 35.333 18 62.5 28 81.5s21.667 32.333 35 40s30.666 11.5 51.999 11.5c13.333 0 32.333 -1.66699 57 -5
c40.667 -5.33301 79.667 -8.33301 117 -9l56 -2l-24 -103zM587.998 122.5c2 -8.33301 3.00293 -18.502 3.00293 -30.502v-49c0 -12 -1 -22.167 -3 -30.5s-4.33301 -12.5 -7 -12.5h-58c-38.667 0 -69.167 5.83301 -91.5 17.5s-38.833 30.5 -49.5 56.5
c-34 -33.333 -81.833 -59.166 -143.5 -77.499s-127.834 -31.166 -198.501 -38.499l-13 136c73.333 7.33301 139.666 19.5 198.999 36.5s96.333 32.833 111 47.5l-24 542l105 23l10 -540c2.66699 -27.333 11.167 -45.5 25.5 -54.5s37.166 -13.5 68.499 -13.5h59
c2.66699 0 5 -4.16699 7 -12.5zM146.001 563.998c26 -64 42.8311 -127.499 50.498 -190.499s11.834 -130.833 12.501 -203.5l-84 -14c-0.666992 58.667 -5.16699 117.667 -13.5 177s-25.166 117.666 -50.499 174.999z" />
    <glyph glyph-name="uniFEF7" unicode="&#xfedf;&#xfe84;" horiz-adv-x="510" arabic-form="isolated" 
d="M-98 673l94.001 33c-25.333 46 -37 87.333 -35 124c1.33301 32.667 14 58 38 76s55 27 93 27c21.333 0 41.666 -2.33301 60.999 -7l-15 -78c-20 3.33301 -36.333 5 -49 5c-28 1.33301 -50 -2 -66 -10c0 -38.667 14 -77 42 -115l166 51l12 -79l-327 -105zM221.501 130.5
c59 17 95.833 32.833 110.5 47.5l-24 542l105 23l10 -562c0.666992 -69.333 -37.5 -121.333 -114.5 -156s-167.833 -57 -272.5 -67l-14 136c74 7.33301 140.5 19.5 199.5 36.5zM192.001 371c8 -64.667 12 -131.667 12 -201l-83 -14c-2 140 -23.667 257.333 -65 352l86 56
c25.333 -64 42 -128.333 50 -193z" />
    <glyph glyph-name="uniFEF8" unicode="&#xfee0;&#xfe84;" horiz-adv-x="588" arabic-form="final" 
d="M255 700l-327.001 -105l-13 78l93 33c-23.333 44 -35 83.333 -35 118s12 61.5 36 80.5s55.667 28.5 95 28.5c20.667 0 41.334 -2.33301 62.001 -7l-16 -78c-18.667 3.33301 -35 5 -49 5c-28 1.33301 -49.667 -2 -65 -10c0 -40 13.667 -78.333 41 -115l166 51z
M594.999 122.5c2 -8.33301 3.00195 -18.502 3.00195 -30.502v-49c0 -12 -1 -22.167 -3 -30.5s-4.33301 -12.5 -7 -12.5h-57c-38.667 0 -69.167 5.83301 -91.5 17.5s-38.833 30.5 -49.5 56.5c-34 -33.333 -81.833 -59.166 -143.5 -77.499s-127.834 -31.166 -198.501 -38.499
l-14 136c73.333 7.33301 139.666 19.5 198.999 36.5s96.666 32.833 111.999 47.5l-25 542l106 23l9 -529c0.666992 -32 8.33398 -53.167 23.001 -63.5s38.667 -15.5 72 -15.5h58c2.66699 0 5 -4.16699 7 -12.5zM119.501 332.998
c-8.33301 59.333 -25.168 117.667 -50.501 175l85 56c26 -64 42.833 -127.5 50.5 -190.5s11.834 -130.833 12.501 -203.5l-84 -14c-0.666992 58.667 -5.16699 117.667 -13.5 177z" />
    <glyph glyph-name="uniFEF9" unicode="&#xfedf;&#xfe88;" horiz-adv-x="547" arabic-form="isolated" 
d="M236.5 129c58.333 16 97.834 32.333 118.501 49l-24 542l106 23l10 -562c0.666992 -69.333 -37.5 -121 -114.5 -155s-168.167 -56.333 -273.5 -67l-14 135c69.333 7.33301 133.166 19 191.499 35zM204.001 441c16 -86.667 24 -177 24 -271l-84 -14
c-2 197.333 -42.667 350 -122 458l78 73c53.333 -77.333 88 -159.333 104 -246zM92.001 -365l92.9971 33c-24.667 46 -36 87.333 -34 124c0.666992 34 14.334 60 41.001 78s60.334 26 101.001 24c16.667 0 33.334 -2 50.001 -6l-16 -78l-22 3c-10 1.33301 -19 2 -27 2
c-28 1.33301 -49.667 -2 -65 -10c0 -38.667 13.667 -77 41 -115l167 51l12 -79l-328 -105z" />
    <glyph glyph-name="uniFEFA" unicode="&#xfee0;&#xfe88;" horiz-adv-x="599" arabic-form="final" 
d="M606 122.5c2 -8.33301 3.00195 -18.501 3.00195 -30.501v-49c0 -12 -1 -22.167 -3 -30.5s-4.33301 -12.5 -7 -12.5h-57c-38.667 0 -69.167 5.83301 -91.5 17.5s-38.833 30.5 -49.5 56.5c-60 -59.333 -174 -97.666 -342 -114.999l-14 135
c69.333 7.33301 133.166 19 191.499 35s97.833 32.333 118.5 49l-24 542l106 23l10 -540c2.66699 -27.333 11.167 -45.5 25.5 -54.5s37.166 -13.5 68.499 -13.5h58c2.66699 0 5 -4.16699 7 -12.5zM144.002 155.999c-2 197.333 -42.667 350 -122 458l78 73
c53.333 -77.333 88 -159.333 104 -246s24 -177 24 -271zM421.002 -259.001l11.9971 -79l-328 -105l-13 78l93 33c-24.667 46 -36 87.333 -34 124c0.666992 34 14.334 60 41.001 78s60.334 26 101.001 24c16.667 0 33.334 -2 50.001 -6l-16 -78l-22 3
c-10 1.33301 -19 2 -27 2c-28 1.33301 -49.667 -2 -65 -10c0 -38.667 13.667 -77 41 -115z" />
    <glyph glyph-name="uniFEFB" unicode="&#xfedf;&#xfe8e;" horiz-adv-x="533" arabic-form="isolated" 
d="M236.5 129c58.333 16 97.834 32.333 118.501 49l-24 542l106 23l10 -562c0.666992 -69.333 -37.5 -121 -114.5 -155s-168.167 -56.333 -273.5 -67l-14 135c69.333 7.33301 133.166 19 191.499 35zM204.001 441c16 -86.667 24 -177 24 -271l-84 -14
c-2 197.333 -42.667 350 -122 458l78 73c53.333 -77.333 88 -159.333 104 -246z" />
    <glyph glyph-name="uniFEFC" unicode="&#xfee0;&#xfe8e;" horiz-adv-x="599" arabic-form="final" 
d="M606 122.5c2 -8.33301 3.00195 -18.501 3.00195 -30.501v-49c0 -12 -1 -22.167 -3 -30.5s-4.33301 -12.5 -7 -12.5h-57c-38.667 0 -69.167 5.83301 -91.5 17.5s-38.833 30.5 -49.5 56.5c-60 -59.333 -174 -97.666 -342 -114.999l-14 135
c69.333 7.33301 133.166 19 191.499 35s97.833 32.333 118.5 49l-24 542l106 23l10 -540c2.66699 -27.333 11.167 -45.5 25.5 -54.5s37.166 -13.5 68.499 -13.5h58c2.66699 0 5 -4.16699 7 -12.5zM144.002 155.999c-2 197.333 -42.667 350 -122 458l78 73
c53.333 -77.333 88 -159.333 104 -246s24 -177 24 -271z" />
    <glyph glyph-name="uni06440671" unicode="&#xfedf;&#xfb51;" horiz-adv-x="561" 
d="M23 627.5c-20 7.66699 -30.001 21.1689 -30.001 40.502v38c-18.667 -16.667 -36 -40.667 -52 -72l-50 27c1.33301 10.667 9.33301 26.167 24 46.5s33 38.166 55 53.499s45 22 69 20v-79c4 -2 7.33301 -3 10 -3c24 32 47.5 59 70.5 81s47.5 33 73.5 33
c57.333 0 86 -34.667 86 -104c0 -19.333 -4.33301 -34.333 -13 -45c-13.333 -14.667 -34.166 -26.334 -62.499 -35.001s-58.833 -13 -91.5 -13c-39.333 0 -69 3.83301 -89 11.5zM223.999 703.002c0 15.333 -2.49902 26.501 -7.49902 33.501s-13.833 10.5 -26.5 10.5
c-24.667 0 -54.334 -20 -89.001 -60c44 -0.666992 85 4.66602 123 15.999zM272.5 130.503c59 17 95.833 32.833 110.5 47.5l-24 542l105 23l10 -562c0.666992 -69.333 -37.5 -121.333 -114.5 -156s-167.833 -57 -272.5 -67l-14 136c74 7.33301 140.5 19.5 199.5 36.5z
M243 371.003c8 -64.667 12 -131.667 12 -201l-83 -14c-2 140 -23.667 257.333 -65 352l86 56c25.333 -64 42 -128.333 50 -193z" />
    <glyph glyph-name="uni06440671.fina" unicode="&#xfee0;&#xfb51;" horiz-adv-x="611" 
d="M198.5 634.5c-28.333 -8.33301 -59.167 -12.5 -92.5 -12.5c-38.667 0 -68.167 3.83301 -88.5 11.5s-30.5 20.834 -30.5 39.501v38c-18.667 -16.667 -36 -40.667 -52 -72l-50 27c2 10.667 10.333 26.167 25 46.5s33 38.166 55 53.499s45 22 69 20v-78c2 -2 5 -3 9 -3
c2 2 11.167 13.667 27.5 35s35.166 39.666 56.499 54.999s41.333 23 60 23c57.333 0 86 -34.333 86 -103c0 -19.333 -4 -34.666 -12 -45.999c-13.333 -14.667 -34.166 -26.167 -62.499 -34.5zM217.999 708c0 16 -2.33203 27.334 -6.99902 34.001s-13.667 10 -27 10
c-24.667 0 -54.334 -20 -89.001 -60c44 -0.666992 85 4.66602 123 15.999zM618 122.501c2 -8.33301 3.00098 -18.502 3.00098 -30.502v-49c0 -12 -1 -22.167 -3 -30.5s-4.33301 -12.5 -7 -12.5h-58c-38.667 0 -69 5.83301 -91 17.5s-38.333 30.5 -49 56.5
c-34 -33.333 -81.833 -59.166 -143.5 -77.499s-128.167 -31.166 -199.5 -38.499l-13 136c74 7.33301 140.5 19.5 199.5 36.5s95.833 32.833 110.5 47.5l-24 542l105 23l10 -529c0.666992 -32 8.16699 -53.167 22.5 -63.5s38.166 -15.5 71.499 -15.5h59
c2.66699 0 5 -4.16699 7 -12.5zM91.001 507.999l85 56c26 -64 43 -128.333 51 -193s12 -131.667 12 -201l-83 -14c-2 140 -23.667 257.333 -65 352z" />
    <glyph glyph-name="uni066E.init" unicode="&#x66e;" horiz-adv-x="357" 
d="M267.5 290.5c1.66699 -39 2.49902 -82.832 2.49902 -131.499c0 -49.333 -21 -87.333 -63 -114c-24.667 -14.667 -55.5 -25.834 -92.5 -33.501s-75.167 -11.5 -114.5 -11.5c-2.66699 0 -5.16699 4.16699 -7.5 12.5s-3.5 18.5 -3.5 30.5v49c0 12 1 22.167 3 30.5
s4.66699 12.5 8 12.5c44 0 80 2.16699 108 6.5s51.667 11.5 71 21.5l-24 224l106 18c2.66699 -37.333 4.83398 -75.5 6.50098 -114.5z" />
    <glyph glyph-name="uni066E.medi" unicode="&#x66e;" horiz-adv-x="389" 
d="M396 122.5c2 -8.33301 2.99902 -18.5 2.99902 -30.5v-49c0 -12 -1 -22.167 -3 -30.5s-4.33301 -12.5 -7 -12.5c-60.667 -0 -105 5.33301 -133 16s-46.333 28.667 -55 54c-14 -26 -36.5 -44.167 -67.5 -54.5s-75.5 -15.5 -133.5 -15.5
c-2.66699 0 -5.16699 4.16699 -7.5 12.5s-3.5 18.5 -3.5 30.5v49c0 12 1 22.167 3 30.5s4.66699 12.5 8 12.5c36.667 0 67.334 1.83301 92.001 5.5s45.334 10.167 62.001 19.5l-21 192l106 11l11 -211c10.667 -6.66699 26.167 -11.167 46.5 -13.5s51.166 -3.5 92.499 -3.5
c2.66699 0 5 -4.16699 7 -12.5z" />
    <glyph glyph-name="uni066E.fina" unicode="&#x66e;" horiz-adv-x="920" 
d="M927 122.5c2 -8.33301 3.00098 -18.501 3.00098 -30.501v-49c0 -12 -1 -22.167 -3 -30.5s-4.33301 -12.5 -7 -12.5c-48.667 0 -87.5 6 -116.5 18s-47.5 28.667 -55.5 50c-6.66699 -11.333 -15.834 -20.333 -27.501 -27s-28.5 -13 -50.5 -19
c-29.333 -8 -66 -14.333 -110 -19s-89 -7 -135 -7c-74.667 0 -136.5 5.5 -185.5 16.5s-86.833 30.833 -113.5 59.5s-40 68.334 -40 119.001c0 18 2 38 6 60l26 155l82 -17l-23 -137c-2 -12 -3 -22 -3 -30c0 -27.333 8.5 -47.5 25.5 -60.5s41.667 -21.333 74 -25
s78.833 -5.5 139.5 -5.5c66 0 123 2.16699 171 6.5s91.667 12.5 131 24.5l-17 165l103 11l10 -185c26 -12 62.333 -18 109 -18c2.66699 0 5 -4.16699 7 -12.5z" />
    <glyph glyph-name="uni066F.fina" unicode="&#x66f;" horiz-adv-x="832" 
d="M839 122.5c2 -8.33301 2.99121 -18.502 2.99121 -30.502v-49c0 -12 -1 -22.167 -3 -30.5s-4.33301 -12.5 -7 -12.5h-115c-1.33301 -42 -4.66602 -72.667 -9.99902 -92s-15.666 -36.666 -30.999 -51.999c-63.333 -60.667 -176 -91 -338 -91c-96 0 -162 18.833 -198 56.5
s-54 83.834 -54 138.501c0 16.667 3.83301 49.5 11.5 98.5s15.834 98.167 24.501 147.5c0.666992 4.66699 5 31 13 79l83 -18c-11.333 -65.333 -20.166 -120 -26.499 -164s-10.5 -82 -12.5 -114c-2 -35.333 14.333 -59 49 -71s73.334 -18 116.001 -18
c66.667 0 122.834 3.16699 168.501 9.5s83.5 16.833 113.5 31.5c3.33301 23.333 5 46.333 5 69c-32 -8 -69.667 -12 -113 -12c-29.333 0 -54.666 2.33301 -75.999 7c-10 2.66699 -18.833 7 -26.5 13s-15.5 16 -23.5 30c-10 15.333 -16.667 27.333 -20 36
s-4.66602 18.667 -3.99902 30c3.33301 72 19 134.5 47 187.5s71 79.5 129 79.5c58.667 0 101.334 -24 128.001 -72s41.667 -106 45 -174h115c2.66699 0 5 -4.16699 7 -12.5zM627.991 121.998c0 95.333 -29.668 143.001 -89.001 143.001c-25.333 0 -45.333 -12.333 -60 -37
s-22.667 -60.334 -24 -107.001c14.667 -3.33301 41.667 -5 81 -5c40.667 0 71.334 2 92.001 6z" />
    <glyph glyph-name="uni06A1.init" unicode="&#x6a1;" horiz-adv-x="490" 
d="M399.5 159c-3.66699 -33.333 -11.002 -60.1689 -22.002 -80.502s-27.833 -36.5 -50.5 -48.5c-22 -11.333 -51 -19.166 -87 -23.499s-81.333 -6.5 -136 -6.5h-104c-2.66699 0 -5.16699 4.16699 -7.5 12.5s-3.5 18.5 -3.5 30.5v49c0 12 1 22.167 3 30.5
s4.66699 12.5 8 12.5c98 0 168.833 1.16699 212.5 3.5s75.167 6.5 94.5 12.5l3 39l2 22c-33.333 -8 -69.666 -12 -108.999 -12c-24 0 -49 2.33301 -75 7c-10.667 2.66699 -19.667 7.16699 -27 13.5s-15.666 16.5 -24.999 30.5c-9.33301 14.667 -15.5 26.334 -18.5 35.001
s-4.5 18.667 -4.5 30c3.33301 72 19 134.5 47 187.5s71 79.5 129 79.5c43.333 0 78 -14.5 104 -43.5s44.333 -64.667 55 -107s16 -85.833 16 -130.5c0.666992 -62 -0.833008 -109.667 -4.5 -143zM220.998 316.997c36.667 0 67.666 2.33203 92.999 6.99902
c0 95.333 -30 143 -90 143c-26 0 -46.167 -12.167 -60.5 -36.5s-22.166 -60.166 -23.499 -107.499c24 -4 51 -6 81 -6z" />
    <glyph glyph-name="uni06A1.medi" unicode="&#x6a1;" horiz-adv-x="475" 
d="M482 122.5c2 -8.33301 3 -18.501 3 -30.501v-49c0 -12 -1 -22.167 -3 -30.5s-4.33301 -12.5 -7 -12.5h-73c-38 0 -70 4.33301 -96 13s-47.667 22.667 -65 42c-36.667 -36.667 -98.334 -55 -185.001 -55h-56c-2.66699 0 -5.16699 4.16699 -7.5 12.5s-3.5 18.5 -3.5 30.5
v49c0 12 1 22.167 3 30.5s4.66699 12.5 8 12.5h68c25.333 0 42.333 0.333008 51 1c-14 10 -26.167 22.167 -36.5 36.5s-15.5 27.833 -15.5 40.5c0 26.667 9.83301 58.834 29.5 96.501s44.167 70.167 73.5 97.5s57 41 83 41c28.667 0 55.5 -10.833 80.5 -32.5
s45 -50.5 60 -86.5s22.5 -74.667 22.5 -116c0 -22 -3.5 -39.167 -10.5 -51.5s-17.833 -21.5 -32.5 -27.5c8.66699 0.666992 21.334 1 38.001 1h64c2.66699 0 5 -4.16699 7 -12.5zM326 196.999c-2 34 -9.83301 64.167 -23.5 90.5s-30.167 39.5 -49.5 39.5
c-11.333 0 -24.5 -6.16699 -39.5 -18.5s-28 -26.5 -39 -42.5s-16.5 -29 -16.5 -39c0 -10.667 7.33301 -23 22 -37s32.667 -27.667 54 -41z" />
    <glyph glyph-name="uni06A1.fina" unicode="&#x6a1;" horiz-adv-x="1005" 
d="M1012 122.5c2 -8.33301 2.99902 -18.5029 2.99902 -30.5029v-49c0 -12 -1 -22.167 -3 -30.5s-4.33301 -12.5 -7 -12.5h-72c-76 0 -133.667 19.333 -173 58c-15.333 -13.333 -37.333 -24.666 -66 -33.999c-30 -12 -65 -19.667 -105 -23s-94.667 -5 -164 -5
c-74.667 0 -136.5 5.5 -185.5 16.5s-86.833 30.833 -113.5 59.5s-40 68.334 -40 119.001c0 18 2 38 6 60l26 155l82 -17l-23 -137c-2 -12 -3 -22 -3 -30c0 -27.333 8.5 -47.5 25.5 -60.5s41.667 -21.333 74 -25s78.833 -5.5 139.5 -5.5c86 0 145.333 1.16699 178 3.5
s51.334 3.5 56.001 3.5c-14 10.667 -25.667 22.834 -35 36.501s-14 26.5 -14 38.5c0 26.667 9.83301 58.834 29.5 96.501s44.167 70.167 73.5 97.5s57 41 83 41c28.667 0 55.5 -10.833 80.5 -32.5s45 -50.5 60 -86.5s22.5 -74.667 22.5 -116
c0 -22.667 -3 -39.334 -9 -50.001s-17.333 -20 -34 -28h37h64c2.66699 0 5 -4.16699 7 -12.5zM855.999 199.997c-2 32.667 -9.83301 62 -23.5 88s-29.834 39 -48.501 39c-11.333 0 -24.666 -6.16699 -39.999 -18.5s-28.5 -26.5 -39.5 -42.5s-16.5 -29 -16.5 -39
c0 -10.667 7.33301 -23 22 -37s32.667 -27.667 54 -41z" />
    <glyph glyph-name="uniFB51" unicode="&#x671;" horiz-adv-x="318" arabic-form="final" 
d="M243 703.5c-32 -9.66699 -66.3301 -14.501 -102.997 -14.501c-43.333 0 -76.333 4.33301 -99 13s-34 23.334 -34 44.001v44c-21.333 -18 -41 -45.333 -59 -82l-55 30c2 12 11.167 29.333 27.5 52s36.666 42.5 60.999 59.5s49.833 24.167 76.5 21.5v-89
c4 -2 7.66699 -3 11 -3l30.5 40c18.333 24 39.666 44.833 63.999 62.5s47.166 26.5 68.499 26.5c63.333 0 95 -38.667 95 -116c0 -22 -4.33301 -38.667 -13 -50c-15.333 -16 -39 -28.833 -71 -38.5zM127.003 765.999c49.333 -2 96.001 4 140.001 18
c0 18.667 -2.83301 32 -8.5 40s-15.834 12 -30.501 12c-28 0 -61.667 -23.333 -101 -70zM325.004 122.499c2 -8.33301 3 -18.502 3 -30.502v-49c0 -12 -1 -22.167 -3 -30.5s-4.33301 -12.5 -7 -12.5h-27c-46 0 -83.333 6.83301 -112 20.5s-50.5 36.334 -65.5 68.001
s-23.167 75.167 -24.5 130.5l-12 371l105 22l8 -393c0.666992 -25.333 7.66699 -45.666 21 -60.999s33 -23 59 -23h48c2.66699 0 5 -4.16699 7 -12.5z" />
    <glyph glyph-name="uniFB57" unicode="&#x67e;" horiz-adv-x="920" arabic-form="final" 
d="M927 122.5c2 -8.33301 3.00098 -18.501 3.00098 -30.501v-49c0 -12 -1 -22.167 -3 -30.5s-4.33301 -12.5 -7 -12.5c-48.667 0 -87.5 6 -116.5 18s-47.5 28.667 -55.5 50c-6.66699 -11.333 -15.834 -20.333 -27.501 -27s-28.5 -13 -50.5 -19
c-29.333 -8 -66 -14.333 -110 -19s-89 -7 -135 -7c-74.667 0 -136.5 5.5 -185.5 16.5s-86.833 30.833 -113.5 59.5s-40 68.334 -40 119.001c0 18 2 38 6 60l26 155l82 -17l-23 -137c-2 -12 -3 -22 -3 -30c0 -27.333 8.5 -47.5 25.5 -60.5s41.667 -21.333 74 -25
s78.833 -5.5 139.5 -5.5c66 0 123 2.16699 171 6.5s91.667 12.5 131 24.5l-17 165l103 11l10 -185c26 -12 62.333 -18 109 -18c2.66699 0 5 -4.16699 7 -12.5zM514.001 -116.001l87 -72l-73 -86l-86 72zM366.001 -277.001l-85 72l72 87l86 -73zM434.001 -267.001l87 -73
l-72 -86l-86 72z" />
    <glyph glyph-name="uniFB58" unicode="&#x67e;" horiz-adv-x="357" arabic-form="initial" 
d="M-7.5 12.5c-2.33301 8.33301 -3.50098 18.501 -3.50098 30.501v49c0 12 1 22.167 3 30.5s4.66699 12.5 8 12.5c44 0 80 2.16699 108 6.5s51.667 11.5 71 21.5l-24 224l106 18c2.66699 -37.333 4.83398 -75.5 6.50098 -114.5s2.5 -82.833 2.5 -131.5
c0 -49.333 -21 -87.333 -63 -114c-24.667 -14.667 -55.5 -25.834 -92.5 -33.501s-75.167 -11.5 -114.5 -11.5c-2.66699 0 -5.16699 4.16699 -7.5 12.5zM278.999 -181.999l-73 -86l-86 72l72 86zM44.999 -270.999l-86 72l72 87l86 -73zM111.999 -260.999l87 -73l-72 -86
l-86 72z" />
    <glyph glyph-name="uniFB59" unicode="&#x67e;" horiz-adv-x="389" arabic-form="medial" 
d="M396 122.5c2 -8.33301 2.99902 -18.5 2.99902 -30.5v-49c0 -12 -1 -22.167 -3 -30.5s-4.33301 -12.5 -7 -12.5c-60.667 -0 -105 5.33301 -133 16s-46.333 28.667 -55 54c-14 -26 -36.5 -44.167 -67.5 -54.5s-75.5 -15.5 -133.5 -15.5
c-2.66699 0 -5.16699 4.16699 -7.5 12.5s-3.5 18.5 -3.5 30.5v49c0 12 1 22.167 3 30.5s4.66699 12.5 8 12.5c36.667 0 67.334 1.83301 92.001 5.5s45.334 10.167 62.001 19.5l-21 192l106 11l11 -211c10.667 -6.66699 26.167 -11.167 46.5 -13.5s51.166 -3.5 92.499 -3.5
c2.66699 0 5 -4.16699 7 -12.5zM239.999 -116l86 -73l-72 -86l-86 72zM91.999 -278l-85 72l72 87l86 -72zM159.999 -268l87 -73l-72 -86l-86 73z" />
    <glyph glyph-name="uniFB7B" unicode="&#x686;" horiz-adv-x="747" arabic-form="final" 
d="M754 122.5c2 -8.33301 3.00195 -18.5029 3.00195 -30.5029v-49c0 -12 -1 -22.167 -3 -30.5s-4.33301 -12.5 -7 -12.5h-67c-56.667 0 -99.667 6 -129 18s-51.166 30.333 -65.499 55s-28.833 62.334 -43.5 113.001c-52.667 -27.333 -100.834 -58.166 -144.501 -92.499
s-76.834 -67.833 -99.501 -100.5c-4.66699 -24 -7 -48.333 -7 -73c0 -67.333 18.5 -117 55.5 -149s93.5 -48 169.5 -48h216l-25 -136h-201c-76 0 -137.833 14.5 -185.5 43.5s-82 67 -103 114s-31.5 99.5 -31.5 157.5c0 92.667 33.667 172.167 101 238.5
s151.666 121.166 252.999 164.499c16 7.33301 25.333 11.333 28 12c-21.333 5.33301 -60 16.666 -116 33.999c-61.333 20 -102.333 30 -123 30c-28.667 0 -47.334 -21 -56.001 -63l-82 16c11.333 50.667 27.333 89.834 48 117.501s49.667 41.5 87 41.5
c20.667 0 44.334 -3.5 71.001 -10.5s59 -16.833 97 -29.5c58 -21.333 111.167 -38.166 159.5 -50.499s94.5 -18.833 138.5 -19.5l-26 -119c-44.667 -5.33301 -94.667 -19.666 -150 -42.999c12.667 -34 27.5 -56.833 44.5 -68.5s43.5 -17.5 79.5 -17.5h107
c2.66699 0 5 -4.16699 7 -12.5zM443.002 -107.003l-58 48l49 58l58 -48zM382.002 -51.0029l-49 -58l-57 49l48 58zM389.002 -211.003l-58 49l48 58l58 -49z" />
    <glyph glyph-name="uniFB7C" unicode="&#x686;" horiz-adv-x="725" arabic-form="initial" 
d="M533 345c42 -11.333 82.6689 -17.002 122.002 -17.002l-26 -124c-35.333 -2.66699 -67.5 -10 -96.5 -22s-66.167 -30.667 -111.5 -56l-52 -29c-55.333 -30.667 -109.5 -54.5 -162.5 -71.5s-114.167 -25.5 -183.5 -25.5h-23c-2.66699 0 -5.16699 4.16699 -7.5 12.5
s-3.5 18.5 -3.5 30.5v49c0 12 1 22.167 3 30.5s4.66699 12.5 8 12.5h23c43.333 0 86.166 4.83301 128.499 14.5s86.833 22.834 133.5 39.501c26 9.33301 57 22.333 93 39c33.333 14 53.333 22 60 24c10 2.66699 16.667 4.33398 20 5.00098c-0.666992 0.666992 -2 1 -4 1
c-13.333 2 -28.5 5.83301 -45.5 11.5s-39.5 14.167 -67.5 25.5c-64.667 24 -108 36 -130 36c-18 0 -30.833 -6.16699 -38.5 -18.5s-13.5 -27.833 -17.5 -46.5l-80 13c8 52 22.167 92.333 42.5 121s50.166 43 89.499 43c21.333 0 45.5 -4.16699 72.5 -12.5
s62.833 -20.833 107.5 -37.5c55.333 -20.667 104 -36.667 146 -48zM364.002 -116.002l86 -73l-72 -86l-86 72zM216.002 -278.002l-86 72l72 87l87 -72zM284.002 -268.002l87 -73l-73 -86l-85 73z" />
    <glyph glyph-name="uniFB7D" unicode="&#x686;" horiz-adv-x="728" arabic-form="medial" 
d="M735 122.5c2 -8.33301 3 -18.501 3 -30.501v-49c0 -12 -1 -22.167 -3 -30.5s-4.33301 -12.5 -7 -12.5h-156c-45.333 0 -85.333 8.33301 -120 25s-57.667 44 -69 82c-56 -34 -111.333 -60.333 -166 -79s-119.334 -28 -194.001 -28h-23
c-2.66699 0 -5.16699 4.16699 -7.5 12.5s-3.5 18.5 -3.5 30.5v49c0 12 1 22.167 3 30.5s4.66699 12.5 8 12.5h23c76 0 163.333 18 262 54c26.667 9.33301 57.667 23 93 41c26 12.667 46 21.334 60 26.001c7.33301 3.33301 14.333 5.33301 21 6c-1.33301 0.666992 -3 1 -5 1
c-21.333 2.66699 -62.333 15 -123 37c-57.333 20.667 -97.333 31 -120 31c-18 0 -30.833 -6.16699 -38.5 -18.5s-13.5 -27.833 -17.5 -46.5l-80 13c8 52 22.167 92.333 42.5 121s50.166 43 89.499 43c20 0 43.333 -3.66699 70 -11s58.334 -18 95.001 -32
c60.667 -21.333 112.5 -37.833 155.5 -49.5s85.5 -17.5 127.5 -17.5l-26 -119c-30 -2 -58.167 -8.5 -84.5 -19.5s-56.166 -25.833 -89.499 -44.5c11.333 -6 26.833 -10 46.5 -12s46.167 -3 79.5 -3h64h83c2.66699 0 5 -4.16699 7 -12.5zM364 -116.001l86 -73l-72 -86l-86 72
zM216 -278.001l-86 72l72 87l87 -72zM284 -268.001l87 -73l-73 -86l-85 73z" />
    <glyph glyph-name="uniFB8B" unicode="&#x698;" horiz-adv-x="440" arabic-form="final" 
d="M179 593l-85 71l72 87l87 -73zM251 601l86 -72l-72 -86l-87 71zM103 439l-86 72l72 88l87 -73zM447 122.5c2 -8.33301 2.99805 -18.499 2.99805 -30.499v-49c0 -12 -1 -22.167 -3 -30.5s-4.33301 -12.5 -7 -12.5h-25c-51.333 0 -89.333 15 -114 45
c-1.33301 -68 -25.333 -129.333 -72 -184s-121.667 -106.667 -225 -156l-68 105c82.667 38 144.334 73.333 185.001 106s69.334 67 86.001 103l-36 299l106 24l14 -132c2.66699 -23.333 9 -40.333 19 -51s23 -17.334 39 -20.001s39.667 -4 71 -4h20
c2.66699 0 5 -4.16699 7 -12.5z" />
    <glyph glyph-name="uniFB8F" unicode="&#x6a9;" horiz-adv-x="947" arabic-form="final" 
d="M954 122.5c2 -8.33301 3 -18.4971 3 -30.4971v-49c0 -12 -1 -22.167 -3 -30.5s-4.33301 -12.5 -7 -12.5h-85c-20 0 -38.167 4.33301 -54.5 13s-29.5 21 -39.5 37c-28.667 -18.667 -70.834 -32.334 -126.501 -41.001s-127.5 -13 -215.5 -13
c-74.667 0 -136.5 5.5 -185.5 16.5s-86.833 30.833 -113.5 59.5s-40 68.334 -40 119.001c0 15.333 1.66699 35.333 5 60l26 155l83 -17l-23 -137c-2.66699 -10.667 -4 -20.667 -4 -30c0 -27.333 8.66699 -47.5 26 -60.5s42.166 -21.333 74.499 -25s78.833 -5.5 139.5 -5.5
c70.667 0 133.5 2.5 188.5 7.5s96.833 12.5 125.5 22.5c-5.33301 62.667 -29.833 121.167 -73.5 175.5s-105.834 109.166 -186.501 164.499l3 107c114.667 63.333 229.334 114.333 344.001 153l14 -112c-91.333 -35.333 -173.333 -70 -246 -104
c10.667 -6.66699 20.667 -13.667 30 -21c66.667 -54.667 115.834 -110.334 147.501 -167.001s49.834 -117.334 54.501 -182.001c3.33301 -17.333 9 -28.333 17 -33s22.667 -7 44 -7h71c2.66699 0 5 -4.16699 7 -12.5z" />
    <glyph glyph-name="uniFB90" unicode="&#x6a9;" horiz-adv-x="465" arabic-form="initial" 
d="M318.5 340.5c31 -62.333 46.5 -130.499 46.5 -204.499c0 -49.333 -29.333 -84.5 -88 -105.5s-151 -31.167 -277 -30.5c-2.66699 0 -5.16699 4.16699 -7.5 12.5s-3.5 18.5 -3.5 30.5v49c0 12 1 22.167 3 30.5s4.66699 12.5 8 12.5c57.333 0 110.666 2 159.999 6
s88 10.333 116 19c-5.33301 63.333 -29.666 122.166 -72.999 176.499s-105.333 109.166 -186 164.499l4 107c116 64 230.667 115 344 153l14 -112c-87.333 -34 -169.333 -68.333 -246 -103c11.333 -7.33301 21.333 -14.666 30 -21.999
c72.667 -60 124.5 -121.167 155.5 -183.5z" />
    <glyph glyph-name="uniFB91" unicode="&#x6a9;" horiz-adv-x="497" arabic-form="medial" 
d="M504 122.5c2 -8.33301 3.00098 -18.4961 3.00098 -30.4961v-49c0 -12 -1 -22.167 -3 -30.5s-4.33301 -12.5 -7 -12.5h-79c-22 0 -41.167 4.66699 -57.5 14s-29.166 22.666 -38.499 39.999c-26.667 -19.333 -66.5 -33.333 -119.5 -42s-120.5 -12.667 -202.5 -12
c-2.66699 0 -5.16699 4.16699 -7.5 12.5s-3.5 18.5 -3.5 30.5v49c0 12 1 22.167 3 30.5s4.66699 12.5 8 12.5c57.333 0 110.666 2 159.999 6s88 10.333 116 19c-5.33301 63.333 -29.666 122.166 -72.999 176.499s-105.333 109.166 -186 164.499l4 107
c116 64 230.667 115 344 153l14 -112c-87.333 -34 -169.333 -68.333 -246 -103c11.333 -7.33301 21.333 -14.666 30 -21.999c63.333 -52.667 110.666 -105.834 141.999 -159.501s50.333 -110.834 57 -171.501c0 -2.66699 0.333008 -4.66699 1 -6
c1.33301 -16 4.16602 -27.667 8.49902 -35s10.5 -12 18.5 -14s20 -3 36 -3h71c2.66699 0 5 -4.16699 7 -12.5z" />
    <glyph glyph-name="uniFB93" unicode="&#x6af;" horiz-adv-x="949" arabic-form="final" 
d="M674 746c-50.667 -22.667 -111.667 -52 -183 -88l-20 -10l4 87c66 33.333 130.333 63.333 193 90zM954 122.5c2 -8.33301 3 -18.4971 3 -30.4971v-49c0 -12 -1 -22.167 -3 -30.5s-4.33301 -12.5 -7 -12.5h-85c-20 0 -38.167 4.33301 -54.5 13s-29.5 21 -39.5 37
c-28.667 -18.667 -70.834 -32.334 -126.501 -41.001s-127.5 -13 -215.5 -13c-74.667 0 -136.5 5.5 -185.5 16.5s-86.833 30.833 -113.5 59.5s-40 68.334 -40 119.001c0 15.333 1.66699 35.333 5 60l26 155l83 -17l-23 -137c-2.66699 -10.667 -4 -20.667 -4 -30
c0 -27.333 8.66699 -47.5 26 -60.5s42.166 -21.333 74.499 -25s78.833 -5.5 139.5 -5.5c70.667 0 133.5 2.5 188.5 7.5s96.833 12.5 125.5 22.5c-5.33301 62.667 -29.833 121.167 -73.5 175.5s-105.834 109.166 -186.501 164.499l3 107
c114.667 63.333 229.334 114.333 344.001 153l14 -112c-91.333 -35.333 -173.333 -70 -246 -104c10.667 -6.66699 20.667 -13.667 30 -21c66.667 -54.667 115.834 -110.334 147.501 -167.001s49.834 -117.334 54.501 -182.001c3.33301 -17.333 9 -28.333 17 -33
s22.667 -7 44 -7h71c2.66699 0 5 -4.16699 7 -12.5z" />
    <glyph glyph-name="uniFB94" unicode="&#x6af;" horiz-adv-x="465" arabic-form="initial" 
d="M224 746c-31.333 -13.333 -65.1689 -29 -101.502 -47l-70.5 -35c-3.33301 -2 -13.666 -7.33301 -30.999 -16l3 87c62.667 32 127.334 62 194.001 90zM318.497 340.5c31 -62.333 46.5 -130.499 46.5 -204.499c0 -49.333 -29.333 -84.5 -88 -105.5s-151 -31.167 -277 -30.5
c-2.66699 0 -5.16699 4.16699 -7.5 12.5s-3.5 18.5 -3.5 30.5v49c0 12 1 22.167 3 30.5s4.66699 12.5 8 12.5c57.333 0 110.666 2 159.999 6s88 10.333 116 19c-5.33301 63.333 -29.666 122.166 -72.999 176.499s-105.333 109.166 -186 164.499l4 107
c116 64 230.667 115 344 153l14 -112c-87.333 -34 -169.333 -68.333 -246 -103c11.333 -7.33301 21.333 -14.666 30 -21.999c72.667 -60 124.5 -121.167 155.5 -183.5z" />
    <glyph glyph-name="uniFB95" unicode="&#x6af;" horiz-adv-x="498" arabic-form="medial" 
d="M224 746c-31.333 -13.333 -65.1689 -29 -101.502 -47l-70.5 -35c-3.33301 -2 -13.666 -7.33301 -30.999 -16l3 87c62.667 32 127.334 62 194.001 90zM503.997 122.5c2 -8.33301 3.00098 -18.4961 3.00098 -30.4961v-49c0 -12 -1 -22.167 -3 -30.5
s-4.33301 -12.5 -7 -12.5h-79c-22 0 -41.167 4.66699 -57.5 14s-29.166 22.666 -38.499 39.999c-26.667 -19.333 -66.5 -33.333 -119.5 -42s-120.5 -12.667 -202.5 -12c-2.66699 0 -5.16699 4.16699 -7.5 12.5s-3.5 18.5 -3.5 30.5v49c0 12 1 22.167 3 30.5
s4.66699 12.5 8 12.5c57.333 0 110.666 2 159.999 6s88 10.333 116 19c-5.33301 63.333 -29.666 122.166 -72.999 176.499s-105.333 109.166 -186 164.499l4 107c116 64 230.667 115 344 153l14 -112c-87.333 -34 -169.333 -68.333 -246 -103
c11.333 -7.33301 21.333 -14.666 30 -21.999c63.333 -52.667 110.666 -105.834 141.999 -159.501s50.333 -110.834 57 -171.501c0 -2.66699 0.333008 -4.66699 1 -6c1.33301 -16 4.16602 -27.667 8.49902 -35s10.5 -12 18.5 -14s20 -3 36 -3h71
c2.66699 0 5 -4.16699 7 -12.5z" />
    <glyph glyph-name="uniFB9F" unicode="&#x6ba;" horiz-adv-x="807" arabic-form="final" 
d="M814 122.5c2 -8.33301 2.99707 -18.499 2.99707 -30.499v-49c0 -12 -1 -22.167 -3 -30.5s-4.33301 -12.5 -7 -12.5h-20c-33.333 0 -61.5 5 -84.5 15s-40.167 27 -51.5 51l2 -32c0.666992 -10 1.33398 -22.333 2.00098 -37s1 -32 1 -52c0 -39.333 -15.667 -72 -47 -98
s-71.166 -45.167 -119.499 -57.5s-98.833 -18.5 -151.5 -18.5c-94 0 -159.5 19 -196.5 57s-55.5 84 -55.5 138c0 37.333 16.333 145.666 49 324.999l83 -18c-22.667 -125.333 -35.667 -218 -39 -278c-2 -35.333 14.333 -59 49 -71s73.334 -18 116.001 -18
c96.667 0 169.667 14.333 219 43l-40 378l105 24l13 -137c2 -24.667 8.33301 -42.5 19 -53.5s25 -18 43 -21s45.333 -4.5 82 -4.5h22c2.66699 0 5 -4.16699 7 -12.5z" />
    <glyph glyph-name="uniFBA5" unicode="&#x6c0;" horiz-adv-x="543" arabic-form="final" 
d="M329 586c-38 -21.333 -92.6641 -31.999 -163.997 -31.999l9 80c40 0 72 1.66699 96 5s44 10.666 60 21.999l1 9c0 5.33301 -1.5 9.33301 -4.5 12s-9.16699 5 -18.5 7l-30 5c-23.333 3.33301 -40.333 6.33301 -51 9s-18.834 7.16699 -24.501 13.5s-8.5 15.833 -8.5 28.5
c0 20.667 5.5 45.667 16.5 75s25.667 54.666 44 75.999s38.5 32 60.5 32c17.333 0 32.666 -5.33301 45.999 -16s26.666 -27 39.999 -49l-35 -35c-17.333 17.333 -33.666 26 -48.999 26c-16.667 0 -31 -8.16699 -43 -24.5s-20.333 -35.166 -25 -56.499
c6 -0.666992 24.167 -3.16699 54.5 -7.5s51.666 -13.5 63.999 -27.5s18.5 -33.667 18.5 -59c0 -40.667 -19 -71.667 -57 -93zM550.003 122.501c2 -8.33301 3.00098 -18.502 3.00098 -30.502v-49c0 -12 -1 -22.167 -3 -30.5s-4.33301 -12.5 -7 -12.5h-48
c-32 0 -59.667 8.16699 -83 24.5s-38 39.833 -44 70.5l-8 -17c-5.33301 -11.333 -11.5 -20.166 -18.5 -26.499s-16.167 -10.166 -27.5 -11.499c-24.667 -4 -53.667 -6 -87 -6c-46.667 0 -80.834 8.5 -102.501 25.5s-32.5 45.833 -32.5 86.5c0 64 16.5 116.5 49.5 157.5
s86.833 74.5 161.5 100.5l-8 77l99 28l27 -271c3.33301 -31.333 6.83301 -53.333 10.5 -66s11.5 -22 23.5 -28s32 -9 60 -9h28c2.66699 0 5 -4.16699 7 -12.5zM337.004 174.999l-15.999 126.999c-48.667 -13.333 -84.334 -32.666 -107.001 -57.999
s-35.334 -52.333 -38.001 -81c14.667 -3.33301 32.334 -5 53.001 -5c38 0 74 5.66699 108 17z" />
    <glyph glyph-name="uniFBFD" unicode="&#x6cc;" horiz-adv-x="725" arabic-form="final" 
d="M732 122.5c2 -8.33301 2.99805 -18.501 2.99805 -30.501v-49c0 -12 -1 -22.167 -3 -30.5s-4.33301 -12.5 -7 -12.5h-36c1.33301 -13.333 2 -23.666 2 -30.999c0 -72.667 -30.667 -128.834 -92 -168.501s-148.333 -59.5 -261 -59.5c-96 0 -162 18.667 -198 56
s-54 83.333 -54 138c0 38.667 16.333 147 49 325l83 -18c-22.667 -125.333 -35.667 -217.666 -39 -276.999c-2 -35.333 14.833 -59 50.5 -71s77.167 -18 124.5 -18c54.667 0 101.834 4.33301 141.501 13s72.834 23.667 99.501 45c0.666992 22 -3.5 37.5 -12.5 46.5
s-23.833 14.5 -44.5 16.5s-56.667 3 -108 3l25 135h270c2.66699 0 5 -4.16699 7 -12.5z" />
    <glyph glyph-name="uniFBFE" unicode="&#x6cc;" horiz-adv-x="357" arabic-form="initial" 
d="M-7.5 12.5c-2.33301 8.33301 -3.50098 18.501 -3.50098 30.501v49c0 12 1 22.167 3 30.5s4.66699 12.5 8 12.5c44 0 80 2.16699 108 6.5s51.667 11.5 71 21.5l-24 224l106 18c2.66699 -37.333 4.83398 -75.5 6.50098 -114.5s2.5 -82.833 2.5 -131.5
c0 -49.333 -21 -87.333 -63 -114c-24.667 -14.667 -55.5 -25.834 -92.5 -33.501s-75.167 -11.5 -114.5 -11.5c-2.66699 0 -5.16699 4.16699 -7.5 12.5zM293.999 -190.999l-75 -88l-88 74l74 89zM38.999 -118.999l89 -74l-75 -89l-88 74z" />
    <glyph glyph-name="uniFBFF" unicode="&#x6cc;" horiz-adv-x="389" arabic-form="medial" 
d="M396 122.5c2 -8.33301 2.99902 -18.5 2.99902 -30.5v-49c0 -12 -1 -22.167 -3 -30.5s-4.33301 -12.5 -7 -12.5c-60.667 -0 -105 5.33301 -133 16s-46.333 28.667 -55 54c-14 -26 -36.5 -44.167 -67.5 -54.5s-75.5 -15.5 -133.5 -15.5
c-2.66699 0 -5.16699 4.16699 -7.5 12.5s-3.5 18.5 -3.5 30.5v49c0 12 1 22.167 3 30.5s4.66699 12.5 8 12.5c36.667 0 67.334 1.83301 92.001 5.5s45.334 10.167 62.001 19.5l-21 192l106 11l11 -211c10.667 -6.66699 26.167 -11.167 46.5 -13.5s51.166 -3.5 92.499 -3.5
c2.66699 0 5 -4.16699 7 -12.5zM237.999 -116l89 -75l-75 -88l-88 74zM72.999 -119l88 -74l-75 -89l-87 74z" />
    <glyph glyph-name="uniFDFC" unicode="&#xfdfc;" horiz-adv-x="1611" arabic-form="isolated" 
d="M627 743l17.999 -781.001c0 -65.333 -30.333 -113.5 -91 -144.5s-134.667 -46.5 -222 -46.5c-93.333 0 -157.666 18.833 -192.999 56.5s-53 83.834 -53 138.501c0 27.333 11.667 107 35 239l14 86l83 -18c-11.333 -65.333 -20.166 -120 -26.499 -164
s-10.5 -82 -12.5 -114c-2 -35.333 13.667 -59 47 -71s70.666 -18 111.999 -18c40 0 79.667 3.5 119 10.5s72.333 16.833 99 29.5l-35 774zM985.999 -0.000976562c-63.333 0 -112.668 6.66699 -148.001 20s-60.666 35.666 -75.999 66.999s-24 75.333 -26 132l-17 501l105 23
l8 -524c0 -25.333 6.66699 -45.666 20 -60.999s33.333 -23 60 -23h74c89.333 0 155 8 197 24l-24 250l104 18c8 -102.667 12 -192 12 -268c0 -48 -21.333 -86 -64 -114c-52 -30 -127 -45 -225 -45zM1519.5 144.499c3.66699 -36.333 5.5 -66.501 5.5 -90.501
c0 -66.667 -18.833 -125.5 -56.5 -176.5s-99.5 -104.5 -185.5 -160.5l-78 98c114 69.333 190.333 137.333 229 204l-44 299l106 24c12 -95.333 19.833 -161.166 23.5 -197.499zM1044 -110.002l89 -75l-75 -88l-87 74zM878.997 -113.002l89 -74l-75 -89l-88 74z" />
    <glyph glyph-name="uniFE82" unicode="&#x622;" horiz-adv-x="329" arabic-form="final" 
d="M242 687c-37.333 0.666992 -75.334 4 -114.001 10c-21.333 2.66699 -34.333 4 -39 4c-12.667 0 -22 -3 -28 -9s-11 -18.667 -15 -38l-74 19c8.66699 35.333 18 62.5 28 81.5s21.833 32.333 35.5 40s31.167 11.5 52.5 11.5c12.667 0 31.334 -1.66699 56.001 -5
c40.667 -5.33301 79.667 -8.33301 117 -9l56 -2l-24 -103h-51zM349.999 122.5c2 -8.33301 3 -18.502 3 -30.502v-49c0 -12 -1 -22.167 -3 -30.5s-4.33301 -12.5 -7 -12.5h-27c-46 0 -83.333 6.83301 -112 20.5s-50.5 36.334 -65.5 68.001s-23.167 75.167 -24.5 130.5
l-12 371l105 22l8 -393c0.666992 -25.333 7.66699 -45.666 21 -60.999s33 -23 59 -23h48c2.66699 0 5 -4.16699 7 -12.5z" />
    <glyph glyph-name="uniFE84" unicode="&#x623;" horiz-adv-x="318" arabic-form="final" 
d="M271 775l-327.999 -105l-13 78l93 33c-24.667 46 -36 87.333 -34 124c0.666992 32.667 13 58 37 76s55 27 93 27c19.333 0 40 -2 62 -6l-16 -79c-18 3.33301 -34.333 5.33301 -49 6c-28.667 0 -50.334 -3.66699 -65.001 -11c0 -40 13.667 -78.333 41 -115l166 51z
M325.001 122.5c2 -8.33301 3 -18.502 3 -30.502v-49c0 -12 -1 -22.167 -3 -30.5s-4.33301 -12.5 -7 -12.5h-27c-46 0 -83.333 6.83301 -112 20.5s-50.5 36.334 -65.5 68.001s-23.167 75.167 -24.5 130.5l-12 371l105 22l8 -393c0.666992 -25.333 7.66699 -45.666 21 -60.999
s33 -23 59 -23h48c2.66699 0 5 -4.16699 7 -12.5z" />
    <glyph glyph-name="uniFE86" unicode="&#x624;" horiz-adv-x="484" arabic-form="final" 
d="M40 536l92.999 33c-24.667 46 -36 87.333 -34 124c0.666992 32.667 13 58 37 76s55 27 93 27c20.667 0 41.334 -2.33301 62.001 -7l-16 -78c-18.667 3.33301 -35 5 -49 5c-28 1.33301 -49.667 -2 -65 -10c0 -40 13.667 -78.333 41 -115l166 51l13 -79l-328 -105z
M490.999 122.5c2 -8.33301 2.99805 -18.5 2.99805 -30.5v-49c0 -12 -1 -22.167 -3 -30.5s-4.33301 -12.5 -7 -12.5h-82c-17.333 -60.667 -50.833 -115.334 -100.5 -164.001s-113.834 -89.667 -192.501 -123l-66 107c63.333 23.333 118.333 51.5 165 84.5
s81.334 67.5 104.001 103.5c-30 -6.66699 -62 -10 -96 -10c-29.333 0 -54.666 2.33301 -75.999 7c-10 2.66699 -18.833 7.16699 -26.5 13.5s-15.834 16.5 -24.501 30.5c-9.33301 13.333 -15.666 24.833 -18.999 34.5s-4.66602 19.834 -3.99902 30.501
c3.33301 72.667 19 135.5 47 188.5s71 79.5 129 79.5c57.333 0 99.5 -24.167 126.5 -72.5s42.5 -106.5 46.5 -174.5h69c2.66699 0 5 -4.16699 7 -12.5zM233.997 115c36.667 0 67.333 2.33301 92 7c0 95.333 -29.667 143 -89 143c-25.333 0 -45.333 -12.167 -60 -36.5
s-22.667 -59.833 -24 -106.5c18 -4.66699 45 -7 81 -7z" />
    <glyph glyph-name="uniFE88" unicode="&#x625;" horiz-adv-x="319" arabic-form="final" 
d="M326 122.5c2 -8.33301 3 -18.502 3 -30.502v-49c0 -12 -1 -22.167 -3 -30.5s-4.33301 -12.5 -7 -12.5h-27c-46 0 -83.333 6.83301 -112 20.5s-50.5 36.334 -65.5 68.001s-23.167 75.167 -24.5 130.5l-12 501l106 23l6 -524c0 -25.333 7 -45.666 21 -60.999s34 -23 60 -23
h48c2.66699 0 5 -4.16699 7 -12.5zM301 -244.002l12.001 -78.999l-328 -105l-13 78l93 33c-24.667 46 -36 87.333 -34 124c1.33301 34 15.166 60 41.499 78s59.833 26 100.5 24c16.667 0 33.334 -2 50.001 -6l-15 -78c-5.33301 0.666992 -12.833 1.66699 -22.5 3
s-18.834 2 -27.501 2c-26 1.33301 -47.667 -2 -65 -10c0 -38.667 14 -77.334 42 -116.001z" />
    <glyph glyph-name="uniFE8A" unicode="&#x626;" horiz-adv-x="725" arabic-form="final" 
d="M378 470l-327 -105l-13 78l93 33c-23.333 44 -35 83.333 -35 118s12 61.5 36 80.5s55.667 28.5 95 28.5c19.333 0 40 -2 62 -6l-16 -79c-20 4 -39.333 6 -58 6c-23.333 0 -42.333 -3.66699 -57 -11c0 -38.667 14 -77 42 -115l166 52zM732 122.5
c2 -8.33301 2.99805 -18.501 2.99805 -30.501v-49c0 -12 -1 -22.167 -3 -30.5s-4.33301 -12.5 -7 -12.5h-36c1.33301 -13.333 2 -23.666 2 -30.999c0 -72.667 -30.667 -128.834 -92 -168.501s-148.333 -59.5 -261 -59.5c-96 0 -162 18.667 -198 56s-54 83.333 -54 138
c0 38.667 16.333 147 49 325l83 -18c-22.667 -125.333 -35.667 -217.666 -39 -276.999c-2 -35.333 14.833 -59 50.5 -71s77.167 -18 124.5 -18c54.667 0 101.834 4.33301 141.501 13s72.834 23.667 99.501 45c0.666992 22 -3.5 37.5 -12.5 46.5s-23.833 14.5 -44.5 16.5
s-56.667 3 -108 3l25 135h270c2.66699 0 5 -4.16699 7 -12.5z" />
    <glyph glyph-name="uniFE8B" unicode="&#x626;" horiz-adv-x="357" arabic-form="initial" 
d="M-16 527l94.001 33c-25.333 46 -37 87.333 -35 124c1.33301 32.667 14 58 38 76s55 27 93 27c21.333 0 41.666 -2.33301 60.999 -7l-15 -78c-20 3.33301 -36.333 5 -49 5c-28 1.33301 -50 -2 -66 -10c0 -38.667 14 -77 42 -115l166 51l12 -79l-327 -105zM261.001 405
c2.66699 -37.333 4.83301 -75.499 6.5 -114.499s2.5 -82.833 2.5 -131.5c0 -49.333 -21 -87.333 -63 -114c-24.667 -14.667 -55.5 -25.834 -92.5 -33.501s-75.167 -11.5 -114.5 -11.5c-2.66699 0 -5.16699 4.16699 -7.5 12.5s-3.5 18.5 -3.5 30.5v49c0 12 1 22.167 3 30.5
s4.66699 12.5 8 12.5c44 0 80 2.16699 108 6.5s51.667 11.5 71 21.5l-24 224z" />
    <glyph glyph-name="uniFE8C" unicode="&#x626;" horiz-adv-x="389" arabic-form="medial" 
d="M7 531l93.001 33c-23.333 44 -35 83.333 -35 118c0 36 13.167 63.5 39.5 82.5s60.5 27.5 102.5 25.5c16 0 33 -2 51 -6l-16 -78l-22 3c-10 1.33301 -19 2 -27 2c-26.667 1.33301 -48.334 -2 -65.001 -10c0 -39.333 13.667 -78 41 -116l166 52l12 -79l-327 -105z
M396.001 122.5c2 -8.33301 2.99902 -18.5 2.99902 -30.5v-49c0 -12 -1 -22.167 -3 -30.5s-4.33301 -12.5 -7 -12.5c-60.667 -0 -105 5.33301 -133 16s-46.333 28.667 -55 54c-14 -26 -36.5 -44.167 -67.5 -54.5s-75.5 -15.5 -133.5 -15.5
c-2.66699 0 -5.16699 4.16699 -7.5 12.5s-3.5 18.5 -3.5 30.5v49c0 12 1 22.167 3 30.5s4.66699 12.5 8 12.5c36.667 0 67.334 1.83301 92.001 5.5s45.334 10.167 62.001 19.5l-21 192l106 11l11 -211c10.667 -6.66699 26.167 -11.167 46.5 -13.5s51.166 -3.5 92.499 -3.5
c2.66699 0 5 -4.16699 7 -12.5z" />
    <glyph glyph-name="uniFE8E" unicode="&#x627;" horiz-adv-x="319" arabic-form="final" 
d="M326 122.5c2 -8.33301 3 -18.502 3 -30.502v-49c0 -12 -1 -22.167 -3 -30.5s-4.33301 -12.5 -7 -12.5h-27c-46 0 -83.333 6.83301 -112 20.5s-50.5 36.334 -65.5 68.001s-23.167 75.167 -24.5 130.5l-12 501l106 23l6 -524c0 -25.333 7 -45.666 21 -60.999s34 -23 60 -23
h48c2.66699 0 5 -4.16699 7 -12.5z" />
    <glyph glyph-name="uniFE90" unicode="&#x628;" horiz-adv-x="920" arabic-form="final" 
d="M927 122.5c2 -8.33301 3.00098 -18.501 3.00098 -30.501v-49c0 -12 -1 -22.167 -3 -30.5s-4.33301 -12.5 -7 -12.5c-48.667 0 -87.5 6 -116.5 18s-47.5 28.667 -55.5 50c-6.66699 -11.333 -15.834 -20.333 -27.501 -27s-28.5 -13 -50.5 -19
c-29.333 -8 -66 -14.333 -110 -19s-89 -7 -135 -7c-74.667 0 -136.5 5.5 -185.5 16.5s-86.833 30.833 -113.5 59.5s-40 68.334 -40 119.001c0 18 2 38 6 60l26 155l82 -17l-23 -137c-2 -12 -3 -22 -3 -30c0 -27.333 8.5 -47.5 25.5 -60.5s41.667 -21.333 74 -25
s78.833 -5.5 139.5 -5.5c66 0 123 2.16699 171 6.5s91.667 12.5 131 24.5l-17 165l103 11l10 -185c26 -12 62.333 -18 109 -18c2.66699 0 5 -4.16699 7 -12.5zM427.001 -119.001l98 -82l-83 -97l-96 81z" />
    <glyph glyph-name="uniFE91" unicode="&#x628;" horiz-adv-x="357" arabic-form="initial" 
d="M267.5 290.5c1.66699 -39 2.49902 -82.832 2.49902 -131.499c0 -49.333 -21 -87.333 -63 -114c-24.667 -14.667 -55.5 -25.834 -92.5 -33.501s-75.167 -11.5 -114.5 -11.5c-2.66699 0 -5.16699 4.16699 -7.5 12.5s-3.5 18.5 -3.5 30.5v49c0 12 1 22.167 3 30.5
s4.66699 12.5 8 12.5c44 0 80 2.16699 108 6.5s51.667 11.5 71 21.5l-24 224l106 18c2.66699 -37.333 4.83398 -75.5 6.50098 -114.5zM88.999 -118.999l98 -82l-82 -97l-97 81z" />
    <glyph glyph-name="uniFE92" unicode="&#x628;" horiz-adv-x="389" arabic-form="medial" 
d="M396 122.5c2 -8.33301 2.99902 -18.5 2.99902 -30.5v-49c0 -12 -1 -22.167 -3 -30.5s-4.33301 -12.5 -7 -12.5c-60.667 -0 -105 5.33301 -133 16s-46.333 28.667 -55 54c-14 -26 -36.5 -44.167 -67.5 -54.5s-75.5 -15.5 -133.5 -15.5
c-2.66699 0 -5.16699 4.16699 -7.5 12.5s-3.5 18.5 -3.5 30.5v49c0 12 1 22.167 3 30.5s4.66699 12.5 8 12.5c36.667 0 67.334 1.83301 92.001 5.5s45.334 10.167 62.001 19.5l-21 192l106 11l11 -211c10.667 -6.66699 26.167 -11.167 46.5 -13.5s51.166 -3.5 92.499 -3.5
c2.66699 0 5 -4.16699 7 -12.5zM159.999 -119l98 -82l-82 -97l-97 81z" />
    <glyph glyph-name="uniFE94" unicode="&#x629;" horiz-adv-x="543" arabic-form="final" 
d="M415 595l-88 74l74 88l89 -74zM249 591l-88 75l74 88l89 -74zM550 122.5c2 -8.33301 2.99902 -18.499 2.99902 -30.499v-49c0 -12 -1 -22.167 -3 -30.5s-4.33301 -12.5 -7 -12.5h-47c-32 0 -59.833 8.33301 -83.5 25s-38.5 40 -44.5 70l-8 -17
c-9.33301 -22.667 -24.333 -35.334 -45 -38.001c-24.667 -4 -53.667 -6 -87 -6c-47.333 0 -81.666 8.33301 -102.999 25s-32 45.667 -32 87c0 64 16.5 116.5 49.5 157.5s86.833 74.5 161.5 100.5l-9 77l99 28l27 -271c3.33301 -31.333 6.83301 -53.333 10.5 -66
s11.667 -22 24 -28s32.5 -9 60.5 -9h27c2.66699 0 5 -4.16699 7 -12.5zM336.999 175.001l-15 126.999c-49.333 -13.333 -85.333 -32.666 -108 -57.999s-35.334 -52.333 -38.001 -81c14.667 -3.33301 32.334 -5 53.001 -5c39.333 0 75.333 5.66699 108 17z" />
    <glyph glyph-name="uniFE96" unicode="&#x62a;" horiz-adv-x="920" arabic-form="final" 
d="M563 439l-88 75l74 87l89 -73zM397 436l-88 74l74 88l89 -73zM927 122.5c2 -8.33301 3.00098 -18.501 3.00098 -30.501v-49c0 -12 -1 -22.167 -3 -30.5s-4.33301 -12.5 -7 -12.5c-48.667 0 -87.5 6 -116.5 18s-47.5 28.667 -55.5 50
c-6.66699 -11.333 -15.834 -20.333 -27.501 -27s-28.5 -13 -50.5 -19c-29.333 -8 -66 -14.333 -110 -19s-89 -7 -135 -7c-74.667 0 -136.5 5.5 -185.5 16.5s-86.833 30.833 -113.5 59.5s-40 68.334 -40 119.001c0 18 2 38 6 60l26 155l82 -17l-23 -137c-2 -12 -3 -22 -3 -30
c0 -27.333 8.5 -47.5 25.5 -60.5s41.667 -21.333 74 -25s78.833 -5.5 139.5 -5.5c66 0 123 2.16699 171 6.5s91.667 12.5 131 24.5l-17 165l103 11l10 -185c26 -12 62.333 -18 109 -18c2.66699 0 5 -4.16699 7 -12.5z" />
    <glyph glyph-name="uniFE97" unicode="&#x62a;" horiz-adv-x="380" arabic-form="initial" 
d="M254 541l-89 75l74 88l89 -74zM88 538l-88 74l73 89l89 -74zM261 405c2.66699 -37.333 4.83301 -75.499 6.5 -114.499s2.5 -82.833 2.5 -131.5c0 -49.333 -21 -87.333 -63 -114c-24.667 -14.667 -55.5 -25.834 -92.5 -33.501s-75.167 -11.5 -114.5 -11.5
c-2.66699 0 -5.16699 4.16699 -7.5 12.5s-3.5 18.5 -3.5 30.5v49c0 12 1 22.167 3 30.5s4.66699 12.5 8 12.5c44 0 80 2.16699 108 6.5s51.667 11.5 71 21.5l-24 224z" />
    <glyph glyph-name="uniFE98" unicode="&#x62a;" horiz-adv-x="389" arabic-form="medial" 
d="M260 480l-88 75l74 88l89 -74zM94 477l-88 74l74 89l89 -74zM396 122.5c2 -8.33301 2.99902 -18.5 2.99902 -30.5v-49c0 -12 -1 -22.167 -3 -30.5s-4.33301 -12.5 -7 -12.5c-60.667 -0 -105 5.33301 -133 16s-46.333 28.667 -55 54c-14 -26 -36.5 -44.167 -67.5 -54.5
s-75.5 -15.5 -133.5 -15.5c-2.66699 0 -5.16699 4.16699 -7.5 12.5s-3.5 18.5 -3.5 30.5v49c0 12 1 22.167 3 30.5s4.66699 12.5 8 12.5c36.667 0 67.334 1.83301 92.001 5.5s45.334 10.167 62.001 19.5l-21 192l106 11l11 -211c10.667 -6.66699 26.167 -11.167 46.5 -13.5
s51.166 -3.5 92.499 -3.5c2.66699 0 5 -4.16699 7 -12.5z" />
    <glyph glyph-name="uniFE9A" unicode="&#x62b;" horiz-adv-x="920" arabic-form="final" 
d="M470 592l-86 71l73 87l86 -73zM541 600l87 -73l-73 -85l-86 71zM394 438l-87 72l73 87l86 -72zM927 122.5c2 -8.33301 3.00098 -18.501 3.00098 -30.501v-49c0 -12 -1 -22.167 -3 -30.5s-4.33301 -12.5 -7 -12.5c-48.667 0 -87.5 6 -116.5 18s-47.5 28.667 -55.5 50
c-6.66699 -11.333 -15.834 -20.333 -27.501 -27s-28.5 -13 -50.5 -19c-29.333 -8 -66 -14.333 -110 -19s-89 -7 -135 -7c-74.667 0 -136.5 5.5 -185.5 16.5s-86.833 30.833 -113.5 59.5s-40 68.334 -40 119.001c0 18 2 38 6 60l26 155l82 -17l-23 -137c-2 -12 -3 -22 -3 -30
c0 -27.333 8.5 -47.5 25.5 -60.5s41.667 -21.333 74 -25s78.833 -5.5 139.5 -5.5c66 0 123 2.16699 171 6.5s91.667 12.5 131 24.5l-17 165l103 11l10 -185c26 -12 62.333 -18 109 -18c2.66699 0 5 -4.16699 7 -12.5z" />
    <glyph glyph-name="uniFE9B" unicode="&#x62b;" horiz-adv-x="381" arabic-form="initial" 
d="M169 698l-85 72l72 86l87 -72zM241 706l87 -72l-73 -86l-86 72zM93 545l-86 72l72 87l87 -73zM261 405c2.66699 -37.333 4.83301 -75.499 6.5 -114.499s2.5 -82.833 2.5 -131.5c0 -49.333 -21 -87.333 -63 -114c-24.667 -14.667 -55.5 -25.834 -92.5 -33.501
s-75.167 -11.5 -114.5 -11.5c-2.66699 0 -5.16699 4.16699 -7.5 12.5s-3.5 18.5 -3.5 30.5v49c0 12 1 22.167 3 30.5s4.66699 12.5 8 12.5c44 0 80 2.16699 108 6.5s51.667 11.5 71 21.5l-24 224z" />
    <glyph glyph-name="uniFE9C" unicode="&#x62b;" horiz-adv-x="389" arabic-form="medial" 
d="M171 633l-86 71l73 87l86 -73zM242 641l87 -73l-73 -85l-86 71zM95 479l-87 72l73 88l86 -73zM396 122.5c2 -8.33301 2.99902 -18.5 2.99902 -30.5v-49c0 -12 -1 -22.167 -3 -30.5s-4.33301 -12.5 -7 -12.5c-60.667 -0 -105 5.33301 -133 16s-46.333 28.667 -55 54
c-14 -26 -36.5 -44.167 -67.5 -54.5s-75.5 -15.5 -133.5 -15.5c-2.66699 0 -5.16699 4.16699 -7.5 12.5s-3.5 18.5 -3.5 30.5v49c0 12 1 22.167 3 30.5s4.66699 12.5 8 12.5c36.667 0 67.334 1.83301 92.001 5.5s45.334 10.167 62.001 19.5l-21 192l106 11l11 -211
c10.667 -6.66699 26.167 -11.167 46.5 -13.5s51.166 -3.5 92.499 -3.5c2.66699 0 5 -4.16699 7 -12.5z" />
    <glyph glyph-name="uniFE9E" unicode="&#x62c;" horiz-adv-x="747" arabic-form="final" 
d="M754 122.5c2 -8.33301 3.00195 -18.5029 3.00195 -30.5029v-49c0 -12 -1 -22.167 -3 -30.5s-4.33301 -12.5 -7 -12.5h-67c-56.667 0 -99.667 6 -129 18s-51.166 30.333 -65.499 55s-28.833 62.334 -43.5 113.001c-52.667 -27.333 -100.834 -58.166 -144.501 -92.499
s-76.834 -67.833 -99.501 -100.5c-4.66699 -24 -7 -48.333 -7 -73c0 -67.333 18.5 -117 55.5 -149s93.5 -48 169.5 -48h216l-25 -136h-201c-76 0 -137.833 14.5 -185.5 43.5s-82 67 -103 114s-31.5 99.5 -31.5 157.5c0 92.667 33.667 172.167 101 238.5
s151.666 121.166 252.999 164.499c16 7.33301 25.333 11.333 28 12c-21.333 5.33301 -60 16.666 -116 33.999c-61.333 20 -102.333 30 -123 30c-28.667 0 -47.334 -21 -56.001 -63l-82 16c11.333 50.667 27.333 89.834 48 117.501s49.667 41.5 87 41.5
c20.667 0 44.334 -3.5 71.001 -10.5s59 -16.833 97 -29.5c58 -21.333 111.167 -38.166 159.5 -50.499s94.5 -18.833 138.5 -19.5l-26 -119c-44.667 -5.33301 -94.667 -19.666 -150 -42.999c12.667 -34 27.5 -56.833 44.5 -68.5s43.5 -17.5 79.5 -17.5h107
c2.66699 0 5 -4.16699 7 -12.5zM322.002 -102.003l76 93l92 -78l-77 -91z" />
    <glyph glyph-name="uniFE9F" unicode="&#x62c;" horiz-adv-x="725" arabic-form="initial" 
d="M533 345c42 -11.333 82.668 -17.001 122.001 -17.001l-26 -124c-35.333 -2.66699 -67.5 -10 -96.5 -22s-66.167 -30.667 -111.5 -56l-52 -29c-55.333 -30.667 -109.5 -54.5 -162.5 -71.5s-114.167 -25.5 -183.5 -25.5h-23c-2.66699 0 -5.16699 4.16699 -7.5 12.5
s-3.5 18.5 -3.5 30.5v49c0 12 1 22.167 3 30.5s4.66699 12.5 8 12.5h23c76 0 163.333 18 262 54c26 9.33301 57 22.333 93 39c33.333 14 53.333 22 60 24c10 2.66699 16.667 4.33398 20 5.00098c-0.666992 0.666992 -2 1 -4 1c-13.333 2 -28.5 5.83301 -45.5 11.5
s-39.5 14.167 -67.5 25.5c-64.667 24 -108 36 -130 36c-18 0 -30.833 -6.16699 -38.5 -18.5s-13.5 -27.833 -17.5 -46.5l-80 13c8 52 22.167 92.333 42.5 121s50.166 43 89.499 43c21.333 0 45.5 -4.16699 72.5 -12.5s62.833 -20.833 107.5 -37.5
c55.333 -20.667 104 -36.667 146 -48zM312.001 -94.001l99 -82l-83 -97l-96 82z" />
    <glyph glyph-name="uniFEA0" unicode="&#x62c;" horiz-adv-x="728" arabic-form="medial" 
d="M735 122.5c2 -8.33301 3 -18.501 3 -30.501v-49c0 -12 -1 -22.167 -3 -30.5s-4.33301 -12.5 -7 -12.5h-156c-45.333 0 -85.333 8.33301 -120 25s-57.667 44 -69 82c-56 -34 -111.333 -60.333 -166 -79s-119.334 -28 -194.001 -28h-23
c-2.66699 0 -5.16699 4.16699 -7.5 12.5s-3.5 18.5 -3.5 30.5v49c0 12 1 22.167 3 30.5s4.66699 12.5 8 12.5h23c76 0 163.333 18 262 54c26.667 9.33301 57.667 23 93 41c26 12.667 46 21.334 60 26.001c7.33301 3.33301 14.333 5.33301 21 6c-1.33301 0.666992 -3 1 -5 1
c-21.333 2.66699 -62.333 15 -123 37c-57.333 20.667 -97.333 31 -120 31c-18 0 -30.833 -6.16699 -38.5 -18.5s-13.5 -27.833 -17.5 -46.5l-80 13c8 52 22.167 92.333 42.5 121s50.166 43 89.499 43c20 0 43.333 -3.66699 70 -11s58.334 -18 95.001 -32
c60.667 -21.333 112.5 -37.833 155.5 -49.5s85.5 -17.5 127.5 -17.5l-26 -119c-30 -2 -58.167 -8.5 -84.5 -19.5s-56.166 -25.833 -89.499 -44.5c11.333 -6 26.833 -10 46.5 -12s46.167 -3 79.5 -3h64h83c2.66699 0 5 -4.16699 7 -12.5zM312 -95.001l99 -82l-83 -97l-96 82z
" />
    <glyph glyph-name="uniFEA2" unicode="&#x62d;" horiz-adv-x="747" arabic-form="final" 
d="M754 122.5c2 -8.33301 3.00195 -18.5029 3.00195 -30.5029v-49c0 -12 -1 -22.167 -3 -30.5s-4.33301 -12.5 -7 -12.5h-67c-56.667 0 -99.667 6 -129 18s-51.166 30.333 -65.499 55s-28.833 62.334 -43.5 113.001c-52.667 -27.333 -100.834 -58.166 -144.501 -92.499
s-76.834 -67.833 -99.501 -100.5c-4.66699 -24 -7 -48.333 -7 -73c0 -67.333 18.5 -117 55.5 -149s93.5 -48 169.5 -48h216l-25 -136h-201c-76 0 -137.833 14.5 -185.5 43.5s-82 67 -103 114s-31.5 99.5 -31.5 157.5c0 92.667 33.667 172.167 101 238.5
s151.666 121.166 252.999 164.499c16 7.33301 25.333 11.333 28 12c-21.333 5.33301 -60 16.666 -116 33.999c-61.333 20 -102.333 30 -123 30c-28.667 0 -47.334 -21 -56.001 -63l-82 16c11.333 50.667 27.333 89.834 48 117.501s49.667 41.5 87 41.5
c20.667 0 44.334 -3.5 71.001 -10.5s59 -16.833 97 -29.5c58 -21.333 111.167 -38.166 159.5 -50.499s94.5 -18.833 138.5 -19.5l-26 -119c-44.667 -5.33301 -94.667 -19.666 -150 -42.999c12.667 -34 27.5 -56.833 44.5 -68.5s43.5 -17.5 79.5 -17.5h107
c2.66699 0 5 -4.16699 7 -12.5z" />
    <glyph glyph-name="uniFEA3" unicode="&#x62d;" horiz-adv-x="725" arabic-form="initial" 
d="M533 345c42 -11.333 82.668 -17.001 122.001 -17.001l-26 -124c-35.333 -2.66699 -67.5 -10 -96.5 -22s-66.167 -30.667 -111.5 -56l-52 -29c-55.333 -30.667 -109.5 -54.5 -162.5 -71.5s-114.167 -25.5 -183.5 -25.5h-23c-2.66699 0 -5.16699 4.16699 -7.5 12.5
s-3.5 18.5 -3.5 30.5v49c0 12 1 22.167 3 30.5s4.66699 12.5 8 12.5h23c76 0 163.333 18 262 54c26 9.33301 57 22.333 93 39c33.333 14 53.333 22 60 24c10 2.66699 16.667 4.33398 20 5.00098c-0.666992 0.666992 -2 1 -4 1c-13.333 2 -28.5 5.83301 -45.5 11.5
s-39.5 14.167 -67.5 25.5c-64.667 24 -108 36 -130 36c-18 0 -30.833 -6.16699 -38.5 -18.5s-13.5 -27.833 -17.5 -46.5l-80 13c8 52 22.167 92.333 42.5 121s50.166 43 89.499 43c21.333 0 45.5 -4.16699 72.5 -12.5s62.833 -20.833 107.5 -37.5
c55.333 -20.667 104 -36.667 146 -48z" />
    <glyph glyph-name="uniFEA4" unicode="&#x62d;" horiz-adv-x="728" arabic-form="medial" 
d="M735 122.5c2 -8.33301 3 -18.501 3 -30.501v-49c0 -12 -1 -22.167 -3 -30.5s-4.33301 -12.5 -7 -12.5h-156c-45.333 0 -85.333 8.33301 -120 25s-57.667 44 -69 82c-56 -34 -111.333 -60.333 -166 -79s-119.334 -28 -194.001 -28h-23
c-2.66699 0 -5.16699 4.16699 -7.5 12.5s-3.5 18.5 -3.5 30.5v49c0 12 1 22.167 3 30.5s4.66699 12.5 8 12.5h23c76 0 163.333 18 262 54c26.667 9.33301 57.667 23 93 41c26 12.667 46 21.334 60 26.001c7.33301 3.33301 14.333 5.33301 21 6c-1.33301 0.666992 -3 1 -5 1
c-21.333 2.66699 -62.333 15 -123 37c-57.333 20.667 -97.333 31 -120 31c-18 0 -30.833 -6.16699 -38.5 -18.5s-13.5 -27.833 -17.5 -46.5l-80 13c8 52 22.167 92.333 42.5 121s50.166 43 89.499 43c20 0 43.333 -3.66699 70 -11s58.334 -18 95.001 -32
c60.667 -21.333 112.5 -37.833 155.5 -49.5s85.5 -17.5 127.5 -17.5l-26 -119c-30 -2 -58.167 -8.5 -84.5 -19.5s-56.166 -25.833 -89.499 -44.5c11.333 -6 26.833 -10 46.5 -12s46.167 -3 79.5 -3h64h83c2.66699 0 5 -4.16699 7 -12.5z" />
    <glyph glyph-name="uniFEA6" unicode="&#x62e;" horiz-adv-x="747" arabic-form="final" 
d="M435 584l-97 82l82 98l97 -82zM754 122.5c2 -8.33301 3.00195 -18.5029 3.00195 -30.5029v-49c0 -12 -1 -22.167 -3 -30.5s-4.33301 -12.5 -7 -12.5h-67c-56.667 0 -99.667 6 -129 18s-51.166 30.333 -65.499 55s-28.833 62.334 -43.5 113.001
c-52.667 -27.333 -100.834 -58.166 -144.501 -92.499s-76.834 -67.833 -99.501 -100.5c-4.66699 -24 -7 -48.333 -7 -73c0 -67.333 18.5 -117 55.5 -149s93.5 -48 169.5 -48h216l-25 -136h-201c-76 0 -137.833 14.5 -185.5 43.5s-82 67 -103 114s-31.5 99.5 -31.5 157.5
c0 92.667 33.667 172.167 101 238.5s151.666 121.166 252.999 164.499c16 7.33301 25.333 11.333 28 12c-21.333 5.33301 -60 16.666 -116 33.999c-61.333 20 -102.333 30 -123 30c-28.667 0 -47.334 -21 -56.001 -63l-82 16c11.333 50.667 27.333 89.834 48 117.501
s49.667 41.5 87 41.5c20.667 0 44.334 -3.5 71.001 -10.5s59 -16.833 97 -29.5c58 -21.333 111.167 -38.166 159.5 -50.499s94.5 -18.833 138.5 -19.5l-26 -119c-44.667 -5.33301 -94.667 -19.666 -150 -42.999c12.667 -34 27.5 -56.833 44.5 -68.5s43.5 -17.5 79.5 -17.5
h107c2.66699 0 5 -4.16699 7 -12.5z" />
    <glyph glyph-name="uniFEA7" unicode="&#x62e;" horiz-adv-x="725" arabic-form="initial" 
d="M318 532l-97 82l81 97l98 -81zM533 345c42 -11.333 82.668 -17.001 122.001 -17.001l-26 -124c-35.333 -2.66699 -67.5 -10 -96.5 -22s-66.167 -30.667 -111.5 -56l-52 -29c-55.333 -30.667 -109.5 -54.5 -162.5 -71.5s-114.167 -25.5 -183.5 -25.5h-23
c-2.66699 0 -5.16699 4.16699 -7.5 12.5s-3.5 18.5 -3.5 30.5v49c0 12 1 22.167 3 30.5s4.66699 12.5 8 12.5h23c76 0 163.333 18 262 54c26 9.33301 57 22.333 93 39c33.333 14 53.333 22 60 24c10 2.66699 16.667 4.33398 20 5.00098c-0.666992 0.666992 -2 1 -4 1
c-13.333 2 -28.5 5.83301 -45.5 11.5s-39.5 14.167 -67.5 25.5c-64.667 24 -108 36 -130 36c-18 0 -30.833 -6.16699 -38.5 -18.5s-13.5 -27.833 -17.5 -46.5l-80 13c8 52 22.167 92.333 42.5 121s50.166 43 89.499 43c21.333 0 45.5 -4.16699 72.5 -12.5
s62.833 -20.833 107.5 -37.5c55.333 -20.667 104 -36.667 146 -48z" />
    <glyph glyph-name="uniFEA8" unicode="&#x62e;" horiz-adv-x="728" arabic-form="medial" 
d="M318 532l-97 82l81 97l98 -81zM735 122.5c2 -8.33301 3 -18.501 3 -30.501v-49c0 -12 -1 -22.167 -3 -30.5s-4.33301 -12.5 -7 -12.5h-156c-45.333 0 -85.333 8.33301 -120 25s-57.667 44 -69 82c-56 -34 -111.333 -60.333 -166 -79s-119.334 -28 -194.001 -28h-23
c-2.66699 0 -5.16699 4.16699 -7.5 12.5s-3.5 18.5 -3.5 30.5v49c0 12 1 22.167 3 30.5s4.66699 12.5 8 12.5h23c76 0 163.333 18 262 54c26.667 9.33301 57.667 23 93 41c26 12.667 46 21.334 60 26.001c7.33301 3.33301 14.333 5.33301 21 6c-1.33301 0.666992 -3 1 -5 1
c-21.333 2.66699 -62.333 15 -123 37c-57.333 20.667 -97.333 31 -120 31c-18 0 -30.833 -6.16699 -38.5 -18.5s-13.5 -27.833 -17.5 -46.5l-80 13c8 52 22.167 92.333 42.5 121s50.166 43 89.499 43c20 0 43.333 -3.66699 70 -11s58.334 -18 95.001 -32
c60.667 -21.333 112.5 -37.833 155.5 -49.5s85.5 -17.5 127.5 -17.5l-26 -119c-30 -2 -58.167 -8.5 -84.5 -19.5s-56.166 -25.833 -89.499 -44.5c11.333 -6 26.833 -10 46.5 -12s46.167 -3 79.5 -3h64h83c2.66699 0 5 -4.16699 7 -12.5z" />
    <glyph glyph-name="uniFEAA" unicode="&#x62f;" horiz-adv-x="620" arabic-form="final" 
d="M627 122.5c2 -8.33301 2.99805 -18.502 2.99805 -30.502v-49c0 -12 -1 -22.167 -3 -30.5s-4.33301 -12.5 -7 -12.5h-24c-70 0 -115.333 26.333 -136 79l-2 -7c-4 -11.333 -7.83301 -20.166 -11.5 -26.499s-8.5 -10.833 -14.5 -13.5
c-23.333 -12.667 -54 -23.334 -92 -32.001s-73.333 -13 -106 -13c-49.333 0 -86.333 10.5 -111 31.5s-37 58.5 -37 112.5c0 24.667 0.666992 43.667 2 57l84 -4v-24c0 -12.667 2.16699 -21.667 6.5 -27s12 -8.66602 23 -9.99902s29.833 -2 56.5 -2
c28.667 0 57.667 3.16699 87 9.5s53.666 14.833 72.999 25.5l-76 306l100 58l61 -292c6.66699 -33.333 12.834 -55.666 18.501 -66.999s14.834 -18.5 27.501 -21.5s36.334 -4.5 71.001 -4.5c2.66699 0 5 -4.16699 7 -12.5z" />
    <glyph glyph-name="uniFEAC" unicode="&#x630;" horiz-adv-x="620" arabic-form="final" 
d="M369 636l-97 83l81 97l98 -82zM627 122.5c2 -8.33301 2.99805 -18.502 2.99805 -30.502v-49c0 -12 -1 -22.167 -3 -30.5s-4.33301 -12.5 -7 -12.5h-24c-70 0 -115.333 26.333 -136 79l-2 -7c-4 -11.333 -7.83301 -20.166 -11.5 -26.499s-8.5 -10.833 -14.5 -13.5
c-23.333 -12.667 -54 -23.334 -92 -32.001s-73.333 -13 -106 -13c-49.333 0 -86.333 10.5 -111 31.5s-37 58.5 -37 112.5c0 24.667 0.666992 43.667 2 57l84 -4v-24c0 -12.667 2.16699 -21.667 6.5 -27s12 -8.66602 23 -9.99902s29.833 -2 56.5 -2
c28.667 0 57.667 3.16699 87 9.5s53.666 14.833 72.999 25.5l-76 306l100 58l61 -292c6.66699 -33.333 12.834 -55.666 18.501 -66.999s14.834 -18.5 27.501 -21.5s36.334 -4.5 71.001 -4.5c2.66699 0 5 -4.16699 7 -12.5z" />
    <glyph glyph-name="uniFEAE" unicode="&#x631;" horiz-adv-x="440" arabic-form="final" 
d="M447 122.5c2 -8.33301 2.99805 -18.499 2.99805 -30.499v-49c0 -12 -1 -22.167 -3 -30.5s-4.33301 -12.5 -7 -12.5h-25c-51.333 0 -89.333 15 -114 45c-1.33301 -68 -25.333 -129.333 -72 -184s-121.667 -106.667 -225 -156l-68 105
c82.667 38 144.334 73.333 185.001 106s69.334 67 86.001 103l-36 299l106 24l14 -132c2.66699 -23.333 9 -40.333 19 -51s23 -17.334 39 -20.001s39.667 -4 71 -4h20c2.66699 0 5 -4.16699 7 -12.5z" />
    <glyph glyph-name="uniFEB0" unicode="&#x632;" horiz-adv-x="440" arabic-form="final" 
d="M192 456l-97 82l81 98l98 -82zM447 122.5c2 -8.33301 2.99805 -18.499 2.99805 -30.499v-49c0 -12 -1 -22.167 -3 -30.5s-4.33301 -12.5 -7 -12.5h-25c-51.333 0 -89.333 15 -114 45c-1.33301 -68 -25.333 -129.333 -72 -184s-121.667 -106.667 -225 -156l-68 105
c82.667 38 144.334 73.333 185.001 106s69.334 67 86.001 103l-36 299l106 24l14 -132c2.66699 -23.333 9 -40.333 19 -51s23 -17.334 39 -20.001s39.667 -4 71 -4h20c2.66699 0 5 -4.16699 7 -12.5z" />
    <glyph glyph-name="uniFEB2" unicode="&#x633;" horiz-adv-x="1285" arabic-form="final" 
d="M1292 122.5c2 -8.33301 3.00195 -18.5 3.00195 -30.5v-49c0 -12 -1 -22.167 -3 -30.5s-4.33301 -12.5 -7 -12.5h-37c-28.667 -0 -54.334 5.33301 -77.001 16s-39.334 26 -50.001 46c-15.333 -20.667 -35.666 -36 -60.999 -46s-53 -15 -83 -15c-56 0 -93 20.667 -111 62
c-12 -21.333 -29.5 -37 -52.5 -47s-45.167 -15 -66.5 -15c-44 0 -75.667 12 -95 36c2.66699 -41.333 4 -72 4 -92c0 -39.333 -15.667 -72 -47 -98s-71.166 -45.167 -119.499 -57.5s-98.833 -18.5 -151.5 -18.5c-94 0 -159.5 19 -196.5 57s-55.5 84 -55.5 138
c0 37.333 16.333 145.666 49 324.999l83 -18c-22.667 -125.333 -35.667 -218 -39 -278c-2 -35.333 14.333 -59 49 -71s73.334 -18 116.001 -18c96.667 0 169.667 14.333 219 43l-40 378l105 24l14 -149c2 -25.333 9.16699 -42.666 21.5 -51.999s33.166 -14 62.499 -14
c39.333 0 68.333 5.66699 87 17l-4 190l95 4l5 -199c11.333 -8 29 -12 53 -12c37.333 0 69 6.33301 95 19l-24 233l105 18l14 -200c1.33301 -29.333 8.16602 -48.5 20.499 -57.5s35.166 -13.5 68.499 -13.5h44c2.66699 0 5 -4.16699 7 -12.5z" />
    <glyph glyph-name="uniFEB3" unicode="&#x633;" horiz-adv-x="792" arabic-form="initial" 
d="M704 148c0 -50 -16.5029 -87.167 -49.5029 -111.5s-73.5 -36.5 -121.5 -36.5c-29.333 0 -54.166 4.66699 -74.499 14s-35.5 25.666 -45.5 48.999c-12.667 -22 -31.5 -38 -56.5 -48s-50.167 -15 -75.5 -15c-54 0 -90.333 20.667 -109 62
c-15.333 -22.667 -37.666 -38.667 -66.999 -48s-64.333 -14 -105 -14c-2.66699 0 -5.16699 4.16699 -7.5 12.5s-3.5 18.5 -3.5 30.5v49c0 12 1 22.167 3 30.5s4.66699 12.5 8 12.5c26 0 49.333 1.5 70 4.5s39.667 8.83301 57 17.5l2 148l96 -1l-2 -115
c0 -23.333 5.5 -38.166 16.5 -44.499s29.167 -9.5 54.5 -9.5c34 0 59 6.33301 75 19l-4 188l96 4l4 -199c12.667 -8 30.334 -12 53.001 -12c37.333 0 69 6.33301 95 19l-23 233l104 19c6.66699 -102.667 10 -188.667 10 -258z" />
    <glyph glyph-name="uniFEB4" unicode="&#x633;" horiz-adv-x="842" arabic-form="medial" 
d="M849 122.5c2 -8.33301 2.99902 -18.5 2.99902 -30.5v-49c0 -12 -1 -22.167 -3 -30.5s-4.33301 -12.5 -7 -12.5h-38c-28.667 0 -54 5.5 -76 16.5s-38.333 26.167 -49 45.5c-15.333 -20.667 -35.833 -36.167 -61.5 -46.5s-53.834 -15.5 -84.501 -15.5
c-29.333 0 -54.166 4.66699 -74.499 14s-35.5 25.666 -45.5 48.999c-12.667 -22 -31.5 -38 -56.5 -48s-50.167 -15 -75.5 -15c-54 0 -90.333 20.667 -109 62c-15.333 -22.667 -37.666 -38.667 -66.999 -48s-64.333 -14 -105 -14c-2.66699 0 -5.16699 4.16699 -7.5 12.5
s-3.5 18.5 -3.5 30.5v49c0 12 1 22.167 3 30.5s4.66699 12.5 8 12.5c26 0 49.333 1.5 70 4.5s39.667 8.83301 57 17.5l2 148l96 -1l-2 -115c0 -23.333 5.5 -38.166 16.5 -44.499s29.167 -9.5 54.5 -9.5c34 0 59 6.33301 75 19l-4 188l96 4l4 -199
c12.667 -8 30.334 -12 53.001 -12c37.333 0 69 6.33301 95 19l-23 233l104 19l13 -200c2 -29.333 9.16699 -48.5 21.5 -57.5s35.166 -13.5 68.499 -13.5h45c2.66699 0 5 -4.16699 7 -12.5z" />
    <glyph glyph-name="uniFEB6" unicode="&#x634;" horiz-adv-x="1285" arabic-form="final" 
d="M843 609l-86 71l73 87l86 -72zM914 617l87 -72l-73 -86l-86 72zM767 455l-87 73l72 87l87 -73zM1292 122.5c2 -8.33301 3.00195 -18.5 3.00195 -30.5v-49c0 -12 -1 -22.167 -3 -30.5s-4.33301 -12.5 -7 -12.5h-37c-28.667 -0 -54.334 5.33301 -77.001 16
s-39.334 26 -50.001 46c-15.333 -20.667 -35.666 -36 -60.999 -46s-53 -15 -83 -15c-56 0 -93 20.667 -111 62c-12 -21.333 -29.5 -37 -52.5 -47s-45.167 -15 -66.5 -15c-44 0 -75.667 12 -95 36c2.66699 -41.333 4 -72 4 -92c0 -39.333 -15.667 -72 -47 -98
s-71.166 -45.167 -119.499 -57.5s-98.833 -18.5 -151.5 -18.5c-94 0 -159.5 19 -196.5 57s-55.5 84 -55.5 138c0 37.333 16.333 145.666 49 324.999l83 -18c-22.667 -125.333 -35.667 -218 -39 -278c-2 -35.333 14.333 -59 49 -71s73.334 -18 116.001 -18
c96.667 0 169.667 14.333 219 43l-40 378l105 24l14 -149c2 -25.333 9.16699 -42.666 21.5 -51.999s33.166 -14 62.499 -14c39.333 0 68.333 5.66699 87 17l-4 190l95 4l5 -199c11.333 -8 29 -12 53 -12c37.333 0 69 6.33301 95 19l-24 233l105 18l14 -200
c1.33301 -29.333 8.16602 -48.5 20.499 -57.5s35.166 -13.5 68.499 -13.5h44c2.66699 0 5 -4.16699 7 -12.5z" />
    <glyph glyph-name="uniFEB7" unicode="&#x634;" horiz-adv-x="792" arabic-form="initial" 
d="M406 604l-85 72l72 86l86 -72zM477 612l87 -72l-73 -86l-86 72zM330 451l-86 72l72 87l86 -73zM704 148c0 -50 -16.5029 -87.167 -49.5029 -111.5s-73.5 -36.5 -121.5 -36.5c-29.333 0 -54.166 4.66699 -74.499 14s-35.5 25.666 -45.5 48.999
c-12.667 -22 -31.5 -38 -56.5 -48s-50.167 -15 -75.5 -15c-54 0 -90.333 20.667 -109 62c-15.333 -22.667 -37.666 -38.667 -66.999 -48s-64.333 -14 -105 -14c-2.66699 0 -5.16699 4.16699 -7.5 12.5s-3.5 18.5 -3.5 30.5v49c0 12 1 22.167 3 30.5s4.66699 12.5 8 12.5
c26 0 49.333 1.5 70 4.5s39.667 8.83301 57 17.5l2 148l96 -1l-2 -115c0 -23.333 5.5 -38.166 16.5 -44.499s29.167 -9.5 54.5 -9.5c34 0 59 6.33301 75 19l-4 188l96 4l4 -199c12.667 -8 30.334 -12 53.001 -12c37.333 0 69 6.33301 95 19l-23 233l104 19
c6.66699 -102.667 10 -188.667 10 -258z" />
    <glyph glyph-name="uniFEB8" unicode="&#x634;" horiz-adv-x="842" arabic-form="medial" 
d="M430 604l-86 72l72 86l87 -72zM501 612l87 -72l-73 -86l-86 72zM353 451l-86 72l72 87l87 -73zM849 122.5c2 -8.33301 2.99902 -18.5 2.99902 -30.5v-49c0 -12 -1 -22.167 -3 -30.5s-4.33301 -12.5 -7 -12.5h-38c-28.667 0 -54 5.5 -76 16.5s-38.333 26.167 -49 45.5
c-15.333 -20.667 -35.833 -36.167 -61.5 -46.5s-53.834 -15.5 -84.501 -15.5c-29.333 0 -54.166 4.66699 -74.499 14s-35.5 25.666 -45.5 48.999c-12.667 -22 -31.5 -38 -56.5 -48s-50.167 -15 -75.5 -15c-54 0 -90.333 20.667 -109 62
c-15.333 -22.667 -37.666 -38.667 -66.999 -48s-64.333 -14 -105 -14c-2.66699 0 -5.16699 4.16699 -7.5 12.5s-3.5 18.5 -3.5 30.5v49c0 12 1 22.167 3 30.5s4.66699 12.5 8 12.5c26 0 49.333 1.5 70 4.5s39.667 8.83301 57 17.5l2 148l96 -1l-2 -115
c0 -23.333 5.5 -38.166 16.5 -44.499s29.167 -9.5 54.5 -9.5c34 0 59 6.33301 75 19l-4 188l96 4l4 -199c12.667 -8 30.334 -12 53.001 -12c37.333 0 69 6.33301 95 19l-23 233l104 19l13 -200c2 -29.333 9.16699 -48.5 21.5 -57.5s35.166 -13.5 68.499 -13.5h45
c2.66699 0 5 -4.16699 7 -12.5z" />
    <glyph glyph-name="uniFEBA" unicode="&#x635;" horiz-adv-x="1327" arabic-form="final" 
d="M1334 122.5c2 -8.33301 2.99707 -18.5 2.99707 -30.5v-49c0 -12 -1 -22.167 -3 -30.5s-4.33301 -12.5 -7 -12.5c-41.333 0 -74 5 -98 15s-43.667 27.667 -59 53c-31.333 -23.333 -73 -41.5 -125 -54.5s-111.667 -19.5 -179 -19.5c-90.667 0 -161.667 10.667 -213 32
l3 -78c0.666992 -40 -14.5 -73.333 -45.5 -100s-70.833 -46.167 -119.5 -58.5s-99.667 -18.5 -153 -18.5c-94 0 -159.5 19 -196.5 57s-55.5 84 -55.5 138c0 37.333 16.333 145.666 49 324.999l83 -18c-22.667 -125.333 -35.667 -218 -39 -278c-2 -35.333 14.333 -59 49 -71
s73.334 -18 116.001 -18c96.667 0 169.667 14.333 219 43l-40 378l105 24c7.33301 -74.667 13 -140.334 17 -197.001c8.66699 -5.33301 19.334 -9 32.001 -11c46.667 70 103.334 137.667 170.001 203s133 98 199 98c61.333 0 108 -21.167 140 -63.5s48 -103.833 48 -184.5
c0 -15.333 -1.33301 -28.666 -4 -39.999c8.66699 -7.33301 20.5 -12.666 35.5 -15.999s35.5 -5 61.5 -5c2.66699 0 5 -4.16699 7 -12.5zM1120 284.5c-17.333 27.667 -43 41.5 -77 41.5c-36.667 0 -79.167 -17.5 -127.5 -52.5s-95.5 -82.167 -141.5 -141.5c28 -2 57 -3 87 -3
c100.667 0 195 13.333 283 40c1.33301 49.333 -6.66699 87.833 -24 115.5z" />
    <glyph glyph-name="uniFEBB" unicode="&#x635;" horiz-adv-x="902" arabic-form="initial" 
d="M767 383c32 -42 48.002 -103.667 48.002 -185c0 -40.667 -10 -73 -30 -97c-26.667 -32.667 -69.334 -58.167 -128.001 -76.5s-128.334 -27.5 -209.001 -27.5c-127.333 0 -215.333 20.333 -264 61c-22 -19.333 -50 -33.833 -84 -43.5s-67.333 -14.5 -100 -14.5
c-2.66699 0 -5.16699 4.16699 -7.5 12.5s-3.5 18.5 -3.5 30.5v49c0 12 1 22.167 3 30.5s4.66699 12.5 8 12.5c54.667 0 97.667 7.33301 129 22l-2 163l94 3l-2 -163c12 -7.33301 25.333 -12 40 -14c44.667 68 100.667 135 168 201s134 99 200 99c61.333 0 108 -21 140 -63z
M701.502 287.5c-17 27.667 -42.5 41.5 -76.5 41.5c-36.667 0 -79.167 -17.667 -127.5 -53s-95.833 -82.333 -142.5 -141c28 -2 56.667 -3 86 -3c105.333 0 200 13.333 284 40c1.33301 49.333 -6.5 87.833 -23.5 115.5z" />
    <glyph glyph-name="uniFEBC" unicode="&#x635;" horiz-adv-x="909" arabic-form="medial" 
d="M916 122.5c2 -8.33301 2.99902 -18.4971 2.99902 -30.4971v-49c0 -12 -1 -22.167 -3 -30.5s-4.33301 -12.5 -7 -12.5c-41.333 0 -74.166 5.16699 -98.499 15.5s-44.166 28.166 -59.499 53.499c-32 -22.667 -73.833 -40.334 -125.5 -53.001s-110.834 -19 -177.501 -19
c-127.333 0 -215.333 20.333 -264 61c-22 -19.333 -50 -33.833 -84 -43.5s-67.333 -14.5 -100 -14.5c-2.66699 0 -5.16699 4.16699 -7.5 12.5s-3.5 18.5 -3.5 30.5v49c0 12 1 22.167 3 30.5s4.66699 12.5 8 12.5c54.667 0 97.667 7.33301 129 22l-2 163l94 3l-2 -163
c12 -7.33301 25.333 -12 40 -14c44.667 68 100.667 135 168 201s134 99 200 99c61.333 0 108 -21 140 -63s48 -103.667 48 -185c0 -16.667 -1.33301 -30.334 -4 -41.001c8 -7.33301 19.667 -12.833 35 -16.5s36.333 -5.5 63 -5.5c2.66699 0 5 -4.16699 7 -12.5z
M701.499 287.503c-17 27.667 -42.5 41.5 -76.5 41.5c-36.667 0 -79.167 -17.667 -127.5 -53s-95.833 -82.333 -142.5 -141c28 -2 56.667 -3 86 -3c105.333 0 200 13.333 284 40c1.33301 49.333 -6.5 87.833 -23.5 115.5z" />
    <glyph glyph-name="uniFEBE" unicode="&#x636;" horiz-adv-x="1327" arabic-form="final" 
d="M853 533l-97 82l81 98l98 -82zM1334 122.5c2 -8.33301 2.99707 -18.5 2.99707 -30.5v-49c0 -12 -1 -22.167 -3 -30.5s-4.33301 -12.5 -7 -12.5c-41.333 0 -74 5 -98 15s-43.667 27.667 -59 53c-31.333 -23.333 -73 -41.5 -125 -54.5s-111.667 -19.5 -179 -19.5
c-90.667 0 -161.667 10.667 -213 32l3 -78c0.666992 -40 -14.5 -73.333 -45.5 -100s-70.833 -46.167 -119.5 -58.5s-99.667 -18.5 -153 -18.5c-94 0 -159.5 19 -196.5 57s-55.5 84 -55.5 138c0 37.333 16.333 145.666 49 324.999l83 -18
c-22.667 -125.333 -35.667 -218 -39 -278c-2 -35.333 14.333 -59 49 -71s73.334 -18 116.001 -18c96.667 0 169.667 14.333 219 43l-40 378l105 24c7.33301 -74.667 13 -140.334 17 -197.001c8.66699 -5.33301 19.334 -9 32.001 -11c46.667 70 103.334 137.667 170.001 203
s133 98 199 98c61.333 0 108 -21.167 140 -63.5s48 -103.833 48 -184.5c0 -15.333 -1.33301 -28.666 -4 -39.999c8.66699 -7.33301 20.5 -12.666 35.5 -15.999s35.5 -5 61.5 -5c2.66699 0 5 -4.16699 7 -12.5zM1120 284.5c-17.333 27.667 -43 41.5 -77 41.5
c-36.667 0 -79.167 -17.5 -127.5 -52.5s-95.5 -82.167 -141.5 -141.5c28 -2 57 -3 87 -3c100.667 0 195 13.333 283 40c1.33301 49.333 -6.66699 87.833 -24 115.5z" />
    <glyph glyph-name="uniFEBF" unicode="&#x636;" horiz-adv-x="902" arabic-form="initial" 
d="M446 533l-97 82l81 98l98 -82zM767 383c32 -42 48.002 -103.667 48.002 -185c0 -40.667 -10 -73 -30 -97c-26.667 -32.667 -69.334 -58.167 -128.001 -76.5s-128.334 -27.5 -209.001 -27.5c-127.333 0 -215.333 20.333 -264 61c-22 -19.333 -50 -33.833 -84 -43.5
s-67.333 -14.5 -100 -14.5c-2.66699 0 -5.16699 4.16699 -7.5 12.5s-3.5 18.5 -3.5 30.5v49c0 12 1 22.167 3 30.5s4.66699 12.5 8 12.5c54.667 0 97.667 7.33301 129 22l-2 163l94 3l-2 -163c12 -7.33301 25.333 -12 40 -14c44.667 68 100.667 135 168 201s134 99 200 99
c61.333 0 108 -21 140 -63zM701.502 287.5c-17 27.667 -42.5 41.5 -76.5 41.5c-36.667 0 -79.167 -17.667 -127.5 -53s-95.833 -82.333 -142.5 -141c28 -2 56.667 -3 86 -3c105.333 0 200 13.333 284 40c1.33301 49.333 -6.5 87.833 -23.5 115.5z" />
    <glyph glyph-name="uniFEC0" unicode="&#x636;" horiz-adv-x="909" arabic-form="medial" 
d="M446 533l-97 82l81 98l98 -82zM916 122.5c2 -8.33301 2.99902 -18.4971 2.99902 -30.4971v-49c0 -12 -1 -22.167 -3 -30.5s-4.33301 -12.5 -7 -12.5c-41.333 0 -74.166 5.16699 -98.499 15.5s-44.166 28.166 -59.499 53.499c-32 -22.667 -73.833 -40.334 -125.5 -53.001
s-110.834 -19 -177.501 -19c-127.333 0 -215.333 20.333 -264 61c-22 -19.333 -50 -33.833 -84 -43.5s-67.333 -14.5 -100 -14.5c-2.66699 0 -5.16699 4.16699 -7.5 12.5s-3.5 18.5 -3.5 30.5v49c0 12 1 22.167 3 30.5s4.66699 12.5 8 12.5c54.667 0 97.667 7.33301 129 22
l-2 163l94 3l-2 -163c12 -7.33301 25.333 -12 40 -14c44.667 68 100.667 135 168 201s134 99 200 99c61.333 0 108 -21 140 -63s48 -103.667 48 -185c0 -16.667 -1.33301 -30.334 -4 -41.001c8 -7.33301 19.667 -12.833 35 -16.5s36.333 -5.5 63 -5.5
c2.66699 0 5 -4.16699 7 -12.5zM701.499 287.503c-17 27.667 -42.5 41.5 -76.5 41.5c-36.667 0 -79.167 -17.667 -127.5 -53s-95.833 -82.333 -142.5 -141c28 -2 56.667 -3 86 -3c105.333 0 200 13.333 284 40c1.33301 49.333 -6.5 87.833 -23.5 115.5z" />
    <glyph glyph-name="uniFEC2" unicode="&#x637;" horiz-adv-x="835" arabic-form="final" 
d="M842 122.5c2 -8.33301 2.99805 -18.501 2.99805 -30.501v-49c0 -12 -1 -22.167 -3 -30.5s-4.33301 -12.5 -7 -12.5c-41.333 0 -74.333 5.16699 -99 15.5s-44.667 28.5 -60 54.5c-65.333 -46.667 -177.666 -70 -336.999 -70h-224l-29 135h93
c4.66699 8 10.334 16.333 17.001 25l17 25c5.33301 8.66699 9 20.667 11 36s3 44 3 86c0 70.667 -3.33301 208.334 -10 413.001l105 23l4 -340c0 -40 -1.66699 -70 -5 -90c86 88.667 163.333 133 232 133c61.333 0 108 -21 140 -63s48 -103.667 48 -185
c0 -16 -1.33301 -29.667 -4 -41c8 -7.33301 19.667 -12.833 35 -16.5s36.333 -5.5 63 -5.5c2.66699 0 5 -4.16699 7 -12.5zM626.998 287.499c-17.333 27.667 -43 41.501 -77 41.501c-36 0 -78.167 -17.833 -126.5 -53.5s-95.833 -82.834 -142.5 -141.501h87
c100.667 0 195 12.667 283 38c1.33301 49.333 -6.66699 87.833 -24 115.5z" />
    <glyph glyph-name="uniFEC3" unicode="&#x637;" horiz-adv-x="741" arabic-form="initial" 
d="M607 383c32 -42 47.999 -103.669 47.999 -185.002c0 -39.333 -10 -71.666 -30 -96.999c-56.667 -67.333 -180.667 -101 -372 -101h-253c-2.66699 0 -5.16699 4.16699 -7.5 12.5s-3.5 18.5 -3.5 30.5v49c0 12 1 22.167 3 30.5s4.66699 12.5 8 12.5h93
c4.66699 8 10.334 16.333 17.001 25l17 25c5.33301 8.66699 9 20.667 11 36s3 44 3 86c0 70.667 -3.33301 208.334 -10 413.001l105 23l4 -340c0 -40 -1.66699 -70 -5 -90c86 88.667 163.333 133 232 133c61.333 0 108 -21 140 -63zM540.999 287.498
c-17.333 27.667 -43 41.501 -77 41.501c-36 0 -78.167 -17.833 -126.5 -53.5s-95.833 -82.834 -142.5 -141.501h87c100.667 0 195 12.667 283 38c1.33301 49.333 -6.66699 87.833 -24 115.5z" />
    <glyph glyph-name="uniFEC4" unicode="&#x637;" horiz-adv-x="748" arabic-form="medial" 
d="M755 122.5c2 -8.33301 2.99707 -18.502 2.99707 -30.502v-49c0 -12 -1 -22.167 -3 -30.5s-4.33301 -12.5 -7 -12.5c-41.333 0 -74.166 5.16699 -98.499 15.5s-44.166 28.5 -59.499 54.5c-66.667 -46.667 -179 -70 -337 -70h-253c-2.66699 0 -5.16699 4.16699 -7.5 12.5
s-3.5 18.5 -3.5 30.5v49c0 12 1 22.167 3 30.5s4.66699 12.5 8 12.5h93c4.66699 8 10.334 16.333 17.001 25l17 25c5.33301 8.66699 9 20.667 11 36s3 44 3 86c0 70.667 -3.33301 208.334 -10 413.001l105 23l4 -340c0 -40 -1.66699 -70 -5 -90
c86 88.667 163.333 133 232 133c61.333 0 108 -21 140 -63s48 -103.667 48 -185c0 -16.667 -1.33301 -30.667 -4 -42c8 -7.33301 19.667 -12.666 35 -15.999s36 -5 62 -5c2.66699 0 5 -4.16699 7 -12.5zM540.997 287.498c-17.333 27.667 -43 41.501 -77 41.501
c-36 0 -78.167 -17.833 -126.5 -53.5s-95.833 -82.834 -142.5 -141.501h87c100.667 0 195 12.667 283 38c1.33301 49.333 -6.66699 87.833 -24 115.5z" />
    <glyph glyph-name="uniFEC6" unicode="&#x638;" horiz-adv-x="835" arabic-form="final" 
d="M842 122.5c2 -8.33301 2.99805 -18.501 2.99805 -30.501v-49c0 -12 -1 -22.167 -3 -30.5s-4.33301 -12.5 -7 -12.5c-41.333 0 -74.333 5.16699 -99 15.5s-44.667 28.5 -60 54.5c-65.333 -46.667 -177.666 -70 -336.999 -70h-224l-29 135h93
c4.66699 8 10.334 16.333 17.001 25l17 25c5.33301 8.66699 9 20.667 11 36s3 44 3 86c0 70.667 -3.33301 208.334 -10 413.001l105 23l4 -340c0 -40 -1.66699 -70 -5 -90c86 88.667 163.333 133 232 133c61.333 0 108 -21 140 -63s48 -103.667 48 -185
c0 -16 -1.33301 -29.667 -4 -41c8 -7.33301 19.667 -12.833 35 -16.5s36.333 -5.5 63 -5.5c2.66699 0 5 -4.16699 7 -12.5zM558.998 562.999l-97 83l81 97l97 -82zM626.998 287.499c-17.333 27.667 -43 41.501 -77 41.501c-36 0 -78.167 -17.833 -126.5 -53.5
s-95.833 -82.834 -142.5 -141.501h87c100.667 0 195 12.667 283 38c1.33301 49.333 -6.66699 87.833 -24 115.5z" />
    <glyph glyph-name="uniFEC7" unicode="&#x638;" horiz-adv-x="741" arabic-form="initial" 
d="M607 383c32 -42 47.999 -103.669 47.999 -185.002c0 -39.333 -10 -71.666 -30 -96.999c-56.667 -67.333 -180.667 -101 -372 -101h-253c-2.66699 0 -5.16699 4.16699 -7.5 12.5s-3.5 18.5 -3.5 30.5v49c0 12 1 22.167 3 30.5s4.66699 12.5 8 12.5h93
c4.66699 8 10.334 16.333 17.001 25l17 25c5.33301 8.66699 9 20.667 11 36s3 44 3 86c0 70.667 -3.33301 208.334 -10 413.001l105 23l4 -340c0 -40 -1.66699 -70 -5 -90c86 88.667 163.333 133 232 133c61.333 0 108 -21 140 -63zM468.999 562.998l-97 83l81 97l97 -82z
M540.999 287.498c-17.333 27.667 -43 41.501 -77 41.501c-36 0 -78.167 -17.833 -126.5 -53.5s-95.833 -82.834 -142.5 -141.501h87c100.667 0 195 12.667 283 38c1.33301 49.333 -6.66699 87.833 -24 115.5z" />
    <glyph glyph-name="uniFEC8" unicode="&#x638;" horiz-adv-x="748" arabic-form="medial" 
d="M755 122.5c2 -8.33301 2.99707 -18.502 2.99707 -30.502v-49c0 -12 -1 -22.167 -3 -30.5s-4.33301 -12.5 -7 -12.5c-41.333 0 -74.166 5.16699 -98.499 15.5s-44.166 28.5 -59.499 54.5c-66.667 -46.667 -179 -70 -337 -70h-253c-2.66699 0 -5.16699 4.16699 -7.5 12.5
s-3.5 18.5 -3.5 30.5v49c0 12 1 22.167 3 30.5s4.66699 12.5 8 12.5h93c4.66699 8 10.334 16.333 17.001 25l17 25c5.33301 8.66699 9 20.667 11 36s3 44 3 86c0 70.667 -3.33301 208.334 -10 413.001l105 23l4 -340c0 -40 -1.66699 -70 -5 -90
c86 88.667 163.333 133 232 133c61.333 0 108 -21 140 -63s48 -103.667 48 -185c0 -16.667 -1.33301 -30.667 -4 -42c8 -7.33301 19.667 -12.666 35 -15.999s36 -5 62 -5c2.66699 0 5 -4.16699 7 -12.5zM468.997 562.998l-97 83l81 97l97 -82zM540.997 287.498
c-17.333 27.667 -43 41.501 -77 41.501c-36 0 -78.167 -17.833 -126.5 -53.5s-95.833 -82.834 -142.5 -141.501h87c100.667 0 195 12.667 283 38c1.33301 49.333 -6.66699 87.833 -24 115.5z" />
    <glyph glyph-name="uniFECA" unicode="&#x639;" horiz-adv-x="641" arabic-form="final" 
d="M648 122.5c2 -8.33301 3.00195 -18.5029 3.00195 -30.5029v-49c0 -12 -1 -22.167 -3 -30.5s-4.33301 -12.5 -7 -12.5h-75c-65.333 0 -114.833 8.66699 -148.5 26s-60.5 46.666 -80.5 87.999c-31.333 -18 -58.333 -36.333 -81 -55s-43.667 -40.667 -63 -66
c-4.66699 -26 -7 -52 -7 -78c0 -66 18 -114.667 54 -146s92 -47 168 -47h219l-25 -135h-200c-73.333 0 -133.833 14.833 -181.5 44.5s-82.667 68.334 -105 116.001s-33.5 99.167 -33.5 154.5c0 62.667 14.667 117.334 44 164.001s73 92 131 136l-30 50
c-20.667 34.667 -37.5 61.834 -50.5 81.501s-21.333 31.334 -25 35.001s-8.16699 5.16699 -13.5 4.5l-24 -2l4 112c64.667 6.66699 117.667 11.667 159 15s78.666 5 111.999 5c59.333 0 103.166 -7 131.499 -21s42.5 -37.667 42.5 -71v-33c0 -14 -6.16699 -34 -18.5 -60
s-29.5 -53 -51.5 -81s-46.333 -51.333 -73 -70c22 -21.333 57 -32 105 -32h116c2.66699 0 5 -4.16699 7 -12.5zM421.002 294.497c26 33 42 60.501 48 82.501c-4.66699 4 -16.667 7 -36 9s-42 3 -68 3c-48 0 -88.333 -2.33301 -121 -7c6 -3.33301 12.167 -9.33301 18.5 -18
s17.833 -26.334 34.5 -53.001l54 -87c20.667 14 44 37.5 70 70.5z" />
    <glyph glyph-name="uniFECB" unicode="&#x639;" horiz-adv-x="574" arabic-form="initial" 
d="M488 62c-80.667 -20 -141.166 -33.999 -181.499 -41.999s-77.5 -13.333 -111.5 -16s-79.333 -4 -136 -4h-59c-2.66699 0 -5.16699 4.16699 -7.5 12.5s-3.5 18.5 -3.5 30.5v49c0 12 1 22.167 3 30.5s4.66699 12.5 8 12.5h129c-16 36 -24 76 -24 120
c0 57.333 17.833 100 53.5 128s82.167 42 139.5 42c33.333 0 68.666 -4.66699 105.999 -14l-27 -112c-24 7.33301 -54.333 11 -91 11c-35.333 0 -63.333 -3.33301 -84 -10c0 -30 3 -59.333 9 -88s14.333 -52.667 25 -72c86 13.333 167.333 29.666 244 48.999z" />
    <glyph glyph-name="uniFECC" unicode="&#x639;" horiz-adv-x="559" arabic-form="medial" 
d="M566 122.5c2 -8.33301 3 -18.499 3 -30.499v-49c0 -12 -1 -22.167 -3 -30.5s-4.33301 -12.5 -7 -12.5h-166c-45.333 0 -80.333 14.333 -105 43c-28.667 -28.667 -70.667 -43 -126 -43h-162c-2.66699 0 -5.16699 4.16699 -7.5 12.5s-3.5 18.5 -3.5 30.5v49
c0 12 1 22.167 3 30.5s4.66699 12.5 8 12.5h134c16.667 0 33 -0.666992 49 -2l-27 44l-46.5 76c-11.667 18.667 -19.334 29.5 -23.001 32.5s-8.16699 4.16699 -13.5 3.5l-24 -2l4 113l44 4c104 10.667 179.667 16 227 16c60 0 104.167 -7 132.5 -21s42.5 -37.667 42.5 -71
v-34c0 -16.667 -10 -41.834 -30 -75.501s-40.667 -61.167 -62 -82.5c6.66699 -0.666992 18.334 -1 35.001 -1h117c2.66699 0 5 -4.16699 7 -12.5zM356 210.501c26 33 42 60.501 48 82.501c-8.66699 8 -41.667 12 -99 12c-50.667 0 -93 -2.33301 -127 -7
c6 -2.66699 12 -8.33398 18 -17.001s17.667 -27 35 -55l55 -86c20.667 14 44 37.5 70 70.5z" />
    <glyph glyph-name="uniFECE" unicode="&#x63a;" horiz-adv-x="641" arabic-form="final" 
d="M345 585l-97 83l81 97l98 -82zM648 122.5c2 -8.33301 3.00195 -18.5029 3.00195 -30.5029v-49c0 -12 -1 -22.167 -3 -30.5s-4.33301 -12.5 -7 -12.5h-75c-65.333 0 -114.833 8.66699 -148.5 26s-60.5 46.666 -80.5 87.999c-31.333 -18 -58.333 -36.333 -81 -55
s-43.667 -40.667 -63 -66c-4.66699 -26 -7 -52 -7 -78c0 -66 18 -114.667 54 -146s92 -47 168 -47h219l-25 -135h-200c-73.333 0 -133.833 14.833 -181.5 44.5s-82.667 68.334 -105 116.001s-33.5 99.167 -33.5 154.5c0 62.667 14.667 117.334 44 164.001s73 92 131 136
l-30 50c-20.667 34.667 -37.5 61.834 -50.5 81.501s-21.333 31.334 -25 35.001s-8.16699 5.16699 -13.5 4.5l-24 -2l4 112c64.667 6.66699 117.667 11.667 159 15s78.666 5 111.999 5c59.333 0 103.166 -7 131.499 -21s42.5 -37.667 42.5 -71v-33
c0 -14 -6.16699 -34 -18.5 -60s-29.5 -53 -51.5 -81s-46.333 -51.333 -73 -70c22 -21.333 57 -32 105 -32h116c2.66699 0 5 -4.16699 7 -12.5zM421.002 294.497c26 33 42 60.501 48 82.501c-4.66699 4 -16.667 7 -36 9s-42 3 -68 3c-48 0 -88.333 -2.33301 -121 -7
c6 -3.33301 12.167 -9.33301 18.5 -18s17.833 -26.334 34.5 -53.001l54 -87c20.667 14 44 37.5 70 70.5z" />
    <glyph glyph-name="uniFECF" unicode="&#x63a;" horiz-adv-x="574" arabic-form="initial" 
d="M248 540l-97 83l82 97l97 -82zM488 62c-80.667 -20 -141.166 -33.999 -181.499 -41.999s-77.5 -13.333 -111.5 -16s-79.333 -4 -136 -4h-59c-2.66699 0 -5.16699 4.16699 -7.5 12.5s-3.5 18.5 -3.5 30.5v49c0 12 1 22.167 3 30.5s4.66699 12.5 8 12.5h129
c-16 36 -24 76 -24 120c0 57.333 17.833 100 53.5 128s82.167 42 139.5 42c33.333 0 68.666 -4.66699 105.999 -14l-27 -112c-24 7.33301 -54.333 11 -91 11c-35.333 0 -63.333 -3.33301 -84 -10c0 -30 3 -59.333 9 -88s14.333 -52.667 25 -72
c86 13.333 167.333 29.666 244 48.999z" />
    <glyph glyph-name="uniFED0" unicode="&#x63a;" horiz-adv-x="559" arabic-form="medial" 
d="M283 517l-97 82l81 98l98 -82zM566 122.5c2 -8.33301 3 -18.499 3 -30.499v-49c0 -12 -1 -22.167 -3 -30.5s-4.33301 -12.5 -7 -12.5h-166c-45.333 0 -80.333 14.333 -105 43c-28.667 -28.667 -70.667 -43 -126 -43h-162c-2.66699 0 -5.16699 4.16699 -7.5 12.5
s-3.5 18.5 -3.5 30.5v49c0 12 1 22.167 3 30.5s4.66699 12.5 8 12.5h134c16.667 0 33 -0.666992 49 -2l-27 44l-46.5 76c-11.667 18.667 -19.334 29.5 -23.001 32.5s-8.16699 4.16699 -13.5 3.5l-24 -2l4 113l44 4c104 10.667 179.667 16 227 16c60 0 104.167 -7 132.5 -21
s42.5 -37.667 42.5 -71v-34c0 -16.667 -10 -41.834 -30 -75.501s-40.667 -61.167 -62 -82.5c6.66699 -0.666992 18.334 -1 35.001 -1h117c2.66699 0 5 -4.16699 7 -12.5zM356 210.501c26 33 42 60.501 48 82.501c-8.66699 8 -41.667 12 -99 12
c-50.667 0 -93 -2.33301 -127 -7c6 -2.66699 12 -8.33398 18 -17.001s17.667 -27 35 -55l55 -86c20.667 14 44 37.5 70 70.5z" />
    <glyph glyph-name="uniFED2" unicode="&#x641;" horiz-adv-x="1005" arabic-form="final" 
d="M798 561l-97 82l81 97l98 -81zM1012 122.5c2 -8.33301 2.99902 -18.5029 2.99902 -30.5029v-49c0 -12 -1 -22.167 -3 -30.5s-4.33301 -12.5 -7 -12.5h-72c-76 0 -133.667 19.333 -173 58c-15.333 -13.333 -37.333 -24.666 -66 -33.999c-30 -12 -65 -19.667 -105 -23
s-94.667 -5 -164 -5c-74.667 0 -136.5 5.5 -185.5 16.5s-86.833 30.833 -113.5 59.5s-40 68.334 -40 119.001c0 18 2 38 6 60l26 155l82 -17l-23 -137c-2 -12 -3 -22 -3 -30c0 -27.333 8.5 -47.5 25.5 -60.5s41.667 -21.333 74 -25s78.833 -5.5 139.5 -5.5
c86 0 145.333 1.16699 178 3.5s51.334 3.5 56.001 3.5c-14 10.667 -25.667 22.834 -35 36.501s-14 26.5 -14 38.5c0 26.667 9.83301 58.834 29.5 96.501s44.167 70.167 73.5 97.5s57 41 83 41c28.667 0 55.5 -10.833 80.5 -32.5s45 -50.5 60 -86.5s22.5 -74.667 22.5 -116
c0 -22.667 -3 -39.334 -9 -50.001s-17.333 -20 -34 -28h37h64c2.66699 0 5 -4.16699 7 -12.5zM855.999 199.997c-2 32.667 -9.83301 62 -23.5 88s-29.834 39 -48.501 39c-11.333 0 -24.666 -6.16699 -39.999 -18.5s-28.5 -26.5 -39.5 -42.5s-16.5 -29 -16.5 -39
c0 -10.667 7.33301 -23 22 -37s32.667 -27.667 54 -41z" />
    <glyph glyph-name="uniFED3" unicode="&#x641;" horiz-adv-x="482" arabic-form="initial" 
d="M210 689l-97 83l81 97l98 -82zM399.5 159c-3.66699 -33.333 -11.002 -60.1689 -22.002 -80.502s-27.833 -36.5 -50.5 -48.5c-22 -11.333 -51 -19.166 -87 -23.499s-81.333 -6.5 -136 -6.5h-104c-2.66699 0 -5.16699 4.16699 -7.5 12.5s-3.5 18.5 -3.5 30.5v49
c0 12 1 22.167 3 30.5s4.66699 12.5 8 12.5c98 0 168.833 1.16699 212.5 3.5s75.167 6.5 94.5 12.5l3 39l2 22c-33.333 -8 -69.666 -12 -108.999 -12c-24 0 -49 2.33301 -75 7c-10.667 2.66699 -19.667 7.16699 -27 13.5s-15.666 16.5 -24.999 30.5
c-9.33301 14.667 -15.5 26.334 -18.5 35.001s-4.5 18.667 -4.5 30c3.33301 72 19 134.5 47 187.5s71 79.5 129 79.5c43.333 0 78 -14.5 104 -43.5s44.333 -64.667 55 -107s16 -85.833 16 -130.5c0.666992 -62 -0.833008 -109.667 -4.5 -143zM220.998 316.997
c36.667 0 67.666 2.33203 92.999 6.99902c0 95.333 -30 143 -90 143c-26 0 -46.167 -12.167 -60.5 -36.5s-22.166 -60.166 -23.499 -107.499c24 -4 51 -6 81 -6z" />
    <glyph glyph-name="uniFED4" unicode="&#x641;" horiz-adv-x="475" arabic-form="medial" 
d="M275 561l-97 82l81 97l98 -81zM482 122.5c2 -8.33301 3 -18.501 3 -30.501v-49c0 -12 -1 -22.167 -3 -30.5s-4.33301 -12.5 -7 -12.5h-73c-38 0 -70 4.33301 -96 13s-47.667 22.667 -65 42c-36.667 -36.667 -98.334 -55 -185.001 -55h-56
c-2.66699 0 -5.16699 4.16699 -7.5 12.5s-3.5 18.5 -3.5 30.5v49c0 12 1 22.167 3 30.5s4.66699 12.5 8 12.5h68c25.333 0 42.333 0.333008 51 1c-14 10 -26.167 22.167 -36.5 36.5s-15.5 27.833 -15.5 40.5c0 26.667 9.83301 58.834 29.5 96.501s44.167 70.167 73.5 97.5
s57 41 83 41c28.667 0 55.5 -10.833 80.5 -32.5s45 -50.5 60 -86.5s22.5 -74.667 22.5 -116c0 -22 -3.5 -39.167 -10.5 -51.5s-17.833 -21.5 -32.5 -27.5c8.66699 0.666992 21.334 1 38.001 1h64c2.66699 0 5 -4.16699 7 -12.5zM326 196.999
c-2 34 -9.83301 64.167 -23.5 90.5s-30.167 39.5 -49.5 39.5c-11.333 0 -24.5 -6.16699 -39.5 -18.5s-28 -26.5 -39 -42.5s-16.5 -29 -16.5 -39c0 -10.667 7.33301 -23 22 -37s32.667 -27.667 54 -41z" />
    <glyph glyph-name="uniFED6" unicode="&#x642;" horiz-adv-x="832" arabic-form="final" 
d="M631 497l-89 74l74 88l89 -74zM465 493l-89 75l74 88l89 -74zM839 122.5c2 -8.33301 2.99121 -18.502 2.99121 -30.502v-49c0 -12 -1 -22.167 -3 -30.5s-4.33301 -12.5 -7 -12.5h-115c-1.33301 -42 -4.66602 -72.667 -9.99902 -92s-15.666 -36.666 -30.999 -51.999
c-63.333 -60.667 -176 -91 -338 -91c-96 0 -162 18.833 -198 56.5s-54 83.834 -54 138.501c0 16.667 3.83301 49.5 11.5 98.5s15.834 98.167 24.501 147.5c0.666992 4.66699 5 31 13 79l83 -18c-11.333 -65.333 -20.166 -120 -26.499 -164s-10.5 -82 -12.5 -114
c-2 -35.333 14.333 -59 49 -71s73.334 -18 116.001 -18c66.667 0 122.834 3.16699 168.501 9.5s83.5 16.833 113.5 31.5c3.33301 23.333 5 46.333 5 69c-32 -8 -69.667 -12 -113 -12c-29.333 0 -54.666 2.33301 -75.999 7c-10 2.66699 -18.833 7 -26.5 13s-15.5 16 -23.5 30
c-10 15.333 -16.667 27.333 -20 36s-4.66602 18.667 -3.99902 30c3.33301 72 19 134.5 47 187.5s71 79.5 129 79.5c58.667 0 101.334 -24 128.001 -72s41.667 -106 45 -174h115c2.66699 0 5 -4.16699 7 -12.5zM627.991 121.998c0 95.333 -29.668 143.001 -89.001 143.001
c-25.333 0 -45.333 -12.333 -60 -37s-22.667 -60.334 -24 -107.001c14.667 -3.33301 41.667 -5 81 -5c40.667 0 71.334 2 92.001 6z" />
    <glyph glyph-name="uniFED7" unicode="&#x642;" horiz-adv-x="482" arabic-form="initial" 
d="M290 694l-88 74l73 88l89 -73zM124 690l-88 75l74 88l89 -74zM399.5 159c-3.66699 -33.333 -11.002 -60.1689 -22.002 -80.502s-27.833 -36.5 -50.5 -48.5c-22 -11.333 -51 -19.166 -87 -23.499s-81.333 -6.5 -136 -6.5h-104c-2.66699 0 -5.16699 4.16699 -7.5 12.5
s-3.5 18.5 -3.5 30.5v49c0 12 1 22.167 3 30.5s4.66699 12.5 8 12.5c98 0 168.833 1.16699 212.5 3.5s75.167 6.5 94.5 12.5l3 39l2 22c-33.333 -8 -69.666 -12 -108.999 -12c-24 0 -49 2.33301 -75 7c-10.667 2.66699 -19.667 7.16699 -27 13.5s-15.666 16.5 -24.999 30.5
c-9.33301 14.667 -15.5 26.334 -18.5 35.001s-4.5 18.667 -4.5 30c3.33301 72 19 134.5 47 187.5s71 79.5 129 79.5c43.333 0 78 -14.5 104 -43.5s44.333 -64.667 55 -107s16 -85.833 16 -130.5c0.666992 -62 -0.833008 -109.667 -4.5 -143zM220.998 316.997
c36.667 0 67.666 2.33203 92.999 6.99902c0 95.333 -30 143 -90 143c-26 0 -46.167 -12.167 -60.5 -36.5s-22.166 -60.166 -23.499 -107.499c24 -4 51 -6 81 -6z" />
    <glyph glyph-name="uniFED8" unicode="&#x642;" horiz-adv-x="475" arabic-form="medial" 
d="M347 557l-88 74l74 88l89 -74zM182 553l-89 75l74 88l89 -74zM482 122.5c2 -8.33301 3 -18.501 3 -30.501v-49c0 -12 -1 -22.167 -3 -30.5s-4.33301 -12.5 -7 -12.5h-73c-38 0 -70 4.33301 -96 13s-47.667 22.667 -65 42c-36.667 -36.667 -98.334 -55 -185.001 -55h-56
c-2.66699 0 -5.16699 4.16699 -7.5 12.5s-3.5 18.5 -3.5 30.5v49c0 12 1 22.167 3 30.5s4.66699 12.5 8 12.5h68c25.333 0 42.333 0.333008 51 1c-14 10 -26.167 22.167 -36.5 36.5s-15.5 27.833 -15.5 40.5c0 26.667 9.83301 58.834 29.5 96.501s44.167 70.167 73.5 97.5
s57 41 83 41c28.667 0 55.5 -10.833 80.5 -32.5s45 -50.5 60 -86.5s22.5 -74.667 22.5 -116c0 -22 -3.5 -39.167 -10.5 -51.5s-17.833 -21.5 -32.5 -27.5c8.66699 0.666992 21.334 1 38.001 1h64c2.66699 0 5 -4.16699 7 -12.5zM326 196.999
c-2 34 -9.83301 64.167 -23.5 90.5s-30.167 39.5 -49.5 39.5c-11.333 0 -24.5 -6.16699 -39.5 -18.5s-28 -26.5 -39 -42.5s-16.5 -29 -16.5 -39c0 -10.667 7.33301 -23 22 -37s32.667 -27.667 54 -41z" />
    <glyph glyph-name="uniFEDA" unicode="&#x643;" horiz-adv-x="896" arabic-form="final" 
d="M903 122.5c2 -8.33301 2.99902 -18.501 2.99902 -30.501v-49c0 -12 -1 -22.167 -3 -30.5s-4.33301 -12.5 -7 -12.5c-52 0 -95.167 5.5 -129.5 16.5s-59.166 25.5 -74.499 43.5c-21.333 -19.333 -57.333 -34.833 -108 -46.5s-105.334 -17.5 -164.001 -17.5
c-72.667 0 -133.167 5.33301 -181.5 16s-85.833 30.334 -112.5 59.001s-40 68.667 -40 120c0 18 2 38 6 60l26 155l82 -17l-23 -137c-2 -12 -3 -22 -3 -30c0 -27.333 8.5 -47.5 25.5 -60.5s41.667 -21.333 74 -25s78.833 -5.5 139.5 -5.5c58.667 0 106.334 2 143.001 6
s67.667 10.667 93 20l-22 563l105 23l8 -536c0 -23.333 7 -40.833 21 -52.5s35.667 -18.167 65 -19.5h70c2.66699 0 5 -4.16699 7 -12.5zM461.999 339.999c-38 -21.333 -92.665 -32.002 -163.998 -32.002l9 80c38 0 69.5 1.83301 94.5 5.5s45.5 10.834 61.5 21.501
c1.33301 10 0.666016 16.667 -2.00098 20s-9.66699 6 -21 8l-25 4c-24 3.33301 -41.667 6.33301 -53 9s-20 7.33398 -26 14.001s-9 16.667 -9 30c0 20.667 5.5 45.5 16.5 74.5s25.833 54.167 44.5 75.5s39 32 61 32c16.667 0 31.5 -5.33301 44.5 -16s26.5 -27 40.5 -49
l-35 -35c-17.333 18 -34 27 -50 27s-30 -8.33301 -42 -25s-20.333 -35.667 -25 -57c6 -0.666992 24.167 -3.16699 54.5 -7.5s51.666 -13.5 63.999 -27.5s18.5 -33.667 18.5 -59c0 -40.667 -19 -71.667 -57 -93z" />
    <glyph glyph-name="uniFEDB" unicode="&#x643;" horiz-adv-x="465" arabic-form="initial" 
d="M318.5 340.5c31 -62.333 46.5 -130.499 46.5 -204.499c0 -49.333 -29.333 -84.5 -88 -105.5s-151 -31.167 -277 -30.5c-2.66699 0 -5.16699 4.16699 -7.5 12.5s-3.5 18.5 -3.5 30.5v49c0 12 1 22.167 3 30.5s4.66699 12.5 8 12.5c57.333 0 110.666 2 159.999 6
s88 10.333 116 19c-5.33301 63.333 -29.666 122.166 -72.999 176.499s-105.333 109.166 -186 164.499l4 107c116 64 230.667 115 344 153l14 -112c-87.333 -34 -169.333 -68.333 -246 -103c11.333 -7.33301 21.333 -14.666 30 -21.999
c72.667 -60 124.5 -121.167 155.5 -183.5z" />
    <glyph glyph-name="uniFEDC" unicode="&#x643;" horiz-adv-x="497" arabic-form="medial" 
d="M504 122.5c2 -8.33301 3.00098 -18.4961 3.00098 -30.4961v-49c0 -12 -1 -22.167 -3 -30.5s-4.33301 -12.5 -7 -12.5h-79c-22 0 -41.167 4.66699 -57.5 14s-29.166 22.666 -38.499 39.999c-26.667 -19.333 -66.5 -33.333 -119.5 -42s-120.5 -12.667 -202.5 -12
c-2.66699 0 -5.16699 4.16699 -7.5 12.5s-3.5 18.5 -3.5 30.5v49c0 12 1 22.167 3 30.5s4.66699 12.5 8 12.5c57.333 0 110.666 2 159.999 6s88 10.333 116 19c-5.33301 63.333 -29.666 122.166 -72.999 176.499s-105.333 109.166 -186 164.499l4 107
c116 64 230.667 115 344 153l14 -112c-87.333 -34 -169.333 -68.333 -246 -103c11.333 -7.33301 21.333 -14.666 30 -21.999c63.333 -52.667 110.666 -105.834 141.999 -159.501s50.333 -110.834 57 -171.501c0 -2.66699 0.333008 -4.66699 1 -6
c1.33301 -16 4.16602 -27.667 8.49902 -35s10.5 -12 18.5 -14s20 -3 36 -3h71c2.66699 0 5 -4.16699 7 -12.5z" />
    <glyph glyph-name="uniFEDE" unicode="&#x644;" horiz-adv-x="801" arabic-form="final" 
d="M808 122.5c2 -8.33301 2.99805 -18.501 2.99805 -30.501v-49c0 -12 -1 -22.167 -3 -30.5s-4.33301 -12.5 -7 -12.5h-41c-53.333 0 -92.333 18 -117 54l2 -106c0.666992 -40 -13.666 -73.333 -42.999 -100s-67.833 -46.167 -115.5 -58.5s-99.167 -18.5 -154.5 -18.5
c-93.333 0 -157.666 18.833 -192.999 56.5s-53 83.834 -53 138.501c0 27.333 11.667 107 35 239l14 86l83 -18c-11.333 -65.333 -20.166 -120 -26.499 -164s-10.5 -82 -12.5 -114c-2 -35.333 13.667 -59 47 -71s70.666 -18 111.999 -18c40 0 79.667 3.5 119 10.5
s72.333 16.833 99 29.5l-35 774l106 23l12 -528c1.33301 -32 10.833 -53.333 28.5 -64s43.167 -16 76.5 -16h57c2.66699 0 5 -4.16699 7 -12.5z" />
    <glyph glyph-name="uniFEDF" unicode="&#x644;" horiz-adv-x="375" arabic-form="initial" 
d="M284.5 437c2.33301 -119.333 3.83301 -211.999 4.5 -277.999c0 -48.667 -21.333 -86.667 -64 -114c-25.333 -14.667 -57.333 -25.834 -96 -33.501s-81.667 -11.5 -129 -11.5c-2.66699 0 -5.16699 4.16699 -7.5 12.5s-3.5 18.5 -3.5 30.5v49c0 12 1 22.167 3 30.5
s4.66699 12.5 8 12.5c92.667 0 158.667 8.33301 198 25l-27 560l106 23c2.66699 -84.667 5.16699 -186.667 7.5 -306z" />
    <glyph glyph-name="uniFEE0" unicode="&#x644;" horiz-adv-x="428" arabic-form="medial" 
d="M435 122.5c2 -8.33301 2.99707 -18.5 2.99707 -30.5v-49c0 -12 -1 -22.167 -3 -30.5s-4.33301 -12.5 -7 -12.5c-55.333 -0 -100.166 5.83301 -134.499 17.5s-57.833 27.834 -70.5 48.501c-19.333 -24.667 -47.666 -41.834 -84.999 -51.501s-83.333 -14.5 -138 -14.5
c-2.66699 0 -5.16699 4.16699 -7.5 12.5s-3.5 18.5 -3.5 30.5v49c0 12 1 22.167 3 30.5s4.66699 12.5 8 12.5c86 0 146.667 8.66699 182 26l-22 559l105 23l7 -524c0.666992 -29.333 7.83398 -50.333 21.501 -63s35.5 -19.667 65.5 -21h69c2.66699 0 5 -4.16699 7 -12.5z
" />
    <glyph glyph-name="uniFEE2" unicode="&#x645;" horiz-adv-x="623" arabic-form="final" 
d="M630 122.5c2 -8.33301 3.00195 -18.5029 3.00195 -30.5029v-49c0 -12 -1 -22.167 -3 -30.5s-4.33301 -12.5 -7 -12.5c-34.667 0 -65.334 5 -92.001 15s-47.334 25.333 -62.001 46l-4 -26c-2.66699 -12 -6.66699 -22 -12 -30s-14.333 -17.333 -27 -28
c-20 -17.333 -37.333 -26 -52 -26c-7.33301 0 -15 2 -23 6l-176 82c0 -46.667 2.16699 -95.5 6.5 -146.5s10.833 -110.833 19.5 -179.5l-102 -37c-14.667 132 -22 231 -22 297c0 69.333 7.66699 121.333 23 156c27.333 62.667 60.5 117.334 99.5 164.001s81.167 70 126.5 70
c40.667 0 73.5 -14.167 98.5 -42.5s42.167 -62.166 51.5 -101.499c6.66699 -27.333 21.5 -48.166 44.5 -62.499s57.167 -21.5 102.5 -21.5c2.66699 0 5 -4.16699 7 -12.5zM397.002 132.997c0 33.333 -6.66797 61 -20.001 83s-34.333 33 -63 33
c-18 0 -35.667 -8.66699 -53 -26s-35.666 -43 -54.999 -77l181 -85c6.66699 23.333 10 47.333 10 72z" />
    <glyph glyph-name="uniFEE3" unicode="&#x645;" horiz-adv-x="549" arabic-form="initial" 
d="M387 332c24.667 -20.667 43.332 -48.1699 55.999 -82.5029s19 -72.166 19 -113.499c0 -34 -4.66699 -68.667 -14 -104c-3.33301 -10.667 -8 -20 -14 -28s-16.333 -17.667 -31 -29c-19.333 -16.667 -36.333 -25 -51 -25c-6.66699 0 -14 2 -22 6l-187 86
c-12.667 -14 -28.667 -24.5 -48 -31.5s-45.333 -10.5 -78 -10.5h-17c-2.66699 0 -5.16699 4.16699 -7.5 12.5s-3.5 18.5 -3.5 30.5v49c0 12 1 22.167 3 30.5s4.66699 12.5 8 12.5h35c20.667 0 35.834 1.33301 45.501 4s18 8.83398 25 18.501s15.5 25.834 25.5 48.501
c21.333 50 44.833 88.667 70.5 116s57.5 41 95.5 41c35.333 0 65.333 -10.333 90 -31zM374.998 127.997c0 33.333 -7.33301 61.668 -22 85.001s-37 35 -67 35c-17.333 0 -33.333 -9 -48 -27s-29 -44.667 -43 -80l170 -77c6.66699 21.333 10 42.666 10 63.999z" />
    <glyph glyph-name="uniFEE4" unicode="&#x645;" horiz-adv-x="600" arabic-form="medial" 
d="M607 122.5c2 -8.33301 2.99902 -18.5 2.99902 -30.5v-49c0 -12 -1 -22.167 -3 -30.5s-4.33301 -12.5 -7 -12.5c-76 0 -127 22.667 -153 68l-6 -33c-1.33301 -11.333 -5 -21.5 -11 -30.5s-16.667 -19.5 -32 -31.5c-18 -14.667 -34.333 -22 -49 -22
c-6 0 -13.333 1.66699 -22 5l-183 86c-12 -14 -26.833 -24.5 -44.5 -31.5s-40.5 -10.5 -68.5 -10.5h-31c-2.66699 0 -5.16699 4.16699 -7.5 12.5s-3.5 18.5 -3.5 30.5v49c0 12 1 22.167 3 30.5s4.66699 12.5 8 12.5h35c20.667 0 35.667 1.33301 45 4s17.5 8.66699 24.5 18
s15.833 25.666 26.5 48.999c21.333 50 44.833 88.667 70.5 116s57.5 41 95.5 41c38.667 0 70.667 -11.667 96 -35s43.333 -51.666 54 -84.999c10 -30.667 19.5 -53 28.5 -67s22.833 -24.333 41.5 -31s46.334 -10 83.001 -10c2.66699 0 5 -4.16699 7 -12.5zM374.999 128
c0 33.333 -7.33301 61.668 -22 85.001s-37 35 -67 35c-17.333 0 -33.333 -9 -48 -27s-29 -44.667 -43 -80l170 -77c6.66699 21.333 10 42.666 10 63.999z" />
    <glyph glyph-name="uniFEE6" unicode="&#x646;" horiz-adv-x="807" arabic-form="final" 
d="M372 383l-97 82l81 97l98 -81zM814 122.5c2 -8.33301 2.99707 -18.499 2.99707 -30.499v-49c0 -12 -1 -22.167 -3 -30.5s-4.33301 -12.5 -7 -12.5h-20c-33.333 0 -61.5 5 -84.5 15s-40.167 27 -51.5 51l2 -32c0.666992 -10 1.33398 -22.333 2.00098 -37s1 -32 1 -52
c0 -39.333 -15.667 -72 -47 -98s-71.166 -45.167 -119.499 -57.5s-98.833 -18.5 -151.5 -18.5c-94 0 -159.5 19 -196.5 57s-55.5 84 -55.5 138c0 37.333 16.333 145.666 49 324.999l83 -18c-22.667 -125.333 -35.667 -218 -39 -278c-2 -35.333 14.333 -59 49 -71
s73.334 -18 116.001 -18c96.667 0 169.667 14.333 219 43l-40 378l105 24l13 -137c2 -24.667 8.33301 -42.5 19 -53.5s25 -18 43 -21s45.333 -4.5 82 -4.5h22c2.66699 0 5 -4.16699 7 -12.5z" />
    <glyph glyph-name="uniFEE7" unicode="&#x646;" horiz-adv-x="357" arabic-form="initial" 
d="M187 514l-97 82l81 97l98 -82zM267.5 290.5c1.66699 -39 2.49902 -82.832 2.49902 -131.499c0 -49.333 -21 -87.333 -63 -114c-24.667 -14.667 -55.5 -25.834 -92.5 -33.501s-75.167 -11.5 -114.5 -11.5c-2.66699 0 -5.16699 4.16699 -7.5 12.5s-3.5 18.5 -3.5 30.5v49
c0 12 1 22.167 3 30.5s4.66699 12.5 8 12.5c44 0 80 2.16699 108 6.5s51.667 11.5 71 21.5l-24 224l106 18c2.66699 -37.333 4.83398 -75.5 6.50098 -114.5z" />
    <glyph glyph-name="uniFEE8" unicode="&#x646;" horiz-adv-x="389" arabic-form="medial" 
d="M176 465l-97 83l81 97l98 -82zM396 122.5c2 -8.33301 2.99902 -18.5 2.99902 -30.5v-49c0 -12 -1 -22.167 -3 -30.5s-4.33301 -12.5 -7 -12.5c-60.667 -0 -105 5.33301 -133 16s-46.333 28.667 -55 54c-14 -26 -36.5 -44.167 -67.5 -54.5s-75.5 -15.5 -133.5 -15.5
c-2.66699 0 -5.16699 4.16699 -7.5 12.5s-3.5 18.5 -3.5 30.5v49c0 12 1 22.167 3 30.5s4.66699 12.5 8 12.5c36.667 0 67.334 1.83301 92.001 5.5s45.334 10.167 62.001 19.5l-21 192l106 11l11 -211c10.667 -6.66699 26.167 -11.167 46.5 -13.5s51.166 -3.5 92.499 -3.5
c2.66699 0 5 -4.16699 7 -12.5z" />
    <glyph glyph-name="uniFEEA" unicode="&#x647;" horiz-adv-x="543" arabic-form="final" 
d="M550 122.5c2 -8.33301 2.99902 -18.499 2.99902 -30.499v-49c0 -12 -1 -22.167 -3 -30.5s-4.33301 -12.5 -7 -12.5h-47c-32 0 -59.833 8.33301 -83.5 25s-38.5 40 -44.5 70l-8 -17c-9.33301 -22.667 -24.333 -35.334 -45 -38.001c-24.667 -4 -53.667 -6 -87 -6
c-47.333 0 -81.666 8.33301 -102.999 25s-32 45.667 -32 87c0 64 16.5 116.5 49.5 157.5s86.833 74.5 161.5 100.5l-9 77l99 28l27 -271c3.33301 -31.333 6.83301 -53.333 10.5 -66s11.667 -22 24 -28s32.5 -9 60.5 -9h27c2.66699 0 5 -4.16699 7 -12.5zM336.999 175.001
l-15 126.999c-49.333 -13.333 -85.333 -32.666 -108 -57.999s-35.334 -52.333 -38.001 -81c14.667 -3.33301 32.334 -5 53.001 -5c39.333 0 75.333 5.66699 108 17z" />
    <glyph glyph-name="uniFEEB" unicode="&#x647;" horiz-adv-x="664" arabic-form="initial" 
d="M544 296c22 -31.333 33 -68 33 -110c0 -30.667 -7.33301 -69 -22 -115c-2.66699 -10 -7.66699 -19.167 -15 -27.5s-18 -17.833 -32 -28.5c-18 -14.667 -34.333 -22 -49 -22c-6 0 -13.333 1.66699 -22 5l-140 55c-25.333 -35.333 -124.333 -53 -297 -53
c-2.66699 0 -5.16699 4.16699 -7.5 12.5s-3.5 18.5 -3.5 30.5v49c0 12 1 22.167 3 30.5s4.66699 12.5 8 12.5h89c28 0 48.333 -0.333008 61 -1c-22.667 9.33301 -40.5 22.666 -53.5 39.999s-19.5 37 -19.5 59c0 42.667 22 91.667 66 147l-46 22l48 106l295 -133
c47.333 -21.333 82 -47.666 104 -78.999zM319 302l-95 43c-40 -40 -60 -72.667 -60 -98c0 -30.667 35.333 -52.667 106 -66zM491 168c0 22 -8.33301 42.167 -25 60.5s-41 32.833 -73 43.5l-47 -119l127 -47c12 20 18 40.667 18 62z" />
    <glyph glyph-name="uniFEEC" unicode="&#x647;" horiz-adv-x="508" arabic-form="medial" 
d="M515 122.5c2 -8.33301 3 -18.499 3 -30.499v-49c0 -12 -1 -22.167 -3 -30.5s-4.33301 -12.5 -7 -12.5h-47c-46 0 -74 1 -84 3c16 -18 24 -39.333 24 -64v-67c0 -11.333 -2.83301 -22 -8.5 -32s-16.5 -22 -32.5 -36c-17.333 -14.667 -31.333 -24.667 -42 -30
s-21.334 -7.66602 -32.001 -6.99902c-129.333 10 -201.333 87.667 -216 233h-70c-2.66699 0 -5.16699 4.16699 -7.5 12.5s-3.5 18.5 -3.5 30.5v49c0 12 1 22.167 3 30.5s4.66699 12.5 8 12.5h77c9.33301 45.333 24.333 88.666 45 129.999s44.834 74.666 72.501 99.999
s56.167 38 85.5 38h76l7 -268h145c2.66699 0 5 -4.16699 7 -12.5zM197.5 234.501c-19 -39 -31.5 -77.167 -37.5 -114.5h65c18.667 0 34 -1 46 -3l-4 185c-27.333 -6 -50.5 -28.5 -69.5 -67.5zM311 -79.999c0 63.333 -32.335 95 -97.002 95h-59
c2.66699 -42.667 15.334 -76 38.001 -100s53.334 -36 92.001 -36c5.33301 0 14 0.666992 26 2v39z" />
    <glyph glyph-name="uniFEEE" unicode="&#x648;" horiz-adv-x="484" arabic-form="final" 
d="M491 122.5c2 -8.33301 2.99805 -18.5 2.99805 -30.5v-49c0 -12 -1 -22.167 -3 -30.5s-4.33301 -12.5 -7 -12.5h-82c-17.333 -60.667 -50.833 -115.334 -100.5 -164.001s-113.834 -89.667 -192.501 -123l-66 107c63.333 23.333 118.333 51.5 165 84.5
s81.334 67.5 104.001 103.5c-30 -6.66699 -62 -10 -96 -10c-29.333 0 -54.666 2.33301 -75.999 7c-10 2.66699 -18.833 7.16699 -26.5 13.5s-15.834 16.5 -24.501 30.5c-9.33301 13.333 -15.666 24.833 -18.999 34.5s-4.66602 19.834 -3.99902 30.501
c3.33301 72.667 19 135.5 47 188.5s71 79.5 129 79.5c57.333 0 99.5 -24.167 126.5 -72.5s42.5 -106.5 46.5 -174.5h69c2.66699 0 5 -4.16699 7 -12.5zM233.998 115c36.667 0 67.333 2.33301 92 7c0 95.333 -29.667 143 -89 143c-25.333 0 -45.333 -12.167 -60 -36.5
s-22.667 -59.833 -24 -106.5c18 -4.66699 45 -7 81 -7z" />
    <glyph glyph-name="uniFEF0" unicode="&#x649;" horiz-adv-x="725" arabic-form="final" 
d="M732 122.5c2 -8.33301 2.99805 -18.501 2.99805 -30.501v-49c0 -12 -1 -22.167 -3 -30.5s-4.33301 -12.5 -7 -12.5h-36c1.33301 -13.333 2 -23.666 2 -30.999c0 -72.667 -30.667 -128.834 -92 -168.501s-148.333 -59.5 -261 -59.5c-96 0 -162 18.667 -198 56
s-54 83.333 -54 138c0 38.667 16.333 147 49 325l83 -18c-22.667 -125.333 -35.667 -217.666 -39 -276.999c-2 -35.333 14.833 -59 50.5 -71s77.167 -18 124.5 -18c54.667 0 101.834 4.33301 141.501 13s72.834 23.667 99.501 45c0.666992 22 -3.5 37.5 -12.5 46.5
s-23.833 14.5 -44.5 16.5s-56.667 3 -108 3l25 135h270c2.66699 0 5 -4.16699 7 -12.5z" />
    <glyph glyph-name="uniFEF2" unicode="&#x64a;" horiz-adv-x="725" arabic-form="final" 
d="M732 122.5c2 -8.33301 2.99805 -18.501 2.99805 -30.501v-49c0 -12 -1 -22.167 -3 -30.5s-4.33301 -12.5 -7 -12.5h-36c1.33301 -13.333 2 -23.666 2 -30.999c0 -72.667 -30.667 -128.834 -92 -168.501s-148.333 -59.5 -261 -59.5c-96 0 -162 18.667 -198 56
s-54 83.333 -54 138c0 38.667 16.333 147 49 325l83 -18c-22.667 -125.333 -35.667 -217.666 -39 -276.999c-2 -35.333 14.833 -59 50.5 -71s77.167 -18 124.5 -18c54.667 0 101.834 4.33301 141.501 13s72.834 23.667 99.501 45c0.666992 22 -3.5 37.5 -12.5 46.5
s-23.833 14.5 -44.5 16.5s-56.667 3 -108 3l25 135h270c2.66699 0 5 -4.16699 7 -12.5zM438.998 -352.001l89 -75l-75 -88l-88 74zM272.998 -355.001l89 -74l-75 -89l-88 74z" />
    <glyph glyph-name="uniFEF3" unicode="&#x64a;" horiz-adv-x="357" arabic-form="initial" 
d="M-7.5 12.5c-2.33301 8.33301 -3.50098 18.501 -3.50098 30.501v49c0 12 1 22.167 3 30.5s4.66699 12.5 8 12.5c44 0 80 2.16699 108 6.5s51.667 11.5 71 21.5l-24 224l106 18c2.66699 -37.333 4.83398 -75.5 6.50098 -114.5s2.5 -82.833 2.5 -131.5
c0 -49.333 -21 -87.333 -63 -114c-24.667 -14.667 -55.5 -25.834 -92.5 -33.501s-75.167 -11.5 -114.5 -11.5c-2.66699 0 -5.16699 4.16699 -7.5 12.5zM271.999 -184.999l-75 -88l-88 74l74 89zM16.999 -112.999l89 -74l-75 -89l-88 74z" />
    <glyph glyph-name="uniFEF4" unicode="&#x64a;" horiz-adv-x="389" arabic-form="medial" 
d="M396 122.5c2 -8.33301 2.99902 -18.5 2.99902 -30.5v-49c0 -12 -1 -22.167 -3 -30.5s-4.33301 -12.5 -7 -12.5c-60.667 -0 -105 5.33301 -133 16s-46.333 28.667 -55 54c-14 -26 -36.5 -44.167 -67.5 -54.5s-75.5 -15.5 -133.5 -15.5
c-2.66699 0 -5.16699 4.16699 -7.5 12.5s-3.5 18.5 -3.5 30.5v49c0 12 1 22.167 3 30.5s4.66699 12.5 8 12.5c36.667 0 67.334 1.83301 92.001 5.5s45.334 10.167 62.001 19.5l-21 192l106 11l11 -211c10.667 -6.66699 26.167 -11.167 46.5 -13.5s51.166 -3.5 92.499 -3.5
c2.66699 0 5 -4.16699 7 -12.5zM282.999 -116l89 -75l-74 -88l-88 74zM117.999 -119l89 -74l-75 -89l-88 74z" />
    <glyph glyph-name=".notdef" horiz-adv-x="681" 
d="M558 -293h-431v1362h431v-1362zM229 978v-45h88v-51h-90v-45h227v45h-90v51h90v45h-225zM227 802v-142h227v47h-90v95h-137zM317 707h-45v49h45v-49zM227 624v-45h90v-51h-90v-45h137v96h90v45h-227zM409 542v-90h-182v-46h227v136h-45zM317 376v-77h47v32h45v-64h-137
v109h-45v-154h227v154h-137zM227 140v-154h227v154h-227zM409 31h-137v64h137v-64zM227 -45v-45h96l-96 -64v-45h227v45h-139l95 64h44v45h-227z" />
    <glyph glyph-name="space" unicode=" " horiz-adv-x="151" 
 />
    <glyph glyph-name="exclam" unicode="!" horiz-adv-x="313" 
d="M204 242l-96 -14l-20 496l112 23zM95 14c-16.667 16.667 -25 36.999 -25 60.999c0 24.667 8.33301 45.334 25 62.001s37 25 61 25s44.333 -8.5 61 -25.5s25 -37.5 25 -61.5c0 -24.667 -8.33301 -45.167 -25 -61.5s-37 -24.5 -61 -24.5s-44.333 8.33301 -61 25z" />
    <glyph glyph-name="quotedbl" unicode="&#x22;" horiz-adv-x="521" 
d="M113 422l-24 199l-5 122h129l-4 -122l-25 -199h-71zM337 422l-24 199l-5 122h129l-4 -122l-25 -199h-71z" />
    <glyph glyph-name="numbersign" unicode="#" horiz-adv-x="554" 
d="M121 212h-84v85h94l17 138h-90v86h101l23 188h77l-23 -188h128l24 188h77l-24 -188h87v-86h-97l-17 -138h92v-85h-102l-26 -212h-78l25 212h-125l-26 -212h-79zM336 297l17 138h-127l-17 -138h127z" />
    <glyph glyph-name="dollar" unicode="$" horiz-adv-x="559" 
d="M237 -118l-0.000976562 107.998c-34 4 -67.833 13.5 -101.5 28.5s-62.834 33.5 -87.501 55.5l57 88c28.667 -22 56 -38.667 82 -50s53 -17 81 -17c68 0 102 30.333 102 91c0 22 -6.66699 41 -20 57s-32 31 -56 45c-30.667 17.333 -54.334 30 -71.001 38
c-58 26.667 -100 60.334 -126 101.001c-14.667 24 -22 52.333 -22 85c0 51.333 14.5 94 43.5 128s68.5 55.667 118.5 65v112h89v-110c32.667 -4 61.667 -13.333 87 -28s49.333 -34 72 -58l-67 -76c-21.333 20.667 -41.166 35.5 -59.499 44.5s-40.166 13.5 -65.499 13.5
c-29.333 0 -52.166 -7.33301 -68.499 -22s-24.5 -35.667 -24.5 -63c0 -19.333 6.66699 -36.166 20 -50.499s32.333 -27.833 57 -40.5l38 -19l18 -9c6.66699 -3.33301 14 -7.33301 22 -12c47.333 -22.667 82.5 -49.334 105.5 -80.001s34.5 -68 34.5 -112
c0 -53.333 -14.667 -97.666 -44 -132.999s-71 -58 -125 -68v-112h-89z" />
    <glyph glyph-name="percent" unicode="%" horiz-adv-x="903" 
d="M77 370c-30 40.667 -45 94.667 -45 162s15 121 45 161s71 60 123 60s93 -20.167 123 -60.5s45 -93.833 45 -160.5s-15 -120.5 -45 -161.5s-71 -61.5 -123 -61.5s-93 20.333 -123 61zM217 -13l389 739h82l-389 -739h-82zM257.5 423.5c13 27.667 19.5 63.834 19.5 108.501
c0 45.333 -6.5 81.333 -19.5 108s-32.167 40 -57.5 40s-44.666 -13.333 -57.999 -40s-20 -62.667 -20 -108c0 -46.667 6.66699 -83.334 20 -110.001s32.666 -40 57.999 -40s44.5 13.833 57.5 41.5zM580.5 48c-29.667 40.667 -44.499 95 -44.499 163
c0 67.333 15 120.833 45 160.5s71 59.5 123 59.5s93 -20.167 123 -60.5s45 -93.5 45 -159.5c0 -67.333 -15 -121.5 -45 -162.5s-71 -61.5 -123 -61.5c-52.667 0 -93.834 20.333 -123.501 61zM761.001 101c12.667 27.333 19.001 64 19.001 110
c0 45.333 -6.33301 81.166 -19 107.499s-31.667 39.5 -57 39.5c-26 0 -45.5 -13.167 -58.5 -39.5s-19.5 -62.166 -19.5 -107.499c0 -46.667 6.66699 -83.5 20 -110.5s32.666 -40.5 57.999 -40.5s44.333 13.667 57 41z" />
    <glyph glyph-name="ampersand" unicode="&#x26;" horiz-adv-x="699" 
d="M141 12c-34.667 16.667 -61.834 40.332 -81.501 70.999s-29.5 66 -29.5 106c0 42.667 11.5 79.834 34.5 111.501s56.5 62.167 100.5 91.5c-30.667 59.333 -46 111.333 -46 156c0 34.667 8 65.5 24 92.5s37.833 48 65.5 63s58.5 22.5 92.5 22.5
c49.333 0 88.333 -13.833 117 -41.5s43 -64.5 43 -110.5c0 -28.667 -6.5 -54.5 -19.5 -77.5s-30 -44 -51 -63s-48.833 -40.833 -83.5 -65.5c42 -57.333 95 -111 159 -161c41.333 54 71.333 116.667 90 188h120c-30 -96 -70.667 -178 -122 -246
c46 -29.333 88.667 -48 128 -56l-32 -106c-55.333 12.667 -113.666 38 -174.999 76c-64.667 -50.667 -136.667 -76 -216 -76c-44 0 -83.333 8.33301 -118 25zM256 445.998c34.667 22.667 60.666 43.333 77.999 62s26 40.334 26 65.001c0 20 -4.66699 36 -14 48
s-23.666 18 -42.999 18c-22 0 -40 -8.33301 -54 -25s-21 -38.334 -21 -65.001c0 -30 9.33301 -64.333 28 -103zM383.999 128.997c-64.667 55.333 -119.334 114 -164.001 176c-21.333 -17.333 -37.666 -34.833 -48.999 -52.5s-17 -36.5 -17 -56.5
c0 -32.667 11.333 -59 34 -79s51.667 -30 87 -30c34.667 0 71 14 109 42z" />
    <glyph glyph-name="quotesingle" unicode="'" horiz-adv-x="298" 
d="M113 422l-25 198l-4 123h129l-4 -123l-25 -198h-71z" />
    <glyph glyph-name="parenleft" unicode="(" horiz-adv-x="361" 
d="M229 -188c-48 76 -84.333 154.335 -109 235.002s-37 166.667 -37 258c0 92 12.333 178.167 37 258.5s61 159.166 109 236.499l84 -42c-40.667 -68 -71.167 -140.333 -91.5 -217s-30.5 -155.334 -30.5 -236.001c0 -80 10.167 -158.333 30.5 -235s50.833 -149 91.5 -217z
" />
    <glyph glyph-name="parenright" unicode=")" horiz-adv-x="361" 
d="M49 -147c41.333 67.333 72 139.333 92 216s30 155.334 30 236.001c0 81.333 -10 160.333 -30 237s-50.667 148.667 -92 216l83 42c48.667 -76.667 85.334 -155.334 110.001 -236.001s37 -167 37 -259c0 -91.333 -12.333 -177.333 -37 -258s-61.334 -159 -110.001 -235z
" />
    <glyph glyph-name="asterisk" unicode="*" horiz-adv-x="482" 
d="M149 415l-43 47l44 102l-96 53l31 54l108 -10l24 110l63 -13l24 -108l110 14l6 -62l-94 -56l47 -103l-58 -26l-83 76z" />
    <glyph glyph-name="plus" unicode="+" horiz-adv-x="559" 
d="M231 106v206h-194v93h194v206h97v-206h196v-93h-196v-206h-97z" />
    <glyph glyph-name="comma" unicode="," horiz-adv-x="301" 
d="M50 -126c36.667 14.667 64.667 33.501 84 56.501s28.666 48.5 27.999 76.5h-10c-23.333 0 -43 7 -59 21s-24 33 -24 57c0 23.333 8.33301 42.5 25 57.5s37 22.5 61 22.5c30.667 0 54.334 -11.5 71.001 -34.5s25 -55.5 25 -97.5c0 -54.667 -15 -101.834 -45 -141.501
s-72.667 -69.167 -128 -88.5z" />
    <glyph glyph-name="hyphen" unicode="-" horiz-adv-x="350" 
d="M45 224v94h261v-94h-261z" />
    <glyph glyph-name="period" unicode="." horiz-adv-x="332" 
d="M105 13.5c-17.333 17 -26 37.833 -26 62.5c0 25.333 8.5 46.5 25.5 63.5s38.167 25.5 63.5 25.5c24.667 0 45.5 -8.5 62.5 -25.5s25.5 -38.167 25.5 -63.5c0 -24.667 -8.5 -45.5 -25.5 -62.5s-37.833 -25.5 -62.5 -25.5s-45.667 8.5 -63 25.5z" />
    <glyph glyph-name="slash" unicode="/" horiz-adv-x="374" 
d="M13 -172l250 950h88l-250 -950h-88z" />
    <glyph glyph-name="zero" unicode="0" horiz-adv-x="563" 
d="M106.5 86.5c-40.333 65 -60.5 152.833 -60.5 263.5c0 110 20 196.667 60 260s98.667 95 176 95s136 -31.667 176 -95s60 -150 60 -260c0 -111.333 -20.167 -199.333 -60.5 -264s-98.833 -97 -175.5 -97s-135.167 32.5 -175.5 97.5zM368.5 156
c18.333 46.667 27.501 111.333 27.501 194c0 172.667 -38 259 -114 259c-39.333 0 -68.166 -22.833 -86.499 -68.5s-27.5 -109.167 -27.5 -190.5c0 -82 9.16699 -146.5 27.5 -193.5s47.166 -70.5 86.499 -70.5s68.166 23.333 86.499 70z" />
    <glyph glyph-name="one" unicode="1" horiz-adv-x="562" 
d="M82 103h154v454h-128v77c34 6.66699 63.5 14.5 88.5 23.5s48.833 20.5 71.5 34.5h96v-589h137v-101h-419v101z" />
    <glyph glyph-name="two" unicode="2" horiz-adv-x="563" 
d="M44 73l139.001 138.998c34 35.333 63.333 68 88 98c28.667 34.667 50 66.334 64 95.001s21 56 21 82c0 38 -10 67.5 -30 88.5s-47.667 31.5 -83 31.5c-24 0 -46.833 -6.5 -68.5 -19.5s-43.834 -31.833 -66.501 -56.5l-70 69c34.667 36.667 69.167 63.334 103.5 80.001
s73.5 25 117.5 25s82.667 -8.66699 116 -26s59 -42 77 -74s27 -69 27 -111c0 -55.333 -24.333 -118 -73 -188c-36 -51.333 -96.333 -120.333 -181 -207c52 5.33301 92.667 8 122 8h166v-105h-469v71z" />
    <glyph glyph-name="three" unicode="3" horiz-adv-x="564" 
d="M88 166c25.333 -24 51 -42.668 77 -56.001s55 -20 87 -20c38.667 0 69.5 9.33301 92.5 28s34.5 44.334 34.5 77.001c0 44 -17.333 74.667 -52 92s-84.667 26 -150 26v89c56 0.666992 99.667 9.5 131 26.5s47 45.5 47 85.5c0 29.333 -8.83301 52.333 -26.5 69
s-42.5 25 -74.5 25c-24.667 0 -47.667 -5.33301 -69 -16s-44.333 -27.334 -69 -50.001l-64 78c31.333 27.333 63.833 48.333 97.5 63s70.5 22 110.5 22c67.333 0 121.666 -15.833 162.999 -47.5s62 -76.167 62 -133.5c0 -36.667 -10.333 -68.5 -31 -95.5
s-51 -48.167 -91 -63.5v-5c44 -11.333 79 -32 105 -62s39 -66.667 39 -110c0 -40.667 -10.833 -76 -32.5 -106s-51.167 -53 -88.5 -69s-78.333 -24 -123 -24c-50 0 -94.667 8.33301 -134 25s-72.666 40.334 -99.999 71.001z" />
    <glyph glyph-name="four" unicode="4" horiz-adv-x="564" 
d="M328 179h-306v84l272 429h154v-417h86v-96h-86v-177h-120v177zM328 275v154.001c0 18 0.666992 49 2 93c1.33301 26.667 2 45 2 55h-2c-8.66699 -18.667 -20.667 -41.334 -36 -68.001l-22 -41l-126 -193h182z" />
    <glyph glyph-name="five" unicode="5" horiz-adv-x="563" 
d="M131.5 14c-39.667 16.667 -73.835 39.667 -102.502 69l58 81c24.667 -23.333 49.667 -41.5 75 -54.5s54 -19.5 86 -19.5c40 0 72.167 12 96.5 36s36.5 56.333 36.5 97s-11.5 72.5 -34.5 95.5s-53.833 34.5 -92.5 34.5c-20.667 0 -38.667 -3 -54 -9s-34 -16 -56 -30
l-60 39l20 339h372v-105h-260l-16 -169c16.667 8 31.834 13.833 45.501 17.5s28.834 5.5 45.501 5.5c67.333 0 120.5 -19.167 159.5 -57.5s58.5 -90.833 58.5 -157.5c0 -46 -10.833 -87 -32.5 -123s-51 -64 -88 -84s-78.167 -30 -123.5 -30
c-49.333 0 -93.833 8.33301 -133.5 25z" />
    <glyph glyph-name="six" unicode="6" horiz-adv-x="563" 
d="M82 525.5c21.333 57 52.668 101.166 94.001 132.499s90.333 47 147 47c74 0 135.667 -25.333 185 -76l-67 -77c-14.667 16 -31.834 28.667 -51.501 38s-39.5 14 -59.5 14c-52 0 -91.5 -22.833 -118.5 -68.5s-40.833 -107.834 -41.5 -186.501
c18.667 23.333 41.5 42.333 68.5 57s53.5 22 79.5 22c64.667 0 114.667 -18.5 150 -55.5s53 -89.5 53 -157.5c0 -43.333 -9.5 -82.166 -28.5 -116.499s-45.333 -61.166 -79 -80.499s-71.167 -29 -112.5 -29c-52 0 -96.833 14.167 -134.5 42.5s-66.5 68 -86.5 119
s-30 109.833 -30 176.5c0 75.333 10.667 141.5 32 198.5zM212.002 129.499c21.333 -31 50.667 -46.5 88 -46.5c30 0 54.667 12 74 36s29 56 29 96c0 41.333 -9.33301 72.333 -28 93s-45.334 31 -80.001 31c-23.333 0 -45.666 -6.66699 -66.999 -20s-40.333 -33 -57 -59
c6 -56 19.667 -99.5 41 -130.5z" />
    <glyph glyph-name="seven" unicode="7" horiz-adv-x="563" 
d="M236 316.5c29.333 89 77.002 179.165 143.002 270.498h-329v105h466v-76c-52 -64.667 -91.833 -126.167 -119.5 -184.5s-47.334 -120.166 -59.001 -185.499s-19.5 -146.666 -23.5 -243.999h-130c5.33301 120.667 22.666 225.5 51.999 314.5z" />
    <glyph glyph-name="eight" unicode="8" horiz-adv-x="564" 
d="M162.5 13c-35.667 16 -63.834 38.332 -84.501 66.999s-31 61.334 -31 98.001c0 38 11.167 72 33.5 102s52.833 55 91.5 75v5c-32 22.667 -56 47.167 -72 73.5s-24 55.833 -24 88.5c0 36 9 67.833 27 95.5s42.833 49.167 74.5 64.5s67.834 23 108.501 23
c62 0 111.5 -16.833 148.5 -50.5s55.5 -78.5 55.5 -134.5c0 -30.667 -8.66699 -60 -26 -88s-40 -51.667 -68 -71v-5c40 -22 70.333 -47.5 91 -76.5s31 -63.5 31 -103.5c0 -36.667 -10.333 -69.167 -31 -97.5s-49 -50.333 -85 -66s-76 -23.5 -120 -23.5s-83.833 8 -119.5 24z
M384 511.999c0 32 -9.16797 57.833 -27.501 77.5s-42.833 29.5 -73.5 29.5c-27.333 0 -49.666 -8.83301 -66.999 -26.5s-26 -41.167 -26 -70.5c0 -31.333 11.167 -56.5 33.5 -75.5s56.833 -37.5 103.5 -55.5c38 38 57 78.333 57 121zM366.499 104.499
c20.333 18.333 30.5 43.833 30.5 76.5c0 24 -6.66699 43.833 -20 59.5s-29.833 28.5 -49.5 38.5s-51.5 24.333 -95.5 43c-23.333 -18 -41.333 -38.167 -54 -60.5s-19 -45.5 -19 -69.5c0 -33.333 12 -60.833 36 -82.5s54 -32.5 90 -32.5c34 0 61.167 9.16699 81.5 27.5z" />
    <glyph glyph-name="nine" unicode="9" horiz-adv-x="563" 
d="M70.5 594.5c19 34.333 45.168 61.334 78.501 81.001s70.666 29.5 111.999 29.5c52.667 0 98 -13.833 136 -41.5s66.833 -66.834 86.5 -117.501s29.5 -110 29.5 -178c0 -75.333 -10.833 -141.5 -32.5 -198.5s-53.167 -101.333 -94.5 -133s-90.333 -47.5 -147 -47.5
c-37.333 0 -71.833 7 -103.5 21s-58.834 32.667 -81.501 56l68 77c14.667 -16 31.834 -28.833 51.501 -38.5s39.167 -14.5 58.5 -14.5c52.667 0 92.5 22.833 119.5 68.5s40.833 108.167 41.5 187.5c-14.667 -22 -36.5 -40.667 -65.5 -56s-56.833 -23 -83.5 -23
c-64.667 0 -114.5 18.667 -149.5 56s-52.5 89.333 -52.5 156c0 42.667 9.5 81.167 28.5 115.5zM188.001 386.001c18.667 -20.667 45.3311 -31 79.998 -31c22.667 0 44.834 7 66.501 21s40.5 34.333 56.5 61c-6.66699 58 -21.167 101.5 -43.5 130.5s-50.833 43.5 -85.5 43.5
c-29.333 0 -53.666 -11.833 -72.999 -35.5s-29 -55.5 -29 -95.5c0 -42 9.33301 -73.333 28 -94z" />
    <glyph glyph-name="colon" unicode=":" horiz-adv-x="359" 
d="M104 285.5c-17.333 17 -26.001 37.833 -26.001 62.5s8.5 45.334 25.5 62.001s37.833 25 62.5 25s45.334 -8.33301 62.001 -25s25 -37.334 25 -62.001s-8.5 -45.5 -25.5 -62.5s-37.5 -25.5 -61.5 -25.5s-44.667 8.5 -62 25.5zM103.999 13.5
c-17.333 17 -26.001 37.833 -26.001 62.5s8.5 45.5 25.5 62.5s37.833 25.5 62.5 25.5s45.334 -8.5 62.001 -25.5s25 -37.833 25 -62.5s-8.5 -45.5 -25.5 -62.5s-37.5 -25.5 -61.5 -25.5s-44.667 8.5 -62 25.5z" />
    <glyph glyph-name="semicolon" unicode=";" horiz-adv-x="316" 
d="M92 387.5c-17.333 17 -26.001 37.833 -26.001 62.5c0 25.333 8.66699 46.5 26 63.5s38.333 25.5 63 25.5s45.334 -8.5 62.001 -25.5s25 -38.167 25 -63.5c0 -24.667 -8.5 -45.5 -25.5 -62.5s-37.5 -25.5 -61.5 -25.5c-24.667 0 -45.667 8.5 -63 25.5zM49.999 -126
c36.667 14.667 64.666 33.5 83.999 56.5s28.666 48.5 27.999 76.5h-10c-23.333 0 -43 7 -59 21s-24 33 -24 57s8.33301 43.333 25 58s37 22 61 22c30.667 0 54.334 -11.667 71.001 -35s25 -55.666 25 -96.999c0 -54.667 -15.167 -101.834 -45.5 -141.501
s-73.166 -69.167 -128.499 -88.5z" />
    <glyph glyph-name="less" unicode="&#x3c;" horiz-adv-x="559" 
d="M524 124l-487 189v95l487 189v-109l-356 -125v-5l356 -125v-109z" />
    <glyph glyph-name="equal" unicode="=" horiz-adv-x="559" 
d="M37 429v93h487v-93h-487zM37 190v93h487v-93h-487z" />
    <glyph glyph-name="greater" unicode="&#x3e;" horiz-adv-x="559" 
d="M37 124v109l355 125v5l-355 125v109l487 -189v-95z" />
    <glyph glyph-name="question" unicode="?" horiz-adv-x="486" 
d="M170 237c-1.33301 12 -2.00098 21.0029 -2.00098 27.0029c0 27.333 5.83301 54.166 17.5 80.499s27.834 50.833 48.501 73.5l31.5 37.5c17 20.333 29.167 38.166 36.5 53.499s11 30.333 11 45c0 25.333 -7.83301 45.833 -23.5 61.5s-37.167 23.5 -64.5 23.5
c-39.333 0 -76 -18.667 -110 -56l-73 66c26 30 55.667 53.5 89 70.5s70 25.5 110 25.5c60.667 0 108.667 -15.833 144 -47.5s53 -76.5 53 -134.5c0 -28.667 -6.66699 -55.167 -20 -79.5s-34 -51.833 -62 -82.5c-24.667 -27.333 -43 -52.333 -55 -75s-18 -46.334 -18 -71.001
c0 -8 0.333008 -14 1 -18h-114zM168.499 11.5029c-15.667 16.333 -23.5 36.833 -23.5 61.5c0 26 7.83301 47.167 23.5 63.5s35.5 24.5 59.5 24.5s43.833 -8.16699 59.5 -24.5s23.5 -37.5 23.5 -63.5c0 -24.667 -8 -45.167 -24 -61.5s-35.667 -24.5 -59 -24.5
c-24 0 -43.833 8.16699 -59.5 24.5z" />
    <glyph glyph-name="at" unicode="@" horiz-adv-x="956" 
d="M299 -150.5c-48 17 -89.999 42.167 -125.999 75.5c-38 34.667 -67.5 77.334 -88.5 128.001s-31.5 108.334 -31.5 173.001c0 73.333 12.5 140.666 37.5 201.999s59.833 114.333 104.5 159c44 43.333 94.667 76.833 152 100.5s118 35.5 182 35.5
c56.667 0 108.334 -9 155.001 -27s86.334 -44 119.001 -78s57.667 -74.167 75 -120.5s26 -96.833 26 -151.5c0 -47.333 -7 -89.5 -21 -126.5s-33 -68.5 -57 -94.5c-22.667 -24.667 -47.834 -43.334 -75.501 -56.001s-55.167 -19 -82.5 -19c-31.333 0 -58 7.16699 -80 21.5
s-35.333 34.833 -40 61.5h-2c-16.667 -21.333 -37.167 -38.833 -61.5 -52.5s-47.833 -20.5 -70.5 -20.5c-41.333 0 -74.666 14.333 -99.999 43s-38 67.667 -38 117c0 31.333 5.33301 62.666 16 93.999s25.334 59.333 44.001 84c20 25.333 43.167 45.333 69.5 60
s54.833 22 85.5 22c38 0 66.333 -17.667 85 -53h3l13 45h82l-46 -231c-4.66699 -16.667 -7 -32.667 -7 -48c0 -40.667 20 -61 60 -61c17.333 0 34.166 4.83301 50.499 14.5s31.166 23.834 44.499 42.501c28.667 40 43 91 43 153c0 42 -6 81.167 -18 117.5
s-30.333 67.833 -55 94.5c-52.667 58 -128.334 87 -227.001 87c-47.333 0 -93.5 -9.83301 -138.5 -29.5s-85.167 -47.167 -120.5 -82.5c-36.667 -36.667 -65.334 -80.5 -86.001 -131.5s-31 -106.833 -31 -167.5c0 -52 8.16699 -98.5 24.5 -139.5s39.833 -75.5 70.5 -103.5
c28.667 -26.667 62.5 -47 101.5 -61s80.833 -21 125.5 -21c30 0 59.667 4 89 12s56.333 19 81 33l30 -72c-62 -36 -132.333 -54 -211 -54c-55.333 0 -107 8.5 -155 25.5zM481.001 156.5c13.333 9 28.001 23.167 44.001 42.5l29 159c-7.33301 13.333 -15.833 23 -25.5 29
s-20.834 9 -33.501 9c-34.667 0 -63.667 -19.333 -87 -58c-10 -16 -18 -34 -24 -54s-9 -39 -9 -57c0 -28 5.83301 -49 17.5 -63s27.834 -21 48.501 -21c13.333 0 26.666 4.5 39.999 13.5z" />
    <glyph glyph-name="A" unicode="A" horiz-adv-x="627" 
d="M231 711h153l230 -709h-137l-54 191h-236l-54 -191h-131zM397 291l-25 88c-6.66699 20 -14 45.333 -22 76l-10 37l-15 58l-16 58h-9c-4.66699 -21.333 -9.16699 -40 -13.5 -56l-10.5 -40l-5 -20c-8 -30.667 -18.667 -68.667 -32 -114l-26 -87h184z" />
    <glyph glyph-name="B" unicode="B" horiz-adv-x="653" 
d="M92 711h229c169.333 0 254 -57.667 254 -173c0 -35.333 -9.16699 -67.5 -27.5 -96.5s-41.833 -48.167 -70.5 -57.5v-8c43.333 -9.33301 76.833 -28.5 100.5 -57.5s35.5 -65.5 35.5 -109.5c0 -68 -25.167 -119.5 -75.5 -154.5s-116.5 -52.5 -198.5 -52.5h-247v709z
M309 417c46.667 0 81.667 8.66797 105 26.001s35 42.666 35 75.999c0 34 -11 58.5 -33 73.5s-56.667 22.5 -104 22.5h-92v-198h89zM326 99.001c106.667 0 160 39.334 160 118.001c0 37.333 -13.167 64.666 -39.5 81.999s-66.5 26 -120.5 26h-106v-226h106z" />
    <glyph glyph-name="C" unicode="C" horiz-adv-x="632" 
d="M206 36c-48.667 31.333 -86.001 74.501 -112.001 129.501s-39 117.833 -39 188.5s13.5 134 40.5 190s65.333 100 115 132s106.834 48 171.501 48c40 0 77.667 -8 113 -24s65.666 -37.333 90.999 -64l-67 -82c-41.333 41.333 -86 62 -134 62
c-41.333 0 -76.833 -11.333 -106.5 -34s-52.167 -53.667 -67.5 -93s-23 -83 -23 -131c0 -78.667 17 -141.834 51 -189.501s81.333 -71.5 142 -71.5c30 0 57.167 6.16699 81.5 18.5s47.5 30.833 69.5 55.5l68 -79c-59.333 -68.667 -133.666 -103 -222.999 -103
c-65.333 0 -122.333 15.667 -171 47z" />
    <glyph glyph-name="D" unicode="D" horiz-adv-x="684" 
d="M92 2l0.000976562 709.001h190c113.333 0 199.666 -29.833 258.999 -89.5s89 -146.834 89 -261.501c0 -114 -29.667 -202.167 -89 -264.5s-143.333 -93.5 -252 -93.5h-197zM220.001 103.001h54c74.667 0 130.667 21.833 168 65.5s56 107.5 56 191.5
s-18.5 146.667 -55.5 188s-93.167 62 -168.5 62h-54v-507z" />
    <glyph glyph-name="E" unicode="E" horiz-adv-x="589" 
d="M92 711h429v-105h-301v-183h255v-105h-255v-211h312v-105h-440v709z" />
    <glyph glyph-name="F" unicode="F" horiz-adv-x="559" 
d="M92 711h431v-105h-303v-203h258v-105h-258v-296h-128v709z" />
    <glyph glyph-name="G" unicode="G" horiz-adv-x="687" 
d="M97 545.5c28 56.333 67.6631 100.169 118.996 131.502s110.333 47 177 47c44.667 0 84.834 -7.83301 120.501 -23.5s66.834 -37.167 93.501 -64.5l-67 -82c-22.667 20.667 -45 36.167 -67 46.5s-47.333 15.5 -76 15.5c-44 0 -81.667 -11.167 -113 -33.5
s-55.166 -53 -71.499 -92s-24.5 -83.167 -24.5 -132.5c0 -80.667 18.333 -144.334 55 -191.001s90.334 -70 161.001 -70c20 0 38.833 2.83301 56.5 8.5s32.167 13.5 43.5 23.5v155h-133v101h248v-312c-25.333 -25.333 -58.166 -45.666 -98.499 -60.999s-83.5 -23 -129.5 -23
c-68.667 0 -128.334 15.333 -179.001 46s-89.5 73.667 -116.5 129s-40.5 118.666 -40.5 189.999s14 135.166 42 191.499z" />
    <glyph glyph-name="H" unicode="H" horiz-adv-x="725" 
d="M92 711h128v-286h285v286h130v-709h-130v315h-285v-315h-128v709z" />
    <glyph glyph-name="I" unicode="I" horiz-adv-x="311" 
d="M92 2v709h128v-709h-128z" />
    <glyph glyph-name="J" unicode="J" horiz-adv-x="542" 
d="M114.5 18.5c-35 19.667 -64.167 49.5 -87.5 89.5l89 65c28 -50.667 64.667 -76 110 -76c34.667 0 60 11 76 33s24 57.667 24 107v474h129v-486c0 -69.333 -16.667 -125 -50 -167c-37.333 -46 -92 -69 -164 -69c-49.333 0 -91.5 9.83301 -126.5 29.5z" />
    <glyph glyph-name="K" unicode="K" horiz-adv-x="655" 
d="M92 2v709h128v-321h4l249 321h142l-217 -276l255 -433h-141l-191 331l-101 -125v-206h-128z" />
    <glyph glyph-name="L" unicode="L" horiz-adv-x="551" 
d="M92 2v709h128v-604h295v-105h-423z" />
    <glyph glyph-name="M" unicode="M" horiz-adv-x="815" 
d="M92 711l145 -0.000976562l124 -344l12 -33l12 -35l22 -72h5c8.66699 23.333 16.667 47.333 24 72c5.33301 22 12.333 44.667 21 68l122 344h146v-709h-119v317c0 24.667 2 63.834 6 117.501s7.33301 91.5 10 113.5h-5l-171 -481h-77l-173 481h-4c10 -104 15 -181 15 -231
v-317h-115v709z" />
    <glyph glyph-name="N" unicode="N" horiz-adv-x="718" 
d="M92 2v709h133l204 -373l88 -176h3c-6 54.667 -10 99.334 -12 134.001s-3 73 -3 115v300h122v-709h-134l-195 357l-98 191h-3c7.33301 -60.667 12 -106.334 14 -137.001s3 -66.667 3 -108v-303h-122z" />
    <glyph glyph-name="O" unicode="O" horiz-adv-x="739" 
d="M200.5 36.5c-47.667 31.667 -83.8311 75.667 -108.498 132s-37 120.166 -37 191.499c0 72 12.333 135.333 37 190s60.667 97.334 108 128.001s104 46 170 46c65.333 0 121.666 -15.333 168.999 -46s83.5 -73.5 108.5 -128.5s37.5 -118.167 37.5 -189.5
c0 -72 -12.5 -136 -37.5 -192s-61.333 -99.833 -109 -131.5s-103.834 -47.5 -168.501 -47.5c-65.333 0 -121.833 15.833 -169.5 47.5zM468.003 131c27.333 22.667 48.168 53.832 62.501 93.499s21.5 84.834 21.5 135.501c0 77.333 -16.167 139.333 -48.5 186
s-76.833 70 -133.5 70c-57.333 0 -102 -23.5 -134 -70.5s-48 -108.833 -48 -185.5c0 -50.667 7.16699 -96 21.5 -136s35.166 -71.167 62.499 -93.5s60 -33.5 98 -33.5s70.667 11.333 98 34z" />
    <glyph glyph-name="P" unicode="P" horiz-adv-x="637" 
d="M92 711h226c183.333 0 275 -73 275 -219c0 -74 -24.667 -130.833 -74 -170.5s-115 -59.5 -197 -59.5h-102v-260h-128v709zM312 362c52 0 90.833 10.666 116.5 31.999s38.5 54 38.5 98c0 42.667 -12.833 73.334 -38.5 92.001s-66.167 28 -121.5 28h-87v-250h92z" />
    <glyph glyph-name="Q" unicode="Q" horiz-adv-x="739" 
d="M92 553.5c24.667 55 60.668 97.6631 108.001 127.996s104 45.5 170 45.5c65.333 0 121.666 -15.333 168.999 -46s83.5 -73.5 108.5 -128.5s37.5 -118.167 37.5 -189.5c0 -95.333 -21 -175.166 -63 -239.499s-101 -104.833 -177 -121.5
c16 -28.667 38.333 -50.167 67 -64.5s62 -21.5 100 -21.5c29.333 0 55 4 77 12l23 -93c-30 -13.333 -68 -20 -114 -20c-66.667 0 -125.5 16.5 -176.5 49.5s-88.5 78.167 -112.5 135.5c-54.667 8.66699 -101 29.834 -139 63.501s-66.667 76.334 -86 128.001
s-29 108.834 -29 171.501c0 72 12.333 135.5 37 190.5zM242.001 184.996c28.667 -46 68.333 -69.001 119 -69.001c56.667 0 100.667 22.333 132 67s47 102.334 47 173.001c0 73.333 -14.5 132.333 -43.5 177s-68.5 67 -118.5 67c-56 0 -99.833 -22 -131.5 -66
s-47.5 -100.333 -47.5 -169c0 -74 14.333 -134 43 -180z" />
    <glyph glyph-name="R" unicode="R" horiz-adv-x="650" 
d="M92 711l241 -0.000976562c84.667 0 149.667 -17.167 195 -51.5s68 -87.166 68 -158.499c0 -51.333 -12.167 -94 -36.5 -128s-59.833 -58.667 -106.5 -74l170 -297h-145l-151 277h-107v-277h-128v709zM320 377.999c48.667 0 85.832 10.499 111.499 31.499
s38.5 51.5 38.5 91.5c0 38.667 -12.167 66.834 -36.5 84.501s-62.166 26.5 -113.499 26.5h-100v-234h100z" />
    <glyph glyph-name="S" unicode="S" horiz-adv-x="598" 
d="M161.5 15.5c-44.333 17.667 -83.167 43.167 -116.5 76.5l73 87c27.333 -26 57.166 -46.167 89.499 -60.5s64.166 -21.5 95.499 -21.5c38.667 0 68.667 8.16699 90 24.5s32 38.833 32 67.5c0 25.333 -7 44.333 -21 57s-38 26.667 -72 42l-115 49
c-44.667 18 -79.667 42.833 -105 74.5s-38 69.5 -38 113.5c0 38.667 10.833 73.167 32.5 103.5s50.834 53.833 87.501 70.5s76.667 25 120 25c41.333 0 81 -7.66699 119 -23s71.333 -37.333 100 -66l-64 -80c-24.667 20.667 -49.5 36 -74.5 46s-51.833 15 -80.5 15
c-34 0 -60.667 -7.33301 -80 -22s-29 -35.334 -29 -62.001c0 -21.333 7.83301 -39 23.5 -53s39.5 -27.667 71.5 -41l114 -48c47.333 -18.667 83 -43.167 107 -73.5s36 -69.166 36 -116.499c0 -42 -11.333 -79 -34 -111s-53.667 -56.667 -93 -74s-82.666 -26 -129.999 -26
c-48 0 -94.167 8.83301 -138.5 26.5z" />
    <glyph glyph-name="T" unicode="T" horiz-adv-x="599" 
d="M235 2v604h-204v105h538v-105h-204v-604h-130z" />
    <glyph glyph-name="U" unicode="U" horiz-adv-x="717" 
d="M88 315v396h129v-406c0 -70 11.833 -122.167 35.5 -156.5s59.5 -51.5 107.5 -51.5c49.333 0 85.833 17.333 109.5 52s35.5 86.667 35.5 156v406h124v-396c0 -108.667 -22.167 -190.167 -66.5 -244.5s-111.833 -81.5 -202.5 -81.5c-181.333 0 -272 108.667 -272 326z" />
    <glyph glyph-name="V" unicode="V" horiz-adv-x="590" 
d="M136 711l97 -354c10 -34.667 21 -75.667 33 -123l30 -111h6l62 234l97 354h131l-219 -709h-154l-220 709h137z" />
    <glyph glyph-name="W" unicode="W" horiz-adv-x="877" 
d="M22 711l133.001 0.000976562l60 -355l34 -230h5c15.333 67.333 27.666 127.666 36.999 180.999l10 49l86 355h112l87 -355l16 -80l14 -68l17 -82h5c16.667 118 28 194.667 34 230l60 355h123l-134 -709h-162l-85 369c-5.33301 24 -11 51.333 -17 82s-11 58.667 -15 84h-6
c-10 -62 -20.667 -117.333 -32 -166l-83 -369h-159z" />
    <glyph glyph-name="X" unicode="X" horiz-adv-x="596" 
d="M218 368l-187 343h143l76 -154c18 -34 36 -71.333 54 -112h4l48 110l73 156h137l-188 -350l200 -359h-143l-84 165c-23.333 44 -42.666 83 -57.999 117h-4c-2.66699 -8 -16.334 -39 -41.001 -93l-11 -24l-81 -165h-138z" />
    <glyph glyph-name="Y" unicode="Y" horiz-adv-x="553" 
d="M212 264l-214 447h138l75 -179l64 -158h4l28 65l39 93l75 179h134l-214 -447v-262h-129v262z" />
    <glyph glyph-name="Z" unicode="Z" horiz-adv-x="592" 
d="M46 78l343 528h-312v105h469v-75l-343 -529h347v-105h-504v76z" />
    <glyph glyph-name="bracketleft" unicode="[" horiz-adv-x="353" 
d="M97 -163v939h215v-71h-118v-797h118v-71h-215z" />
    <glyph glyph-name="backslash" unicode="\" horiz-adv-x="377" 
d="M17 767h88l277 -940h-87z" />
    <glyph glyph-name="bracketright" unicode="]" horiz-adv-x="353" 
d="M42 -163v71h118v797h-118v71h215v-939h-215z" />
    <glyph glyph-name="asciicircum" unicode="^" horiz-adv-x="559" 
d="M59 299l167 427h108l167 -427h-108l-60 162l-51 146h-4l-52 -146l-58 -162h-109z" />
    <glyph glyph-name="underscore" unicode="_" horiz-adv-x="545" 
d="M13 -143v77h519v-77h-519z" />
    <glyph glyph-name="a" unicode="a" horiz-adv-x="565" 
d="M95.5 32.5c-29 29 -43.501 66.501 -43.501 112.501c0 56.667 24.833 100.667 74.5 132s129.5 52.666 239.5 63.999c-1.33301 35.333 -9.66602 62 -24.999 80s-39.333 27 -72 27c-22.667 0 -46.167 -4.33301 -70.5 -13s-50.833 -21.667 -79.5 -39l-45 83
c73.333 45.333 146.666 68 219.999 68c66 0 115.833 -19.167 149.5 -57.5s50.5 -95.833 50.5 -172.5v-314h-104l-10 59h-4c-27.333 -24 -54.666 -42.167 -81.999 -54.5s-55.333 -18.5 -84 -18.5c-47.333 0 -85.5 14.5 -114.5 43.5zM308.999 99.501
c17.333 9 36.333 23.499 57 43.499v123c-58 -8 -104.167 -20.167 -138.5 -36.5s-51.5 -41.166 -51.5 -74.499c0 -22 6.66699 -39 20 -51s32 -18 56 -18c20.667 0 39.667 4.5 57 13.5z" />
    <glyph glyph-name="b" unicode="b" horiz-adv-x="629" 
d="M80 768h129.002v-196l-4 -92c22.667 20.667 47.167 37 73.5 49s53.166 18 80.499 18c68.667 0 121 -24.667 157 -74s54 -114.333 54 -195c0 -53.333 -9.5 -102 -28.5 -146s-45.833 -78.833 -80.5 -104.5s-74.334 -38.5 -119.001 -38.5
c-24.667 0 -49.667 6.16699 -75 18.5s-49 29.5 -71 51.5h-4l-10 -56h-102v765zM209.002 136c34 -30 69.334 -45 106.001 -45c37.333 0 67.166 16.833 89.499 50.5s33.5 78.167 33.5 133.5c0 114 -38 171 -114 171c-36.667 0 -75 -20 -115 -60v-250z" />
    <glyph glyph-name="c" unicode="c" horiz-adv-x="506" 
d="M168.5 24.5c-39 23.667 -69.166 56.667 -90.499 99s-32 90.5 -32 144.5s11.5 102.167 34.5 144.5s55 75.333 96 99s87.5 35.5 139.5 35.5c58 0 109.333 -19.333 154 -58l-60 -81c-30.667 26 -60 39 -88 39c-44 0 -79 -16.667 -105 -50s-39 -76.333 -39 -129
c0 -52 13 -94.667 39 -128s59.667 -50 101 -50c35.333 0 72 15.333 110 46l50 -82c-24.667 -21.333 -51.834 -37.5 -81.501 -48.5s-60.5 -16.5 -92.5 -16.5c-51.333 0 -96.5 11.833 -135.5 35.5z" />
    <glyph glyph-name="d" unicode="d" horiz-adv-x="618" 
d="M77.5 409c19.667 42.667 46.832 76.332 81.499 100.999s73.334 37 116.001 37c28 0 52.5 -4.83301 73.5 -14.5s43.167 -24.5 66.5 -44.5l-5 100v180h128v-765h-104l-10 57h-4c-22.667 -22 -47.167 -39.333 -73.5 -52s-52.5 -19 -78.5 -19
c-69.333 0 -123.333 25.333 -162 76s-58 118.334 -58 203.001c0 51.333 9.83301 98.333 29.5 141zM211.498 136.998c21 -30.667 50.501 -46 88.501 -46c20.667 0 39.834 4.83301 57.501 14.5s35.167 25.167 52.5 46.5v249c-32.667 30 -68.667 45 -108 45
c-22.667 0 -43.334 -7.16699 -62.001 -21.5s-33.334 -35 -44.001 -62s-16 -58.167 -16 -93.5c0 -57.333 10.5 -101.333 31.5 -132z" />
    <glyph glyph-name="e" unicode="e" horiz-adv-x="557" 
d="M172.5 24.5c-40.333 23.667 -71.5029 56.666 -93.5029 98.999s-33 90.5 -33 144.5c0 51.333 10.833 98.333 32.5 141s51.334 76.334 89.001 101.001s79.5 37 125.5 37c71.333 0 126 -23 164 -69s57 -107 57 -183c0 -27.333 -1.33301 -47.333 -4 -60h-339
c4.66699 -48 20.834 -85 48.501 -111s63.834 -39 108.501 -39c40 0 81.333 13 124 39l42 -77c-26.667 -18 -55.667 -32.167 -87 -42.5s-63.333 -15.5 -96 -15.5c-52 0 -98.167 11.833 -138.5 35.5zM403.997 317.999c0.666992 42.667 -8.16699 75.834 -26.5 99.501
s-45.5 35.5 -81.5 35.5c-34 0 -62.333 -12.333 -85 -37s-36.667 -57.334 -42 -98.001h235z" />
    <glyph glyph-name="f" unicode="f" horiz-adv-x="352" 
d="M103 436h-72.001v92l72 5v56c0 62 15.333 109.5 46 142.5s75.334 49.5 134.001 49.5c32 0 64.667 -6 98 -18l-24 -92c-22 8 -41 12 -57 12c-45.333 0 -68 -30.667 -68 -92v-57h103v-98h-103v-434h-129v434z" />
    <glyph glyph-name="g" unicode="g" horiz-adv-x="572" 
d="M107 -195.5c-42 23 -63.001 57.166 -63.001 102.499c0 42.667 26.333 80.334 79 113.001v7c-33.333 20.667 -50 50 -50 88c0 19.333 5.66699 37.666 17 54.999s25.666 31.666 42.999 42.999v7c-21.333 16 -38.666 36 -51.999 60s-20 51 -20 81
c0 37.333 9.16699 70.5 27.5 99.5s43.666 51.333 75.999 67s68.833 23.5 109.5 23.5c30.667 0 57.334 -4.33301 80.001 -13h191v-91h-100c10 -10.667 18.167 -24 24.5 -40s9.5 -32.667 9.5 -50c0 -56.667 -19.167 -100.834 -57.5 -132.501s-87.5 -47.5 -147.5 -47.5
c-26 0 -49.667 4.66699 -71 14c-9.33301 -7.33301 -16.166 -15.166 -20.499 -23.499s-6.5 -18.5 -6.5 -30.5c0 -18 7.5 -30.833 22.5 -38.5s36.833 -11.5 65.5 -11.5h94c66 0 115.167 -10.5 147.5 -31.5s48.5 -53.833 48.5 -98.5c0 -39.333 -13.333 -73.166 -40 -101.499
s-62 -49.666 -106 -63.999s-91 -21.5 -141 -21.5c-64.667 0 -118 11.5 -160 34.5zM340.499 281.499c17 19.667 25.5 46.168 25.5 79.501c0 32 -8.5 57.5 -25.5 76.5s-39.167 28.5 -66.5 28.5s-49.333 -9.33301 -66 -28s-25 -44.334 -25 -77.001
c0 -33.333 8.5 -59.833 25.5 -79.5s38.833 -29.5 65.5 -29.5c27.333 0 49.5 9.83301 66.5 29.5zM388.999 -127c28 16.667 42 37.668 42 63.001c0 20 -7.33301 34.167 -22 42.5s-38.667 12.5 -72 12.5h-71c-30 0 -54.333 2.33301 -73 7c-27.333 -20 -41 -44 -41 -72
c0 -24.667 12 -43.834 36 -57.501s57 -20.5 99 -20.5c40 0 74 8.33301 102 25z" />
    <glyph glyph-name="h" unicode="h" horiz-adv-x="612" 
d="M80 768l129.001 0.000976562v-196l-6 -106c28 25.333 55.333 45.166 82 59.499s56.667 21.5 90 21.5c56 0 97.333 -17.667 124 -53s40 -88 40 -158v-334h-128v317c0 44 -6.33301 75.5 -19 94.5s-33.667 28.5 -63 28.5c-22 0 -41.333 -5.16699 -58 -15.5
s-37.334 -27.5 -62.001 -51.5v-373h-129v766z" />
    <glyph glyph-name="i" unicode="i" horiz-adv-x="288" 
d="M88.5 651c-15 13.333 -22.5 30.333 -22.5 51c0 21.333 7.33301 38.666 22 51.999s33.667 20 57 20s42.333 -6.66699 57 -20s22 -30.666 22 -51.999c0 -20.667 -7.33301 -37.667 -22 -51s-33.667 -20 -57 -20c-22.667 0 -41.5 6.66699 -56.5 20zM81 534h128v-532h-128v532
z" />
    <glyph glyph-name="j" unicode="j" horiz-adv-x="292" 
d="M92 654c-14.667 13.333 -22 30.668 -22 52.001c0 20.667 7.33301 37.834 22 51.501s33.334 20.5 56.001 20.5c23.333 0 42.333 -6.83301 57 -20.5s22 -30.834 22 -51.501s-7.5 -37.834 -22.5 -51.501s-33.833 -20.5 -56.5 -20.5s-41.334 6.66699 -56.001 20z
M-46 -203.998l22.002 91c21.333 -4.66699 36.666 -7 45.999 -7c22 0 37.667 7.5 47 22.5s14 39.833 14 74.5v560h129v-558c0 -131.333 -57.333 -197 -172 -197c-32.667 0 -61.334 4.66699 -86.001 14z" />
    <glyph glyph-name="k" unicode="k" horiz-adv-x="575" 
d="M80 768h126v-477h4l195 243h138l-182 -216l201 -316h-137l-137 230l-82 -94v-136h-126v766z" />
    <glyph glyph-name="l" unicode="l" horiz-adv-x="300" 
d="M110 27.5c-20 25.667 -29.999 63.832 -29.999 114.499v626h129v-633c0 -15.333 2.5 -26.666 7.5 -33.999s11.833 -11 20.5 -11c3.33301 0 9.66602 0.666992 18.999 2l15 -91c-14.667 -8 -36.667 -12 -66 -12c-43.333 0 -75 12.833 -95 38.5z" />
    <glyph glyph-name="m" unicode="m" horiz-adv-x="923" 
d="M80 534l105.001 0.00195312l10 -72h4c26.667 28 53 49.167 79 63.5s54.333 21.5 85 21.5c38 0 69 -7.83301 93 -23.5s42.333 -39.834 55 -72.501c28.667 31.333 56.5 55.166 83.5 71.499s56.5 24.5 88.5 24.5c55.333 0 96.833 -17.833 124.5 -53.5
s41.5 -88.167 41.5 -157.5v-334h-129v317c0 44 -6.33301 75.5 -19 94.5s-33.334 28.5 -62.001 28.5c-16 0 -33 -5.5 -51 -16.5s-38 -27.833 -60 -50.5v-373h-127v317c0 44 -6.5 75.5 -19.5 94.5s-33.833 28.5 -62.5 28.5c-32.667 0 -69.667 -22.333 -111 -67v-373h-128v532z
" />
    <glyph glyph-name="n" unicode="n" horiz-adv-x="614" 
d="M80 534h106.002l8 -70h7c27.333 26.667 54.666 47.167 81.999 61.5s58 21.5 92 21.5c56 0 97.333 -17.667 124 -53s40 -88 40 -158v-334h-128v317c0 44 -6.33301 75.5 -19 94.5s-33.667 28.5 -63 28.5c-22 0 -41.333 -5.16699 -58 -15.5s-37.334 -27.5 -62.001 -51.5
v-373h-129v532z" />
    <glyph glyph-name="o" unicode="o" horiz-adv-x="601" 
d="M170 25c-38.667 24 -68.999 57.165 -90.999 99.498s-33 90.166 -33 143.499s11 101.333 33 144s52.333 75.834 91 99.501s82.334 35.5 131.001 35.5s92.5 -12 131.5 -36s69.333 -57.167 91 -99.5s32.5 -90.166 32.5 -143.499s-11 -101.166 -33 -143.499
s-52.333 -75.5 -91 -99.5s-82.334 -36 -131.001 -36s-92.334 12 -131.001 36zM391.501 138.498c22.333 32.333 33.5 75.5 33.5 129.5c0 54.667 -11.167 98.167 -33.5 130.5s-52.5 48.5 -90.5 48.5s-68 -16.333 -90 -49s-33 -76 -33 -130s11 -97.167 33 -129.5
s52 -48.5 90 -48.5s68.167 16.167 90.5 48.5z" />
    <glyph glyph-name="p" unicode="p" horiz-adv-x="618" 
d="M80 537l106 0.000976562l9 -56h4c54 46 107.667 69 161 69c66.667 0 118.334 -24.333 155.001 -73s55 -114.334 55 -197.001c0 -53.333 -9.66699 -102 -29 -146s-46.333 -78.5 -81 -103.5s-74 -37.5 -118 -37.5c-44.667 0 -90.334 19.667 -137.001 59l4 -92v-165h-129
v742zM209 139.001c33.333 -29.333 68.6641 -43.999 105.997 -43.999c36.667 0 66.334 16.167 89.001 48.5s34 77.166 34 134.499c0 56.667 -9.66699 99.334 -29 128.001s-47.666 43 -84.999 43c-18.667 0 -37.167 -4.83301 -55.5 -14.5s-38.166 -24.834 -59.499 -45.501
v-250z" />
    <glyph glyph-name="q" unicode="q" horiz-adv-x="618" 
d="M410 -33l4.99805 92.999c-20.667 -21.333 -43.834 -37.833 -69.501 -49.5s-51.5 -17.5 -77.5 -17.5c-69.333 0 -123.333 25.167 -162 75.5s-58 117.833 -58 202.5c0 51.333 9.83301 98.333 29.5 141s46.834 76.334 81.501 101.001s73.334 37 116.001 37
c30 0 56.333 -5 79 -15s45.334 -26.667 68.001 -50h3l12 52h101v-742h-128v172zM357.498 108.999c17.667 9.33301 35.167 24.667 52.5 46v249c-32.667 30 -68.667 45 -108 45c-22.667 0 -43.334 -7.16699 -62.001 -21.5s-33.334 -34.833 -44.001 -61.5s-16 -57.667 -16 -93
c0 -58 10.333 -102.167 31 -132.5s50.334 -45.5 89.001 -45.5c20.667 0 39.834 4.66699 57.501 14z" />
    <glyph glyph-name="r" unicode="r" horiz-adv-x="413" 
d="M80 534l105.998 -0.000976562l9 -95h2c18.667 34.667 41.834 61.334 69.501 80.001s56.167 28 85.5 28c26.667 0 46.667 -3.33301 60 -10l-22 -108c-20 5.33301 -38.333 8 -55 8c-25.333 0 -49.166 -9.33301 -71.499 -28s-40.5 -46 -54.5 -82v-325h-129v532z" />
    <glyph glyph-name="s" unicode="s" horiz-adv-x="474" 
d="M125 9c-36 13.333 -67.665 31.002 -94.998 53.002l58 80c25.333 -20 49.666 -35 72.999 -45s47.666 -15 72.999 -15c27.333 0 48.333 5.66699 63 17s22 27.333 22 48c0 12.667 -4.66699 23.834 -14 33.501s-22.666 18.834 -39.999 27.501
c-6.66699 3.33301 -20.667 9.66602 -42 18.999c-10 4 -25 10.667 -45 20c-82 33.333 -123 80.666 -123 141.999c0 48 18.167 86.333 54.5 115s83.5 43 141.5 43c64 0 123 -21 177 -63l-57 -76c-21.333 16 -41.333 27.833 -60 35.5s-37.667 11.5 -57 11.5
c-24.667 0 -43.834 -5.33301 -57.501 -16s-20.5 -25.334 -20.5 -44.001c0 -16 6.16699 -28.5 18.5 -37.5s31.833 -18.833 58.5 -29.5c1.33301 -0.666992 13.333 -5.33398 36 -14.001c23.333 -8.66699 42.5 -16.667 57.5 -24s28.167 -16 39.5 -26c36 -26.667 54 -63 54 -109
c0 -51.333 -19.333 -91.833 -58 -121.5s-89 -44.5 -151 -44.5c-34.667 0 -70 6.66699 -106 20z" />
    <glyph glyph-name="t" unicode="t" horiz-adv-x="400" 
d="M142.5 39c-28.333 33.333 -42.501 80.999 -42.501 142.999v254h-76v92l83 6l15 146h107v-146h135v-98h-135v-253c0 -33.333 6.33301 -57.666 19 -72.999s31.667 -23 57 -23c15.333 0 33.333 4 54 12l21 -90c-40 -13.333 -76.333 -20 -109 -20
c-57.333 0 -100.166 16.667 -128.499 50z" />
    <glyph glyph-name="u" unicode="u" horiz-adv-x="610" 
d="M114.5 42.5c-27 35.667 -40.5 88.5 -40.5 158.5v333h129v-316c0 -44 6.5 -75.5 19.5 -94.5s33.833 -28.5 62.5 -28.5c22.667 0 42.667 5.5 60 16.5s36.333 29.833 57 56.5v366h128v-531h-105l-10 78h-1c-25.333 -30 -52 -52.833 -80 -68.5s-59.667 -23.5 -95 -23.5
c-56 0 -97.5 17.833 -124.5 53.5z" />
    <glyph glyph-name="v" unicode="v" horiz-adv-x="547" 
d="M17 534l129 0.000976562l83 -273l25 -87l22 -77h2c2 9.33301 10.667 39.666 26 90.999l20 72l83 274h124l-180 -532h-150z" />
    <glyph glyph-name="w" unicode="w" horiz-adv-x="821" 
d="M29 534h128l63 -273c6 -25.333 16 -77.666 30 -156.999h1c11.333 53.333 23.333 105.666 36 156.999l69 273h116l70 -273l24 -96l14 -61h1l14 71c9.33301 49.333 15 78 17 86l62 273h119l-134 -532h-153l-61 245l-14 64l-9 41.5l-11 51.5h-1
c-3.33301 -14 -6 -27.333 -8 -40l-26 -118l-59 -244h-149z" />
    <glyph glyph-name="x" unicode="x" horiz-adv-x="530" 
d="M187 280l-156.001 254h136l58 -99c20.667 -38.667 37.667 -69.334 51 -92.001c16 30 30.667 60.667 44 92l49 99h132l-157 -269l168 -263h-137l-63 104l-56 95h-1c-7.33301 -13.333 -17.666 -33.666 -30.999 -60.999l-18 -34l-54 -104h-132z" />
    <glyph glyph-name="y" unicode="y" horiz-adv-x="545" 
d="M49 -203l22.999 96c18.667 -4.66699 31.667 -7 39 -7c49.333 0 84.333 30.333 105 91l10 35l-209 525h129l90 -257l15 -46c18 -52.667 29.333 -88.667 34 -108h1c8.66699 34.667 23 86 43 154l77 257h124l-192 -554c-25.333 -68 -54.666 -117.667 -87.999 -149
s-77.333 -47 -132 -47c-26.667 0 -49.667 3.33301 -69 10z" />
    <glyph glyph-name="z" unicode="z" horiz-adv-x="488" 
d="M40 68l252 368h-225v98h384v-65l-253 -369h261v-98h-419v66z" />
    <glyph glyph-name="braceleft" unicode="{" horiz-adv-x="354" 
d="M253 -163c-48 0 -82.499 11.167 -103.499 33.5s-31.5 61.166 -31.5 116.499c0 24.667 2 58.334 6 101.001c0.666992 8 1.66699 22 3 42s2 38.333 2 55c0 26 -8.16699 46 -24.5 60s-39.5 21.333 -69.5 22v78c29.333 0.666992 52.333 8.16699 69 22.5s25 34.166 25 59.499
c0 20.667 -0.666992 40.667 -2 60s-2.33301 32.333 -3 39c-4 40 -6 73 -6 99c0 56 10.667 95.167 32 117.5s55.666 33.5 102.999 33.5h60v-71h-25c-25.333 0 -42.5 -6.16699 -51.5 -18.5s-13.5 -34.833 -13.5 -67.5c0 -23.333 1 -52.666 3 -87.999
c0.666992 -15.333 1.33398 -31.666 2.00098 -48.999s1 -34 1 -50c0 -38 -5.83301 -66.5 -17.5 -85.5s-30.834 -31.833 -57.501 -38.5v-4c26.667 -6.66699 45.834 -19.5 57.501 -38.5s17.5 -47.5 17.5 -85.5c0 -16 -0.333008 -32.5 -1 -49.5s-1.33398 -32.833 -2.00098 -47.5
c-2 -34.667 -3 -64.334 -3 -89.001c0 -32.667 4.5 -55.167 13.5 -67.5s26.167 -18.5 51.5 -18.5h25v-71h-60z" />
    <glyph glyph-name="bar" unicode="|" horiz-adv-x="276" 
d="M95 -268v1091h87v-1091h-87z" />
    <glyph glyph-name="braceright" unicode="}" horiz-adv-x="354" 
d="M43 -92l25.001 -0.00488281c25.333 0 42.5 6.16699 51.5 18.5s13.5 34.833 13.5 67.5l-2 89c-2 37.333 -3 69.666 -3 96.999c0 38.667 5.66699 67.334 17 86.001s30.333 31.334 57 38.001v4c-26.667 6.66699 -45.667 19.334 -57 38.001s-17 47.334 -17 86.001
c0 28.667 1 62 3 100l2 87c0 32.667 -4.5 55.167 -13.5 67.5s-26.167 18.5 -51.5 18.5h-25v71h60c47.333 0 81.666 -11.167 102.999 -33.5s32 -61.5 32 -117.5c0 -32.667 -1.66699 -65.667 -5 -99c-0.666992 -6.66699 -1.66699 -19.667 -3 -39s-2 -39.333 -2 -60
c0 -25.333 8.16699 -45.166 24.5 -59.499s39.5 -21.833 69.5 -22.5v-78c-30 -0.666992 -53.167 -8 -69.5 -22s-24.5 -34 -24.5 -60c0 -29.333 1.66699 -61.666 5 -96.999c0.666992 -7.33301 1.66699 -21.333 3 -42s2 -40.334 2 -59.001
c0 -55.333 -10.5 -94.166 -31.5 -116.499s-55.5 -33.5 -103.5 -33.5h-60v71z" />
    <glyph glyph-name="asciitilde" unicode="~" horiz-adv-x="560" 
d="M319 277.5c-16.667 7.66699 -33.3301 18.167 -49.9971 31.5c-20 15.333 -35.833 26.333 -47.5 33s-24.167 10 -37.5 10c-30 0 -57 -21.333 -81 -64l-69 51c44 71.333 94.667 107 152 107c20 0 37.833 -3.66699 53.5 -11s33.5 -18 53.5 -32
c19.333 -15.333 34.666 -26.333 45.999 -33s23.666 -10 36.999 -10c30.667 0 57.667 21.333 81 64l69 -53c-42.667 -70 -93.334 -105 -152.001 -105c-20 0 -38.333 3.83301 -55 11.5z" />
    <glyph glyph-name="exclamdown" unicode="&#xa1;" horiz-adv-x="343" 
d="M257 597c16.667 -16.667 25 -36.999 25 -60.999c0 -24.667 -8.33301 -45.334 -25 -62.001s-37 -25 -61 -25s-44.333 8.5 -61 25.5s-25 37.5 -25 61.5c0 24.667 8.33301 45.167 25 61.5s37 24.5 61 24.5s44.333 -8.33301 61 -25zM148 369.001l96 14l20 -496l-112 -24z" />
    <glyph glyph-name="cent" unicode="&#xa2;" horiz-adv-x="559" 
d="M293 -40l0.00195312 108.001c-69.333 8 -124.333 35.333 -165 82c-42 48 -63 110.667 -63 188c0 36.667 5.66699 70.667 17 102s27.333 58 48 80c41.333 45.333 95.666 73.666 162.999 84.999v109h74v-106c54.667 -3.33301 101 -24 139 -62l-60 -80
c-26 22 -52.333 34.333 -79 37v-331c33.333 3.33301 64.666 18 93.999 44l54 -82c-44.667 -38.667 -94 -61 -148 -67v-107h-74zM218.002 237.001c17.333 -27.333 42.333 -46 75 -56v312c-32 -10 -56.833 -28.5 -74.5 -55.5s-26.5 -60.167 -26.5 -99.5
c0 -40 8.66699 -73.667 26 -101z" />
    <glyph glyph-name="sterling" unicode="&#xa3;" horiz-adv-x="559" 
d="M54 0l-0.000976562 80c36 17.333 64.333 41.666 85 72.999s31 67 31 107c0 12 -1.66699 26.333 -5 43h-109v77l74 5h12c-8 26 -13.667 46.5 -17 61.5s-5 30.5 -5 46.5c0 64.667 20.667 117 62 157c40.667 38.667 93.334 58 158.001 58c38.667 0 72.5 -7.33301 101.5 -22
s55.167 -36 78.5 -64l-72 -72c-14 16.667 -28.667 29.334 -44 38.001s-33 13 -53 13c-33.333 0 -59.333 -9.83301 -78 -29.5s-28 -47.5 -28 -83.5c0 -28 6 -62.333 18 -103h167v-82h-149c2.66699 -13.333 4 -28.333 4 -45c0 -30 -4.5 -56 -13.5 -78s-23.5 -44 -43.5 -66v-4
h293v-110h-467z" />
    <glyph glyph-name="currency" unicode="&#xa4;" horiz-adv-x="560" 
d="M24 166l67.999 69c-25.333 34.667 -38 75.667 -38 123c0 46.667 12.333 87.667 37 123l-67 69l66 68l75 -77c33.333 22 72 33 116 33c42 0 80.333 -11 115 -33l75 77l66 -68l-69 -69c25.333 -33.333 38 -74.333 38 -123c0 -46 -12.667 -87 -38 -123l69 -69l-66 -67
l-76 76c-35.333 -22 -73.333 -33 -114 -33c-41.333 0 -79.666 11 -114.999 33l-76 -76zM359.499 270c20.333 23.333 30.5 52.666 30.5 87.999s-10.333 64.833 -31 88.5s-46.667 35.5 -78 35.5c-32.667 0 -59.167 -11.833 -79.5 -35.5s-30.5 -53.167 -30.5 -88.5
s10.333 -64.666 31 -87.999s47 -35 79 -35s58.167 11.667 78.5 35z" />
    <glyph glyph-name="yen" unicode="&#xa5;" horiz-adv-x="561" 
d="M215 0l0.000976562 166h-171v65h171v66h-171v65h142l-168 332h134l68 -163c9.33301 -21.333 16 -37.333 20 -48l10 -24c10.667 -28.667 20.667 -52.667 30 -72h4c7.33301 15.333 17.666 39.666 30.999 72.999c8 20.667 17.667 44.334 29 71.001l68 163h131l-168 -332h142
v-65h-172v-66h172v-65h-172v-166h-130z" />
    <glyph glyph-name="brokenbar" unicode="&#xa6;" horiz-adv-x="276" 
d="M95 335v488h87v-488h-87zM95 -268v500h87v-500h-87z" />
    <glyph glyph-name="section" unicode="&#xa7;" horiz-adv-x="559" 
d="M146 -58.5c-35.333 15 -64.6699 36.167 -88.0029 63.5l76 68c37.333 -37.333 79 -56 125 -56c24.667 0 43.834 5.33301 57.501 16s20.5 25 20.5 43c0 19.333 -10.667 36 -32 50s-55.666 31.667 -102.999 53c-4 1.33301 -10 4 -18 8c-93.333 40.667 -140 100 -140 178
c0 29.333 7.83301 56 23.5 80s37.5 44.333 65.5 61c-21.333 24.667 -32 54.667 -32 90c0 47.333 16.5 85.166 49.5 113.499s76.833 42.5 131.5 42.5c66 0 127.667 -22.333 185 -67l-61 -82c-40 34 -79 51 -117 51c-24 0 -41.833 -4.66699 -53.5 -14
s-17.5 -22.666 -17.5 -39.999c0 -12.667 7.16699 -25.167 21.5 -37.5s30.333 -23 48 -32s47.167 -23.167 88.5 -42.5c47.333 -21.333 82.5 -45.5 105.5 -72.5s34.5 -61.5 34.5 -103.5c0 -32 -7.66699 -59.5 -23 -82.5s-37.666 -43.5 -66.999 -61.5
c19.333 -26 29 -54.667 29 -86c0 -50 -18.5 -89.667 -55.5 -119s-83.833 -44 -140.5 -44c-40 0 -77.667 7.5 -113 22.5zM393.996 256.5c8 12.333 12 27.1689 12 44.502c0 19.333 -6 36.166 -18 50.499s-28.667 27.166 -50 38.499c-18 10 -39.333 20 -64 30
c-5.33301 2 -15.333 6.16699 -30 12.5s-27.667 12.833 -39 19.5c-17.333 -10.667 -30.166 -22 -38.499 -34s-12.5 -26.333 -12.5 -43c0 -19.333 6 -35.833 18 -49.5s29 -26.5 51 -38.5c4.66699 -2.66699 25 -12 61 -28c29.333 -12 53.666 -23.333 72.999 -34
c16.667 8.66699 29 19.167 37 31.5z" />
    <glyph glyph-name="copyright" unicode="&#xa9;" horiz-adv-x="814" 
d="M270 15c-43.333 17.333 -81 41.665 -113 72.998c-34 32.667 -60.333 71.5 -79 116.5s-28 94.833 -28 149.5s9.5 104.334 28.5 149.001s45.167 83 78.5 115c32 30.667 69.667 54.334 113 71.001s89 25 137 25s93.5 -8.33301 136.5 -25s80.833 -40.334 113.5 -71.001
c33.333 -32 59.333 -70.5 78 -115.5s28 -94.5 28 -148.5c0 -54.667 -9.33301 -104.5 -28 -149.5s-44.667 -83.833 -78 -116.5c-32.667 -31.333 -70.5 -55.666 -113.5 -72.999s-88.5 -26 -136.5 -26s-93.667 8.66699 -137 26zM521 68.999
c35.333 14.667 66.335 35.666 93.002 62.999c27.333 27.333 48.5 59.833 63.5 97.5s22.5 79.167 22.5 124.5c0 44.667 -7.5 85.834 -22.5 123.501s-36.167 70.167 -63.5 97.5c-26.667 26.667 -57.834 47.167 -93.501 61.5s-73.5 21.5 -113.5 21.5
s-77.833 -7.16699 -113.5 -21.5s-66.834 -34.833 -93.501 -61.5s-47.5 -59 -62.5 -97s-22.5 -79.333 -22.5 -124c0 -45.333 7.33301 -86.833 22 -124.5s35.667 -70.167 63 -97.5c26.667 -27.333 57.667 -48.333 93 -63s73.333 -22 114 -22s78.667 7.33301 114 22z
M272.002 195.998c-39.333 39.333 -58.998 91.667 -58.998 157c0 30.667 5.66699 59 17 85s26.666 48.333 45.999 67c18.667 18 40.5 31.833 65.5 41.5s51.167 14.5 78.5 14.5c29.333 0 55 -5.5 77 -16.5s43.333 -26.5 64 -46.5l-51 -56c-13.333 14 -26.5 24.167 -39.5 30.5
s-27.5 9.5 -43.5 9.5c-36.667 0 -65.5 -12 -86.5 -36s-31.5 -55 -31.5 -93c0 -42 10.167 -75.167 30.5 -99.5s47.833 -36.5 82.5 -36.5c19.333 0 36.5 3.5 51.5 10.5s30.5 17.5 46.5 31.5l44 -62c-24 -19.333 -47.333 -34 -70 -44s-48 -15 -76 -15
c-58.667 0 -107.334 19.333 -146.001 58z" />
    <glyph glyph-name="guillemotleft" unicode="&#xab;" horiz-adv-x="545" 
d="M100 63.5c-9.33301 45 -14.001 91.167 -14.001 138.5c0 46.667 4.66699 93 14 139s25 96 47 150l89 -41c-33.333 -86 -50 -168.667 -50 -248c0 -80 17 -162.667 51 -248l-91 -38c-21.333 53.333 -36.666 102.5 -45.999 147.5zM305.999 63.5
c-9.33301 45 -14.001 91.167 -14.001 138.5c0 46.667 4.66699 93 14 139s25 96 47 150l89 -41c-34 -88 -51 -170.667 -51 -248s17 -160 51 -248l-90 -38c-21.333 53.333 -36.666 102.5 -45.999 147.5z" />
    <glyph glyph-name="logicalnot" unicode="&#xac;" horiz-adv-x="559" 
d="M426 106v206h-389v93h487v-299h-98z" />
    <glyph glyph-name="registered" unicode="&#xae;" horiz-adv-x="484" 
d="M134 366.5c-32 19 -57.332 45.167 -75.999 78.5s-28 70 -28 110c0 40.667 9.33301 77.667 28 111s44.167 59.5 76.5 78.5s68.166 28.5 107.499 28.5c40 0 76.167 -9.5 108.5 -28.5s57.666 -45.167 75.999 -78.5s27.5 -70.333 27.5 -111
c0 -41.333 -9.33301 -78.5 -28 -111.5s-44.167 -58.833 -76.5 -77.5s-68.166 -28 -107.499 -28c-40 0 -76 9.5 -108 28.5zM356.501 432.5c29.667 31.667 44.498 72.5 44.498 122.5c0 33.333 -6.83301 63 -20.5 89s-32.5 46.167 -56.5 60.5s-51.333 21.5 -82 21.5
c-31.333 0 -59 -7.5 -83 -22.5s-42.667 -35.5 -56 -61.5s-20 -55 -20 -87c0 -50 14.833 -90.833 44.5 -122.5s67.834 -47.5 114.501 -47.5s84.834 15.833 114.501 47.5zM157.999 667h91c26 0 47 -6 63 -18s24 -30 24 -54c0 -13.333 -3.5 -25.333 -10.5 -36
s-16.833 -18.667 -29.5 -24l48 -87h-59l-35 71h-38v-71h-54v219zM236.999 559c13.333 0 23.333 3 30 9s10 14 10 24c0 21.333 -12.667 32 -38 32h-27v-65h25z" />
    <glyph glyph-name="degree" unicode="&#xb0;" horiz-adv-x="380" 
d="M86 484c-28.667 27.333 -43 62.665 -43 105.998c0 44.667 14.333 81.334 43 110.001c28.667 27.333 63.667 41 105 41c20 0 39.167 -3.5 57.5 -10.5s34.166 -17.167 47.499 -30.5c28.667 -28.667 43 -65.334 43 -110.001c0 -43.333 -14.333 -78.666 -43 -105.999
c-13.333 -13.333 -29.166 -23.666 -47.499 -30.999s-37.5 -11 -57.5 -11c-40.667 0 -75.667 14 -105 42zM246.5 530.499c14.333 15.667 21.5 35.5 21.5 59.5c0 25.333 -7 45.833 -21 61.5s-32.667 23.5 -56 23.5c-22.667 0 -41.167 -7.83301 -55.5 -23.5
s-21.5 -36.167 -21.5 -61.5c0 -24 7.16699 -43.833 21.5 -59.5s32.833 -23.5 55.5 -23.5s41.167 7.83301 55.5 23.5z" />
    <glyph glyph-name="plusminus" unicode="&#xb1;" horiz-adv-x="559" 
d="M231 158v168h-194v93h194v194h97v-194h196v-93h-196v-168h-97zM37 0v93h487v-93h-487z" />
    <glyph glyph-name="paragraph" unicode="&#xb6;" horiz-adv-x="655" 
d="M321 230c-82.667 0 -148.333 20.333 -197 61c-54 43.333 -81 105 -81 185c0 84.667 26.333 147 79 187c46 34.667 110 52 192 52h48v-485h-41zM422.001 -85v800h130v-800h-130z" />
    <glyph glyph-name="periodcentered" unicode="&#xb7;" horiz-adv-x="324" 
d="M104 286.5c-17.333 17 -26 37.833 -26 62.5c0 25.333 8.5 46.5 25.5 63.5s37.833 25.5 62.5 25.5s45.5 -8.5 62.5 -25.5s25.5 -38.167 25.5 -63.5c0 -24.667 -8.5 -45.5 -25.5 -62.5s-37.833 -25.5 -62.5 -25.5c-24 0 -44.667 8.5 -62 25.5z" />
    <glyph glyph-name="guillemotright" unicode="&#xbb;" horiz-adv-x="545" 
d="M102 -46c34 88 51 170.665 51 247.998c0 76.667 -16.667 159.334 -50 248.001l88 41c22 -53.333 37.667 -103 47 -149s14 -92.667 14 -140s-4.5 -93.666 -13.5 -138.999s-24.167 -94.333 -45.5 -147zM308 -46.002c34 88 50.999 170.669 50.999 248.002s-17 160 -51 248
l89 41c22 -54.667 37.833 -104.834 47.5 -150.501s14.5 -91.834 14.5 -138.501s-4.66699 -92.5 -14 -137.5s-24.666 -94.5 -45.999 -148.5z" />
    <glyph glyph-name="questiondown" unicode="&#xbf;" horiz-adv-x="485" 
d="M314.5 520.5c15.667 -16.333 23.5 -36.833 23.5 -61.5c0 -26 -7.66699 -47.167 -23 -63.5s-35 -24.5 -59 -24.5s-44 8.16699 -60 24.5s-24 37.5 -24 63.5c0 24.667 8 45.167 24 61.5s36 24.5 60 24.5c23.333 0 42.833 -8.16699 58.5 -24.5zM313 296
c1.33301 -12 2 -21 2 -27c0 -27.333 -5.83301 -54.333 -17.5 -81s-27.834 -51.334 -48.501 -74.001l-31.5 -37.5c-17 -20.333 -29.167 -38.166 -36.5 -53.499s-11 -30 -11 -44c0 -26 7.83301 -46.833 23.5 -62.5s37.167 -23.5 64.5 -23.5c38.667 0 75.334 19 110.001 57
l73 -67c-26 -30 -55.667 -53.5 -89 -70.5s-70 -25.5 -110 -25.5c-60.667 0 -108.667 15.833 -144 47.5s-53 76.5 -53 134.5c0 28.667 6.66699 55.167 20 79.5s34 51.833 62 82.5c24.667 27.333 43 52.333 55 75s18 46.667 18 72c0 8 -0.333008 14 -1 18h114z" />
    <glyph glyph-name="multiply" unicode="&#xd7;" horiz-adv-x="559" 
d="M119 127l-67 67l161 163l-161 164l67 67l161 -164l161 164l66 -67l-161 -164l161 -163l-66 -67l-161 164z" />
    <glyph glyph-name="divide" unicode="&#xf7;" horiz-adv-x="559" 
d="M226 502.5c-14 13.667 -21 31.167 -21 52.5s7 38.833 21 52.5s32 20.5 54 20.5s40.167 -6.83301 54.5 -20.5s21.5 -31.167 21.5 -52.5s-7.16699 -38.833 -21.5 -52.5s-32.5 -20.5 -54.5 -20.5s-40 6.83301 -54 20.5zM37 312v94h487v-94h-487zM226 110
c-14 13.333 -21 30.666 -21 51.999s7 38.833 21 52.5s32 20.5 54 20.5s40.167 -6.83301 54.5 -20.5s21.5 -31.167 21.5 -52.5s-7.16699 -38.666 -21.5 -51.999s-32.5 -20 -54.5 -20s-40 6.66699 -54 20z" />
    <glyph glyph-name="uni060C" unicode="&#x60c;" horiz-adv-x="301" 
d="M208 129c16 -16 24 -35.3291 24 -57.9961s-7.83301 -41.834 -23.5 -57.501s-34.834 -23.5 -57.501 -23.5c-27.333 0 -49.333 9.33301 -66 28s-25 43.667 -25 75s7.83301 67.166 23.5 107.499s36.5 78.166 62.5 113.499l58 -57c-16 -21.333 -28.667 -39.833 -38 -55.5
s-16.666 -31.834 -21.999 -48.501h7c22 0 41 -8 57 -24z" />
    <glyph glyph-name="uni061B" unicode="&#x61b;" horiz-adv-x="301" 
d="M85 272c-16.667 18.667 -24.999 43.6689 -24.999 75.002s7.83301 67.166 23.5 107.499s36.5 78.166 62.5 113.499l58 -57c-15.333 -20.667 -27.833 -39.167 -37.5 -55.5s-17.167 -32.833 -22.5 -49.5h7c22 0 41 -7.83301 57 -23.5s24 -35.167 24 -58.5
c0 -22 -7.83301 -40.833 -23.5 -56.5s-34.834 -23.5 -57.501 -23.5c-27.333 0 -49.333 9.33301 -66 28zM220.501 139.502c17 -17 25.5 -37.833 25.5 -62.5s-8.5 -45.667 -25.5 -63s-37.833 -26 -62.5 -26c-24 0 -44.667 8.5 -62 25.5s-26 38.167 -26 63.5
s8.5 46.333 25.5 63s37.833 25 62.5 25s45.5 -8.5 62.5 -25.5z" />
    <glyph glyph-name="uni061F" unicode="&#x61f;" horiz-adv-x="549" 
d="M388 563c0 32 -10 56.498 -30 73.498s-47 25.5 -81 25.5c-34.667 0 -61 -8.66699 -79 -26s-27 -40.666 -27 -69.999c0 -24 7 -44.833 21 -62.5s38.667 -41.834 74 -72.501l20 -18c22.667 -20.667 39.334 -39.5 50.001 -56.5s17.5 -34.167 20.5 -51.5s4.5 -40.333 4.5 -69
l-92 -14c-0.666992 24 -2 41.667 -4 53s-7 22.833 -15 34.5s-21.333 26.834 -40 45.501c-10.667 10.667 -23.667 22 -39 34c-22 18.667 -39.667 35.334 -53 50.001s-24.5 33.5 -33.5 56.5s-13.5 50.5 -13.5 82.5c0 37.333 8.83301 71.333 26.5 102s42.167 55 73.5 73
s66.666 27 105.999 27c62.667 0 112 -17.167 148 -51.5s54 -80.833 54 -139.5c0 -15.333 -1.66699 -33 -5 -53l-89 -2c2 10 3 19.667 3 29zM251 13.498c-17.333 17 -26.001 38.167 -26.001 63.5c0 24.667 8.5 45.5 25.5 62.5s38.167 25.5 63.5 25.5
c24.667 0 45.334 -8.5 62.001 -25.5s25 -37.833 25 -62.5s-8.5 -45.667 -25.5 -63s-37.5 -26 -61.5 -26c-24.667 0 -45.667 8.5 -63 25.5z" />
    <glyph glyph-name="uni0621" unicode="&#x621;" horiz-adv-x="600" 
d="M65 94l129.998 45.001c-19.333 34 -32.666 64.667 -39.999 92s-10.333 53.666 -9 78.999c1.33301 46.667 19.333 82.167 54 106.5s79.334 36.5 134.001 36.5c18.667 0 44.334 -3 77.001 -9l-22 -107l-25 3c-18.667 3.33301 -35.334 5 -50.001 5c-32 0 -60 -5 -84 -15
c0 -56 19.333 -109.667 58 -161l231 72l17 -108l-453 -146z" />
    <glyph glyph-name="uni0622" unicode="&#x622;" horiz-adv-x="282" 
d="M220 687c-36 0.666992 -73.3311 4 -111.998 10c-22.667 2.66699 -36.334 4 -41.001 4c-12.667 0 -21.834 -3 -27.501 -9s-10.5 -18.667 -14.5 -38l-75 19c8.66699 35.333 18 62.5 28 81.5s21.833 32.333 35.5 40s31.167 11.5 52.5 11.5c13.333 0 32.333 -1.66699 57 -5
c39.333 -5.33301 78 -8.33301 116 -9l56 -2l-23 -103h-52zM188.002 0l-93 -13l-15 603l103 22z" />
    <glyph glyph-name="uni0623" unicode="&#x623;" horiz-adv-x="253" 
d="M-81 744l93.999 33c-25.333 46 -37 87.333 -35 124c1.33301 32.667 14 58 38 76s54.667 27 92 27c20 0 40.667 -2 62 -6l-15 -79c-21.333 4 -40.666 6 -57.999 6c-23.333 0 -42.333 -3.66699 -57 -11c0 -38.667 14 -77 42 -115l166 52l12 -80l-328 -105zM171.999 0
l-92 -13l-15 603l102 22z" />
    <glyph glyph-name="uni0624" unicode="&#x624;" horiz-adv-x="513" 
d="M59 536l92.999 33c-23.333 44 -35 83.333 -35 118s12 61.5 36 80.5s55.667 28.5 95 28.5c20.667 0 41.334 -2.33301 62.001 -7l-16 -78c-18.667 3.33301 -35 5 -49 5c-28 1.33301 -49.667 -2 -65 -10c0 -40 13.667 -78.333 41 -115l166 51l12 -79l-327 -105z
M354.999 338.5c26 -29 44.3311 -64.833 54.998 -107.5s16 -86.334 16 -131.001c0 -83.333 -26.167 -158 -78.5 -224s-128.5 -120.333 -228.5 -163l-67 107c64 23.333 119.5 51.5 166.5 84.5s81.5 67.833 103.5 104.5c-28 -7.33301 -60.333 -11 -97 -11
c-28.667 0 -53.667 2.33301 -75 7c-10.667 2.66699 -19.5 7.16699 -26.5 13.5s-15.167 16.5 -24.5 30.5c-9.33301 13.333 -15.666 24.833 -18.999 34.5s-4.66602 19.834 -3.99902 30.501c3.33301 72.667 19 135.5 47 188.5s71 79.5 129 79.5c42.667 0 77 -14.5 103 -43.5z
M242.997 115c37.333 0 68.333 2.33301 93 7c0 95.333 -29.667 143 -89 143c-26 0 -46.333 -12.167 -61 -36.5s-22.334 -59.833 -23.001 -106.5c16.667 -4.66699 43.334 -7 80.001 -7z" />
    <glyph glyph-name="uni0625" unicode="&#x625;" horiz-adv-x="262" 
d="M170 743l5 -743l-92 -13l-18 733zM-40 -350l92.998 33.001c-24.667 46 -36 87.333 -34 124c0.666992 34 14.334 60 41.001 78s60.334 26 101.001 24c16.667 0 33.334 -2 50.001 -6l-15 -78c-5.33301 0.666992 -12.833 1.66699 -22.5 3s-18.834 2 -27.501 2
c-26 1.33301 -47.667 -2 -65 -10c0 -38.667 14 -77.334 42 -116.001l166 52l12 -79l-328 -105z" />
    <glyph glyph-name="uni0626" unicode="&#x626;" horiz-adv-x="801" 
d="M38 473l93 33c-23.333 44 -35 83.333 -35 118s12 61.5 36 80.5s55.667 28.5 95 28.5c19.333 0 40 -2 62 -6l-16 -79c-20 4 -39.333 6 -58 6c-23.333 0 -42.333 -3.66699 -57 -11c0 -38.667 14 -77 42 -115l166 52l12 -80l-327 -105zM140 -182.5
c-36 37.667 -54.001 83.8311 -54.001 138.498c0 38.667 16.333 147 49 325l83 -18c-22.667 -125.333 -35.667 -217.666 -39 -276.999c-2 -35.333 15 -59.166 51 -71.499s77.333 -18.5 124 -18.5c53.333 0 99.833 4.33301 139.5 13s72.834 23.667 99.501 45
c1.33301 8.66699 2 20 2 34c0 14.667 -2.33301 25 -7 31s-13 10.333 -25 13l-39 6c-41.333 6 -71.166 11.167 -89.499 15.5s-32.5 12 -42.5 23s-15 27.167 -15 48.5c0 52.667 10.167 105.667 30.5 159s47 97.333 80 132s67.5 52 103.5 52c27.333 0 52 -8.5 74 -25.5
s44.333 -43.833 67 -80.5l-58 -59c-27.333 28 -54.333 42 -81 42c-30 0 -55.833 -16.667 -77.5 -50s-36.167 -75 -43.5 -125c59.333 -8 102.166 -15.5 128.499 -22.5s48 -21.5 65 -43.5s25.5 -56 25.5 -102c0 -54 -13.333 -97.667 -40 -131
c-28 -35.333 -68.833 -62.5 -122.5 -81.5s-117.167 -28.5 -190.5 -28.5c-96 0 -162 18.833 -198 56.5z" />
    <glyph glyph-name="uni0627" unicode="&#x627;" horiz-adv-x="262" 
d="M170 743l5 -743l-92 -13l-18 733z" />
    <glyph glyph-name="uni0628" unicode="&#x628;" horiz-adv-x="902" 
d="M813 162c0 -29.333 -5.66699 -54.168 -17 -74.501s-29.333 -36.5 -54 -48.5c-30 -15.333 -71 -26.5 -123 -33.5s-116.333 -10.5 -193 -10.5c-74.667 0 -136.5 5.5 -185.5 16.5s-86.833 30.833 -113.5 59.5s-40 68.667 -40 120c0 15.333 1.66699 35.333 5 60l26 155
l83 -17l-23 -138c-2.66699 -10 -4 -20 -4 -30c0 -26.667 8.66699 -46.5 26 -59.5s42.333 -21.5 75 -25.5s79 -6 139 -6c74.667 0 136.167 1.83301 184.5 5.5s88.833 10.167 121.5 19.5l-23 230l103 21c8.66699 -87.333 13 -168.666 13 -243.999zM434 -118.002l98 -82
l-82 -97l-97 82z" />
    <glyph glyph-name="uni0629" unicode="&#x629;" horiz-adv-x="532" 
d="M401 650l-75 -88l-88 74l74 88zM235 647l-74 -89l-89 75l74 88zM130 26.5c-29.333 24.333 -44.001 59.4971 -44.001 105.497c0 34 8.83301 68.167 26.5 102.5s43.834 71.5 78.501 111.5l-43 30l64 95c80.667 -52 139 -105.667 175 -161s56 -120.666 60 -195.999
c0.666992 -11.333 -0.833008 -21.666 -4.5 -30.999s-10.5 -21 -20.5 -35c-10 -13.333 -17.5 -22.666 -22.5 -27.999s-9.83301 -9 -14.5 -11c-38 -12.667 -84.333 -19 -139 -19c-48 0 -86.667 12.167 -116 36.5zM358.999 130.997
c-3.33301 28.667 -11.999 57.168 -25.999 85.501s-38.667 55.166 -74 80.499c-20.667 -20 -39.334 -44 -56.001 -72s-25 -49.667 -25 -65s5.5 -25.5 16.5 -30.5s31.833 -7.5 62.5 -7.5c43.333 0 77.333 3 102 9z" />
    <glyph glyph-name="uni062A" unicode="&#x62a;" horiz-adv-x="902" 
d="M559 439l-89 75l74 87l89 -73zM393 436l-89 74l74 88l89 -73zM813 162c0 -29.333 -5.66699 -54.168 -17 -74.501s-29.333 -36.5 -54 -48.5c-30 -15.333 -71 -26.5 -123 -33.5s-116.333 -10.5 -193 -10.5c-74.667 0 -136.5 5.5 -185.5 16.5s-86.833 30.833 -113.5 59.5
s-40 68.667 -40 120c0 15.333 1.66699 35.333 5 60l26 155l83 -17l-23 -138c-2.66699 -10 -4 -20 -4 -30c0 -26.667 8.66699 -46.5 26 -59.5s42.333 -21.5 75 -25.5s79 -6 139 -6c74.667 0 136.167 1.83301 184.5 5.5s88.833 10.167 121.5 19.5l-23 230l103 21
c8.66699 -87.333 13 -168.666 13 -243.999z" />
    <glyph glyph-name="uni062B" unicode="&#x62b;" horiz-adv-x="902" 
d="M457 592l-86 72l72 86l87 -72zM528 600l87 -72l-73 -86l-86 72zM381 439l-87 72l72 87l87 -73zM813 162c0 -29.333 -5.66699 -54.168 -17 -74.501s-29.333 -36.5 -54 -48.5c-30 -15.333 -71 -26.5 -123 -33.5s-116.333 -10.5 -193 -10.5
c-74.667 0 -136.5 5.5 -185.5 16.5s-86.833 30.833 -113.5 59.5s-40 68.667 -40 120c0 15.333 1.66699 35.333 5 60l26 155l83 -17l-23 -138c-2.66699 -10 -4 -20 -4 -30c0 -26.667 8.66699 -46.5 26 -59.5s42.333 -21.5 75 -25.5s79 -6 139 -6
c74.667 0 136.167 1.83301 184.5 5.5s88.833 10.167 121.5 19.5l-23 230l103 21c8.66699 -87.333 13 -168.666 13 -243.999z" />
    <glyph glyph-name="uni062C" unicode="&#x62c;" horiz-adv-x="777" 
d="M666 264c-47.333 -5.33301 -102.665 -22 -165.998 -50s-122.833 -62 -178.5 -102s-96.834 -79.667 -123.501 -119c-4.66699 -24 -7 -48.333 -7 -73c0 -67.333 18.5 -117 55.5 -149s93.5 -48 169.5 -48h216l-25 -136h-201c-76 0 -137.833 14.5 -185.5 43.5
s-82 67 -103 114s-31.5 99.5 -31.5 157.5c0 92.667 33.667 172.167 101 238.5s151.666 121.166 252.999 164.499c16 7.33301 25.333 11.333 28 12c-21.333 5.33301 -60 16.666 -116 33.999c-61.333 20 -102.333 30 -123 30c-28.667 0 -47.334 -21 -56.001 -63l-82 16
c11.333 50.667 27.333 89.834 48 117.501s49.667 41.5 87 41.5c20.667 0 44.334 -3.5 71.001 -10.5s59 -16.833 97 -29.5c58 -21.333 111.167 -38.166 159.5 -50.499s94.5 -18.833 138.5 -19.5zM355.001 -59l76 93l93 -78l-78 -91z" />
    <glyph glyph-name="uni062D" unicode="&#x62d;" horiz-adv-x="777" 
d="M500 214c-63.333 -28 -122.832 -62 -178.499 -102s-96.834 -79.667 -123.501 -119c-4.66699 -24 -7 -48.333 -7 -73c0 -67.333 18.5 -117 55.5 -149s93.5 -48 169.5 -48h216l-25 -136h-201c-76 0 -137.833 14.5 -185.5 43.5s-82 67 -103 114s-31.5 99.5 -31.5 157.5
c0 92.667 33.667 172.167 101 238.5s151.666 121.166 252.999 164.499c16 7.33301 25.333 11.333 28 12c-21.333 5.33301 -60 16.666 -116 33.999c-61.333 20 -102.333 30 -123 30c-28.667 0 -47.334 -21 -56.001 -63l-82 16c11.333 50.667 27.333 89.834 48 117.501
s49.667 41.5 87 41.5c20.667 0 44.334 -3.5 71.001 -10.5s59 -16.833 97 -29.5c58 -21.333 111.167 -38.166 159.5 -50.499s94.5 -18.833 138.5 -19.5l-26 -119c-47.333 -5.33301 -102.666 -22 -165.999 -50z" />
    <glyph glyph-name="uni062E" unicode="&#x62e;" horiz-adv-x="777" 
d="M435 584l-97 82l82 98l97 -82zM500 214c-63.333 -28 -122.832 -62 -178.499 -102s-96.834 -79.667 -123.501 -119c-4.66699 -24 -7 -48.333 -7 -73c0 -67.333 18.5 -117 55.5 -149s93.5 -48 169.5 -48h216l-25 -136h-201c-76 0 -137.833 14.5 -185.5 43.5
s-82 67 -103 114s-31.5 99.5 -31.5 157.5c0 92.667 33.667 172.167 101 238.5s151.666 121.166 252.999 164.499c16 7.33301 25.333 11.333 28 12c-21.333 5.33301 -60 16.666 -116 33.999c-61.333 20 -102.333 30 -123 30c-28.667 0 -47.334 -21 -56.001 -63l-82 16
c11.333 50.667 27.333 89.834 48 117.501s49.667 41.5 87 41.5c20.667 0 44.334 -3.5 71.001 -10.5s59 -16.833 97 -29.5c58 -21.333 111.167 -38.166 159.5 -50.499s94.5 -18.833 138.5 -19.5l-26 -119c-47.333 -5.33301 -102.666 -22 -165.999 -50z" />
    <glyph glyph-name="uni062F" unicode="&#x62f;" horiz-adv-x="617" 
d="M482.5 319c31.667 -62.667 47.4971 -121.332 47.4971 -175.999c0 -41.333 -11.333 -73.333 -34 -96c-20 -20 -49 -35.167 -87 -45.5s-84 -15.5 -138 -15.5c-48 0 -85.167 4.66699 -111.5 14s-45.166 25.333 -56.499 48s-17 54.667 -17 96c0 20 0.666992 35.667 2 47
l85 -6l-1 -16c0 -15.333 2.66699 -26.333 8 -33s14.5 -10.834 27.5 -12.501s35.833 -2.5 68.5 -2.5c24.667 0 52.834 1.5 84.501 4.5s57.5 7.83301 77.5 14.5c-2.66699 44.667 -19 89.667 -49 135s-72.333 93.333 -127 144l70 93c68.667 -66 118.834 -130.333 150.501 -193z
" />
    <glyph glyph-name="uni0630" unicode="&#x630;" horiz-adv-x="617" 
d="M303 625l-97 83l81 97l98 -82zM482.5 319c31.667 -62.667 47.4971 -121.332 47.4971 -175.999c0 -41.333 -11.333 -73.333 -34 -96c-20 -20 -49 -35.167 -87 -45.5s-84 -15.5 -138 -15.5c-48 0 -85.167 4.66699 -111.5 14s-45.166 25.333 -56.499 48s-17 54.667 -17 96
c0 20 0.666992 35.667 2 47l85 -6l-1 -16c0 -15.333 2.66699 -26.333 8 -33s14.5 -10.834 27.5 -12.501s35.833 -2.5 68.5 -2.5c24.667 0 52.834 1.5 84.501 4.5s57.5 7.83301 77.5 14.5c-2.66699 44.667 -19 89.667 -49 135s-72.333 93.333 -127 144l70 93
c68.667 -66 118.834 -130.333 150.501 -193z" />
    <glyph glyph-name="uni0631" unicode="&#x631;" horiz-adv-x="387" 
d="M-64 -190c82.667 38 144.33 73.334 184.997 106.001s69.334 67 86.001 103l-36 299l106 24c6.66699 -64.667 12.334 -122.167 17.001 -172.5s7 -89.5 7 -117.5c0 -69.333 -23.167 -131.833 -69.5 -187.5s-122.166 -108.834 -227.499 -159.501z" />
    <glyph glyph-name="uni0632" unicode="&#x632;" horiz-adv-x="387" 
d="M274 554l-82 -98l-97 82l81 98zM-64 -190c82.667 38 144.33 73.334 184.997 106.001s69.334 67 86.001 103l-36 299l106 24c6.66699 -64.667 12.334 -122.167 17.001 -172.5s7 -89.5 7 -117.5c0 -69.333 -23.167 -131.833 -69.5 -187.5
s-122.166 -108.834 -227.499 -159.501z" />
    <glyph glyph-name="uni0633" unicode="&#x633;" horiz-adv-x="1235" 
d="M1148 149c0 -50 -16.6689 -87.167 -50.002 -111.5s-73.666 -36.5 -120.999 -36.5c-56 0 -93 20.667 -111 62c-12 -21.333 -29.5 -37 -52.5 -47s-45.167 -15 -66.5 -15c-44 0 -75.667 12 -95 36c2.66699 -41.333 4 -72 4 -92c0 -39.333 -15.667 -72 -47 -98
s-71.166 -45.167 -119.499 -57.5s-98.833 -18.5 -151.5 -18.5c-94 0 -159.5 19 -196.5 57s-55.5 84 -55.5 138c0 37.333 16.333 145.666 49 324.999l83 -18c-22.667 -125.333 -35.667 -218 -39 -278c-2 -35.333 14.333 -59 49 -71s73.334 -18 116.001 -18
c96.667 0 169.667 14.333 219 43l-40 378l105 24l14 -149c2 -25.333 9.16699 -42.666 21.5 -51.999s33.166 -14 62.499 -14c39.333 0 68.333 5.66699 87 17l-4 190l95 4l5 -199c11.333 -8 29 -12 53 -12c37.333 0 69 6.33301 95 19l-24 233l105 18
c6.66699 -101.333 10 -187 10 -257z" />
    <glyph glyph-name="uni0634" unicode="&#x634;" horiz-adv-x="1235" 
d="M843 609l-86 71l73 87l86 -72zM914 617l87 -72l-73 -86l-86 72zM767 455l-87 73l72 87l87 -73zM1148 149c0 -50 -16.6689 -87.167 -50.002 -111.5s-73.666 -36.5 -120.999 -36.5c-56 0 -93 20.667 -111 62c-12 -21.333 -29.5 -37 -52.5 -47s-45.167 -15 -66.5 -15
c-44 0 -75.667 12 -95 36c2.66699 -41.333 4 -72 4 -92c0 -39.333 -15.667 -72 -47 -98s-71.166 -45.167 -119.499 -57.5s-98.833 -18.5 -151.5 -18.5c-94 0 -159.5 19 -196.5 57s-55.5 84 -55.5 138c0 37.333 16.333 145.666 49 324.999l83 -18
c-22.667 -125.333 -35.667 -218 -39 -278c-2 -35.333 14.333 -59 49 -71s73.334 -18 116.001 -18c96.667 0 169.667 14.333 219 43l-40 378l105 24l14 -149c2 -25.333 9.16699 -42.666 21.5 -51.999s33.166 -14 62.499 -14c39.333 0 68.333 5.66699 87 17l-4 190l95 4
l5 -199c11.333 -8 29 -12 53 -12c37.333 0 69 6.33301 95 19l-24 233l105 18c6.66699 -101.333 10 -187 10 -257z" />
    <glyph glyph-name="uni0635" unicode="&#x635;" horiz-adv-x="1320" 
d="M1186 380.5c32 -42.333 47.9961 -103.831 47.9961 -184.498c0 -40 -10.333 -72.667 -31 -98c-27.333 -32 -70.166 -57.333 -128.499 -76s-127.833 -28 -208.5 -28c-90.667 0 -161.667 10.667 -213 32l3 -78c0.666992 -40 -14.5 -73.333 -45.5 -100
s-70.833 -46.167 -119.5 -58.5s-99.667 -18.5 -153 -18.5c-94 0 -159.5 19 -196.5 57s-55.5 84 -55.5 138c0 37.333 16.333 145.666 49 324.999l83 -18c-22.667 -125.333 -35.667 -218 -39 -278c-2 -35.333 14.333 -59 49 -71s73.334 -18 116.001 -18
c96.667 0 169.667 14.333 219 43l-40 378l105 24c7.33301 -74.667 13 -140.334 17 -197.001c8.66699 -5.33301 19.334 -9 32.001 -11c46.667 70 103.334 137.667 170.001 203s133 98 199 98c61.333 0 108 -21.167 140 -63.5zM1120 284.502c-17.333 27.667 -43 41.5 -77 41.5
c-36.667 0 -79.167 -17.5 -127.5 -52.5s-95.5 -82.167 -141.5 -141.5c28 -2 57 -3 87 -3c100.667 0 195 13.333 283 40c1.33301 49.333 -6.66699 87.833 -24 115.5z" />
    <glyph glyph-name="uni0636" unicode="&#x636;" horiz-adv-x="1320" 
d="M853 533l-97 82l81 98l98 -82zM1186 380.5c32 -42.333 47.9961 -103.831 47.9961 -184.498c0 -40 -10.333 -72.667 -31 -98c-27.333 -32 -70.166 -57.333 -128.499 -76s-127.833 -28 -208.5 -28c-90.667 0 -161.667 10.667 -213 32l3 -78
c0.666992 -40 -14.5 -73.333 -45.5 -100s-70.833 -46.167 -119.5 -58.5s-99.667 -18.5 -153 -18.5c-94 0 -159.5 19 -196.5 57s-55.5 84 -55.5 138c0 37.333 16.333 145.666 49 324.999l83 -18c-22.667 -125.333 -35.667 -218 -39 -278c-2 -35.333 14.333 -59 49 -71
s73.334 -18 116.001 -18c96.667 0 169.667 14.333 219 43l-40 378l105 24c7.33301 -74.667 13 -140.334 17 -197.001c8.66699 -5.33301 19.334 -9 32.001 -11c46.667 70 103.334 137.667 170.001 203s133 98 199 98c61.333 0 108 -21.167 140 -63.5zM1120 284.502
c-17.333 27.667 -43 41.5 -77 41.5c-36.667 0 -79.167 -17.5 -127.5 -52.5s-95.5 -82.167 -141.5 -141.5c28 -2 57 -3 87 -3c100.667 0 195 13.333 283 40c1.33301 49.333 -6.66699 87.833 -24 115.5z" />
    <glyph glyph-name="uni0637" unicode="&#x637;" horiz-adv-x="827" 
d="M693 383c32 -42 47.999 -103.669 47.999 -185.002c0 -39.333 -10 -71.666 -30 -96.999c-56.667 -67.333 -180.667 -101 -372 -101h-224l-29 135h93c4.66699 8 10.334 16.333 17.001 25l17 25c5.33301 8.66699 9 20.667 11 36s3 44 3 86
c0 70.667 -3.33301 208.334 -10 413.001l105 23l4 -340c0 -40 -1.66699 -70 -5 -90c86 88.667 163.333 133 232 133c61.333 0 108 -21 140 -63zM626.999 287.498c-17.333 27.667 -43 41.501 -77 41.501c-36 0 -78.167 -17.833 -126.5 -53.5s-95.833 -82.834 -142.5 -141.501
h87c100.667 0 195 12.667 283 38c1.33301 49.333 -6.66699 87.833 -24 115.5z" />
    <glyph glyph-name="uni0638" unicode="&#x638;" horiz-adv-x="827" 
d="M693 383c32 -42 47.999 -103.669 47.999 -185.002c0 -39.333 -10 -71.666 -30 -96.999c-56.667 -67.333 -180.667 -101 -372 -101h-224l-29 135h93c4.66699 8 10.334 16.333 17.001 25l17 25c5.33301 8.66699 9 20.667 11 36s3 44 3 86
c0 70.667 -3.33301 208.334 -10 413.001l105 23l4 -340c0 -40 -1.66699 -70 -5 -90c86 88.667 163.333 133 232 133c61.333 0 108 -21 140 -63zM558.999 562.998l-97 83l81 97l97 -82zM626.999 287.498c-17.333 27.667 -43 41.501 -77 41.501
c-36 0 -78.167 -17.833 -126.5 -53.5s-95.833 -82.834 -142.5 -141.501h87c100.667 0 195 12.667 283 38c1.33301 49.333 -6.66699 87.833 -24 115.5z" />
    <glyph glyph-name="uni0639" unicode="&#x639;" horiz-adv-x="686" 
d="M225 -282.5c-48 29.667 -83.168 68.334 -105.501 116.001s-33.5 99.167 -33.5 154.5c0 57.333 13 108.666 39 153.999s63 87.666 111 126.999c-41.333 64 -62 125.333 -62 184c0 56 19.333 97.5 58 124.5s90.667 40.5 156 40.5c25.333 0 51.333 -2 78 -6l-19 -108
c-25.333 2.66699 -46.666 4 -63.999 4c-52.667 0 -91 -6.66699 -115 -20c2 -32.667 8 -64 18 -94s23 -55 39 -75l241 76l21 -119c-80.667 -22 -143.5 -41.333 -188.5 -58s-83.333 -35.667 -115 -57s-60.167 -48.666 -85.5 -81.999c-4.66699 -26 -7 -52 -7 -78
c0 -66 18 -114.667 54 -146s91.667 -47 167 -47h220l-25 -135h-201c-72.667 0 -133 14.833 -181 44.5z" />
    <glyph glyph-name="uni063A" unicode="&#x63a;" horiz-adv-x="686" 
d="M410 823l-82 -98l-97 82l81 98zM225 -282.5c-48 29.667 -83.168 68.334 -105.501 116.001s-33.5 99.167 -33.5 154.5c0 57.333 13 108.666 39 153.999s63 87.666 111 126.999c-41.333 64 -62 125.333 -62 184c0 56 19.333 97.5 58 124.5s90.667 40.5 156 40.5
c25.333 0 51.333 -2 78 -6l-19 -108c-25.333 2.66699 -46.666 4 -63.999 4c-52.667 0 -91 -6.66699 -115 -20c2 -32.667 8 -64 18 -94s23 -55 39 -75l241 76l21 -119c-80.667 -22 -143.5 -41.333 -188.5 -58s-83.333 -35.667 -115 -57s-60.167 -48.666 -85.5 -81.999
c-4.66699 -26 -7 -52 -7 -78c0 -66 18 -114.667 54 -146s91.667 -47 167 -47h220l-25 -135h-201c-72.667 0 -133 14.833 -181 44.5z" />
    <glyph glyph-name="uni0640" unicode="&#x640;" horiz-adv-x="216" 
d="M223 122.5c2 -8.33301 3 -18.5 3 -30.5v-49c0 -12 -1 -22.167 -3 -30.5s-4.33301 -12.5 -7 -12.5h-216c-2.66699 0 -5.16699 4.16699 -7.5 12.5s-3.5 18.5 -3.5 30.5v49c0 12 1 22.167 3 30.5s4.66699 12.5 8 12.5h216c2.66699 0 5 -4.16699 7 -12.5z" />
    <glyph glyph-name="uni0641" unicode="&#x641;" horiz-adv-x="975" 
d="M710 698l-97 83l81 97l98 -82zM880.5 157.5c-3.66699 -33.667 -10.8359 -60.501 -21.5029 -80.501s-27 -36 -49 -48c-26 -13.333 -64.5 -22.166 -115.5 -26.499s-140.5 -6.83301 -268.5 -7.5c-74.667 0 -136.5 5.5 -185.5 16.5s-86.833 30.833 -113.5 59.5
s-40 68.667 -40 120c0 15.333 1.66699 35.333 5 60l26 155l83 -17l-23 -138c-2.66699 -10 -4 -20 -4 -30c0 -26.667 8.66699 -46.5 26 -59.5s42.333 -21.5 75 -25.5s79 -6 139 -6c126 0 214.333 1.5 265 4.5s87.334 7.83301 110.001 14.5c2 10.667 3.66699 31 5 61
c-34 -7.33301 -70.333 -11 -109 -11c-28.667 0 -53.667 2.33301 -75 7c-10.667 2 -19.667 6.16699 -27 12.5s-15.666 16.5 -24.999 30.5c-9.33301 14.667 -15.5 26.334 -18.5 35.001s-4.16699 18.667 -3.5 30c2.66699 72 18 134.667 46 188s71 80 129 80
c64.667 0 109.834 -28.333 135.501 -85s38.5 -122.334 38.5 -197.001c0.666992 -61.333 -0.833008 -108.833 -4.5 -142.5zM702.998 315.999c37.333 0 68.333 2.33301 93 7c0 94.667 -30 142 -90 142c-25.333 0 -45.333 -12.167 -60 -36.5s-22.667 -59.833 -24 -106.5
c18.667 -4 45.667 -6 81 -6z" />
    <glyph glyph-name="uni0642" unicode="&#x642;" horiz-adv-x="806" 
d="M631 516l-89 74l74 88l89 -74zM465 512l-89 75l74 88l89 -74zM679 312c26 -56.667 38.9941 -122.001 38.9941 -196.001c0 -62.667 -0.666992 -107.167 -2 -133.5s-4.83301 -47.833 -10.5 -64.5s-15.5 -31.667 -29.5 -45c-34 -33.333 -79.667 -57 -137 -71
s-124.333 -21 -201 -21c-96 0 -162 18.833 -198 56.5s-54 83.834 -54 138.501c0 16.667 3.83301 49.5 11.5 98.5s15.834 98.167 24.501 147.5c0.666992 4.66699 5 31 13 79l83 -18c-11.333 -65.333 -20.166 -120 -26.499 -164s-10.5 -82 -12.5 -114
c-2 -35.333 14.333 -59 49 -71s73.334 -18 116.001 -18c66.667 0 122.834 3.16699 168.501 9.5s83.5 17.166 113.5 32.499c3.33301 23.333 5 46.333 5 69c-30 -8.66699 -67.667 -13 -113 -13c-29.333 0 -54.666 2.33301 -75.999 7c-10 2.66699 -18.667 7.16699 -26 13.5
s-15.333 16.5 -24 30.5c-10 14.667 -16.667 26.334 -20 35.001s-4.66602 18.667 -3.99902 30c3.33301 72 19 134.5 47 187.5s71 79.5 129 79.5c64 0 109 -28.333 135 -85zM627.994 137.999c0 95.333 -29.6689 142.999 -89.002 142.999c-26 0 -46.167 -12.167 -60.5 -36.5
s-22.166 -60.166 -23.499 -107.499c14.667 -3.33301 41.667 -5 81 -5c40.667 0 71.334 2 92.001 6z" />
    <glyph glyph-name="uni0643" unicode="&#x643;" horiz-adv-x="828" 
d="M565 140c36.667 4.66699 65.667 12 87 22l-28 558l106 23c2.66699 -84.667 5.16699 -187.167 7.5 -307.5s3.5 -212.5 3.5 -276.5c0 -49.333 -21 -87.333 -63 -114c-24.667 -14.667 -61.334 -26.167 -110.001 -34.5s-100.334 -12.5 -155.001 -12.5
c-70.667 0 -129.667 5.5 -177 16.5s-84.166 30.833 -110.499 59.5s-39.5 68.667 -39.5 120c0 18 2 38 6 60l26 155l82 -17l-23 -137c-2 -12 -3 -22.333 -3 -31c0 -26.667 8.5 -46.5 25.5 -59.5s41.833 -21.5 74.5 -25.5s79 -6 139 -6c64.667 0 115.334 2.33301 152.001 7z
M401.5 393.5c25 3.66699 45.502 10.832 61.502 21.499c1.33301 10 0.666016 16.667 -2.00098 20s-9.66699 6 -21 8l-25 4c-24 3.33301 -41.667 6.33301 -53 9s-20 7.33398 -26 14.001s-9 16.667 -9 30c0 20.667 5.5 45.5 16.5 74.5s25.833 54.167 44.5 75.5s39 32 61 32
c16.667 0 31.5 -5.33301 44.5 -16s26.5 -27 40.5 -49l-35 -35c-17.333 18 -34 27 -50 27s-30 -8.33301 -42 -25s-20.333 -35.667 -25 -57c6 -0.666992 24.167 -3.16699 54.5 -7.5s51.666 -13.5 63.999 -27.5s18.5 -33.667 18.5 -59c0 -40.667 -19 -71.667 -57 -93
s-92.667 -32 -164 -32l9 80c38 0 69.5 1.83301 94.5 5.5z" />
    <glyph glyph-name="uni0644" unicode="&#x644;" horiz-adv-x="732" 
d="M521 720l105.998 22.999l18 -795c0.666992 -40 -13.666 -73.333 -42.999 -100s-67.833 -46.167 -115.5 -58.5s-99.167 -18.5 -154.5 -18.5c-93.333 0 -157.666 18.833 -192.999 56.5s-53 83.834 -53 138.501c0 27.333 11.667 107 35 239l14 86l83 -18
c-11.333 -65.333 -20.166 -120 -26.499 -164s-10.5 -82 -12.5 -114c-2 -35.333 13.667 -59 47 -71s70.666 -18 111.999 -18c40 0 79.667 3.5 119 10.5s72.333 16.833 99 29.5z" />
    <glyph glyph-name="uni0645" unicode="&#x645;" horiz-adv-x="581" 
d="M87 5c0 68.667 7.33008 120.666 21.9971 155.999c26.667 62.667 59.834 117.334 99.501 164.001s81.834 70 126.501 70c50 0 89 -21.167 117 -63.5s42 -94.833 42 -157.5c0 -36.667 -5 -73 -15 -109c-3.33301 -10.667 -8.16602 -20 -14.499 -28
s-16.833 -18.333 -31.5 -31c-19.333 -15.333 -35.666 -23 -48.999 -23c-7.33301 0 -15 2 -23 6l-181 86c3.33301 -78.667 13.666 -188.667 30.999 -330l-103 -36c-14 136 -21 234.667 -21 296zM406.997 165.999c0 32.667 -6.83203 60 -20.499 82s-34.834 33 -63.501 33
c-18 0 -35.5 -8.5 -52.5 -25.5s-35.5 -42.5 -55.5 -76.5l181 -86c7.33301 22 11 46.333 11 73z" />
    <glyph glyph-name="uni0646" unicode="&#x646;" horiz-adv-x="742" 
d="M454 481l-82 -98l-97 82l81 97zM135 291l83 -17.999c-22.667 -125.333 -35.667 -218 -39 -278c-2 -35.333 14.333 -59 49 -71s73.334 -18 116.001 -18c96.667 0 169.667 14.333 219 43l-40 378l105 24c15.333 -166 24.666 -300.333 27.999 -403
c0.666992 -40 -14.5 -73.333 -45.5 -100s-70.833 -46.167 -119.5 -58.5s-99.667 -18.5 -153 -18.5c-94 0 -159.5 19 -196.5 57s-55.5 84 -55.5 138c0 37.333 16.333 145.666 49 324.999z" />
    <glyph glyph-name="uni0647" unicode="&#x647;" horiz-adv-x="532" 
d="M130 26.5c-29.333 24.333 -44.001 59.4971 -44.001 105.497c0 34 8.83301 68.167 26.5 102.5s43.834 71.5 78.501 111.5l-43 30l64 95c80.667 -52 139 -105.667 175 -161s56 -120.666 60 -195.999c0.666992 -11.333 -0.833008 -21.666 -4.5 -30.999s-10.5 -21 -20.5 -35
c-10 -13.333 -17.5 -22.666 -22.5 -27.999s-9.83301 -9 -14.5 -11c-38 -12.667 -84.333 -19 -139 -19c-48 0 -86.667 12.167 -116 36.5zM358.999 130.997c-3.33301 28.667 -11.999 57.168 -25.999 85.501s-38.667 55.166 -74 80.499c-20.667 -20 -39.334 -44 -56.001 -72
s-25 -49.667 -25 -65s5.5 -25.5 16.5 -30.5s31.833 -7.5 62.5 -7.5c43.333 0 77.333 3 102 9z" />
    <glyph glyph-name="uni0648" unicode="&#x648;" horiz-adv-x="513" 
d="M355 338.5c26 -29 44.3311 -64.833 54.998 -107.5s16 -86.334 16 -131.001c0 -83.333 -26.167 -158 -78.5 -224s-128.5 -120.333 -228.5 -163l-67 107c64 23.333 119.5 51.5 166.5 84.5s81.5 67.833 103.5 104.5c-28 -7.33301 -60.333 -11 -97 -11
c-28.667 0 -53.667 2.33301 -75 7c-10.667 2.66699 -19.5 7.16699 -26.5 13.5s-15.167 16.5 -24.5 30.5c-9.33301 13.333 -15.666 24.833 -18.999 34.5s-4.66602 19.834 -3.99902 30.501c3.33301 72.667 19 135.5 47 188.5s71 79.5 129 79.5c42.667 0 77 -14.5 103 -43.5z
M242.998 115c37.333 0 68.333 2.33301 93 7c0 95.333 -29.667 143 -89 143c-26 0 -46.333 -12.167 -61 -36.5s-22.334 -59.833 -23.001 -106.5c16.667 -4.66699 43.334 -7 80.001 -7z" />
    <glyph glyph-name="uni0649" unicode="&#x649;" horiz-adv-x="801" 
d="M140 -182.5c-36 37.667 -54.001 83.8311 -54.001 138.498c0 38.667 16.333 147 49 325l83 -18c-22.667 -125.333 -35.667 -217.666 -39 -276.999c-2 -35.333 15 -59.166 51 -71.499s77.333 -18.5 124 -18.5c53.333 0 99.833 4.33301 139.5 13s72.834 23.667 99.501 45
c1.33301 8.66699 2 20 2 34c0 14.667 -2.33301 25 -7 31s-13 10.333 -25 13l-39 6c-41.333 6 -71.166 11.167 -89.499 15.5s-32.5 12 -42.5 23s-15 27.167 -15 48.5c0 52.667 10.167 105.667 30.5 159s47 97.333 80 132s67.5 52 103.5 52c27.333 0 52 -8.5 74 -25.5
s44.333 -43.833 67 -80.5l-58 -59c-27.333 28 -54.333 42 -81 42c-30 0 -55.833 -16.667 -77.5 -50s-36.167 -75 -43.5 -125c59.333 -8 102.166 -15.5 128.499 -22.5s48 -21.5 65 -43.5s25.5 -56 25.5 -102c0 -54 -13.333 -97.667 -40 -131
c-28 -35.333 -68.833 -62.5 -122.5 -81.5s-117.167 -28.5 -190.5 -28.5c-96 0 -162 18.833 -198 56.5z" />
    <glyph glyph-name="uni064A" unicode="&#x64a;" horiz-adv-x="801" 
d="M140 -182.5c-36 37.667 -54.001 83.8311 -54.001 138.498c0 38.667 16.333 147 49 325l83 -18c-22.667 -125.333 -35.667 -217.666 -39 -276.999c-2 -35.333 15 -59.166 51 -71.499s77.333 -18.5 124 -18.5c53.333 0 99.833 4.33301 139.5 13s72.834 23.667 99.501 45
c1.33301 8.66699 2 20 2 34c0 14.667 -2.33301 25 -7 31s-13 10.333 -25 13l-39 6c-41.333 6 -71.166 11.167 -89.499 15.5s-32.5 12 -42.5 23s-15 27.167 -15 48.5c0 52.667 10.167 105.667 30.5 159s47 97.333 80 132s67.5 52 103.5 52c27.333 0 52 -8.5 74 -25.5
s44.333 -43.833 67 -80.5l-58 -59c-27.333 28 -54.333 42 -81 42c-30 0 -55.833 -16.667 -77.5 -50s-36.167 -75 -43.5 -125c59.333 -8 102.166 -15.5 128.499 -22.5s48 -21.5 65 -43.5s25.5 -56 25.5 -102c0 -54 -13.333 -97.667 -40 -131
c-28 -35.333 -68.833 -62.5 -122.5 -81.5s-117.167 -28.5 -190.5 -28.5c-96 0 -162 18.833 -198 56.5zM534.999 -427.003l-74 -88l-88 74l74 89zM369.999 -429.003l-75 -89l-88 74l74 89z" />
    <glyph glyph-name="uni064B" unicode="&#x64b;" 
d="M0 991l329 106l12 -80l-328 -104zM0 811l329 106l12 -79l-328 -105z" />
    <glyph glyph-name="uni064C" unicode="&#x64c;" 
d="M306.5 1068.5c19 -29 27.5039 -69.501 25.5039 -121.501c-2 -32.667 -7.83301 -56.834 -17.5 -72.501s-31.834 -31.334 -66.501 -47.001s-96.334 -37.834 -185.001 -66.501l-5 -2l-45 -14v1l-9 -3c-11.333 48 -18.833 81.333 -22.5 100s-5.5 36.334 -5.5 53.001
c0 15.333 1.33301 32 4 50s7.66699 44.333 15 79l65 -15c-9.33301 -31.333 -15.666 -54.666 -18.999 -69.999s-5 -29.666 -5 -42.999c0 -14 2.66699 -33.667 8 -59l130 42c-12.667 2 -27.334 5.66699 -44.001 11c-10.667 3.33301 -19.667 13.333 -27 30
c-4.66699 8.66699 -7.83398 15.5 -9.50098 20.5s-1.83398 10.167 -0.500977 15.5c10 44.667 26 82.334 48 113.001s49.333 45.667 82 45c36.667 -2 64.5 -17.5 83.5 -46.5zM274.004 964.999c0 21.333 -4.66699 38.832 -14 52.499s-22.333 20.834 -39 21.501
c-28.667 0 -50.334 -25.333 -65.001 -76c12.667 -4.66699 31.834 -9.33398 57.501 -14.001s45.167 -7 58.5 -7c1.33301 10.667 2 18.334 2 23.001z" />
    <glyph glyph-name="uni064D" unicode="&#x64d;" 
d="M-6 -125l329 107l12 -80l-328 -105zM-6 -304l329 106l12 -79l-328 -105z" />
    <glyph glyph-name="uni064E" unicode="&#x64e;" 
d="M0 794l329 106l12 -79l-328 -105z" />
    <glyph glyph-name="uni064F" unicode="&#x64f;" 
d="M304 1068.5c18.667 -29 26.998 -69.4971 24.998 -121.497c-2 -34.667 -8.66699 -60 -20 -76s-37.166 -32.333 -77.499 -49s-114.166 -42.334 -221.499 -77.001l-13 79l174 56c-14 2.66699 -28.667 6.33398 -44 11.001c-5.33301 1.33301 -10 4.16602 -14 8.49902
s-8.33301 11.5 -13 21.5c-4.66699 8.66699 -7.83398 15.5 -9.50098 20.5s-1.83398 10.167 -0.500977 15.5c10.667 45.333 26.834 83.166 48.501 113.499s48.834 45.166 81.501 44.499c37.333 -2 65.333 -17.5 84 -46.5zM270.998 963.003c0 22 -4.66699 40.001 -14 54.001
s-22.333 21.333 -39 22c-28.667 0 -50.334 -25.333 -65.001 -76c12.667 -4.66699 31.834 -9.33398 57.501 -14.001s45.5 -7 59.5 -7c0.666992 4.66699 1 11.667 1 21z" />
    <glyph glyph-name="uni0650" unicode="&#x650;" 
d="M0 -147l329 106l12 -80l-328 -104z" />
    <glyph glyph-name="uni0651" unicode="&#x651;" 
d="M23.5 774c-17 19.333 -25.5 41.6709 -25.5 67.0039c0 7.33301 1.33301 20.666 4 39.999c0.666992 6.66699 2 17 4 31s4.33301 34.333 7 61l56 -12l-12 -96c-3.33301 -22 10.667 -33 42 -33c22 0 37.333 2 46 6l-2 106l61 3l2 -111c6 -2.66699 15.667 -4 29 -4
c16 0 28.167 0.666992 36.5 2s17.5 4.66602 27.5 9.99902c-0.666992 19.333 -3 41.5 -7 66.5s-9 46.833 -15 65.5l60 23c6 -22.667 10.833 -48.334 14.5 -77.001s5.5 -56.334 5.5 -83.001c0 -31.333 -11.333 -54.833 -34 -70.5s-52 -23.5 -88 -23.5
c-14 0 -25.833 1.5 -35.5 4.5s-18.5 8.16699 -26.5 15.5c-30 -13.333 -56.667 -20 -80 -20c-29.333 0 -52.5 9.66699 -69.5 29z" />
    <glyph glyph-name="uni0652" unicode="&#x652;" 
d="M14 857c0 22.667 6.66406 42.668 19.9971 60.001s31 29.666 53 36.999c12 3.33301 23 5 33 5c22.667 0 42.834 -6.66699 60.501 -20s30.167 -31.666 37.5 -54.999c4 -12 6 -24 6 -36c0 -22.667 -6.5 -42.834 -19.5 -60.501s-31.167 -29.834 -54.5 -36.501l-42 -13
c-11.333 -4 -21.666 -6 -30.999 -6c-26.667 0 -44.667 16.667 -54 50l106 34c18.667 6 28 17 28 33c0 12.667 -3.16699 22.5 -9.5 29.5s-14.166 10.5 -23.499 10.5c-12 0 -22 -3.33301 -30 -10s-12 -15 -12 -25c0 -5.33301 0.666992 -9.66602 2 -12.999l-64 -19
c-4 12 -6 23.667 -6 35z" />
    <glyph glyph-name="uni0653" unicode="&#x653;" 
d="M270 775c-36.667 0.666992 -75.0029 4.00098 -115.003 10.001c-21.333 2.66699 -34.333 4 -39 4c-11.333 0 -19.666 -3 -24.999 -9s-11 -19 -17 -39l-74 18c8.66699 35.333 17.834 62.666 27.501 81.999s21.334 32.833 35.001 40.5s31.167 11.5 52.5 11.5
c13.333 0 32.333 -1.66699 57 -5c40.667 -5.33301 79.667 -8.33301 117 -9l56 -2l-24 -103z" />
    <glyph glyph-name="uni0654" unicode="&#x654;" 
d="M-3 794l94.001 33c-25.333 46 -37 87.333 -35 124c1.33301 34 15.166 60 41.499 78s59.833 26 100.5 24c16 0 32.667 -2 50 -6l-15 -78c-5.33301 0.666992 -12.833 1.66699 -22.5 3s-18.5 2 -26.5 2c-28 1.33301 -50 -2 -66 -10c0 -38.667 14 -77 42 -115l166 51l12 -79
l-327 -105z" />
    <glyph glyph-name="uni0655" unicode="&#x655;" 
d="M-3 -315l94 33c-25.333 44.667 -37 86 -35 124c1.33301 34 15.166 60 41.499 78s59.833 26 100.5 24c16.667 0 33.334 -2 50.001 -6l-15 -79c-24 4 -40.333 6 -49 6c-26.667 1.33301 -48.667 -2 -66 -10c0 -39.333 14 -78 42 -116l166 52l12 -79l-327 -105z" />
    <glyph glyph-name="uni0656" unicode="&#x656;" 
d="M-6 20l74 11l1 -179l-72 -6z" />
    <glyph glyph-name="uni0660" unicode="&#x660;" horiz-adv-x="556" 
d="M181 80c-29.333 17.333 -52.5 40.666 -69.5 69.999s-25.5 61.666 -25.5 96.999s8.5 67.666 25.5 96.999s40.167 52.5 69.5 69.5s61.666 25.5 96.999 25.5c34.667 0 66.667 -8.5 96 -25.5s52.5 -40.167 69.5 -69.5s25.5 -61.666 25.5 -96.999s-8.5 -67.666 -25.5 -96.999
s-40.167 -52.666 -69.5 -69.999s-61.333 -26 -96 -26c-35.333 0 -67.666 8.66699 -96.999 26zM344.5 181.5c17.667 17.667 26.5 39.5 26.5 65.5c0 26.667 -8.83301 49 -26.5 67s-39.834 27 -66.501 27s-48.834 -9 -66.501 -27s-26.5 -40.333 -26.5 -67
c0 -26 8.83301 -47.833 26.5 -65.5s39.834 -26.5 66.501 -26.5s48.834 8.83301 66.501 26.5z" />
    <glyph glyph-name="uni0661" unicode="&#x661;" horiz-adv-x="344" 
d="M192 743c43.333 -209.333 65 -402.333 65 -579c0 -54 -2 -108.667 -6 -164l-88 -13c2 41.333 3 82 3 122c0 198 -26.667 401.667 -80 611z" />
    <glyph glyph-name="uni0662" unicode="&#x662;" horiz-adv-x="600" 
d="M161.5 342.5c-17 121 -42.1689 246.833 -75.502 377.5l106 23l35 -173c4 -20 11.833 -33.833 23.5 -41.5s32.834 -11.5 63.501 -11.5c22.667 0 42.834 1.16699 60.501 3.5s34.167 7.5 49.5 15.5l-22 195l104 19c6 -85.333 9 -157.666 9 -216.999
c0 -52 -17.667 -90.167 -53 -114.5s-81.333 -36.5 -138 -36.5c-28.667 0 -52.667 5.33301 -72 16c14.667 -113.333 22 -221.333 22 -324c0 -32.667 -0.333008 -57.334 -1 -74.001l-88 -13c1.33301 116 -6.5 234.5 -23.5 355.5z" />
    <glyph glyph-name="uni0663" unicode="&#x663;" horiz-adv-x="785" 
d="M692 713c4.66699 -64 7 -125.668 7 -185.001c0 -51.333 -16.5 -89.5 -49.5 -114.5s-73.167 -37.5 -120.5 -37.5c-53.333 0 -89.666 12.667 -108.999 38c-25.333 -24.667 -63 -37 -113 -37c-17.333 0 -35.666 5 -54.999 15c14.667 -112 22 -218.333 22 -319
c0 -32.667 -0.333008 -57 -1 -73l-88 -13c1.33301 116 -6.5 234.5 -23.5 355.5s-42.167 246.833 -75.5 377.5l106 23l10 -50l26 -128c4 -19.333 10.5 -33.166 19.5 -41.499s22.833 -12.5 41.5 -12.5c29.333 0 56.666 5.66699 81.999 17l-4 190l95 4l4 -203
c11.333 -5.33301 28.666 -8 51.999 -8c34.667 0 64.667 6.66699 90 20l-23 203l105 18c1.33301 -17.333 2 -30.333 2 -39z" />
    <glyph glyph-name="uni0664" unicode="&#x664;" horiz-adv-x="555" 
d="M111 315c16.667 35.333 40.335 63.667 71.002 85c-56 33.333 -84 93.666 -84 180.999c0 54 20 94.667 60 122s95 41 165 41c34 0 70 -3 108 -9l-13 -120c-33.333 4.66699 -67.333 7 -102 7c-56.667 0 -97.667 -6.33301 -123 -19
c1.33301 -38.667 8.66602 -68.667 21.999 -90s35.5 -36.5 66.5 -45.5s74.5 -12.833 130.5 -11.5l-1 -114c-66 0.666992 -118 -8.83301 -156 -28.5s-64.333 -48.5 -79 -86.5c0.666992 -36 12.667 -60.833 36 -74.5s59 -20.5 107 -20.5c34 0 63.167 1 87.5 3
s49.166 5.33301 74.499 10l4 -133c-30.667 -6 -58.667 -10 -84 -12s-56 -3 -92 -3c-73.333 0 -128.833 18.833 -166.5 56.5s-56.5 86.834 -56.5 147.501c0 40.667 8.33301 78.667 25 114z" />
    <glyph glyph-name="uni0665" unicode="&#x665;" horiz-adv-x="709" 
d="M148 19.5c-41.333 29.667 -62 74.5 -62 134.5c0 59.333 13.5 127.5 40.5 204.5s60.167 143 99.5 198s76 82.5 110 82.5c47.333 0 93.333 -26.833 138 -80.5s80.667 -121 108 -202s41 -158.5 41 -232.5c0 -52 -23.333 -89.833 -70 -113.5s-119 -35.5 -217 -35.5
c-84 0 -146.667 14.833 -188 44.5zM526 136c-2.66699 45.333 -14.833 98.002 -36.5 158.002s-46.667 111.333 -75 154s-53.166 64 -74.499 64c-14 0 -32.833 -21.333 -56.5 -64s-44.834 -91.334 -63.501 -146.001s-28 -98.334 -28 -131.001c0 -22 11.833 -37.667 35.5 -47
s61.167 -14 112.5 -14c87.333 0 149.333 8.66699 186 26z" />
    <glyph glyph-name="uni0666" unicode="&#x666;" horiz-adv-x="574" 
d="M365 214c-3.33301 72 -4.99902 166.667 -4.99902 284v82c-14.667 -2 -34.334 -3 -59.001 -3c-34 0 -72 1.83301 -114 5.5s-81.333 8.83398 -118 15.501l-9 136c58 -8.66699 105 -14.834 141 -18.501s75.667 -5.5 119 -5.5c30.667 0 66.667 1 108 3l28 1v-59
c0 -184 1.83301 -319.5 5.5 -406.5s12.5 -162.5 26.5 -226.5l-99 -37c-12.667 80.667 -20.667 157 -24 229z" />
    <glyph glyph-name="uni0667" unicode="&#x667;" horiz-adv-x="717" 
d="M642 661c-48 -60.667 -90.501 -129.334 -127.501 -206.001s-65.667 -152.834 -86 -228.501s-30.5 -142.167 -30.5 -199.5v-27l-88 -13v33c0 54 -7.66699 116.333 -23 187s-40.5 146.334 -75.5 227.001s-80.167 159 -135.5 235l86 79
c41.333 -59.333 80 -131.166 116 -215.499s61.333 -166.833 76 -247.5l4 -31l3 31c11.333 79.333 35.833 161.5 73.5 246.5s79.834 157.833 126.501 218.5z" />
    <glyph glyph-name="uni0668" unicode="&#x668;" horiz-adv-x="717" 
d="M430.5 529.5c15 -70.333 40 -145.833 75 -226.5s80.167 -159 135.5 -235l-86 -80c-41.333 60.667 -80 133.167 -116 217.5s-61 166.5 -75 246.5c-2 15.333 -3.33301 26 -4 32l-4 -32c-11.333 -79.333 -35.666 -161.5 -72.999 -246.5s-79.666 -157.833 -126.999 -218.5
l-80 89c47.333 60.667 89.666 129.334 126.999 206.001s66.166 152.667 86.499 228s30.5 141.666 30.5 198.999v28l88 13v-33c0 -54.667 7.5 -117.167 22.5 -187.5z" />
    <glyph glyph-name="uni0669" unicode="&#x669;" horiz-adv-x="585" 
d="M499 17l-97.001 -36.999c-18.667 122.667 -28 228.334 -28 317.001v16c-36.667 -8 -76.667 -12 -120 -12c-46 0 -82.667 3.33301 -110 10c-10.667 2.66699 -20 7.16699 -28 13.5s-15.667 15.833 -23 28.5c-9.33301 14 -15.5 25.667 -18.5 35s-4.5 19.666 -4.5 30.999
c0.666992 53.333 7.16699 105.166 19.5 155.499s33 92.5 62 126.5s67.167 51 114.5 51c68.667 0 118.834 -28.167 150.501 -84.5s47.5 -132.5 47.5 -228.5c0 -175.333 11.667 -316 35 -422zM322.999 438.001c22.667 1.33301 38.668 3.00098 48.001 5.00098
c0 65.333 -9.83301 114.166 -29.5 146.499s-44.834 48.5 -75.501 48.5s-56 -16.5 -76 -49.5s-30.333 -81.5 -31 -145.5c12 -4.66699 44.667 -7 98 -7c21.333 0 43.333 0.666992 66 2z" />
    <glyph glyph-name="uni066A" unicode="&#x66a;" horiz-adv-x="885" 
d="M319 765c23.333 -14 41.833 -32.833 55.5 -56.5s20.5 -49.5 20.5 -77.5s-6.83301 -53.667 -20.5 -77s-32.167 -41.833 -55.5 -55.5s-49 -20.5 -77 -20.5s-53.667 6.83301 -77 20.5s-42 32.167 -56 55.5s-21 49 -21 77s7 53.833 21 77.5s32.667 42.5 56 56.5s49 21 77 21
s53.667 -7 77 -21zM175 14l438 764l106 -48l-435 -762zM189 684.5c-14.667 -14.333 -21.998 -32.166 -21.998 -53.499c0 -20.667 7.16699 -38.167 21.5 -52.5s32.166 -21.5 53.499 -21.5s39 7.16699 53 21.5s21 31.833 21 52.5c0 21.333 -7.16699 39.166 -21.5 53.499
s-31.833 21.5 -52.5 21.5s-38.334 -7.16699 -53.001 -21.5zM571.502 -33.5c-23.667 13.667 -42.332 32.333 -55.999 56s-20.5 49.5 -20.5 77.5s6.66699 53.667 20 77s31.666 41.833 54.999 55.5s49 20.5 77 20.5s54 -6.66699 78 -20s42.833 -31.666 56.5 -54.999
s20.5 -49.333 20.5 -78c0 -28 -6.83301 -53.833 -20.5 -77.5s-32.167 -42.334 -55.5 -56.001s-49 -20.5 -77 -20.5s-53.833 6.83301 -77.5 20.5zM702.004 47.499c14 14.333 21.002 31.833 21.002 52.5c0 21.333 -7.16699 39.166 -21.5 53.499s-31.833 21.5 -52.5 21.5
s-38.334 -7.16699 -53.001 -21.5s-22 -32.166 -22 -53.499c0 -20.667 7.16699 -38.167 21.5 -52.5s32.166 -21.5 53.499 -21.5s39 7.16699 53 21.5z" />
    <glyph glyph-name="uni066B" unicode="&#x66b;" horiz-adv-x="314" 
d="M232 808c16.667 -18.667 25 -43.6709 25 -75.0039s-7.83301 -67.166 -23.5 -107.499s-36.5 -78.166 -62.5 -113.499l-58 57c16 21.333 28.667 39.833 38 55.5s16.666 31.834 21.999 48.501h-7c-22 0 -41 8 -57 24s-24 35.333 -24 58s7.83301 41.834 23.5 57.501
s34.834 23.5 57.501 23.5c27.333 0 49.333 -9.33301 66 -28z" />
    <glyph glyph-name="uni066C" unicode="&#x66c;" horiz-adv-x="313" 
d="M-19 -219l239 408l93 -50l-236 -411z" />
    <glyph glyph-name="uni066D" unicode="&#x66d;" horiz-adv-x="584" 
d="M384 259l72 -91l-98 -72l-66 98l-65 -98l-100 72l71 91l-112 34l39 114l109 -39l-4 118h124l-5 -118l111 39l38 -114z" />
    <glyph glyph-name="uni066E" unicode="&#x66e;" horiz-adv-x="902" 
d="M813 162c0 -29.333 -5.66699 -54.168 -17 -74.501s-29.333 -36.5 -54 -48.5c-30 -15.333 -71 -26.5 -123 -33.5s-116.333 -10.5 -193 -10.5c-74.667 0 -136.5 5.5 -185.5 16.5s-86.833 30.833 -113.5 59.5s-40 68.667 -40 120c0 15.333 1.66699 35.333 5 60l26 155
l83 -17l-23 -138c-2.66699 -10 -4 -20 -4 -30c0 -26.667 8.66699 -46.5 26 -59.5s42.333 -21.5 75 -25.5s79 -6 139 -6c74.667 0 136.167 1.83301 184.5 5.5s88.833 10.167 121.5 19.5l-23 230l103 21c8.66699 -87.333 13 -168.666 13 -243.999z" />
    <glyph glyph-name="uni066F" unicode="&#x66f;" horiz-adv-x="806" 
d="M679 312c26 -56.667 38.9941 -122.001 38.9941 -196.001c0 -62.667 -0.666992 -107.167 -2 -133.5s-4.83301 -47.833 -10.5 -64.5s-15.5 -31.667 -29.5 -45c-34 -33.333 -79.667 -57 -137 -71s-124.333 -21 -201 -21c-96 0 -162 18.833 -198 56.5s-54 83.834 -54 138.501
c0 16.667 3.83301 49.5 11.5 98.5s15.834 98.167 24.501 147.5c0.666992 4.66699 5 31 13 79l83 -18c-11.333 -65.333 -20.166 -120 -26.499 -164s-10.5 -82 -12.5 -114c-2 -35.333 14.333 -59 49 -71s73.334 -18 116.001 -18c66.667 0 122.834 3.16699 168.501 9.5
s83.5 17.166 113.5 32.499c3.33301 23.333 5 46.333 5 69c-30 -8.66699 -67.667 -13 -113 -13c-29.333 0 -54.666 2.33301 -75.999 7c-10 2.66699 -18.667 7.16699 -26 13.5s-15.333 16.5 -24 30.5c-10 14.667 -16.667 26.334 -20 35.001s-4.66602 18.667 -3.99902 30
c3.33301 72 19 134.5 47 187.5s71 79.5 129 79.5c64 0 109 -28.333 135 -85zM627.994 137.999c0 95.333 -29.6689 142.999 -89.002 142.999c-26 0 -46.167 -12.167 -60.5 -36.5s-22.166 -60.166 -23.499 -107.499c14.667 -3.33301 41.667 -5 81 -5
c40.667 0 71.334 2 92.001 6z" />
    <glyph glyph-name="uni0670" unicode="&#x670;" 
d="M-6 1048l74 12l1 -179l-72 -7z" />
    <glyph glyph-name="uni0671" unicode="&#x671;" horiz-adv-x="253" 
d="M30 698c-22.667 8.66699 -33.999 23.333 -33.999 44v44c-22.667 -20 -42.334 -47.333 -59.001 -82l-55 30c2 12 11.167 29.333 27.5 52s36.833 42.5 61.5 59.5s50.334 24.167 77.001 21.5v-89c4 -2 7.66699 -3 11 -3l30.5 40c18.333 24 39.666 44.833 63.999 62.5
s46.833 26.5 67.5 26.5c64 0 96 -38.667 96 -116c0 -22 -4.66699 -38.667 -14 -50c-14.667 -16 -38 -28.833 -70 -38.5s-66.667 -14.5 -104 -14.5c-43.333 0 -76.333 4.33301 -99 13zM257.001 779.999c0 18 -2.83203 31.167 -8.49902 39.5s-15.834 12.5 -30.501 12.5
c-28.667 0 -62.667 -23.333 -102 -70c49.333 -2 96.333 4 141 18zM172.002 -0.000976562l-92 -13l-15 603l102 22z" />
    <glyph glyph-name="uni067E" unicode="&#x67e;" horiz-adv-x="902" 
d="M813 162c0 -29.333 -5.66699 -54.168 -17 -74.501s-29.333 -36.5 -54 -48.5c-30 -15.333 -71 -26.5 -123 -33.5s-116.333 -10.5 -193 -10.5c-74.667 0 -136.5 5.5 -185.5 16.5s-86.833 30.833 -113.5 59.5s-40 68.667 -40 120c0 15.333 1.66699 35.333 5 60l26 155
l83 -17l-23 -138c-2.66699 -10 -4 -20 -4 -30c0 -26.667 8.66699 -46.5 26 -59.5s42.333 -21.5 75 -25.5s79 -6 139 -6c74.667 0 136.167 1.83301 184.5 5.5s88.833 10.167 121.5 19.5l-23 230l103 21c8.66699 -87.333 13 -168.666 13 -243.999zM514 -117.002l86 -72
l-72 -86l-86 72zM366 -278.002l-86 72l72 87l87 -73zM434 -268.002l87 -73l-73 -86l-85 72z" />
    <glyph glyph-name="uni0686" unicode="&#x686;" horiz-adv-x="777" 
d="M666 264c-47.333 -5.33301 -102.665 -22 -165.998 -50s-122.833 -62 -178.5 -102s-96.834 -79.667 -123.501 -119c-4.66699 -24 -7 -48.333 -7 -73c0 -67.333 18.5 -117 55.5 -149s93.5 -48 169.5 -48h216l-25 -136h-201c-76 0 -137.833 14.5 -185.5 43.5
s-82 67 -103 114s-31.5 99.5 -31.5 157.5c0 92.667 33.667 172.167 101 238.5s151.666 121.166 252.999 164.499c16 7.33301 25.333 11.333 28 12c-21.333 5.33301 -60 16.666 -116 33.999c-61.333 20 -102.333 30 -123 30c-28.667 0 -47.334 -21 -56.001 -63l-82 16
c11.333 50.667 27.333 89.834 48 117.501s49.667 41.5 87 41.5c20.667 0 44.334 -3.5 71.001 -10.5s59 -16.833 97 -29.5c58 -21.333 111.167 -38.166 159.5 -50.499s94.5 -18.833 138.5 -19.5zM514.001 -80l-72 60l60 72l72 -60zM438.001 -10l-61 -72l-71 60l60 72z
M446.001 -209l-71 60l59 72l73 -60z" />
    <glyph glyph-name="uni0698" unicode="&#x698;" horiz-adv-x="387" 
d="M253 678l-74 -85l-85 71l72 87zM337 529l-72 -86l-87 71l73 87zM176 526l-73 -87l-86 72l72 88zM-64 -190c82.667 38 144.33 73.334 184.997 106.001s69.334 67 86.001 103l-36 299l106 24c6.66699 -64.667 12.334 -122.167 17.001 -172.5s7 -89.5 7 -117.5
c0 -69.333 -23.167 -131.833 -69.5 -187.5s-122.166 -108.834 -227.499 -159.501z" />
    <glyph glyph-name="uni06A1" unicode="&#x6a1;" horiz-adv-x="975" 
d="M880.5 157.5c-3.66699 -33.667 -10.8359 -60.501 -21.5029 -80.501s-27 -36 -49 -48c-26 -13.333 -64.5 -22.166 -115.5 -26.499s-140.5 -6.83301 -268.5 -7.5c-74.667 0 -136.5 5.5 -185.5 16.5s-86.833 30.833 -113.5 59.5s-40 68.667 -40 120
c0 15.333 1.66699 35.333 5 60l26 155l83 -17l-23 -138c-2.66699 -10 -4 -20 -4 -30c0 -26.667 8.66699 -46.5 26 -59.5s42.333 -21.5 75 -25.5s79 -6 139 -6c126 0 214.333 1.5 265 4.5s87.334 7.83301 110.001 14.5c2 10.667 3.66699 31 5 61
c-34 -7.33301 -70.333 -11 -109 -11c-28.667 0 -53.667 2.33301 -75 7c-10.667 2 -19.667 6.16699 -27 12.5s-15.666 16.5 -24.999 30.5c-9.33301 14.667 -15.5 26.334 -18.5 35.001s-4.16699 18.667 -3.5 30c2.66699 72 18 134.667 46 188s71 80 129 80
c64.667 0 109.834 -28.333 135.501 -85s38.5 -122.334 38.5 -197.001c0.666992 -61.333 -0.833008 -108.833 -4.5 -142.5zM702.998 315.999c37.333 0 68.333 2.33301 93 7c0 94.667 -30 142 -90 142c-25.333 0 -45.333 -12.167 -60 -36.5s-22.667 -59.833 -24 -106.5
c18.667 -4 45.667 -6 81 -6z" />
    <glyph glyph-name="uni06A9" unicode="&#x6a9;" horiz-adv-x="915" 
d="M769.5 340.5c31 -62.333 46.501 -130.501 46.501 -204.501c0 -34 -13.667 -61.167 -41 -81.5s-69.5 -35.166 -126.5 -44.499s-131.167 -14 -222.5 -14c-74.667 0 -136.5 5.5 -185.5 16.5s-86.833 30.833 -113.5 59.5s-40 68.334 -40 119.001
c0 15.333 1.66699 35.333 5 60l26 155l83 -17l-23 -137c-2.66699 -10.667 -4 -20.667 -4 -30c0 -27.333 8.66699 -47.5 26 -60.5s42.166 -21.333 74.499 -25s78.833 -5.5 139.5 -5.5c70.667 0 133.5 2.5 188.5 7.5s96.833 12.5 125.5 22.5
c-5.33301 62.667 -29.833 121.167 -73.5 175.5s-105.834 109.166 -186.501 164.499l3 107c114.667 63.333 229.334 114.333 344.001 153l14 -112c-91.333 -35.333 -173.333 -70 -246 -104c10.667 -6.66699 20.667 -13.667 30 -21c73.333 -60 125.5 -121.167 156.5 -183.5z
" />
    <glyph glyph-name="uni06AF" unicode="&#x6af;" horiz-adv-x="915" 
d="M674 746c-50.667 -22.667 -111.667 -52 -183 -88l-20 -10l4 87c66 33.333 130.333 63.333 193 90zM769.5 340.5c31 -62.333 46.501 -130.501 46.501 -204.501c0 -34 -13.667 -61.167 -41 -81.5s-69.5 -35.166 -126.5 -44.499s-131.167 -14 -222.5 -14
c-74.667 0 -136.5 5.5 -185.5 16.5s-86.833 30.833 -113.5 59.5s-40 68.334 -40 119.001c0 15.333 1.66699 35.333 5 60l26 155l83 -17l-23 -137c-2.66699 -10.667 -4 -20.667 -4 -30c0 -27.333 8.66699 -47.5 26 -60.5s42.166 -21.333 74.499 -25s78.833 -5.5 139.5 -5.5
c70.667 0 133.5 2.5 188.5 7.5s96.833 12.5 125.5 22.5c-5.33301 62.667 -29.833 121.167 -73.5 175.5s-105.834 109.166 -186.501 164.499l3 107c114.667 63.333 229.334 114.333 344.001 153l14 -112c-91.333 -35.333 -173.333 -70 -246 -104
c10.667 -6.66699 20.667 -13.667 30 -21c73.333 -60 125.5 -121.167 156.5 -183.5z" />
    <glyph glyph-name="uni06BA" unicode="&#x6ba;" horiz-adv-x="742" 
d="M135 291l83 -17.999c-22.667 -125.333 -35.667 -218 -39 -278c-2 -35.333 14.333 -59 49 -71s73.334 -18 116.001 -18c96.667 0 169.667 14.333 219 43l-40 378l105 24c15.333 -166 24.666 -300.333 27.999 -403c0.666992 -40 -14.5 -73.333 -45.5 -100
s-70.833 -46.167 -119.5 -58.5s-99.667 -18.5 -153 -18.5c-94 0 -159.5 19 -196.5 57s-55.5 84 -55.5 138c0 37.333 16.333 145.666 49 324.999z" />
    <glyph glyph-name="uni06C0" unicode="&#x6c0;" horiz-adv-x="530" 
d="M244 629.5c23.333 3 43.0029 10.165 59.0029 21.498l1 9c0 6 -1.5 10.333 -4.5 13s-9.16699 4.66699 -18.5 6l-30 5c-23.333 3.33301 -40.333 6.33301 -51 9s-18.834 7.33398 -24.501 14.001s-8.5 16.334 -8.5 29.001c0 20.667 5.5 45.667 16.5 75
s25.667 54.666 44 75.999s38.5 32 60.5 32c16.667 0 31.667 -5.5 45 -16.5s27 -27.5 41 -49.5l-35 -35c-17.333 17.333 -34 26 -50 26s-30 -8.16699 -42 -24.5s-20.333 -35.166 -25 -56.499c6 -0.666992 24.167 -3.16699 54.5 -7.5s51.666 -13.5 63.999 -27.5
s18.5 -33.667 18.5 -59c0 -40 -19 -70.833 -57 -92.5s-92.667 -32.5 -164 -32.5l9 81c41.333 0 73.666 1.5 96.999 4.5zM130.003 26.498c-29.333 24.333 -44.001 59.4971 -44.001 105.497c0 34 8.83301 68.167 26.5 102.5s43.834 71.5 78.501 111.5l-43 30l64 95
c80.667 -52 139 -105.667 175 -161s56 -120.666 60 -195.999c0.666992 -11.333 -0.833008 -21.666 -4.5 -30.999s-10.5 -21 -20.5 -35c-10 -13.333 -17.5 -22.666 -22.5 -27.999s-9.83301 -9 -14.5 -11c-38 -12.667 -84.333 -19 -139 -19c-48 0 -86.667 12.167 -116 36.5z
M359.002 130.995c-3.33301 28.667 -11.999 57.168 -25.999 85.501s-38.667 55.166 -74 80.499c-20.667 -20 -39.334 -44 -56.001 -72s-25 -49.667 -25 -65s5.5 -25.5 16.5 -30.5s31.833 -7.5 62.5 -7.5c43.333 0 77.333 3 102 9z" />
    </font>
</defs>
</svg>
