<?xml version="1.0" standalone="no"?>
<!DOCTYPE svg PUBLIC "-//W3C//DTD SVG 1.1//EN" "http://www.w3.org/Graphics/SVG/1.1/DTD/svg11.dtd" >
<svg>
<metadata>
Created by FontForge 20090914 at Sun Sep 22 22:30:54 2019
 By www-data
Copyright (c) 2018 by www.fontiran.com All rights reserved.
</metadata>
<defs>
<font id="Anjoman-Black" horiz-adv-x="0" >
  <font-face 
    font-family="Black"
    font-weight="900"
    font-stretch="normal"
    units-per-em="1000"
    panose-1="0 0 10 0 0 0 0 0 0 0"
    ascent="800"
    descent="-200"
    x-height="573"
    cap-height="748"
    bbox="-224.999 -908.999 1738 1546"
    underline-thickness="50"
    underline-position="-50"
    unicode-range="U+0020-U+FEFC"
  />
<missing-glyph horiz-adv-x="681" 
d="M558 -293h-431v1362h431v-1362zM229 978v-45h88v-51h-90v-45h227v45h-90v51h90v45h-225zM227 802v-142h227v47h-90v95h-137zM317 707h-45v49h45v-49zM227 624v-45h90v-51h-90v-45h137v96h90v45h-227zM409 542v-90h-182v-46h227v136h-45zM317 376v-77h47v32h45v-64h-137
v109h-45v-154h227v154h-137zM227 140v-154h227v154h-227zM409 31h-137v64h137v-64zM227 -45v-45h96l-96 -64v-45h227v45h-139l95 64h44v45h-227z" />
    <glyph glyph-name="uniFDF2" unicode="&#x627;&#xfedf;&#xfee0;&#xfeea;" horiz-adv-x="1630" arabic-form="isolated" 
d="M724 897l-3 210l101 12l1 -215zM643.5 588c-17.667 9.33301 -32.1689 23.166 -43.502 41.499s-17 39.833 -17 64.5c0 11.333 1 27.333 3 48s5.66699 53.667 11 99l87 -16l-9 -84c-2 -12 0.833008 -19.833 8.5 -23.5s18.5 -5.5 32.5 -5.5c4 0 13.333 0.666992 28 2l-3 95
l83 3v-99c6 -0.666992 14 -1 24 -1c22 0 38.667 1.33301 50 4c-1.33301 16.667 -4 36.334 -8 59.001s-8 41.667 -12 57l97 32c14 -52 21 -104.667 21 -158c0 -41.333 -11.667 -74 -35 -98s-58.666 -36 -105.999 -36c-31.333 0 -55.666 10 -72.999 30
c-20.667 -18.667 -49 -28 -85 -28c-18 0 -35.833 4.66699 -53.5 14zM1546 787l-5 -787l-143 -20l-24 779zM1248 611c12 -178.667 19.668 -313 23.001 -403c1.33301 -28.667 -3.33398 -56.667 -14.001 -84s-29.667 -51 -57 -71c-50 -35.333 -124.667 -53 -224 -53
c-42.667 -0 -79.667 4.33301 -111 13s-56.333 24 -75 46c-19.333 -22.667 -43.333 -38.167 -72 -46.5s-66 -12.5 -112 -12.5c-67.333 0 -120.166 9.66699 -158.499 29s-61.833 52.333 -70.5 99c-8 -15.333 -15.167 -25.833 -21.5 -31.5s-13.5 -9.16699 -21.5 -10.5
c-14 -2 -30.333 -3 -49 -3c-24.667 0 -50 1.33301 -76 4c-40 3.33301 -71 16.166 -93 38.499s-33 52.5 -33 90.5l1 16c5.33301 59.333 14.166 104 26.499 134s34 56.5 65 79.5s80.833 50.5 149.5 82.5l-1 76l162 34l5 -325c0.666992 -28 3.5 -47.667 8.5 -59
s14.167 -18.666 27.5 -21.999s36 -5 68 -5c54 0 96 2.33301 126 7l-11 228l164 34l-3 -199c0 -23.333 4.66699 -40.5 14 -51.5s26.333 -17.167 51 -18.5h40c59.333 0 106 4.66699 140 14l-46 470l170 32c4 -58.667 6.66699 -102.667 8 -132zM288.999 274
c23.333 0 44.335 2 63.002 6l-6 86c-42 -12 -71.833 -24.667 -89.5 -38s-29.834 -28.333 -36.501 -45l29 -6c13.333 -2 26.666 -3 39.999 -3z" />
    <glyph glyph-name="uniFEF5" unicode="&#xfedf;&#xfe82;" horiz-adv-x="589" arabic-form="isolated" 
d="M196 669c-51.333 -0.666992 -97.001 3.00098 -137.001 11.001c-10.667 2 -19.667 3 -27 3c-5.33301 0 -10 -3 -14 -9s-9.33301 -19.333 -16 -40l-122 30c12 51.333 24.5 91.166 37.5 119.499s28.5 48.333 46.5 60s40.333 17.5 67 17.5c7.33301 0 24.333 -2 51 -6
c24.667 -4 47.334 -7 68.001 -9s45 -2.66699 73 -2l72 1l-38 -175zM62.999 209.001c58 0 113.5 3.83398 166.5 11.501s92.833 15.5 119.5 23.5l-28 515l169 28l16 -553c0.666992 -63.333 -23 -113.833 -71 -151.5s-106.5 -63.834 -175.5 -78.501s-138.833 -22 -209.5 -22
l-29 228c9.33301 -0.666992 23.333 -1 42 -1zM229.499 457.002c9 -57.333 13.5 -115.668 13.5 -175.001v-31l-135 -9c-0.666992 50.667 -5.16699 99.334 -13.5 146.001s-25.833 95 -52.5 145l133 95c27.333 -56.667 45.5 -113.667 54.5 -171z" />
    <glyph glyph-name="uniFEF6" unicode="&#xfee0;&#xfe82;" horiz-adv-x="619" arabic-form="final" 
d="M54 680c-10.667 2 -19.335 3.00098 -26.002 3.00098c-6 0 -11 -3 -15 -9s-9.33301 -19.333 -16 -40l-122 30c12 51.333 24.667 91.166 38 119.499s29 48.333 47 60s40.333 17.5 67 17.5c6.66699 0 23.334 -2 50.001 -6c24.667 -4 47.334 -7 68.001 -9s45 -2.66699 73 -2
l72 1l-38 -175l-61 -1c-51.333 -0.666992 -97 3 -137 11zM627.499 212.501c2.33301 -9.66699 3.50195 -21.833 3.50195 -36.5v-124c0 -14.667 -1.16699 -27 -3.5 -37s-5.16602 -15 -8.49902 -15h-84c-56 0 -94.667 23.333 -116 70c-44 -31.333 -99.5 -53.833 -166.5 -67.5
s-134.5 -20.5 -202.5 -20.5l-29 228c9.33301 -0.666992 23.333 -1 42 -1c58 0 113.5 3.83301 166.5 11.5s92.833 15.5 119.5 23.5l-28 515l169 28l14 -492c0.666992 -20.667 2.16699 -35.5 4.5 -44.5s6.66602 -15.167 12.999 -18.5s16.166 -5 29.499 -5h68
c3.33301 0 6.16602 -4.83301 8.49902 -14.5zM175.001 628.002c27.333 -56.667 45.5 -113.669 54.5 -171.002s13.5 -115.666 13.5 -174.999v-31l-135 -9c-0.666992 50.667 -5.16699 99.334 -13.5 146.001s-25.833 95 -52.5 145z" />
    <glyph glyph-name="uniFEF7" unicode="&#xfedf;&#xfe84;" horiz-adv-x="589" arabic-form="isolated" 
d="M-107 749l99 20.001c-12.667 30.667 -19 59.667 -19 87c0 41.333 12.667 74.833 38 100.5s60 38.5 104 38.5c6.66699 0 16.667 -0.666992 30 -2c11.333 -0.666992 29 -4.33398 53 -11.001l-31 -125c-16 4 -30 7 -42 9c-12 1.33301 -21 2 -27 2l-17 -1
c0 -22 5 -46.333 15 -73l156 39l17 -131l-358 -83zM63 209.001c58 0 113.5 3.83398 166.5 11.501s92.833 15.5 119.5 23.5l-28 515l169 28l16 -553c0.666992 -63.333 -23 -113.833 -71 -151.5s-106.5 -63.834 -175.5 -78.501s-138.833 -22 -209.5 -22l-29 228
c9.33301 -0.666992 23.333 -1 42 -1zM229.5 457.002c9 -57.333 13.5 -115.668 13.5 -175.001v-31l-135 -9c-0.666992 50.667 -5.16699 99.334 -13.5 146.001s-25.833 95 -52.5 145l133 95c27.333 -56.667 45.5 -113.667 54.5 -171z" />
    <glyph glyph-name="uniFEF8" unicode="&#xfee0;&#xfe84;" horiz-adv-x="619" arabic-form="final" 
d="M269 702l-358 -82.999l-18 130l99 20c-12.667 30.667 -19 59.667 -19 87c0 41.333 12.667 74.833 38 100.5s60 38.5 104 38.5c6.66699 0 16.667 -0.666992 30 -2c11.333 -0.666992 29 -4.33398 53 -11.001l-31 -125c-16 4 -30 7 -42 9c-12 1.33301 -21 2 -27 2l-17 -1
c0 -22 5 -46.333 15 -73l156 39zM627.5 212.501c2.33301 -9.66699 3.50195 -21.833 3.50195 -36.5v-124c0 -14.667 -1.16699 -27 -3.5 -37s-5.16602 -15 -8.49902 -15h-84c-56 0 -94.667 23.333 -116 70c-44 -31.333 -99.5 -53.833 -166.5 -67.5s-134.5 -20.5 -202.5 -20.5
l-29 228c9.33301 -0.666992 23.333 -1 42 -1c58 0 113.5 3.83301 166.5 11.5s92.833 15.5 119.5 23.5l-28 515l169 28l14 -492c0.666992 -20.667 2.16699 -35.5 4.5 -44.5s6.66602 -15.167 12.999 -18.5s16.166 -5 29.499 -5h68c3.33301 0 6.16602 -4.83301 8.49902 -14.5z
M94.502 388.002c-8.33301 46.667 -25.833 94.998 -52.5 144.998l133 95c27.333 -56.667 45.5 -113.667 54.5 -171s13.5 -115.666 13.5 -174.999v-31l-135 -9c-0.666992 50.667 -5.16699 99.334 -13.5 146.001z" />
    <glyph glyph-name="uniFEF9" unicode="&#xfedf;&#xfe88;" horiz-adv-x="618" arabic-form="isolated" 
d="M98 209c52.667 0 105.332 3.50098 157.999 10.501s93.334 15.167 122.001 24.5l-28 515l170 28l15 -553c0.666992 -63.333 -23 -113.833 -71 -151.5s-106.5 -63.834 -175.5 -78.501s-138.833 -22 -209.5 -22l-29 228c10.667 -0.666992 26.667 -1 48 -1zM246.498 514.001
c17 -74.667 25.5 -149.999 25.5 -225.999v-37l-135 -9c-0.666992 64 -8.16699 126.167 -22.5 186.5s-45.5 121.5 -93.5 183.5l123 117c51.333 -68.667 85.5 -140.334 102.5 -215.001zM56.998 -329.998l99 20.001c-12.667 30.667 -19 59.667 -19 87
c0 41.333 12.667 74.833 38 100.5s60 38.5 104 38.5c6.66699 0 16.667 -0.666992 30 -2c11.333 -0.666992 29 -4.33398 53 -11.001l-31 -125c-16 4 -30 7 -42 9c-12 1.33301 -21 2 -27 2l-17 -1c0 -22 5 -46.333 15 -73l156 39l17 -131l-358 -83z" />
    <glyph glyph-name="uniFEFA" unicode="&#xfee0;&#xfe88;" horiz-adv-x="634" arabic-form="final" 
d="M642.5 212.5c2.33301 -9.66699 3.49805 -21.833 3.49805 -36.5v-124c0 -14.667 -1.16699 -27 -3.5 -37s-5.16602 -15 -8.49902 -15h-70c-27.333 0 -51.333 5 -72 15s-38.334 26.333 -53.001 49c-44.667 -29.333 -99.5 -50.333 -164.5 -63s-130.167 -19 -195.5 -19
l-29 228c10.667 -0.666992 26.667 -1 48 -1c52.667 0 105.334 3.5 158.001 10.5s93.334 15.167 122.001 24.5l-28 515l170 28l14 -499c0.666992 -18 2.33398 -31.167 5.00098 -39.5s7 -14 13 -17s15.333 -4.5 28 -4.5h54c3.33301 0 6.16602 -4.83301 8.49902 -14.5z
M136.998 242.001c-0.666992 64 -8.16699 126.168 -22.5 186.501s-45.5 121.5 -93.5 183.5l123 117c51.333 -68.667 85.5 -140.334 102.5 -215.001s25.5 -150 25.5 -226v-37zM415.998 -245.998l17 -130.999l-358 -83l-18 130l99 20c-12.667 30.667 -19 59.667 -19 87
c0 41.333 12.667 74.833 38 100.5s60 38.5 104 38.5c6.66699 0 16.667 -0.666992 30 -2c11.333 -0.666992 29 -4.33398 53 -11.001l-31 -125c-16 4 -30 7 -42 9c-12 1.33301 -21 2 -27 2l-17 -1c0 -22 5 -46.333 15 -73z" />
    <glyph glyph-name="uniFEFB" unicode="&#xfedf;&#xfe8e;" horiz-adv-x="618" arabic-form="isolated" 
d="M98 209c52.667 0 105.332 3.50098 157.999 10.501s93.334 15.167 122.001 24.5l-28 515l170 28l15 -553c0.666992 -63.333 -23 -113.833 -71 -151.5s-106.5 -63.834 -175.5 -78.501s-138.833 -22 -209.5 -22l-29 228c10.667 -0.666992 26.667 -1 48 -1zM246.498 514.001
c17 -74.667 25.5 -149.999 25.5 -225.999v-37l-135 -9c-0.666992 64 -8.16699 126.167 -22.5 186.5s-45.5 121.5 -93.5 183.5l123 117c51.333 -68.667 85.5 -140.334 102.5 -215.001z" />
    <glyph glyph-name="uniFEFC" unicode="&#xfee0;&#xfe8e;" horiz-adv-x="634" arabic-form="final" 
d="M642.5 212.5c2.33301 -9.66699 3.49805 -21.833 3.49805 -36.5v-124c0 -14.667 -1.16699 -27 -3.5 -37s-5.16602 -15 -8.49902 -15h-70c-27.333 0 -51.333 5 -72 15s-38.334 26.333 -53.001 49c-44.667 -29.333 -99.5 -50.333 -164.5 -63s-130.167 -19 -195.5 -19
l-29 228c10.667 -0.666992 26.667 -1 48 -1c52.667 0 105.334 3.5 158.001 10.5s93.334 15.167 122.001 24.5l-28 515l170 28l14 -499c0.666992 -18 2.33398 -31.167 5.00098 -39.5s7 -14 13 -17s15.333 -4.5 28 -4.5h54c3.33301 0 6.16602 -4.83301 8.49902 -14.5z
M136.998 242.001c-0.666992 64 -8.16699 126.168 -22.5 186.501s-45.5 121.5 -93.5 183.5l123 117c51.333 -68.667 85.5 -140.334 102.5 -215.001s25.5 -150 25.5 -226v-37z" />
    <glyph glyph-name="uni06440671" unicode="&#xfedf;&#xfb51;" horiz-adv-x="616" 
d="M-40 668c-24.667 11.333 -36.999 29.0029 -36.999 53.0029v31l-17.5 -29.5c-9 -15 -17.5 -32.167 -25.5 -51.5l-91 47c4 19.333 15.833 43.166 35.5 71.499s44.5 52.666 74.5 72.999s62 29.5 96 27.5l1 -93c3.33301 -2 6 -3 8 -3c62 88 118 132 168 132
c39.333 0 69 -12.333 89 -37s30 -60.334 30 -107.001c0 -29.333 -6.33301 -52 -19 -68c-18 -20 -43.833 -35.5 -77.5 -46.5s-71.834 -16.5 -114.501 -16.5c-55.333 0 -95.333 5.66699 -120 17zM200.001 788.003c-0.666992 12 -3.16699 19.999 -7.5 23.999s-11.5 6 -21.5 6
c-12 0 -25.667 -3.66699 -41 -11s-30.333 -18.666 -45 -33.999c40.667 0.666992 79 5.66699 115 15zM90.001 209.002c58 0 113.5 3.83398 166.5 11.501s92.833 15.5 119.5 23.5l-28 515l169 28l16 -553c0.666992 -63.333 -23 -113.833 -71 -151.5
s-106.5 -63.834 -175.5 -78.501s-138.833 -22 -209.5 -22l-29 228c9.33301 -0.666992 23.333 -1 42 -1zM256.501 457.003c9 -57.333 13.5 -115.668 13.5 -175.001v-31l-135 -9c-0.666992 50.667 -5 99.334 -13 146.001s-25.333 95 -52 145l132 95
c27.333 -56.667 45.5 -113.667 54.5 -171z" />
    <glyph glyph-name="uni06440671.fina" unicode="&#xfee0;&#xfb51;" horiz-adv-x="619" 
d="M181.5 674c-33.667 -11.333 -71.832 -16.999 -114.499 -16.999c-56 0 -96.333 5.66699 -121 17s-37 29 -37 53v31c-2.66699 -4.66699 -8.5 -14.334 -17.5 -29.001s-17.5 -32 -25.5 -52l-91 47c4 19.333 15.833 43.333 35.5 72s44.667 53.167 75 73.5
s62.166 29.166 95.499 26.499l1 -93c2 -1.33301 4.66699 -2 8 -2c62.667 87.333 119 131 169 131c39.333 0 68.833 -12.167 88.5 -36.5s29.5 -59.833 29.5 -106.5c0 -29.333 -6.33301 -52.333 -19 -69c-17.333 -19.333 -42.833 -34.666 -76.5 -45.999zM116.002 813.001
c-15.333 -7.33301 -30.333 -18.334 -45 -33.001c38 0.666992 76.333 5.33398 115 14.001c-0.666992 12 -3.16699 20 -7.5 24s-11.5 6 -21.5 6c-12 0 -25.667 -3.66699 -41 -11zM627.502 212.5c2.33301 -9.66699 3.50195 -21.833 3.50195 -36.5v-124
c0 -14.667 -1.16699 -27 -3.5 -37s-5.16602 -15 -8.49902 -15h-84c-56 -0 -94.667 23.333 -116 70c-44 -31.333 -99.5 -53.833 -166.5 -67.5s-134.5 -20.5 -202.5 -20.5l-29 228c9.33301 -0.666992 23.333 -1 42 -1c58 0 113.5 3.83301 166.5 11.5s92.833 15.5 119.5 23.5
l-28 515l169 28l14 -492c0.666992 -20.667 2.16699 -35.5 4.5 -44.5s6.66602 -15.167 12.999 -18.5s16.166 -5 29.499 -5h68c3.33301 0 6.16602 -4.83301 8.49902 -14.5zM94.5039 388.001c-8.33301 46.667 -25.833 94.998 -52.5 144.998l133 95
c27.333 -56.667 45.5 -113.667 54.5 -171s13.5 -115.666 13.5 -174.999v-31l-135 -9c-0.666992 50.667 -5.16699 99.334 -13.5 146.001z" />
    <glyph glyph-name="uni066E.init" unicode="&#x66e;" horiz-adv-x="405" 
d="M318 328c2 -36.667 3.00098 -77.333 3.00098 -122c0 -66.667 -23.667 -117.667 -71 -153c-50 -35.333 -133.333 -53 -250 -53c-3.33301 0 -6.16602 5 -8.49902 15s-3.5 22.333 -3.5 37v124c0 14.667 1.16699 26.834 3.5 36.501s5.16602 14.5 8.49902 14.5
c44.667 0 79.167 1.16699 103.5 3.5s44.166 6.16602 59.499 11.499l-27 206l171 30c5.33301 -63.333 9 -113.333 11 -150z" />
    <glyph glyph-name="uni066E.medi" unicode="&#x66e;" horiz-adv-x="424" 
d="M432.5 212.5c2.33301 -9.66699 3.49902 -21.834 3.49902 -36.501v-124c0 -14.667 -1.16699 -27 -3.5 -37s-5.16602 -15 -8.49902 -15c-62.667 0 -109.334 5.16699 -140.001 15.5s-51.667 28.833 -63 55.5c-9.33301 -20 -22.166 -35 -38.499 -45
s-38.5 -16.833 -66.5 -20.5s-66.667 -5.5 -116 -5.5c-3.33301 0 -6.16602 5 -8.49902 15s-3.5 22.333 -3.5 37v124c0 14.667 1.16699 26.834 3.5 36.501s5.16602 14.5 8.49902 14.5c38.667 0 70 1 94 3s43.667 5.66699 59 11l-24 172l170 19l5 -195
c12 -4 26.333 -6.66699 43 -8s42.334 -2 77.001 -2c3.33301 0 6.16602 -4.83301 8.49902 -14.5z" />
    <glyph glyph-name="uni066E.fina" unicode="&#x66e;" horiz-adv-x="943" 
d="M951.5 212.5c2.33301 -9.66699 3.49902 -21.835 3.49902 -36.502v-124c0 -14.667 -1.16699 -27 -3.5 -37s-5.16602 -15 -8.49902 -15c-41.333 0 -77.333 6.16699 -108 18.5s-52.667 31.5 -66 57.5c-12.667 -25.333 -36 -42.666 -70 -51.999
c-27.333 -7.33301 -61.666 -13.833 -102.999 -19.5s-85 -8.5 -131 -8.5c-82 0 -150.5 6 -205.5 18s-98.167 34.833 -129.5 68.5s-47 81.834 -47 144.501c0 15.333 2.66699 41 8 77l25 157l138 -29l-22 -133c-2.66699 -13.333 -4 -23 -4 -29
c0 -17.333 19.833 -29.333 59.5 -36s99.167 -10 178.5 -10c100 0 183.333 6 250 18l-20 143l168 18l8 -170c18 -4 41.667 -6 71 -6c3.33301 0 6.16602 -4.83301 8.49902 -14.5z" />
    <glyph glyph-name="uni066F.fina" unicode="&#x66f;" horiz-adv-x="897" 
d="M905.5 212.5c2.33301 -9.66699 3.50098 -21.832 3.50098 -36.499v-124c0 -14.667 -1.16699 -27 -3.5 -37s-5.16602 -15 -8.49902 -15h-107c-3.33301 -37.333 -8.83301 -67.833 -16.5 -91.5s-19.834 -44.834 -36.501 -63.501c-33.333 -35.333 -80.5 -60.833 -141.5 -76.5
s-135.833 -23.5 -224.5 -23.5c-102 0 -175.5 18.833 -220.5 56.5s-67.5 91.5 -67.5 161.5c0 66 17.667 189.667 53 371l138 -28l-6 -39c-22 -129.333 -33 -209 -33 -239c0 -24 11.333 -39.333 34 -46s56.667 -10 102 -10c66.667 0 121 1.5 163 4.5s80.667 7.83301 116 14.5
c0 19.333 0.333008 33.666 1 42.999c-30.667 -5.33301 -63.334 -8 -98.001 -8c-37.333 0 -71 5 -101 15c-9.33301 3.33301 -17.333 9 -24 17s-15.667 22.333 -27 43c-11.333 19.333 -18.666 33.833 -21.999 43.5s-5 20.5 -5 32.5c4.66699 92.667 25 166.167 61 220.5
s86.667 81.5 152 81.5c52.667 0 97.667 -21.667 135 -65s60 -105.666 68 -186.999h107c3.33301 0 6.16602 -4.83301 8.49902 -14.5zM647.001 207.002c0 32 -6.16602 56.167 -18.499 72.5s-28.5 24.5 -48.5 24.5c-17.333 0 -31.333 -8 -42 -24s-17.334 -40.333 -20.001 -73
c24 -1.33301 47.333 -2 70 -2c18 0 37.667 0.666992 59 2z" />
    <glyph glyph-name="uni06A1.init" unicode="&#x6a1;" horiz-adv-x="547" 
d="M360.5 685.5c31.667 -23.667 57.001 -59.3359 76.001 -107.003s28.5 -105.5 28.5 -173.5c0 -73.333 -2.66699 -133.666 -8 -180.999s-15.166 -86.833 -29.499 -118.5s-34.833 -55.167 -61.5 -70.5c-22.667 -14 -49.5 -23.333 -80.5 -28s-72.5 -7 -124.5 -7h-161
c-3.33301 0 -6.16602 5 -8.49902 15s-3.5 22.333 -3.5 37v124c0 14.667 1.16699 26.834 3.5 36.501s5.16602 14.5 8.49902 14.5c72 0 135.667 0.333008 191 1s96.333 2.33398 123 5.00098c0.666992 3.33301 1 10.333 1 21l1 21c-26.667 -4.66699 -57.334 -7 -92.001 -7
c-38.667 0 -72.334 5 -101.001 15c-10 3.33301 -18.333 9 -25 17s-15.667 22.333 -27 43c-10.667 19.333 -17.667 33.833 -21 43.5s-5 20.5 -5 32.5c4 92 24.167 165.333 60.5 220s86.833 82 151.5 82c37.333 0 71.833 -11.833 103.5 -35.5zM258.001 446.998
c18.667 0 38.668 0.666992 60.001 2c0 31.333 -6.16699 55.333 -18.5 72s-28.5 25 -48.5 25c-17.333 0 -31.333 -8.16699 -42 -24.5s-17.334 -40.5 -20.001 -72.5c24 -1.33301 47 -2 69 -2z" />
    <glyph glyph-name="uni06A1.medi" unicode="&#x6a1;" horiz-adv-x="528" 
d="M536.5 212.5c2.33301 -9.66699 3.50195 -21.835 3.50195 -36.502v-124c0 -14.667 -1.16699 -27 -3.5 -37s-5.16602 -15 -8.49902 -15h-109c-36.667 0 -67.667 3.66699 -93 11s-47.333 22 -66 44c-22.667 -22.667 -47.5 -37.5 -74.5 -44.5s-60.5 -10.5 -100.5 -10.5h-85
c-3.33301 0 -6.16602 5 -8.49902 15s-3.5 22.333 -3.5 37v124c0 14.667 1.16699 26.834 3.5 36.501s5.16602 14.5 8.49902 14.5h16h31c13.333 0 24.333 -1 33 -3c-13.333 13.333 -20 28.333 -20 45c0 40 12 82 36 126s53.167 80.833 87.5 110.5s64.833 44.5 91.5 44.5
c33.333 0 65 -13 95 -39s54.167 -60.5 72.5 -103.5s27.5 -88.5 27.5 -136.5c0 -9.33301 -1.16699 -17.666 -3.5 -24.999s-6.83301 -15.333 -13.5 -24c7.33301 2 14.666 3.33301 21.999 4s15.666 1 24.999 1h28c3.33301 0 6.16602 -4.83301 8.49902 -14.5zM328.002 269.999
c-4 25.333 -11.5029 46.832 -22.5029 64.499s-22.167 26.5 -33.5 26.5c-7.33301 0 -17.166 -5.16699 -29.499 -15.5s-23.166 -22.166 -32.499 -35.499s-14 -23.666 -14 -30.999c0 -4.66699 4.83301 -12.334 14.5 -23.001s21.834 -22 36.501 -34z" />
    <glyph glyph-name="uni06A1.fina" unicode="&#x6a1;" horiz-adv-x="1053" 
d="M1061 212.5c2 -9.66699 2.99902 -21.835 2.99902 -36.502v-124c0 -14 -1.16699 -26.167 -3.5 -36.5s-4.83301 -15.5 -7.5 -15.5h-104c-36 0 -66.833 4.16699 -92.5 12.5s-48.5 23.833 -68.5 46.5c-14 -12 -28 -22 -42 -30c-24.667 -13.333 -52 -22 -82 -26
s-70.333 -6 -121 -6h-78c-82 0 -150.5 6 -205.5 18s-98.167 34.833 -129.5 68.5s-47 81.834 -47 144.501c0 15.333 2.66699 41 8 77l25 156l138 -28l-22 -133c-2.66699 -13.333 -4 -23 -4 -29c0 -17.333 19.833 -29.333 59.5 -36s99.167 -10 178.5 -10h80
c35.333 0 58 -1 68 -3c-12.667 12 -19 25.333 -19 40c0 39.333 11.667 80.5 35 123.5s51.833 78.833 85.5 107.5s63.834 43 90.501 43c32 0 62.667 -12.5 92 -37.5s52.833 -58.5 70.5 -100.5s26.5 -86.333 26.5 -133c0 -9.33301 -1 -17.166 -3 -23.499
s-6.33301 -12.833 -13 -19.5c14 3.33301 29.333 5 46 5h28c3.33301 0 6 -4.83301 8 -14.5zM854.999 262.999c-4 24 -10.832 44.501 -20.499 61.501s-19.834 25.5 -30.501 25.5c-6.66699 0 -16.167 -5 -28.5 -15s-23.333 -21.333 -33 -34s-14.5 -22.334 -14.5 -29.001
c0 -4.66699 3.66699 -10.5 11 -17.5s20 -18.167 38 -33.5z" />
    <glyph glyph-name="uniFB51" unicode="&#x671;" horiz-adv-x="341" arabic-form="final" 
d="M262 781.5c-33.333 -11 -71.667 -16.4961 -115 -16.4961c-55.333 0 -95.333 5.66699 -120 17s-37 29 -37 53v31l-17.5 -29.5c-9 -15 -17.5 -32.167 -25.5 -51.5l-91 47c4 19.333 15.833 43.166 35.5 71.499s44.5 52.666 74.5 72.999s62 29.166 96 26.499l1 -92
c3.33301 -2 6 -3 8 -3c63.333 88 119.333 132 168 132c39.333 0 69 -12.333 89 -37s30 -60.334 30 -107.001c0 -29.333 -6.33301 -52 -19 -68c-18 -20 -43.667 -35.5 -77 -46.5zM196.999 920.004c-15.333 -7.33301 -30.333 -18.334 -45 -33.001
c38 0.666992 76.333 5.33398 115 14.001c-0.666992 12 -3.16699 20 -7.5 24s-11.5 6 -21.5 6c-12 0 -25.667 -3.66699 -41 -11zM349.499 212.503c2.33301 -9.66699 3.49902 -21.832 3.49902 -36.499v-124c0 -14.667 -1.16699 -27 -3.5 -37s-5.16602 -15 -8.49902 -15h-27
c-56 0 -101.167 7.83301 -135.5 23.5s-60.5 44 -78.5 85s-27.667 99.167 -29 174.5l-6 377l172 27l-2 -385c-0.666992 -24.667 3.83301 -43.334 13.5 -56.001s26.834 -19 51.501 -19h41c3.33301 0 6.16602 -4.83301 8.49902 -14.5z" />
    <glyph glyph-name="uniFB57" unicode="&#x67e;" horiz-adv-x="943" arabic-form="final" 
d="M951.5 212.5c2.33301 -9.66699 3.49902 -21.835 3.49902 -36.502v-124c0 -14.667 -1.16699 -27 -3.5 -37s-5.16602 -15 -8.49902 -15c-41.333 0 -77.333 6.16699 -108 18.5s-52.667 31.5 -66 57.5c-12.667 -25.333 -36 -42.666 -70 -51.999
c-27.333 -7.33301 -61.666 -13.833 -102.999 -19.5s-85 -8.5 -131 -8.5c-82 0 -150.5 6 -205.5 18s-98.167 34.833 -129.5 68.5s-47 81.834 -47 144.501c0 15.333 2.66699 41 8 77l25 157l138 -29l-22 -133c-2.66699 -13.333 -4 -23 -4 -29
c0 -17.333 19.833 -29.333 59.5 -36s99.167 -10 178.5 -10c100 0 183.333 6 250 18l-20 143l168 18l8 -170c18 -4 41.667 -6 71 -6c3.33301 0 6.16602 -4.83301 8.49902 -14.5zM563.999 -112.001l115 -97l-97 -115l-109 92l-83 -101l-116 96l98 117l108 -91z
M473.999 -288.001l116 -97l-96 -116l-115 99z" />
    <glyph glyph-name="uniFB58" unicode="&#x67e;" horiz-adv-x="405" arabic-form="initial" 
d="M-8.5 15c-2.33301 10 -3.49902 22.334 -3.49902 37.001v124c0 14.667 1.16699 26.834 3.5 36.501s5.16602 14.5 8.49902 14.5c44.667 0 79.167 1.16699 103.5 3.5s44.166 6.16602 59.499 11.499l-27 206l171 30c5.33301 -63.333 9 -113.333 11 -150s3 -77.334 3 -122.001
c0 -66.667 -23.667 -117.667 -71 -153c-50 -35.333 -133.333 -53 -250 -53c-3.33301 0 -6.16602 5 -8.49902 15zM36.001 -321.999l-115 97l97 116l109 -91l83 99l115 -96l-97 -116l-109 92zM121.001 -276.999l116 -97l-96 -115l-116 98z" />
    <glyph glyph-name="uniFB59" unicode="&#x67e;" horiz-adv-x="424" arabic-form="medial" 
d="M432.5 212.5c2.33301 -9.66699 3.49902 -21.834 3.49902 -36.501v-124c0 -14.667 -1.16699 -27 -3.5 -37s-5.16602 -15 -8.49902 -15c-62.667 0 -109.334 5.16699 -140.001 15.5s-51.667 28.833 -63 55.5c-9.33301 -20 -22.166 -35 -38.499 -45
s-38.5 -16.833 -66.5 -20.5s-66.667 -5.5 -116 -5.5c-3.33301 0 -6.16602 5 -8.49902 15s-3.5 22.333 -3.5 37v124c0 14.667 1.16699 26.834 3.5 36.501s5.16602 14.5 8.49902 14.5c38.667 0 70 1 94 3s43.667 5.66699 59 11l-24 172l170 19l5 -195
c12 -4 26.333 -6.66699 43 -8s42.334 -2 77.001 -2c3.33301 0 6.16602 -4.83301 8.49902 -14.5zM227.999 -101l115 -96l-97 -116l-109 92l-83 -101l-116 97l98 116l108 -91zM137.999 -277l116 -97l-96 -115l-115 98z" />
    <glyph glyph-name="uniFB7B" unicode="&#x686;" horiz-adv-x="814" arabic-form="final" 
d="M822.5 212.5c2.33301 -9.66699 3.49805 -21.834 3.49805 -36.501v-124c0 -14.667 -1.16699 -27 -3.5 -37s-5.16602 -15 -8.49902 -15h-116c-65.333 0 -117.333 13.333 -156 40s-66.334 70.667 -83.001 132c-48 -28 -90.5 -58.333 -127.5 -91s-63.833 -62 -80.5 -88
c-0.666992 -9.33301 -1 -22.333 -1 -39c0 -44 7.16699 -77.333 21.5 -100s38.333 -38.334 72 -47.001s81.834 -13 144.501 -13h205l-47 -229h-183c-126 0 -223.167 29.5 -291.5 88.5s-102.5 148.833 -102.5 269.5c0 84.667 28.5 163.334 85.5 236.001
s132.833 132.334 227.5 179.001l40 18l-48 15c-54 16.667 -90 25 -108 25c-16.667 0 -28.667 -4.5 -36 -13.5s-13.666 -22.833 -18.999 -41.5l-132 27c23.333 140 82.333 210 177 210c22.667 0 45.5 -3 68.5 -9s51.5 -15 85.5 -27l21 -7l36 -12
c56.667 -20 106.5 -35.333 149.5 -46s88.167 -16 135.5 -16l-47 -194c-46.667 -8.66699 -96 -23.667 -148 -45l17 -1c8.66699 0 24.334 0.666992 47.001 2c30.667 2.66699 56 4 76 4h117c3.33301 0 6.16602 -4.83301 8.49902 -14.5zM516.998 -19l-50 -59l-57 48l-42 -52
l-59 49l50 60l56 -47l43 51zM410.998 -60l60 -50l-49 -59l-60 50z" />
    <glyph glyph-name="uniFB7C" unicode="&#x686;" horiz-adv-x="759" arabic-form="initial" 
d="M583 435.5c41.333 -10.333 85.0029 -15.502 131.003 -15.502l-47 -220c-30.667 -3.33301 -58.667 -10.666 -84 -21.999s-57.333 -28.333 -96 -51c-33.333 -20 -61 -35.667 -83 -47c-54.667 -28 -109.334 -48.333 -164.001 -61s-121.667 -19 -201 -19h-39
c-3.33301 0 -6.16602 5 -8.49902 15s-3.5 22.333 -3.5 37v124c0 14.667 1.16699 26.834 3.5 36.501s5.16602 14.5 8.49902 14.5h39c79.333 0 162.333 7.66699 249 23c23.333 4 58.333 13.667 105 29c25.333 8.66699 41.666 13.667 48.999 15l9 2h-2
c-12.667 2.66699 -40.334 11.667 -83.001 27c-58 22 -97.667 33 -119 33c-16 0 -27.833 -4.5 -35.5 -13.5s-14.167 -22.833 -19.5 -41.5l-132 26c23.333 140 82.333 210 177 210c28 0 56 -4 84 -12s64.333 -20.667 109 -38l21 -8c46.667 -18.667 90.667 -33.167 132 -43.5z
M443.003 -83.002l115 -97l-97 -116l-109 92l-83 -100l-115 96l97 116l109 -91zM354.003 -259.002l115 -97l-95 -116l-116 98z" />
    <glyph glyph-name="uniFB7D" unicode="&#x686;" horiz-adv-x="772" arabic-form="medial" 
d="M780.5 212.5c2.33301 -9.66699 3.50293 -21.834 3.50293 -36.501v-124c0 -14.667 -1.16699 -27 -3.5 -37s-5.16602 -15 -8.49902 -15h-151c-44 0 -87.5 6.16699 -130.5 18.5s-73.167 34.833 -90.5 67.5c-52 -29.333 -105.333 -51 -160 -65s-121.667 -21 -201 -21h-39
c-3.33301 0 -6.16602 5 -8.49902 15s-3.5 22.333 -3.5 37v124c0 14.667 1.16699 26.834 3.5 36.501s5.16602 14.5 8.49902 14.5h39c79.333 0 162.333 7.66699 249 23c24 4.66699 58 15 102 31c20.667 8 38 14 52 18c4 1.33301 7.33301 2 10 2l-3 1
c-10.667 2 -42.334 11.333 -95.001 28c-50.667 17.333 -86.334 26 -107.001 26c-16 0 -27.833 -4.5 -35.5 -13.5s-14.167 -22.833 -19.5 -41.5l-132 26c23.333 140 82.333 210 177 210c29.333 0 57.666 -4 84.999 -12s64.333 -20.667 111 -38
c54 -19.333 102.167 -34.333 144.5 -45s87.833 -16 136.5 -16l-41 -181c-22 -3.33301 -47.333 -13 -76 -29c40 7.33301 81.667 11 125 11h50c3.33301 0 6.16602 -4.83301 8.49902 -14.5zM441.003 -85l115 -97l-97 -116l-109 93l-83 -101l-115 96l97 116l109 -90z
M352.003 -261l116 -97l-96 -116l-116 98z" />
    <glyph glyph-name="uniFB8B" unicode="&#x698;" horiz-adv-x="444" arabic-form="final" 
d="M207 662l-116 97l98 115l115 -96zM118 482l-116 97l98 117l109 -92l83 99l116 -96l-98 -115l-109 91zM452.5 212.5c2.33301 -9.66699 3.49805 -21.832 3.49805 -36.499v-124c0 -14.667 -1.16699 -27 -3.5 -37s-5.16602 -15 -8.49902 -15h-16c-32 0 -59 13 -81 39
c-4 -51.333 -15.667 -97 -35 -137s-51.333 -79.5 -96 -118.5s-106 -79.5 -184 -121.5l-119 174c66 34 117.5 62.667 154.5 86s65 44.5 84 63.5s34.167 39.5 45.5 61.5l-46 315l174 36l3 -27l10 -80c2.66699 -20.667 6.83398 -35.334 12.501 -44.001
s14.334 -14.167 26.001 -16.5s31.5 -3.5 59.5 -3.5h8c3.33301 0 6.16602 -4.83301 8.49902 -14.5z" />
    <glyph glyph-name="uniFB8F" unicode="&#x6a9;" horiz-adv-x="958" arabic-form="final" 
d="M966.5 212.5c2.33301 -9.66699 3.50293 -21.8311 3.50293 -36.498v-124c0 -14.667 -1.16699 -27 -3.5 -37s-5.16602 -15 -8.49902 -15h-69c-38.667 0 -70.334 15 -95.001 45c-31.333 -17.333 -72.333 -29.833 -123 -37.5s-114 -11.5 -190 -11.5
c-86.667 0 -158.334 5.66699 -215.001 17s-101.334 33.833 -134.001 67.5s-49 82.167 -49 145.5c0 15.333 2.66699 41 8 77l25 157l138 -28l-22 -133c-2.66699 -13.333 -4 -23 -4 -29c0 -17.333 20 -29.5 60 -36.5s99.333 -10.5 178 -10.5c100 0 182.333 6 247 18
c-6.66699 45.333 -33.167 92.833 -79.5 142.5s-104.5 94.167 -174.5 133.5l-2 171c58.667 31.333 122.5 62.166 191.5 92.499s135.167 57.166 198.5 80.499l21 -186l-80 -32l-81 -33l-56 -23c14 -6 27.667 -15 41 -27c50 -41.333 90.5 -90 121.5 -146
s49.833 -116.333 56.5 -181c8 -4 23.333 -6 46 -6h42c3.33301 0 6.16602 -4.83301 8.49902 -14.5z" />
    <glyph glyph-name="uniFB90" unicode="&#x6a9;" horiz-adv-x="501" arabic-form="initial" 
d="M374 395c32 -64 48.001 -133.002 48.001 -207.002c0 -49.333 -14.5 -87.833 -43.5 -115.5s-73.833 -47 -134.5 -58s-142 -15.833 -244 -14.5c-3.33301 0 -6.16602 5 -8.49902 15s-3.5 22.333 -3.5 37v124c0 14.667 1.16699 26.834 3.5 36.501s5.16602 14.5 8.49902 14.5
c121.333 0 208.333 4.33301 261 13c-6.66699 46 -32.834 93.833 -78.501 143.5s-103.5 94.167 -173.5 133.5l-1 171c57.333 30.667 120.5 61.334 189.5 92.001s135.5 57.667 199.5 81l21 -186l-80 -32l-81 -33l-56 -23c14 -6.66699 27.667 -15.667 41 -27
c56 -46 100 -101 132 -165z" />
    <glyph glyph-name="uniFB91" unicode="&#x6a9;" horiz-adv-x="515" arabic-form="medial" 
d="M523 212.5c2 -9.66699 3.00098 -21.835 3.00098 -36.502v-124c0 -14.667 -1 -27 -3 -37s-4.66699 -15 -8 -15h-62c-22.667 0 -42.5 4.66699 -59.5 14s-30.5 22.333 -40.5 39c-30.667 -18.667 -72 -32.167 -124 -40.5s-117.667 -12.5 -197 -12.5h-32
c-3.33301 0 -6.16602 5 -8.49902 15s-3.5 22.333 -3.5 37v124c0 14.667 1.16699 26.834 3.5 36.501s5.16602 14.5 8.49902 14.5c121.333 0 208.333 4.33301 261 13c-6.66699 46 -32.834 93.833 -78.501 143.5s-103.5 94.167 -173.5 133.5l-1 171
c57.333 30.667 120.5 61.334 189.5 92.001s135.5 57.667 199.5 81l21 -186l-80 -32l-81 -33l-56 -23c14 -6.66699 27.667 -15.667 41 -27c49.333 -40.667 89.5 -88.5 120.5 -143.5s49.833 -114.5 56.5 -178.5c6 -4.66699 12.5 -7.66699 19.5 -9s18.167 -2 33.5 -2h43
c3.33301 0 6 -4.83301 8 -14.5z" />
    <glyph glyph-name="uniFB93" unicode="&#x6af;" horiz-adv-x="958" arabic-form="final" 
d="M698 817l-241 -111l1 107l233 102zM966.5 212.5c2.33301 -9.66699 3.50293 -21.8311 3.50293 -36.498v-124c0 -14.667 -1.16699 -27 -3.5 -37s-5.16602 -15 -8.49902 -15h-69c-38.667 0 -70.334 15 -95.001 45c-31.333 -17.333 -72.333 -29.833 -123 -37.5
s-114 -11.5 -190 -11.5c-86.667 0 -158.334 5.66699 -215.001 17s-101.334 33.833 -134.001 67.5s-49 82.167 -49 145.5c0 15.333 2.66699 41 8 77l25 157l138 -28l-22 -133c-2.66699 -13.333 -4 -23 -4 -29c0 -17.333 20 -29.5 60 -36.5s99.333 -10.5 178 -10.5
c100 0 182.333 6 247 18c-6.66699 45.333 -33.167 92.833 -79.5 142.5s-104.5 94.167 -174.5 133.5l-2 171c58.667 31.333 122.5 62.166 191.5 92.499s135.167 57.166 198.5 80.499l21 -186l-80 -32l-81 -33l-56 -23c14 -6 27.667 -15 41 -27
c50 -41.333 90.5 -90 121.5 -146s49.833 -116.333 56.5 -181c8 -4 23.333 -6 46 -6h42c3.33301 0 6.16602 -4.83301 8.49902 -14.5z" />
    <glyph glyph-name="uniFB94" unicode="&#x6af;" horiz-adv-x="501" arabic-form="initial" 
d="M249 817l-241 -111v107l234 102zM374 395c32 -64 48.001 -133.002 48.001 -207.002c0 -49.333 -14.5 -87.833 -43.5 -115.5s-73.833 -47 -134.5 -58s-142 -15.833 -244 -14.5c-3.33301 0 -6.16602 5 -8.49902 15s-3.5 22.333 -3.5 37v124
c0 14.667 1.16699 26.834 3.5 36.501s5.16602 14.5 8.49902 14.5c121.333 0 208.333 4.33301 261 13c-6.66699 46 -32.834 93.833 -78.501 143.5s-103.5 94.167 -173.5 133.5l-1 171c57.333 30.667 120.5 61.334 189.5 92.001s135.5 57.667 199.5 81l21 -186l-80 -32
l-81 -33l-56 -23c14 -6.66699 27.667 -15.667 41 -27c56 -46 100 -101 132 -165z" />
    <glyph glyph-name="uniFB95" unicode="&#x6af;" horiz-adv-x="515" arabic-form="medial" 
d="M249 817l-241 -111v107l234 102zM523 212.5c2 -9.66699 3.00098 -21.835 3.00098 -36.502v-124c0 -14.667 -1 -27 -3 -37s-4.66699 -15 -8 -15h-62c-22.667 0 -42.5 4.66699 -59.5 14s-30.5 22.333 -40.5 39c-30.667 -18.667 -72 -32.167 -124 -40.5
s-117.667 -12.5 -197 -12.5h-32c-3.33301 0 -6.16602 5 -8.49902 15s-3.5 22.333 -3.5 37v124c0 14.667 1.16699 26.834 3.5 36.501s5.16602 14.5 8.49902 14.5c121.333 0 208.333 4.33301 261 13c-6.66699 46 -32.834 93.833 -78.501 143.5s-103.5 94.167 -173.5 133.5
l-1 171c57.333 30.667 120.5 61.334 189.5 92.001s135.5 57.667 199.5 81l21 -186l-80 -32l-81 -33l-56 -23c14 -6.66699 27.667 -15.667 41 -27c49.333 -40.667 89.5 -88.5 120.5 -143.5s49.833 -114.5 56.5 -178.5c6 -4.66699 12.5 -7.66699 19.5 -9s18.167 -2 33.5 -2h43
c3.33301 0 6 -4.83301 8 -14.5z" />
    <glyph glyph-name="uniFB9F" unicode="&#x6ba;" horiz-adv-x="808" arabic-form="final" 
d="M816.5 212.5c2.33301 -9.66699 3.50195 -21.832 3.50195 -36.499v-124c0 -14.667 -1.16699 -27 -3.5 -37s-5.16602 -15 -8.49902 -15h-10c-38.667 0 -70.334 13.333 -95.001 40c2 -31.333 3 -60 3 -86c0 -48 -18.333 -86.667 -55 -116s-80.334 -50 -131.001 -62
s-99 -18 -145 -18c-194.667 0 -292 73 -292 219c0 66 17.667 189.667 53 371l138 -28c-26 -149.333 -39 -242 -39 -278c0 -24 11.5 -39.5 34.5 -46.5s56.833 -10.5 101.5 -10.5c38.667 0 71.5 1.66699 98.5 5s53.5 9 79.5 17l-49 363l169 38c8 -74.667 13.667 -130 17 -166
c8 -6.66699 19.5 -10.834 34.5 -12.501s40.833 -2.5 77.5 -2.5h10c3.33301 0 6.16602 -4.83301 8.49902 -14.5z" />
    <glyph glyph-name="uniFBA5" unicode="&#x6c0;" horiz-adv-x="583" arabic-form="final" 
d="M380 696.5c-37.333 -29 -91 -43.5 -161 -43.5l16 120c58 -0.666992 105.333 3.33301 142 12h1c-46 6 -79.5 13.833 -100.5 23.5s-31.5 26.834 -31.5 51.501c0 29.333 6.16699 58.666 18.5 87.999s27.5 53.333 45.5 72s35.333 28 52 28c17.333 0 33 -5.16699 47 -15.5
s29.667 -29.833 47 -58.5l-48 -50c-14.667 14 -27.667 21 -39 21c-18 0 -31.667 -16.333 -41 -49c38 -2 65.5 -9 82.5 -21s25.5 -34.333 25.5 -67c0 -45.333 -18.667 -82.5 -56 -111.5zM582 212.5c2 -9.66699 2.99707 -21.833 2.99707 -36.5v-124c0 -14.667 -1 -27 -3 -37
s-4.66699 -15 -8 -15h-42c-45.333 -0 -80.5 8.83301 -105.5 26.5s-42.833 44.5 -53.5 80.5l-3 -7c-4.66699 -10.667 -10.334 -19 -17.001 -25s-15 -10 -25 -12c-26.667 -6 -65.667 -9 -117 -9c-42.667 0 -76.167 11.667 -100.5 35s-36.5 56.333 -36.5 99
c0 58.667 4.83301 103.667 14.5 135s28.834 59.833 57.501 85.5s76 57.167 142 94.5l-8 76l159 49l33 -317c2.66699 -24 5.33398 -41.333 8.00098 -52s8.33398 -18.667 17.001 -24s22.334 -8 41.001 -8h36c3.33301 0 6 -4.83301 8 -14.5zM335.997 259.001l-13.002 86.001
c-40.667 -16.667 -69.167 -32.334 -85.5 -47.001s-27.166 -30.667 -32.499 -48l30 -3c34.667 -2 68.334 2 101.001 12z" />
    <glyph glyph-name="uniFBFD" unicode="&#x6cc;" horiz-adv-x="785" arabic-form="final" 
d="M793.5 212.5c2.33301 -9.66699 3.5 -21.833 3.5 -36.5v-124c0 -14.667 -1.16699 -27 -3.5 -37s-5.16602 -15 -8.49902 -15l-24 1v-11c0 -50.667 -16.167 -96.667 -48.5 -138s-77.833 -74 -136.5 -98s-125.667 -36 -201 -36c-103.333 0 -177.833 18.833 -223.5 56.5
s-68.5 91.834 -68.5 162.501c0 66 17.667 189.667 53 371l138 -28c-26 -149.333 -39 -242 -39 -278c0 -24 12 -39.5 36 -46.5s61 -10.5 111 -10.5c49.333 0 96.333 3.66699 141 11s78 17.666 100 30.999c-14.667 12 -43.667 19 -87 21l-60 2l32 217h277
c3.33301 0 6.16602 -4.83301 8.49902 -14.5z" />
    <glyph glyph-name="uniFBFE" unicode="&#x6cc;" horiz-adv-x="400" arabic-form="initial" 
d="M-8.5 15c-2.33301 10 -3.49902 22.334 -3.49902 37.001v124c0 14.667 1.16699 26.834 3.5 36.501s5.16602 14.5 8.49902 14.5c44.667 0 79.167 1.16699 103.5 3.5s44.166 6.16602 59.499 11.499l-27 206l171 30c5.33301 -63.333 9 -113.333 11 -150s3 -77.334 3 -122.001
c0 -66.667 -23.667 -117.667 -71 -153c-50 -35.333 -133.333 -53 -250 -53c-3.33301 0 -6.16602 5 -8.49902 15zM243.001 -336.999l-116 98l-89 -108l-122 103l102 124l117 -98l89 106l122 -102z" />
    <glyph glyph-name="uniFBFF" unicode="&#x6cc;" horiz-adv-x="424" arabic-form="medial" 
d="M432.5 212.5c2.33301 -9.66699 3.49902 -21.834 3.49902 -36.501v-124c0 -14.667 -1.16699 -27 -3.5 -37s-5.16602 -15 -8.49902 -15c-62.667 0 -109.334 5.16699 -140.001 15.5s-51.667 28.833 -63 55.5c-9.33301 -20 -22.166 -35 -38.499 -45
s-38.5 -16.833 -66.5 -20.5s-66.667 -5.5 -116 -5.5c-3.33301 0 -6.16602 5 -8.49902 15s-3.5 22.333 -3.5 37v124c0 14.667 1.16699 26.834 3.5 36.501s5.16602 14.5 8.49902 14.5c38.667 0 70 1 94 3s43.667 5.66699 59 11l-24 172l170 19l5 -195
c12 -4 26.333 -6.66699 43 -8s42.334 -2 77.001 -2c3.33301 0 6.16602 -4.83301 8.49902 -14.5zM259.999 -112l122 -102l-103 -123l-116 98l-89 -108l-122 103l102 124l117 -98z" />
    <glyph glyph-name="uniFDFC" unicode="&#xfdfc;" horiz-adv-x="1821" arabic-form="isolated" 
d="M699 -46c1.33301 -46.667 -16 -84.668 -52 -114.001s-80 -50.333 -132 -63s-103.333 -19 -154 -19c-97.333 0 -168 18.833 -212 56.5s-66 91.834 -66 162.501c0 56.667 17.667 175.667 53 357l138 -28c-9.33301 -52 -18 -105.5 -26 -160.5s-12.333 -93.833 -13 -116.5
c-0.666992 -29.333 40 -44 122 -44c44 0 80.167 1.83301 108.5 5.5s58.833 9.16699 91.5 16.5l-60 752l171 28zM1344 52.999c-51.333 -35.333 -134.667 -52.998 -250 -52.998c-78 0 -137.5 7.83301 -178.5 23.5s-70.667 44.5 -89 86.5s-28.833 104.333 -31.5 187l-16 462
l170 28l-7 -480c0 -24 3.66699 -43.333 11 -58s21 -22 41 -22h100c28 0 57.167 1.16699 87.5 3.5s55.5 5.16602 75.5 8.49902l-27 220l165 32c6.66699 -58 11.667 -108.833 15 -152.5s5 -87.834 5 -132.501c0 -66.667 -23.667 -117.667 -71 -153zM1731.5 222.001
c4.33301 -45.333 6.5 -89.333 6.5 -132c0 -58.667 -6.33301 -107.167 -19 -145.5s-35 -75.666 -67 -111.999s-81 -82.166 -147 -137.499l-157 149c68 47.333 117.833 84.666 149.5 111.999s59.5 57.666 83.5 90.999l-43 315l174 36c8.66699 -72 15.167 -130.667 19.5 -176z
M1147 -116.999l122 -102l-103 -123l-116 98l-89 -108l-122 103l102 124l117 -98z" />
    <glyph glyph-name="uniFE82" unicode="&#x622;" horiz-adv-x="352" arabic-form="final" 
d="M114 774c-12 2 -21.335 3.00098 -28.002 3.00098c-5.33301 0 -10 -2.83301 -14 -8.5s-9.33301 -18.834 -16 -39.501l-122 30c12 51.333 24.5 91 37.5 119s28.5 47.833 46.5 59.5s40.333 17.5 67 17.5c12.667 0 30 -1.66699 52 -5c26.667 -4 49.834 -7 69.501 -9
s43.167 -2.66699 70.5 -2h105l-39 -175l-93 -1c-55.333 0 -100.666 3.66699 -135.999 11zM360.498 212.501c2.33301 -9.66699 3.49805 -21.832 3.49805 -36.499v-124c0 -14.667 -1.16699 -27 -3.5 -37s-5.16602 -15 -8.49902 -15h-26c-56 0 -101.167 7.83301 -135.5 23.5
s-60.666 44 -78.999 85s-27.833 99.167 -28.5 174.5l-7 377l172 27l-2 -385c-0.666992 -24.667 3.83301 -43.334 13.5 -56.001s26.834 -19 51.501 -19h41c3.33301 0 6.16602 -4.83301 8.49902 -14.5z" />
    <glyph glyph-name="uniFE84" unicode="&#x623;" horiz-adv-x="341" arabic-form="final" 
d="M299 825l-358 -82.999l-18 130l99 20c-12 30.667 -18 58.667 -18 84c0 6 0.666992 15 2 27c3.33301 34.667 17.333 62.5 42 83.5s56.667 31.5 96 31.5c6 0 16.333 -0.666992 31 -2c11.333 -0.666992 29 -4.33398 53 -11.001l-31 -125c-14.667 4 -28.334 7 -41.001 9
c-13.333 1.33301 -22.666 2 -27.999 2l-17 -1c0 -20.667 5.33301 -45 16 -73l155 39zM349.5 212.501c2.33301 -9.66699 3.49902 -21.832 3.49902 -36.499v-124c0 -14.667 -1.16699 -27 -3.5 -37s-5.16602 -15 -8.49902 -15h-27c-56 0 -101.167 7.83301 -135.5 23.5
s-60.5 44 -78.5 85s-27.667 99.167 -29 174.5l-6 377l172 27l-2 -385c-0.666992 -24.667 3.83301 -43.334 13.5 -56.001s26.834 -19 51.501 -19h41c3.33301 0 6.16602 -4.83301 8.49902 -14.5z" />
    <glyph glyph-name="uniFE86" unicode="&#x624;" horiz-adv-x="526" arabic-form="final" 
d="M43 657l99.999 20c-12.667 30.667 -19 59.667 -19 87c0 41.333 12.5 74.833 37.5 100.5s59.5 38.5 103.5 38.5c6.66699 0 16.667 -0.666992 30 -2c14.667 -1.33301 32.334 -5 53.001 -11l-30 -125c-16 4 -30 7 -42 9c-12 1.33301 -21 2 -27 2l-17 -1
c0 -22 5 -46.333 15 -73l156 38l17 -131l-358 -82zM534.499 212.5c2.33301 -9.66699 3.5 -21.833 3.5 -36.5v-124c0 -14.667 -1.16699 -27 -3.5 -37s-5.16602 -15 -8.49902 -15h-67c-38 -138.667 -145.667 -247.334 -323 -326.001l-114 173
c60 21.333 115.667 47.166 167 77.499s90.333 58.833 117 85.5c-22.667 -5.33301 -46 -8 -70 -8c-41.333 0 -75.333 5 -102 15c-9.33301 3.33301 -17.166 9 -23.499 17s-15.833 22.667 -28.5 44c-10 18.667 -16.833 33.167 -20.5 43.5s-5.16699 20.5 -4.5 30.5
c4 92.667 24.167 166.334 60.5 221.001s87.166 82 152.499 82c48 0 90.5 -19.667 127.5 -59s61.167 -95.666 72.5 -168.999h56c3.33301 0 6.16602 -4.83301 8.49902 -14.5zM269.999 180.001c24 0 44 1 60 3c0 31.333 -6.33301 55.333 -19 72s-29 25 -49 25
c-17.333 0 -31.333 -8.16699 -42 -24.5s-17 -40.5 -19 -72.5c18 -2 41 -3 69 -3z" />
    <glyph glyph-name="uniFE88" unicode="&#x625;" horiz-adv-x="342" arabic-form="final" 
d="M350.5 212.5c2.33301 -9.66699 3.5 -21.832 3.5 -36.499v-124c0 -14.667 -1.16699 -27 -3.5 -37s-5.16602 -15 -8.49902 -15h-27c-56 0 -101.167 7.83301 -135.5 23.5s-60.5 44 -78.5 85s-27.667 99.167 -29 174.5l-6 476l173 28l-3 -485
c0 -24.667 4.66699 -43.334 14 -56.001s26.333 -19 51 -19h41c3.33301 0 6.16602 -4.83301 8.49902 -14.5zM311 -260.998l18 -131l-359 -83l-18 131l100 20c-12.667 29.333 -19 57.333 -19 84c0 6 0.666992 15 2 27c4 34.667 18.5 62.5 43.5 83.5s57.167 31.5 96.5 31.5
c6 0 15.667 -0.666992 29 -2c14.667 -1.33301 32.334 -5 53.001 -11l-31 -125c-4 0.666992 -10.167 2 -18.5 4s-15.833 3.33301 -22.5 4c-18.667 2 -33.334 2.66699 -44.001 2c0 -22 5 -46.333 15 -73z" />
    <glyph glyph-name="uniFE8A" unicode="&#x626;" horiz-adv-x="785" arabic-form="final" 
d="M416 481l-358 -81.999l-19 130l100 20c-12.667 30.667 -19 59.667 -19 87c0 41.333 12.667 74.833 38 100.5s60 38.5 104 38.5c6.66699 0 16.667 -0.666992 30 -2c10.667 -0.666992 28 -4.33398 52 -11.001l-30 -125c-16 4 -30 7 -42 9c-12 1.33301 -21 2 -27 2l-17 -1
c0 -22 5 -46.333 15 -73l156 39zM793.5 212.501c2.33301 -9.66699 3.5 -21.833 3.5 -36.5v-124c0 -14.667 -1.16699 -27 -3.5 -37s-5.16602 -15 -8.49902 -15l-24 1v-11c0 -50.667 -16.167 -96.667 -48.5 -138s-77.833 -74 -136.5 -98s-125.667 -36 -201 -36
c-103.333 0 -177.833 18.833 -223.5 56.5s-68.5 91.834 -68.5 162.501c0 66 17.667 189.667 53 371l138 -28c-26 -149.333 -39 -242 -39 -278c0 -24 12 -39.5 36 -46.5s61 -10.5 111 -10.5c49.333 0 96.333 3.66699 141 11s78 17.666 100 30.999
c-14.667 12 -43.667 19 -87 21l-60 2l32 217h277c3.33301 0 6.16602 -4.83301 8.49902 -14.5z" />
    <glyph glyph-name="uniFE8B" unicode="&#x626;" horiz-adv-x="405" arabic-form="initial" 
d="M343 583l-358.001 -83l-19 130l100 20c-12.667 30.667 -19 59.334 -19 86.001c0 6 0.666992 14.333 2 25c4 35.333 18.333 63.333 43 84s56.667 31 96 31c6.66699 0 16.667 -0.666992 30 -2c11.333 -0.666992 29 -4.33398 53 -11.001l-30 -125c-16 4 -30 7 -42 9
c-13.333 1.33301 -22.666 2 -27.999 2l-16 -1c0 -22.667 5 -46.667 15 -72l155 38zM306.999 478c5.33301 -63.333 9.00098 -113.332 11.001 -149.999s3 -77.334 3 -122.001c0 -66.667 -23.667 -117.667 -71 -153c-50 -35.333 -133.333 -53 -250 -53
c-3.33301 0 -6.16602 5 -8.49902 15s-3.5 22.333 -3.5 37v124c0 14.667 1.16699 26.834 3.5 36.501s5.16602 14.5 8.49902 14.5c44.667 0 79.167 1.16699 103.5 3.5s44.166 6.16602 59.499 11.499l-27 206z" />
    <glyph glyph-name="uniFE8C" unicode="&#x626;" horiz-adv-x="424" arabic-form="medial" 
d="M12 645l99.999 20c-12.667 30.667 -19 59.334 -19 86.001c0 6 0.666992 14.333 2 25c4 35.333 18.333 63.333 43 84s56.667 31 96 31c6.66699 0 16.667 -0.666992 30 -2c11.333 -0.666992 29 -4.33398 53 -11.001l-30 -125c-16 4 -30 7 -42 9
c-13.333 1.33301 -22.666 2 -27.999 2l-16 -1c0 -22 5 -46.333 15 -73l155 39l18 -132l-358 -82zM432.499 212.5c2.33301 -9.66699 3.49902 -21.834 3.49902 -36.501v-124c0 -14.667 -1.16699 -27 -3.5 -37s-5.16602 -15 -8.49902 -15
c-62.667 0 -109.334 5.16699 -140.001 15.5s-51.667 28.833 -63 55.5c-9.33301 -20 -22.166 -35 -38.499 -45s-38.5 -16.833 -66.5 -20.5s-66.667 -5.5 -116 -5.5c-3.33301 0 -6.16602 5 -8.49902 15s-3.5 22.333 -3.5 37v124c0 14.667 1.16699 26.834 3.5 36.501
s5.16602 14.5 8.49902 14.5c38.667 0 70 1 94 3s43.667 5.66699 59 11l-24 172l170 19l5 -195c12 -4 26.333 -6.66699 43 -8s42.334 -2 77.001 -2c3.33301 0 6.16602 -4.83301 8.49902 -14.5z" />
    <glyph glyph-name="uniFE8E" unicode="&#x627;" horiz-adv-x="342" arabic-form="final" 
d="M350.5 212.5c2.33301 -9.66699 3.5 -21.832 3.5 -36.499v-124c0 -14.667 -1.16699 -27 -3.5 -37s-5.16602 -15 -8.49902 -15h-27c-56 0 -101.167 7.83301 -135.5 23.5s-60.5 44 -78.5 85s-27.667 99.167 -29 174.5l-6 476l173 28l-3 -485
c0 -24.667 4.66699 -43.334 14 -56.001s26.333 -19 51 -19h41c3.33301 0 6.16602 -4.83301 8.49902 -14.5z" />
    <glyph glyph-name="uniFE90" unicode="&#x628;" horiz-adv-x="943" arabic-form="final" 
d="M951.5 212.5c2.33301 -9.66699 3.49902 -21.835 3.49902 -36.502v-124c0 -14.667 -1.16699 -27 -3.5 -37s-5.16602 -15 -8.49902 -15c-41.333 0 -77.333 6.16699 -108 18.5s-52.667 31.5 -66 57.5c-12.667 -25.333 -36 -42.666 -70 -51.999
c-27.333 -7.33301 -61.666 -13.833 -102.999 -19.5s-85 -8.5 -131 -8.5c-82 0 -150.5 6 -205.5 18s-98.167 34.833 -129.5 68.5s-47 81.834 -47 144.501c0 15.333 2.66699 41 8 77l25 157l138 -29l-22 -133c-2.66699 -13.333 -4 -23 -4 -29
c0 -17.333 19.833 -29.333 59.5 -36s99.167 -10 178.5 -10c100 0 183.333 6 250 18l-20 143l168 18l8 -170c18 -4 41.667 -6 71 -6c3.33301 0 6.16602 -4.83301 8.49902 -14.5zM452.999 -115.001l136 -113l-113 -135l-135 113z" />
    <glyph glyph-name="uniFE91" unicode="&#x628;" horiz-adv-x="405" arabic-form="initial" 
d="M318 328c2 -36.667 3.00098 -77.333 3.00098 -122c0 -66.667 -23.667 -117.667 -71 -153c-50 -35.333 -133.333 -53 -250 -53c-3.33301 0 -6.16602 5 -8.49902 15s-3.5 22.333 -3.5 37v124c0 14.667 1.16699 26.834 3.5 36.501s5.16602 14.5 8.49902 14.5
c44.667 0 79.167 1.16699 103.5 3.5s44.166 6.16602 59.499 11.499l-27 206l171 30c5.33301 -63.333 9 -113.333 11 -150zM76.001 -114.999l135 -113l-113 -135l-135 113z" />
    <glyph glyph-name="uniFE92" unicode="&#x628;" horiz-adv-x="424" arabic-form="medial" 
d="M432.5 212.5c2.33301 -9.66699 3.49902 -21.834 3.49902 -36.501v-124c0 -14.667 -1.16699 -27 -3.5 -37s-5.16602 -15 -8.49902 -15c-62.667 0 -109.334 5.16699 -140.001 15.5s-51.667 28.833 -63 55.5c-9.33301 -20 -22.166 -35 -38.499 -45
s-38.5 -16.833 -66.5 -20.5s-66.667 -5.5 -116 -5.5c-3.33301 0 -6.16602 5 -8.49902 15s-3.5 22.333 -3.5 37v124c0 14.667 1.16699 26.834 3.5 36.501s5.16602 14.5 8.49902 14.5c38.667 0 70 1 94 3s43.667 5.66699 59 11l-24 172l170 19l5 -195
c12 -4 26.333 -6.66699 43 -8s42.334 -2 77.001 -2c3.33301 0 6.16602 -4.83301 8.49902 -14.5zM138.999 -115l136 -113l-113 -135l-135 113z" />
    <glyph glyph-name="uniFE94" unicode="&#x629;" horiz-adv-x="574" arabic-form="final" 
d="M260 675l-122 102l102 123l116 -97l90 106l122 -103l-103 -122l-115 97zM582.5 212.5c2.33301 -9.66699 3.49805 -21.834 3.49805 -36.501v-124c0 -14.667 -1.16699 -27 -3.5 -37s-5.16602 -15 -8.49902 -15h-41c-46 0 -81.5 9 -106.5 27s-42.5 44.667 -52.5 80l-3 -7
c-8.66699 -20.667 -23 -33 -43 -37c-26 -6 -65 -9 -117 -9c-42.667 0 -76.167 11.667 -100.5 35s-36.5 56.333 -36.5 99c0 58.667 4.83301 103.667 14.5 135s28.834 59.833 57.501 85.5s76 57.167 142 94.5l-8 76l160 49l32 -317c2.66699 -24.667 5.5 -42.167 8.5 -52.5
s8.83301 -18.166 17.5 -23.499s22.334 -8 41.001 -8h35c3.33301 0 6.16602 -4.83301 8.49902 -14.5zM287.498 249c18.333 2 34.498 5.33398 48.498 10.001l-12 86c-41.333 -16.667 -70.166 -32.334 -86.499 -47.001s-27.166 -30.667 -32.499 -48l30 -3
c16.667 -0.666992 34.167 0 52.5 2z" />
    <glyph glyph-name="uniFE96" unicode="&#x62a;" horiz-adv-x="943" arabic-form="final" 
d="M406 456l-122 102l102 123l116 -97l90 106l122 -103l-102 -122l-116 97zM951.5 212.5c2.33301 -9.66699 3.49902 -21.835 3.49902 -36.502v-124c0 -14.667 -1.16699 -27 -3.5 -37s-5.16602 -15 -8.49902 -15c-41.333 0 -77.333 6.16699 -108 18.5s-52.667 31.5 -66 57.5
c-12.667 -25.333 -36 -42.666 -70 -51.999c-27.333 -7.33301 -61.666 -13.833 -102.999 -19.5s-85 -8.5 -131 -8.5c-82 0 -150.5 6 -205.5 18s-98.167 34.833 -129.5 68.5s-47 81.834 -47 144.501c0 15.333 2.66699 41 8 77l25 157l138 -29l-22 -133
c-2.66699 -13.333 -4 -23 -4 -29c0 -17.333 19.833 -29.333 59.5 -36s99.167 -10 178.5 -10c100 0 183.333 6 250 18l-20 143l168 18l8 -170c18 -4 41.667 -6 71 -6c3.33301 0 6.16602 -4.83301 8.49902 -14.5z" />
    <glyph glyph-name="uniFE97" unicode="&#x62a;" horiz-adv-x="405" arabic-form="initial" 
d="M87 568l-122 102l103 123l115 -97l91 106l122 -103l-103 -122l-116 97zM307 478c5.33301 -63.333 9.00098 -113.332 11.001 -149.999s3 -77.334 3 -122.001c0 -66.667 -23.667 -117.667 -71 -153c-50 -35.333 -133.333 -53 -250 -53c-3.33301 0 -6.16602 5 -8.49902 15
s-3.5 22.333 -3.5 37v124c0 14.667 1.16699 26.834 3.5 36.501s5.16602 14.5 8.49902 14.5c44.667 0 79.167 1.16699 103.5 3.5s44.166 6.16602 59.499 11.499l-27 206z" />
    <glyph glyph-name="uniFE98" unicode="&#x62a;" horiz-adv-x="424" arabic-form="medial" 
d="M110 506l-122 103l103 122l115 -97l90 106l123 -103l-103 -122l-116 97zM432.5 212.5c2.33301 -9.66699 3.49902 -21.834 3.49902 -36.501v-124c0 -14.667 -1.16699 -27 -3.5 -37s-5.16602 -15 -8.49902 -15c-62.667 0 -109.334 5.16699 -140.001 15.5
s-51.667 28.833 -63 55.5c-9.33301 -20 -22.166 -35 -38.499 -45s-38.5 -16.833 -66.5 -20.5s-66.667 -5.5 -116 -5.5c-3.33301 0 -6.16602 5 -8.49902 15s-3.5 22.333 -3.5 37v124c0 14.667 1.16699 26.834 3.5 36.501s5.16602 14.5 8.49902 14.5c38.667 0 70 1 94 3
s43.667 5.66699 59 11l-24 172l170 19l5 -195c12 -4 26.333 -6.66699 43 -8s42.334 -2 77.001 -2c3.33301 0 6.16602 -4.83301 8.49902 -14.5z" />
    <glyph glyph-name="uniFE9A" unicode="&#x62b;" horiz-adv-x="943" arabic-form="final" 
d="M495 646l-116 96l98 115l115 -96zM406 465l-116 98l98 117l109 -92l83 99l116 -96l-97 -115l-109 91zM951.5 212.5c2.33301 -9.66699 3.49902 -21.835 3.49902 -36.502v-124c0 -14.667 -1.16699 -27 -3.5 -37s-5.16602 -15 -8.49902 -15
c-41.333 0 -77.333 6.16699 -108 18.5s-52.667 31.5 -66 57.5c-12.667 -25.333 -36 -42.666 -70 -51.999c-27.333 -7.33301 -61.666 -13.833 -102.999 -19.5s-85 -8.5 -131 -8.5c-82 0 -150.5 6 -205.5 18s-98.167 34.833 -129.5 68.5s-47 81.834 -47 144.501
c0 15.333 2.66699 41 8 77l25 157l138 -29l-22 -133c-2.66699 -13.333 -4 -23 -4 -29c0 -17.333 19.833 -29.333 59.5 -36s99.167 -10 178.5 -10c100 0 183.333 6 250 18l-20 143l168 18l8 -170c18 -4 41.667 -6 71 -6c3.33301 0 6.16602 -4.83301 8.49902 -14.5z" />
    <glyph glyph-name="uniFE9B" unicode="&#x62b;" horiz-adv-x="405" arabic-form="initial" 
d="M183 756l-116 96l98 115l115 -96zM94 575l-116 98l98 116l108 -91l84 98l115 -95l-97 -116l-109 92zM307 478c5.33301 -63.333 9.00098 -113.332 11.001 -149.999s3 -77.334 3 -122.001c0 -66.667 -23.667 -117.667 -71 -153c-50 -35.333 -133.333 -53 -250 -53
c-3.33301 0 -6.16602 5 -8.49902 15s-3.5 22.333 -3.5 37v124c0 14.667 1.16699 26.834 3.5 36.501s5.16602 14.5 8.49902 14.5c44.667 0 79.167 1.16699 103.5 3.5s44.166 6.16602 59.499 11.499l-27 206z" />
    <glyph glyph-name="uniFE9C" unicode="&#x62b;" horiz-adv-x="424" arabic-form="medial" 
d="M200 694l-115 96l97 115l115 -96zM112 513l-116 98l97 117l109 -92l83 98l116 -95l-97 -116l-109 92zM432.5 212.5c2.33301 -9.66699 3.49902 -21.834 3.49902 -36.501v-124c0 -14.667 -1.16699 -27 -3.5 -37s-5.16602 -15 -8.49902 -15
c-62.667 0 -109.334 5.16699 -140.001 15.5s-51.667 28.833 -63 55.5c-9.33301 -20 -22.166 -35 -38.499 -45s-38.5 -16.833 -66.5 -20.5s-66.667 -5.5 -116 -5.5c-3.33301 0 -6.16602 5 -8.49902 15s-3.5 22.333 -3.5 37v124c0 14.667 1.16699 26.834 3.5 36.501
s5.16602 14.5 8.49902 14.5c38.667 0 70 1 94 3s43.667 5.66699 59 11l-24 172l170 19l5 -195c12 -4 26.333 -6.66699 43 -8s42.334 -2 77.001 -2c3.33301 0 6.16602 -4.83301 8.49902 -14.5z" />
    <glyph glyph-name="uniFE9E" unicode="&#x62c;" horiz-adv-x="814" arabic-form="final" 
d="M822.5 212.5c2.33301 -9.66699 3.49805 -21.834 3.49805 -36.501v-124c0 -14.667 -1.16699 -27 -3.5 -37s-5.16602 -15 -8.49902 -15h-116c-65.333 0 -117.333 13.333 -156 40s-66.334 70.667 -83.001 132c-48 -28 -90.5 -58.333 -127.5 -91s-63.833 -62 -80.5 -88
c-0.666992 -9.33301 -1 -22.333 -1 -39c0 -44 7.16699 -77.333 21.5 -100s38.333 -38.334 72 -47.001s81.834 -13 144.501 -13h205l-47 -229h-183c-126 0 -223.167 29.5 -291.5 88.5s-102.5 148.833 -102.5 269.5c0 84.667 28.5 163.334 85.5 236.001
s132.833 132.334 227.5 179.001l40 18l-48 15c-54 16.667 -90 25 -108 25c-16.667 0 -28.667 -4.5 -36 -13.5s-13.666 -22.833 -18.999 -41.5l-132 27c23.333 140 82.333 210 177 210c22.667 0 45.5 -3 68.5 -9s51.5 -15 85.5 -27l21 -7l36 -12
c56.667 -20 106.5 -35.333 149.5 -46s88.167 -16 135.5 -16l-47 -194c-46.667 -8.66699 -96 -23.667 -148 -45l17 -1c8.66699 0 24.334 0.666992 47.001 2c30.667 2.66699 56 4 76 4h117c3.33301 0 6.16602 -4.83301 8.49902 -14.5zM422.998 41l109 -91l-91 -108l-108 91z
" />
    <glyph glyph-name="uniFE9F" unicode="&#x62c;" horiz-adv-x="759" arabic-form="initial" 
d="M583 435.5c41.333 -10.333 85.002 -15.5 131.002 -15.5l-47 -220c-30.667 -3.33301 -58.667 -10.666 -84 -21.999s-57.333 -28.333 -96 -51c-33.333 -20 -61 -35.667 -83 -47c-54.667 -28 -109.334 -48.333 -164.001 -61s-121.667 -19 -201 -19h-39
c-3.33301 0 -6.16602 5 -8.49902 15s-3.5 22.333 -3.5 37v124c0 14.667 1.16699 26.834 3.5 36.501s5.16602 14.5 8.49902 14.5h39c86 0 169 7.66699 249 23c35.333 6.66699 72.333 17 111 31c24 7.33301 38.333 11.666 43 12.999l9 2h-2
c-12.667 2.66699 -40.334 11.667 -83.001 27c-31.333 11.333 -56 19.666 -74 24.999s-33 8 -45 8c-16 0 -27.833 -4.5 -35.5 -13.5s-14.167 -22.833 -19.5 -41.5l-132 26c23.333 140 82.333 210 177 210c28 0 56 -4 84 -12s64.333 -20.667 109 -38l21 -8
c46.667 -18.667 90.667 -33.167 132 -43.5zM315.002 -87l135 -113l-113 -135l-135 113z" />
    <glyph glyph-name="uniFEA0" unicode="&#x62c;" horiz-adv-x="772" arabic-form="medial" 
d="M780.5 212.5c2.33301 -9.66699 3.50293 -21.834 3.50293 -36.501v-124c0 -14.667 -1.16699 -27 -3.5 -37s-5.16602 -15 -8.49902 -15h-151c-44 0 -87.5 6.16699 -130.5 18.5s-73.167 34.833 -90.5 67.5c-52 -29.333 -105.333 -51 -160 -65s-121.667 -21 -201 -21h-39
c-3.33301 0 -6.16602 5 -8.49902 15s-3.5 22.333 -3.5 37v124c0 14.667 1.16699 26.834 3.5 36.501s5.16602 14.5 8.49902 14.5h39c79.333 0 162.333 7.66699 249 23c24 4.66699 58 15 102 31c20.667 8 38 14 52 18c4 1.33301 7.33301 2 10 2l-3 1
c-10.667 2 -42.334 11.333 -95.001 28c-50.667 17.333 -86.334 26 -107.001 26c-16 0 -27.833 -4.5 -35.5 -13.5s-14.167 -22.833 -19.5 -41.5l-132 26c23.333 140 82.333 210 177 210c29.333 0 57.666 -4 84.999 -12s64.333 -20.667 111 -38
c54 -19.333 102.167 -34.333 144.5 -45s87.833 -16 136.5 -16l-41 -181c-22 -3.33301 -47.333 -13 -76 -29c40 7.33301 81.667 11 125 11h50c3.33301 0 6.16602 -4.83301 8.49902 -14.5zM315.003 -90l135 -113l-113 -135l-135 113z" />
    <glyph glyph-name="uniFEA2" unicode="&#x62d;" horiz-adv-x="814" arabic-form="final" 
d="M822.5 212.5c2.33301 -9.66699 3.49805 -21.834 3.49805 -36.501v-124c0 -14.667 -1.16699 -27 -3.5 -37s-5.16602 -15 -8.49902 -15h-116c-65.333 0 -117.333 13.333 -156 40s-66.334 70.667 -83.001 132c-48 -28 -90.5 -58.333 -127.5 -91s-63.833 -62 -80.5 -88
c-0.666992 -9.33301 -1 -22.333 -1 -39c0 -44 7.16699 -77.333 21.5 -100s38.333 -38.334 72 -47.001s81.834 -13 144.501 -13h205l-47 -229h-183c-126 0 -223.167 29.5 -291.5 88.5s-102.5 148.833 -102.5 269.5c0 84.667 28.5 163.334 85.5 236.001
s132.833 132.334 227.5 179.001l40 18l-48 15c-54 16.667 -90 25 -108 25c-16.667 0 -28.667 -4.5 -36 -13.5s-13.666 -22.833 -18.999 -41.5l-132 27c23.333 140 82.333 210 177 210c22.667 0 45.5 -3 68.5 -9s51.5 -15 85.5 -27l21 -7l36 -12
c56.667 -20 106.5 -35.333 149.5 -46s88.167 -16 135.5 -16l-47 -194c-46.667 -8.66699 -96 -23.667 -148 -45l17 -1c8.66699 0 24.334 0.666992 47.001 2c30.667 2.66699 56 4 76 4h117c3.33301 0 6.16602 -4.83301 8.49902 -14.5z" />
    <glyph glyph-name="uniFEA3" unicode="&#x62d;" horiz-adv-x="759" arabic-form="initial" 
d="M583 435.5c41.333 -10.333 85.002 -15.5 131.002 -15.5l-47 -220c-30.667 -3.33301 -58.667 -10.666 -84 -21.999s-57.333 -28.333 -96 -51c-33.333 -20 -61 -35.667 -83 -47c-54.667 -28 -109.334 -48.333 -164.001 -61s-121.667 -19 -201 -19h-39
c-3.33301 0 -6.16602 5 -8.49902 15s-3.5 22.333 -3.5 37v124c0 14.667 1.16699 26.834 3.5 36.501s5.16602 14.5 8.49902 14.5h39c86 0 169 7.66699 249 23c35.333 6.66699 72.333 17 111 31c24 7.33301 38.333 11.666 43 12.999l9 2h-2
c-12.667 2.66699 -40.334 11.667 -83.001 27c-31.333 11.333 -56 19.666 -74 24.999s-33 8 -45 8c-16 0 -27.833 -4.5 -35.5 -13.5s-14.167 -22.833 -19.5 -41.5l-132 26c23.333 140 82.333 210 177 210c28 0 56 -4 84 -12s64.333 -20.667 109 -38l21 -8
c46.667 -18.667 90.667 -33.167 132 -43.5z" />
    <glyph glyph-name="uniFEA4" unicode="&#x62d;" horiz-adv-x="772" arabic-form="medial" 
d="M780.5 212.5c2.33301 -9.66699 3.50293 -21.834 3.50293 -36.501v-124c0 -14.667 -1.16699 -27 -3.5 -37s-5.16602 -15 -8.49902 -15h-151c-44 0 -87.5 6.16699 -130.5 18.5s-73.167 34.833 -90.5 67.5c-52 -29.333 -105.333 -51 -160 -65s-121.667 -21 -201 -21h-39
c-3.33301 0 -6.16602 5 -8.49902 15s-3.5 22.333 -3.5 37v124c0 14.667 1.16699 26.834 3.5 36.501s5.16602 14.5 8.49902 14.5h39c79.333 0 162.333 7.66699 249 23c24 4.66699 58 15 102 31c20.667 8 38 14 52 18c4 1.33301 7.33301 2 10 2l-3 1
c-10.667 2 -42.334 11.333 -95.001 28c-50.667 17.333 -86.334 26 -107.001 26c-16 0 -27.833 -4.5 -35.5 -13.5s-14.167 -22.833 -19.5 -41.5l-132 26c23.333 140 82.333 210 177 210c29.333 0 57.666 -4 84.999 -12s64.333 -20.667 111 -38
c54 -19.333 102.167 -34.333 144.5 -45s87.833 -16 136.5 -16l-41 -181c-22 -3.33301 -47.333 -13 -76 -29c40 7.33301 81.667 11 125 11h50c3.33301 0 6.16602 -4.83301 8.49902 -14.5z" />
    <glyph glyph-name="uniFEA6" unicode="&#x62e;" horiz-adv-x="814" arabic-form="final" 
d="M482 633l-135 114l113 135l135 -114zM822.5 212.5c2.33301 -9.66699 3.49805 -21.834 3.49805 -36.501v-124c0 -14.667 -1.16699 -27 -3.5 -37s-5.16602 -15 -8.49902 -15h-116c-65.333 0 -117.333 13.333 -156 40s-66.334 70.667 -83.001 132
c-48 -28 -90.5 -58.333 -127.5 -91s-63.833 -62 -80.5 -88c-0.666992 -9.33301 -1 -22.333 -1 -39c0 -44 7.16699 -77.333 21.5 -100s38.333 -38.334 72 -47.001s81.834 -13 144.501 -13h205l-47 -229h-183c-126 0 -223.167 29.5 -291.5 88.5s-102.5 148.833 -102.5 269.5
c0 84.667 28.5 163.334 85.5 236.001s132.833 132.334 227.5 179.001l40 18l-48 15c-54 16.667 -90 25 -108 25c-16.667 0 -28.667 -4.5 -36 -13.5s-13.666 -22.833 -18.999 -41.5l-132 27c23.333 140 82.333 210 177 210c22.667 0 45.5 -3 68.5 -9s51.5 -15 85.5 -27l21 -7
l36 -12c56.667 -20 106.5 -35.333 149.5 -46s88.167 -16 135.5 -16l-47 -194c-46.667 -8.66699 -96 -23.667 -148 -45l17 -1c8.66699 0 24.334 0.666992 47.001 2c30.667 2.66699 56 4 76 4h117c3.33301 0 6.16602 -4.83301 8.49902 -14.5z" />
    <glyph glyph-name="uniFEA7" unicode="&#x62e;" horiz-adv-x="759" arabic-form="initial" 
d="M355 597l-135 113l113 135l135 -113zM583 435.5c41.333 -10.333 85.002 -15.5 131.002 -15.5l-47 -220c-30.667 -3.33301 -58.667 -10.666 -84 -21.999s-57.333 -28.333 -96 -51c-33.333 -20 -61 -35.667 -83 -47c-54.667 -28 -109.334 -48.333 -164.001 -61
s-121.667 -19 -201 -19h-39c-3.33301 0 -6.16602 5 -8.49902 15s-3.5 22.333 -3.5 37v124c0 14.667 1.16699 26.834 3.5 36.501s5.16602 14.5 8.49902 14.5h39c86 0 169 7.66699 249 23c35.333 6.66699 72.333 17 111 31c24 7.33301 38.333 11.666 43 12.999l9 2h-2
c-12.667 2.66699 -40.334 11.667 -83.001 27c-31.333 11.333 -56 19.666 -74 24.999s-33 8 -45 8c-16 0 -27.833 -4.5 -35.5 -13.5s-14.167 -22.833 -19.5 -41.5l-132 26c23.333 140 82.333 210 177 210c28 0 56 -4 84 -12s64.333 -20.667 109 -38l21 -8
c46.667 -18.667 90.667 -33.167 132 -43.5z" />
    <glyph glyph-name="uniFEA8" unicode="&#x62e;" horiz-adv-x="772" arabic-form="medial" 
d="M355 597l-135 113l113 135l135 -113zM780.5 212.5c2.33301 -9.66699 3.50293 -21.834 3.50293 -36.501v-124c0 -14.667 -1.16699 -27 -3.5 -37s-5.16602 -15 -8.49902 -15h-151c-44 0 -87.5 6.16699 -130.5 18.5s-73.167 34.833 -90.5 67.5
c-52 -29.333 -105.333 -51 -160 -65s-121.667 -21 -201 -21h-39c-3.33301 0 -6.16602 5 -8.49902 15s-3.5 22.333 -3.5 37v124c0 14.667 1.16699 26.834 3.5 36.501s5.16602 14.5 8.49902 14.5h39c79.333 0 162.333 7.66699 249 23c24 4.66699 58 15 102 31
c20.667 8 38 14 52 18c4 1.33301 7.33301 2 10 2l-3 1c-10.667 2 -42.334 11.333 -95.001 28c-50.667 17.333 -86.334 26 -107.001 26c-16 0 -27.833 -4.5 -35.5 -13.5s-14.167 -22.833 -19.5 -41.5l-132 26c23.333 140 82.333 210 177 210c29.333 0 57.666 -4 84.999 -12
s64.333 -20.667 111 -38c54 -19.333 102.167 -34.333 144.5 -45s87.833 -16 136.5 -16l-41 -181c-22 -3.33301 -47.333 -13 -76 -29c40 7.33301 81.667 11 125 11h50c3.33301 0 6.16602 -4.83301 8.49902 -14.5z" />
    <glyph glyph-name="uniFEAA" unicode="&#x62f;" horiz-adv-x="638" arabic-form="final" 
d="M646.5 212.5c2.33301 -9.66699 3.50098 -21.833 3.50098 -36.5v-124c0 -14.667 -1.16699 -27 -3.5 -37s-5.16602 -15 -8.49902 -15h-23c-69.333 -0 -113 24.333 -131 73l-5 -17c-7.33301 -20.667 -17.333 -33.334 -30 -38.001c-21.333 -8.66699 -47.666 -16 -78.999 -22
s-60.333 -9 -87 -9c-67.333 0 -118.333 13.833 -153 41.5s-52 75.5 -52 143.5c0 20.667 2.33301 51.334 7 92.001l138 -6v-27c0 -6 1.83301 -10.167 5.5 -12.5s11.667 -3.83301 24 -4.5s28.166 -1 47.499 -1c33.333 0 66.666 3.33301 99.999 10l-78 284l165 87l65 -313
c4 -18.667 8.5 -31.5 13.5 -38.5s12.167 -11.333 21.5 -13s26.333 -2.5 51 -2.5c3.33301 0 6.16602 -4.83301 8.49902 -14.5z" />
    <glyph glyph-name="uniFEAC" unicode="&#x630;" horiz-adv-x="638" arabic-form="final" 
d="M370 674l-135 113l113 135l135 -113zM646.5 212.5c2.33301 -9.66699 3.50098 -21.833 3.50098 -36.5v-124c0 -14.667 -1.16699 -27 -3.5 -37s-5.16602 -15 -8.49902 -15h-23c-69.333 -0 -113 24.333 -131 73l-5 -17c-7.33301 -20.667 -17.333 -33.334 -30 -38.001
c-21.333 -8.66699 -47.666 -16 -78.999 -22s-60.333 -9 -87 -9c-67.333 0 -118.333 13.833 -153 41.5s-52 75.5 -52 143.5c0 20.667 2.33301 51.334 7 92.001l138 -6v-27c0 -6 1.83301 -10.167 5.5 -12.5s11.667 -3.83301 24 -4.5s28.166 -1 47.499 -1
c33.333 0 66.666 3.33301 99.999 10l-78 284l165 87l65 -313c4 -18.667 8.5 -31.5 13.5 -38.5s12.167 -11.333 21.5 -13s26.333 -2.5 51 -2.5c3.33301 0 6.16602 -4.83301 8.49902 -14.5z" />
    <glyph glyph-name="uniFEAE" unicode="&#x631;" horiz-adv-x="444" arabic-form="final" 
d="M452.5 212.5c2.33301 -9.66699 3.49805 -21.832 3.49805 -36.499v-124c0 -14.667 -1.16699 -27 -3.5 -37s-5.16602 -15 -8.49902 -15h-16c-32 0 -59 13 -81 39c-4 -51.333 -15.667 -97 -35 -137s-51.333 -79.5 -96 -118.5s-106 -79.5 -184 -121.5l-119 174
c66 34 117.5 62.667 154.5 86s65 44.5 84 63.5s34.167 39.5 45.5 61.5l-46 315l174 36l3 -27l10 -80c2.66699 -20.667 6.83398 -35.334 12.501 -44.001s14.334 -14.167 26.001 -16.5s31.5 -3.5 59.5 -3.5h8c3.33301 0 6.16602 -4.83301 8.49902 -14.5z" />
    <glyph glyph-name="uniFEB0" unicode="&#x632;" horiz-adv-x="444" arabic-form="final" 
d="M206 482l-135 113l113 135l135 -113zM452.5 212.5c2.33301 -9.66699 3.49805 -21.832 3.49805 -36.499v-124c0 -14.667 -1.16699 -27 -3.5 -37s-5.16602 -15 -8.49902 -15h-16c-32 0 -59 13 -81 39c-4 -51.333 -15.667 -97 -35 -137s-51.333 -79.5 -96 -118.5
s-106 -79.5 -184 -121.5l-119 174c66 34 117.5 62.667 154.5 86s65 44.5 84 63.5s34.167 39.5 45.5 61.5l-46 315l174 36l3 -27l10 -80c2.66699 -20.667 6.83398 -35.334 12.501 -44.001s14.334 -14.167 26.001 -16.5s31.5 -3.5 59.5 -3.5h8
c3.33301 0 6.16602 -4.83301 8.49902 -14.5z" />
    <glyph glyph-name="uniFEB2" unicode="&#x633;" horiz-adv-x="1331" arabic-form="final" 
d="M1339.5 212.5c2.33301 -9.66699 3.49805 -21.833 3.49805 -36.5v-124c0 -14.667 -1.16699 -27 -3.5 -37s-5.16602 -15 -8.49902 -15h-14c-29.333 -0 -56.666 5.33301 -81.999 16s-43.333 26 -54 46c-17.333 -20.667 -38.666 -36.167 -63.999 -46.5
s-53.666 -15.5 -84.999 -15.5c-27.333 0 -51.833 5.5 -73.5 16.5s-37.834 28.5 -48.501 52.5c-12 -24 -29.5 -41.5 -52.5 -52.5s-45.833 -16.5 -68.5 -16.5c-36.667 0 -65 8.66699 -85 26c1.33301 -34.667 2 -58.667 2 -72c0 -48 -18.333 -86.667 -55 -116
s-80.334 -50 -131.001 -62s-99 -18 -145 -18c-194.667 0 -292 73 -292 219c0 66 17.667 189.667 53 371l138 -28c-26 -149.333 -39 -242 -39 -278c0 -24 11.5 -39.5 34.5 -46.5s56.833 -10.5 101.5 -10.5c38.667 0 71.5 1.66699 98.5 5s53.5 9 79.5 17l-49 363l169 38
l15 -129c2 -19.333 7.83301 -32.833 17.5 -40.5s24.5 -11.5 44.5 -11.5c20.667 0 39.667 3.33301 57 10l-3 166l152 8l5 -178c12 -4 25 -6 39 -6c28 0 52.667 4.33301 74 13l-27 208l169 31l18 -204c1.33301 -14 3.83301 -24.167 7.5 -30.5s11.334 -10.833 23.001 -13.5
s30.167 -4 55.5 -4h15c3.33301 0 6.16602 -4.83301 8.49902 -14.5z" />
    <glyph glyph-name="uniFEB3" unicode="&#x633;" horiz-adv-x="876" arabic-form="initial" 
d="M783 414c2.66699 -34.667 4.99707 -68.001 6.99707 -100.001s3 -65.667 3 -101c0 -69.333 -17.833 -122.166 -53.5 -158.499s-83.5 -54.5 -143.5 -54.5c-81.333 -0 -133.333 23.333 -156 70c-13.333 -26 -33.5 -44.167 -60.5 -54.5s-55.833 -15.5 -86.5 -15.5
c-59.333 0 -102.666 21 -129.999 63c-27.333 -42 -81.666 -63 -162.999 -63c-3.33301 0 -6.16602 5 -8.49902 15s-3.5 22.333 -3.5 37v124c0 14.667 1.16699 26.834 3.5 36.501s5.16602 14.5 8.49902 14.5c48 0 84.333 4.66699 109 14l-1 130l154 1l2 -100
c0 -18.667 3.33301 -30.834 10 -36.501s18.334 -8.5 35.001 -8.5c21.333 0 41 3.33301 59 10l-3 166l153 8l4 -178c12 -4 26.667 -6 44 -6c26 0 49 4.33301 69 13l-27 208l170 31z" />
    <glyph glyph-name="uniFEB4" unicode="&#x633;" horiz-adv-x="899" arabic-form="medial" 
d="M907.5 212.5c2.33301 -9.66699 3.49805 -21.833 3.49805 -36.5v-124c0 -14.667 -1.16699 -27 -3.5 -37s-5.16602 -15 -8.49902 -15h-15c-27.333 0 -53.333 6.16699 -78 18.5s-42.334 29.833 -53.001 52.5c-17.333 -23.333 -39.333 -41 -66 -53s-57 -18 -91 -18
c-81.333 -0 -133.333 23.333 -156 70c-13.333 -26 -33.5 -44.167 -60.5 -54.5s-55.833 -15.5 -86.5 -15.5c-59.333 0 -102.666 21 -129.999 63c-27.333 -42 -81.666 -63 -162.999 -63c-3.33301 0 -6.16602 5 -8.49902 15s-3.5 22.333 -3.5 37v124
c0 14.667 1.16699 26.834 3.5 36.501s5.16602 14.5 8.49902 14.5c48 0 84.333 4.66699 109 14l-1 130l154 1l2 -100c0 -18.667 3.33301 -30.834 10 -36.501s18.334 -8.5 35.001 -8.5c21.333 0 41 3.33301 59 10l-3 166l153 8l4 -178c12 -4 26.667 -6 44 -6
c26 0 49 4.33301 69 13l-27 208l170 31l19 -204c1.33301 -13.333 4.16602 -23.166 8.49902 -29.499s12.333 -10.833 24 -13.5s29.834 -4.33398 54.501 -5.00098h15c3.33301 0 6.16602 -4.83301 8.49902 -14.5z" />
    <glyph glyph-name="uniFEB6" unicode="&#x634;" horiz-adv-x="1331" arabic-form="final" 
d="M844 680l-115 96l97 115l116 -96zM756 499l-116 98l97 117l109 -92l83 98l116 -95l-97 -115l-109 91zM1339.5 212.5c2.33301 -9.66699 3.49805 -21.833 3.49805 -36.5v-124c0 -14.667 -1.16699 -27 -3.5 -37s-5.16602 -15 -8.49902 -15h-14
c-29.333 -0 -56.666 5.33301 -81.999 16s-43.333 26 -54 46c-17.333 -20.667 -38.666 -36.167 -63.999 -46.5s-53.666 -15.5 -84.999 -15.5c-27.333 0 -51.833 5.5 -73.5 16.5s-37.834 28.5 -48.501 52.5c-12 -24 -29.5 -41.5 -52.5 -52.5s-45.833 -16.5 -68.5 -16.5
c-36.667 0 -65 8.66699 -85 26c1.33301 -34.667 2 -58.667 2 -72c0 -48 -18.333 -86.667 -55 -116s-80.334 -50 -131.001 -62s-99 -18 -145 -18c-194.667 0 -292 73 -292 219c0 66 17.667 189.667 53 371l138 -28c-26 -149.333 -39 -242 -39 -278
c0 -24 11.5 -39.5 34.5 -46.5s56.833 -10.5 101.5 -10.5c38.667 0 71.5 1.66699 98.5 5s53.5 9 79.5 17l-49 363l169 38l15 -129c2 -19.333 7.83301 -32.833 17.5 -40.5s24.5 -11.5 44.5 -11.5c20.667 0 39.667 3.33301 57 10l-3 166l152 8l5 -178c12 -4 25 -6 39 -6
c28 0 52.667 4.33301 74 13l-27 208l169 31l18 -204c1.33301 -14 3.83301 -24.167 7.5 -30.5s11.334 -10.833 23.001 -13.5s30.167 -4 55.5 -4h15c3.33301 0 6.16602 -4.83301 8.49902 -14.5z" />
    <glyph glyph-name="uniFEB7" unicode="&#x634;" horiz-adv-x="876" arabic-form="initial" 
d="M422 665l-115 97l97 115l116 -96zM334 485l-116 98l97 116l110 -92l82 99l116 -96l-97 -115l-109 91zM783 414c2.66699 -34.667 4.99707 -68.001 6.99707 -100.001s3 -65.667 3 -101c0 -69.333 -17.833 -122.166 -53.5 -158.499s-83.5 -54.5 -143.5 -54.5
c-81.333 -0 -133.333 23.333 -156 70c-13.333 -26 -33.5 -44.167 -60.5 -54.5s-55.833 -15.5 -86.5 -15.5c-59.333 0 -102.666 21 -129.999 63c-27.333 -42 -81.666 -63 -162.999 -63c-3.33301 0 -6.16602 5 -8.49902 15s-3.5 22.333 -3.5 37v124
c0 14.667 1.16699 26.834 3.5 36.501s5.16602 14.5 8.49902 14.5c48 0 84.333 4.66699 109 14l-1 130l154 1l2 -100c0 -18.667 3.33301 -30.834 10 -36.501s18.334 -8.5 35.001 -8.5c21.333 0 41 3.33301 59 10l-3 166l153 8l4 -178c12 -4 26.667 -6 44 -6
c26 0 49 4.33301 69 13l-27 208l170 31z" />
    <glyph glyph-name="uniFEB8" unicode="&#x634;" horiz-adv-x="899" arabic-form="medial" 
d="M452 665l-116 97l98 115l115 -96zM363 485l-116 98l98 116l109 -91l83 98l116 -96l-98 -115l-109 91zM907.5 212.5c2.33301 -9.66699 3.49805 -21.833 3.49805 -36.5v-124c0 -14.667 -1.16699 -27 -3.5 -37s-5.16602 -15 -8.49902 -15h-15
c-27.333 0 -53.333 6.16699 -78 18.5s-42.334 29.833 -53.001 52.5c-17.333 -23.333 -39.333 -41 -66 -53s-57 -18 -91 -18c-81.333 -0 -133.333 23.333 -156 70c-13.333 -26 -33.5 -44.167 -60.5 -54.5s-55.833 -15.5 -86.5 -15.5c-59.333 0 -102.666 21 -129.999 63
c-27.333 -42 -81.666 -63 -162.999 -63c-3.33301 0 -6.16602 5 -8.49902 15s-3.5 22.333 -3.5 37v124c0 14.667 1.16699 26.834 3.5 36.501s5.16602 14.5 8.49902 14.5c48 0 84.333 4.66699 109 14l-1 130l154 1l2 -100c0 -18.667 3.33301 -30.834 10 -36.501
s18.334 -8.5 35.001 -8.5c21.333 0 41 3.33301 59 10l-3 166l153 8l4 -178c12 -4 26.667 -6 44 -6c26 0 49 4.33301 69 13l-27 208l170 31l19 -204c1.33301 -13.333 4.16602 -23.166 8.49902 -29.499s12.333 -10.833 24 -13.5s29.834 -4.33398 54.501 -5.00098h15
c3.33301 0 6.16602 -4.83301 8.49902 -14.5z" />
    <glyph glyph-name="uniFEBA" unicode="&#x635;" horiz-adv-x="1388" arabic-form="final" 
d="M1396 212.5c2 -9.66699 3.00098 -21.833 3.00098 -36.5v-124c0 -14 -1.16699 -26.167 -3.5 -36.5s-4.83301 -15.5 -7.5 -15.5c-50 0 -89.167 5 -117.5 15s-50.833 27.333 -67.5 52c-34 -26 -76.333 -45.5 -127 -58.5s-108.334 -19.5 -173.001 -19.5
c-45.333 0 -83.833 2.16699 -115.5 6.5s-59.5 11.5 -83.5 21.5c1.33301 -29.333 2 -50.333 2 -63c0 -48 -18.333 -86.667 -55 -116s-80.334 -50 -131.001 -62s-99 -18 -145 -18c-194.667 0 -292 73 -292 219c0 66 17.667 189.667 53 371l138 -28
c-26 -149.333 -39 -242 -39 -278c0 -24 11.5 -39.5 34.5 -46.5s56.833 -10.5 101.5 -10.5c38.667 0 71.5 1.66699 98.5 5s53.5 9 79.5 17l-49 363l169 38l18 -171c4.66699 -1.33301 13.334 -3 26.001 -5c41.333 72 94 138.667 158 200s132.667 92 206 92
c66.667 0 119 -24.5 157 -73.5s57.333 -118.5 58 -208.5c11.333 -10 43.333 -15 96 -15c3.33301 0 6 -4.83301 8 -14.5zM1119.5 318.001c-15 17.333 -33.499 26 -55.499 26c-28.667 0 -61 -11.833 -97 -35.5s-70.333 -55.167 -103 -94.5
c9.33301 -0.666992 24.666 -1 45.999 -1c71.333 0 148 9 230 27c1.33301 34.667 -5.5 60.667 -20.5 78z" />
    <glyph glyph-name="uniFEBB" unicode="&#x635;" horiz-adv-x="962" arabic-form="initial" 
d="M825.5 456.5c37.667 -50.333 56.501 -121.834 56.501 -214.501c0 -44.667 -14.333 -85 -43 -121c-30 -40.667 -74.5 -71.5 -133.5 -92.5s-129.167 -31.5 -210.5 -31.5c-70.667 0 -128.167 5.33301 -172.5 16s-80.833 29 -109.5 55
c-22.667 -24.667 -53.334 -42.167 -92.001 -52.5s-79 -15.5 -121 -15.5c-3.33301 0 -6.16602 5 -8.49902 15s-3.5 22.333 -3.5 37v124c0 14.667 1.16699 26.834 3.5 36.501s5.16602 14.5 8.49902 14.5c58.667 0 100 5 124 15l-7 165l155 10l2 -169
c7.33301 -4 17.333 -6.66699 30 -8c24 42.667 54 86 90 130s77.833 82 125.5 114s97.167 48 148.5 48c67.333 0 119.833 -25.167 157.5 -75.5zM710.501 325.499c-15 17 -33.8301 25.5 -56.4971 25.5c-28.667 0 -60.834 -11.5 -96.501 -34.5s-69.834 -54.5 -102.501 -94.5h46
c75.333 0 151.666 8.66699 228.999 26c2 34.667 -4.5 60.5 -19.5 77.5z" />
    <glyph glyph-name="uniFEBC" unicode="&#x635;" horiz-adv-x="979" arabic-form="medial" 
d="M987.5 212.5c2.33301 -9.66699 3.50098 -21.834 3.50098 -36.501v-124c0 -14.667 -1.16699 -27 -3.5 -37s-5.16602 -15 -8.49902 -15c-51.333 0 -91.5 5.5 -120.5 16.5s-51.833 29.833 -68.5 56.5c-67.333 -50.667 -165.666 -76 -294.999 -76
c-70.667 0 -128.167 5.33301 -172.5 16s-80.833 29 -109.5 55c-22.667 -24.667 -53.334 -42.167 -92.001 -52.5s-79 -15.5 -121 -15.5c-3.33301 0 -6.16602 5 -8.49902 15s-3.5 22.333 -3.5 37v124c0 14.667 1.16699 26.834 3.5 36.501s5.16602 14.5 8.49902 14.5
c58.667 0 100 5 124 15l-7 165l155 10l2 -169c7.33301 -4 17.333 -6.66699 30 -8c24 42.667 54 86 90 130s77.833 82 125.5 114s97.167 48 148.5 48c67.333 0 119.833 -25.167 157.5 -75.5s56.5 -121.833 56.5 -214.5c11.333 -10 43.666 -15 96.999 -15
c3.33301 0 6.16602 -4.83301 8.49902 -14.5zM710.501 325.5c-15 17 -33.8301 25.5 -56.4971 25.5c-28.667 0 -60.834 -11.5 -96.501 -34.5s-69.834 -54.5 -102.501 -94.5h46c75.333 0 151.666 8.66699 228.999 26c2 34.667 -4.5 60.5 -19.5 77.5z" />
    <glyph glyph-name="uniFEBE" unicode="&#x636;" horiz-adv-x="1388" arabic-form="final" 
d="M833 554l-136 113l113 135l135 -113zM1396 212.5c2 -9.66699 3.00098 -21.833 3.00098 -36.5v-124c0 -14 -1.16699 -26.167 -3.5 -36.5s-4.83301 -15.5 -7.5 -15.5c-50 0 -89.167 5 -117.5 15s-50.833 27.333 -67.5 52c-34 -26 -76.333 -45.5 -127 -58.5
s-108.334 -19.5 -173.001 -19.5c-45.333 0 -83.833 2.16699 -115.5 6.5s-59.5 11.5 -83.5 21.5c1.33301 -29.333 2 -50.333 2 -63c0 -48 -18.333 -86.667 -55 -116s-80.334 -50 -131.001 -62s-99 -18 -145 -18c-194.667 0 -292 73 -292 219c0 66 17.667 189.667 53 371
l138 -28c-26 -149.333 -39 -242 -39 -278c0 -24 11.5 -39.5 34.5 -46.5s56.833 -10.5 101.5 -10.5c38.667 0 71.5 1.66699 98.5 5s53.5 9 79.5 17l-49 363l169 38l18 -171c4.66699 -1.33301 13.334 -3 26.001 -5c41.333 72 94 138.667 158 200s132.667 92 206 92
c66.667 0 119 -24.5 157 -73.5s57.333 -118.5 58 -208.5c11.333 -10 43.333 -15 96 -15c3.33301 0 6 -4.83301 8 -14.5zM1119.5 318.001c-15 17.333 -33.499 26 -55.499 26c-28.667 0 -61 -11.833 -97 -35.5s-70.333 -55.167 -103 -94.5
c9.33301 -0.666992 24.666 -1 45.999 -1c71.333 0 148 9 230 27c1.33301 34.667 -5.5 60.667 -20.5 78z" />
    <glyph glyph-name="uniFEBF" unicode="&#x636;" horiz-adv-x="962" arabic-form="initial" 
d="M451 554l-136 113l114 135l135 -113zM825.5 456.5c37.667 -50.333 56.501 -121.834 56.501 -214.501c0 -44.667 -14.333 -85 -43 -121c-30 -40.667 -74.5 -71.5 -133.5 -92.5s-129.167 -31.5 -210.5 -31.5c-70.667 0 -128.167 5.33301 -172.5 16s-80.833 29 -109.5 55
c-22.667 -24.667 -53.334 -42.167 -92.001 -52.5s-79 -15.5 -121 -15.5c-3.33301 0 -6.16602 5 -8.49902 15s-3.5 22.333 -3.5 37v124c0 14.667 1.16699 26.834 3.5 36.501s5.16602 14.5 8.49902 14.5c58.667 0 100 5 124 15l-7 165l155 10l2 -169
c7.33301 -4 17.333 -6.66699 30 -8c24 42.667 54 86 90 130s77.833 82 125.5 114s97.167 48 148.5 48c67.333 0 119.833 -25.167 157.5 -75.5zM710.501 325.499c-15 17 -33.8301 25.5 -56.4971 25.5c-28.667 0 -60.834 -11.5 -96.501 -34.5s-69.834 -54.5 -102.501 -94.5h46
c75.333 0 151.666 8.66699 228.999 26c2 34.667 -4.5 60.5 -19.5 77.5z" />
    <glyph glyph-name="uniFEC0" unicode="&#x636;" horiz-adv-x="979" arabic-form="medial" 
d="M451 554l-136 113l114 135l135 -113zM987.5 212.5c2.33301 -9.66699 3.50098 -21.834 3.50098 -36.501v-124c0 -14.667 -1.16699 -27 -3.5 -37s-5.16602 -15 -8.49902 -15c-51.333 0 -91.5 5.5 -120.5 16.5s-51.833 29.833 -68.5 56.5
c-67.333 -50.667 -165.666 -76 -294.999 -76c-70.667 0 -128.167 5.33301 -172.5 16s-80.833 29 -109.5 55c-22.667 -24.667 -53.334 -42.167 -92.001 -52.5s-79 -15.5 -121 -15.5c-3.33301 0 -6.16602 5 -8.49902 15s-3.5 22.333 -3.5 37v124
c0 14.667 1.16699 26.834 3.5 36.501s5.16602 14.5 8.49902 14.5c58.667 0 100 5 124 15l-7 165l155 10l2 -169c7.33301 -4 17.333 -6.66699 30 -8c24 42.667 54 86 90 130s77.833 82 125.5 114s97.167 48 148.5 48c67.333 0 119.833 -25.167 157.5 -75.5
s56.5 -121.833 56.5 -214.5c11.333 -10 43.666 -15 96.999 -15c3.33301 0 6.16602 -4.83301 8.49902 -14.5zM710.501 325.5c-15 17 -33.8301 25.5 -56.4971 25.5c-28.667 0 -60.834 -11.5 -96.501 -34.5s-69.834 -54.5 -102.501 -94.5h46
c75.333 0 151.666 8.66699 228.999 26c2 34.667 -4.5 60.5 -19.5 77.5z" />
    <glyph glyph-name="uniFEC2" unicode="&#x637;" horiz-adv-x="852" arabic-form="final" 
d="M860 212.5c2 -9.66699 2.99805 -21.832 2.99805 -36.499v-124c0 -14 -1.16699 -26.167 -3.5 -36.5s-4.83301 -15.5 -7.5 -15.5c-52 0 -92.5 5.16699 -121.5 15.5s-52.167 28.166 -69.5 53.499c-67.333 -46 -163 -69 -287 -69h-252l-39 227h93l25 40
c2.66699 4.66699 4.33398 10.167 5.00098 16.5s1 16.833 1 31.5s-1.66699 63.667 -5 147l-12 297l170 28l-1 -271c0 -10 -0.666992 -34.333 -2 -73c64.667 59.333 127.334 89 188.001 89c68 0 120.833 -25.167 158.5 -75.5s56.5 -121.833 56.5 -214.5v-5
c17.333 -6.66699 48 -10 92 -10c3.33301 0 6 -4.83301 8 -14.5zM587.498 325.502c-15 17 -33.5 25.501 -55.5 25.501c-26.667 0 -57.667 -11.333 -93 -34s-71 -54.334 -107 -95.001h46c76 0 152.667 8.66699 230 26c1.33301 34.667 -5.5 60.5 -20.5 77.5z" />
    <glyph glyph-name="uniFEC3" unicode="&#x637;" horiz-adv-x="760" arabic-form="initial" 
d="M620.5 456.5c37.667 -50.333 56.498 -121.834 56.498 -214.501c0 -42.667 -14 -83 -42 -121c-31.333 -40 -76.666 -70.167 -135.999 -90.5s-129 -30.5 -209 -30.5h-290c-3.33301 0 -6.16602 5 -8.49902 15s-3.5 22.333 -3.5 37v124c0 14.667 1.16699 26.834 3.5 36.501
s5.16602 14.5 8.49902 14.5h93l25 40c2.66699 4.66699 4.33398 10.167 5.00098 16.5s1 16.833 1 31.5s-1.66699 63.667 -5 147l-12 297l170 28l-1 -271c0 -10 -0.666992 -34.333 -2 -73c32 29.333 63.333 51.5 94 66.5s62 22.5 94 22.5c68 0 120.833 -25.167 158.5 -75.5z
M504.498 325.499c-15 17 -33.5 25.501 -55.5 25.501c-26.667 0 -57.667 -11.333 -93 -34s-71 -54.334 -107 -95.001h46c75.333 0 152 8.66699 230 26c1.33301 34.667 -5.5 60.5 -20.5 77.5z" />
    <glyph glyph-name="uniFEC4" unicode="&#x637;" horiz-adv-x="768" arabic-form="medial" 
d="M776.5 212.5c2.33301 -9.66699 3.49902 -21.835 3.49902 -36.502v-124c0 -14.667 -1.16699 -27 -3.5 -37s-5.16602 -15 -8.49902 -15c-51.333 0 -91.666 5.33301 -120.999 16s-52.333 28.334 -69 53.001c-68.667 -46 -164.667 -69 -288 -69h-290
c-3.33301 0 -6.16602 5 -8.49902 15s-3.5 22.333 -3.5 37v124c0 14.667 1.16699 26.834 3.5 36.501s5.16602 14.5 8.49902 14.5h93l25 40c2.66699 4.66699 4.33398 10.167 5.00098 16.5s1 16.833 1 31.5s-1.66699 63.667 -5 147l-12 297l170 28l-1 -271
c0 -10 -0.666992 -34.333 -2 -73c32 29.333 63.333 51.5 94 66.5s62 22.5 94 22.5c68 0 120.833 -25.167 158.5 -75.5s56.5 -121.833 56.5 -214.5v-6c15.333 -6 45.666 -9 90.999 -9c3.33301 0 6.16602 -4.83301 8.49902 -14.5zM504.499 325.499
c-15 17 -33.5 25.501 -55.5 25.501c-26.667 0 -57.667 -11.333 -93 -34s-71 -54.334 -107 -95.001h46c75.333 0 152 8.66699 230 26c1.33301 34.667 -5.5 60.5 -20.5 77.5z" />
    <glyph glyph-name="uniFEC6" unicode="&#x638;" horiz-adv-x="852" arabic-form="final" 
d="M590 615l-135 113l113 135l135 -113zM860 212.5c2 -9.66699 2.99805 -21.832 2.99805 -36.499v-124c0 -14 -1.16699 -26.167 -3.5 -36.5s-4.83301 -15.5 -7.5 -15.5c-52 0 -92.5 5.16699 -121.5 15.5s-52.167 28.166 -69.5 53.499c-67.333 -46 -163 -69 -287 -69h-252
l-39 227h93l25 40c2.66699 4.66699 4.33398 10.167 5.00098 16.5s1 16.833 1 31.5s-1.66699 63.667 -5 147l-12 297l170 28l-1 -271c0 -10 -0.666992 -34.333 -2 -73c64.667 59.333 127.334 89 188.001 89c68 0 120.833 -25.167 158.5 -75.5s56.5 -121.833 56.5 -214.5v-5
c17.333 -6.66699 48 -10 92 -10c3.33301 0 6 -4.83301 8 -14.5zM587.498 325.502c-15 17 -33.5 25.501 -55.5 25.501c-26.667 0 -57.667 -11.333 -93 -34s-71 -54.334 -107 -95.001h46c76 0 152.667 8.66699 230 26c1.33301 34.667 -5.5 60.5 -20.5 77.5z" />
    <glyph glyph-name="uniFEC7" unicode="&#x638;" horiz-adv-x="760" arabic-form="initial" 
d="M502 614l-136 113l113 135l135 -113zM620.5 456.5c37.667 -50.333 56.498 -121.834 56.498 -214.501c0 -42.667 -14 -83 -42 -121c-31.333 -40 -76.666 -70.167 -135.999 -90.5s-129 -30.5 -209 -30.5h-290c-3.33301 0 -6.16602 5 -8.49902 15s-3.5 22.333 -3.5 37v124
c0 14.667 1.16699 26.834 3.5 36.501s5.16602 14.5 8.49902 14.5h93l25 40c2.66699 4.66699 4.33398 10.167 5.00098 16.5s1 16.833 1 31.5s-1.66699 63.667 -5 147l-12 297l170 28l-1 -271c0 -10 -0.666992 -34.333 -2 -73c32 29.333 63.333 51.5 94 66.5s62 22.5 94 22.5
c68 0 120.833 -25.167 158.5 -75.5zM504.498 325.499c-15 17 -33.5 25.501 -55.5 25.501c-26.667 0 -57.667 -11.333 -93 -34s-71 -54.334 -107 -95.001h46c75.333 0 152 8.66699 230 26c1.33301 34.667 -5.5 60.5 -20.5 77.5z" />
    <glyph glyph-name="uniFEC8" unicode="&#x638;" horiz-adv-x="768" arabic-form="medial" 
d="M502 614l-136 113l113 135l135 -113zM776.5 212.5c2.33301 -9.66699 3.49902 -21.835 3.49902 -36.502v-124c0 -14.667 -1.16699 -27 -3.5 -37s-5.16602 -15 -8.49902 -15c-51.333 0 -91.666 5.33301 -120.999 16s-52.333 28.334 -69 53.001
c-68.667 -46 -164.667 -69 -288 -69h-290c-3.33301 0 -6.16602 5 -8.49902 15s-3.5 22.333 -3.5 37v124c0 14.667 1.16699 26.834 3.5 36.501s5.16602 14.5 8.49902 14.5h93l25 40c2.66699 4.66699 4.33398 10.167 5.00098 16.5s1 16.833 1 31.5s-1.66699 63.667 -5 147
l-12 297l170 28l-1 -271c0 -10 -0.666992 -34.333 -2 -73c32 29.333 63.333 51.5 94 66.5s62 22.5 94 22.5c68 0 120.833 -25.167 158.5 -75.5s56.5 -121.833 56.5 -214.5v-6c15.333 -6 45.666 -9 90.999 -9c3.33301 0 6.16602 -4.83301 8.49902 -14.5zM504.499 325.499
c-15 17 -33.5 25.501 -55.5 25.501c-26.667 0 -57.667 -11.333 -93 -34s-71 -54.334 -107 -95.001h46c75.333 0 152 8.66699 230 26c1.33301 34.667 -5.5 60.5 -20.5 77.5z" />
    <glyph glyph-name="uniFECA" unicode="&#x639;" horiz-adv-x="733" arabic-form="final" 
d="M741 212.5c2 -9.66699 2.99707 -21.8291 2.99707 -36.4961v-124c0 -14 -1.16699 -26.167 -3.5 -36.5s-4.83301 -15.5 -7.5 -15.5h-112c-65.333 0 -115.5 5.66699 -150.5 17s-63.5 32 -85.5 62c-36 -22 -64.167 -41.5 -84.5 -58.5s-37.166 -34.167 -50.499 -51.5
c-1.33301 -18.667 -2 -31.334 -2 -38.001c0.666992 -41.333 6.33398 -72.833 17.001 -94.5s27.834 -36.667 51.501 -45s57.167 -12.5 100.5 -12.5h261l-47 -228h-211c-66 0 -124.833 13.167 -176.5 39.5s-92.167 66.166 -121.5 119.499s-44 118.666 -44 195.999
c0 53.333 12.5 107.5 37.5 162.5s63.167 104.167 114.5 147.5l-44.5 92.5c-11 22.333 -18 35.666 -21 39.999s-6.16699 6.5 -9.5 6.5l-33 1l6 181c139.333 12 238.333 18 297 18c55.333 0 97.333 -4.5 126 -13.5s48.5 -23 59.5 -42s16.5 -45.5 16.5 -79.5v-47
c0 -12.667 -7 -33.5 -21 -62.5s-31.667 -55.833 -53 -80.5c11.333 -2 27.333 -3 48 -3h132c3.33301 0 6 -4.83301 8 -14.5zM435.997 299.005c20 26 33.001 48.333 39.001 67c-10.667 3.33301 -35 5 -73 5c-42 0 -75.333 -1.33301 -100 -4
c5.33301 -4 11.166 -11.833 17.499 -23.5s10.5 -19.167 12.5 -22.5c14.667 -27.333 30 -54.333 46 -81c18.667 13.333 38 33 58 59z" />
    <glyph glyph-name="uniFECB" unicode="&#x639;" horiz-adv-x="595" arabic-form="initial" 
d="M512 70c-83.333 -22.667 -146.999 -38.668 -190.999 -48.001s-83.167 -15.333 -117.5 -18s-80.5 -4 -138.5 -4h-65c-3.33301 0 -6.16602 5 -8.49902 15s-3.5 22.333 -3.5 37v124c0 14.667 1.16699 26.834 3.5 36.501s5.16602 14.5 8.49902 14.5h92
c-4.66699 12.667 -7.83398 25.667 -9.50098 39s-2.5 30.666 -2.5 51.999c0 71.333 20.333 125.166 61 161.499s95 54.5 163 54.5c34 0 73 -5.33301 117 -16l-44 -174c-18.667 4 -40.834 7 -66.501 9s-49.167 2.33301 -70.5 1c0 -21.333 1.33301 -42.666 4 -63.999
s6.33398 -38.666 11.001 -51.999l246 45z" />
    <glyph glyph-name="uniFECC" unicode="&#x639;" horiz-adv-x="629" arabic-form="medial" 
d="M637.5 212.5c2.33301 -9.66699 3.50098 -21.834 3.50098 -36.501v-124c0 -14.667 -1.16699 -27 -3.5 -37s-5.16602 -15 -8.49902 -15h-204c-24 0 -44.833 3.33301 -62.5 10s-33.834 20.667 -48.501 42c-15.333 -20 -33.666 -33.667 -54.999 -41s-45.666 -11 -72.999 -11
h-186c-3.33301 0 -6.16602 5 -8.49902 15s-3.5 22.333 -3.5 37v124c0 14.667 1.16699 26.834 3.5 36.501s5.16602 14.5 8.49902 14.5h133c9.33301 0 16 -0.666992 20 -2l-32.5 67c-8.33301 16.667 -13.833 26.5 -16.5 29.5s-5.33398 4.5 -8.00098 4.5l-33 1l6 181
c139.333 12 238.666 18 297.999 18c55.333 0 97.333 -4.5 126 -13.5s48.5 -23 59.5 -42s16.5 -45.5 16.5 -79.5v-48c0 -10.667 -5.33301 -28 -16 -52s-23 -46.667 -37 -68c8.66699 2.66699 25 4 49 4h64c3.33301 0 6.16602 -4.83301 8.49902 -14.5zM377.501 270
c20.333 26 33.167 48.3311 38.5 66.998c-10.667 3.33301 -35 5 -73 5c-42 0 -75.333 -1.33301 -100 -4c4 -3.33301 8.5 -9.16602 13.5 -17.499s10.5 -18.166 16.5 -29.499l46 -81c18.667 14 38.167 34 58.5 60z" />
    <glyph glyph-name="uniFECE" unicode="&#x63a;" horiz-adv-x="733" arabic-form="final" 
d="M370 610l-135 113l113 135l135 -113zM741 212.5c2 -9.66699 2.99707 -21.8291 2.99707 -36.4961v-124c0 -14 -1.16699 -26.167 -3.5 -36.5s-4.83301 -15.5 -7.5 -15.5h-112c-65.333 0 -115.5 5.66699 -150.5 17s-63.5 32 -85.5 62c-36 -22 -64.167 -41.5 -84.5 -58.5
s-37.166 -34.167 -50.499 -51.5c-1.33301 -18.667 -2 -31.334 -2 -38.001c0.666992 -41.333 6.33398 -72.833 17.001 -94.5s27.834 -36.667 51.501 -45s57.167 -12.5 100.5 -12.5h261l-47 -228h-211c-66 0 -124.833 13.167 -176.5 39.5s-92.167 66.166 -121.5 119.499
s-44 118.666 -44 195.999c0 53.333 12.5 107.5 37.5 162.5s63.167 104.167 114.5 147.5l-44.5 92.5c-11 22.333 -18 35.666 -21 39.999s-6.16699 6.5 -9.5 6.5l-33 1l6 181c139.333 12 238.333 18 297 18c55.333 0 97.333 -4.5 126 -13.5s48.5 -23 59.5 -42
s16.5 -45.5 16.5 -79.5v-47c0 -12.667 -7 -33.5 -21 -62.5s-31.667 -55.833 -53 -80.5c11.333 -2 27.333 -3 48 -3h132c3.33301 0 6 -4.83301 8 -14.5zM435.997 299.005c20 26 33.001 48.333 39.001 67c-10.667 3.33301 -35 5 -73 5c-42 0 -75.333 -1.33301 -100 -4
c5.33301 -4 11.166 -11.833 17.499 -23.5s10.5 -19.167 12.5 -22.5c14.667 -27.333 30 -54.333 46 -81c18.667 13.333 38 33 58 59z" />
    <glyph glyph-name="uniFECF" unicode="&#x63a;" horiz-adv-x="595" arabic-form="initial" 
d="M239 616l-135 113l113 135l135 -113zM512 70c-83.333 -22.667 -146.999 -38.668 -190.999 -48.001s-83.167 -15.333 -117.5 -18s-80.5 -4 -138.5 -4h-65c-3.33301 0 -6.16602 5 -8.49902 15s-3.5 22.333 -3.5 37v124c0 14.667 1.16699 26.834 3.5 36.501
s5.16602 14.5 8.49902 14.5h92c-4.66699 12.667 -7.83398 25.667 -9.50098 39s-2.5 30.666 -2.5 51.999c0 71.333 20.333 125.166 61 161.499s95 54.5 163 54.5c34 0 73 -5.33301 117 -16l-44 -174c-18.667 4 -40.834 7 -66.501 9s-49.167 2.33301 -70.5 1
c0 -21.333 1.33301 -42.666 4 -63.999s6.33398 -38.666 11.001 -51.999l246 45z" />
    <glyph glyph-name="uniFED0" unicode="&#x63a;" horiz-adv-x="629" arabic-form="medial" 
d="M294 610l-136 113l114 135l135 -113zM637.5 212.5c2.33301 -9.66699 3.50098 -21.834 3.50098 -36.501v-124c0 -14.667 -1.16699 -27 -3.5 -37s-5.16602 -15 -8.49902 -15h-204c-24 0 -44.833 3.33301 -62.5 10s-33.834 20.667 -48.501 42
c-15.333 -20 -33.666 -33.667 -54.999 -41s-45.666 -11 -72.999 -11h-186c-3.33301 0 -6.16602 5 -8.49902 15s-3.5 22.333 -3.5 37v124c0 14.667 1.16699 26.834 3.5 36.501s5.16602 14.5 8.49902 14.5h133c9.33301 0 16 -0.666992 20 -2l-32.5 67
c-8.33301 16.667 -13.833 26.5 -16.5 29.5s-5.33398 4.5 -8.00098 4.5l-33 1l6 181c139.333 12 238.666 18 297.999 18c55.333 0 97.333 -4.5 126 -13.5s48.5 -23 59.5 -42s16.5 -45.5 16.5 -79.5v-48c0 -10.667 -5.33301 -28 -16 -52s-23 -46.667 -37 -68
c8.66699 2.66699 25 4 49 4h64c3.33301 0 6.16602 -4.83301 8.49902 -14.5zM377.501 270c20.333 26 33.167 48.3311 38.5 66.998c-10.667 3.33301 -35 5 -73 5c-42 0 -75.333 -1.33301 -100 -4c4 -3.33301 8.5 -9.16602 13.5 -17.499s10.5 -18.166 16.5 -29.499l46 -81
c18.667 14 38.167 34 58.5 60z" />
    <glyph glyph-name="uniFED2" unicode="&#x641;" horiz-adv-x="1053" arabic-form="final" 
d="M818 622l-135 113l113 135l135 -113zM1061 212.5c2 -9.66699 2.99902 -21.835 2.99902 -36.502v-124c0 -14 -1.16699 -26.167 -3.5 -36.5s-4.83301 -15.5 -7.5 -15.5h-104c-36 0 -66.833 4.16699 -92.5 12.5s-48.5 23.833 -68.5 46.5c-14 -12 -28 -22 -42 -30
c-24.667 -13.333 -52 -22 -82 -26s-70.333 -6 -121 -6h-78c-82 0 -150.5 6 -205.5 18s-98.167 34.833 -129.5 68.5s-47 81.834 -47 144.501c0 15.333 2.66699 41 8 77l25 156l138 -28l-22 -133c-2.66699 -13.333 -4 -23 -4 -29c0 -17.333 19.833 -29.333 59.5 -36
s99.167 -10 178.5 -10h80c35.333 0 58 -1 68 -3c-12.667 12 -19 25.333 -19 40c0 39.333 11.667 80.5 35 123.5s51.833 78.833 85.5 107.5s63.834 43 90.501 43c32 0 62.667 -12.5 92 -37.5s52.833 -58.5 70.5 -100.5s26.5 -86.333 26.5 -133
c0 -9.33301 -1 -17.166 -3 -23.499s-6.33301 -12.833 -13 -19.5c14 3.33301 29.333 5 46 5h28c3.33301 0 6 -4.83301 8 -14.5zM854.999 262.999c-4 24 -10.832 44.501 -20.499 61.501s-19.834 25.5 -30.501 25.5c-6.66699 0 -16.167 -5 -28.5 -15s-23.333 -21.333 -33 -34
s-14.5 -22.334 -14.5 -29.001c0 -4.66699 3.66699 -10.5 11 -17.5s20 -18.167 38 -33.5z" />
    <glyph glyph-name="uniFED3" unicode="&#x641;" horiz-adv-x="538" arabic-form="initial" 
d="M244 813l-136 113l113 135l135 -113zM360.5 685.5c31.667 -23.667 57.001 -59.3359 76.001 -107.003s28.5 -105.5 28.5 -173.5c0 -73.333 -2.66699 -133.666 -8 -180.999s-15.166 -86.833 -29.499 -118.5s-34.833 -55.167 -61.5 -70.5
c-22.667 -14 -49.5 -23.333 -80.5 -28s-72.5 -7 -124.5 -7h-161c-3.33301 0 -6.16602 5 -8.49902 15s-3.5 22.333 -3.5 37v124c0 14.667 1.16699 26.834 3.5 36.501s5.16602 14.5 8.49902 14.5c72 0 135.667 0.333008 191 1s96.333 2.33398 123 5.00098
c0.666992 3.33301 1 10.333 1 21l1 21c-26.667 -4.66699 -57.334 -7 -92.001 -7c-38.667 0 -72.334 5 -101.001 15c-10 3.33301 -18.333 9 -25 17s-15.667 22.333 -27 43c-10.667 19.333 -17.667 33.833 -21 43.5s-5 20.5 -5 32.5c4 92 24.167 165.333 60.5 220
s86.833 82 151.5 82c37.333 0 71.833 -11.833 103.5 -35.5zM258.001 446.998c18.667 0 38.668 0.666992 60.001 2c0 31.333 -6.16699 55.333 -18.5 72s-28.5 25 -48.5 25c-17.333 0 -31.333 -8.16699 -42 -24.5s-17.334 -40.5 -20.001 -72.5c24 -1.33301 47 -2 69 -2z" />
    <glyph glyph-name="uniFED4" unicode="&#x641;" horiz-adv-x="528" arabic-form="medial" 
d="M300 627l-136 113l113 135l135 -113zM536.5 212.5c2.33301 -9.66699 3.50195 -21.835 3.50195 -36.502v-124c0 -14.667 -1.16699 -27 -3.5 -37s-5.16602 -15 -8.49902 -15h-109c-36.667 0 -67.667 3.66699 -93 11s-47.333 22 -66 44
c-22.667 -22.667 -47.5 -37.5 -74.5 -44.5s-60.5 -10.5 -100.5 -10.5h-85c-3.33301 0 -6.16602 5 -8.49902 15s-3.5 22.333 -3.5 37v124c0 14.667 1.16699 26.834 3.5 36.501s5.16602 14.5 8.49902 14.5h16h31c13.333 0 24.333 -1 33 -3c-13.333 13.333 -20 28.333 -20 45
c0 40 12 82 36 126s53.167 80.833 87.5 110.5s64.833 44.5 91.5 44.5c33.333 0 65 -13 95 -39s54.167 -60.5 72.5 -103.5s27.5 -88.5 27.5 -136.5c0 -9.33301 -1.16699 -17.666 -3.5 -24.999s-6.83301 -15.333 -13.5 -24c7.33301 2 14.666 3.33301 21.999 4
s15.666 1 24.999 1h28c3.33301 0 6.16602 -4.83301 8.49902 -14.5zM328.002 269.999c-4 25.333 -11.5029 46.832 -22.5029 64.499s-22.167 26.5 -33.5 26.5c-7.33301 0 -17.166 -5.16699 -29.499 -15.5s-23.166 -22.166 -32.499 -35.499s-14 -23.666 -14 -30.999
c0 -4.66699 4.83301 -12.334 14.5 -23.001s21.834 -22 36.501 -34z" />
    <glyph glyph-name="uniFED6" unicode="&#x642;" horiz-adv-x="897" arabic-form="final" 
d="M469 560l-122 103l103 122l117 -97l89 106l122 -103l-103 -122l-116 98zM905.5 212.5c2.33301 -9.66699 3.50098 -21.832 3.50098 -36.499v-124c0 -14.667 -1.16699 -27 -3.5 -37s-5.16602 -15 -8.49902 -15h-107c-3.33301 -37.333 -8.83301 -67.833 -16.5 -91.5
s-19.834 -44.834 -36.501 -63.501c-33.333 -35.333 -80.5 -60.833 -141.5 -76.5s-135.833 -23.5 -224.5 -23.5c-102 0 -175.5 18.833 -220.5 56.5s-67.5 91.5 -67.5 161.5c0 66 17.667 189.667 53 371l138 -28l-6 -39c-22 -129.333 -33 -209 -33 -239
c0 -24 11.333 -39.333 34 -46s56.667 -10 102 -10c66.667 0 121 1.5 163 4.5s80.667 7.83301 116 14.5c0 19.333 0.333008 33.666 1 42.999c-30.667 -5.33301 -63.334 -8 -98.001 -8c-37.333 0 -71 5 -101 15c-9.33301 3.33301 -17.333 9 -24 17s-15.667 22.333 -27 43
c-11.333 19.333 -18.666 33.833 -21.999 43.5s-5 20.5 -5 32.5c4.66699 92.667 25 166.167 61 220.5s86.667 81.5 152 81.5c52.667 0 97.667 -21.667 135 -65s60 -105.666 68 -186.999h107c3.33301 0 6.16602 -4.83301 8.49902 -14.5zM647.001 207.002
c0 32 -6.16602 56.167 -18.499 72.5s-28.5 24.5 -48.5 24.5c-17.333 0 -31.333 -8 -42 -24s-17.334 -40.333 -20.001 -73c24 -1.33301 47.333 -2 70 -2c18 0 37.667 0.666992 59 2z" />
    <glyph glyph-name="uniFED7" unicode="&#x642;" horiz-adv-x="515" arabic-form="initial" 
d="M144 809l-122 103l102 123l117 -98l89 106l122 -103l-103 -121l-116 97zM360.5 685.5c31.667 -23.667 57.001 -59.3359 76.001 -107.003s28.5 -105.5 28.5 -173.5c0 -73.333 -2.66699 -133.666 -8 -180.999s-15.166 -86.833 -29.499 -118.5s-34.833 -55.167 -61.5 -70.5
c-22.667 -14 -49.5 -23.333 -80.5 -28s-72.5 -7 -124.5 -7h-161c-3.33301 0 -6.16602 5 -8.49902 15s-3.5 22.333 -3.5 37v124c0 14.667 1.16699 26.834 3.5 36.501s5.16602 14.5 8.49902 14.5c72 0 135.667 0.333008 191 1s96.333 2.33398 123 5.00098
c0.666992 3.33301 1 10.333 1 21l1 21c-26.667 -4.66699 -57.334 -7 -92.001 -7c-38.667 0 -72.334 5 -101.001 15c-10 3.33301 -18.333 9 -25 17s-15.667 22.333 -27 43c-10.667 19.333 -17.667 33.833 -21 43.5s-5 20.5 -5 32.5c4 92 24.167 165.333 60.5 220
s86.833 82 151.5 82c37.333 0 71.833 -11.833 103.5 -35.5zM258.001 446.998c18.667 0 38.668 0.666992 60.001 2c0 31.333 -6.16699 55.333 -18.5 72s-28.5 25 -48.5 25c-17.333 0 -31.333 -8.16699 -42 -24.5s-17.334 -40.5 -20.001 -72.5c24 -1.33301 47 -2 69 -2z" />
    <glyph glyph-name="uniFED8" unicode="&#x642;" horiz-adv-x="528" arabic-form="medial" 
d="M194 615l-122 103l102 122l117 -97l89 106l122 -103l-103 -122l-116 98zM536.5 212.5c2.33301 -9.66699 3.50195 -21.835 3.50195 -36.502v-124c0 -14.667 -1.16699 -27 -3.5 -37s-5.16602 -15 -8.49902 -15h-109c-36.667 0 -67.667 3.66699 -93 11s-47.333 22 -66 44
c-22.667 -22.667 -47.5 -37.5 -74.5 -44.5s-60.5 -10.5 -100.5 -10.5h-85c-3.33301 0 -6.16602 5 -8.49902 15s-3.5 22.333 -3.5 37v124c0 14.667 1.16699 26.834 3.5 36.501s5.16602 14.5 8.49902 14.5h16h31c13.333 0 24.333 -1 33 -3c-13.333 13.333 -20 28.333 -20 45
c0 40 12 82 36 126s53.167 80.833 87.5 110.5s64.833 44.5 91.5 44.5c33.333 0 65 -13 95 -39s54.167 -60.5 72.5 -103.5s27.5 -88.5 27.5 -136.5c0 -9.33301 -1.16699 -17.666 -3.5 -24.999s-6.83301 -15.333 -13.5 -24c7.33301 2 14.666 3.33301 21.999 4
s15.666 1 24.999 1h28c3.33301 0 6.16602 -4.83301 8.49902 -14.5zM328.002 269.999c-4 25.333 -11.5029 46.832 -22.5029 64.499s-22.167 26.5 -33.5 26.5c-7.33301 0 -17.166 -5.16699 -29.499 -15.5s-23.166 -22.166 -32.499 -35.499s-14 -23.666 -14 -30.999
c0 -4.66699 4.83301 -12.334 14.5 -23.001s21.834 -22 36.501 -34z" />
    <glyph glyph-name="uniFEDA" unicode="&#x643;" horiz-adv-x="966" arabic-form="final" 
d="M974.5 212.5c2.33301 -9.66699 3.49902 -21.833 3.49902 -36.5v-124c0 -14.667 -1.16699 -27 -3.5 -37s-5.16602 -15 -8.49902 -15c-100 0 -172 20.667 -216 62c-22.667 -20.667 -56.667 -35.667 -102 -45s-106.333 -16.333 -183 -21c-82 0 -150.5 6 -205.5 18
s-98.167 34.833 -129.5 68.5s-47 81.5 -47 143.5c0 15.333 2.66699 41 8 77l25 157l138 -28l-22 -133c-2.66699 -13.333 -4 -23 -4 -29c0 -17.333 20 -29.5 60 -36.5s99.333 -10.5 178 -10.5c48 0 92.333 1.33301 133 4s70.334 7 89.001 13l-17 519l169 28l2 -480
c0 -24 4.33301 -43 13 -57s25 -21.667 49 -23h62c3.33301 0 6.16602 -4.83301 8.49902 -14.5zM508.499 374.001c-37 -28.667 -90.833 -43 -161.5 -43l17 120c58 -1.33301 104.333 2.33398 139 11.001c-44 6.66699 -76.333 15 -97 25s-31 27 -31 51c0 29.333 6 58.5 18 87.5
s27.167 52.833 45.5 71.5s35.833 28 52.5 28s32 -5.16699 46 -15.5s30 -29.5 48 -57.5l-49 -50c-14.667 14 -27.667 21 -39 21c-18 0 -31.667 -16.333 -41 -49c38 -2.66699 65.5 -9.83398 82.5 -21.501s25.5 -34.167 25.5 -67.5c0 -45.333 -18.5 -82.333 -55.5 -111z" />
    <glyph glyph-name="uniFEDB" unicode="&#x643;" horiz-adv-x="501" arabic-form="initial" 
d="M374 395c32 -64 48.001 -133.002 48.001 -207.002c0 -49.333 -14.5 -87.833 -43.5 -115.5s-73.833 -47 -134.5 -58s-142 -15.833 -244 -14.5c-3.33301 0 -6.16602 5 -8.49902 15s-3.5 22.333 -3.5 37v124c0 14.667 1.16699 26.834 3.5 36.501s5.16602 14.5 8.49902 14.5
c121.333 0 208.333 4.33301 261 13c-6.66699 46 -32.834 93.833 -78.501 143.5s-103.5 94.167 -173.5 133.5l-1 171c57.333 30.667 120.5 61.334 189.5 92.001s135.5 57.667 199.5 81l21 -186l-80 -32l-81 -33l-56 -23c14 -6.66699 27.667 -15.667 41 -27
c56 -46 100 -101 132 -165z" />
    <glyph glyph-name="uniFEDC" unicode="&#x643;" horiz-adv-x="515" arabic-form="medial" 
d="M523 212.5c2 -9.66699 3.00098 -21.835 3.00098 -36.502v-124c0 -14.667 -1 -27 -3 -37s-4.66699 -15 -8 -15h-62c-22.667 0 -42.5 4.66699 -59.5 14s-30.5 22.333 -40.5 39c-30.667 -18.667 -72 -32.167 -124 -40.5s-117.667 -12.5 -197 -12.5h-32
c-3.33301 0 -6.16602 5 -8.49902 15s-3.5 22.333 -3.5 37v124c0 14.667 1.16699 26.834 3.5 36.501s5.16602 14.5 8.49902 14.5c121.333 0 208.333 4.33301 261 13c-6.66699 46 -32.834 93.833 -78.501 143.5s-103.5 94.167 -173.5 133.5l-1 171
c57.333 30.667 120.5 61.334 189.5 92.001s135.5 57.667 199.5 81l21 -186l-80 -32l-81 -33l-56 -23c14 -6.66699 27.667 -15.667 41 -27c49.333 -40.667 89.5 -88.5 120.5 -143.5s49.833 -114.5 56.5 -178.5c6 -4.66699 12.5 -7.66699 19.5 -9s18.167 -2 33.5 -2h43
c3.33301 0 6 -4.83301 8 -14.5z" />
    <glyph glyph-name="uniFEDE" unicode="&#x644;" horiz-adv-x="814" arabic-form="final" 
d="M822.5 212.5c2.33301 -9.66699 3.50098 -21.8311 3.50098 -36.498v-124c0 -14.667 -1.16699 -27 -3.5 -37s-5.16602 -15 -8.49902 -15h-19c-21.333 0 -39.5 3.33301 -54.5 10s-27.833 17 -38.5 31l4 -87c1.33301 -48 -16.334 -86.667 -53.001 -116s-80.667 -50 -132 -62
s-100 -18 -146 -18c-103.333 0 -177.833 18.667 -223.5 56s-68.5 91.666 -68.5 162.999c0 66 17.667 189.667 53 371l138 -28c-26 -149.333 -39 -242 -39 -278c0 -24 11.5 -39.5 34.5 -46.5s56.833 -10.5 101.5 -10.5c37.333 0 69.333 1.66699 96 5
s55.334 8.66602 86.001 15.999l-57 749l172 32l24 -529c2.66699 -13.333 9.16699 -21.833 19.5 -25.5s27.166 -5.5 50.499 -5.5h52c3.33301 0 6.16602 -4.83301 8.49902 -14.5z" />
    <glyph glyph-name="uniFEDF" unicode="&#x644;" horiz-adv-x="388" arabic-form="initial" 
d="M236 53c-50 -35.333 -128.664 -53.001 -235.997 -53.001c-3.33301 0 -6.16602 5 -8.49902 15s-3.5 22.333 -3.5 37v124c0 14.667 1.16699 26.834 3.5 36.501s5.16602 14.5 8.49902 14.5c63.333 0 113.666 4.66699 150.999 14l-35 518l172 28l6 -147
c0.666992 -28 2.66699 -87.833 6 -179.5s5.66602 -176.5 6.99902 -254.5c1.33301 -66 -22.334 -117 -71.001 -153z" />
    <glyph glyph-name="uniFEE0" unicode="&#x644;" horiz-adv-x="434" arabic-form="medial" 
d="M442 212.5c2 -9.66699 2.99902 -21.835 2.99902 -36.502v-124c0 -14 -1.16699 -26.167 -3.5 -36.5s-4.83301 -15.5 -7.5 -15.5c-56 0 -101 5.16699 -135 15.5s-59 28.5 -75 54.5c-17.333 -26 -45.166 -44.333 -83.499 -55s-85.166 -15.667 -140.499 -15
c-3.33301 0 -6.16602 5 -8.49902 15s-3.5 22.333 -3.5 37v124c0 14.667 1.16699 26.834 3.5 36.501s5.16602 14.5 8.49902 14.5c73.333 0 125 3.66699 155 11l-20 521l173 28l-3 -485c0 -24 4.66699 -42.167 14 -54.5s26.666 -19.166 51.999 -20.499h63
c3.33301 0 6 -4.83301 8 -14.5z" />
    <glyph glyph-name="uniFEE2" unicode="&#x645;" horiz-adv-x="682" arabic-form="final" 
d="M690.5 212.5c2.33301 -9.66699 3.50098 -21.8311 3.50098 -36.498v-124c0 -14.667 -1.16699 -27 -3.5 -37s-5.16602 -15 -8.49902 -15c-26.667 0 -53.167 6.16699 -79.5 18.5s-47.166 30.166 -62.499 53.499l-1 -21c-0.666992 -11.333 -4.83398 -21.333 -12.501 -30
s-22.834 -21 -45.501 -37c-27.333 -21.333 -49.333 -32 -66 -32c-6.66699 0 -14 1.66699 -22 5l-163 73c8 -62 25.667 -165.667 53 -311l-180 -56c-20.667 163.333 -31 283 -31 359c0 70 8 123.333 24 160c41.333 94 83.666 162 126.999 204s91.333 63 144 63
c33.333 0 65 -11.833 95 -35.5s53 -53.5 69 -89.5c10.667 -24 21 -42.333 31 -55s24.333 -22.834 43 -30.501s44.334 -11.5 77.001 -11.5c3.33301 0 6.16602 -4.83301 8.49902 -14.5zM417.001 182.003c0 25.333 -5.66699 46.333 -17 63s-28.333 25 -51 25
c-13.333 0 -27.333 -6.16699 -42 -18.5s-28 -29.5 -40 -51.5l143 -67c4.66699 18.667 7 35 7 49z" />
    <glyph glyph-name="uniFEE3" unicode="&#x645;" horiz-adv-x="593" arabic-form="initial" 
d="M415.5 415c31 -24 55.332 -57.002 72.999 -99.002s26.5 -89 26.5 -141c0 -40.667 -6 -82.667 -18 -126c-2.66699 -10 -7.83398 -19.333 -15.501 -28s-22.5 -21.667 -44.5 -39c-26.667 -20 -47.667 -30 -63 -30c-8 0 -16.667 2 -26 6l-190 78
c-16 -14 -34.667 -23.5 -56 -28.5s-48.666 -7.5 -81.999 -7.5h-20c-3.33301 0 -6.16602 5 -8.49902 15s-3.5 22.333 -3.5 37v124c0 14.667 1.16699 26.834 3.5 36.501s5.16602 14.5 8.49902 14.5h34c18 0 31.333 1 40 3s15.334 5.83301 20.001 11.5
s9.66699 14.834 15 27.501c28 68.667 58.167 116.167 90.5 142.5s69.5 39.5 111.5 39.5c38.667 0 73.5 -12 104.5 -36zM370.999 175.998c0 26.667 -6.33203 49 -18.999 67s-30.667 27 -54 27c-24.667 -1.33301 -46.334 -26 -65.001 -74l133 -59
c3.33301 14.667 5 27.667 5 39z" />
    <glyph glyph-name="uniFEE4" unicode="&#x645;" horiz-adv-x="628" arabic-form="medial" 
d="M636.5 212.5c2.33301 -9.66699 3.49902 -21.834 3.49902 -36.501v-124c0 -14.667 -1.16699 -27 -3.5 -37s-5.16602 -15 -8.49902 -15c-26 0 -51.167 5.66699 -75.5 17s-44.166 28 -59.499 50l-2 -16c-0.666992 -10 -5 -19.833 -13 -29.5s-23.667 -23.5 -47 -41.5
c-23.333 -18.667 -43.333 -28 -60 -28c-8.66699 0 -17.667 2 -27 6l-186 78c-15.333 -14 -33 -23.5 -53 -28.5s-44.667 -7.5 -74 -7.5h-31c-3.33301 0 -6.16602 5 -8.49902 15s-3.5 22.333 -3.5 37v124c0 14.667 1.16699 26.834 3.5 36.501s5.16602 14.5 8.49902 14.5h34
c18 0 31.333 1 40 3s15.334 5.83301 20.001 11.5s9.66699 14.834 15 27.501c28 68.667 58.167 116.167 90.5 142.5s69.5 39.5 111.5 39.5c40 0 75.667 -12.833 107 -38.5s54.666 -57.834 69.999 -96.501c10 -24 19.5 -42 28.5 -54s21.833 -20.833 38.5 -26.5
s41 -8.5 73 -8.5c3.33301 0 6.16602 -4.83301 8.49902 -14.5zM370.999 175c0 26.667 -6.16602 49.166 -18.499 67.499s-30.5 27.5 -54.5 27.5c-24.667 -1.33301 -46.334 -26 -65.001 -74l134 -59c2.66699 10.667 4 23.334 4 38.001z" />
    <glyph glyph-name="uniFEE6" unicode="&#x646;" horiz-adv-x="808" arabic-form="final" 
d="M387 378l-136 113l113 135l135 -113zM816.5 212.5c2.33301 -9.66699 3.50195 -21.832 3.50195 -36.499v-124c0 -14.667 -1.16699 -27 -3.5 -37s-5.16602 -15 -8.49902 -15h-10c-38.667 0 -70.334 13.333 -95.001 40c2 -31.333 3 -60 3 -86
c0 -48 -18.333 -86.667 -55 -116s-80.334 -50 -131.001 -62s-99 -18 -145 -18c-194.667 0 -292 73 -292 219c0 66 17.667 189.667 53 371l138 -28c-26 -149.333 -39 -242 -39 -278c0 -24 11.5 -39.5 34.5 -46.5s56.833 -10.5 101.5 -10.5c38.667 0 71.5 1.66699 98.5 5
s53.5 9 79.5 17l-49 363l169 38c8 -74.667 13.667 -130 17 -166c8 -6.66699 19.5 -10.834 34.5 -12.501s40.833 -2.5 77.5 -2.5h10c3.33301 0 6.16602 -4.83301 8.49902 -14.5z" />
    <glyph glyph-name="uniFEE7" unicode="&#x646;" horiz-adv-x="405" arabic-form="initial" 
d="M189 586l-135 114l113 135l135 -114zM318 328c2 -36.667 3.00098 -77.333 3.00098 -122c0 -66.667 -23.667 -117.667 -71 -153c-50 -35.333 -133.333 -53 -250 -53c-3.33301 0 -6.16602 5 -8.49902 15s-3.5 22.333 -3.5 37v124c0 14.667 1.16699 26.834 3.5 36.501
s5.16602 14.5 8.49902 14.5c44.667 0 79.167 1.16699 103.5 3.5s44.166 6.16602 59.499 11.499l-27 206l171 30c5.33301 -63.333 9 -113.333 11 -150z" />
    <glyph glyph-name="uniFEE8" unicode="&#x646;" horiz-adv-x="424" arabic-form="medial" 
d="M209 511l-135 113l113 135l135 -113zM432.5 212.5c2.33301 -9.66699 3.49902 -21.834 3.49902 -36.501v-124c0 -14.667 -1.16699 -27 -3.5 -37s-5.16602 -15 -8.49902 -15c-62.667 0 -109.334 5.16699 -140.001 15.5s-51.667 28.833 -63 55.5
c-9.33301 -20 -22.166 -35 -38.499 -45s-38.5 -16.833 -66.5 -20.5s-66.667 -5.5 -116 -5.5c-3.33301 0 -6.16602 5 -8.49902 15s-3.5 22.333 -3.5 37v124c0 14.667 1.16699 26.834 3.5 36.501s5.16602 14.5 8.49902 14.5c38.667 0 70 1 94 3s43.667 5.66699 59 11l-24 172
l170 19l5 -195c12 -4 26.333 -6.66699 43 -8s42.334 -2 77.001 -2c3.33301 0 6.16602 -4.83301 8.49902 -14.5z" />
    <glyph glyph-name="uniFEEA" unicode="&#x647;" horiz-adv-x="574" arabic-form="final" 
d="M582.5 212.5c2.33301 -9.66699 3.49805 -21.834 3.49805 -36.501v-124c0 -14.667 -1.16699 -27 -3.5 -37s-5.16602 -15 -8.49902 -15h-41c-46 0 -81.5 9 -106.5 27s-42.5 44.667 -52.5 80l-3 -7c-8.66699 -20.667 -23 -33 -43 -37c-26 -6 -65 -9 -117 -9
c-42.667 0 -76.167 11.667 -100.5 35s-36.5 56.333 -36.5 99c0 58.667 4.83301 103.667 14.5 135s28.834 59.833 57.501 85.5s76 57.167 142 94.5l-8 76l160 49l32 -317c2.66699 -24.667 5.5 -42.167 8.5 -52.5s8.83301 -18.166 17.5 -23.499s22.334 -8 41.001 -8h35
c3.33301 0 6.16602 -4.83301 8.49902 -14.5zM287.498 249c18.333 2 34.498 5.33398 48.498 10.001l-12 86c-41.333 -16.667 -70.166 -32.334 -86.499 -47.001s-27.166 -30.667 -32.499 -48l30 -3c16.667 -0.666992 34.167 0 52.5 2z" />
    <glyph glyph-name="uniFEEB" unicode="&#x647;" horiz-adv-x="730" arabic-form="initial" 
d="M610.5 376c27 -40 40.5 -86.334 40.5 -139.001c0 -40.667 -11.333 -92.667 -34 -156c-4 -10 -10.5 -19.833 -19.5 -29.5s-22.833 -21.5 -41.5 -35.5c-22 -16.667 -40.667 -25 -56 -25c-8 0 -15 1.33301 -21 4l-152 56c-49.333 -34 -158.333 -51 -327 -51
c-3.33301 0 -6.16602 5 -8.49902 15s-3.5 22.333 -3.5 37v124c0 14.667 1.16699 26.834 3.5 36.501s5.16602 14.5 8.49902 14.5h33c38.667 0 65 -0.666992 79 -2c-10.667 8.66699 -18.667 19.5 -24 32.5s-8 26.5 -8 40.5c0 36 17.333 78.333 52 127l-36 17l79 171l321 -144
c49.333 -22 87.5 -53 114.5 -93zM334 342.999l-73 35c-16 -18 -27.167 -32.167 -33.5 -42.5s-9.5 -19.5 -9.5 -27.5c0 -12 8 -23 24 -33s36.333 -15.667 61 -17zM511 202.999c2.66699 8 4 14.667 4 20c0 34 -27.333 61.333 -82 82l-34 -86l102 -38
c4 6.66699 7.33301 14 10 22z" />
    <glyph glyph-name="uniFEEC" unicode="&#x647;" horiz-adv-x="543" arabic-form="medial" 
d="M551.5 212.5c2.33301 -9.66699 3.50098 -21.833 3.50098 -36.5v-124c0 -14.667 -1.16699 -27 -3.5 -37s-5.16602 -15 -8.49902 -15c-43.333 0 -77.333 1.66699 -102 5c7.33301 -19.333 11 -37 11 -53v-69c0 -10.667 -3.16699 -21.334 -9.5 -32.001
s-17.5 -23.334 -33.5 -38.001c-18 -16 -32.833 -27.167 -44.5 -33.5s-23.167 -9.16602 -34.5 -8.49902c-77.333 2 -140.333 20.167 -189 54.5s-79.334 92.5 -92.001 174.5h-49c-3.33301 0 -6.16602 5 -8.49902 15s-3.5 22.333 -3.5 37v124
c0 14.667 1.16699 26.834 3.5 36.501s5.16602 14.5 8.49902 14.5h56c12 50.667 30.333 97.167 55 139.5s53.667 75.833 87 100.5s68 37 104 37h106l8 -277h127c3.33301 0 6.16602 -4.83301 8.49902 -14.5zM219.001 291.001c-14 -26.667 -24.334 -56.666 -31.001 -89.999h38
c16.667 0 32.334 -1.66699 47.001 -5l-3 157c-20 -14.667 -37 -35.334 -51 -62.001zM309 -31.998c0 26.667 -6.16699 45.5 -18.5 56.5s-33.833 16.5 -64.5 16.5h-45c6 -35.333 20 -61 42 -77s50.667 -23.333 86 -22v26z" />
    <glyph glyph-name="uniFEEE" unicode="&#x648;" horiz-adv-x="526" arabic-form="final" 
d="M534.5 212.5c2.33301 -9.66699 3.5 -21.833 3.5 -36.5v-124c0 -14.667 -1.16699 -27 -3.5 -37s-5.16602 -15 -8.49902 -15h-67c-38 -138.667 -145.667 -247.334 -323 -326.001l-114 173c60 21.333 115.667 47.166 167 77.499s90.333 58.833 117 85.5
c-22.667 -5.33301 -46 -8 -70 -8c-41.333 0 -75.333 5 -102 15c-9.33301 3.33301 -17.166 9 -23.499 17s-15.833 22.667 -28.5 44c-10 18.667 -16.833 33.167 -20.5 43.5s-5.16699 20.5 -4.5 30.5c4 92.667 24.167 166.334 60.5 221.001s87.166 82 152.499 82
c48 0 90.5 -19.667 127.5 -59s61.167 -95.666 72.5 -168.999h56c3.33301 0 6.16602 -4.83301 8.49902 -14.5zM270 180.001c24 0 44 1 60 3c0 31.333 -6.33301 55.333 -19 72s-29 25 -49 25c-17.333 0 -31.333 -8.16699 -42 -24.5s-17 -40.5 -19 -72.5c18 -2 41 -3 69 -3z
" />
    <glyph glyph-name="uniFEF0" unicode="&#x649;" horiz-adv-x="785" arabic-form="final" 
d="M793.5 212.5c2.33301 -9.66699 3.5 -21.833 3.5 -36.5v-124c0 -14.667 -1.16699 -27 -3.5 -37s-5.16602 -15 -8.49902 -15l-24 1v-11c0 -50.667 -16.167 -96.667 -48.5 -138s-77.833 -74 -136.5 -98s-125.667 -36 -201 -36c-103.333 0 -177.833 18.833 -223.5 56.5
s-68.5 91.834 -68.5 162.501c0 66 17.667 189.667 53 371l138 -28c-26 -149.333 -39 -242 -39 -278c0 -24 12 -39.5 36 -46.5s61 -10.5 111 -10.5c49.333 0 96.333 3.66699 141 11s78 17.666 100 30.999c-14.667 12 -43.667 19 -87 21l-60 2l32 217h277
c3.33301 0 6.16602 -4.83301 8.49902 -14.5z" />
    <glyph glyph-name="uniFEF2" unicode="&#x64a;" horiz-adv-x="785" arabic-form="final" 
d="M793.5 212.5c2.33301 -9.66699 3.5 -21.833 3.5 -36.5v-124c0 -14.667 -1.16699 -27 -3.5 -37s-5.16602 -15 -8.49902 -15l-24 1v-11c0 -50.667 -16.167 -96.667 -48.5 -138s-77.833 -74 -136.5 -98s-125.667 -36 -201 -36c-103.333 0 -177.833 18.833 -223.5 56.5
s-68.5 91.834 -68.5 162.501c0 66 17.667 189.667 53 371l138 -28c-26 -149.333 -39 -242 -39 -278c0 -24 12 -39.5 36 -46.5s61 -10.5 111 -10.5c49.333 0 96.333 3.66699 141 11s78 17.666 100 30.999c-14.667 12 -43.667 19 -87 21l-60 2l32 217h277
c3.33301 0 6.16602 -4.83301 8.49902 -14.5zM492 -339.999l123 -102l-103 -123l-116 97l-89 -107l-123 103l103 124l116 -97z" />
    <glyph glyph-name="uniFEF3" unicode="&#x64a;" horiz-adv-x="405" arabic-form="initial" 
d="M-8.5 15c-2.33301 10 -3.49902 22.334 -3.49902 37.001v124c0 14.667 1.16699 26.834 3.5 36.501s5.16602 14.5 8.49902 14.5c44.667 0 79.167 1.16699 103.5 3.5s44.166 6.16602 59.499 11.499l-27 206l171 30c5.33301 -63.333 9 -113.333 11 -150s3 -77.334 3 -122.001
c0 -66.667 -23.667 -117.667 -71 -153c-50 -35.333 -133.333 -53 -250 -53c-3.33301 0 -6.16602 5 -8.49902 15zM225.001 -341.999l-116 98l-89 -108l-122 103l102 124l117 -98l89 106l122 -102z" />
    <glyph glyph-name="uniFEF4" unicode="&#x64a;" horiz-adv-x="424" arabic-form="medial" 
d="M182.5 26c-16.333 -10 -38.501 -16.833 -66.501 -20.5s-66.667 -5.5 -116 -5.5c-3.33301 0 -6.16602 5 -8.49902 15s-3.5 22.333 -3.5 37v124c0 14.667 1.16699 26.834 3.5 36.501s5.16602 14.5 8.49902 14.5c38.667 0 70 1 94 3s43.667 5.66699 59 11l-24 172l170 19
l5 -195c12 -4 26.333 -6.66699 43 -8s42.334 -2 77.001 -2c3.33301 0 6.16602 -4.83301 8.49902 -14.5s3.5 -21.834 3.5 -36.501v-124c0 -14.667 -1.16699 -27 -3.5 -37s-5.16602 -15 -8.49902 -15c-62.667 0 -109.334 5.16699 -140.001 15.5s-51.667 28.833 -63 55.5
c-9.33301 -20 -22.166 -35 -38.499 -45zM342.999 -337l-116 97l-89 -107l-123 103l103 124l116 -97l89 105l123 -102z" />
    <glyph glyph-name=".notdef" horiz-adv-x="681" 
d="M558 -293h-431v1362h431v-1362zM229 978v-45h88v-51h-90v-45h227v45h-90v51h90v45h-225zM227 802v-142h227v47h-90v95h-137zM317 707h-45v49h45v-49zM227 624v-45h90v-51h-90v-45h137v96h90v45h-227zM409 542v-90h-182v-46h227v136h-45zM317 376v-77h47v32h45v-64h-137
v109h-45v-154h227v154h-137zM227 140v-154h227v154h-227zM409 31h-137v64h137v-64zM227 -45v-45h96l-96 -64v-45h227v45h-139l95 64h44v45h-227z" />
    <glyph glyph-name="space" unicode=" " horiz-adv-x="155" 
 />
    <glyph glyph-name="exclam" unicode="!" horiz-adv-x="379" 
d="M256 310l-138 -21l-22 466l164 25zM107 12c-22 20.667 -33.001 47.667 -33.001 81c0 32 10.5 58.667 31.5 80s48.167 32 81.5 32c32.667 0 59.334 -10.667 80.001 -32s31 -48 31 -80c0 -32.667 -10.5 -59.5 -31.5 -80.5s-47.167 -31.5 -78.5 -31.5
c-32 0 -59 10.333 -81 31z" />
    <glyph glyph-name="quotedbl" unicode="&#x22;" horiz-adv-x="579" 
d="M120 355l-36 233l-6 160h182l-6 -160l-36 -233h-98zM378 355l-36 233l-6 160h181l-6 -160l-36 -233h-97z" />
    <glyph glyph-name="numbersign" unicode="#" horiz-adv-x="573" 
d="M119 210h-84v118h97l15 117h-89v117h104l23 185h105l-21 -185h111l23 185h105l-21 -185h90v-117h-105l-15 -117h97v-118h-110l-25 -210h-107l25 210h-111l-25 -210h-107zM350 328l15 117h-111l-15 -117h111z" />
    <glyph glyph-name="dollar" unicode="$" horiz-adv-x="604" 
d="M241 -114l-0.000976562 115.004c-35.333 4 -71.333 13.5 -108 28.5s-68.667 34.5 -96 58.5l81 126c30.667 -22.667 58.667 -39.167 84 -49.5s51 -15.5 77 -15.5c30 0 51.667 5.66699 65 17s20 29 20 53c0 16 -6.5 30.5 -19.5 43.5s-32.167 25.833 -57.5 38.5l-72 37
c-59.333 30 -101.666 65.667 -126.999 107c-15.333 25.333 -23 54.333 -23 87c0 57.333 15.5 105.166 46.5 143.499s74.167 63.166 129.5 74.499v119h122v-117c35.333 -6 66.833 -16.833 94.5 -32.5s53.834 -36.5 78.501 -62.5l-93 -107
c-21.333 19.333 -41.5 33.5 -60.5 42.5s-39.5 13.5 -61.5 13.5c-26.667 0 -46.334 -5 -59.001 -15s-19 -26.667 -19 -50c0 -14.667 6.5 -27.667 19.5 -39s32.5 -23.333 58.5 -36l12 -6c4 -2 7.66699 -3.66699 11 -5s15 -7 35 -17s39 -21.667 57 -35
c34.667 -20.667 61 -44.834 79 -72.501s27 -60.5 27 -98.5c0 -56.667 -15.167 -104.834 -45.5 -144.501s-74.833 -66.5 -133.5 -80.5v-121h-122z" />
    <glyph glyph-name="percent" unicode="%" horiz-adv-x="924" 
d="M214 -13l402 777h126l-402 -777h-126zM70 358.5c-30 40.333 -45 91.833 -45 154.5s15.167 113.667 45.5 153s71.833 59 124.5 59c54 0 96.167 -19.833 126.5 -59.5s45.5 -90.5 45.5 -152.5c0 -62.667 -15.333 -114.167 -46 -154.5s-72.667 -60.5 -126 -60.5
s-95 20.167 -125 60.5zM239.5 425.5c8.33301 23.667 12.501 52.834 12.501 87.501c0 80.667 -19 121 -57 121c-20 0 -34.333 -11.5 -43 -34.5s-13 -51.833 -13 -86.5c0 -36.667 4.33301 -66.334 13 -89.001s23 -34 43 -34c21.333 0 36.166 11.833 44.499 35.5zM603.501 48.5
c-30.333 41 -45.501 92.501 -45.501 154.501c0 62.667 15.333 113.667 46 153s72.334 59 125.001 59c54 0 96 -19.833 126 -59.5s45 -90.5 45 -152.5c0 -62.667 -15.333 -114.334 -46 -155.001s-72.334 -61 -125.001 -61c-53.333 0 -95.166 20.5 -125.499 61.5zM785 203.001
c0 80.667 -18.667 121 -56 121c-20.667 0 -35.334 -11.5 -44.001 -34.5s-13 -51.833 -13 -86.5c0 -36.667 4.33301 -66.5 13 -89.5s23.334 -34.5 44.001 -34.5c37.333 0 56 41.333 56 124z" />
    <glyph glyph-name="ampersand" unicode="&#x26;" horiz-adv-x="778" 
d="M146.5 14.5c-38.333 17.667 -68.333 42.834 -90 75.501s-32.5 70.334 -32.5 113.001c0 46 11.333 85.667 34 119s56 63.666 100 90.999c-30 56 -45 106 -45 150c0 38.667 9.16699 73.167 27.5 103.5s43.666 54.166 75.999 71.499s68.166 26 107.499 26
c58.667 0 105.334 -15.667 140.001 -47s52 -74 52 -128c0 -42.667 -12.833 -80 -38.5 -112s-63.5 -64.667 -113.5 -98c36.667 -40.667 83 -81 139 -121c37.333 47.333 65 104 83 170h169c-26.667 -90 -67.667 -172.333 -123 -247c48 -24 90.333 -38.333 127 -43l-44 -150
c-63.333 12 -129 36.333 -197 73c-71.333 -48.667 -151.333 -73 -240 -73c-49.333 0 -93.166 8.83301 -131.499 26.5zM288 483c28.667 17.333 50.333 34 65 50s22 34.667 22 56c0 34.667 -15.333 52 -46 52c-18 0 -33 -6.83301 -45 -20.5s-18 -32.5 -18 -56.5
c0 -24.667 7.33301 -51.667 22 -81zM383.999 152c-51.333 41.333 -99.001 88 -143.001 140c-27.333 -25.333 -41 -51.333 -41 -78c0 -25.333 9.33301 -45.833 28 -61.5s43.334 -23.5 74.001 -23.5c26 0 53.333 7.66699 82 23z" />
    <glyph glyph-name="quotesingle" unicode="'" horiz-adv-x="338" 
d="M120 355l-36 233l-6 160h182l-6 -160l-36 -233h-98z" />
    <glyph glyph-name="parenleft" unicode="(" horiz-adv-x="443" 
d="M243 -171c-109.333 160.667 -164 329.001 -164 505.001s54.667 344.333 164 505l132 -88c-44 -64 -77 -131.333 -99 -202s-33 -142.334 -33 -215.001c0 -73.333 11 -145.333 33 -216s55 -137.667 99 -201z" />
    <glyph glyph-name="parenright" unicode=")" horiz-adv-x="443" 
d="M68 -83c44 63.333 77 130.332 99 200.999s33 142.667 33 216c0 72.667 -11 144.334 -33 215.001s-55 138 -99 202l131 88c110 -160 165 -328.333 165 -505s-55 -345 -165 -505z" />
    <glyph glyph-name="asterisk" unicode="*" horiz-adv-x="550" 
d="M122 382l14 94l-53 84l-30 81l95 16l61 71l91 53l44 -83l90 -36l71 -47l-69 -69l-7 -98l-34 -90l-84 41l-93 -21z" />
    <glyph glyph-name="plus" unicode="+" horiz-adv-x="607" 
d="M236 95v208h-201v132h201v208h136v-208h200v-132h-200v-208h-136z" />
    <glyph glyph-name="comma" unicode="," horiz-adv-x="348" 
d="M48 -108c44 15.333 77.498 35.168 100.498 59.501s34.5 51.166 34.5 80.499h-8c-30.667 0 -56.667 9.16699 -78 27.5s-32 43.5 -32 75.5c0 30.667 10.833 55.667 32.5 75s48.834 29 81.501 29c41.333 0 72.5 -14.833 93.5 -44.5s31.5 -72.167 31.5 -127.5
c0 -67.333 -18.667 -124.833 -56 -172.5s-91.666 -81.5 -162.999 -101.5z" />
    <glyph glyph-name="hyphen" unicode="-" horiz-adv-x="377" 
d="M45 204v130h287v-130h-287z" />
    <glyph glyph-name="period" unicode="." horiz-adv-x="416" 
d="M119 13.5c-25.333 23.667 -38 54.5 -38 92.5c0 36.667 12 67.334 36 92.001s55.333 37 94 37c38 0 68.667 -12.333 92 -37s35 -55.334 35 -92.001c0 -38 -12 -68.833 -36 -92.5s-54 -35.5 -90 -35.5c-36.667 0 -67.667 11.833 -93 35.5z" />
    <glyph glyph-name="slash" unicode="/" horiz-adv-x="380" 
d="M14 -165l214 1000h120l-214 -1000h-120z" />
    <glyph glyph-name="zero" unicode="0" horiz-adv-x="630" 
d="M163.5 35.5c-41.667 31.667 -73.168 76.166 -94.501 133.499s-32 124 -32 200c0 116 23.833 207.667 71.5 275s116.5 101 206.5 101c90.667 0 159.834 -33.667 207.501 -101s71.5 -159 71.5 -275c0 -117.333 -24 -210.166 -72 -278.499s-117 -102.5 -207 -102.5
c-59.333 0 -109.833 15.833 -151.5 47.5zM394.999 368.999c0 75.333 -6.16699 132.833 -18.5 172.5s-32.833 59.5 -61.5 59.5s-49.167 -20.167 -61.5 -60.5s-18.5 -97.5 -18.5 -171.5s6.33301 -132.167 19 -174.5s33 -63.5 61 -63.5c53.333 0 80 79.333 80 238z" />
    <glyph glyph-name="one" unicode="1" horiz-adv-x="625" 
d="M70 151l157.001 -0.000976562v394h-137v113c41.333 8 76.166 17.333 104.499 28s57.5 25.334 87.5 44.001h155v-579h133v-151h-500v151z" />
    <glyph glyph-name="two" unicode="2" horiz-adv-x="628" 
d="M36 103c99.333 91.333 174 165.666 224 222.999c57.333 65.333 86 122 86 170c0 32.667 -7.16699 57.834 -21.5 75.501s-34.833 26.5 -61.5 26.5c-20.667 0 -39.667 -6.16699 -57 -18.5s-39.666 -32.833 -66.999 -61.5l-109 109c38 40.667 77.167 70.167 117.5 88.5
s87.166 27.5 140.499 27.5c51.333 0 96.5 -9.83301 135.5 -29.5s69.333 -47.5 91 -83.5s32.5 -77 32.5 -123c0 -27.333 -5.83301 -55.833 -17.5 -85.5s-29.5 -62.5 -53.5 -98.5c-34 -48 -83.667 -106.333 -149 -175c42 6 79 9 111 9h144v-157h-546v103z" />
    <glyph glyph-name="three" unicode="3" horiz-adv-x="636" 
d="M114 219c26 -26.667 51.835 -46.834 77.502 -60.501s51.834 -20.5 78.501 -20.5c31.333 0 55.666 6.16699 72.999 18.5s26 31.5 26 57.5s-6.33301 45.833 -19 59.5s-32.334 23 -59.001 28s-63.334 7.16699 -110.001 6.5v130c56.667 -0.666992 98.167 5.5 124.5 18.5
s39.5 36.5 39.5 70.5c0 24.667 -5.66699 42.834 -17 54.501s-28.666 17.5 -51.999 17.5c-22.667 0 -43.334 -5.16699 -62.001 -15.5s-42.667 -28.5 -72 -54.5l-100 121c76 63.333 156.667 95 242 95c82.667 0 148.5 -18 197.5 -54s73.5 -86 73.5 -150
c0 -36 -10.5 -67 -31.5 -93s-52.833 -48 -95.5 -66v-5c48 -14.667 85 -36.834 111 -66.501s39 -66.167 39 -109.5c0 -42.667 -12.833 -80.167 -38.5 -112.5s-60.5 -57.166 -104.5 -74.499s-93 -26 -147 -26c-60 0 -112.5 9.33301 -157.5 28s-81.167 44 -108.5 76z" />
    <glyph glyph-name="four" unicode="4" horiz-adv-x="634" 
d="M610 309v-142h-80v-167h-197v167h-313v127l257 436h253v-421h80zM333 406c0 26.667 1.66699 68.333 5 125c-8 -17.333 -14.333 -30.333 -19 -39l-21 -45l-79 -138h114v97z" />
    <glyph glyph-name="five" unicode="5" horiz-adv-x="628" 
d="M137 16.5c-45.333 19 -83.335 43.834 -114.002 74.501l89 127c29.333 -27.333 55.833 -47.5 79.5 -60.5s48.5 -19.5 74.5 -19.5c33.333 0 58.833 8.5 76.5 25.5s26.5 42.167 26.5 75.5s-8.33301 58.666 -25 75.999s-39.667 26 -69 26c-18.667 0 -34.667 -2.66699 -48 -8
s-32 -15.666 -56 -30.999l-93 60l19 369h448v-157h-264l-10 -113c17.333 6 38 9 62 9c74.667 0 134.167 -20.333 178.5 -61s66.5 -95.667 66.5 -165c0 -50 -12.333 -94.333 -37 -133s-58.667 -68.834 -102 -90.501s-91.666 -32.5 -144.999 -32.5
c-59.333 0 -111.666 9.5 -156.999 28.5z" />
    <glyph glyph-name="six" unicode="6" horiz-adv-x="631" 
d="M78.5 556c25 59.333 60.834 105.667 107.501 139s101.667 50 165 50c50 0 94.333 -8.66699 133 -26s71.334 -39 98.001 -65l-107 -121c-14.667 18.667 -31.834 33.5 -51.501 44.5s-39.5 16.5 -59.5 16.5c-74.667 0 -117.334 -62.667 -128.001 -188
c17.333 15.333 37.5 28.166 60.5 38.499s45.167 15.5 66.5 15.5c73.333 0 130.333 -19.833 171 -59.5s61 -95.167 61 -166.5c0 -48 -11.167 -90.667 -33.5 -128s-53.333 -66.333 -93 -87s-84.5 -31 -134.5 -31c-60.667 0 -113.167 15.167 -157.5 45.5s-78 72.833 -101 127.5
s-34.5 118.334 -34.5 191.001c0 76.667 12.5 144.667 37.5 204zM268.501 163.001c15.667 -25.333 36.167 -38.001 61.5 -38.001c22 0 39.667 9.33301 53 28s20 45.334 20 80.001c0 65.333 -25.333 98 -76 98c-33.333 0 -63.333 -21.333 -90 -64
c5.33301 -44 15.833 -78.667 31.5 -104z" />
    <glyph glyph-name="seven" unicode="7" horiz-adv-x="629" 
d="M225.5 309c29 87.333 75.835 175.333 140.502 264h-320v157h540v-111c-54.667 -64 -95.834 -124.833 -123.501 -182.5s-46.834 -119 -57.501 -184s-18 -149.167 -22 -252.5h-210c6 118.667 23.5 221.667 52.5 309z" />
    <glyph glyph-name="eight" unicode="8" horiz-adv-x="637" 
d="M175.5 13.5c-41 17 -73.333 40.6699 -97 71.0029s-35.5 64.833 -35.5 103.5c0 38 10.5 70.833 31.5 98.5s53.167 53.167 96.5 76.5v5c-36 26.667 -62.167 53.167 -78.5 79.5s-24.5 57.166 -24.5 92.499c0 41.333 10.667 77.333 32 108s51 54.5 89 71.5
s81.333 25.5 130 25.5c46.667 0 88 -8.33301 124 -25s63.833 -40.334 83.5 -71.001s29.5 -66 29.5 -106c0 -60 -33.333 -111.667 -100 -155v-5c44 -23.333 77 -50.333 99 -81s33 -67.334 33 -110.001c0 -40 -12.167 -75.5 -36.5 -106.5s-57.333 -55 -99 -72
s-88.167 -25.5 -139.5 -25.5c-50.667 0 -96.5 8.5 -137.5 25.5zM382 530.003c0 26.667 -5.83301 47.667 -17.5 63s-28.167 23 -49.5 23c-18.667 0 -33.5 -6.5 -44.5 -19.5s-16.5 -31.833 -16.5 -56.5c0 -24 7.66699 -43.667 23 -59s40 -30 74 -44
c20.667 28.667 31 59.667 31 93zM372.5 136.503c13 13.667 19.499 34.167 19.499 61.5c0 18.667 -5 34.334 -15 47.001s-23 23.167 -39 31.5s-40.333 19.5 -73 33.5c-11.333 -13.333 -20.666 -28.833 -27.999 -46.5s-11 -35.834 -11 -54.501c0 -28 8.5 -50.5 25.5 -67.5
s38.833 -25.5 65.5 -25.5c24 0 42.5 6.83301 55.5 20.5z" />
    <glyph glyph-name="nine" unicode="9" horiz-adv-x="630" 
d="M67.5 625.5c22.333 37.667 53.334 66.998 93.001 87.998s84.5 31.5 134.5 31.5c60.667 0 113.167 -15.167 157.5 -45.5s78.166 -73 101.499 -128s35 -118.5 35 -190.5c0 -77.333 -12.5 -145.666 -37.5 -204.999s-61 -105.5 -108 -138.5s-102.5 -49.5 -166.5 -49.5
c-49.333 0 -93.5 8.5 -132.5 25.5s-71.5 38.5 -97.5 64.5l107 121c14 -18.667 31 -33.5 51 -44.5s40 -16.5 60 -16.5c74.667 0 117 62.667 127 188c-16.667 -15.333 -36.667 -28.166 -60 -38.499s-45.666 -15.5 -66.999 -15.5c-72.667 0 -129.334 20.167 -170.001 60.5
s-61 95.5 -61 165.5c0 47.333 11.167 89.833 33.5 127.5zM246.501 426.498c13 -15.667 31.499 -23.498 55.499 -23.498c33.333 0 62 21.333 86 64c-5.33301 45.333 -16.166 79.5 -32.499 102.5s-35.833 34.5 -58.5 34.5c-20 0 -36.667 -9.33301 -50 -28
s-20 -44.334 -20 -77.001s6.5 -56.834 19.5 -72.501z" />
    <glyph glyph-name="colon" unicode=":" horiz-adv-x="424" 
d="M112.5 339c-23.667 22 -35.5 50.999 -35.5 86.999c0 34 11.167 62.5 33.5 85.5s51.5 34.5 87.5 34.5c35.333 0 64 -11.5 86 -34.5s33 -51.5 33 -85.5c0 -35.333 -11.333 -64.166 -34 -86.499s-50.667 -33.5 -84 -33.5c-34 0 -62.833 11 -86.5 33zM112.5 12.999
c-23.667 22 -35.5 51 -35.5 87c0 34 11.167 62.5 33.5 85.5s51.5 34.5 87.5 34.5c35.333 0 64 -11.5 86 -34.5s33 -51.5 33 -85.5c0 -36 -11.333 -65 -34 -87s-50.667 -33 -84 -33c-34 0 -62.833 11 -86.5 33z" />
    <glyph glyph-name="semicolon" unicode=";" horiz-adv-x="384" 
d="M88.5 392.5c-25 23.667 -37.5 54.833 -37.5 93.5c0 36.667 12 67.167 36 91.5s55.333 36.5 94 36.5c37.333 0 67.833 -12.333 91.5 -37s35.5 -55 35.5 -91c0 -38 -12.167 -69 -36.5 -93s-54.5 -36 -90.5 -36c-36.667 0 -67.5 11.833 -92.5 35.5zM48 -108.001
c44 15.333 77.666 35.167 100.999 59.5s34.666 50.833 33.999 79.5h-8c-30.667 0 -56.667 9.33301 -78 28s-32 44 -32 76c0 30.667 10.833 55.667 32.5 75s48.834 29 81.501 29c41.333 0 72.5 -14.833 93.5 -44.5s31.5 -72.167 31.5 -127.5
c0 -67.333 -18.667 -124.833 -56 -172.5s-91.666 -81.5 -162.999 -101.5z" />
    <glyph glyph-name="less" unicode="&#x3c;" horiz-adv-x="607" 
d="M572 102l-537 205v127l537 206v-153l-192 -61l-156 -53v-5l156 -53l192 -61v-152z" />
    <glyph glyph-name="equal" unicode="=" horiz-adv-x="607" 
d="M35 405v131h537v-131h-537zM35 162v130h537v-130h-537z" />
    <glyph glyph-name="greater" unicode="&#x3e;" horiz-adv-x="607" 
d="M35 102v152l193 61l156 53v5l-156 53l-193 61v153l537 -206v-127z" />
    <glyph glyph-name="question" unicode="?" horiz-adv-x="533" 
d="M171 276c-1.33301 6.66699 -2 16 -2 28c0 53.333 21.667 102.666 65 147.999c30.667 34 51.334 58.333 62.001 73s16 30.334 16 47.001c0 20.667 -6.33301 36.334 -19 47.001s-29.334 16 -50.001 16c-18.667 0 -35.167 -4 -49.5 -12s-30.5 -20.667 -48.5 -38l-102 94
c28 33.333 60.5 59.5 97.5 78.5s77.167 28.5 120.5 28.5c71.333 0 127.5 -16.833 168.5 -50.5s61.5 -83.5 61.5 -149.5c0 -29.333 -6.83301 -55.833 -20.5 -79.5s-34.167 -49.834 -61.5 -78.501c-25.333 -25.333 -44.333 -48.833 -57 -70.5s-19 -44.167 -19 -67.5
c0 -6 0.333008 -10.667 1 -14h-163zM172.5 20.5c-20.333 21.667 -30.5 48.834 -30.5 81.501s10.167 60 30.5 82s46.5 33 78.5 33s58.5 -11 79.5 -33s31.5 -49.333 31.5 -82s-10.5 -59.834 -31.5 -81.501s-47.5 -32.5 -79.5 -32.5s-58.167 10.833 -78.5 32.5z" />
    <glyph glyph-name="at" unicode="@" horiz-adv-x="1042" 
d="M324.5 -154c-53 18 -99.498 44.6719 -139.498 80.0049c-42.667 37.333 -75.834 83.666 -99.501 138.999s-35.5 119.333 -35.5 192c0 78.667 13.833 151.5 41.5 218.5s65.834 124.833 114.501 173.5c48 47.333 104 83.666 168 108.999s132 38 204 38
c62 0 118.667 -10 170 -30s95.333 -48.333 132 -85c36 -38 63.667 -82.667 83 -134s29 -107 29 -167c0 -98.667 -29.333 -178 -88 -238c-25.333 -26 -54 -46 -86 -60s-63.667 -21 -95 -21c-34.667 0 -64.334 7.83301 -89.001 23.5s-40.334 37.167 -47.001 64.5h-2
c-14.667 -22 -35.334 -40.167 -62.001 -54.5s-52 -21.5 -76 -21.5c-46.667 0 -84.167 16 -112.5 48s-42.5 74.333 -42.5 127c0 36 6 71.167 18 105.5s28.667 65.166 50 92.499s46.5 48.666 75.5 63.999s59.5 23 91.5 23c40 0 68.667 -19 86 -57h3l17 49h114l-55 -259
c-3.33301 -15.333 -5 -27.333 -5 -36c0 -36.667 18.667 -55 56 -55c16.667 0 33.167 4.83301 49.5 14.5s30.833 23.167 43.5 40.5c26.667 40 40 88.333 40 145c0 42 -5.83301 81.5 -17.5 118.5s-29.5 69.167 -53.5 96.5c-53.333 63.333 -134 95 -242 95
c-49.333 0 -97.166 -10.167 -143.499 -30.5s-87.5 -48.833 -123.5 -85.5c-38 -38 -67.667 -83.167 -89 -135.5s-32 -109.5 -32 -171.5c0 -108 34 -191.667 102 -251c30 -26.667 64.833 -46.834 104.5 -60.501s82.167 -20.5 127.5 -20.5c27.333 0 56.5 4 87.5 12
s58.833 18.333 83.5 31l41 -101c-68.667 -35.333 -144.667 -53 -228 -53c-59.333 0 -115.5 9 -168.5 27zM520.502 199.505c10.333 7 22.167 19.5 35.5 37.5l26 149c-9.33301 20 -25.333 30 -48 30c-16 0 -30.167 -4.83301 -42.5 -14.5s-22.833 -22.834 -31.5 -39.501
c-8.66699 -15.333 -15.667 -32.166 -21 -50.499s-8 -35.5 -8 -51.5c0 -47.333 18.667 -71 56 -71c12 0 23.167 3.5 33.5 10.5z" />
    <glyph glyph-name="A" unicode="A" horiz-adv-x="703" 
d="M222 748h247l231 -748h-220l-40 166h-195l-41 -166h-212zM407 314l-15 56l-25 98c-11.333 48.667 -19.333 81.667 -24 99h-4l-22 -99l-26 -98l-15 -56h131z" />
    <glyph glyph-name="B" unicode="B" horiz-adv-x="712" 
d="M77 748l276 -0.00390625c194 0 291 -62 291 -186c0 -35.333 -9 -68.666 -27 -99.999s-40.667 -52.666 -68 -63.999v-5c42.667 -13.333 75.167 -34.666 97.5 -63.999s33.5 -65.666 33.5 -108.999c0 -70 -27.833 -124.167 -83.5 -162.5s-129.5 -57.5 -221.5 -57.5h-298v748
zM346 452.996c31.333 0 54.5 6.83203 69.5 20.499s22.5 33.834 22.5 60.501s-7 45.167 -21 55.5s-37.333 15.5 -70 15.5h-61v-152h60zM361 142.995c38.667 0 67.167 7.16699 85.5 21.5s27.5 37.5 27.5 69.5c0 30 -8.83301 51.167 -26.5 63.5s-46.5 18.5 -86.5 18.5h-75v-173
h75z" />
    <glyph glyph-name="C" unicode="C" horiz-adv-x="685" 
d="M219 36c-54.667 32 -97.001 76.833 -127.001 134.5s-45 124.167 -45 199.5s15.667 142.833 47 202.5s75.166 106.5 131.499 140.5s119.833 51 190.5 51c48.667 0 93.667 -9.5 135 -28.5s76 -42.5 104 -70.5l-105 -128c-25.333 23.333 -47.5 40.166 -66.5 50.499
s-39.833 15.5 -62.5 15.5c-30.667 0 -58.167 -10 -82.5 -30s-43.333 -47.333 -57 -82s-20.5 -72.667 -20.5 -114c0 -70.667 14.167 -126.5 42.5 -167.5s66.5 -61.5 114.5 -61.5c26.667 0 51.167 6.33301 73.5 19s44.833 32.334 67.5 59.001l106 -128
c-31.333 -35.333 -68.666 -62.5 -111.999 -81.5s-90.666 -28.5 -141.999 -28.5c-73.333 0 -137.333 16 -192 48z" />
    <glyph glyph-name="D" unicode="D" horiz-adv-x="745" 
d="M77 0v747.999h228c128 0 225.5 -31.5 292.5 -94.5s100.5 -154.833 100.5 -275.5c0 -121.333 -33.167 -214.666 -99.5 -279.999s-160.5 -98 -282.5 -98h-239zM286 150.999h8c66 0 114.167 18.667 144.5 56s45.5 94.333 45.5 171s-15.167 132.5 -45.5 167.5
s-78.5 52.5 -144.5 52.5h-8v-447z" />
    <glyph glyph-name="E" unicode="E" horiz-adv-x="644" 
d="M77 748h501v-156h-292v-130h249v-157h-249v-148h303v-157h-512v748z" />
    <glyph glyph-name="F" unicode="F" horiz-adv-x="621" 
d="M77 748h505v-156h-296v-155h254v-156h-254v-281h-209v748z" />
    <glyph glyph-name="G" unicode="G" horiz-adv-x="751" 
d="M95 574c32 60 76.8311 106.667 134.498 140s123.834 50 198.501 50c53.333 0 101.333 -9.5 144 -28.5s77.667 -42.5 105 -70.5l-105 -128c-26 23.333 -48.667 40.166 -68 50.499s-42.333 15.5 -69 15.5c-35.333 0 -66 -9.66699 -92 -29s-46.167 -46 -60.5 -80
s-21.5 -73 -21.5 -117c0 -75.333 15.833 -132.333 47.5 -171s78.834 -58 141.501 -58c24.667 0 43 4.66699 55 14v117h-116v152h305v-349c-26.667 -26 -63.667 -48.167 -111 -66.5s-98 -27.5 -152 -27.5c-77.333 0 -145 15.667 -203 47s-102.667 75.833 -134 133.5
s-47 124.834 -47 201.501c0 76 16 144 48 204z" />
    <glyph glyph-name="H" unicode="H" horiz-adv-x="787" 
d="M77 748h209v-282h214v282h211v-748h-211v303h-214v-303h-209v748z" />
    <glyph glyph-name="I" unicode="I" horiz-adv-x="362" 
d="M77 0v748h209v-748h-209z" />
    <glyph glyph-name="J" unicode="J" horiz-adv-x="600" 
d="M117.5 22c-42.333 22.667 -77.167 57 -104.5 103l141 105c28 -54.667 59 -82 93 -82c26 0 45 9.66699 57 29s18 51 18 95v477h210v-492c0 -76 -21 -139.333 -63 -190c-20 -24 -47 -43.167 -81 -57.5s-72.667 -21.5 -116 -21.5c-60.667 0 -112.167 11.333 -154.5 34z" />
    <glyph glyph-name="K" unicode="K" horiz-adv-x="730" 
d="M739 0h-224l-164 284l-65 -89v-195h-209v748h209v-265l186 265h224l-224 -301z" />
    <glyph glyph-name="L" unicode="L" horiz-adv-x="614" 
d="M77 0v748h209v-591h289v-157h-498z" />
    <glyph glyph-name="M" unicode="M" horiz-adv-x="892" 
d="M816 748v-748.001h-193v242c0 25.333 2.33301 62 7 110s9.66699 92.333 15 133l-139 -422h-123l-138 421c6 -47.333 11.167 -93.666 15.5 -138.999s6.5 -79.666 6.5 -102.999v-242h-190v748h224l115 -316c2.66699 -6.66699 5.66699 -16.334 9 -29.001l12 -37l11 -41
l12 41l20 66l113 316h223z" />
    <glyph glyph-name="N" unicode="N" horiz-adv-x="776" 
d="M700 748v-748h-214l-177 350l-49 110c8 -68 13 -114.333 15 -139s3 -53 3 -85v-236h-201v748h213l177 -349l48 -112c-10.667 96.667 -16 172 -16 226v235h201z" />
    <glyph glyph-name="O" unicode="O" horiz-adv-x="805" 
d="M213 36.5c-53.333 32.333 -94.3311 78 -122.998 137s-43 127.5 -43 205.5s14.167 146 42.5 204s69.166 102.667 122.499 134s116.666 47 189.999 47s136.833 -15.833 190.5 -47.5s94.834 -76.5 123.501 -134.5s43 -125.667 43 -203c0 -78 -14.5 -146.5 -43.5 -205.5
s-70.333 -104.667 -124 -137s-116.834 -48.5 -189.501 -48.5s-135.667 16.167 -189 48.5zM506.002 211c26 42 38.998 98 38.998 168c0 69.333 -12.833 124 -38.5 164s-60.5 60 -104.5 60c-43.333 0 -77.666 -20 -102.999 -60s-38 -94.667 -38 -164
c0 -70 12.833 -126 38.5 -168s59.834 -63 102.501 -63c43.333 0 78 21 104 63z" />
    <glyph glyph-name="P" unicode="P" horiz-adv-x="704" 
d="M77 748h279.001c100.667 0 178 -20.667 232 -62s81 -102.333 81 -183c0 -53.333 -13 -99.5 -39 -138.5s-62.333 -68.833 -109 -89.5s-100.334 -31 -161.001 -31h-74v-244h-209v748zM351.001 391c37.333 0 65.334 9.16699 84.001 27.5s28 46.5 28 84.5
c0 34.667 -9.33301 59.667 -28 75s-48.334 23 -89.001 23h-60v-210h65z" />
    <glyph glyph-name="Q" unicode="Q" horiz-adv-x="809" 
d="M89.5 603c28.333 58 69.167 102.668 122.5 134.001s116.666 47 189.999 47s136.833 -15.833 190.5 -47.5s94.834 -76.334 123.501 -134.001s43 -125.5 43 -203.5c0 -96 -20.333 -176 -61 -240s-99 -108.333 -175 -133c16.667 -24.667 37.334 -42.334 62.001 -53.001
s54.667 -16 90 -16c32.667 0 64 6.33301 94 19l33 -138c-12.667 -8.66699 -32.334 -15.834 -59.001 -21.501s-56.667 -8.5 -90 -8.5c-78.667 0 -149 19.167 -211 57.5s-107.333 89.833 -136 154.5c-84 20.667 -148.167 64.334 -192.5 131.001s-66.5 149.334 -66.5 248.001
c0 78 14.167 146 42.5 204zM396.001 221.001c15.333 0 30 6.66797 44 20.001s27 33 39 59c18 37.333 27 74.333 27 111c0 45.333 -12.667 84.666 -38 117.999c-18.667 24.667 -38.667 37 -60 37c-30 0 -57.333 -24.333 -82 -73c-18 -38.667 -27 -77.334 -27 -116.001
c0 -45.333 12.667 -84.666 38 -117.999c19.333 -25.333 39 -38 59 -38z" />
    <glyph glyph-name="R" unicode="R" horiz-adv-x="728" 
d="M77 748h289c100 0 176.167 -19.833 228.5 -59.5s78.5 -99.167 78.5 -178.5c0 -50.667 -10.667 -93.5 -32 -128.5s-53.333 -63.833 -96 -86.5l166 -295h-230l-134 259h-61v-259h-209v748zM353 406c76.667 0 115 34.667 115 104c0 33.333 -9 56.833 -27 70.5
s-47.333 20.5 -88 20.5h-67v-195h67z" />
    <glyph glyph-name="S" unicode="S" horiz-adv-x="658" 
d="M167 16.5c-51.333 19 -95.333 45.498 -132 79.498l113 135c30.667 -26 61.5 -46.333 92.5 -61s60.167 -22 87.5 -22c28.667 0 49.5 4.83301 62.5 14.5s19.5 25.167 19.5 46.5c0 12.667 -2.33301 22.5 -7 29.5s-12.5 13.5 -23.5 19.5s-28.833 14 -53.5 24l-112 47
c-48 19.333 -85.667 46.833 -113 82.5s-41 76.834 -41 123.501c0 43.333 12.667 82.333 38 117s59.833 62 103.5 82s91.5 30 143.5 30c47.333 0 93.833 -9 139.5 -27s84.167 -42.667 115.5 -74l-100 -123c-31.333 22.667 -58.333 38.834 -81 48.501
s-47.334 14.5 -74.001 14.5c-24.667 0 -43 -4.66699 -55 -14s-18 -24 -18 -44c0 -16 6 -28.667 18 -38s35 -20.666 69 -33.999c10.667 -3.33301 33 -12.333 67 -27l43 -18c52.667 -20.667 91.667 -47.334 117 -80.001s38 -74 38 -124c0 -46 -13.167 -87 -39.5 -123
s-62.333 -63.833 -108 -83.5s-96.5 -29.5 -152.5 -29.5c-53.333 0 -105.666 9.5 -156.999 28.5z" />
    <glyph glyph-name="T" unicode="T" horiz-adv-x="662" 
d="M226 0v592h-201v156h612v-156h-200v-592h-211z" />
    <glyph glyph-name="U" unicode="U" horiz-adv-x="777" 
d="M151.5 78c-52.333 60 -78.5 153 -78.5 279v392h210v-413c0 -66.667 8.66699 -114.667 26 -144s44.666 -44 81.999 -44s65 14.833 83 44.5s27 77.5 27 143.5v413h203v-392c0 -126 -25.667 -219 -77 -279s-130 -90 -236 -90c-107.333 0 -187.166 30 -239.499 90z" />
    <glyph glyph-name="V" unicode="V" horiz-adv-x="674" 
d="M684 748l-223 -748h-247l-223 748h220l82 -335l49 -202l17 72l31 130l81 335h213z" />
    <glyph glyph-name="W" unicode="W" horiz-adv-x="963" 
d="M952 748l-128 -747.999h-259l-63 314c-6.66699 31.333 -13.334 68 -20.001 110l-3 -20l-17 -90l-61 -314h-254l-135 748h214l46 -336c6.66699 -52.667 13.334 -110.334 20.001 -173.001l21 119l10 54l75 336h180l75 -336c0.666992 -2 6.66699 -32.667 18 -92
c4 -24.667 8.66699 -50.667 14 -78l14 119c4 34.667 6 51.667 6 51l45 336h202z" />
    <glyph glyph-name="X" unicode="X" horiz-adv-x="685" 
d="M675 0h-230l-65 141l-46 102l-41 -102l-60 -141h-222l204 385l-192 363h229l56 -129c12 -22.667 27 -56.667 45 -102l34 90l55 141h221l-193 -372z" />
    <glyph glyph-name="Y" unicode="Y" horiz-adv-x="640" 
d="M650 748l-225 -484v-264h-210v264l-225 484h222l60 -162c4 -13.333 17 -51.333 39 -114l10 -28l52 142l60 162h217z" />
    <glyph glyph-name="Z" unicode="Z" horiz-adv-x="639" 
d="M35 110l317 482h-287v156h539v-110l-318 -481h321v-157h-572v110z" />
    <glyph glyph-name="bracketleft" unicode="[" horiz-adv-x="391" 
d="M88 -157v989h252v-98h-112v-793h112v-98h-252z" />
    <glyph glyph-name="backslash" unicode="\" horiz-adv-x="403" 
d="M25 822h139l247 -989h-140z" />
    <glyph glyph-name="bracketright" unicode="]" horiz-adv-x="391" 
d="M51 -157v98h113v793h-113v98h252v-989h-252z" />
    <glyph glyph-name="asciicircum" unicode="^" horiz-adv-x="605" 
d="M49 281l179 458h148l180 -458h-153l-47 134l-52 156h-4l-51 -156l-47 -134h-153z" />
    <glyph glyph-name="underscore" unicode="_" horiz-adv-x="572" 
d="M12 -148v103h548v-103h-548z" />
    <glyph glyph-name="a" unicode="a" horiz-adv-x="625" 
d="M504.5 522.5c41.667 -44.333 62.5 -110.499 62.5 -198.499v-323h-175l-11 46c-50 -39.333 -102.333 -59 -157 -59c-35.333 0 -66.833 7.66699 -94.5 23s-49.334 36.166 -65.001 62.499s-23.5 56.166 -23.5 89.499c0 58.667 25.667 104.834 77 138.501
s131 56.834 239 69.501c-2 24 -8.5 41.667 -19.5 53s-28.833 17 -53.5 17c-20 0 -41.5 -4.33301 -64.5 -13s-52.833 -23.334 -89.5 -44.001l-68 127c84 52 170.333 78 259 78c80.667 0 141.834 -22.167 183.501 -66.5zM357 258.001
c-36.667 -6 -64.834 -15.167 -84.501 -27.5s-29.5 -29.833 -29.5 -52.5c0 -14.667 4.16699 -26.167 12.5 -34.5s19.5 -12.5 33.5 -12.5c12.667 0 24.334 2.66699 35.001 8s21.667 14.333 33 27v92z" />
    <glyph glyph-name="b" unicode="b" horiz-adv-x="688" 
d="M528 553c35.333 -24 62.501 -58 81.501 -102s28.5 -95 28.5 -153s-10.667 -110.667 -32 -158s-51 -84.5 -89 -111.5s-81.333 -40.5 -130 -40.5c-25.333 0 -50.333 5.33301 -75 16s-47.334 26 -68.001 46l-13 -49h-168v803h210v-191l-4 -70c42.667 30.667 87 46 133 46
c48.667 0 90.667 -12 126 -36zM400.501 180c15 26.667 22.5 65.001 22.5 115.001c0 94 -25.333 141 -76 141c-14 0 -26.333 -3 -37 -9s-23 -17 -37 -33v-227c11.333 -10.667 22 -17.834 32 -21.501s22 -5.5 36 -5.5c24.667 0 44.5 13.333 59.5 40z" />
    <glyph glyph-name="c" unicode="c" horiz-adv-x="555" 
d="M177 25.5c-45.333 25 -80.332 60.168 -104.999 105.501s-37 97.666 -37 156.999c0 58 13.5 109.833 40.5 155.5s64.5 81.334 112.5 107.001s102.333 38.5 163 38.5c35.333 0 67.833 -5.66699 97.5 -17s55.5 -26.333 77.5 -45l-92 -128c-18 16 -31.833 26.5 -41.5 31.5
s-20.167 7.5 -31.5 7.5c-34.667 0 -62 -13.333 -82 -40s-30 -63.334 -30 -110.001c0 -44.667 10 -80.834 30 -108.501s45.333 -41.5 76 -41.5c16 0 31.667 3.83301 47 11.5s33 19.834 53 36.501l78 -130c-24.667 -22 -54.834 -38.833 -90.501 -50.5
s-72.167 -17.5 -109.5 -17.5c-58.667 0 -110.667 12.5 -156 37.5z" />
    <glyph glyph-name="d" unicode="d" horiz-adv-x="676" 
d="M613 804v-803h-175l-10 43c-20 -16.667 -42.667 -30.167 -68 -40.5s-50.666 -15.5 -75.999 -15.5c-50.667 0 -94.5 12.333 -131.5 37s-65.167 59.667 -84.5 105s-29 98 -29 158c0 55.333 10.667 106 32 152s50.666 82.333 87.999 109s79.666 40 126.999 40
c24.667 0 46.834 -3.5 66.501 -10.5s38.5 -17.5 56.5 -31.5l-6 68v189h210zM403 408c-11.333 10.667 -22.5 18 -33.5 22s-24.167 6 -39.5 6c-22 0 -40.333 -13.167 -55 -39.5s-22 -61.833 -22 -106.5c0 -50 6.83301 -87.5 20.5 -112.5s33.5 -37.5 59.5 -37.5
c15.333 0 28 3 38 9s20.667 17 32 33v226z" />
    <glyph glyph-name="e" unicode="e" horiz-adv-x="617" 
d="M180.5 25.5c-46.333 25 -82.166 60.168 -107.499 105.501s-38 97.666 -38 156.999c0 55.333 12.5 106 37.5 152s59.167 82.333 102.5 109s91.666 40 144.999 40s99.5 -11.5 138.5 -34.5s68.833 -55.333 89.5 -97s31 -90.167 31 -145.5c0 -29.333 -2.66699 -56 -8 -80
h-334c8.66699 -35.333 23.5 -61.333 44.5 -78s49.167 -25 84.5 -25c19.333 0 38.666 3.33301 57.999 10s42 17.667 68 33l64 -116c-28 -20.667 -61.667 -37.167 -101 -49.5s-77.666 -18.5 -114.999 -18.5c-60 0 -113.167 12.5 -159.5 37.5zM397 354.001
c0 62 -24.333 92.999 -73 92.999c-22.667 0 -41.5 -7.66699 -56.5 -23s-25.5 -38.666 -31.5 -69.999h161z" />
    <glyph glyph-name="f" unicode="f" horiz-adv-x="428" 
d="M99 427h-75v139l75 6v17c0 73.333 20.167 129.666 60.5 168.999s97.833 59 172.5 59c44.667 0 87.667 -8 129 -24l-33 -140c-16 6.66699 -28.833 11.334 -38.5 14.001s-19.5 4 -29.5 4c-16.667 0 -29.167 -6 -37.5 -18s-12.5 -31.333 -12.5 -58v-22h98v-146h-98v-427
h-211v427z" />
    <glyph glyph-name="g" unicode="g" horiz-adv-x="647" 
d="M102.5 -178c-46.333 24.667 -69.5 60.002 -69.5 106.002c0 22.667 7 43 21 61s36 35 66 51v5c-21.333 14 -36.5 28.333 -45.5 43s-13.5 33 -13.5 55c0 38.667 23 74.667 69 108v5c-26 17.333 -46.333 38.5 -61 63.5s-22 52.833 -22 83.5
c0 41.333 10.833 77.666 32.5 108.999s51.667 55.666 90 72.999s82.166 26 131.499 26c36.667 0 68.334 -4.66699 95.001 -14h219v-135h-86c8.66699 -20.667 13 -42.334 13 -65.001c0 -60.667 -21.667 -107.667 -65 -141s-102 -50 -176 -50c-21.333 0 -41.333 2.33301 -60 7
c-4 -4 -6.83301 -8.66699 -8.5 -14s-2.5 -12.666 -2.5 -21.999c0 -15.333 5.16699 -25.333 15.5 -30s28.833 -7 55.5 -7h89c77.333 0 135.833 -12.333 175.5 -37s59.5 -61.667 59.5 -111c0 -44.667 -15.833 -82.5 -47.5 -113.5s-73.334 -54.333 -125.001 -70
s-107.5 -23.5 -167.5 -23.5c-75.333 0 -136.166 12.333 -182.499 37zM342.5 339.502c10.333 15 15.498 36.167 15.498 63.5c0 26.667 -5.16699 47.334 -15.5 62.001s-24.166 22 -41.499 22s-31.166 -7.33301 -41.499 -22s-15.5 -35.334 -15.5 -62.001
s5.33301 -47.667 16 -63s24.334 -23 41.001 -23c17.333 0 31.166 7.5 41.499 22.5zM394.498 -83.998c19 10.667 28.5 25.333 28.5 44c0 11.333 -2 19.666 -6 24.999s-10.5 8.83301 -19.5 10.5s-23.5 2.5 -43.5 2.5h-51c-30.667 0 -55.667 2 -75 6
c-13.333 -13.333 -20 -28.666 -20 -45.999c0 -20 8.83301 -34.667 26.5 -44s44.5 -14 80.5 -14c34 0 60.5 5.33301 79.5 16z" />
    <glyph glyph-name="h" unicode="h" horiz-adv-x="675" 
d="M63 802h210.002v-190l-8 -85c23.333 18 48.166 32.5 74.499 43.5s55.5 16.5 87.5 16.5c63.333 0 110.833 -19.833 142.5 -59.5s47.5 -97.167 47.5 -172.5v-355h-210v330c0 36.667 -3.83301 62.334 -11.5 77.001s-20.834 22 -39.501 22c-14.667 0 -27 -2.83301 -37 -8.5
s-25.333 -17.834 -46 -36.501v-384h-210v802z" />
    <glyph glyph-name="i" unicode="i" horiz-adv-x="335" 
d="M84.5 672.5c-21.667 19 -32.5 44.833 -32.5 77.5s10.833 58.5 32.5 77.5s49.834 28.5 84.501 28.5c35.333 0 63.666 -9.5 84.999 -28.5s32 -44.833 32 -77.5s-10.667 -58.5 -32 -77.5s-49.666 -28.5 -84.999 -28.5c-34.667 0 -62.834 9.5 -84.501 28.5zM64 573h210v-573
h-210v573z" />
    <glyph glyph-name="j" unicode="j" horiz-adv-x="351" 
d="M97.5 694.5c-21.667 19 -32.5 44.833 -32.5 77.5s10.833 58.5 32.5 77.5s49.834 28.5 84.501 28.5s63 -9.5 85 -28.5s33 -44.833 33 -77.5s-11 -58.5 -33 -77.5s-50.333 -28.5 -85 -28.5s-62.834 9.5 -84.501 28.5zM-56 -179l32.999 137
c12.667 -3.33301 22.834 -5.83301 30.501 -7.5s15.167 -2.5 22.5 -2.5c17.333 0 29.5 6.66699 36.5 20s10.5 36 10.5 68v559h210v-554c0 -78 -19 -137.333 -57 -178s-94.667 -61 -170 -61c-46 0 -84.667 6.33301 -116 19z" />
    <glyph glyph-name="k" unicode="k" horiz-adv-x="658" 
d="M653 0h-221l-113 199l-50 -57v-142h-206v802h206v-418l150 189h220l-202 -237z" />
    <glyph glyph-name="l" unicode="l" horiz-adv-x="353" 
d="M106.5 39.5c-29 34.333 -43.5 85.834 -43.5 154.501v610h210v-617c0 -18 2 -30.667 6 -38s10 -11 18 -11c6 0 15 1.66699 27 5l23 -137c-8 -4.66699 -21.333 -8.83398 -40 -12.501s-40 -5.5 -64 -5.5c-62 0 -107.5 17.167 -136.5 51.5z" />
    <glyph glyph-name="m" unicode="m" horiz-adv-x="1003" 
d="M894.5 527c32.333 -40 48.5 -97.335 48.5 -172.002v-355h-210v330c0 36.667 -3.83301 62.334 -11.5 77.001s-20.834 22 -39.501 22c-19.333 0 -44.666 -15 -75.999 -45v-384h-210v330c0 36.667 -3.83301 62.334 -11.5 77.001s-20.5 22 -38.5 22
c-20.667 0 -46 -15 -76 -45v-384h-209v573h175l11 -59c23.333 22 48.333 39.667 75 53s57.334 20 92.001 20c74.667 0 128.667 -27.333 162 -82c27.333 26.667 55 47 83 61s58.667 21 92 21c63.333 0 111.166 -20 143.499 -60z" />
    <glyph glyph-name="n" unicode="n" horiz-adv-x="675" 
d="M63 573h175.001l10 -57h3c55.333 47.333 114 71 176 71c63.333 0 110.833 -19.833 142.5 -59.5s47.5 -97.167 47.5 -172.5v-355h-210v330c0 36.667 -3.83301 62.334 -11.5 77.001s-20.834 22 -39.501 22c-14.667 0 -27 -2.83301 -37 -8.5s-25.333 -17.834 -46 -36.501
v-384h-210v573z" />
    <glyph glyph-name="o" unicode="o" horiz-adv-x="657" 
d="M178 27c-44.667 26 -79.668 61.833 -105.001 107.5s-38 96.834 -38 153.501c0 57.333 12.667 108.833 38 154.5s60.333 81.5 105 107.5s95 39 151 39c56.667 0 107.334 -13 152.001 -39s79.5 -61.833 104.5 -107.5s37.5 -97.167 37.5 -154.5s-12.667 -108.833 -38 -154.5
s-60.5 -81.334 -105.5 -107.001s-95.167 -38.5 -150.5 -38.5c-56 0 -106.333 13 -151 39zM387.999 177.5c14 26.333 21 63.167 21 110.5s-6.83301 84.166 -20.5 110.499s-33.5 39.5 -59.5 39.5s-45.833 -13.167 -59.5 -39.5s-20.5 -63.166 -20.5 -110.499
c0 -48 6.83301 -85 20.5 -111s33.5 -39 59.5 -39c25.333 0 45 13.167 59 39.5z" />
    <glyph glyph-name="p" unicode="p" horiz-adv-x="676" 
d="M529 571.5c35.333 -24.333 62.333 -58.5 81 -102.5s28 -95 28 -153c0 -57.333 -10.667 -109.666 -32 -156.999s-51 -84.5 -89 -111.5s-81.333 -40.5 -130 -40.5c-44 0 -83.667 14 -119 42l5 -72v-163h-210v780h175l10 -43c22 17.333 46.333 31.166 73 41.499
s54 15.5 82 15.5c48.667 0 90.667 -12.167 126 -36.5zM400 199.5c15.333 27 23.0029 65.167 23.0029 114.5c0 94.667 -25.333 142 -76 142c-13.333 0 -25.333 -3 -36 -9s-23.334 -17.333 -38.001 -34v-226c11.333 -10.667 22.166 -18 32.499 -22s22.166 -6 35.499 -6
c24 0 43.667 13.5 59 40.5z" />
    <glyph glyph-name="q" unicode="q" horiz-adv-x="676" 
d="M613 594l0.00195312 -780h-210v169l6 68c-18 -13.333 -38 -24 -60 -32s-43.667 -12 -65 -12c-50.667 0 -94.5 12.5 -131.5 37.5s-65.167 60 -84.5 105s-29 97.5 -29 157.5c0 55.333 10.667 106 32 152s50.666 82.333 87.999 109s79.666 40 126.999 40
c58.667 0 107.667 -19.667 147 -59l11 45h169zM403.002 428c-11.333 10 -22.667 17.167 -34 21.5s-24.333 6.5 -39 6.5c-22 0 -40.333 -13.167 -55 -39.5s-22 -61.833 -22 -106.5c0 -100.667 26.667 -151 80 -151c15.333 0 28 3 38 9s20.667 17 32 33v227z" />
    <glyph glyph-name="r" unicode="r" horiz-adv-x="487" 
d="M488 571l-31 -159c-6.66699 1.33301 -17.167 3.66602 -31.5 6.99902s-28.5 5 -42.5 5c-22 0 -42.667 -8.16699 -62 -24.5s-35.333 -40.833 -48 -73.5v-326h-210v573h175l10 -76c20 28.667 44 50.834 72 66.501s57 23.5 87 23.5c41.333 0 68.333 -5.33301 81 -16z" />
    <glyph glyph-name="s" unicode="s" horiz-adv-x="531" 
d="M126.5 11c-43 15.333 -78.501 34.665 -106.501 57.998l87 122c30 -22.667 56.833 -39.334 80.5 -50.001s46.167 -16 67.5 -16c16.667 0 29.334 3.5 38.001 10.5s13 16.833 13 29.5c0 13.333 -4.5 23.5 -13.5 30.5s-25.5 15.167 -49.5 24.5
c-32.667 10.667 -64 24.334 -94 41.001c-32.667 16.667 -57.834 37.334 -75.501 62.001s-26.5 52 -26.5 82c0 36.667 10 69 30 97s47.833 49.5 83.5 64.5s76.167 22.5 121.5 22.5c44 0 83.5 -7.16699 118.5 -21.5s67.833 -32.5 98.5 -54.5l-89 -118
c-24.667 19.333 -46.667 33.5 -66 42.5s-38 13.5 -56 13.5c-13.333 0 -24 -3.33301 -32 -10s-12 -15.667 -12 -27c0 -10.667 3.66699 -19 11 -25s20 -12.667 38 -20l39 -16c16 -6 32 -12.5 48 -19.5s29 -14.167 39 -21.5c28.667 -17.333 49.834 -36.833 63.501 -58.5
s20.5 -47.5 20.5 -77.5c0 -38 -10.833 -71.167 -32.5 -99.5s-51.5 -50.166 -89.5 -65.499s-81.667 -23 -131 -23c-39.333 0 -80.5 7.66699 -123.5 23z" />
    <glyph glyph-name="t" unicode="t" horiz-adv-x="472" 
d="M148 47c-36.667 39.333 -54.998 96 -54.998 170v212h-77v138l87 7l22 151h178v-151h133v-145h-133v-209c0 -58 19.667 -87 59 -87c9.33301 0 20.666 2 33.999 6s22.666 6.66699 27.999 8l29 -136c-22 -6.66699 -43.667 -12.167 -65 -16.5s-47.333 -6.5 -78 -6.5
c-71.333 0 -125.333 19.667 -162 59z" />
    <glyph glyph-name="u" unicode="u" horiz-adv-x="670" 
d="M608 574l-0.00195312 -573.001h-176l-10 62c-24 -25.333 -50.167 -44.166 -78.5 -56.499s-60.166 -18.5 -95.499 -18.5c-126 0 -189 77.333 -189 232v354h209v-330c0 -36.667 4 -62.167 12 -76.5s21.333 -21.5 40 -21.5c16.667 0 30.834 3.66699 42.501 11
s23.5 21 35.5 41v376h210z" />
    <glyph glyph-name="v" unicode="v" horiz-adv-x="635" 
d="M623 573l-184 -573h-237l-190 573h209l67 -258c6 -21.333 15.667 -60.333 29 -117l5 -22l23 99l10 40l68 258h200z" />
    <glyph glyph-name="w" unicode="w" horiz-adv-x="924" 
d="M899 573l-132.999 -573h-240l-46 211c-2.66699 15.333 -4.33398 26 -5.00098 32l-14 78c-5.33301 -40 -11 -76.667 -17 -110l-44 -211h-235l-140 573h207l48 -250c2.66699 -12 8 -49 16 -111c1.33301 8 2.66602 14.667 3.99902 20c5.33301 36 11.333 66.333 18 91l57 250
h182l59 -250c4.66699 -20 13 -60.333 25 -121c8.66699 66.667 14.334 107 17.001 121l47 250h194z" />
    <glyph glyph-name="x" unicode="x" horiz-adv-x="625" 
d="M611 0h-219l-50 86l-43 82l-10 -24c-17.333 -42.667 -25.333 -62 -24 -58l-36 -86h-215l174 298l-164 275h220l46 -85c4.66699 -10.667 17 -37 37 -79l28 79l33 85h214l-165 -297z" />
    <glyph glyph-name="y" unicode="y" horiz-adv-x="633" 
d="M621 595l-195 -569.999c-20 -51.333 -41.167 -92.833 -63.5 -124.5s-50 -55.834 -83 -72.501s-74.167 -25 -123.5 -25c-36.667 0 -68.667 4.66699 -96 14l34 144c21.333 -8 39.333 -12 54 -12c20 0 35.833 5 47.5 15s21.167 26.333 28.5 49l7 27l-219 555h209l74 -230
c10.667 -31.333 22 -72 34 -122l30 122l61 230h201z" />
    <glyph glyph-name="z" unicode="z" horiz-adv-x="555" 
d="M40 97l229 330h-203v146h456v-96l-228 -331h236v-146h-490v97z" />
    <glyph glyph-name="braceleft" unicode="{" horiz-adv-x="397" 
d="M269 -157c-54 0 -92.501 12.666 -115.501 37.999s-34.5 68 -34.5 128c0 24.667 2 58.334 6 101.001c0.666992 7.33301 1.66699 20.333 3 39s2 35.667 2 51c0 24 -8.16699 43.5 -24.5 58.5s-41.166 23.167 -74.499 24.5v109c32.667 1.33301 57.334 9.66602 74.001 24.999
s25 34.666 25 57.999c0 17.333 -0.666992 34.833 -2 52.5s-2.33301 30.167 -3 37.5c-4 40 -6 73.667 -6 101c0 61.333 11.667 104.333 35 129s61.666 37 114.999 37h77v-98h-20c-22 0 -37 -5 -45 -15s-12 -30 -12 -60l2 -82c2 -40 3 -73.667 3 -101
c0 -43.333 -7.16699 -75.166 -21.5 -95.499s-37.166 -34.166 -68.499 -41.499v-4c31.333 -7.33301 54.166 -21 68.499 -41s21.5 -51.667 21.5 -95c0 -26 -1 -58.667 -3 -98l-2 -85c0 -30 4 -50 12 -60s23 -15 45 -15h20v-98h-77z" />
    <glyph glyph-name="bar" unicode="|" horiz-adv-x="295" 
d="M88 -258v1150h120v-1150h-120z" />
    <glyph glyph-name="braceright" unicode="}" horiz-adv-x="397" 
d="M50 -59l21 0.00195312c22 0 37 5 45 15s12 30 12 60l-2 85c-2 39.333 -3 72 -3 98c0 43.333 7 75 21 95s36.667 33.667 68 41v4c-31.333 7.33301 -54 21.166 -68 41.499s-21 52.166 -21 95.499c0 28 1 62 3 102l2 81c0 30 -4 50 -12 60s-23 15 -45 15h-21v98h77
c53.333 0 91.833 -12.333 115.5 -37s35.5 -67.667 35.5 -129c0 -27.333 -2 -61 -6 -101c-4 -38.667 -6 -68.334 -6 -89.001c0 -24 8.33301 -43.667 25 -59s41.667 -23.666 75 -24.999v-109c-33.333 -1.33301 -58.333 -9.5 -75 -24.5s-25 -34.833 -25 -59.5
c0 -18.667 2 -48 6 -88c4 -42.667 6 -76.667 6 -102c0 -60 -11.5 -102.667 -34.5 -128s-61.833 -38 -116.5 -38h-77v98z" />
    <glyph glyph-name="asciitilde" unicode="~" horiz-adv-x="609" 
d="M344 255.5c-16.667 7.66699 -34.334 18.165 -53.001 31.498l-22 16c-12 8.66699 -23.167 15.167 -33.5 19.5s-20.166 6.5 -29.499 6.5c-29.333 0 -56.666 -21.667 -81.999 -65l-96 74c29.333 43.333 58.833 74.5 88.5 93.5s60.167 28.5 91.5 28.5
c21.333 0 40.5 -3.66699 57.5 -11s34.5 -17.666 52.5 -30.999l24.5 -17.5c11.667 -8.33301 22.5 -14.666 32.5 -18.999s19.667 -6.5 29 -6.5c29.333 0 56.666 21.667 81.999 65l96 -73c-54.667 -82 -114.667 -123 -180 -123c-22 0 -41.333 3.83301 -58 11.5z" />
    <glyph glyph-name="exclamdown" unicode="&#xa1;" horiz-adv-x="377" 
d="M280 576c22 -20.667 33.001 -47.667 33.001 -81c0 -31.333 -10.667 -57.833 -32 -79.5s-48.333 -32.5 -81 -32.5s-59.334 10.833 -80.001 32.5s-31 48.167 -31 79.5c0 32.667 10.667 59.5 32 80.5s47.333 31.5 78 31.5c32 0 59 -10.333 81 -31zM131.001 278l138 21
l22 -466l-164 -25z" />
    <glyph glyph-name="cent" unicode="&#xa2;" horiz-adv-x="604" 
d="M313 -44v106c-76 10 -135.667 39.333 -179 88c-48 52 -72 121.333 -72 208c0 79.333 23.667 145.333 71 198c44.667 48.667 104.667 80 180 94v109h100v-104c58 -6 105.333 -27.333 142 -64l-85 -115c-20.667 16.667 -39.667 26.334 -57 29.001v-294
c26 5.33301 51 17.666 75 36.999l74 -118c-41.333 -35.333 -91 -58 -149 -68v-106h-100zM313 227v262c-47.333 -23.333 -71 -67 -71 -131s23.667 -107.667 71 -131z" />
    <glyph glyph-name="sterling" unicode="&#xa3;" horiz-adv-x="607" 
d="M49 0l-0.000976562 115c35.333 15.333 64.333 37.833 87 67.5s34 63.834 34 102.501c0 12 -0.333008 19.667 -1 23h-115v108l79 6h4c-10.667 33.333 -16 59.666 -16 78.999c0 36 6.33301 69.167 19 99.5s30.667 56.5 54 78.5c22.667 20.667 49.334 36.5 80.001 47.5
s64 16.5 100 16.5c42.667 0 80.5 -7.83301 113.5 -23.5s63.167 -39.5 90.5 -71.5l-101 -100c-24 30 -52 45 -84 45c-62 0 -93 -34 -93 -102c0 -10 1 -22 3 -36s4 -25 6 -33h167v-114h-144c0.666992 -4 1 -12.333 1 -25c0 -24.667 -3.5 -46 -10.5 -64
s-18.833 -37.333 -35.5 -58v-4h291v-157h-529z" />
    <glyph glyph-name="currency" unicode="&#xa4;" horiz-adv-x="611" 
d="M19 175l69.002 70c-25.333 35.333 -38 77.333 -38 126c0 46.667 12.333 87.667 37 123l-68 70l92 93l80 -81c35.333 17.333 73.666 26 114.999 26c40.667 0 78.667 -8.66699 114 -26l80 81l93 -93l-70 -70c26 -34 39 -75 39 -123c0 -44.667 -13 -86.667 -39 -126l70 -70
l-93 -93l-81 81c-34.667 -16 -72.334 -24 -113.001 -24s-78.667 8 -114 24l-81 -81zM370.502 296c17 18.667 25.5 43.667 25.5 75c0 30.667 -8.5 55.5 -25.5 74.5s-38.5 28.5 -64.5 28.5c-26.667 0 -48.5 -9.33301 -65.5 -28s-25.5 -43.667 -25.5 -75s8.5 -56.333 25.5 -75
s38.833 -28 65.5 -28c26 0 47.5 9.33301 64.5 28z" />
    <glyph glyph-name="yen" unicode="&#xa5;" horiz-adv-x="614" 
d="M213 0v165h-174v88h174v60h-174v87h135l-164 330h191l51 -143c8 -21.333 13.667 -37.333 17 -48l10 -28l8 -22c5.33301 -16 12 -33.333 20 -52h4l28 75l27 75l50 143h188l-164 -330h134v-87h-174v-60h174v-88h-174v-165h-187z" />
    <glyph glyph-name="brokenbar" unicode="&#xa6;" horiz-adv-x="295" 
d="M88 394v498h120v-498h-120zM88 -258v519h120v-519h-120z" />
    <glyph glyph-name="section" unicode="&#xa7;" horiz-adv-x="607" 
d="M144.5 -66.5c-41 17 -74.167 42.168 -99.5 75.501l106 94c36.667 -38.667 77.667 -58 123 -58c20.667 0 36.167 3.66699 46.5 11s15.5 17.666 15.5 30.999c0 12 -9.33301 24 -28 36s-46.667 26.667 -84 44c-7.33301 3.33301 -19.666 9.33301 -36.999 18
s-32 16.667 -44 24c-70.667 42 -106 99.333 -106 172c0 28 8 55.167 24 81.5s37.667 48.166 65 65.499c-21.333 26.667 -32 58.334 -32 95.001c0 55.333 18.833 99.666 56.5 132.999s89.5 50 155.5 50c76.667 0 148 -25.667 214 -77l-85 -116
c-18 16 -37.667 29.167 -59 39.5s-41 15.5 -59 15.5c-18.667 0 -32.5 -3 -41.5 -9s-13.5 -15.667 -13.5 -29c0 -10 9.5 -21 28.5 -33s48.5 -27.667 88.5 -47c36.667 -18 64.667 -33 84 -45c35.333 -20.667 62.166 -44.167 80.499 -70.5s27.5 -58.833 27.5 -97.5
c0 -63.333 -31 -114.666 -93 -153.999c16.667 -24.667 25 -53.667 25 -87c0 -60 -21.167 -106.333 -63.5 -139s-97.5 -49 -165.5 -49c-45.333 0 -88.5 8.5 -129.5 25.5zM415 322.001c0 28.667 -20.666 53.6699 -61.999 75.0029c-10.667 6 -34.667 17 -72 33
c-25.333 10.667 -43.333 18.667 -54 24c-22.667 -14.667 -34 -34.334 -34 -59.001c0 -16 5.33301 -29.667 16 -41s26 -22.333 46 -33l84 -40c23.333 -10.667 37.666 -17.334 42.999 -20.001c22 15.333 33 35.666 33 60.999z" />
    <glyph glyph-name="copyright" unicode="&#xa9;" horiz-adv-x="854" 
d="M281 18c-46 18 -86 43.333 -120 76c-36 34 -64.167 74.833 -84.5 122.5s-30.5 100.5 -30.5 158.5s10.167 110.667 30.5 158s48.5 87.666 84.5 120.999c34 32.667 74 57.667 120 75s94.667 26 146 26c50.667 0 99 -8.66699 145 -26s86.667 -42.333 122 -75
c36 -33.333 63.833 -73.666 83.5 -120.999s29.5 -100 29.5 -158s-10 -110.833 -30 -158.5s-47.667 -88.5 -83 -122.5c-35.333 -33.333 -76 -58.833 -122 -76.5s-94.333 -26.5 -145 -26.5c-51.333 0 -100 9 -146 27zM543.5 88c36.333 14.667 68.1689 35.667 95.502 63
c27.333 28 48.333 61 63 99s22 79.667 22 125s-7.33301 87 -22 125s-35.667 70.667 -63 98c-27.333 26.667 -59 47 -95 61s-75 21 -117 21s-81 -7 -117 -21s-67.333 -34.333 -94 -61c-27.333 -26.667 -48.5 -59 -63.5 -97s-22.5 -80 -22.5 -126c0 -45.333 7.5 -87 22.5 -125
s36.167 -71 63.5 -99c26.667 -27.333 58.167 -48.333 94.5 -63s75.166 -22 116.499 -22s80.166 7.33301 116.499 22zM281.003 209c-42.667 40.667 -63.998 95.332 -63.998 163.999c0 33.333 6 63.833 18 91.5s28.667 51.5 50 71.5c20 19.333 43.5 34 70.5 44
s55.5 15 85.5 15c33.333 0 62.166 -6 86.499 -18s46.833 -28.667 67.5 -50l-69 -76c-11.333 12.667 -22.833 22 -34.5 28s-24.5 9 -38.5 9c-34 0 -59.833 -10.667 -77.5 -32s-26.5 -49 -26.5 -83c0 -36.667 8.66699 -65.5 26 -86.5s41 -31.5 71 -31.5
c17.333 0 32.166 2.83301 44.499 8.5s26.5 14.834 42.5 27.501l59 -85c-24 -19.333 -48.167 -34 -72.5 -44s-50.166 -15 -77.499 -15c-64.667 0 -118.334 20.667 -161.001 62z" />
    <glyph glyph-name="guillemotleft" unicode="&#xab;" horiz-adv-x="656" 
d="M83 187c0 104.667 24 209.667 72 315l144 -69c-36 -81.333 -54 -163.333 -54 -246c0 -80.667 17.667 -162 53 -244l-144 -68c-47.333 104 -71 208 -71 312zM342 187c0 106.667 24 211.668 72 315.001l143 -69c-18 -42 -31.5 -84.167 -40.5 -126.5
s-13.5 -82.166 -13.5 -119.499c0 -36.667 4.33301 -75.834 13 -117.501s22 -83.834 40 -126.501l-143 -68c-47.333 102 -71 206 -71 312z" />
    <glyph glyph-name="logicalnot" unicode="&#xac;" horiz-adv-x="607" 
d="M437 95v208h-402v132h537v-340h-135z" />
    <glyph glyph-name="registered" unicode="&#xae;" horiz-adv-x="533" 
d="M149 351c-35.333 20.667 -63 48.6689 -83 84.002s-30 74.666 -30 117.999s10.167 83 30.5 119s48 64.167 83 84.5s73.833 30.5 116.5 30.5s81.667 -10.333 117 -31s63.166 -48.834 83.499 -84.501s30.5 -75.167 30.5 -118.5s-10.167 -82.833 -30.5 -118.5
s-48.166 -63.667 -83.499 -84s-74.333 -30.5 -117 -30.5s-81.667 10.333 -117 31zM384.5 427.002c30.333 31.333 45.5 73.332 45.5 125.999s-15.167 94.834 -45.5 126.501s-69.833 47.5 -118.5 47.5s-88.167 -16 -118.5 -48s-45.5 -74 -45.5 -126
c0 -52.667 15.167 -94.667 45.5 -126s69.833 -47 118.5 -47s88.167 15.667 118.5 47zM171 667.001l106 0.000976562c28.667 0 51.5 -6.5 68.5 -19.5s25.5 -31.833 25.5 -56.5c0 -28.667 -13.333 -49.334 -40 -62.001l47 -86h-74l-33 66h-30v-66h-70v224zM263 556.002
c10.667 0 18.667 3 24 9s8 13.333 8 22c0 8 -2.83301 14.667 -8.5 20s-13.5 8 -23.5 8h-22v-59h22z" />
    <glyph glyph-name="degree" unicode="&#xb0;" horiz-adv-x="420" 
d="M143.5 417c-21 8.66699 -39.167 20.667 -54.5 36c-32.667 31.333 -49 71.666 -49 120.999c0 48.667 16.333 89.334 49 122.001c15.333 15.333 33.5 27.166 54.5 35.499s43.5 12.5 67.5 12.5s46.667 -4.16699 68 -12.5s39.333 -20.166 54 -35.499
c33.333 -33.333 50 -74 50 -122c0 -48.667 -16.667 -89 -50 -121c-15.333 -15.333 -33.5 -27.333 -54.5 -36s-43.5 -13 -67.5 -13s-46.5 4.33301 -67.5 13zM265.5 514.5c13.667 15 20.5 34.833 20.5 59.5s-6.83301 44.5 -20.5 59.5s-31.834 22.5 -54.501 22.5
s-40.834 -7.5 -54.501 -22.5s-20.5 -34.833 -20.5 -59.5s6.83301 -44.5 20.5 -59.5s31.834 -22.5 54.501 -22.5s40.834 7.5 54.501 22.5z" />
    <glyph glyph-name="plusminus" unicode="&#xb1;" horiz-adv-x="607" 
d="M236 190v145h-201v131h201v188h136v-188h200v-131h-200v-145h-136zM35 0v131h537v-131h-537z" />
    <glyph glyph-name="paragraph" unicode="&#xb6;" horiz-adv-x="736" 
d="M338 228c-41.333 0 -79.832 5.83105 -115.499 17.498s-66.834 28.834 -93.501 51.501c-28 24 -49.833 53 -65.5 87s-23.5 72.333 -23.5 115c0 90.667 29.333 158.334 88 203.001c50.667 37.333 120 56 208 56h51v-530h-49zM451.001 -83.002v841h186v-841h-186z" />
    <glyph glyph-name="periodcentered" unicode="&#xb7;" horiz-adv-x="394" 
d="M109 254.5c-25.333 23.667 -38 54.833 -38 93.5c0 36.667 12 67.167 36 91.5s55.333 36.5 94 36.5c37.333 0 67.833 -12.333 91.5 -37s35.5 -55 35.5 -91c0 -38 -12 -69 -36 -93s-54 -36 -90 -36c-36.667 0 -67.667 11.833 -93 35.5z" />
    <glyph glyph-name="guillemotright" unicode="&#xbb;" horiz-adv-x="656" 
d="M100 -57c35.333 82 53 163.333 53 244c0 82 -17.667 164 -53 246l143 69c47.333 -103.333 71 -208.333 71 -315c0 -106 -23.333 -210 -70 -312zM358 -57c36 81.333 54 162.667 54 244c0 82.667 -18 164.667 -54 246l144 69c47.333 -103.333 71 -208.333 71 -315
c0 -106 -23.333 -210 -70 -312z" />
    <glyph glyph-name="questiondown" unicode="&#xbf;" horiz-adv-x="534" 
d="M361.5 492.5c20.333 -21.667 30.5 -48.834 30.5 -81.501c0 -33.333 -10.167 -60.833 -30.5 -82.5s-46.5 -32.5 -78.5 -32.5s-58.333 10.833 -79 32.5s-31 49.167 -31 82.5c0 32.667 10.333 59.834 31 81.501s47 32.5 79 32.5s58.167 -10.833 78.5 -32.5zM364 237
c1.33301 -12 1.99805 -20.9971 1.99805 -26.9971c0 -52.667 -22 -102.667 -66 -150l-15 -17c-23.333 -26.667 -39.666 -46.834 -48.999 -60.501s-14 -27.834 -14 -42.501c0 -20.667 6.33301 -36.334 19 -47.001s29.334 -16 50.001 -16c18.667 0 35.167 4 49.5 12
s30.5 20.667 48.5 38l102 -93c-28 -33.333 -60.5 -59.5 -97.5 -78.5s-77.167 -28.5 -120.5 -28.5c-71.333 0 -127.5 16.833 -168.5 50.5s-61.5 83.5 -61.5 149.5c0 29.333 6.83301 56 20.5 80s34.5 50 62.5 78c25.333 25.333 44.333 48.833 57 70.5s19 44.167 19 67.5
c0 6 -0.333008 10.667 -1 14h163z" />
    <glyph glyph-name="multiply" unicode="&#xd7;" horiz-adv-x="604" 
d="M141 112l-92 93l161 161l-161 161l92 93l161 -161l161 161l92 -93l-160 -161l160 -161l-92 -93l-161 162z" />
    <glyph glyph-name="divide" unicode="&#xf7;" horiz-adv-x="607" 
d="M231.5 510.5c-19 17.667 -28.5 40.5 -28.5 68.5s9.5 50.833 28.5 68.5s43.167 26.5 72.5 26.5s53.5 -8.83301 72.5 -26.5s28.5 -40.5 28.5 -68.5s-9.5 -50.833 -28.5 -68.5s-43.167 -26.5 -72.5 -26.5s-53.5 8.83301 -72.5 26.5zM35 306v131h537v-131h-537zM231.5 96.5
c-19 17.667 -28.5 40.5 -28.5 68.5s9.5 50.833 28.5 68.5s43.167 26.5 72.5 26.5s53.5 -8.83301 72.5 -26.5s28.5 -40.5 28.5 -68.5s-9.5 -50.833 -28.5 -68.5s-43.167 -26.5 -72.5 -26.5s-53.5 8.83301 -72.5 26.5z" />
    <glyph glyph-name="uni060C" unicode="&#x60c;" horiz-adv-x="402" 
d="M288.5 185c21.667 -23.333 32.5 -51 32.5 -83c0 -36 -11.833 -65.5 -35.5 -88.5s-52.5 -34.5 -86.5 -34.5c-39.333 0 -70.5 12.667 -93.5 38s-34.5 61.333 -34.5 108c0 38.667 11.167 82.667 33.5 132s50.166 95 83.499 137l91 -78
c-31.333 -35.333 -54.333 -67.333 -69 -96c30.667 0 56.834 -11.667 78.501 -35z" />
    <glyph glyph-name="uni061B" unicode="&#x61b;" horiz-adv-x="402" 
d="M105.5 361c-23 25.333 -34.5 61.333 -34.5 108c0 38.667 11.167 82.667 33.5 132s50.166 95 83.499 137l91 -78c-31.333 -34 -54.333 -66.333 -69 -97c30.667 0 56.834 -11.5 78.501 -34.5s32.5 -50.5 32.5 -82.5c0 -36 -11.833 -65.5 -35.5 -88.5
s-52.5 -34.5 -86.5 -34.5c-39.333 0 -70.5 12.667 -93.5 38zM292.5 198c23.667 -24.667 35.5 -55.001 35.5 -91.001c0 -38 -12.167 -69 -36.5 -93s-54.5 -36 -90.5 -36c-36.667 0 -67.5 11.833 -92.5 35.5s-37.5 54.834 -37.5 93.501c0 36.667 12 67.167 36 91.5
s55.333 36.5 94 36.5c37.333 0 67.833 -12.333 91.5 -37z" />
    <glyph glyph-name="uni061F" unicode="&#x61f;" horiz-adv-x="598" 
d="M383 620c0 20.667 -7 38.168 -21 52.501s-34 21.5 -60 21.5c-23.333 0 -41.833 -6.83301 -55.5 -20.5s-20.5 -30.834 -20.5 -51.501s8.66699 -41.667 26 -63s41 -44.333 71 -69c26.667 -24 45.834 -45 57.501 -63s19.167 -36 22.5 -54s5 -43.667 5 -77l-137 -20
c-0.666992 24.667 -2.16699 43.167 -4.5 55.5s-6.83301 23.666 -13.5 33.999s-18.667 24.5 -36 42.5c-10 10.667 -21.333 21 -34 31c-22 19.333 -40 37 -54 53s-26 37.333 -36 64s-15 59 -15 97c0 37.333 10.167 72.333 30.5 105s47.666 59 81.999 79s71.5 30 111.5 30
c68 0 121.5 -19.167 160.5 -57.5s58.5 -89.833 58.5 -154.5c0 -15.333 -1.66699 -33.666 -5 -54.999l-136 -4c2 8 3 16 3 24zM250 12.501c-22.667 21 -33.999 48.5 -33.999 82.5c0 32.667 10.833 60 32.5 82s49.5 33 83.5 33s61.5 -11.167 82.5 -33.5s31.5 -49.5 31.5 -81.5
c0 -34 -10.833 -61.5 -32.5 -82.5s-48.5 -31.5 -80.5 -31.5c-32.667 0 -60.334 10.5 -83.001 31.5z" />
    <glyph glyph-name="uni0621" unicode="&#x621;" horiz-adv-x="622" 
d="M63 156l113.001 30.999c-15.333 44 -23 84.333 -23 121c0 58.667 20 103.834 60 135.501s94.333 46.167 163 43.5c23.333 -2 52.666 -7 87.999 -15l-35 -156c-30.667 5.33301 -60.667 8 -90 8c-16 0 -32 -1 -48 -3c1.33301 -37.333 12 -75.333 32 -114l213 67l24 -171
l-471 -125z" />
    <glyph glyph-name="uni0622" unicode="&#x622;" horiz-adv-x="327" 
d="M239 763c-47.333 0 -93.002 3.66699 -137.002 11c-11.333 2 -20.333 3 -27 3c-5.33301 0 -10.166 -2.83301 -14.499 -8.5s-9.83301 -18.834 -16.5 -39.501l-122 30c12 51.333 24.667 91 38 119s29 47.833 47 59.5s40.333 17.5 67 17.5c14 0 31 -2 51 -6
c48.667 -7.33301 95.334 -10.666 140.001 -9.99902h105l-38 -175zM232.998 0l-150 -20l-16 680l171 27z" />
    <glyph glyph-name="uni0623" unicode="&#x623;" horiz-adv-x="319" 
d="M-69 867l99.999 20.001c-12.667 29.333 -19 57.333 -19 84c0 6 0.666992 15 2 27c4 35.333 18.333 63.333 43 84s56.667 31 96 31c6.66699 0 16.667 -0.666992 30 -2c11.333 -0.666992 29 -4.33398 53 -11.001l-30 -125c-16 4 -30 7 -42 9
c-13.333 1.33301 -22.666 2 -27.999 2l-16 -1c0 -22.667 5 -46.667 15 -72l155 38l18 -131l-359 -83zM229.999 0.000976562l-149 -20l-16 680l170 27z" />
    <glyph glyph-name="uni0624" unicode="&#x624;" horiz-adv-x="571" 
d="M66 657l99.999 19.999c-12.667 30.667 -19 59.334 -19 86.001c0 6 0.666992 14.333 2 25c4 35.333 18.333 63.333 43 84s56.667 31 96 31c6.66699 0 16.667 -0.666992 30 -2c14.667 -1.33301 32.334 -5 53.001 -11l-30 -125c-16 4 -30 7 -42 9c-12 1.33301 -21 2 -27 2
l-17 -1c0 -22 5 -46.333 15 -73l155 38l18 -131l-358 -82zM383.999 419.499c31.333 -23.667 56.5 -59.333 75.5 -107s28.5 -105.5 28.5 -173.5c0 -94 -24 -180.5 -72 -259.5s-137.333 -147.5 -268 -205.5l-115 173c60.667 21.333 116.834 47.166 168.501 77.499
s90.5 58.833 116.5 85.5c-22.667 -5.33301 -46.334 -8 -71.001 -8c-40 0 -73.667 5 -101 15c-9.33301 3.33301 -17.166 9 -23.499 17s-15.833 22.667 -28.5 44c-10 18.667 -16.833 33.167 -20.5 43.5s-5.16699 20.5 -4.5 30.5c4 92.667 24 166.334 60 221.001
s86.667 82 152 82c37.333 0 71.666 -11.833 102.999 -35.5zM281.999 180c24.667 0 44.335 1 59.002 3c0 31.333 -6.16699 55.333 -18.5 72s-28.5 25 -48.5 25c-17.333 0 -31.333 -8.16699 -42 -24.5s-17.334 -40.5 -20.001 -72.5c19.333 -2 42.666 -3 69.999 -3z" />
    <glyph glyph-name="uni0625" unicode="&#x625;" horiz-adv-x="320" 
d="M237 787l-5 -787l-150 -20l-17 779zM-26 -344l98.999 20c-12 30.667 -18 58.667 -18 84c0 6 0.666992 15 2 27c3.33301 34.667 17.5 62.5 42.5 83.5s57.5 31.5 97.5 31.5c6 0 15.667 -0.666992 29 -2c14.667 -1.33301 32.334 -5 53.001 -11l-31 -125
c-3.33301 0.666992 -9.33301 2 -18 4s-16.667 3.33301 -24 4c-18 2 -32.667 2.66699 -44 2c0 -20.667 5.33301 -45 16 -73l155 38l17 -131l-358 -83z" />
    <glyph glyph-name="uni0626" unicode="&#x626;" horiz-adv-x="881" 
d="M39 564l100 20c-12.667 30.667 -19 59.667 -19 87c0 42 12.667 75.667 38 101s60.333 38 105 38c6 0 15.667 -0.666992 29 -2c14 -1.33301 31.333 -5 52 -11l-30 -125c-4.66699 0.666992 -11.167 2 -19.5 4s-15.833 3.33301 -22.5 4c-18 2 -32.667 2.66699 -44 2
c0 -22 5 -46.333 15 -73l156 38l17 -131l-358 -83zM151.5 -201.5c-45.667 37.667 -68.502 91.8301 -68.502 162.497c0 66.667 17.667 190.667 53 372l138 -29c-26 -148 -39 -240.667 -39 -278c0 -24 12 -39.333 36 -46s61 -10 111 -10c51.333 0 99.333 3.83301 144 11.5
s77.334 18.834 98.001 33.501v5c0 5.33301 -2 8 -6 8l-31 4c-51.333 6 -89.5 12 -114.5 18s-44.667 16.5 -59 31.5s-21.5 37.5 -21.5 67.5c0 58 12.167 117.333 36.5 178s55.333 110.667 93 150s74.5 59 110.5 59c20.667 0 39.834 -3.66699 57.501 -11
s36.5 -21.666 56.5 -42.999s42 -52.666 66 -93.999l-96 -103c-32 34 -60.667 51 -86 51c-20 0 -37.167 -10 -51.5 -30s-25.166 -48 -32.499 -84c47.333 -5.33301 85.666 -13.333 114.999 -24s53.333 -30.334 72 -59.001s28 -70 28 -124c0 -50.667 -16 -96.667 -48 -138
s-77.333 -74.166 -136 -98.499s-126 -36.5 -202 -36.5c-103.333 0 -177.833 18.833 -223.5 56.5z" />
    <glyph glyph-name="uni0627" unicode="&#x627;" horiz-adv-x="320" 
d="M237 787l-5 -787l-150 -20l-17 779z" />
    <glyph glyph-name="uni0628" unicode="&#x628;" horiz-adv-x="959" 
d="M870 346c2 -40 3 -79.001 3 -117.001c0 -44 -6.5 -81 -19.5 -111s-34.5 -53.333 -64.5 -70c-31.333 -18 -73.166 -31.167 -125.499 -39.5s-118.5 -12.5 -198.5 -12.5c-82 0 -150.5 6 -205.5 18s-98.167 34.833 -129.5 68.5s-47 81.834 -47 144.501
c0 15.333 2.66699 41 8 77l25 157l138 -29l-22 -133c-2.66699 -13.333 -4 -23 -4 -29c0 -17.333 19.833 -29.333 59.5 -36s99.167 -10 178.5 -10c57.333 0 105.666 1.16699 144.999 3.5s75 6.5 107 12.5l-27 209l170 30c4 -48.667 7 -93 9 -133zM457 -110.001l135 -113
l-113 -135l-135 113z" />
    <glyph glyph-name="uni0629" unicode="&#x629;" horiz-adv-x="608" 
d="M171 600l-123 103l103 123l117 -98l89 107l122 -104l-103 -121l-116 97zM523.5 115c-4.33301 -11.333 -14.1699 -27.667 -29.5029 -49c-15.333 -22 -26.166 -36.5 -32.499 -43.5s-12.5 -11.5 -18.5 -13.5c-45.333 -14.667 -97.666 -22 -156.999 -22
c-66 0 -116.333 17 -151 51s-52 77 -52 129c0 37.333 6.83301 72.333 20.5 105s38.5 73.667 74.5 123l-48 33l110 157c92.667 -56.667 163 -118.5 211 -185.5s74 -150.167 78 -249.5c0.666992 -12 -1.16602 -23.667 -5.49902 -35zM371.996 214.999
c-5.33301 20 -14.668 40 -28.001 60s-30.333 35.667 -51 47c-12 -10.667 -23.333 -25 -34 -43s-16 -32 -16 -42s3.16699 -16.667 9.5 -20s17.5 -5 33.5 -5c40.667 0 69.334 1 86.001 3z" />
    <glyph glyph-name="uni062A" unicode="&#x62a;" horiz-adv-x="959" 
d="M391 456l-122 102l102 123l116 -97l90 106l122 -103l-102 -122l-116 97zM870 346c2 -40 3 -79.001 3 -117.001c0 -44 -6.5 -81 -19.5 -111s-34.5 -53.333 -64.5 -70c-31.333 -18 -73.166 -31.167 -125.499 -39.5s-118.5 -12.5 -198.5 -12.5c-82 0 -150.5 6 -205.5 18
s-98.167 34.833 -129.5 68.5s-47 81.834 -47 144.501c0 15.333 2.66699 41 8 77l25 157l138 -29l-22 -133c-2.66699 -13.333 -4 -23 -4 -29c0 -17.333 19.833 -29.333 59.5 -36s99.167 -10 178.5 -10c57.333 0 105.666 1.16699 144.999 3.5s75 6.5 107 12.5l-27 209l170 30
c4 -48.667 7 -93 9 -133z" />
    <glyph glyph-name="uni062B" unicode="&#x62b;" horiz-adv-x="959" 
d="M476 646l-115 97l97 115l115 -96zM388 466l-116 97l97 117l109 -92l83 99l116 -96l-97 -115l-109 91zM870 346c2 -40 3 -79.001 3 -117.001c0 -44 -6.5 -81 -19.5 -111s-34.5 -53.333 -64.5 -70c-31.333 -18 -73.166 -31.167 -125.499 -39.5s-118.5 -12.5 -198.5 -12.5
c-82 0 -150.5 6 -205.5 18s-98.167 34.833 -129.5 68.5s-47 81.834 -47 144.501c0 15.333 2.66699 41 8 77l25 157l138 -29l-22 -133c-2.66699 -13.333 -4 -23 -4 -29c0 -17.333 19.833 -29.333 59.5 -36s99.167 -10 178.5 -10c57.333 0 105.666 1.16699 144.999 3.5
s75 6.5 107 12.5l-27 209l170 30c4 -48.667 7 -93 9 -133z" />
    <glyph glyph-name="uni062C" unicode="&#x62c;" horiz-adv-x="833" 
d="M705 234c-62 -4.66699 -124.333 -21.335 -187 -50.002s-117.834 -62 -165.501 -100s-81.5 -73 -101.5 -105c-0.666992 -9.33301 -1 -22.333 -1 -39c0 -43.333 7.5 -76.5 22.5 -99.5s39.333 -38.833 73 -47.5s81.167 -13 142.5 -13h205l-47 -229h-183
c-126 0 -223.167 29.5 -291.5 88.5s-102.5 148.833 -102.5 269.5c0 84.667 28.5 163.334 85.5 236.001s132.833 132.334 227.5 179.001l40 18l-48 15c-54 16.667 -90 25 -108 25c-16.667 0 -28.667 -4.5 -36 -13.5s-13.666 -22.833 -18.999 -41.5l-132 27
c23.333 140 82.333 210 177 210c22.667 0 45.5 -3 68.5 -9s51.5 -15 85.5 -27l21 -7l36 -12c56.667 -20 106.5 -35.333 149.5 -46s88.167 -16 135.5 -16zM386 -56.001l96 115l115 -97l-96 -114z" />
    <glyph glyph-name="uni062D" unicode="&#x62d;" horiz-adv-x="833" 
d="M518 184c-62.667 -28.667 -117.834 -62.001 -165.501 -100.001s-81.5 -73 -101.5 -105c-0.666992 -9.33301 -1 -22.333 -1 -39c0 -43.333 7.5 -76.5 22.5 -99.5s39.333 -38.833 73 -47.5s81.167 -13 142.5 -13h205l-47 -229h-183c-126 0 -223.167 29.5 -291.5 88.5
s-102.5 148.833 -102.5 269.5c0 84.667 28.5 163.334 85.5 236.001s132.833 132.334 227.5 179.001l40 18l-48 15c-54 16.667 -90 25 -108 25c-16.667 0 -28.667 -4.5 -36 -13.5s-13.666 -22.833 -18.999 -41.5l-132 27c23.333 140 82.333 210 177 210
c22.667 0 45.5 -3 68.5 -9s51.5 -15 85.5 -27l21 -7l36 -12c56.667 -20 106.5 -35.333 149.5 -46s88.167 -16 135.5 -16l-47 -213c-62 -4.66699 -124.333 -21.334 -187 -50.001z" />
    <glyph glyph-name="uni062E" unicode="&#x62e;" horiz-adv-x="833" 
d="M482 605l-135 113l113 135l135 -113zM518 184c-62.667 -28.667 -117.834 -62.001 -165.501 -100.001s-81.5 -73 -101.5 -105c-0.666992 -9.33301 -1 -22.333 -1 -39c0 -43.333 7.5 -76.5 22.5 -99.5s39.333 -38.833 73 -47.5s81.167 -13 142.5 -13h205l-47 -229h-183
c-126 0 -223.167 29.5 -291.5 88.5s-102.5 148.833 -102.5 269.5c0 84.667 28.5 163.334 85.5 236.001s132.833 132.334 227.5 179.001l40 18l-48 15c-54 16.667 -90 25 -108 25c-16.667 0 -28.667 -4.5 -36 -13.5s-13.666 -22.833 -18.999 -41.5l-132 27
c23.333 140 82.333 210 177 210c22.667 0 45.5 -3 68.5 -9s51.5 -15 85.5 -27l21 -7l36 -12c56.667 -20 106.5 -35.333 149.5 -46s88.167 -16 135.5 -16l-47 -213c-62 -4.66699 -124.333 -21.334 -187 -50.001z" />
    <glyph glyph-name="uni062F" unicode="&#x62f;" horiz-adv-x="667" 
d="M530 394c38.667 -70 58 -140.331 58 -210.998c0 -56 -16 -100 -48 -132c-46 -46.667 -126 -70 -240 -70c-71.333 0 -125.333 13.833 -162 41.5s-55 75.834 -55 144.501c0 22.667 2.33301 52.667 7 90l139 -5c0 -5.33301 -0.166992 -9.5 -0.5 -12.5
s-0.5 -5.16699 -0.5 -6.5c0 -9.33301 1.83301 -15.833 5.5 -19.5s10.167 -5.83398 19.5 -6.50098s26.666 -1 51.999 -1c44.667 0 85.334 2.66699 122.001 8c-7.33301 27.333 -24.5 58.666 -51.5 93.999s-67.833 78.666 -122.5 129.999l114 155
c70 -62.667 124.333 -129 163 -199z" />
    <glyph glyph-name="uni0630" unicode="&#x630;" horiz-adv-x="667" 
d="M337 668l-135 113l113 135l135 -113zM530 394c38.667 -70 58 -140.331 58 -210.998c0 -56 -16 -100 -48 -132c-46 -46.667 -126 -70 -240 -70c-71.333 0 -125.333 13.833 -162 41.5s-55 75.834 -55 144.501c0 22.667 2.33301 52.667 7 90l139 -5
c0 -5.33301 -0.166992 -9.5 -0.5 -12.5s-0.5 -5.16699 -0.5 -6.5c0 -9.33301 1.83301 -15.833 5.5 -19.5s10.167 -5.83398 19.5 -6.50098s26.666 -1 51.999 -1c44.667 0 85.334 2.66699 122.001 8c-7.33301 27.333 -24.5 58.666 -51.5 93.999s-67.833 78.666 -122.5 129.999
l114 155c70 -62.667 124.333 -129 163 -199z" />
    <glyph glyph-name="uni0631" unicode="&#x631;" horiz-adv-x="432" 
d="M-87 -164c66 34 117.502 62.666 154.502 85.999s65 44.5 84 63.5s34.167 39.5 45.5 61.5l-46 315l174 36c16 -129.333 24 -232 24 -308c0 -62 -8.33301 -115.667 -25 -161s-47.834 -89.666 -93.501 -132.999s-111.834 -88 -198.501 -134z" />
    <glyph glyph-name="uni0632" unicode="&#x632;" horiz-adv-x="432" 
d="M319 617l-113 -135l-135 113l113 135zM-87 -164c66 34 117.502 62.666 154.502 85.999s65 44.5 84 63.5s34.167 39.5 45.5 61.5l-46 315l174 36c16 -129.333 24 -232 24 -308c0 -62 -8.33301 -115.667 -25 -161s-47.834 -89.666 -93.501 -132.999
s-111.834 -88 -198.501 -134z" />
    <glyph glyph-name="uni0633" unicode="&#x633;" horiz-adv-x="1311" 
d="M1217 426c4 -48.667 6.83496 -86.832 8.50195 -114.499s2.5 -60.5 2.5 -98.5c0 -68.667 -17.833 -121.334 -53.5 -158.001s-83.167 -55 -142.5 -55c-27.333 0 -51.833 5.5 -73.5 16.5s-37.834 28.5 -48.501 52.5c-12 -24 -29.5 -41.5 -52.5 -52.5
s-45.833 -16.5 -68.5 -16.5c-36.667 0 -65 8.66699 -85 26c1.33301 -34.667 2 -58.667 2 -72c0 -48 -18.333 -86.667 -55 -116s-80.334 -50 -131.001 -62s-99 -18 -145 -18c-194.667 0 -292 73 -292 219c0 66 17.667 189.667 53 371l138 -28c-26 -149.333 -39 -242 -39 -278
c0 -24 11.5 -39.5 34.5 -46.5s56.833 -10.5 101.5 -10.5c38.667 0 71.5 1.66699 98.5 5s53.5 9 79.5 17l-49 363l169 38l15 -129c2 -19.333 7.83301 -32.833 17.5 -40.5s24.5 -11.5 44.5 -11.5c20.667 0 39.667 3.33301 57 10l-3 166l152 8l5 -178c12 -4 25 -6 39 -6
c28 0 52.667 4.33301 74 13l-27 208l169 31z" />
    <glyph glyph-name="uni0634" unicode="&#x634;" horiz-adv-x="1311" 
d="M843 680l-115 96l97 115l116 -96zM755 499l-116 98l97 117l109 -92l83 98l116 -95l-97 -115l-109 91zM1217 426c4 -48.667 6.83496 -86.832 8.50195 -114.499s2.5 -60.5 2.5 -98.5c0 -68.667 -17.833 -121.334 -53.5 -158.001s-83.167 -55 -142.5 -55
c-27.333 0 -51.833 5.5 -73.5 16.5s-37.834 28.5 -48.501 52.5c-12 -24 -29.5 -41.5 -52.5 -52.5s-45.833 -16.5 -68.5 -16.5c-36.667 0 -65 8.66699 -85 26c1.33301 -34.667 2 -58.667 2 -72c0 -48 -18.333 -86.667 -55 -116s-80.334 -50 -131.001 -62s-99 -18 -145 -18
c-194.667 0 -292 73 -292 219c0 66 17.667 189.667 53 371l138 -28c-26 -149.333 -39 -242 -39 -278c0 -24 11.5 -39.5 34.5 -46.5s56.833 -10.5 101.5 -10.5c38.667 0 71.5 1.66699 98.5 5s53.5 9 79.5 17l-49 363l169 38l15 -129c2 -19.333 7.83301 -32.833 17.5 -40.5
s24.5 -11.5 44.5 -11.5c20.667 0 39.667 3.33301 57 10l-3 166l152 8l5 -178c12 -4 25 -6 39 -6c28 0 52.667 4.33301 74 13l-27 208l169 31z" />
    <glyph glyph-name="uni0635" unicode="&#x635;" horiz-adv-x="1375" 
d="M1235 448.5c38 -50.333 56.999 -121.833 56.999 -214.5c0 -42 -14.333 -82.333 -43 -121c-30.667 -40.667 -75.667 -71.5 -135 -92.5s-129.666 -31.5 -210.999 -31.5c-45.333 0 -83.833 2.16699 -115.5 6.5s-59.5 11.5 -83.5 21.5c1.33301 -29.333 2 -50.333 2 -63
c0 -48 -18.333 -86.667 -55 -116s-80.334 -50 -131.001 -62s-99 -18 -145 -18c-194.667 0 -292 73 -292 219c0 66 17.667 189.667 53 371l138 -28c-26 -149.333 -39 -242 -39 -278c0 -24 11.5 -39.5 34.5 -46.5s56.833 -10.5 101.5 -10.5c38.667 0 71.5 1.66699 98.5 5
s53.5 9 79.5 17l-49 363l169 38l18 -171c4.66699 -1.33301 13.334 -3 26.001 -5c41.333 72 94 138.667 158 200s132.667 92 206 92c67.333 0 120 -25.167 158 -75.5zM1119.5 318c-15 17.333 -33.499 26 -55.499 26c-28.667 0 -61 -11.833 -97 -35.5
s-70.333 -55.167 -103 -94.5c9.33301 -0.666992 24.666 -1 45.999 -1c71.333 0 148 9 230 27c1.33301 34.667 -5.5 60.667 -20.5 78z" />
    <glyph glyph-name="uni0636" unicode="&#x636;" horiz-adv-x="1375" 
d="M833 554l-136 113l113 135l135 -113zM1235 448.5c38 -50.333 56.999 -121.833 56.999 -214.5c0 -42 -14.333 -82.333 -43 -121c-30.667 -40.667 -75.667 -71.5 -135 -92.5s-129.666 -31.5 -210.999 -31.5c-45.333 0 -83.833 2.16699 -115.5 6.5s-59.5 11.5 -83.5 21.5
c1.33301 -29.333 2 -50.333 2 -63c0 -48 -18.333 -86.667 -55 -116s-80.334 -50 -131.001 -62s-99 -18 -145 -18c-194.667 0 -292 73 -292 219c0 66 17.667 189.667 53 371l138 -28c-26 -149.333 -39 -242 -39 -278c0 -24 11.5 -39.5 34.5 -46.5s56.833 -10.5 101.5 -10.5
c38.667 0 71.5 1.66699 98.5 5s53.5 9 79.5 17l-49 363l169 38l18 -171c4.66699 -1.33301 13.334 -3 26.001 -5c41.333 72 94 138.667 158 200s132.667 92 206 92c67.333 0 120 -25.167 158 -75.5zM1119.5 318c-15 17.333 -33.499 26 -55.499 26
c-28.667 0 -61 -11.833 -97 -35.5s-70.333 -55.167 -103 -94.5c9.33301 -0.666992 24.666 -1 45.999 -1c71.333 0 148 9 230 27c1.33301 34.667 -5.5 60.667 -20.5 78z" />
    <glyph glyph-name="uni0637" unicode="&#x637;" horiz-adv-x="844" 
d="M703.5 456.5c37.667 -50.333 56.4961 -121.833 56.4961 -214.5c0 -42.667 -14 -83 -42 -121c-31.333 -40 -76.666 -70.167 -135.999 -90.5s-128.666 -30.5 -207.999 -30.5h-252l-39 227h93l25 40c2.66699 4.66699 4.33398 10.167 5.00098 16.5s1 16.833 1 31.5
s-1.66699 63.667 -5 147l-12 297l170 28l-1 -271c0 -10 -0.666992 -34.333 -2 -73c64.667 59.333 127.334 89 188.001 89c68 0 120.833 -25.167 158.5 -75.5zM587.496 325.5c-15 17 -33.5 25.501 -55.5 25.501c-26.667 0 -57.667 -11.333 -93 -34s-71 -54.334 -107 -95.001
h46c76 0 152.667 8.66699 230 26c1.33301 34.667 -5.5 60.5 -20.5 77.5z" />
    <glyph glyph-name="uni0638" unicode="&#x638;" horiz-adv-x="844" 
d="M590 615l-135 113l113 135l135 -113zM703.5 456.5c37.667 -50.333 56.4961 -121.833 56.4961 -214.5c0 -42.667 -14 -83 -42 -121c-31.333 -40 -76.666 -70.167 -135.999 -90.5s-128.666 -30.5 -207.999 -30.5h-252l-39 227h93l25 40
c2.66699 4.66699 4.33398 10.167 5.00098 16.5s1 16.833 1 31.5s-1.66699 63.667 -5 147l-12 297l170 28l-1 -271c0 -10 -0.666992 -34.333 -2 -73c64.667 59.333 127.334 89 188.001 89c68 0 120.833 -25.167 158.5 -75.5zM587.496 325.5c-15 17 -33.5 25.501 -55.5 25.501
c-26.667 0 -57.667 -11.333 -93 -34s-71 -54.334 -107 -95.001h46c76 0 152.667 8.66699 230 26c1.33301 34.667 -5.5 60.5 -20.5 77.5z" />
    <glyph glyph-name="uni0639" unicode="&#x639;" horiz-adv-x="699" 
d="M249 -276.5c-51.333 26.333 -91.834 66.001 -121.501 119.001s-44.5 118.167 -44.5 195.5c0 49.333 10.333 99 31 149s52 95 94 135c-26.667 58 -40 115.667 -40 173c0 141.333 82.333 212 247 212c28 0 60 -2.66699 96 -8l-33 -165c-22.667 1.33301 -42.334 2 -59.001 2
c-40.667 0 -72 -3 -94 -9c0 -20.667 3 -43.334 9 -68.001s13.333 -44 22 -58l240 69l34 -199c-94.667 -23.333 -170.5 -47 -227.5 -71s-105.833 -52 -146.5 -84c-1.33301 -20 -2 -33.667 -2 -41c0.666992 -45.333 6.33398 -79.5 17.001 -102.5s27.834 -38.833 51.501 -47.5
s57.167 -13 100.5 -13h266l-48 -228h-216c-66 0 -124.667 13.167 -176 39.5z" />
    <glyph glyph-name="uni063A" unicode="&#x63a;" horiz-adv-x="699" 
d="M460 928l-112 -135l-136 113l113 135zM249 -276.5c-51.333 26.333 -91.834 66.001 -121.501 119.001s-44.5 118.167 -44.5 195.5c0 49.333 10.333 99 31 149s52 95 94 135c-26.667 58 -40 115.667 -40 173c0 141.333 82.333 212 247 212c28 0 60 -2.66699 96 -8l-33 -165
c-22.667 1.33301 -42.334 2 -59.001 2c-40.667 0 -72 -3 -94 -9c0 -20.667 3 -43.334 9 -68.001s13.333 -44 22 -58l240 69l34 -199c-94.667 -23.333 -170.5 -47 -227.5 -71s-105.833 -52 -146.5 -84c-1.33301 -20 -2 -33.667 -2 -41
c0.666992 -45.333 6.33398 -79.5 17.001 -102.5s27.834 -38.833 51.501 -47.5s57.167 -13 100.5 -13h266l-48 -228h-216c-66 0 -124.667 13.167 -176 39.5z" />
    <glyph glyph-name="uni0640" unicode="&#x640;" horiz-adv-x="208" 
d="M216.5 212.5c2.33301 -9.66699 3.5 -21.834 3.5 -36.501v-124c0 -14.667 -1.16699 -27 -3.5 -37s-5.16602 -15 -8.49902 -15h-208c-3.33301 0 -6.16602 5 -8.49902 15s-3.5 22.333 -3.5 37v124c0 14.667 1.16699 26.834 3.5 36.501s5.16602 14.5 8.49902 14.5h208
c3.33301 0 6.16602 -4.83301 8.49902 -14.5z" />
    <glyph glyph-name="uni0641" unicode="&#x641;" horiz-adv-x="1080" 
d="M775 800l-136 114l113 135l135 -114zM975 151c-13.333 -57.333 -39.333 -97.334 -78 -120.001c-18.667 -11.333 -39.167 -19.166 -61.5 -23.499s-51.833 -7.16602 -88.5 -8.49902s-96.667 -2 -180 -2c-20 -0.666992 -54 -1 -102 -1c-82 0 -150.5 6 -205.5 18
s-98.167 34.833 -129.5 68.5s-47 81.834 -47 144.501c0 15.333 2.66699 41 8 77l25 157l138 -29l-22 -133c-2.66699 -13.333 -4 -23 -4 -29c0 -17.333 19.833 -29.333 59.5 -36s99.167 -10 178.5 -10h117c134 0 221 2 261 6c0.666992 3.33301 1 10.333 1 21l1 21
c-26.667 -4.66699 -57.334 -7 -92.001 -7c-40 0 -73.667 5 -101 15c-9.33301 3.33301 -17.5 9 -24.5 17s-16.167 22.333 -27.5 43c-10.667 20 -17.667 34.667 -21 44s-5 19.666 -5 30.999c4.66699 93.333 25 167.166 61 221.499s86.667 81.5 152 81.5
c38.667 0 73.5 -11.833 104.5 -35.5s55.667 -59.167 74 -106.5s27.5 -105.333 27.5 -174c0.666992 -110 -5.66602 -193.667 -18.999 -251zM789 443.999c18 0 37.668 0.666992 59.001 2c0 31.333 -6.16699 55.333 -18.5 72s-28.5 25 -48.5 25
c-17.333 0 -31.333 -8.16699 -42 -24.5s-17.334 -40.5 -20.001 -72.5c24 -1.33301 47.333 -2 70 -2z" />
    <glyph glyph-name="uni0642" unicode="&#x642;" horiz-adv-x="877" 
d="M474 600l-122 103l103 123l116 -98l89 106l123 -103l-103 -121l-117 97zM691.5 479.5c31 -23.667 55.667 -59.166 74 -106.499s27.5 -105.333 27.5 -174c0 -70 -1 -122.667 -3 -158s-7 -65.833 -15 -91.5s-20.667 -48.5 -38 -68.5
c-32.667 -35.333 -79.167 -60.833 -139.5 -76.5s-134.5 -23.834 -222.5 -24.501c-103.333 0 -177.833 18.833 -223.5 56.5s-68.5 91.5 -68.5 161.5c0 66.667 17.667 190.667 53 372l138 -28l-6 -38c-22 -130.667 -33 -211 -33 -241c0 -23.333 11.5 -38.5 34.5 -45.5
s56.833 -10.5 101.5 -10.5c66.667 0 121 1.5 163 4.5s80.667 7.83301 116 14.5c0 19.333 0.333008 34 1 44c-30.667 -5.33301 -63.334 -8 -98.001 -8c-40 0 -73.667 5 -101 15c-9.33301 3.33301 -17.333 9 -24 17s-15.667 22 -27 42
c-11.333 20.667 -18.666 35.667 -21.999 45s-5 20 -5 32c4.66699 92.667 25 166.167 61 220.5s86.667 81.5 152 81.5c38.667 0 73.5 -11.833 104.5 -35.5zM647 243.001c0 31.333 -6.16602 55.333 -18.499 72s-28.5 25 -48.5 25c-17.333 0 -31.333 -8.16699 -42 -24.5
s-17.334 -40.5 -20.001 -72.5c18 -2 41.333 -3 70 -3c23.333 0 43 1 59 3z" />
    <glyph glyph-name="uni0643" unicode="&#x643;" horiz-adv-x="934" 
d="M841 600c6.66699 -168 10.001 -298.998 10.001 -392.998c0 -64.667 -23.667 -114.334 -71 -149.001c-27.333 -21.333 -69.833 -37.333 -127.5 -48s-120.167 -16 -187.5 -16c-82.667 0 -151.334 6 -206.001 18s-97.667 34.667 -129 68s-47 81.333 -47 144
c0 15.333 2.66699 41 8 77l25 157l138 -28l-22 -133c-2.66699 -14 -4 -24 -4 -30c0 -17.333 19.833 -29.333 59.5 -36s99.167 -10 178.5 -10c54.667 0 101.667 1.66699 141 5s68.333 7.66602 87 12.999l-29 520l170 28zM508.501 374.002c-37 -28.667 -90.833 -43 -161.5 -43
l17 120c58 -1.33301 104.333 2.33398 139 11.001c-44 6.66699 -76.333 15 -97 25s-31 27 -31 51c0 29.333 6 58.5 18 87.5s27.167 52.833 45.5 71.5s35.833 28 52.5 28s32 -5.16699 46 -15.5s30 -29.5 48 -57.5l-49 -50c-14.667 14 -27.667 21 -39 21
c-18 0 -31.667 -16.333 -41 -49c38 -2.66699 65.5 -9.83398 82.5 -21.501s25.5 -34.167 25.5 -67.5c0 -45.333 -18.5 -82.333 -55.5 -111z" />
    <glyph glyph-name="uni0644" unicode="&#x644;" horiz-adv-x="782" 
d="M496 755l172 32.002l38 -833c1.33301 -48 -16.334 -86.667 -53.001 -116s-80.667 -50 -132 -62s-100 -18 -146 -18c-103.333 0 -177.833 18.667 -223.5 56s-68.5 91.666 -68.5 162.999c0 66 17.667 189.667 53 371l138 -28c-26 -149.333 -39 -242 -39 -278
c0 -24 11.5 -39.5 34.5 -46.5s56.833 -10.5 101.5 -10.5c37.333 0 69.333 1.66699 96 5s55.334 8.66602 86.001 15.999z" />
    <glyph glyph-name="uni0645" unicode="&#x645;" horiz-adv-x="658" 
d="M83 53c0 70 8 123.332 24 159.999c42 94.667 84.5 163 127.5 205s90.833 63 143.5 63c34.667 0 67 -11.833 97 -35.5s54 -56.167 72 -97.5s27 -87.333 27 -138c0 -45.333 -7 -89.333 -21 -132c-4 -10.667 -9.83301 -20.167 -17.5 -28.5s-22.5 -20.166 -44.5 -35.499
c-28 -20.667 -49.667 -31 -65 -31c-6 0 -13 1.66699 -21 5l-168 76l50 -276l7 -38l-180 -56c-20.667 163.333 -31 283 -31 359zM428 211.999c0 26 -5.66699 47.333 -17 64s-28 25 -50 25c-14 0 -28.167 -6 -42.5 -18s-27.833 -29.333 -40.5 -52l144 -67c4 16 6 32 6 48z" />
    <glyph glyph-name="uni0646" unicode="&#x646;" horiz-adv-x="789" 
d="M499 513l-112 -135l-136 113l113 135zM136 348l138 -28c-26 -149.333 -39 -242 -39 -278c0 -24 11.5 -39.5 34.5 -46.5s56.833 -10.5 101.5 -10.5c38.667 0 71.5 1.66699 98.5 5s53.5 9 79.5 17l-49 363l169 38c2.66699 -22.667 4.33398 -39.667 5.00098 -51
c10.667 -94 18.667 -173.167 24 -237.5s8 -119.5 8 -165.5c0 -48 -18.333 -86.667 -55 -116s-80.334 -50 -131.001 -62s-99 -18 -145 -18c-194.667 0 -292 73 -292 219c0 66 17.667 189.667 53 371z" />
    <glyph glyph-name="uni0647" unicode="&#x647;" horiz-adv-x="608" 
d="M135 38c-34.667 34 -52.0039 76.999 -52.0039 128.999c0 37.333 6.83301 72.333 20.5 105s38.5 73.667 74.5 123l-48 33l110 157c92.667 -56.667 163 -118.5 211 -185.5s74 -150.167 78 -249.5c0.666992 -12 -1.16602 -23.667 -5.49902 -35
s-14.166 -27.666 -29.499 -48.999c-15.333 -22 -26.166 -36.5 -32.499 -43.5s-12.5 -11.5 -18.5 -13.5c-45.333 -14.667 -97.666 -22 -156.999 -22c-66 0 -116.333 17 -151 51zM371.996 214.999c-5.33301 20 -14.668 40 -28.001 60s-30.333 35.667 -51 47
c-12 -10.667 -23.333 -25 -34 -43s-16 -32 -16 -42s3.16699 -16.667 9.5 -20s17.5 -5 33.5 -5c40.667 0 69.334 1 86.001 3z" />
    <glyph glyph-name="uni0648" unicode="&#x648;" horiz-adv-x="571" 
d="M384 419.5c31.333 -23.667 56.5 -59.333 75.5 -107s28.5 -105.5 28.5 -173.5c0 -94 -24 -180.5 -72 -259.5s-137.333 -147.5 -268 -205.5l-115 173c60.667 21.333 116.834 47.166 168.501 77.499s90.5 58.833 116.5 85.5c-22.667 -5.33301 -46.334 -8 -71.001 -8
c-40 0 -73.667 5 -101 15c-9.33301 3.33301 -17.166 9 -23.499 17s-15.833 22.667 -28.5 44c-10 18.667 -16.833 33.167 -20.5 43.5s-5.16699 20.5 -4.5 30.5c4 92.667 24 166.334 60 221.001s86.667 82 152 82c37.333 0 71.666 -11.833 102.999 -35.5zM282 180.001
c24.667 0 44.335 1 59.002 3c0 31.333 -6.16699 55.333 -18.5 72s-28.5 25 -48.5 25c-17.333 0 -31.333 -8.16699 -42 -24.5s-17.334 -40.5 -20.001 -72.5c19.333 -2 42.666 -3 69.999 -3z" />
    <glyph glyph-name="uni0649" unicode="&#x649;" horiz-adv-x="881" 
d="M151.5 -201.5c-45.667 37.667 -68.502 91.8301 -68.502 162.497c0 66.667 17.667 190.667 53 372l138 -29c-26 -148 -39 -240.667 -39 -278c0 -24 12 -39.333 36 -46s61 -10 111 -10c51.333 0 99.333 3.83301 144 11.5s77.334 18.834 98.001 33.501v5
c0 5.33301 -2 8 -6 8l-31 4c-51.333 6 -89.5 12 -114.5 18s-44.667 16.5 -59 31.5s-21.5 37.5 -21.5 67.5c0 58 12.167 117.333 36.5 178s55.333 110.667 93 150s74.5 59 110.5 59c20.667 0 39.834 -3.66699 57.501 -11s36.5 -21.666 56.5 -42.999s42 -52.666 66 -93.999
l-96 -103c-32 34 -60.667 51 -86 51c-20 0 -37.167 -10 -51.5 -30s-25.166 -48 -32.499 -84c47.333 -5.33301 85.666 -13.333 114.999 -24s53.333 -30.334 72 -59.001s28 -70 28 -124c0 -50.667 -16 -96.667 -48 -138s-77.333 -74.166 -136 -98.499s-126 -36.5 -202 -36.5
c-103.333 0 -177.833 18.833 -223.5 56.5z" />
    <glyph glyph-name="uni064A" unicode="&#x64a;" horiz-adv-x="881" 
d="M661 198c29.333 -10.667 53.3311 -30.3379 71.998 -59.0049s28 -70 28 -124c0 -50.667 -16 -96.667 -48 -138s-77.333 -74.166 -136 -98.499s-126 -36.5 -202 -36.5c-103.333 0 -177.833 18.833 -223.5 56.5s-68.5 91.834 -68.5 162.501c0 66.667 17.667 190.667 53 372
l138 -29c-26 -148 -39 -240.667 -39 -278c0 -24 12 -39.333 36 -46s61 -10 111 -10c51.333 0 99.333 3.83301 144 11.5s77.334 18.834 98.001 33.501v5c0 5.33301 -2 8 -6 8l-31 4c-51.333 6 -89.5 12 -114.5 18s-44.667 16.5 -59 31.5s-21.5 37.5 -21.5 67.5
c0 58 12.167 117.333 36.5 178s55.333 110.667 93 150s74.5 59 110.5 59c20.667 0 39.834 -3.66699 57.501 -11s36.5 -21.666 56.5 -42.999s42 -52.666 66 -93.999l-96 -103c-32 34 -60.667 51 -86 51c-20 0 -37.167 -10 -51.5 -30s-25.166 -48 -32.499 -84
c47.333 -5.33301 85.666 -13.333 114.999 -24zM484.998 -340.004l123 -102l-103 -123l-116 97l-89 -107l-123 103l103 124l116 -97z" />
    <glyph glyph-name="uni064B" unicode="&#x64b;" 
d="M-9 1025l364 83l17 -133l-363 -81zM-9 803l364 84l17 -133l-363 -81z" />
    <glyph glyph-name="uni064C" unicode="&#x64c;" 
d="M367 1087c23.333 -29.333 35 -69.3379 35 -120.005l-1 -20c-3.33301 -41.333 -12 -72.166 -26 -92.499s-39.333 -38.166 -76 -53.499s-98.667 -34.666 -186 -57.999l-95 -25c-22 60.667 -36.5 103.834 -43.5 129.501s-10.5 52.5 -10.5 80.5
c0 17.333 1.33301 38.833 4 64.5s4.33398 42.167 5.00098 49.5l3 24l102 -11c-6.66699 -32 -11.334 -57.667 -14.001 -77s-4 -36.666 -4 -51.999c0 -21.333 2.66699 -41.666 8 -60.999l101 22l-13 5c-4 1.33301 -7.83301 4.5 -11.5 9.5s-7.83398 12.833 -12.501 23.5
c-4.66699 10 -7.5 17.667 -8.5 23s-0.833008 10.333 0.5 15c12 59.333 31.833 103.166 59.5 131.499s57.834 41.833 90.501 40.5c38.667 -2.66699 69.667 -18.667 93 -48zM311 974.995c0 15.333 -3.66699 27.834 -11 37.501s-17.333 14.5 -30 14.5
c-10 0 -19.5 -4.5 -28.5 -13.5s-15.833 -22.167 -20.5 -39.5c24 -6.66699 53.333 -12.667 88 -18c1.33301 9.33301 2 15.666 2 18.999z" />
    <glyph glyph-name="uni064D" unicode="&#x64d;" 
d="M-4 -121l364 84l17 -133l-363 -81zM-4 -342l364 83l17 -132l-363 -82z" />
    <glyph glyph-name="uni064E" unicode="&#x64e;" 
d="M-9 798l364 83l17 -132l-363 -82z" />
    <glyph glyph-name="uni064F" unicode="&#x64f;" 
d="M321 1087c23.333 -29.333 35 -69.333 35 -120l-1 -20c-3.33301 -44 -13.166 -76.5 -29.499 -97.5s-45.333 -39.167 -87 -54.5s-117.834 -37.666 -228.501 -66.999l-25 129l138 30l-13 5c-4 1.33301 -7.83301 4.5 -11.5 9.5s-7.83398 12.833 -12.501 23.5
c-4.66699 10 -7.5 17.667 -8.5 23s-0.833008 10.333 0.5 15c12 59.333 31.833 103.166 59.5 131.499s57.834 41.833 90.501 40.5c38.667 -2.66699 69.667 -18.667 93 -48zM265 975c0 15.333 -3.66699 27.834 -11 37.501s-17.333 14.5 -30 14.5c-10 0 -19.5 -4.5 -28.5 -13.5
s-15.833 -22.167 -20.5 -39.5c24 -6.66699 53.333 -12.667 88 -18c1.33301 9.33301 2 15.666 2 18.999z" />
    <glyph glyph-name="uni0650" unicode="&#x650;" 
d="M-9 -133l364 83l17 -132l-363 -82z" />
    <glyph glyph-name="uni0651" unicode="&#x651;" 
d="M62 706c-18 9.33301 -32.667 22.999 -44 40.999s-17 39.667 -17 65c0 13.333 2.66699 42 8 86l7 60l87 -15l-10 -84c-2 -12 1 -20 9 -24s19 -6 33 -6c7.33301 0 16.666 1 27.999 3l-4 95l84 3v-100h24c24.667 0 41 1 49 3c-1.33301 16.667 -3.83301 36.334 -7.5 59.001
s-7.5 41.667 -11.5 57l97 33c14 -56 21 -108.667 21 -158c0 -41.333 -12 -74 -36 -98s-59.333 -36 -106 -36c-31.333 0 -55.666 9.66699 -72.999 29c-20 -18 -48 -27 -84 -27c-18 0 -36 4.66699 -54 14z" />
    <glyph glyph-name="uni0652" unicode="&#x652;" 
d="M4 830c0 34 11.333 63.165 34 87.498s52.334 36.5 89.001 36.5c28.667 0 54.167 -9.66699 76.5 -29s37.166 -44.333 44.499 -75c2.66699 -10.667 4 -22.334 4 -35.001c0 -29.333 -8.66699 -55 -26 -77s-40.333 -36.333 -69 -43l-42 -9c-11.333 -2 -21 -3 -29 -3
c-22.667 0 -40.167 6.66699 -52.5 20s-21.166 32.333 -26.499 57l119 36c14 4.66699 21 12.334 21 23.001c0 7.33301 -2.33301 13 -7 17s-10.334 6 -17.001 6c-4 0 -7 -0.333008 -9 -1c-4.66699 -0.666992 -8 -2.66699 -10 -6s-2.66699 -6.66602 -2 -9.99902l-94 -30
c-2.66699 10.667 -4 22.334 -4 35.001z" />
    <glyph glyph-name="uni0653" unicode="&#x653;" 
d="M316 779c-51.333 -0.666992 -97.002 3.00098 -137.002 11.001c-11.333 2 -20 3 -26 3s-11 -3 -15 -9s-9.33301 -19.333 -16 -40l-122 30c12 51.333 24.667 91.166 38 119.499s29 48.333 47 60s40.333 17.5 67 17.5c6.66699 0 23.334 -2 50.001 -6
c24.667 -4 47.334 -7 68.001 -9s45 -2.66699 73 -2l72 1l-38 -175z" />
    <glyph glyph-name="uni0654" unicode="&#x654;" 
d="M-8 798l100 20c-12.667 29.333 -19 57.333 -19 84c0 6 0.666992 15 2 27c4 34.667 18.5 62.5 43.5 83.5s57.167 31.5 96.5 31.5c6 0 15.667 -0.666992 29 -2c14.667 -1.33301 32.334 -5 53.001 -11l-30 -125c-4.66699 0.666992 -11.167 2 -19.5 4
s-15.833 3.33301 -22.5 4c-18.667 2 -33.334 2.66699 -44.001 2c0 -22 5 -46.333 15 -73l155 38l18 -131l-359 -83z" />
    <glyph glyph-name="uni0655" unicode="&#x655;" 
d="M-8 -296l100.002 19.999c-12.667 29.333 -19 57.333 -19 84c0 6 0.666992 15 2 27c4 34.667 18.167 62.334 42.5 83.001s56.166 31 95.499 31c6 0 16.333 -0.666992 31 -2c14 -0.666992 31.667 -4 53 -10l-30 -125c-4.66699 0.666992 -11.167 2 -19.5 4
s-15.833 3.33301 -22.5 4c-14.667 1.33301 -24.334 2 -29.001 2c-6.66699 0 -11.667 -0.333008 -15 -1c0 -22.667 5 -46.667 15 -72l155 38l18 -131l-359 -83z" />
    <glyph glyph-name="uni0656" unicode="&#x656;" 
d="M0 10l100 12l1 -215l-98 -7z" />
    <glyph glyph-name="uni0660" unicode="&#x660;" horiz-adv-x="640" 
d="M200.5 63.5c-36.333 21 -64.999 49.665 -85.999 85.998s-31.5 76.5 -31.5 120.5s10.667 84 32 120s50.166 64.333 86.499 85s76.833 31 121.5 31c42 0 80.833 -10.5 116.5 -31.5s64 -49.5 85 -85.5s31.5 -75.667 31.5 -119
c-0.666992 -43.333 -11.5 -83.166 -32.5 -119.499s-49.5 -65.166 -85.5 -86.499s-75 -32 -117 -32c-44 0 -84.167 10.5 -120.5 31.5zM381.501 208.498c17 17 25.5 37.5 25.5 61.5c0 24.667 -8.5 45.5 -25.5 62.5s-37.833 25.5 -62.5 25.5s-45.5 -8.5 -62.5 -25.5
s-25.5 -37.833 -25.5 -62.5c0 -24 8.5 -44.5 25.5 -61.5s37.833 -25.5 62.5 -25.5s45.5 8.5 62.5 25.5z" />
    <glyph glyph-name="uni0661" unicode="&#x661;" horiz-adv-x="389" 
d="M253 787c16.667 -126.667 29.667 -239.332 39 -337.999s14 -195.334 14 -290.001c0 -62 -1.66699 -115 -5 -159l-140 -9c0.666992 16.667 1 41.667 1 75c0 221.333 -26.333 452.333 -79 693z" />
    <glyph glyph-name="uni0662" unicode="&#x662;" horiz-adv-x="683" 
d="M156.5 354c-17.667 126 -42.167 260.999 -73.5 404.999l170 28c6 -36 13 -85 21 -147c2 -11.333 5.16699 -19.833 9.5 -25.5s11.5 -9.5 21.5 -11.5s25 -3 45 -3c38.667 0 70 4 94 12l-24 161l164 31c6 -44 10.667 -82.667 14 -116s5 -67.666 5 -102.999
c0 -70 -19 -122.833 -57 -158.5s-91.667 -53.5 -161 -53.5c-29.333 0 -56 6 -80 18c12 -113.333 18 -217 18 -311c0 -35.333 -0.333008 -62 -1 -80l-140 -9c0.666992 116 -7.83301 237 -25.5 363z" />
    <glyph glyph-name="uni0663" unicode="&#x663;" horiz-adv-x="905" 
d="M808 770c4.66699 -34 8.16797 -64.666 10.501 -91.999s3.5 -60 3.5 -98c0 -68.667 -19.333 -121.5 -58 -158.5s-88.334 -55.5 -149.001 -55.5c-30.667 0 -58 3.5 -82 10.5s-42 17.167 -54 30.5c-15.333 -14 -33.5 -24.333 -54.5 -31s-41.5 -10 -61.5 -10
c-18 0 -37 6 -57 18c12 -122.667 18 -224.334 18 -305.001c0 -18 -0.666992 -44.333 -2 -79l-140 -9c0.666992 115.333 -7.66602 235.333 -24.999 360s-42 259.334 -74 404.001l170 27l21 -138c3.33301 -22.667 7.66602 -37.334 12.999 -44.001s16 -10 32 -10
c26 0 48.667 4.66699 68 14l-4 156l153 7l5 -170c8.66699 -2 25 -3 49 -3c27.333 0 52 4 74 12l-24 165l164 31z" />
    <glyph glyph-name="uni0664" unicode="&#x664;" horiz-adv-x="614" 
d="M101 336.5c12 34.333 28.6699 64.166 50.0029 89.499c-37.333 45.333 -56 104.333 -56 177c0 62.667 22.167 110.667 66.5 144s108.833 50 193.5 50c39.333 0 83.666 -4 132.999 -12l-14 -178c-34 4 -65.667 6 -95 6c-46.667 0 -87 -4.66699 -121 -14
c5.33301 -35.333 24 -60.166 56 -74.499s83.333 -20.5 154 -18.5l-1 -168c-66.667 0.666992 -117.334 -5.16602 -152.001 -17.499s-59.334 -36.5 -74.001 -72.5c4 -14 13.667 -24 29 -30s40.333 -9 75 -9c54 0 117.333 4.66699 190 14l5 -213
c-42 -7.33301 -78.167 -12.333 -108.5 -15s-62.5 -4 -96.5 -4c-78 0 -139.5 21.167 -184.5 63.5s-67.5 100.166 -67.5 173.499c0 38 6 74.167 18 108.5z" />
    <glyph glyph-name="uni0665" unicode="&#x665;" horiz-adv-x="767" 
d="M154.5 25c-47.667 36 -71.499 89.665 -71.499 160.998c0 70.667 15 146.667 45 228s67.167 149.833 111.5 205.5s86.166 83.5 125.499 83.5c50.667 0 100.834 -26.667 150.501 -80s90.167 -121.666 121.5 -204.999s47 -166.666 47 -249.999
c0 -68 -25.667 -117.833 -77 -149.5s-132 -47.5 -242 -47.5c-92.667 0 -162.834 18 -210.501 54zM519.001 207.998c-5.33301 38 -17 79.832 -35 125.499s-37.5 84.5 -58.5 116.5s-38.167 48 -51.5 48c-9.33301 0 -23 -17.5 -41 -52.5s-34.333 -74.5 -49 -118.5
s-22 -77.667 -22 -101c0 -11.333 8.5 -19.666 25.5 -24.999s45.833 -8.33301 86.5 -9c64.667 0 113 5.33301 145 16z" />
    <glyph glyph-name="uni0666" unicode="&#x666;" horiz-adv-x="629" 
d="M352.5 212.5c-3.66699 69 -5.49609 173.835 -5.49609 314.502c-17.333 -1.33301 -31 -2 -41 -2c-56.667 0 -138.334 9 -245.001 27l-9 222c70.667 -8.66699 128.167 -14.667 172.5 -18s90.166 -5 137.499 -5c40.667 0 91 1 151 3c0 -180 0.666992 -311.333 2 -394
s4.16602 -147.334 8.49902 -194.001s11.833 -94.334 22.5 -143.001l-166 -52c-14.667 92 -23.834 172.5 -27.501 241.5z" />
    <glyph glyph-name="uni0667" unicode="&#x667;" horiz-adv-x="779" 
d="M583.5 443.5c-39.667 -85.667 -71.8311 -168.332 -96.498 -247.999s-36.667 -140.5 -36 -182.5v-13l-139 -11v9c-0.666992 56.667 -9.83398 122.5 -27.501 197.5s-44.5 153.833 -80.5 236.5s-79.667 162.334 -131 239.001l144 126
c30.667 -44.667 64.167 -113.834 100.5 -207.501s62.166 -180.167 77.499 -259.5c11.333 80.667 34.333 167.667 69 261s70 163.666 106 210.999l136 -140c-42 -60 -82.833 -132.833 -122.5 -218.5z" />
    <glyph glyph-name="uni0668" unicode="&#x668;" horiz-adv-x="779" 
d="M561 -15c-30.667 44.667 -64.1699 114.168 -100.503 208.501s-61.833 180.5 -76.5 258.5c-11.333 -81.333 -34.5 -168.666 -69.5 -261.999s-70.5 -163.666 -106.5 -210.999l-135 140c41.333 60 81.833 133 121.5 219s71.834 168.667 96.501 248s37 140 37 182v14l139 10
v-9c0.666992 -56.667 9.83398 -122.334 27.501 -197.001s44.334 -153.334 80.001 -236.001s79.167 -162.334 130.5 -239.001z" />
    <glyph glyph-name="uni0669" unicode="&#x669;" horiz-adv-x="662" 
d="M546.5 232.5c5 -71 15.833 -143.163 32.5 -216.496l-155 -50c-10 64 -17.667 117.5 -23 160.5s-8 82.5 -8 118.5v25c-26 -6 -59.333 -9 -100 -9c-58.667 0 -104.667 5.66699 -138 17c-9.33301 3.33301 -17.666 8.66602 -24.999 15.999s-16 19.666 -26 36.999
c-12.667 20 -21 35.5 -25 46.5s-6 21.833 -6 32.5c0 82.667 9.5 154.167 28.5 214.5s46.167 106.666 81.5 138.999s77.333 48.5 126 48.5c48 0 89.167 -13 123.5 -39s60.666 -62.833 78.999 -110.5s27.5 -103.834 27.5 -168.501c0 -103.333 2.5 -190.5 7.5 -261.5z
M300 473.004c44.667 0 75.998 2 93.998 6c0 34 -4.16699 62.667 -12.5 86s-19.166 40.5 -32.499 51.5s-27.333 16.5 -42 16.5c-25.333 0 -46.666 -12.833 -63.999 -38.5s-27.333 -64.167 -30 -115.5c14.667 -4 43.667 -6 87 -6z" />
    <glyph glyph-name="uni066A" unicode="&#x66a;" horiz-adv-x="1045" 
d="M228 9l458 804l148 -68l-455 -805zM373.5 748c29 -16.667 51.833 -39.5 68.5 -68.5s25 -61.167 25 -96.5s-8.33301 -67.333 -25 -96s-39.5 -51.334 -68.5 -68.001s-61.167 -25 -96.5 -25c-34 0 -65.5 8.5 -94.5 25.5s-51.833 39.833 -68.5 68.5s-25 60.334 -25 95.001
s8.5 66.5 25.5 95.5s39.833 52 68.5 69s60 25.5 94 25.5c35.333 0 67.5 -8.33301 96.5 -25zM228.5 632c-13.667 -13.333 -20.5 -29.666 -20.5 -48.999c0 -20 6.83301 -36.833 20.5 -50.5s30.5 -20.5 50.5 -20.5c19.333 0 35.833 6.83301 49.5 20.5s20.5 30.5 20.5 50.5
c0 19.333 -6.83301 35.666 -20.5 48.999s-30.167 20 -49.5 20c-20 0 -36.833 -6.66699 -50.5 -20zM676.5 -25c-29 16.667 -51.999 39.499 -68.999 68.499s-25.5 61.167 -25.5 96.5s8.5 67.333 25.5 96s40 51.334 69 68.001s61.167 25 96.5 25
c33.333 0 64.333 -8.33301 93 -25s51.5 -39.334 68.5 -68.001s25.5 -60 25.5 -94c0 -34.667 -8.33301 -66.667 -25 -96s-39.334 -52.666 -68.001 -69.999s-60 -26 -94 -26c-35.333 0 -67.5 8.33301 -96.5 25zM820.501 90.499c13.667 13.667 20.5 30.167 20.5 49.5
c0 20 -6.83301 36.667 -20.5 50s-30.167 20 -49.5 20s-35.833 -6.66699 -49.5 -20s-20.5 -30 -20.5 -50c0 -19.333 6.83301 -35.833 20.5 -49.5s30.167 -20.5 49.5 -20.5s35.833 6.83301 49.5 20.5z" />
    <glyph glyph-name="uni066B" unicode="&#x66b;" horiz-adv-x="393" 
d="M303.5 812c23 -25.333 34.5 -61.334 34.5 -108.001c0 -39.333 -11.167 -83.666 -33.5 -132.999s-50.166 -94.666 -83.499 -135.999l-91 78c31.333 35.333 54.333 67.333 69 96c-30.667 0 -56.834 11.667 -78.501 35s-32.5 50.666 -32.5 81.999
c0 36 11.833 65.667 35.5 89s52.5 35 86.5 35c39.333 0 70.5 -12.667 93.5 -38z" />
    <glyph glyph-name="uni066C" unicode="&#x66c;" horiz-adv-x="404" 
d="M-36 -241l293 510l147 -90l-292 -509z" />
    <glyph glyph-name="uni066D" unicode="&#x66d;" horiz-adv-x="611" 
d="M435 236l58 -73l-135 -99l-53 79l-52 -79l-136 99l57 73l-91 28l53 157l89 -32l-4 96h169l-4 -96l89 32l53 -157z" />
    <glyph glyph-name="uni066E" unicode="&#x66e;" horiz-adv-x="959" 
d="M870 346c2 -40 3 -79.001 3 -117.001c0 -44 -6.5 -81 -19.5 -111s-34.5 -53.333 -64.5 -70c-31.333 -18 -73.166 -31.167 -125.499 -39.5s-118.5 -12.5 -198.5 -12.5c-82 0 -150.5 6 -205.5 18s-98.167 34.833 -129.5 68.5s-47 81.834 -47 144.501
c0 15.333 2.66699 41 8 77l25 157l138 -29l-22 -133c-2.66699 -13.333 -4 -23 -4 -29c0 -17.333 19.833 -29.333 59.5 -36s99.167 -10 178.5 -10c57.333 0 105.666 1.16699 144.999 3.5s75 6.5 107 12.5l-27 209l170 30c4 -48.667 7 -93 9 -133z" />
    <glyph glyph-name="uni066F" unicode="&#x66f;" horiz-adv-x="877" 
d="M691.5 479.5c31 -23.667 55.667 -59.166 74 -106.499s27.5 -105.333 27.5 -174c0 -70 -1 -122.667 -3 -158s-7 -65.833 -15 -91.5s-20.667 -48.5 -38 -68.5c-32.667 -35.333 -79.167 -60.833 -139.5 -76.5s-134.5 -23.834 -222.5 -24.501
c-103.333 0 -177.833 18.833 -223.5 56.5s-68.5 91.5 -68.5 161.5c0 66.667 17.667 190.667 53 372l138 -28l-6 -38c-22 -130.667 -33 -211 -33 -241c0 -23.333 11.5 -38.5 34.5 -45.5s56.833 -10.5 101.5 -10.5c66.667 0 121 1.5 163 4.5s80.667 7.83301 116 14.5
c0 19.333 0.333008 34 1 44c-30.667 -5.33301 -63.334 -8 -98.001 -8c-40 0 -73.667 5 -101 15c-9.33301 3.33301 -17.333 9 -24 17s-15.667 22 -27 42c-11.333 20.667 -18.666 35.667 -21.999 45s-5 20 -5 32c4.66699 92.667 25 166.167 61 220.5s86.667 81.5 152 81.5
c38.667 0 73.5 -11.833 104.5 -35.5zM647 243.001c0 31.333 -6.16602 55.333 -18.499 72s-28.5 25 -48.5 25c-17.333 0 -31.333 -8.16699 -42 -24.5s-17.334 -40.5 -20.001 -72.5c18 -2 41.333 -3 70 -3c23.333 0 43 1 59 3z" />
    <glyph glyph-name="uni0670" unicode="&#x670;" 
d="M0 1052l100 12l1 -215l-98 -7z" />
    <glyph glyph-name="uni0671" unicode="&#x671;" horiz-adv-x="319" 
d="M35 777c-24.667 11.333 -36.999 29.0029 -36.999 53.0029v31l-17.5 -29.5c-9 -15 -17.5 -32.167 -25.5 -51.5l-91 47c4 19.333 15.833 43.166 35.5 71.499s44.5 52.666 74.5 72.999s62 29.5 96 27.5l1 -93c3.33301 -2 6 -3 8 -3c62 88 118 132 168 132
c39.333 0 69 -12.333 89 -37s30 -60.334 30 -107.001c0 -29.333 -6.33301 -52 -19 -68c-18 -20 -43.833 -35.5 -77.5 -46.5s-71.834 -16.5 -114.501 -16.5c-55.333 0 -95.333 5.66699 -120 17zM275.001 897.003c-0.666992 12 -3.16699 19.999 -7.5 23.999s-11.5 6 -21.5 6
c-12 0 -25.667 -3.66699 -41 -11s-30.333 -18.666 -45 -33.999c40.667 0.666992 79 5.66699 115 15zM230.001 0.00195312l-149 -20l-16 680l170 27z" />
    <glyph glyph-name="uni067E" unicode="&#x67e;" horiz-adv-x="959" 
d="M870 346c2 -40 3 -79.001 3 -117.001c0 -44 -6.5 -81 -19.5 -111s-34.5 -53.333 -64.5 -70c-31.333 -18 -73.166 -31.167 -125.499 -39.5s-118.5 -12.5 -198.5 -12.5c-82 0 -150.5 6 -205.5 18s-98.167 34.833 -129.5 68.5s-47 81.834 -47 144.501
c0 15.333 2.66699 41 8 77l25 157l138 -29l-22 -133c-2.66699 -13.333 -4 -23 -4 -29c0 -17.333 19.833 -29.333 59.5 -36s99.167 -10 178.5 -10c57.333 0 105.666 1.16699 144.999 3.5s75 6.5 107 12.5l-27 209l170 30c4 -48.667 7 -93 9 -133zM573 -113.001l115 -97
l-97 -115l-109 92l-83 -101l-116 96l98 117l108 -91zM484 -289.001l115 -97l-96 -116l-115 99z" />
    <glyph glyph-name="uni0686" unicode="&#x686;" horiz-adv-x="833" 
d="M705 234c-62 -4.66699 -124.333 -21.335 -187 -50.002s-117.834 -62 -165.501 -100s-81.5 -73 -101.5 -105c-0.666992 -9.33301 -1 -22.333 -1 -39c0 -43.333 7.5 -76.5 22.5 -99.5s39.333 -38.833 73 -47.5s81.167 -13 142.5 -13h205l-47 -229h-183
c-126 0 -223.167 29.5 -291.5 88.5s-102.5 148.833 -102.5 269.5c0 84.667 28.5 163.334 85.5 236.001s132.833 132.334 227.5 179.001l40 18l-48 15c-54 16.667 -90 25 -108 25c-16.667 0 -28.667 -4.5 -36 -13.5s-13.666 -22.833 -18.999 -41.5l-132 27
c23.333 140 82.333 210 177 210c22.667 0 45.5 -3 68.5 -9s51.5 -15 85.5 -27l21 -7l36 -12c56.667 -20 106.5 -35.333 149.5 -46s88.167 -16 135.5 -16zM625 3.99902l-60 -72l-69 58l-52 -63l-73 60l61 73l69 -57l52 62zM497 -46.001l72 -61l-60 -72l-72 61z" />
    <glyph glyph-name="uni0698" unicode="&#x698;" horiz-adv-x="432" 
d="M207 662l-116 97l98 115l115 -96zM118 482l-116 97l98 117l109 -92l83 99l116 -96l-98 -115l-109 91zM325 398c16 -129.333 24.002 -232.001 24.002 -308.001c0 -62 -8.33301 -115.667 -25 -161s-47.834 -89.666 -93.501 -132.999s-111.834 -88 -198.501 -134l-119 174
c66 34 117.5 62.667 154.5 86s65 44.5 84 63.5s34.167 39.5 45.5 61.5l-46 315z" />
    <glyph glyph-name="uni06A1" unicode="&#x6a1;" horiz-adv-x="1080" 
d="M975 151c-13.333 -57.333 -39.333 -97.334 -78 -120.001c-18.667 -11.333 -39.167 -19.166 -61.5 -23.499s-51.833 -7.16602 -88.5 -8.49902s-96.667 -2 -180 -2c-20 -0.666992 -54 -1 -102 -1c-82 0 -150.5 6 -205.5 18s-98.167 34.833 -129.5 68.5
s-47 81.834 -47 144.501c0 15.333 2.66699 41 8 77l25 157l138 -29l-22 -133c-2.66699 -13.333 -4 -23 -4 -29c0 -17.333 19.833 -29.333 59.5 -36s99.167 -10 178.5 -10h117c134 0 221 2 261 6c0.666992 3.33301 1 10.333 1 21l1 21
c-26.667 -4.66699 -57.334 -7 -92.001 -7c-40 0 -73.667 5 -101 15c-9.33301 3.33301 -17.5 9 -24.5 17s-16.167 22.333 -27.5 43c-10.667 20 -17.667 34.667 -21 44s-5 19.666 -5 30.999c4.66699 93.333 25 167.166 61 221.499s86.667 81.5 152 81.5
c38.667 0 73.5 -11.833 104.5 -35.5s55.667 -59.167 74 -106.5s27.5 -105.333 27.5 -174c0.666992 -110 -5.66602 -193.667 -18.999 -251zM789 443.999c18 0 37.668 0.666992 59.001 2c0 31.333 -6.16699 55.333 -18.5 72s-28.5 25 -48.5 25
c-17.333 0 -31.333 -8.16699 -42 -24.5s-17.334 -40.5 -20.001 -72.5c24 -1.33301 47.333 -2 70 -2z" />
    <glyph glyph-name="uni06A9" unicode="&#x6a9;" horiz-adv-x="951" 
d="M824 395c32 -64 48 -132.998 48 -206.998c0 -48.667 -13.833 -87 -41.5 -115s-69.5 -47.833 -125.5 -59.5s-130 -17.5 -222 -17.5c-86.667 0 -158.5 5.66699 -215.5 17s-102 33.833 -135 67.5s-49.5 82.167 -49.5 145.5c0 15.333 2.66699 41 8 77l25 157l138 -28
l-22 -133c-2.66699 -13.333 -4 -23 -4 -29c0 -17.333 20 -29.5 60 -36.5s99.333 -10.5 178 -10.5c100 0 182.333 6 247 18c-6.66699 45.333 -33.167 92.833 -79.5 142.5s-104.5 94.167 -174.5 133.5l-2 171c58.667 31.333 122.5 62.166 191.5 92.499
s135.167 57.166 198.5 80.499l21 -186l-80 -32l-81 -33l-56 -23c14 -6 27.667 -15 41 -27c56 -46 100 -101 132 -165z" />
    <glyph glyph-name="uni06AF" unicode="&#x6af;" horiz-adv-x="951" 
d="M698 817l-241 -111l1 107l140 61l93 41zM824 395c32 -64 48 -132.998 48 -206.998c0 -48.667 -13.833 -87 -41.5 -115s-69.5 -47.833 -125.5 -59.5s-130 -17.5 -222 -17.5c-86.667 0 -158.5 5.66699 -215.5 17s-102 33.833 -135 67.5s-49.5 82.167 -49.5 145.5
c0 15.333 2.66699 41 8 77l25 157l138 -28l-22 -133c-2.66699 -13.333 -4 -23 -4 -29c0 -17.333 20 -29.5 60 -36.5s99.333 -10.5 178 -10.5c100 0 182.333 6 247 18c-6.66699 45.333 -33.167 92.833 -79.5 142.5s-104.5 94.167 -174.5 133.5l-2 171
c58.667 31.333 122.5 62.166 191.5 92.499s135.167 57.166 198.5 80.499l21 -186l-80 -32l-81 -33l-56 -23c14 -6 27.667 -15 41 -27c56 -46 100 -101 132 -165z" />
    <glyph glyph-name="uni06BA" unicode="&#x6ba;" horiz-adv-x="789" 
d="M136 348l138 -28c-26 -149.333 -39 -242 -39 -278c0 -24 11.5 -39.5 34.5 -46.5s56.833 -10.5 101.5 -10.5c38.667 0 71.5 1.66699 98.5 5s53.5 9 79.5 17l-49 363l169 38c2.66699 -22.667 4.33398 -39.667 5.00098 -51c10.667 -94 18.667 -173.167 24 -237.5
s8 -119.5 8 -165.5c0 -48 -18.333 -86.667 -55 -116s-80.334 -50 -131.001 -62s-99 -18 -145 -18c-194.667 0 -292 73 -292 219c0 66 17.667 189.667 53 371z" />
    </font>
</defs>
</svg>
